G04 EAGLE Gerber RS-274X export*
G75*
%MOMM*%
%FSLAX34Y34*%
%LPD*%
%INCopper Layer 15*%
%IPPOS*%
%AMOC8*
5,1,8,0,0,1.08239X$1,22.5*%
G01*
G04 Define Apertures*
%ADD10C,1.524000*%
%ADD11C,0.654800*%
%ADD12C,0.508000*%
%ADD13C,0.254000*%
G36*
X371685Y2641D02*
X372102Y2926D01*
X372375Y3352D01*
X372460Y3810D01*
X372460Y152172D01*
X372359Y152667D01*
X372074Y153084D01*
X371648Y153356D01*
X371150Y153441D01*
X370658Y153325D01*
X370292Y153070D01*
X369293Y152071D01*
X367157Y151186D01*
X364843Y151186D01*
X363566Y151715D01*
X363070Y151812D01*
X362575Y151707D01*
X362161Y151418D01*
X361892Y150990D01*
X361810Y150542D01*
X361810Y139422D01*
X285578Y63190D01*
X158125Y63190D01*
X157630Y63089D01*
X157213Y62804D01*
X156940Y62378D01*
X156856Y61880D01*
X156972Y61388D01*
X157227Y61022D01*
X158544Y59705D01*
X159540Y57301D01*
X159540Y54699D01*
X158544Y52295D01*
X156705Y50456D01*
X154301Y49460D01*
X151699Y49460D01*
X149295Y50456D01*
X147456Y52295D01*
X146460Y54699D01*
X146460Y57301D01*
X147456Y59705D01*
X148773Y61022D01*
X149052Y61443D01*
X149145Y61940D01*
X149036Y62434D01*
X148744Y62846D01*
X148314Y63112D01*
X147875Y63190D01*
X143320Y63190D01*
X142825Y63089D01*
X142422Y62818D01*
X118402Y38798D01*
X118123Y38376D01*
X118030Y37900D01*
X118030Y36843D01*
X117145Y34707D01*
X115509Y33071D01*
X113373Y32186D01*
X111059Y32186D01*
X108711Y33159D01*
X108657Y33195D01*
X108160Y33288D01*
X107666Y33179D01*
X107617Y33146D01*
X105301Y32186D01*
X102987Y32186D01*
X100639Y33159D01*
X100585Y33195D01*
X100088Y33288D01*
X99594Y33179D01*
X99545Y33146D01*
X97229Y32186D01*
X94915Y32186D01*
X92779Y33071D01*
X91143Y34707D01*
X90258Y36843D01*
X90258Y39157D01*
X91143Y41293D01*
X91264Y41414D01*
X91543Y41836D01*
X91636Y42333D01*
X91528Y42826D01*
X91235Y43239D01*
X90805Y43504D01*
X90305Y43581D01*
X89880Y43486D01*
X89156Y43186D01*
X86843Y43186D01*
X85305Y43823D01*
X84819Y43920D01*
X83181Y43920D01*
X82695Y43823D01*
X81157Y43186D01*
X78843Y43186D01*
X76707Y44071D01*
X75071Y45707D01*
X74186Y47843D01*
X74186Y48754D01*
X74085Y49250D01*
X73800Y49667D01*
X73374Y49939D01*
X72876Y50024D01*
X72430Y49928D01*
X71301Y49460D01*
X68699Y49460D01*
X66295Y50456D01*
X64456Y52295D01*
X63460Y54699D01*
X63460Y57301D01*
X64456Y59705D01*
X66295Y61544D01*
X68699Y62540D01*
X71301Y62540D01*
X73705Y61544D01*
X75544Y59705D01*
X76540Y57301D01*
X76540Y55761D01*
X76641Y55265D01*
X76926Y54848D01*
X77352Y54576D01*
X77850Y54491D01*
X78296Y54587D01*
X78844Y54814D01*
X81157Y54814D01*
X82695Y54177D01*
X83181Y54080D01*
X84819Y54080D01*
X85305Y54177D01*
X86843Y54814D01*
X89157Y54814D01*
X90695Y54177D01*
X91181Y54080D01*
X98370Y54080D01*
X98865Y54181D01*
X99268Y54452D01*
X113834Y69018D01*
X114113Y69439D01*
X114206Y69936D01*
X114097Y70430D01*
X113805Y70842D01*
X113375Y71108D01*
X112936Y71186D01*
X111059Y71186D01*
X108711Y72159D01*
X108657Y72195D01*
X108160Y72288D01*
X107666Y72179D01*
X107617Y72146D01*
X105301Y71186D01*
X102987Y71186D01*
X100639Y72159D01*
X100585Y72195D01*
X100088Y72288D01*
X99594Y72179D01*
X99545Y72146D01*
X97229Y71186D01*
X94915Y71186D01*
X92779Y72071D01*
X91143Y73707D01*
X90258Y75843D01*
X90258Y78157D01*
X91143Y80293D01*
X92779Y81929D01*
X94915Y82814D01*
X97228Y82814D01*
X98434Y82315D01*
X98930Y82218D01*
X99425Y82323D01*
X99839Y82612D01*
X100108Y83040D01*
X100190Y83488D01*
X100190Y325578D01*
X122814Y348202D01*
X123093Y348624D01*
X123186Y349100D01*
X123186Y350157D01*
X124071Y352293D01*
X124380Y352602D01*
X124659Y353023D01*
X124752Y353520D01*
X124643Y354014D01*
X124380Y354398D01*
X124071Y354707D01*
X123186Y356843D01*
X123186Y359157D01*
X123823Y360695D01*
X123920Y361181D01*
X123920Y363819D01*
X123823Y364305D01*
X123186Y365843D01*
X123186Y368157D01*
X124071Y370293D01*
X125707Y371929D01*
X127843Y372814D01*
X130157Y372814D01*
X132293Y371929D01*
X133929Y370293D01*
X134814Y368157D01*
X134814Y365843D01*
X134177Y364305D01*
X134080Y363819D01*
X134080Y361181D01*
X134177Y360695D01*
X134814Y359157D01*
X134814Y356843D01*
X133929Y354707D01*
X133620Y354398D01*
X133341Y353977D01*
X133248Y353480D01*
X133357Y352986D01*
X133620Y352602D01*
X133929Y352293D01*
X134814Y350157D01*
X134814Y347843D01*
X133929Y345707D01*
X133620Y345398D01*
X133341Y344977D01*
X133248Y344480D01*
X133357Y343986D01*
X133620Y343602D01*
X133929Y343293D01*
X134814Y341157D01*
X134814Y340100D01*
X134915Y339605D01*
X135186Y339202D01*
X139810Y334578D01*
X139810Y190422D01*
X135318Y185930D01*
X135039Y185508D01*
X134946Y185032D01*
X134946Y183843D01*
X134061Y181707D01*
X133752Y181398D01*
X133473Y180977D01*
X133380Y180480D01*
X133489Y179986D01*
X133752Y179602D01*
X134061Y179293D01*
X134946Y177157D01*
X134946Y174843D01*
X134061Y172707D01*
X133686Y172332D01*
X133407Y171911D01*
X133314Y171414D01*
X133423Y170920D01*
X133686Y170536D01*
X133929Y170293D01*
X134814Y168157D01*
X134814Y165843D01*
X134177Y164305D01*
X134080Y163819D01*
X134080Y161181D01*
X134177Y160695D01*
X134814Y159157D01*
X134814Y156843D01*
X134177Y155305D01*
X134080Y154819D01*
X134080Y94368D01*
X134181Y93873D01*
X134466Y93456D01*
X134892Y93184D01*
X135390Y93099D01*
X135882Y93215D01*
X136248Y93470D01*
X136707Y93929D01*
X138843Y94814D01*
X141157Y94814D01*
X142695Y94177D01*
X143181Y94080D01*
X144819Y94080D01*
X145305Y94177D01*
X146843Y94814D01*
X149196Y94814D01*
X149691Y94915D01*
X150108Y95200D01*
X150369Y95598D01*
X151071Y97293D01*
X152707Y98929D01*
X154843Y99814D01*
X157157Y99814D01*
X159293Y98929D01*
X160929Y97293D01*
X161814Y95157D01*
X161814Y92843D01*
X160929Y90707D01*
X159293Y89071D01*
X157157Y88186D01*
X154804Y88186D01*
X154309Y88085D01*
X153892Y87800D01*
X153631Y87402D01*
X152929Y85707D01*
X151293Y84071D01*
X149157Y83186D01*
X146843Y83186D01*
X145305Y83823D01*
X144819Y83920D01*
X143181Y83920D01*
X142695Y83823D01*
X141157Y83186D01*
X138843Y83186D01*
X136707Y84071D01*
X136248Y84530D01*
X135827Y84809D01*
X135330Y84902D01*
X134836Y84793D01*
X134424Y84501D01*
X134158Y84071D01*
X134080Y83632D01*
X134080Y76900D01*
X134181Y76404D01*
X134466Y75988D01*
X134892Y75715D01*
X135390Y75630D01*
X135882Y75747D01*
X136248Y76002D01*
X139120Y78874D01*
X275960Y78874D01*
X276455Y78975D01*
X276858Y79246D01*
X295634Y98022D01*
X295913Y98443D01*
X296006Y98940D01*
X295897Y99434D01*
X295605Y99846D01*
X295175Y100112D01*
X294736Y100190D01*
X199422Y100190D01*
X144190Y155422D01*
X144190Y184614D01*
X146649Y187073D01*
X146928Y187494D01*
X147021Y187971D01*
X147021Y189358D01*
X147906Y191495D01*
X149542Y193130D01*
X151678Y194015D01*
X153991Y194015D01*
X156128Y193130D01*
X157764Y191495D01*
X158649Y189358D01*
X158649Y187081D01*
X158749Y186586D01*
X159035Y186169D01*
X159433Y185908D01*
X160061Y185647D01*
X161697Y184012D01*
X162582Y181875D01*
X162582Y179562D01*
X162260Y178785D01*
X162163Y178289D01*
X162268Y177794D01*
X162535Y177401D01*
X163996Y175940D01*
X164969Y173592D01*
X164982Y173527D01*
X165268Y173110D01*
X165693Y172838D01*
X165752Y172827D01*
X168068Y171868D01*
X169704Y170232D01*
X170676Y167884D01*
X170690Y167820D01*
X170975Y167403D01*
X171401Y167130D01*
X171459Y167119D01*
X173776Y166160D01*
X173825Y166111D01*
X174247Y165831D01*
X174744Y165739D01*
X175209Y165835D01*
X177398Y166742D01*
X179711Y166742D01*
X182063Y165768D01*
X182560Y165671D01*
X183054Y165776D01*
X183196Y165872D01*
X185470Y166814D01*
X187783Y166814D01*
X190064Y165869D01*
X190236Y165755D01*
X190733Y165663D01*
X191227Y165771D01*
X191383Y165878D01*
X193841Y166896D01*
X193930Y166915D01*
X194347Y167200D01*
X194620Y167626D01*
X194626Y167661D01*
X195590Y169988D01*
X197226Y171624D01*
X197785Y171855D01*
X198204Y172138D01*
X198480Y172562D01*
X198569Y173029D01*
X198569Y175403D01*
X199454Y177540D01*
X201089Y179176D01*
X201469Y179333D01*
X201888Y179616D01*
X202164Y180039D01*
X202253Y180537D01*
X202209Y180745D01*
X202209Y183179D01*
X203094Y185316D01*
X204850Y187072D01*
X205129Y187494D01*
X205222Y187991D01*
X205126Y188457D01*
X204926Y188938D01*
X204926Y191251D01*
X205811Y193388D01*
X207447Y195024D01*
X209583Y195909D01*
X211897Y195909D01*
X214033Y195024D01*
X215669Y193388D01*
X216554Y191251D01*
X216554Y190530D01*
X216655Y190035D01*
X216926Y189632D01*
X219810Y186748D01*
X219810Y168523D01*
X219911Y168027D01*
X220182Y167625D01*
X228708Y159098D01*
X229130Y158819D01*
X229627Y158727D01*
X230120Y158835D01*
X230532Y159128D01*
X230798Y159558D01*
X230875Y160057D01*
X230780Y160482D01*
X230186Y161916D01*
X230186Y164229D01*
X231159Y166577D01*
X231195Y166631D01*
X231288Y167128D01*
X231179Y167622D01*
X231146Y167671D01*
X230186Y169987D01*
X230186Y172301D01*
X231159Y174649D01*
X231195Y174703D01*
X231288Y175200D01*
X231179Y175694D01*
X231146Y175743D01*
X230186Y178059D01*
X230186Y180373D01*
X231071Y182509D01*
X232707Y184145D01*
X234843Y185030D01*
X237157Y185030D01*
X239293Y184145D01*
X240929Y182509D01*
X241814Y180373D01*
X241814Y178059D01*
X240841Y175711D01*
X240805Y175657D01*
X240712Y175160D01*
X240821Y174666D01*
X240854Y174617D01*
X241814Y172301D01*
X241814Y169987D01*
X240841Y167639D01*
X240805Y167585D01*
X240712Y167088D01*
X240821Y166594D01*
X240854Y166545D01*
X241814Y164229D01*
X241814Y161915D01*
X240841Y159567D01*
X240805Y159513D01*
X240712Y159016D01*
X240821Y158522D01*
X240854Y158473D01*
X241814Y156157D01*
X241814Y153784D01*
X241915Y153289D01*
X242200Y152872D01*
X242626Y152599D01*
X243084Y152514D01*
X256600Y152514D01*
X257095Y152615D01*
X257498Y152886D01*
X274818Y170206D01*
X275097Y170628D01*
X275190Y171104D01*
X275190Y186748D01*
X277612Y189170D01*
X277891Y189591D01*
X277984Y190068D01*
X277984Y191124D01*
X278869Y193261D01*
X280505Y194897D01*
X282641Y195782D01*
X284955Y195782D01*
X287091Y194897D01*
X288727Y193261D01*
X289612Y191124D01*
X289612Y188811D01*
X289511Y188567D01*
X289414Y188070D01*
X289519Y187576D01*
X289808Y187161D01*
X290198Y186907D01*
X290398Y186825D01*
X292033Y185189D01*
X292918Y183052D01*
X292918Y180597D01*
X292874Y180369D01*
X292979Y179875D01*
X293268Y179460D01*
X293658Y179206D01*
X294038Y179049D01*
X295673Y177413D01*
X296558Y175276D01*
X296558Y172902D01*
X296659Y172406D01*
X296945Y171989D01*
X297342Y171728D01*
X297901Y171497D01*
X299537Y169861D01*
X300474Y167598D01*
X300757Y167179D01*
X301180Y166903D01*
X301648Y166814D01*
X301837Y166814D01*
X304185Y165841D01*
X304239Y165805D01*
X304736Y165712D01*
X305230Y165821D01*
X305279Y165854D01*
X307595Y166814D01*
X309909Y166814D01*
X312137Y165891D01*
X312399Y165717D01*
X312896Y165624D01*
X313390Y165733D01*
X313473Y165790D01*
X315771Y166742D01*
X318085Y166742D01*
X320437Y165768D01*
X320933Y165671D01*
X321427Y165776D01*
X321569Y165872D01*
X323843Y166814D01*
X324125Y166814D01*
X324621Y166915D01*
X325037Y167200D01*
X325310Y167626D01*
X325349Y167835D01*
X326280Y170084D01*
X327916Y171720D01*
X329402Y172335D01*
X329821Y172618D01*
X330097Y173041D01*
X330186Y173509D01*
X330186Y175013D01*
X331071Y177149D01*
X332756Y178834D01*
X333064Y179042D01*
X333340Y179465D01*
X333428Y179963D01*
X333332Y180419D01*
X333186Y180772D01*
X333186Y183085D01*
X334071Y185221D01*
X335756Y186906D01*
X336064Y187114D01*
X336340Y187537D01*
X336428Y188035D01*
X336332Y188491D01*
X336186Y188844D01*
X336186Y191157D01*
X337071Y193293D01*
X338707Y194929D01*
X340843Y195814D01*
X343157Y195814D01*
X345238Y194952D01*
X345734Y194855D01*
X346229Y194960D01*
X346643Y195249D01*
X346912Y195677D01*
X346994Y196125D01*
X346994Y245847D01*
X346893Y246342D01*
X346608Y246759D01*
X346182Y247031D01*
X345684Y247116D01*
X345238Y247020D01*
X343342Y246235D01*
X342286Y246235D01*
X341791Y246134D01*
X341388Y245863D01*
X320715Y225190D01*
X241138Y225190D01*
X240643Y225089D01*
X240226Y224804D01*
X239953Y224378D01*
X239869Y223880D01*
X239985Y223388D01*
X240240Y223022D01*
X240929Y222333D01*
X241814Y220196D01*
X241814Y217883D01*
X240841Y215535D01*
X240805Y215480D01*
X240712Y214983D01*
X240821Y214490D01*
X240854Y214441D01*
X241814Y212124D01*
X241814Y209811D01*
X240841Y207463D01*
X240805Y207408D01*
X240712Y206911D01*
X240821Y206418D01*
X240854Y206369D01*
X241814Y204052D01*
X241814Y201739D01*
X240853Y199418D01*
X240785Y199316D01*
X240693Y198820D01*
X240796Y198352D01*
X240793Y198350D01*
X240799Y198334D01*
X240801Y198326D01*
X240805Y198320D01*
X241774Y195980D01*
X241774Y193667D01*
X240889Y191530D01*
X239254Y189895D01*
X237117Y189010D01*
X234804Y189010D01*
X232667Y189895D01*
X231032Y191530D01*
X230146Y193667D01*
X230146Y195980D01*
X231108Y198301D01*
X231175Y198403D01*
X231268Y198900D01*
X231165Y199368D01*
X231168Y199369D01*
X231161Y199385D01*
X231159Y199393D01*
X231155Y199399D01*
X230186Y201739D01*
X230186Y204052D01*
X231159Y206400D01*
X231195Y206455D01*
X231288Y206952D01*
X231179Y207446D01*
X231146Y207494D01*
X230186Y209811D01*
X230186Y212124D01*
X231159Y214472D01*
X231195Y214527D01*
X231288Y215024D01*
X231179Y215518D01*
X231146Y215566D01*
X230186Y217883D01*
X230186Y220196D01*
X231071Y222333D01*
X231760Y223022D01*
X232039Y223443D01*
X232132Y223940D01*
X232024Y224434D01*
X231731Y224846D01*
X231301Y225112D01*
X230862Y225190D01*
X174285Y225190D01*
X148428Y251047D01*
X148006Y251326D01*
X147772Y251372D01*
X145521Y252304D01*
X143885Y253940D01*
X143000Y256077D01*
X143000Y258390D01*
X143885Y260527D01*
X145521Y262162D01*
X147658Y263047D01*
X149971Y263047D01*
X150006Y263033D01*
X150502Y262936D01*
X150996Y263041D01*
X151411Y263330D01*
X151665Y263720D01*
X151795Y264033D01*
X153430Y265669D01*
X153814Y265828D01*
X154233Y266110D01*
X154509Y266534D01*
X154598Y267031D01*
X154558Y267220D01*
X154558Y269664D01*
X155443Y271801D01*
X157078Y273436D01*
X157641Y273670D01*
X158061Y273952D01*
X158336Y274376D01*
X158425Y274843D01*
X158425Y277212D01*
X159310Y279349D01*
X160946Y280984D01*
X163083Y281869D01*
X163200Y281869D01*
X163695Y281970D01*
X164112Y282256D01*
X164373Y282653D01*
X165266Y284809D01*
X166902Y286444D01*
X169038Y287329D01*
X171351Y287329D01*
X173488Y286444D01*
X173687Y286245D01*
X174109Y285966D01*
X174606Y285873D01*
X175071Y285970D01*
X177313Y286898D01*
X177395Y286915D01*
X177798Y287186D01*
X187354Y296742D01*
X220570Y296742D01*
X221065Y296843D01*
X221482Y297128D01*
X221755Y297554D01*
X221839Y298052D01*
X221743Y298498D01*
X221186Y299844D01*
X221186Y302157D01*
X222071Y304293D01*
X223707Y305929D01*
X225843Y306814D01*
X228156Y306814D01*
X229050Y306444D01*
X229546Y306347D01*
X230040Y306452D01*
X230455Y306741D01*
X230709Y307131D01*
X231159Y308217D01*
X231195Y308271D01*
X231288Y308768D01*
X231179Y309262D01*
X231146Y309311D01*
X230186Y311627D01*
X230186Y313941D01*
X231159Y316289D01*
X231195Y316343D01*
X231288Y316840D01*
X231179Y317334D01*
X231146Y317383D01*
X230186Y319699D01*
X230186Y322013D01*
X231159Y324361D01*
X231195Y324415D01*
X231288Y324912D01*
X231179Y325406D01*
X231146Y325455D01*
X230186Y327771D01*
X230186Y330085D01*
X231071Y332221D01*
X232707Y333857D01*
X234843Y334742D01*
X237157Y334742D01*
X239293Y333857D01*
X240929Y332221D01*
X241814Y330085D01*
X241814Y327771D01*
X240841Y325423D01*
X240805Y325369D01*
X240712Y324872D01*
X240821Y324378D01*
X240854Y324329D01*
X241814Y322013D01*
X241814Y319699D01*
X240841Y317351D01*
X240805Y317297D01*
X240712Y316800D01*
X240821Y316306D01*
X240854Y316257D01*
X241814Y313941D01*
X241814Y311627D01*
X240841Y309279D01*
X240805Y309225D01*
X240712Y308728D01*
X240821Y308234D01*
X240854Y308185D01*
X241814Y305869D01*
X241814Y303555D01*
X240929Y301419D01*
X239293Y299783D01*
X237850Y299185D01*
X237431Y298903D01*
X237155Y298479D01*
X237067Y297982D01*
X237179Y297489D01*
X237475Y297079D01*
X237907Y296817D01*
X238336Y296742D01*
X260570Y296742D01*
X261065Y296843D01*
X261482Y297128D01*
X261755Y297554D01*
X261839Y298052D01*
X261743Y298498D01*
X261186Y299844D01*
X261186Y302157D01*
X262071Y304293D01*
X263707Y305929D01*
X265843Y306814D01*
X268157Y306814D01*
X270293Y305929D01*
X271929Y304293D01*
X272814Y302157D01*
X272814Y299844D01*
X272257Y298498D01*
X272160Y298002D01*
X272265Y297507D01*
X272554Y297093D01*
X272982Y296824D01*
X273430Y296742D01*
X307646Y296742D01*
X317202Y287186D01*
X317623Y286907D01*
X318100Y286814D01*
X318405Y286814D01*
X320753Y285842D01*
X320807Y285805D01*
X321304Y285713D01*
X321798Y285821D01*
X321847Y285855D01*
X324163Y286814D01*
X326477Y286814D01*
X328613Y285929D01*
X330249Y284294D01*
X331183Y282038D01*
X331466Y281619D01*
X331889Y281343D01*
X332356Y281254D01*
X332540Y281254D01*
X334677Y280369D01*
X336313Y278734D01*
X337198Y276597D01*
X337198Y274222D01*
X337298Y273727D01*
X337584Y273310D01*
X337982Y273049D01*
X338541Y272817D01*
X340176Y271182D01*
X341062Y269045D01*
X341062Y266579D01*
X341021Y266372D01*
X341126Y265877D01*
X341415Y265463D01*
X341805Y265209D01*
X342189Y265050D01*
X343825Y263414D01*
X344551Y261661D01*
X344833Y261242D01*
X345257Y260966D01*
X345754Y260877D01*
X346247Y260990D01*
X346657Y261285D01*
X346919Y261718D01*
X346994Y262147D01*
X346994Y327875D01*
X346893Y328370D01*
X346608Y328787D01*
X346182Y329060D01*
X345684Y329144D01*
X345238Y329048D01*
X343157Y328186D01*
X340843Y328186D01*
X338707Y329071D01*
X337071Y330707D01*
X336186Y332843D01*
X336186Y335156D01*
X336332Y335509D01*
X336429Y336006D01*
X336324Y336500D01*
X336035Y336915D01*
X335749Y337101D01*
X334071Y338779D01*
X333186Y340915D01*
X333186Y343228D01*
X333332Y343581D01*
X333429Y344078D01*
X333324Y344572D01*
X333035Y344987D01*
X332749Y345173D01*
X331071Y346851D01*
X330186Y348987D01*
X330186Y350491D01*
X330085Y350987D01*
X329800Y351404D01*
X329402Y351665D01*
X327916Y352280D01*
X326280Y353916D01*
X325341Y356184D01*
X325295Y356411D01*
X325009Y356828D01*
X324583Y357101D01*
X324125Y357186D01*
X323843Y357186D01*
X321495Y358159D01*
X321441Y358195D01*
X320944Y358288D01*
X320450Y358179D01*
X320401Y358146D01*
X318085Y357186D01*
X315771Y357186D01*
X313480Y358135D01*
X313327Y358236D01*
X312830Y358329D01*
X312365Y358232D01*
X310013Y357258D01*
X307699Y357258D01*
X305347Y358232D01*
X304851Y358329D01*
X304357Y358224D01*
X304215Y358128D01*
X301941Y357186D01*
X300936Y357186D01*
X300441Y357085D01*
X300024Y356800D01*
X299763Y356402D01*
X299061Y354707D01*
X297425Y353071D01*
X296597Y352728D01*
X296178Y352446D01*
X295902Y352022D01*
X295819Y351553D01*
X295814Y351553D01*
X295814Y351526D01*
X295814Y351524D01*
X295814Y351523D01*
X295814Y348987D01*
X294929Y346851D01*
X293244Y345166D01*
X292936Y344958D01*
X292660Y344535D01*
X292572Y344037D01*
X292668Y343581D01*
X292814Y343228D01*
X292814Y340915D01*
X291929Y338779D01*
X290244Y337094D01*
X289936Y336886D01*
X289660Y336463D01*
X289572Y335965D01*
X289668Y335509D01*
X289814Y335156D01*
X289814Y332843D01*
X288929Y330707D01*
X287293Y329071D01*
X285157Y328186D01*
X282843Y328186D01*
X280707Y329071D01*
X279071Y330707D01*
X278186Y332843D01*
X278186Y333900D01*
X278085Y334395D01*
X277814Y334798D01*
X273190Y339422D01*
X273190Y355896D01*
X273089Y356391D01*
X272818Y356794D01*
X257498Y372114D01*
X257076Y372393D01*
X256600Y372486D01*
X242869Y372486D01*
X242374Y372385D01*
X241957Y372100D01*
X241684Y371674D01*
X241600Y371176D01*
X241696Y370730D01*
X241814Y370445D01*
X241814Y368131D01*
X240841Y365783D01*
X240805Y365729D01*
X240712Y365232D01*
X240821Y364738D01*
X240854Y364689D01*
X241814Y362373D01*
X241814Y360060D01*
X240839Y357704D01*
X240742Y357208D01*
X240846Y356714D01*
X240939Y356578D01*
X241882Y354301D01*
X241882Y351987D01*
X240909Y349639D01*
X240873Y349585D01*
X240780Y349088D01*
X240889Y348594D01*
X240922Y348545D01*
X241882Y346229D01*
X241882Y343915D01*
X240997Y341779D01*
X239361Y340143D01*
X237225Y339258D01*
X234911Y339258D01*
X232775Y340143D01*
X231139Y341779D01*
X230254Y343915D01*
X230254Y346229D01*
X231227Y348577D01*
X231263Y348631D01*
X231356Y349128D01*
X231247Y349622D01*
X231214Y349671D01*
X230254Y351987D01*
X230254Y354300D01*
X231230Y356656D01*
X231326Y357152D01*
X231222Y357646D01*
X231129Y357782D01*
X230186Y360059D01*
X230186Y362373D01*
X231159Y364721D01*
X231195Y364775D01*
X231288Y365272D01*
X231179Y365766D01*
X231146Y365815D01*
X231134Y365844D01*
X230851Y366263D01*
X230428Y366539D01*
X229930Y366627D01*
X229437Y366515D01*
X229062Y366256D01*
X220182Y357375D01*
X219903Y356954D01*
X219810Y356477D01*
X219810Y337554D01*
X217054Y334798D01*
X216775Y334376D01*
X216682Y333900D01*
X216682Y332843D01*
X215797Y330707D01*
X214161Y329071D01*
X212025Y328186D01*
X209711Y328186D01*
X207575Y329071D01*
X205939Y330707D01*
X205054Y332843D01*
X205054Y335157D01*
X205220Y335556D01*
X205316Y336052D01*
X205212Y336547D01*
X204923Y336961D01*
X204825Y337025D01*
X203071Y338779D01*
X202186Y340915D01*
X202186Y343228D01*
X202332Y343581D01*
X202429Y344078D01*
X202324Y344572D01*
X202035Y344987D01*
X201749Y345173D01*
X200071Y346851D01*
X199186Y348987D01*
X199186Y351536D01*
X199196Y351587D01*
X199092Y352082D01*
X198803Y352496D01*
X198412Y352751D01*
X197639Y353071D01*
X196003Y354707D01*
X195301Y356402D01*
X195018Y356821D01*
X194595Y357097D01*
X194128Y357186D01*
X193059Y357186D01*
X190768Y358135D01*
X190615Y358236D01*
X190118Y358329D01*
X189653Y358232D01*
X187301Y357258D01*
X184987Y357258D01*
X182635Y358232D01*
X182139Y358329D01*
X181645Y358224D01*
X181503Y358128D01*
X179229Y357186D01*
X176915Y357186D01*
X174567Y358159D01*
X174513Y358195D01*
X174016Y358288D01*
X173522Y358179D01*
X173473Y358146D01*
X171157Y357186D01*
X170875Y357186D01*
X170379Y357085D01*
X169963Y356800D01*
X169690Y356374D01*
X169651Y356165D01*
X168720Y353916D01*
X167084Y352280D01*
X165598Y351665D01*
X165179Y351382D01*
X164903Y350959D01*
X164814Y350491D01*
X164814Y349040D01*
X163929Y346903D01*
X162244Y345219D01*
X161936Y345011D01*
X161660Y344587D01*
X161572Y344090D01*
X161668Y343634D01*
X161814Y343281D01*
X161814Y340968D01*
X160929Y338831D01*
X159208Y337111D01*
X158981Y336958D01*
X158705Y336534D01*
X158617Y336036D01*
X158713Y335581D01*
X158867Y335209D01*
X158867Y332896D01*
X157982Y330759D01*
X156346Y329124D01*
X154209Y328239D01*
X151896Y328239D01*
X149759Y329124D01*
X148124Y330759D01*
X147239Y332896D01*
X147239Y333952D01*
X147138Y334448D01*
X146867Y334851D01*
X144190Y337527D01*
X144190Y369578D01*
X199422Y424810D01*
X295578Y424810D01*
X350810Y369578D01*
X350810Y342264D01*
X350911Y341769D01*
X351196Y341352D01*
X351622Y341080D01*
X352120Y340995D01*
X352612Y341111D01*
X352978Y341366D01*
X359814Y348202D01*
X360093Y348624D01*
X360186Y349100D01*
X360186Y350157D01*
X361071Y352293D01*
X361880Y353102D01*
X362159Y353523D01*
X362252Y354020D01*
X362143Y354514D01*
X361880Y354898D01*
X361071Y355707D01*
X360186Y357843D01*
X360186Y360157D01*
X360823Y361695D01*
X360920Y362181D01*
X360920Y364819D01*
X360823Y365305D01*
X360186Y366843D01*
X360186Y369157D01*
X361071Y371293D01*
X362707Y372929D01*
X364843Y373814D01*
X367157Y373814D01*
X369293Y372929D01*
X370292Y371930D01*
X370713Y371651D01*
X371210Y371558D01*
X371704Y371667D01*
X372116Y371959D01*
X372382Y372389D01*
X372460Y372828D01*
X372460Y430190D01*
X372359Y430685D01*
X372074Y431102D01*
X371648Y431375D01*
X371190Y431460D01*
X3810Y431460D01*
X3315Y431359D01*
X2898Y431074D01*
X2625Y430648D01*
X2540Y430190D01*
X2540Y3810D01*
X2641Y3315D01*
X2926Y2898D01*
X3352Y2625D01*
X3810Y2540D01*
X371190Y2540D01*
X371685Y2641D01*
G37*
%LPC*%
G36*
X44679Y398340D02*
X40945Y399887D01*
X38087Y402745D01*
X36540Y406479D01*
X36540Y410521D01*
X38087Y414255D01*
X40945Y417113D01*
X44679Y418660D01*
X48721Y418660D01*
X52455Y417113D01*
X55313Y414255D01*
X56860Y410521D01*
X56860Y406479D01*
X55313Y402745D01*
X52455Y399887D01*
X48721Y398340D01*
X44679Y398340D01*
G37*
G36*
X19279Y398340D02*
X15545Y399887D01*
X12687Y402745D01*
X11140Y406479D01*
X11140Y410521D01*
X12687Y414255D01*
X15545Y417113D01*
X19279Y418660D01*
X23321Y418660D01*
X27055Y417113D01*
X29913Y414255D01*
X31460Y410521D01*
X31460Y406479D01*
X29913Y402745D01*
X27055Y399887D01*
X23321Y398340D01*
X19279Y398340D01*
G37*
G36*
X44679Y372940D02*
X40945Y374487D01*
X38087Y377345D01*
X36540Y381079D01*
X36540Y385121D01*
X38087Y388855D01*
X40945Y391713D01*
X44679Y393260D01*
X48721Y393260D01*
X52455Y391713D01*
X55313Y388855D01*
X56860Y385121D01*
X56860Y381079D01*
X55313Y377345D01*
X52455Y374487D01*
X48721Y372940D01*
X44679Y372940D01*
G37*
G36*
X19279Y372940D02*
X15545Y374487D01*
X12687Y377345D01*
X11140Y381079D01*
X11140Y385121D01*
X12687Y388855D01*
X15545Y391713D01*
X19279Y393260D01*
X23321Y393260D01*
X27055Y391713D01*
X29913Y388855D01*
X31460Y385121D01*
X31460Y381079D01*
X29913Y377345D01*
X27055Y374487D01*
X23321Y372940D01*
X19279Y372940D01*
G37*
G36*
X44679Y347540D02*
X40945Y349087D01*
X38087Y351945D01*
X36540Y355679D01*
X36540Y359721D01*
X38087Y363455D01*
X40945Y366313D01*
X44679Y367860D01*
X48721Y367860D01*
X52455Y366313D01*
X55313Y363455D01*
X56860Y359721D01*
X56860Y355679D01*
X55313Y351945D01*
X52455Y349087D01*
X48721Y347540D01*
X44679Y347540D01*
G37*
G36*
X19279Y347540D02*
X15545Y349087D01*
X12687Y351945D01*
X11140Y355679D01*
X11140Y359721D01*
X12687Y363455D01*
X15545Y366313D01*
X19279Y367860D01*
X23321Y367860D01*
X27055Y366313D01*
X29913Y363455D01*
X31460Y359721D01*
X31460Y355679D01*
X29913Y351945D01*
X27055Y349087D01*
X23321Y347540D01*
X19279Y347540D01*
G37*
G36*
X257843Y333186D02*
X255707Y334071D01*
X254071Y335707D01*
X253186Y337843D01*
X253186Y340157D01*
X254071Y342293D01*
X255707Y343929D01*
X257843Y344814D01*
X260157Y344814D01*
X262293Y343929D01*
X263929Y342293D01*
X264814Y340157D01*
X264814Y337843D01*
X263929Y335707D01*
X262293Y334071D01*
X260157Y333186D01*
X257843Y333186D01*
G37*
G36*
X44679Y322140D02*
X40945Y323687D01*
X38087Y326545D01*
X36540Y330279D01*
X36540Y334321D01*
X38087Y338055D01*
X40945Y340913D01*
X44679Y342460D01*
X48721Y342460D01*
X52455Y340913D01*
X55313Y338055D01*
X56860Y334321D01*
X56860Y330279D01*
X55313Y326545D01*
X52455Y323687D01*
X48721Y322140D01*
X44679Y322140D01*
G37*
G36*
X19279Y322140D02*
X15545Y323687D01*
X12687Y326545D01*
X11140Y330279D01*
X11140Y334321D01*
X12687Y338055D01*
X15545Y340913D01*
X19279Y342460D01*
X23321Y342460D01*
X27055Y340913D01*
X29913Y338055D01*
X31460Y334321D01*
X31460Y330279D01*
X29913Y326545D01*
X27055Y323687D01*
X23321Y322140D01*
X19279Y322140D01*
G37*
G36*
X44679Y296740D02*
X40945Y298287D01*
X38087Y301145D01*
X36540Y304879D01*
X36540Y308921D01*
X38087Y312655D01*
X40945Y315513D01*
X44679Y317060D01*
X48721Y317060D01*
X52455Y315513D01*
X55313Y312655D01*
X56860Y308921D01*
X56860Y304879D01*
X55313Y301145D01*
X52455Y298287D01*
X48721Y296740D01*
X44679Y296740D01*
G37*
G36*
X19279Y296740D02*
X15545Y298287D01*
X12687Y301145D01*
X11140Y304879D01*
X11140Y308921D01*
X12687Y312655D01*
X15545Y315513D01*
X19279Y317060D01*
X23321Y317060D01*
X27055Y315513D01*
X29913Y312655D01*
X31460Y308921D01*
X31460Y304879D01*
X29913Y301145D01*
X27055Y298287D01*
X23321Y296740D01*
X19279Y296740D01*
G37*
G36*
X44679Y271340D02*
X40945Y272887D01*
X38087Y275745D01*
X36540Y279479D01*
X36540Y283521D01*
X38087Y287255D01*
X40945Y290113D01*
X44679Y291660D01*
X48721Y291660D01*
X52455Y290113D01*
X55313Y287255D01*
X56860Y283521D01*
X56860Y279479D01*
X55313Y275745D01*
X52455Y272887D01*
X48721Y271340D01*
X44679Y271340D01*
G37*
G36*
X19279Y271340D02*
X15545Y272887D01*
X12687Y275745D01*
X11140Y279479D01*
X11140Y283521D01*
X12687Y287255D01*
X15545Y290113D01*
X19279Y291660D01*
X23321Y291660D01*
X27055Y290113D01*
X29913Y287255D01*
X31460Y283521D01*
X31460Y279479D01*
X29913Y275745D01*
X27055Y272887D01*
X23321Y271340D01*
X19279Y271340D01*
G37*
G36*
X44679Y245940D02*
X40945Y247487D01*
X38087Y250345D01*
X36540Y254079D01*
X36540Y258121D01*
X38087Y261855D01*
X40945Y264713D01*
X44679Y266260D01*
X48721Y266260D01*
X52455Y264713D01*
X55313Y261855D01*
X56860Y258121D01*
X56860Y254079D01*
X55313Y250345D01*
X52455Y247487D01*
X48721Y245940D01*
X44679Y245940D01*
G37*
G36*
X19279Y245940D02*
X15545Y247487D01*
X12687Y250345D01*
X11140Y254079D01*
X11140Y258121D01*
X12687Y261855D01*
X15545Y264713D01*
X19279Y266260D01*
X23321Y266260D01*
X27055Y264713D01*
X29913Y261855D01*
X31460Y258121D01*
X31460Y254079D01*
X29913Y250345D01*
X27055Y247487D01*
X23321Y245940D01*
X19279Y245940D01*
G37*
G36*
X44679Y220540D02*
X40945Y222087D01*
X38087Y224945D01*
X36540Y228679D01*
X36540Y232721D01*
X38087Y236455D01*
X40945Y239313D01*
X44679Y240860D01*
X48721Y240860D01*
X52455Y239313D01*
X55313Y236455D01*
X56860Y232721D01*
X56860Y228679D01*
X55313Y224945D01*
X52455Y222087D01*
X48721Y220540D01*
X44679Y220540D01*
G37*
G36*
X19279Y220540D02*
X15545Y222087D01*
X12687Y224945D01*
X11140Y228679D01*
X11140Y232721D01*
X12687Y236455D01*
X15545Y239313D01*
X19279Y240860D01*
X23321Y240860D01*
X27055Y239313D01*
X29913Y236455D01*
X31460Y232721D01*
X31460Y228679D01*
X29913Y224945D01*
X27055Y222087D01*
X23321Y220540D01*
X19279Y220540D01*
G37*
G36*
X44679Y195140D02*
X40945Y196687D01*
X38087Y199545D01*
X36540Y203279D01*
X36540Y207321D01*
X38087Y211055D01*
X40945Y213913D01*
X44679Y215460D01*
X48721Y215460D01*
X52455Y213913D01*
X55313Y211055D01*
X56860Y207321D01*
X56860Y203279D01*
X55313Y199545D01*
X52455Y196687D01*
X48721Y195140D01*
X44679Y195140D01*
G37*
G36*
X19279Y195140D02*
X15545Y196687D01*
X12687Y199545D01*
X11140Y203279D01*
X11140Y207321D01*
X12687Y211055D01*
X15545Y213913D01*
X19279Y215460D01*
X23321Y215460D01*
X27055Y213913D01*
X29913Y211055D01*
X31460Y207321D01*
X31460Y203279D01*
X29913Y199545D01*
X27055Y196687D01*
X23321Y195140D01*
X19279Y195140D01*
G37*
G36*
X44679Y169740D02*
X40945Y171287D01*
X38087Y174145D01*
X36540Y177879D01*
X36540Y181921D01*
X38087Y185655D01*
X40945Y188513D01*
X44679Y190060D01*
X48721Y190060D01*
X52455Y188513D01*
X55313Y185655D01*
X56860Y181921D01*
X56860Y177879D01*
X55313Y174145D01*
X52455Y171287D01*
X48721Y169740D01*
X44679Y169740D01*
G37*
G36*
X19279Y169740D02*
X15545Y171287D01*
X12687Y174145D01*
X11140Y177879D01*
X11140Y181921D01*
X12687Y185655D01*
X15545Y188513D01*
X19279Y190060D01*
X23321Y190060D01*
X27055Y188513D01*
X29913Y185655D01*
X31460Y181921D01*
X31460Y177879D01*
X29913Y174145D01*
X27055Y171287D01*
X23321Y169740D01*
X19279Y169740D01*
G37*
G36*
X258843Y177186D02*
X256707Y178071D01*
X255071Y179707D01*
X254186Y181843D01*
X254186Y184157D01*
X255071Y186293D01*
X256707Y187929D01*
X258843Y188814D01*
X261157Y188814D01*
X263293Y187929D01*
X264929Y186293D01*
X265814Y184157D01*
X265814Y181843D01*
X264929Y179707D01*
X263293Y178071D01*
X261157Y177186D01*
X258843Y177186D01*
G37*
G36*
X44679Y144340D02*
X40945Y145887D01*
X38087Y148745D01*
X36540Y152479D01*
X36540Y156521D01*
X38087Y160255D01*
X40945Y163113D01*
X44679Y164660D01*
X48721Y164660D01*
X52455Y163113D01*
X55313Y160255D01*
X56860Y156521D01*
X56860Y152479D01*
X55313Y148745D01*
X52455Y145887D01*
X48721Y144340D01*
X44679Y144340D01*
G37*
G36*
X19279Y144340D02*
X15545Y145887D01*
X12687Y148745D01*
X11140Y152479D01*
X11140Y156521D01*
X12687Y160255D01*
X15545Y163113D01*
X19279Y164660D01*
X23321Y164660D01*
X27055Y163113D01*
X29913Y160255D01*
X31460Y156521D01*
X31460Y152479D01*
X29913Y148745D01*
X27055Y145887D01*
X23321Y144340D01*
X19279Y144340D01*
G37*
G36*
X44679Y118940D02*
X40945Y120487D01*
X38087Y123345D01*
X36540Y127079D01*
X36540Y131121D01*
X38087Y134855D01*
X40945Y137713D01*
X44679Y139260D01*
X48721Y139260D01*
X52455Y137713D01*
X55313Y134855D01*
X56860Y131121D01*
X56860Y127079D01*
X55313Y123345D01*
X52455Y120487D01*
X48721Y118940D01*
X44679Y118940D01*
G37*
G36*
X19279Y118940D02*
X15545Y120487D01*
X12687Y123345D01*
X11140Y127079D01*
X11140Y131121D01*
X12687Y134855D01*
X15545Y137713D01*
X19279Y139260D01*
X23321Y139260D01*
X27055Y137713D01*
X29913Y134855D01*
X31460Y131121D01*
X31460Y127079D01*
X29913Y123345D01*
X27055Y120487D01*
X23321Y118940D01*
X19279Y118940D01*
G37*
G36*
X44679Y93540D02*
X40945Y95087D01*
X38087Y97945D01*
X36540Y101679D01*
X36540Y105721D01*
X38087Y109455D01*
X40945Y112313D01*
X44679Y113860D01*
X48721Y113860D01*
X52455Y112313D01*
X55313Y109455D01*
X56860Y105721D01*
X56860Y101679D01*
X55313Y97945D01*
X52455Y95087D01*
X48721Y93540D01*
X44679Y93540D01*
G37*
G36*
X19279Y93540D02*
X15545Y95087D01*
X12687Y97945D01*
X11140Y101679D01*
X11140Y105721D01*
X12687Y109455D01*
X15545Y112313D01*
X19279Y113860D01*
X23321Y113860D01*
X27055Y112313D01*
X29913Y109455D01*
X31460Y105721D01*
X31460Y101679D01*
X29913Y97945D01*
X27055Y95087D01*
X23321Y93540D01*
X19279Y93540D01*
G37*
G36*
X178843Y88186D02*
X176707Y89071D01*
X175071Y90707D01*
X174186Y92843D01*
X174186Y95157D01*
X175071Y97293D01*
X176707Y98929D01*
X178843Y99814D01*
X181157Y99814D01*
X183293Y98929D01*
X185102Y97120D01*
X185523Y96841D01*
X186020Y96748D01*
X186514Y96857D01*
X186898Y97120D01*
X188707Y98929D01*
X190843Y99814D01*
X193157Y99814D01*
X195293Y98929D01*
X196929Y97293D01*
X197814Y95157D01*
X197814Y92843D01*
X196929Y90707D01*
X195293Y89071D01*
X193157Y88186D01*
X190843Y88186D01*
X188707Y89071D01*
X186898Y90880D01*
X186477Y91159D01*
X185980Y91252D01*
X185486Y91143D01*
X185102Y90880D01*
X183293Y89071D01*
X181157Y88186D01*
X178843Y88186D01*
G37*
G36*
X44679Y68140D02*
X40945Y69687D01*
X38087Y72545D01*
X36540Y76279D01*
X36540Y80321D01*
X38087Y84055D01*
X40945Y86913D01*
X44679Y88460D01*
X48721Y88460D01*
X52455Y86913D01*
X55313Y84055D01*
X56860Y80321D01*
X56860Y76279D01*
X55313Y72545D01*
X52455Y69687D01*
X48721Y68140D01*
X44679Y68140D01*
G37*
G36*
X19279Y68140D02*
X15545Y69687D01*
X12687Y72545D01*
X11140Y76279D01*
X11140Y80321D01*
X12687Y84055D01*
X15545Y86913D01*
X19279Y88460D01*
X23321Y88460D01*
X27055Y86913D01*
X29913Y84055D01*
X31460Y80321D01*
X31460Y76279D01*
X29913Y72545D01*
X27055Y69687D01*
X23321Y68140D01*
X19279Y68140D01*
G37*
G36*
X44679Y42740D02*
X40945Y44287D01*
X38087Y47145D01*
X36540Y50879D01*
X36540Y54921D01*
X38087Y58655D01*
X40945Y61513D01*
X44679Y63060D01*
X48721Y63060D01*
X52455Y61513D01*
X55313Y58655D01*
X56860Y54921D01*
X56860Y50879D01*
X55313Y47145D01*
X52455Y44287D01*
X48721Y42740D01*
X44679Y42740D01*
G37*
G36*
X19279Y42740D02*
X15545Y44287D01*
X12687Y47145D01*
X11140Y50879D01*
X11140Y54921D01*
X12687Y58655D01*
X15545Y61513D01*
X19279Y63060D01*
X23321Y63060D01*
X27055Y61513D01*
X29913Y58655D01*
X31460Y54921D01*
X31460Y50879D01*
X29913Y47145D01*
X27055Y44287D01*
X23321Y42740D01*
X19279Y42740D01*
G37*
G36*
X178771Y30186D02*
X176635Y31071D01*
X174999Y32707D01*
X174114Y34843D01*
X174114Y37157D01*
X174999Y39293D01*
X176635Y40929D01*
X178838Y41842D01*
X179257Y42124D01*
X179533Y42548D01*
X179622Y43045D01*
X179509Y43538D01*
X179214Y43948D01*
X178838Y44188D01*
X176707Y45071D01*
X175071Y46707D01*
X174186Y48843D01*
X174186Y51157D01*
X175071Y53293D01*
X176707Y54929D01*
X178843Y55814D01*
X181157Y55814D01*
X183505Y54841D01*
X183559Y54805D01*
X184056Y54712D01*
X184550Y54821D01*
X184599Y54854D01*
X186915Y55814D01*
X189229Y55814D01*
X191365Y54929D01*
X193001Y53293D01*
X193886Y51157D01*
X193886Y48843D01*
X193001Y46707D01*
X191365Y45071D01*
X189162Y44158D01*
X188743Y43876D01*
X188467Y43452D01*
X188378Y42955D01*
X188491Y42462D01*
X188786Y42052D01*
X189162Y41812D01*
X191293Y40929D01*
X192929Y39293D01*
X193814Y37157D01*
X193814Y34843D01*
X192929Y32707D01*
X191293Y31071D01*
X189157Y30186D01*
X186843Y30186D01*
X184495Y31159D01*
X184441Y31195D01*
X183944Y31288D01*
X183450Y31179D01*
X183401Y31146D01*
X181085Y30186D01*
X178771Y30186D01*
G37*
G36*
X44679Y17340D02*
X40945Y18887D01*
X38087Y21745D01*
X36540Y25479D01*
X36540Y29521D01*
X38087Y33255D01*
X40945Y36113D01*
X44679Y37660D01*
X48721Y37660D01*
X52455Y36113D01*
X55313Y33255D01*
X56860Y29521D01*
X56860Y25479D01*
X55313Y21745D01*
X52455Y18887D01*
X48721Y17340D01*
X44679Y17340D01*
G37*
G36*
X19279Y17340D02*
X15545Y18887D01*
X12687Y21745D01*
X11140Y25479D01*
X11140Y29521D01*
X12687Y33255D01*
X15545Y36113D01*
X19279Y37660D01*
X23321Y37660D01*
X27055Y36113D01*
X29913Y33255D01*
X31460Y29521D01*
X31460Y25479D01*
X29913Y21745D01*
X27055Y18887D01*
X23321Y17340D01*
X19279Y17340D01*
G37*
G36*
X214843Y22186D02*
X212707Y23071D01*
X211071Y24707D01*
X210186Y26843D01*
X210186Y29157D01*
X211071Y31293D01*
X212707Y32929D01*
X214843Y33814D01*
X217157Y33814D01*
X219293Y32929D01*
X220929Y31293D01*
X221814Y29157D01*
X221814Y26843D01*
X220929Y24707D01*
X219293Y23071D01*
X217157Y22186D01*
X214843Y22186D01*
G37*
G36*
X214843Y5186D02*
X212707Y6071D01*
X211071Y7707D01*
X210186Y9843D01*
X210186Y12157D01*
X211071Y14293D01*
X212707Y15929D01*
X214843Y16814D01*
X217157Y16814D01*
X219293Y15929D01*
X220929Y14293D01*
X221814Y12157D01*
X221814Y9843D01*
X220929Y7707D01*
X219293Y6071D01*
X217157Y5186D01*
X214843Y5186D01*
G37*
%LPD*%
G36*
X371704Y196667D02*
X372116Y196959D01*
X372382Y197389D01*
X372460Y197828D01*
X372460Y326172D01*
X372359Y326667D01*
X372074Y327084D01*
X371648Y327356D01*
X371150Y327441D01*
X370658Y327325D01*
X370292Y327070D01*
X369293Y326071D01*
X367157Y325186D01*
X366100Y325186D01*
X365605Y325085D01*
X365202Y324814D01*
X363114Y322726D01*
X362835Y322304D01*
X362742Y321828D01*
X362742Y201172D01*
X362843Y200677D01*
X363114Y200274D01*
X364202Y199186D01*
X364624Y198907D01*
X365100Y198814D01*
X367157Y198814D01*
X369293Y197929D01*
X370292Y196930D01*
X370713Y196651D01*
X371210Y196558D01*
X371704Y196667D01*
G37*
G36*
X119832Y75127D02*
X120198Y75382D01*
X123548Y78732D01*
X123827Y79154D01*
X123920Y79630D01*
X123920Y154819D01*
X123823Y155305D01*
X123186Y156843D01*
X123186Y159157D01*
X123823Y160695D01*
X123920Y161181D01*
X123920Y162334D01*
X123819Y162829D01*
X123534Y163246D01*
X123108Y163518D01*
X122610Y163603D01*
X122118Y163487D01*
X121752Y163232D01*
X116398Y157878D01*
X116119Y157456D01*
X116026Y156980D01*
X116026Y81938D01*
X116127Y81443D01*
X116398Y81040D01*
X117145Y80293D01*
X118030Y78157D01*
X118030Y76280D01*
X118131Y75785D01*
X118416Y75368D01*
X118842Y75096D01*
X119340Y75011D01*
X119832Y75127D01*
G37*
D10*
X46700Y27500D03*
X21300Y27500D03*
X46700Y52900D03*
X21300Y52900D03*
X46700Y78300D03*
X21300Y78300D03*
X46700Y103700D03*
X21300Y103700D03*
X46700Y129100D03*
X21300Y129100D03*
X46700Y154500D03*
X21300Y154500D03*
X46700Y179900D03*
X21300Y179900D03*
X46700Y205300D03*
X21300Y205300D03*
X46700Y230700D03*
X21300Y230700D03*
X46700Y256100D03*
X21300Y256100D03*
X46700Y281500D03*
X21300Y281500D03*
X46700Y306900D03*
X21300Y306900D03*
X46700Y332300D03*
X21300Y332300D03*
X46700Y357700D03*
X21300Y357700D03*
X46700Y383100D03*
X21300Y383100D03*
X46700Y408500D03*
X21300Y408500D03*
D11*
X366000Y208000D03*
X366000Y217000D03*
X366000Y316000D03*
X366000Y307000D03*
D12*
X366000Y316000D01*
D11*
X175000Y113000D03*
X162000Y128000D03*
X88000Y9000D03*
X80000Y9000D03*
X120000Y9000D03*
X112000Y9000D03*
X119000Y104000D03*
X360000Y100000D03*
X347000Y112000D03*
X356000Y426000D03*
X343000Y412000D03*
X147000Y415000D03*
X121000Y415000D03*
X367000Y8000D03*
X367000Y19000D03*
X356000Y8000D03*
X8000Y8000D03*
X19000Y8000D03*
X8000Y19000D03*
X8000Y426000D03*
X19000Y426000D03*
X8000Y415000D03*
X367000Y426000D03*
X367000Y415000D03*
X342000Y334000D03*
X342000Y190000D03*
X153053Y334053D03*
D13*
X148000Y157000D02*
X201000Y104000D01*
X294000Y104000D01*
X148000Y368000D02*
X201000Y421000D01*
X294000Y421000D01*
X347000Y368000D01*
X148000Y368000D02*
X148000Y339105D01*
X153053Y334053D01*
X347000Y339000D02*
X347000Y368000D01*
X347000Y339000D02*
X342000Y334000D01*
X148000Y183036D02*
X148000Y157000D01*
X294000Y104000D02*
X346132Y156132D01*
X346132Y185868D01*
X342000Y190000D01*
D11*
X152835Y188201D03*
D13*
X152835Y187871D01*
X148000Y183036D01*
D11*
X339000Y342072D03*
X339000Y181928D03*
X156000Y342125D03*
D13*
X342068Y157815D02*
X292317Y108064D01*
X342068Y157815D02*
X342068Y178860D01*
X339000Y181928D01*
X292317Y416936D02*
X203509Y416936D01*
X292317Y416936D02*
X342068Y367185D01*
X203509Y416936D02*
X152932Y366359D01*
X152932Y345193D01*
X156000Y342125D01*
X342068Y345140D02*
X342068Y367185D01*
X342068Y345140D02*
X339000Y342072D01*
X156768Y178980D02*
X152826Y175038D01*
X203195Y108064D02*
X292317Y108064D01*
X152826Y158433D02*
X152826Y175038D01*
X152826Y158433D02*
X203195Y108064D01*
D11*
X156768Y180719D03*
D13*
X156768Y178980D01*
D11*
X336000Y350144D03*
X336000Y173856D03*
X159000Y350197D03*
D13*
X336000Y173856D02*
X338000Y171856D01*
X338000Y159671D02*
X290457Y112128D01*
X338000Y159671D02*
X338000Y171856D01*
X157000Y364679D02*
X205193Y412872D01*
X290457Y412872D01*
X338000Y365329D01*
X157000Y364679D02*
X157000Y352197D01*
X159000Y350197D01*
X338000Y352144D02*
X338000Y365329D01*
X338000Y352144D02*
X336000Y350144D01*
X158641Y158365D02*
X204878Y112128D01*
X290457Y112128D01*
D11*
X159067Y172647D03*
D13*
X158641Y172220D01*
X158641Y158365D01*
D11*
X163791Y357209D03*
X331209Y357209D03*
X331209Y166791D03*
D13*
X331209Y158628D02*
X288774Y116192D01*
X331209Y158628D02*
X331209Y166791D01*
X163791Y365723D02*
X206876Y408808D01*
X288774Y408808D01*
X331209Y366372D01*
X163791Y365723D02*
X163791Y357209D01*
X331209Y357209D02*
X331209Y366372D01*
X164226Y158528D02*
X206562Y116192D01*
X288774Y116192D01*
D11*
X164775Y166939D03*
D13*
X164226Y166389D01*
X164226Y158528D01*
D11*
X170000Y363000D03*
X325000Y363000D03*
X325000Y161000D03*
D13*
X325000Y160419D01*
X284838Y120256D01*
X284838Y404744D02*
X210521Y404744D01*
X170000Y364223D01*
X170000Y363000D01*
X284838Y404744D02*
X325000Y364582D01*
X325000Y363000D01*
X284838Y120256D02*
X210456Y120256D01*
D11*
X170483Y161231D03*
D13*
X170483Y160229D01*
X210456Y120256D01*
D11*
X178072Y363000D03*
X316928Y363000D03*
X316928Y160928D03*
D13*
X316928Y160595D01*
X280654Y124320D01*
X280654Y400680D02*
X214601Y400680D01*
X178072Y364151D01*
X178072Y363000D01*
X280654Y400680D02*
X316928Y364406D01*
X316928Y363000D01*
X280654Y124320D02*
X214536Y124320D01*
D11*
X178555Y160928D03*
D13*
X178555Y160301D01*
X214536Y124320D01*
D11*
X186144Y363072D03*
X308752Y161000D03*
X308856Y363072D03*
D13*
X308752Y161000D02*
X308752Y160491D01*
X276646Y128384D01*
X218609Y128384D01*
X218609Y396616D02*
X276646Y396616D01*
X218609Y396616D02*
X186144Y364151D01*
X186144Y363072D01*
X276646Y396616D02*
X308856Y364406D01*
X308856Y363072D01*
D11*
X186627Y161000D03*
D13*
X186627Y160367D01*
X218609Y128384D01*
D11*
X194216Y363000D03*
X300680Y161000D03*
X300784Y363000D03*
D13*
X300680Y161000D02*
X272128Y132448D01*
X272128Y392552D02*
X223127Y392552D01*
X194216Y363641D01*
X194216Y363000D01*
X272128Y392552D02*
X300784Y363896D01*
X300784Y363000D01*
D11*
X194798Y161000D03*
D13*
X223350Y132448D02*
X272128Y132448D01*
X223350Y132448D02*
X194798Y161000D01*
D11*
X294608Y166568D03*
D13*
X264552Y136512D01*
X228664Y136512D01*
X228664Y388488D02*
X264552Y388488D01*
D11*
X294132Y358000D03*
D13*
X228664Y388488D02*
X201000Y360824D01*
D11*
X200932Y358000D03*
D13*
X201000Y358068D02*
X201000Y360824D01*
X201000Y358068D02*
X200932Y358000D01*
X264552Y388488D02*
X294132Y358908D01*
X294132Y358000D01*
D11*
X200519Y166695D03*
D13*
X200519Y164657D02*
X228664Y136512D01*
X200519Y164657D02*
X200519Y166695D01*
D11*
X205000Y350144D03*
X290744Y174120D03*
X290000Y350144D03*
D13*
X290744Y174120D02*
X288064Y171440D01*
X288064Y166569D01*
X206936Y163988D02*
X206936Y171440D01*
X206936Y163988D02*
X230348Y140576D01*
X262071Y140576D01*
X288064Y166569D01*
X262071Y384424D02*
X230348Y384424D01*
X207000Y361076D01*
X207000Y352144D01*
X205000Y350144D01*
X262071Y384424D02*
X287000Y359495D01*
X287000Y353144D01*
X290000Y350144D01*
D11*
X204383Y174247D03*
D13*
X204383Y173993D01*
X206936Y171440D01*
D11*
X208000Y342072D03*
X287104Y181896D03*
X287000Y342072D03*
D13*
X287104Y181896D02*
X284000Y178791D01*
X284000Y168253D01*
X211936Y164735D02*
X211936Y177855D01*
X211936Y164735D02*
X232031Y144640D01*
X260387Y144640D01*
X284000Y168253D01*
X260387Y380360D02*
X232031Y380360D01*
X211936Y360265D01*
X211936Y346008D02*
X208000Y342072D01*
X211936Y346008D02*
X211936Y360265D01*
X260387Y380360D02*
X282000Y358747D01*
X282000Y347072D01*
X287000Y342072D01*
D11*
X208023Y182023D03*
D13*
X208023Y181769D01*
X211936Y177855D01*
D11*
X283798Y189968D03*
X284000Y334000D03*
D13*
X279000Y185170D02*
X279000Y169000D01*
X279000Y185170D02*
X283798Y189968D01*
X216000Y185170D02*
X216000Y166419D01*
X233715Y148704D01*
X258704Y148704D01*
X279000Y169000D01*
X258704Y376296D02*
X233715Y376296D01*
X216000Y358582D01*
X258704Y376296D02*
X277000Y358000D01*
X277000Y341000D01*
X284000Y334000D01*
D11*
X210868Y334000D03*
D13*
X216000Y339132D02*
X216000Y358582D01*
X216000Y339132D02*
X210868Y334000D01*
D11*
X210740Y190095D03*
D13*
X211075Y190095D01*
X216000Y185170D01*
D11*
X236000Y155000D03*
X236000Y369288D03*
X236000Y163072D03*
X236000Y361216D03*
X236000Y171144D03*
X236068Y353144D03*
X236000Y179216D03*
X236068Y345072D03*
X342186Y252049D03*
D13*
X319137Y229000D02*
X175863Y229000D01*
X319137Y229000D02*
X342186Y252049D01*
X175863Y229000D02*
X148814Y256049D01*
D11*
X148814Y257233D03*
D13*
X148814Y256049D01*
D11*
X338896Y260121D03*
D13*
X311839Y233064D01*
X183161Y233064D01*
D11*
X156723Y260740D03*
D13*
X156723Y259502D02*
X183161Y233064D01*
X156723Y259502D02*
X156723Y260740D01*
D11*
X335248Y267888D03*
D13*
X304487Y237128D01*
X190513Y237128D01*
D11*
X160372Y268507D03*
D13*
X160372Y267269D02*
X190513Y237128D01*
X160372Y267269D02*
X160372Y268507D01*
D11*
X331384Y275440D03*
D13*
X297136Y241192D01*
X197865Y241192D01*
D11*
X164239Y276055D03*
D13*
X164239Y274817D01*
X197865Y241192D01*
D11*
X325320Y281000D03*
D13*
X325320Y280320D01*
X290256Y245256D01*
X204915Y245256D01*
D11*
X170195Y281515D03*
D13*
X170195Y279976D01*
X204915Y245256D01*
D11*
X317248Y281000D03*
D13*
X317248Y281752D01*
X306068Y292932D01*
X188932Y292932D01*
D11*
X178267Y281000D03*
D13*
X178267Y282267D02*
X188932Y292932D01*
X178267Y282267D02*
X178267Y281000D01*
D11*
X309072Y281072D03*
D13*
X303000Y288000D02*
X192000Y288000D01*
X303000Y288000D02*
X309072Y281928D01*
X309072Y281072D01*
D11*
X186339Y281072D03*
D13*
X186339Y282339D02*
X192000Y288000D01*
X186339Y282339D02*
X186339Y281072D01*
D11*
X301000Y281000D03*
D13*
X299000Y283000D01*
D11*
X194411Y281000D03*
D13*
X196411Y283000D02*
X299000Y283000D01*
X196411Y283000D02*
X194411Y281000D01*
D11*
X201000Y276000D03*
X294000Y276000D03*
D13*
X201000Y276000D01*
D11*
X205000Y268144D03*
X290000Y268144D03*
D13*
X205000Y268144D01*
D11*
X208000Y260072D03*
X287000Y260072D03*
D13*
X208000Y260072D01*
D11*
X211000Y252000D03*
X284000Y252000D03*
D13*
X211000Y252000D01*
D11*
X236000Y304712D03*
X236000Y219040D03*
X236000Y312784D03*
X236000Y210968D03*
X236000Y320856D03*
X236000Y202896D03*
X236000Y328928D03*
X235960Y194824D03*
X366000Y331000D03*
X366000Y193000D03*
X129000Y331000D03*
X129132Y194000D03*
D13*
X129000Y194132D02*
X129000Y331000D01*
X129000Y194132D02*
X129132Y194000D01*
D11*
X96072Y38000D03*
D13*
X358932Y323932D02*
X366000Y331000D01*
X358932Y323932D02*
X358932Y199068D01*
X365000Y193000D02*
X366000Y193000D01*
X365000Y193000D02*
X358932Y199068D01*
D11*
X180000Y94000D03*
X227000Y301000D03*
X192000Y94000D03*
X260000Y183000D03*
X216000Y11000D03*
X259000Y339000D03*
X267000Y301000D03*
X216000Y28000D03*
X366000Y349000D03*
X104144Y38000D03*
D13*
X140699Y75064D02*
X278064Y75064D01*
X140699Y75064D02*
X104144Y38510D01*
X104144Y38000D01*
X278064Y75064D02*
X350804Y147804D01*
X350804Y333804D02*
X366000Y349000D01*
X350804Y333804D02*
X350804Y147804D01*
D11*
X366000Y175000D03*
D13*
X358000Y167000D01*
X358000Y141000D01*
D11*
X112216Y38000D03*
D13*
X284000Y67000D02*
X358000Y141000D01*
X284000Y67000D02*
X141216Y67000D01*
X112216Y38000D01*
D11*
X129000Y349000D03*
D13*
X104000Y324000D01*
D11*
X104144Y77000D03*
D13*
X104000Y77144D02*
X104000Y324000D01*
X104000Y77144D02*
X104144Y77000D01*
D11*
X88000Y49000D03*
X80000Y49000D03*
X148000Y89000D03*
X140000Y89000D03*
X129000Y358000D03*
X129000Y367000D03*
X366000Y166000D03*
X366000Y157000D03*
X366000Y359000D03*
X366000Y368000D03*
X129000Y167000D03*
X129000Y158000D03*
D12*
X88000Y49000D02*
X80000Y49000D01*
X88000Y49000D02*
X101000Y49000D01*
X129000Y77000D01*
X129000Y158000D01*
X129000Y167000D01*
X140000Y89000D02*
X148000Y89000D01*
X129000Y358000D02*
X129000Y367000D01*
X366000Y368000D02*
X366000Y359000D01*
X366000Y166000D02*
X366000Y157000D01*
D11*
X366000Y340000D03*
X366000Y184000D03*
X129000Y340000D03*
D13*
X136000Y333000D01*
X136000Y192000D01*
D11*
X129132Y185000D03*
D13*
X129132Y185132D02*
X136000Y192000D01*
X129132Y185132D02*
X129132Y185000D01*
D11*
X96072Y77000D03*
X156000Y94000D03*
D13*
X354868Y328868D02*
X366000Y340000D01*
X354868Y328868D02*
X354868Y194132D01*
X365000Y184000D02*
X366000Y184000D01*
X365000Y184000D02*
X354868Y194132D01*
D11*
X188072Y50000D03*
X188000Y36000D03*
X179928Y36000D03*
X180000Y50000D03*
X129132Y176000D03*
X112216Y77000D03*
D13*
X112216Y159084D02*
X129132Y176000D01*
X112216Y159084D02*
X112216Y77000D01*
M02*
