G04 EAGLE Gerber RS-274X export*
G75*
%MOMM*%
%FSLAX34Y34*%
%LPD*%
%INBottom Copper*%
%IPPOS*%
%AMOC8*
5,1,8,0,0,1.08239X$1,22.5*%
G01*
G04 Define Apertures*
%ADD10C,0.250000*%
%ADD11R,0.970200X0.920900*%
%ADD12P,1.64956X8X112.5*%
%ADD13R,0.550000X1.500000*%
%ADD14C,0.654800*%
%ADD15C,0.203200*%
%ADD16C,0.152400*%
%ADD17C,0.254000*%
%ADD18C,0.406400*%
%ADD19C,0.508000*%
G36*
X371685Y2641D02*
X372102Y2926D01*
X372375Y3352D01*
X372460Y3810D01*
X372460Y152172D01*
X372359Y152667D01*
X372074Y153084D01*
X371648Y153356D01*
X371150Y153441D01*
X370658Y153325D01*
X370292Y153070D01*
X369293Y152071D01*
X367157Y151186D01*
X364843Y151186D01*
X362707Y152071D01*
X361071Y153707D01*
X360186Y155843D01*
X360186Y158157D01*
X360823Y159695D01*
X360920Y160181D01*
X360920Y162819D01*
X360823Y163305D01*
X360186Y164843D01*
X360186Y167157D01*
X361071Y169293D01*
X361380Y169602D01*
X361659Y170023D01*
X361752Y170520D01*
X361643Y171014D01*
X361380Y171398D01*
X361071Y171707D01*
X360186Y173843D01*
X360186Y176157D01*
X361071Y178293D01*
X361380Y178602D01*
X361659Y179023D01*
X361752Y179520D01*
X361643Y180014D01*
X361380Y180398D01*
X361071Y180707D01*
X360186Y182843D01*
X360186Y185157D01*
X361071Y187293D01*
X361380Y187602D01*
X361659Y188023D01*
X361752Y188520D01*
X361643Y189014D01*
X361380Y189398D01*
X361071Y189707D01*
X360186Y191843D01*
X360186Y194157D01*
X361071Y196293D01*
X362707Y197929D01*
X364843Y198814D01*
X367157Y198814D01*
X369293Y197929D01*
X370292Y196930D01*
X370713Y196651D01*
X371210Y196558D01*
X371704Y196667D01*
X372116Y196959D01*
X372382Y197389D01*
X372460Y197828D01*
X372460Y326172D01*
X372359Y326667D01*
X372074Y327084D01*
X371648Y327356D01*
X371150Y327441D01*
X370658Y327325D01*
X370292Y327070D01*
X369293Y326071D01*
X367157Y325186D01*
X364810Y325186D01*
X364315Y325085D01*
X363898Y324800D01*
X363625Y324374D01*
X363540Y323916D01*
X363540Y322930D01*
X363508Y322898D01*
X363229Y322477D01*
X363136Y321980D01*
X363245Y321486D01*
X363508Y321102D01*
X363540Y321070D01*
X363540Y317930D01*
X363508Y317898D01*
X363229Y317477D01*
X363136Y316980D01*
X363245Y316486D01*
X363508Y316102D01*
X363540Y316070D01*
X363540Y315262D01*
X344460Y315262D01*
X344460Y316070D01*
X344492Y316102D01*
X344771Y316523D01*
X344864Y317020D01*
X344755Y317514D01*
X344492Y317898D01*
X344460Y317930D01*
X344460Y321070D01*
X344492Y321102D01*
X344771Y321523D01*
X344864Y322020D01*
X344755Y322514D01*
X344492Y322898D01*
X344460Y322930D01*
X344460Y326070D01*
X344480Y326089D01*
X344759Y326511D01*
X344851Y327008D01*
X344743Y327501D01*
X344450Y327914D01*
X344020Y328179D01*
X343521Y328256D01*
X343208Y328186D01*
X340843Y328186D01*
X338707Y329071D01*
X337071Y330707D01*
X336186Y332843D01*
X336186Y335156D01*
X336332Y335509D01*
X336429Y336006D01*
X336324Y336500D01*
X336035Y336915D01*
X335749Y337101D01*
X334071Y338779D01*
X333186Y340915D01*
X333186Y343228D01*
X333332Y343581D01*
X333429Y344078D01*
X333324Y344572D01*
X333035Y344987D01*
X332749Y345173D01*
X331071Y346851D01*
X330186Y348987D01*
X330186Y350491D01*
X330085Y350987D01*
X329800Y351404D01*
X329402Y351665D01*
X327916Y352280D01*
X326280Y353916D01*
X325341Y356184D01*
X325295Y356411D01*
X325009Y356828D01*
X324583Y357101D01*
X324125Y357186D01*
X323843Y357186D01*
X321495Y358159D01*
X321441Y358195D01*
X320944Y358288D01*
X320450Y358179D01*
X320401Y358146D01*
X318085Y357186D01*
X315771Y357186D01*
X313480Y358135D01*
X313327Y358236D01*
X312830Y358329D01*
X312365Y358232D01*
X310013Y357258D01*
X307699Y357258D01*
X305347Y358232D01*
X304851Y358329D01*
X304357Y358224D01*
X304215Y358128D01*
X301941Y357186D01*
X300936Y357186D01*
X300441Y357085D01*
X300024Y356800D01*
X299763Y356402D01*
X299061Y354707D01*
X297425Y353071D01*
X296597Y352728D01*
X296178Y352446D01*
X295902Y352022D01*
X295819Y351553D01*
X295814Y351553D01*
X295814Y351526D01*
X295814Y351524D01*
X295814Y351523D01*
X295814Y348987D01*
X294929Y346851D01*
X293244Y345166D01*
X292936Y344958D01*
X292660Y344535D01*
X292572Y344037D01*
X292668Y343581D01*
X292814Y343228D01*
X292814Y340915D01*
X291929Y338779D01*
X290244Y337094D01*
X289936Y336886D01*
X289660Y336463D01*
X289572Y335965D01*
X289668Y335509D01*
X289814Y335156D01*
X289814Y332843D01*
X288929Y330707D01*
X287293Y329071D01*
X285157Y328186D01*
X282775Y328186D01*
X282408Y328257D01*
X281914Y328153D01*
X281499Y327864D01*
X281230Y327436D01*
X281150Y326937D01*
X281270Y326446D01*
X281520Y326089D01*
X281540Y326070D01*
X281540Y322930D01*
X281508Y322898D01*
X281229Y322477D01*
X281136Y321980D01*
X281245Y321486D01*
X281508Y321102D01*
X281540Y321070D01*
X281540Y317930D01*
X281508Y317898D01*
X281229Y317477D01*
X281136Y316980D01*
X281245Y316486D01*
X281508Y316102D01*
X281540Y316070D01*
X281540Y312930D01*
X281508Y312898D01*
X281229Y312477D01*
X281136Y311980D01*
X281245Y311486D01*
X281508Y311102D01*
X281540Y311070D01*
X281540Y307930D01*
X279320Y305710D01*
X273243Y305710D01*
X272747Y305609D01*
X272331Y305324D01*
X272058Y304898D01*
X271973Y304400D01*
X272069Y303954D01*
X272814Y302156D01*
X272814Y299843D01*
X271929Y297707D01*
X270293Y296071D01*
X268136Y295178D01*
X267683Y295085D01*
X267280Y294814D01*
X257944Y285478D01*
X257665Y285057D01*
X257572Y284580D01*
X257572Y190084D01*
X257673Y189589D01*
X257958Y189172D01*
X258384Y188899D01*
X258842Y188814D01*
X261157Y188814D01*
X263293Y187929D01*
X264929Y186293D01*
X265814Y184157D01*
X265814Y181843D01*
X264920Y179686D01*
X264665Y179300D01*
X264572Y178824D01*
X264572Y53106D01*
X222186Y10720D01*
X221907Y10299D01*
X221822Y9862D01*
X220929Y7707D01*
X219293Y6071D01*
X217157Y5186D01*
X214843Y5186D01*
X212686Y6080D01*
X212300Y6335D01*
X211824Y6428D01*
X137106Y6428D01*
X131428Y12106D01*
X131428Y12190D01*
X131327Y12685D01*
X131042Y13102D01*
X130616Y13375D01*
X130158Y13460D01*
X88762Y13460D01*
X88762Y33540D01*
X89726Y33540D01*
X90221Y33641D01*
X90638Y33926D01*
X90910Y34352D01*
X90995Y34850D01*
X90899Y35296D01*
X90258Y36844D01*
X90258Y39157D01*
X91143Y41293D01*
X91264Y41414D01*
X91543Y41836D01*
X91636Y42333D01*
X91528Y42826D01*
X91235Y43239D01*
X90805Y43504D01*
X90305Y43581D01*
X89880Y43486D01*
X89156Y43186D01*
X86843Y43186D01*
X85305Y43823D01*
X84819Y43920D01*
X83181Y43920D01*
X82695Y43823D01*
X81157Y43186D01*
X78843Y43186D01*
X76707Y44071D01*
X75071Y45707D01*
X74186Y47843D01*
X74186Y48754D01*
X74085Y49250D01*
X73800Y49667D01*
X73374Y49939D01*
X72876Y50024D01*
X72430Y49928D01*
X71301Y49460D01*
X68699Y49460D01*
X66295Y50456D01*
X64456Y52295D01*
X63460Y54699D01*
X63460Y57301D01*
X64456Y59705D01*
X66295Y61544D01*
X68699Y62540D01*
X71301Y62540D01*
X72954Y61855D01*
X73450Y61759D01*
X73945Y61863D01*
X74359Y62152D01*
X74628Y62580D01*
X74710Y63029D01*
X74710Y71052D01*
X76198Y72540D01*
X89726Y72540D01*
X90221Y72641D01*
X90638Y72926D01*
X90910Y73352D01*
X90995Y73850D01*
X90899Y74296D01*
X90258Y75844D01*
X90258Y78157D01*
X91143Y80293D01*
X92779Y81929D01*
X94931Y82820D01*
X95395Y82915D01*
X95798Y83186D01*
X113490Y100878D01*
X154510Y100878D01*
X155202Y100186D01*
X155624Y99907D01*
X156100Y99814D01*
X157157Y99814D01*
X159293Y98929D01*
X160929Y97293D01*
X161814Y95157D01*
X161814Y92843D01*
X160929Y90707D01*
X159293Y89071D01*
X157157Y88186D01*
X154804Y88186D01*
X154309Y88085D01*
X153892Y87800D01*
X153631Y87402D01*
X153600Y87328D01*
X153504Y86832D01*
X153608Y86337D01*
X153897Y85923D01*
X154325Y85654D01*
X154774Y85572D01*
X164580Y85572D01*
X165076Y85673D01*
X165478Y85944D01*
X173814Y94280D01*
X174093Y94701D01*
X174178Y95138D01*
X175071Y97293D01*
X176707Y98929D01*
X178864Y99823D01*
X179318Y99915D01*
X179720Y100186D01*
X230521Y150987D01*
X230800Y151408D01*
X230893Y151905D01*
X230796Y152371D01*
X230186Y153844D01*
X230186Y154440D01*
X230085Y154935D01*
X229800Y155352D01*
X229374Y155625D01*
X228916Y155710D01*
X217906Y155710D01*
X217410Y155609D01*
X217008Y155338D01*
X213662Y151992D01*
X213383Y151571D01*
X213290Y151094D01*
X213290Y138680D01*
X211070Y136460D01*
X207930Y136460D01*
X207898Y136492D01*
X207477Y136771D01*
X206980Y136864D01*
X206486Y136755D01*
X206102Y136492D01*
X206070Y136460D01*
X202930Y136460D01*
X202898Y136492D01*
X202477Y136771D01*
X201980Y136864D01*
X201486Y136755D01*
X201102Y136492D01*
X201070Y136460D01*
X197930Y136460D01*
X197898Y136492D01*
X197477Y136771D01*
X196980Y136864D01*
X196486Y136755D01*
X196102Y136492D01*
X196070Y136460D01*
X192930Y136460D01*
X192898Y136492D01*
X192477Y136771D01*
X191980Y136864D01*
X191486Y136755D01*
X191102Y136492D01*
X191070Y136460D01*
X187930Y136460D01*
X187898Y136492D01*
X187477Y136771D01*
X186980Y136864D01*
X186486Y136755D01*
X186102Y136492D01*
X186070Y136460D01*
X182930Y136460D01*
X182898Y136492D01*
X182477Y136771D01*
X181980Y136864D01*
X181486Y136755D01*
X181102Y136492D01*
X181070Y136460D01*
X177930Y136460D01*
X177898Y136492D01*
X177477Y136771D01*
X176980Y136864D01*
X176486Y136755D01*
X176102Y136492D01*
X176070Y136460D01*
X172930Y136460D01*
X172898Y136492D01*
X172477Y136771D01*
X171980Y136864D01*
X171486Y136755D01*
X171102Y136492D01*
X171070Y136460D01*
X167930Y136460D01*
X167898Y136492D01*
X167477Y136771D01*
X166980Y136864D01*
X166486Y136755D01*
X166102Y136492D01*
X166070Y136460D01*
X162930Y136460D01*
X162898Y136492D01*
X162477Y136771D01*
X161980Y136864D01*
X161486Y136755D01*
X161102Y136492D01*
X161070Y136460D01*
X157930Y136460D01*
X157898Y136492D01*
X157477Y136771D01*
X156980Y136864D01*
X156486Y136755D01*
X156102Y136492D01*
X156070Y136460D01*
X152930Y136460D01*
X150710Y138680D01*
X150710Y151094D01*
X150609Y151590D01*
X150338Y151992D01*
X146992Y155338D01*
X146571Y155617D01*
X146094Y155710D01*
X135350Y155710D01*
X134855Y155609D01*
X134438Y155324D01*
X134165Y154898D01*
X134080Y154440D01*
X134080Y136161D01*
X134181Y135665D01*
X134466Y135248D01*
X134685Y135108D01*
X136391Y133403D01*
X136391Y122089D01*
X135200Y120898D01*
X134921Y120477D01*
X134828Y119980D01*
X134936Y119486D01*
X135200Y119102D01*
X136391Y117911D01*
X136391Y113016D01*
X121609Y113016D01*
X121609Y117911D01*
X122800Y119102D01*
X123080Y119523D01*
X123172Y120020D01*
X123064Y120514D01*
X122800Y120898D01*
X121609Y122089D01*
X121609Y133403D01*
X123311Y135105D01*
X123562Y135277D01*
X123835Y135703D01*
X123920Y136161D01*
X123920Y154819D01*
X123823Y155305D01*
X123186Y156843D01*
X123186Y159157D01*
X123823Y160695D01*
X123920Y161181D01*
X123920Y163819D01*
X123823Y164305D01*
X123186Y165843D01*
X123186Y168157D01*
X124071Y170293D01*
X124446Y170668D01*
X124725Y171089D01*
X124818Y171586D01*
X124709Y172080D01*
X124446Y172464D01*
X124203Y172707D01*
X123318Y174843D01*
X123318Y177157D01*
X124203Y179293D01*
X124512Y179602D01*
X124791Y180023D01*
X124884Y180520D01*
X124775Y181014D01*
X124512Y181398D01*
X124203Y181707D01*
X123318Y183843D01*
X123318Y186157D01*
X124203Y188293D01*
X124512Y188602D01*
X124791Y189023D01*
X124884Y189520D01*
X124775Y190014D01*
X124512Y190398D01*
X124203Y190707D01*
X123318Y192843D01*
X123318Y195157D01*
X124203Y197293D01*
X125839Y198929D01*
X127975Y199814D01*
X130190Y199814D01*
X130685Y199915D01*
X131102Y200200D01*
X131375Y200626D01*
X131457Y201067D01*
X131492Y201102D01*
X131771Y201523D01*
X131864Y202020D01*
X131755Y202514D01*
X131492Y202898D01*
X131460Y202930D01*
X131460Y206070D01*
X131492Y206102D01*
X131771Y206523D01*
X131864Y207020D01*
X131755Y207514D01*
X131492Y207898D01*
X131460Y207930D01*
X131460Y208738D01*
X150540Y208738D01*
X150540Y207930D01*
X150508Y207898D01*
X150229Y207477D01*
X150136Y206980D01*
X150245Y206486D01*
X150508Y206102D01*
X150540Y206070D01*
X150540Y202930D01*
X150508Y202898D01*
X150229Y202477D01*
X150136Y201980D01*
X150245Y201486D01*
X150508Y201102D01*
X150540Y201070D01*
X150540Y197930D01*
X150508Y197898D01*
X150229Y197477D01*
X150136Y196980D01*
X150245Y196486D01*
X150508Y196102D01*
X150540Y196070D01*
X150540Y195285D01*
X150641Y194790D01*
X150926Y194373D01*
X151352Y194101D01*
X151810Y194015D01*
X153991Y194015D01*
X156128Y193130D01*
X157764Y191495D01*
X158649Y189358D01*
X158649Y187081D01*
X158749Y186586D01*
X159035Y186169D01*
X159433Y185908D01*
X160061Y185647D01*
X161697Y184012D01*
X162582Y181875D01*
X162582Y179562D01*
X162260Y178785D01*
X162163Y178289D01*
X162268Y177794D01*
X162535Y177401D01*
X163996Y175940D01*
X164969Y173592D01*
X164982Y173527D01*
X165268Y173110D01*
X165693Y172838D01*
X165752Y172827D01*
X168068Y171868D01*
X169704Y170232D01*
X170676Y167884D01*
X170690Y167820D01*
X170975Y167403D01*
X171401Y167130D01*
X171459Y167119D01*
X173776Y166160D01*
X173825Y166111D01*
X174247Y165831D01*
X174744Y165739D01*
X175209Y165835D01*
X177398Y166742D01*
X179711Y166742D01*
X182063Y165768D01*
X182560Y165671D01*
X183054Y165776D01*
X183196Y165872D01*
X185470Y166814D01*
X187783Y166814D01*
X190064Y165869D01*
X190236Y165755D01*
X190733Y165663D01*
X191227Y165771D01*
X191383Y165878D01*
X193841Y166896D01*
X193930Y166915D01*
X194347Y167200D01*
X194620Y167626D01*
X194626Y167661D01*
X195590Y169988D01*
X197226Y171624D01*
X197785Y171855D01*
X198204Y172138D01*
X198480Y172562D01*
X198569Y173029D01*
X198569Y175403D01*
X199454Y177540D01*
X201089Y179176D01*
X201469Y179333D01*
X201888Y179616D01*
X202164Y180039D01*
X202253Y180537D01*
X202209Y180745D01*
X202209Y183179D01*
X203094Y185316D01*
X204850Y187072D01*
X205129Y187494D01*
X205222Y187991D01*
X205126Y188457D01*
X204926Y188938D01*
X204926Y191251D01*
X205811Y193388D01*
X207447Y195024D01*
X209583Y195909D01*
X211896Y195909D01*
X212104Y195823D01*
X212600Y195726D01*
X213095Y195831D01*
X213488Y196098D01*
X213492Y196102D01*
X213771Y196523D01*
X213864Y197020D01*
X213755Y197514D01*
X213492Y197898D01*
X213460Y197930D01*
X213460Y201070D01*
X213492Y201102D01*
X213771Y201523D01*
X213864Y202020D01*
X213755Y202514D01*
X213492Y202898D01*
X213460Y202930D01*
X213460Y206070D01*
X213492Y206102D01*
X213771Y206523D01*
X213864Y207020D01*
X213755Y207514D01*
X213492Y207898D01*
X213460Y207930D01*
X213460Y211070D01*
X213492Y211102D01*
X213771Y211523D01*
X213864Y212020D01*
X213755Y212514D01*
X213492Y212898D01*
X213460Y212930D01*
X213460Y216070D01*
X215680Y218290D01*
X228916Y218290D01*
X229411Y218391D01*
X229828Y218676D01*
X230101Y219102D01*
X230186Y219560D01*
X230186Y220196D01*
X231071Y222333D01*
X232707Y223968D01*
X234843Y224854D01*
X237157Y224854D01*
X239293Y223968D01*
X240672Y222590D01*
X241093Y222311D01*
X241590Y222218D01*
X242084Y222326D01*
X242496Y222619D01*
X242762Y223049D01*
X242840Y223488D01*
X242840Y278168D01*
X242739Y278664D01*
X242468Y279066D01*
X226720Y294814D01*
X226299Y295093D01*
X225862Y295178D01*
X223707Y296071D01*
X222071Y297707D01*
X221186Y299843D01*
X221186Y302157D01*
X222071Y304293D01*
X223707Y305929D01*
X224762Y306366D01*
X225181Y306649D01*
X225457Y307072D01*
X225546Y307570D01*
X225434Y308063D01*
X225174Y308438D01*
X213126Y320486D01*
X213126Y326916D01*
X213025Y327411D01*
X212740Y327828D01*
X212314Y328101D01*
X211856Y328186D01*
X209711Y328186D01*
X207575Y329071D01*
X205939Y330707D01*
X205054Y332843D01*
X205054Y335157D01*
X205220Y335556D01*
X205316Y336052D01*
X205212Y336547D01*
X204923Y336961D01*
X204825Y337025D01*
X203071Y338779D01*
X202186Y340915D01*
X202186Y343228D01*
X202332Y343581D01*
X202429Y344078D01*
X202324Y344572D01*
X202035Y344987D01*
X201749Y345173D01*
X200071Y346851D01*
X199186Y348987D01*
X199186Y351536D01*
X199196Y351587D01*
X199092Y352082D01*
X198803Y352496D01*
X198412Y352751D01*
X197639Y353071D01*
X196003Y354707D01*
X195301Y356402D01*
X195018Y356821D01*
X194595Y357097D01*
X194128Y357186D01*
X193059Y357186D01*
X190768Y358135D01*
X190615Y358236D01*
X190118Y358329D01*
X189653Y358232D01*
X187301Y357258D01*
X184987Y357258D01*
X182635Y358232D01*
X182139Y358329D01*
X181645Y358224D01*
X181503Y358128D01*
X179229Y357186D01*
X176915Y357186D01*
X174567Y358159D01*
X174513Y358195D01*
X174016Y358288D01*
X173522Y358179D01*
X173473Y358146D01*
X171157Y357186D01*
X170875Y357186D01*
X170379Y357085D01*
X169963Y356800D01*
X169690Y356374D01*
X169651Y356165D01*
X168720Y353916D01*
X167084Y352280D01*
X165598Y351665D01*
X165179Y351382D01*
X164903Y350959D01*
X164814Y350491D01*
X164814Y349040D01*
X163929Y346903D01*
X162244Y345219D01*
X161936Y345011D01*
X161660Y344587D01*
X161572Y344090D01*
X161668Y343634D01*
X161814Y343281D01*
X161814Y340968D01*
X160929Y338831D01*
X159208Y337111D01*
X158981Y336958D01*
X158705Y336534D01*
X158617Y336036D01*
X158713Y335581D01*
X158867Y335209D01*
X158867Y332896D01*
X157982Y330759D01*
X157200Y329978D01*
X156921Y329557D01*
X156828Y329060D01*
X156937Y328566D01*
X157229Y328154D01*
X157659Y327888D01*
X158098Y327810D01*
X179578Y327810D01*
X221810Y285578D01*
X221810Y257422D01*
X217186Y252798D01*
X216907Y252376D01*
X216814Y251900D01*
X216814Y250843D01*
X215929Y248707D01*
X214293Y247071D01*
X213586Y246778D01*
X213167Y246496D01*
X212891Y246072D01*
X212802Y245605D01*
X212802Y236334D01*
X212903Y235839D01*
X213174Y235436D01*
X213290Y235320D01*
X213290Y220680D01*
X211070Y218460D01*
X207930Y218460D01*
X207898Y218492D01*
X207477Y218771D01*
X206980Y218864D01*
X206486Y218755D01*
X206102Y218492D01*
X206070Y218460D01*
X202930Y218460D01*
X202898Y218492D01*
X202477Y218771D01*
X201980Y218864D01*
X201486Y218755D01*
X201102Y218492D01*
X201070Y218460D01*
X197930Y218460D01*
X197898Y218492D01*
X197477Y218771D01*
X196980Y218864D01*
X196486Y218755D01*
X196102Y218492D01*
X196070Y218460D01*
X192930Y218460D01*
X192898Y218492D01*
X192477Y218771D01*
X191980Y218864D01*
X191486Y218755D01*
X191102Y218492D01*
X191070Y218460D01*
X187930Y218460D01*
X187898Y218492D01*
X187477Y218771D01*
X186980Y218864D01*
X186486Y218755D01*
X186102Y218492D01*
X186070Y218460D01*
X182930Y218460D01*
X182898Y218492D01*
X182477Y218771D01*
X181980Y218864D01*
X181486Y218755D01*
X181102Y218492D01*
X181070Y218460D01*
X177930Y218460D01*
X177898Y218492D01*
X177477Y218771D01*
X176980Y218864D01*
X176486Y218755D01*
X176102Y218492D01*
X176070Y218460D01*
X172930Y218460D01*
X172898Y218492D01*
X172477Y218771D01*
X171980Y218864D01*
X171486Y218755D01*
X171102Y218492D01*
X171070Y218460D01*
X167930Y218460D01*
X167898Y218492D01*
X167477Y218771D01*
X166980Y218864D01*
X166486Y218755D01*
X166102Y218492D01*
X166070Y218460D01*
X162930Y218460D01*
X162898Y218492D01*
X162477Y218771D01*
X161980Y218864D01*
X161486Y218755D01*
X161102Y218492D01*
X161070Y218460D01*
X157930Y218460D01*
X157898Y218492D01*
X157477Y218771D01*
X156980Y218864D01*
X156486Y218755D01*
X156102Y218492D01*
X156070Y218460D01*
X152930Y218460D01*
X150710Y220680D01*
X150710Y235320D01*
X150826Y235436D01*
X151105Y235857D01*
X151198Y236334D01*
X151198Y249567D01*
X151097Y250063D01*
X150826Y250465D01*
X150244Y251047D01*
X149823Y251326D01*
X149346Y251419D01*
X147658Y251419D01*
X145521Y252304D01*
X144861Y252965D01*
X144439Y253244D01*
X143963Y253337D01*
X112251Y253337D01*
X111756Y253236D01*
X111353Y252965D01*
X85278Y226890D01*
X57784Y226890D01*
X57289Y226789D01*
X56886Y226518D01*
X50908Y220540D01*
X42492Y220540D01*
X36540Y226492D01*
X36540Y234908D01*
X38654Y237022D01*
X38933Y237443D01*
X39025Y237940D01*
X38917Y238434D01*
X38625Y238846D01*
X38194Y239112D01*
X37756Y239190D01*
X35704Y239190D01*
X35209Y239089D01*
X34806Y238818D01*
X31832Y235844D01*
X31553Y235422D01*
X31460Y234946D01*
X31460Y226492D01*
X25508Y220540D01*
X17092Y220540D01*
X11140Y226492D01*
X11140Y234908D01*
X17092Y240860D01*
X25546Y240860D01*
X26041Y240961D01*
X26444Y241232D01*
X32022Y246810D01*
X38556Y246810D01*
X39051Y246911D01*
X39468Y247196D01*
X39740Y247622D01*
X39825Y248120D01*
X39709Y248612D01*
X39454Y248978D01*
X36540Y251892D01*
X36540Y260308D01*
X39254Y263022D01*
X39533Y263443D01*
X39625Y263940D01*
X39517Y264434D01*
X39225Y264846D01*
X38794Y265112D01*
X38356Y265190D01*
X36304Y265190D01*
X35809Y265089D01*
X35406Y264818D01*
X31832Y261244D01*
X31553Y260822D01*
X31460Y260346D01*
X31460Y251892D01*
X25508Y245940D01*
X17092Y245940D01*
X11140Y251892D01*
X11140Y260308D01*
X17092Y266260D01*
X25546Y266260D01*
X26041Y266361D01*
X26444Y266632D01*
X32622Y272810D01*
X37956Y272810D01*
X38451Y272911D01*
X38868Y273196D01*
X39140Y273622D01*
X39225Y274120D01*
X39109Y274612D01*
X38854Y274978D01*
X36540Y277292D01*
X36540Y285708D01*
X38470Y287638D01*
X38749Y288059D01*
X38841Y288556D01*
X38733Y289050D01*
X38441Y289462D01*
X38010Y289728D01*
X37572Y289806D01*
X35520Y289806D01*
X35025Y289705D01*
X34622Y289434D01*
X31832Y286644D01*
X31553Y286222D01*
X31460Y285746D01*
X31460Y277292D01*
X25508Y271340D01*
X17092Y271340D01*
X11140Y277292D01*
X11140Y285708D01*
X17092Y291660D01*
X25546Y291660D01*
X26041Y291761D01*
X26444Y292032D01*
X31838Y297426D01*
X38740Y297426D01*
X39235Y297527D01*
X39652Y297812D01*
X39924Y298238D01*
X40009Y298736D01*
X39893Y299228D01*
X39638Y299594D01*
X36540Y302692D01*
X36540Y311108D01*
X38454Y313022D01*
X38733Y313443D01*
X38825Y313940D01*
X38717Y314434D01*
X38425Y314846D01*
X37994Y315112D01*
X37556Y315190D01*
X35504Y315190D01*
X35009Y315089D01*
X34606Y314818D01*
X31832Y312044D01*
X31553Y311622D01*
X31460Y311146D01*
X31460Y302692D01*
X25508Y296740D01*
X17092Y296740D01*
X11140Y302692D01*
X11140Y311108D01*
X17092Y317060D01*
X25546Y317060D01*
X26041Y317161D01*
X26444Y317432D01*
X31822Y322810D01*
X38756Y322810D01*
X39251Y322911D01*
X39668Y323196D01*
X39940Y323622D01*
X40025Y324120D01*
X39909Y324612D01*
X39654Y324978D01*
X36540Y328092D01*
X36540Y336508D01*
X39054Y339022D01*
X39333Y339443D01*
X39425Y339940D01*
X39317Y340434D01*
X39025Y340846D01*
X38594Y341112D01*
X38156Y341190D01*
X36104Y341190D01*
X35609Y341089D01*
X35206Y340818D01*
X31832Y337444D01*
X31553Y337022D01*
X31460Y336546D01*
X31460Y328092D01*
X25508Y322140D01*
X17092Y322140D01*
X11140Y328092D01*
X11140Y336508D01*
X17092Y342460D01*
X25546Y342460D01*
X26041Y342561D01*
X26444Y342832D01*
X32422Y348810D01*
X38156Y348810D01*
X38651Y348911D01*
X39068Y349196D01*
X39340Y349622D01*
X39425Y350120D01*
X39309Y350612D01*
X39054Y350978D01*
X36540Y353492D01*
X36540Y361908D01*
X38654Y364022D01*
X38933Y364443D01*
X39025Y364940D01*
X38917Y365434D01*
X38625Y365846D01*
X38194Y366112D01*
X37756Y366190D01*
X35704Y366190D01*
X35209Y366089D01*
X34806Y365818D01*
X31832Y362844D01*
X31553Y362422D01*
X31460Y361946D01*
X31460Y353492D01*
X25508Y347540D01*
X17092Y347540D01*
X11140Y353492D01*
X11140Y361908D01*
X17092Y367860D01*
X25546Y367860D01*
X26041Y367961D01*
X26444Y368232D01*
X32022Y373810D01*
X38556Y373810D01*
X39051Y373911D01*
X39468Y374196D01*
X39740Y374622D01*
X39825Y375120D01*
X39709Y375612D01*
X39454Y375978D01*
X36540Y378892D01*
X36540Y387308D01*
X39254Y390022D01*
X39533Y390443D01*
X39625Y390940D01*
X39517Y391434D01*
X39225Y391846D01*
X38794Y392112D01*
X38356Y392190D01*
X36304Y392190D01*
X35809Y392089D01*
X35406Y391818D01*
X31832Y388244D01*
X31553Y387822D01*
X31460Y387346D01*
X31460Y378892D01*
X25508Y372940D01*
X17092Y372940D01*
X11140Y378892D01*
X11140Y387308D01*
X17092Y393260D01*
X25546Y393260D01*
X26041Y393361D01*
X26444Y393632D01*
X32622Y399810D01*
X37956Y399810D01*
X38451Y399911D01*
X38868Y400196D01*
X39140Y400622D01*
X39225Y401120D01*
X39109Y401612D01*
X38854Y401978D01*
X36540Y404292D01*
X36540Y412708D01*
X38922Y415090D01*
X39201Y415511D01*
X39293Y416008D01*
X39185Y416502D01*
X38893Y416914D01*
X38462Y417180D01*
X38024Y417258D01*
X35972Y417258D01*
X35477Y417157D01*
X35074Y416886D01*
X31832Y413644D01*
X31553Y413222D01*
X31460Y412746D01*
X31460Y404292D01*
X25508Y398340D01*
X17092Y398340D01*
X11140Y404292D01*
X11140Y412708D01*
X17092Y418660D01*
X25546Y418660D01*
X26041Y418761D01*
X26444Y419032D01*
X32290Y424878D01*
X166510Y424878D01*
X228499Y362889D01*
X228921Y362610D01*
X229418Y362517D01*
X229911Y362626D01*
X230323Y362918D01*
X230571Y363301D01*
X231159Y364721D01*
X231195Y364775D01*
X231288Y365272D01*
X231179Y365766D01*
X231146Y365815D01*
X230186Y368131D01*
X230186Y370445D01*
X231071Y372581D01*
X232707Y374217D01*
X234843Y375102D01*
X237157Y375102D01*
X239293Y374217D01*
X240929Y372581D01*
X241814Y370445D01*
X241814Y369072D01*
X241915Y368577D01*
X242200Y368160D01*
X242626Y367887D01*
X243084Y367802D01*
X263666Y367802D01*
X264161Y367903D01*
X264564Y368174D01*
X264680Y368290D01*
X277094Y368290D01*
X277590Y368391D01*
X277992Y368662D01*
X281338Y372008D01*
X281617Y372429D01*
X281710Y372906D01*
X281710Y385320D01*
X283930Y387540D01*
X287070Y387540D01*
X287102Y387508D01*
X287523Y387229D01*
X288020Y387136D01*
X288514Y387245D01*
X288898Y387508D01*
X288930Y387540D01*
X292070Y387540D01*
X292102Y387508D01*
X292523Y387229D01*
X293020Y387136D01*
X293514Y387245D01*
X293898Y387508D01*
X293930Y387540D01*
X297070Y387540D01*
X297102Y387508D01*
X297523Y387229D01*
X298020Y387136D01*
X298514Y387245D01*
X298898Y387508D01*
X298930Y387540D01*
X302070Y387540D01*
X302102Y387508D01*
X302523Y387229D01*
X303020Y387136D01*
X303514Y387245D01*
X303898Y387508D01*
X303930Y387540D01*
X307070Y387540D01*
X307102Y387508D01*
X307523Y387229D01*
X308020Y387136D01*
X308514Y387245D01*
X308898Y387508D01*
X308930Y387540D01*
X312070Y387540D01*
X312102Y387508D01*
X312523Y387229D01*
X313020Y387136D01*
X313514Y387245D01*
X313898Y387508D01*
X313930Y387540D01*
X317070Y387540D01*
X317102Y387508D01*
X317523Y387229D01*
X318020Y387136D01*
X318514Y387245D01*
X318898Y387508D01*
X318930Y387540D01*
X322070Y387540D01*
X322102Y387508D01*
X322523Y387229D01*
X323020Y387136D01*
X323514Y387245D01*
X323898Y387508D01*
X323930Y387540D01*
X327070Y387540D01*
X327102Y387508D01*
X327523Y387229D01*
X328020Y387136D01*
X328514Y387245D01*
X328898Y387508D01*
X328930Y387540D01*
X332070Y387540D01*
X332102Y387508D01*
X332523Y387229D01*
X333020Y387136D01*
X333514Y387245D01*
X333898Y387508D01*
X333930Y387540D01*
X337070Y387540D01*
X337102Y387508D01*
X337523Y387229D01*
X338020Y387136D01*
X338514Y387245D01*
X338898Y387508D01*
X338930Y387540D01*
X342070Y387540D01*
X344290Y385320D01*
X344290Y372906D01*
X344391Y372410D01*
X344662Y372008D01*
X348008Y368662D01*
X348429Y368383D01*
X348906Y368290D01*
X358979Y368290D01*
X359474Y368391D01*
X359891Y368676D01*
X360152Y369074D01*
X360823Y370695D01*
X360920Y371181D01*
X360920Y373370D01*
X360819Y373865D01*
X360548Y374268D01*
X351693Y383122D01*
X350920Y384990D01*
X350920Y387840D01*
X350819Y388335D01*
X350534Y388752D01*
X350315Y388892D01*
X348609Y390597D01*
X348609Y401911D01*
X349800Y403102D01*
X350080Y403523D01*
X350172Y404020D01*
X350064Y404514D01*
X349800Y404898D01*
X348609Y406089D01*
X348609Y410984D01*
X363391Y410984D01*
X363391Y406089D01*
X362200Y404898D01*
X361921Y404477D01*
X361828Y403980D01*
X361936Y403486D01*
X362200Y403102D01*
X363391Y401911D01*
X363391Y390597D01*
X361887Y389093D01*
X361608Y388672D01*
X361515Y388175D01*
X361624Y387681D01*
X361887Y387297D01*
X370292Y378892D01*
X370713Y378613D01*
X371210Y378520D01*
X371704Y378629D01*
X372116Y378921D01*
X372382Y379351D01*
X372460Y379790D01*
X372460Y430190D01*
X372359Y430685D01*
X372074Y431102D01*
X371648Y431375D01*
X371190Y431460D01*
X3810Y431460D01*
X3315Y431359D01*
X2898Y431074D01*
X2625Y430648D01*
X2540Y430190D01*
X2540Y3810D01*
X2641Y3315D01*
X2926Y2898D01*
X3352Y2625D01*
X3810Y2540D01*
X371190Y2540D01*
X371685Y2641D01*
G37*
%LPC*%
G36*
X356762Y412508D02*
X356762Y418891D01*
X361903Y418891D01*
X363391Y417403D01*
X363391Y412508D01*
X356762Y412508D01*
G37*
G36*
X348609Y412508D02*
X348609Y417403D01*
X350097Y418891D01*
X355238Y418891D01*
X355238Y412508D01*
X348609Y412508D01*
G37*
G36*
X344460Y310262D02*
X344460Y311070D01*
X344492Y311102D01*
X344771Y311523D01*
X344864Y312020D01*
X344755Y312514D01*
X344492Y312898D01*
X344460Y312930D01*
X344460Y313738D01*
X363540Y313738D01*
X363540Y312930D01*
X363508Y312898D01*
X363229Y312477D01*
X363136Y311980D01*
X363245Y311486D01*
X363508Y311102D01*
X363540Y311070D01*
X363540Y310262D01*
X344460Y310262D01*
G37*
G36*
X354762Y305710D02*
X354762Y308738D01*
X363540Y308738D01*
X363540Y307930D01*
X361320Y305710D01*
X354762Y305710D01*
G37*
G36*
X346680Y305710D02*
X344460Y307930D01*
X344460Y308738D01*
X353238Y308738D01*
X353238Y305710D01*
X346680Y305710D01*
G37*
G36*
X282843Y246186D02*
X280707Y247071D01*
X279071Y248707D01*
X278186Y250843D01*
X278186Y252618D01*
X278090Y253091D01*
X278090Y286760D01*
X281338Y290008D01*
X281617Y290429D01*
X281710Y290906D01*
X281710Y303320D01*
X283930Y305540D01*
X287070Y305540D01*
X287102Y305508D01*
X287523Y305229D01*
X288020Y305136D01*
X288514Y305245D01*
X288898Y305508D01*
X288930Y305540D01*
X292070Y305540D01*
X292102Y305508D01*
X292523Y305229D01*
X293020Y305136D01*
X293514Y305245D01*
X293898Y305508D01*
X293930Y305540D01*
X297070Y305540D01*
X297102Y305508D01*
X297523Y305229D01*
X298020Y305136D01*
X298514Y305245D01*
X298898Y305508D01*
X298930Y305540D01*
X302070Y305540D01*
X302102Y305508D01*
X302523Y305229D01*
X303020Y305136D01*
X303514Y305245D01*
X303898Y305508D01*
X303930Y305540D01*
X307070Y305540D01*
X307102Y305508D01*
X307523Y305229D01*
X308020Y305136D01*
X308514Y305245D01*
X308898Y305508D01*
X308930Y305540D01*
X312070Y305540D01*
X312102Y305508D01*
X312523Y305229D01*
X313020Y305136D01*
X313514Y305245D01*
X313898Y305508D01*
X313930Y305540D01*
X317070Y305540D01*
X317102Y305508D01*
X317523Y305229D01*
X318020Y305136D01*
X318514Y305245D01*
X318898Y305508D01*
X318930Y305540D01*
X322070Y305540D01*
X322102Y305508D01*
X322523Y305229D01*
X323020Y305136D01*
X323514Y305245D01*
X323898Y305508D01*
X323930Y305540D01*
X327070Y305540D01*
X327102Y305508D01*
X327523Y305229D01*
X328020Y305136D01*
X328514Y305245D01*
X328898Y305508D01*
X328930Y305540D01*
X332070Y305540D01*
X332102Y305508D01*
X332523Y305229D01*
X333020Y305136D01*
X333514Y305245D01*
X333898Y305508D01*
X333930Y305540D01*
X337070Y305540D01*
X337102Y305508D01*
X337523Y305229D01*
X338020Y305136D01*
X338514Y305245D01*
X338898Y305508D01*
X338930Y305540D01*
X342070Y305540D01*
X344290Y303320D01*
X344290Y290906D01*
X344391Y290410D01*
X344662Y290008D01*
X347758Y286912D01*
X347758Y254042D01*
X347854Y253556D01*
X348000Y253205D01*
X348000Y250892D01*
X347115Y248755D01*
X345479Y247120D01*
X343342Y246235D01*
X341029Y246235D01*
X338892Y247120D01*
X337257Y248755D01*
X336372Y250892D01*
X336372Y253205D01*
X336475Y253456D01*
X336572Y253952D01*
X336467Y254446D01*
X336178Y254861D01*
X335788Y255115D01*
X335602Y255192D01*
X333967Y256827D01*
X333082Y258964D01*
X333082Y261430D01*
X333122Y261637D01*
X333017Y262132D01*
X332728Y262546D01*
X332338Y262800D01*
X331954Y262959D01*
X330319Y264595D01*
X329434Y266732D01*
X329434Y269107D01*
X329333Y269602D01*
X329047Y270019D01*
X328650Y270280D01*
X328091Y270511D01*
X326455Y272147D01*
X325521Y274402D01*
X325238Y274821D01*
X324815Y275097D01*
X324347Y275186D01*
X324163Y275186D01*
X321815Y276159D01*
X321761Y276195D01*
X321264Y276288D01*
X320770Y276179D01*
X320721Y276146D01*
X318405Y275186D01*
X316091Y275186D01*
X313863Y276109D01*
X313601Y276283D01*
X313104Y276376D01*
X312610Y276267D01*
X312527Y276210D01*
X310229Y275258D01*
X307915Y275258D01*
X305563Y276232D01*
X305067Y276329D01*
X304573Y276224D01*
X304431Y276128D01*
X302157Y275186D01*
X300804Y275186D01*
X300309Y275085D01*
X299892Y274800D01*
X299631Y274402D01*
X298929Y272707D01*
X297293Y271071D01*
X296578Y270775D01*
X296159Y270492D01*
X295883Y270069D01*
X295794Y269571D01*
X295814Y269478D01*
X295814Y266987D01*
X294929Y264851D01*
X293244Y263166D01*
X292936Y262958D01*
X292660Y262535D01*
X292572Y262037D01*
X292668Y261581D01*
X292814Y261228D01*
X292814Y258915D01*
X291929Y256779D01*
X290244Y255094D01*
X289936Y254886D01*
X289660Y254463D01*
X289572Y253965D01*
X289668Y253509D01*
X289814Y253156D01*
X289814Y250843D01*
X288929Y248707D01*
X287293Y247071D01*
X285157Y246186D01*
X282843Y246186D01*
G37*
G36*
X141762Y215262D02*
X141762Y218290D01*
X148320Y218290D01*
X150540Y216070D01*
X150540Y215262D01*
X141762Y215262D01*
G37*
G36*
X131460Y215262D02*
X131460Y216070D01*
X133680Y218290D01*
X140238Y218290D01*
X140238Y215262D01*
X131460Y215262D01*
G37*
G36*
X17092Y195140D02*
X11140Y201092D01*
X11140Y209508D01*
X17092Y215460D01*
X25508Y215460D01*
X31460Y209508D01*
X31460Y201092D01*
X25508Y195140D01*
X17092Y195140D01*
G37*
G36*
X42492Y195140D02*
X36540Y201092D01*
X36540Y209508D01*
X42492Y215460D01*
X50908Y215460D01*
X56860Y209508D01*
X56860Y201092D01*
X50908Y195140D01*
X42492Y195140D01*
G37*
G36*
X131460Y210262D02*
X131460Y211070D01*
X131492Y211102D01*
X131771Y211523D01*
X131864Y212020D01*
X131755Y212514D01*
X131492Y212898D01*
X131460Y212930D01*
X131460Y213738D01*
X150540Y213738D01*
X150540Y212930D01*
X150508Y212898D01*
X150229Y212477D01*
X150136Y211980D01*
X150245Y211486D01*
X150508Y211102D01*
X150540Y211070D01*
X150540Y210262D01*
X131460Y210262D01*
G37*
G36*
X315771Y155114D02*
X313543Y156037D01*
X313281Y156211D01*
X312784Y156304D01*
X312290Y156195D01*
X312207Y156138D01*
X309909Y155186D01*
X307595Y155186D01*
X305247Y156159D01*
X305193Y156195D01*
X304696Y156288D01*
X304202Y156179D01*
X304153Y156146D01*
X301837Y155186D01*
X299523Y155186D01*
X297387Y156071D01*
X295751Y157707D01*
X294814Y159970D01*
X294531Y160389D01*
X294108Y160665D01*
X293640Y160754D01*
X293451Y160754D01*
X291315Y161639D01*
X289679Y163275D01*
X288794Y165411D01*
X288794Y167786D01*
X288693Y168281D01*
X288408Y168698D01*
X288010Y168959D01*
X287451Y169191D01*
X285815Y170827D01*
X284930Y172963D01*
X284930Y175418D01*
X284975Y175646D01*
X284870Y176141D01*
X284581Y176555D01*
X284191Y176810D01*
X283811Y176967D01*
X282175Y178602D01*
X281290Y180739D01*
X281290Y183052D01*
X281392Y183297D01*
X281488Y183793D01*
X281384Y184287D01*
X281095Y184702D01*
X280704Y184956D01*
X280505Y185039D01*
X278869Y186674D01*
X277984Y188811D01*
X277984Y191124D01*
X278869Y193261D01*
X280505Y194897D01*
X282641Y195782D01*
X284955Y195782D01*
X287091Y194897D01*
X288727Y193261D01*
X289612Y191124D01*
X289612Y188811D01*
X289511Y188567D01*
X289414Y188070D01*
X289519Y187576D01*
X289808Y187161D01*
X290198Y186907D01*
X290398Y186825D01*
X292033Y185189D01*
X292918Y183052D01*
X292918Y180597D01*
X292874Y180369D01*
X292979Y179875D01*
X293268Y179460D01*
X293658Y179206D01*
X294038Y179049D01*
X295673Y177413D01*
X296558Y175276D01*
X296558Y172902D01*
X296659Y172406D01*
X296945Y171989D01*
X297342Y171728D01*
X297901Y171497D01*
X299537Y169861D01*
X300474Y167598D01*
X300757Y167179D01*
X301180Y166903D01*
X301648Y166814D01*
X301837Y166814D01*
X304185Y165841D01*
X304239Y165805D01*
X304736Y165712D01*
X305230Y165821D01*
X305279Y165854D01*
X307595Y166814D01*
X309909Y166814D01*
X312137Y165891D01*
X312399Y165717D01*
X312896Y165624D01*
X313390Y165733D01*
X313473Y165790D01*
X315771Y166742D01*
X318085Y166742D01*
X320437Y165768D01*
X320933Y165671D01*
X321427Y165776D01*
X321569Y165872D01*
X323843Y166814D01*
X324125Y166814D01*
X324621Y166915D01*
X325037Y167200D01*
X325310Y167626D01*
X325349Y167835D01*
X326280Y170084D01*
X327916Y171720D01*
X329402Y172335D01*
X329821Y172618D01*
X330097Y173041D01*
X330186Y173509D01*
X330186Y175013D01*
X331071Y177149D01*
X332756Y178834D01*
X333064Y179042D01*
X333340Y179465D01*
X333428Y179963D01*
X333332Y180419D01*
X333186Y180772D01*
X333186Y183085D01*
X334071Y185221D01*
X335756Y186906D01*
X336064Y187114D01*
X336340Y187537D01*
X336428Y188035D01*
X336332Y188491D01*
X336186Y188844D01*
X336186Y191157D01*
X337071Y193293D01*
X338707Y194929D01*
X340843Y195814D01*
X343157Y195814D01*
X345293Y194929D01*
X346929Y193293D01*
X347814Y191157D01*
X347814Y188843D01*
X346929Y186707D01*
X345244Y185022D01*
X344936Y184814D01*
X344660Y184391D01*
X344572Y183893D01*
X344668Y183437D01*
X344814Y183084D01*
X344814Y180771D01*
X343929Y178635D01*
X342244Y176950D01*
X341936Y176742D01*
X341660Y176319D01*
X341572Y175821D01*
X341668Y175365D01*
X341814Y175012D01*
X341814Y172699D01*
X340929Y170563D01*
X339293Y168927D01*
X337807Y168312D01*
X337388Y168029D01*
X337112Y167605D01*
X337023Y167138D01*
X337023Y165634D01*
X336138Y163498D01*
X334503Y161862D01*
X332366Y160977D01*
X332084Y160977D01*
X331589Y160876D01*
X331172Y160590D01*
X330899Y160165D01*
X330860Y159955D01*
X329929Y157707D01*
X328293Y156071D01*
X326157Y155186D01*
X323843Y155186D01*
X321491Y156160D01*
X320995Y156257D01*
X320501Y156152D01*
X320359Y156056D01*
X318085Y155114D01*
X315771Y155114D01*
G37*
G36*
X42492Y169740D02*
X36540Y175692D01*
X36540Y184108D01*
X42492Y190060D01*
X50908Y190060D01*
X56860Y184108D01*
X56860Y175692D01*
X50908Y169740D01*
X42492Y169740D01*
G37*
G36*
X17092Y169740D02*
X11140Y175692D01*
X11140Y184108D01*
X17092Y190060D01*
X25508Y190060D01*
X31460Y184108D01*
X31460Y175692D01*
X25508Y169740D01*
X17092Y169740D01*
G37*
G36*
X42492Y144340D02*
X36540Y150292D01*
X36540Y158708D01*
X42492Y164660D01*
X50908Y164660D01*
X56860Y158708D01*
X56860Y150292D01*
X50908Y144340D01*
X42492Y144340D01*
G37*
G36*
X17092Y144340D02*
X11140Y150292D01*
X11140Y158708D01*
X17092Y164660D01*
X25508Y164660D01*
X31460Y158708D01*
X31460Y150292D01*
X25508Y144340D01*
X17092Y144340D01*
G37*
G36*
X17092Y118940D02*
X11140Y124892D01*
X11140Y133308D01*
X17092Y139260D01*
X25508Y139260D01*
X31460Y133308D01*
X31460Y124892D01*
X25508Y118940D01*
X17092Y118940D01*
G37*
G36*
X42492Y118940D02*
X36540Y124892D01*
X36540Y133308D01*
X42492Y139260D01*
X50908Y139260D01*
X56860Y133308D01*
X56860Y124892D01*
X50908Y118940D01*
X42492Y118940D01*
G37*
G36*
X17092Y93540D02*
X11140Y99492D01*
X11140Y107908D01*
X17092Y113860D01*
X25508Y113860D01*
X31460Y107908D01*
X31460Y99492D01*
X25508Y93540D01*
X17092Y93540D01*
G37*
G36*
X42492Y93540D02*
X36540Y99492D01*
X36540Y107908D01*
X42492Y113860D01*
X50908Y113860D01*
X56860Y107908D01*
X56860Y99492D01*
X50908Y93540D01*
X42492Y93540D01*
G37*
G36*
X129762Y105110D02*
X129762Y111492D01*
X136391Y111492D01*
X136391Y106597D01*
X134903Y105110D01*
X129762Y105110D01*
G37*
G36*
X123097Y105110D02*
X121609Y106597D01*
X121609Y111492D01*
X128238Y111492D01*
X128238Y105110D01*
X123097Y105110D01*
G37*
G36*
X17092Y68140D02*
X11140Y74092D01*
X11140Y82508D01*
X17092Y88460D01*
X25508Y88460D01*
X31460Y82508D01*
X31460Y74092D01*
X25508Y68140D01*
X17092Y68140D01*
G37*
G36*
X42492Y68140D02*
X36540Y74092D01*
X36540Y82508D01*
X42492Y88460D01*
X50908Y88460D01*
X56860Y82508D01*
X56860Y74092D01*
X50908Y68140D01*
X42492Y68140D01*
G37*
G36*
X42492Y42740D02*
X36540Y48692D01*
X36540Y57108D01*
X42492Y63060D01*
X50908Y63060D01*
X56860Y57108D01*
X56860Y48692D01*
X50908Y42740D01*
X42492Y42740D01*
G37*
G36*
X17092Y42740D02*
X11140Y48692D01*
X11140Y57108D01*
X17092Y63060D01*
X25508Y63060D01*
X31460Y57108D01*
X31460Y48692D01*
X25508Y42740D01*
X17092Y42740D01*
G37*
G36*
X42492Y17340D02*
X36540Y23292D01*
X36540Y31708D01*
X42492Y37660D01*
X50908Y37660D01*
X56860Y31708D01*
X56860Y23292D01*
X50908Y17340D01*
X42492Y17340D01*
G37*
G36*
X17092Y17340D02*
X11140Y23292D01*
X11140Y31708D01*
X17092Y37660D01*
X25508Y37660D01*
X31460Y31708D01*
X31460Y23292D01*
X25508Y17340D01*
X17092Y17340D01*
G37*
G36*
X80762Y13460D02*
X80762Y33540D01*
X87238Y33540D01*
X87238Y13460D01*
X80762Y13460D01*
G37*
G36*
X74710Y24262D02*
X74710Y32052D01*
X76198Y33540D01*
X79238Y33540D01*
X79238Y24262D01*
X74710Y24262D01*
G37*
G36*
X76198Y13460D02*
X74710Y14948D01*
X74710Y22738D01*
X79238Y22738D01*
X79238Y13460D01*
X76198Y13460D01*
G37*
%LPD*%
G36*
X165731Y412411D02*
X166148Y412696D01*
X166420Y413122D01*
X166505Y413620D01*
X166389Y414112D01*
X166134Y414478D01*
X163726Y416886D01*
X163304Y417165D01*
X162828Y417258D01*
X55376Y417258D01*
X54881Y417157D01*
X54464Y416872D01*
X54192Y416446D01*
X54107Y415948D01*
X54223Y415456D01*
X54478Y415090D01*
X56886Y412682D01*
X57308Y412403D01*
X57784Y412310D01*
X165236Y412310D01*
X165731Y412411D01*
G37*
D10*
X285500Y383750D02*
X285500Y372250D01*
X290500Y372250D02*
X290500Y383750D01*
X295500Y383750D02*
X295500Y372250D01*
X300500Y372250D02*
X300500Y383750D01*
X305500Y383750D02*
X305500Y372250D01*
X310500Y372250D02*
X310500Y383750D01*
X315500Y383750D02*
X315500Y372250D01*
X320500Y372250D02*
X320500Y383750D01*
X325500Y383750D02*
X325500Y372250D01*
X330500Y372250D02*
X330500Y383750D01*
X335500Y383750D02*
X335500Y372250D01*
X340500Y372250D02*
X340500Y383750D01*
X348250Y364500D02*
X359750Y364500D01*
X359750Y359500D02*
X348250Y359500D01*
X348250Y354500D02*
X359750Y354500D01*
X359750Y349500D02*
X348250Y349500D01*
X348250Y344500D02*
X359750Y344500D01*
X359750Y339500D02*
X348250Y339500D01*
X348250Y334500D02*
X359750Y334500D01*
X359750Y329500D02*
X348250Y329500D01*
X348250Y324500D02*
X359750Y324500D01*
X359750Y319500D02*
X348250Y319500D01*
X348250Y314500D02*
X359750Y314500D01*
X359750Y309500D02*
X348250Y309500D01*
X340500Y301750D02*
X340500Y290250D01*
X335500Y290250D02*
X335500Y301750D01*
X330500Y301750D02*
X330500Y290250D01*
X325500Y290250D02*
X325500Y301750D01*
X320500Y301750D02*
X320500Y290250D01*
X315500Y290250D02*
X315500Y301750D01*
X310500Y301750D02*
X310500Y290250D01*
X305500Y290250D02*
X305500Y301750D01*
X300500Y301750D02*
X300500Y290250D01*
X295500Y290250D02*
X295500Y301750D01*
X290500Y301750D02*
X290500Y290250D01*
X285500Y290250D02*
X285500Y301750D01*
X277750Y309500D02*
X266250Y309500D01*
X266250Y314500D02*
X277750Y314500D01*
X277750Y319500D02*
X266250Y319500D01*
X266250Y324500D02*
X277750Y324500D01*
X277750Y329500D02*
X266250Y329500D01*
X266250Y334500D02*
X277750Y334500D01*
X277750Y339500D02*
X266250Y339500D01*
X266250Y344500D02*
X277750Y344500D01*
X277750Y349500D02*
X266250Y349500D01*
X266250Y354500D02*
X277750Y354500D01*
X277750Y359500D02*
X266250Y359500D01*
X266250Y364500D02*
X277750Y364500D01*
D11*
X356000Y411746D03*
X356000Y396254D03*
D10*
X209500Y151750D02*
X209500Y140250D01*
X204500Y140250D02*
X204500Y151750D01*
X199500Y151750D02*
X199500Y140250D01*
X194500Y140250D02*
X194500Y151750D01*
X189500Y151750D02*
X189500Y140250D01*
X184500Y140250D02*
X184500Y151750D01*
X179500Y151750D02*
X179500Y140250D01*
X174500Y140250D02*
X174500Y151750D01*
X169500Y151750D02*
X169500Y140250D01*
X164500Y140250D02*
X164500Y151750D01*
X159500Y151750D02*
X159500Y140250D01*
X154500Y140250D02*
X154500Y151750D01*
X146750Y159500D02*
X135250Y159500D01*
X135250Y164500D02*
X146750Y164500D01*
X146750Y169500D02*
X135250Y169500D01*
X135250Y174500D02*
X146750Y174500D01*
X146750Y179500D02*
X135250Y179500D01*
X135250Y184500D02*
X146750Y184500D01*
X146750Y189500D02*
X135250Y189500D01*
X135250Y194500D02*
X146750Y194500D01*
X146750Y199500D02*
X135250Y199500D01*
X135250Y204500D02*
X146750Y204500D01*
X146750Y209500D02*
X135250Y209500D01*
X135250Y214500D02*
X146750Y214500D01*
X154500Y222250D02*
X154500Y233750D01*
X159500Y233750D02*
X159500Y222250D01*
X164500Y222250D02*
X164500Y233750D01*
X169500Y233750D02*
X169500Y222250D01*
X174500Y222250D02*
X174500Y233750D01*
X179500Y233750D02*
X179500Y222250D01*
X184500Y222250D02*
X184500Y233750D01*
X189500Y233750D02*
X189500Y222250D01*
X194500Y222250D02*
X194500Y233750D01*
X199500Y233750D02*
X199500Y222250D01*
X204500Y222250D02*
X204500Y233750D01*
X209500Y233750D02*
X209500Y222250D01*
X217250Y214500D02*
X228750Y214500D01*
X228750Y209500D02*
X217250Y209500D01*
X217250Y204500D02*
X228750Y204500D01*
X228750Y199500D02*
X217250Y199500D01*
X217250Y194500D02*
X228750Y194500D01*
X228750Y189500D02*
X217250Y189500D01*
X217250Y184500D02*
X228750Y184500D01*
X228750Y179500D02*
X217250Y179500D01*
X217250Y174500D02*
X228750Y174500D01*
X228750Y169500D02*
X217250Y169500D01*
X217250Y164500D02*
X228750Y164500D01*
X228750Y159500D02*
X217250Y159500D01*
D11*
X129000Y112254D03*
X129000Y127746D03*
D12*
X46700Y27500D03*
X21300Y27500D03*
X46700Y52900D03*
X21300Y52900D03*
X46700Y78300D03*
X21300Y78300D03*
X46700Y103700D03*
X21300Y103700D03*
X46700Y129100D03*
X21300Y129100D03*
X46700Y154500D03*
X21300Y154500D03*
X46700Y179900D03*
X21300Y179900D03*
X46700Y205300D03*
X21300Y205300D03*
X46700Y230700D03*
X21300Y230700D03*
X46700Y256100D03*
X21300Y256100D03*
X46700Y281500D03*
X21300Y281500D03*
X46700Y306900D03*
X21300Y306900D03*
X46700Y332300D03*
X21300Y332300D03*
X46700Y357700D03*
X21300Y357700D03*
X46700Y383100D03*
X21300Y383100D03*
X46700Y408500D03*
X21300Y408500D03*
D13*
X80000Y23500D03*
X80000Y62500D03*
X88000Y23500D03*
X88000Y62500D03*
X96000Y23500D03*
X96000Y62500D03*
X104000Y23500D03*
X104000Y62500D03*
X112000Y23500D03*
X112000Y62500D03*
X120000Y23500D03*
X120000Y62500D03*
X128000Y23500D03*
X128000Y62500D03*
X136000Y23500D03*
X136000Y62500D03*
X144000Y23500D03*
X144000Y62500D03*
D14*
X366000Y208000D03*
X366000Y217000D03*
D15*
X364500Y314500D02*
X354000Y314500D01*
X364500Y314500D02*
X366000Y316000D01*
D14*
X366000Y316000D03*
D15*
X363500Y309500D02*
X354000Y309500D01*
X363500Y309500D02*
X366000Y307000D01*
D14*
X366000Y307000D03*
X175000Y113000D03*
X162000Y128000D03*
X88000Y9000D03*
X80000Y9000D03*
X120000Y9000D03*
X112000Y9000D03*
X119000Y104000D03*
X360000Y100000D03*
X347000Y112000D03*
X356000Y426000D03*
X343000Y412000D03*
X147000Y415000D03*
X121000Y415000D03*
X367000Y8000D03*
X367000Y19000D03*
X356000Y8000D03*
X8000Y8000D03*
X19000Y8000D03*
X8000Y19000D03*
X8000Y426000D03*
X19000Y426000D03*
X8000Y415000D03*
X367000Y426000D03*
X367000Y415000D03*
D16*
X154500Y152500D02*
X154500Y146000D01*
X340500Y371500D02*
X340500Y378000D01*
X340500Y371500D02*
X344608Y367392D01*
D14*
X342000Y334000D03*
X342000Y190000D03*
X153053Y334053D03*
D16*
X150286Y156714D02*
X154500Y152500D01*
X150286Y156714D02*
X150286Y185479D01*
D14*
X152835Y188201D03*
D16*
X152835Y188028D02*
X150286Y185479D01*
X152835Y188028D02*
X152835Y188201D01*
X344608Y336608D02*
X344608Y367392D01*
X344608Y336608D02*
X342000Y334000D01*
X159500Y152500D02*
X159500Y146000D01*
X335500Y371500D02*
X335500Y378000D01*
X341560Y347697D02*
X339000Y345137D01*
X341560Y365440D02*
X335500Y371500D01*
X341560Y365440D02*
X341560Y347697D01*
X339000Y345137D02*
X339000Y342072D01*
D14*
X339000Y342072D03*
X339000Y181928D03*
X156000Y342125D03*
D16*
X156768Y178261D02*
X153334Y174828D01*
X153334Y158666D02*
X159500Y152500D01*
X153334Y158666D02*
X153334Y174828D01*
D14*
X156768Y180719D03*
D16*
X156768Y178261D01*
X164500Y151811D02*
X164500Y146000D01*
X164500Y151811D02*
X157440Y158871D01*
X330500Y372189D02*
X330500Y378000D01*
X337560Y355697D02*
X336000Y354137D01*
X337560Y365129D02*
X330500Y372189D01*
X337560Y365129D02*
X337560Y355697D01*
X336000Y354137D02*
X336000Y350144D01*
D14*
X336000Y350144D03*
X336000Y173856D03*
X159000Y350197D03*
X159067Y172647D03*
D16*
X157440Y171019D01*
X157440Y158871D01*
X325500Y371500D02*
X325500Y378000D01*
D14*
X163791Y357209D03*
X331209Y357209D03*
D16*
X331209Y365791D02*
X325500Y371500D01*
X331209Y365791D02*
X331209Y357209D01*
D14*
X331209Y166791D03*
D16*
X169500Y153972D02*
X164734Y158739D01*
X169500Y153972D02*
X169500Y146000D01*
D14*
X164775Y166939D03*
D16*
X164734Y166897D01*
X164734Y158739D01*
D14*
X170000Y363000D03*
D16*
X320500Y367500D02*
X320500Y378000D01*
X320500Y367500D02*
X325000Y363000D01*
D14*
X325000Y363000D03*
X325000Y161000D03*
D16*
X174500Y156835D02*
X174500Y146000D01*
D14*
X170483Y161231D03*
D16*
X170483Y160853D02*
X174500Y156835D01*
X170483Y160853D02*
X170483Y161231D01*
D14*
X178072Y363000D03*
D16*
X315500Y364500D02*
X315500Y378000D01*
X315500Y364500D02*
X316928Y363072D01*
X316928Y363000D01*
D14*
X316928Y363000D03*
X316928Y160928D03*
D16*
X179500Y159794D02*
X179500Y146000D01*
D14*
X178555Y160928D03*
D16*
X178555Y160739D02*
X179500Y159794D01*
X178555Y160739D02*
X178555Y160928D01*
D14*
X186144Y363072D03*
X308752Y161000D03*
X308856Y363072D03*
D16*
X310500Y364716D02*
X310500Y378000D01*
X310500Y364716D02*
X308856Y363072D01*
D14*
X186627Y161000D03*
D16*
X184500Y158873D02*
X184500Y146000D01*
X184500Y158873D02*
X186627Y161000D01*
D14*
X194216Y363000D03*
X300680Y161000D03*
X300784Y363000D03*
D16*
X305500Y367716D02*
X305500Y378000D01*
X305500Y367716D02*
X300784Y363000D01*
D14*
X194798Y161000D03*
D16*
X189500Y155702D02*
X189500Y146000D01*
X189500Y155702D02*
X194798Y161000D01*
X194500Y152317D02*
X194500Y146000D01*
X194500Y152317D02*
X200880Y158697D01*
D14*
X294608Y166568D03*
D16*
X300500Y371500D02*
X300500Y378000D01*
D14*
X294132Y358000D03*
D16*
X294132Y365132D02*
X300500Y371500D01*
X294132Y365132D02*
X294132Y358000D01*
D14*
X200932Y358000D03*
X200519Y166695D03*
D16*
X200880Y166334D02*
X200880Y158697D01*
X200880Y166334D02*
X200519Y166695D01*
X199500Y151813D02*
X199500Y146000D01*
D14*
X205000Y350144D03*
X290744Y174120D03*
D16*
X295500Y372189D02*
X295500Y378000D01*
X288440Y355697D02*
X290000Y354137D01*
X288440Y365129D02*
X295500Y372189D01*
X288440Y365129D02*
X288440Y355697D01*
D14*
X290000Y350144D03*
D16*
X290000Y354137D01*
D14*
X204383Y174247D03*
D16*
X204383Y171440D01*
X206079Y158392D02*
X199500Y151813D01*
X206079Y158392D02*
X206079Y169744D01*
X204383Y171440D01*
X204500Y152500D02*
X204500Y146000D01*
D14*
X208000Y342072D03*
X287104Y181896D03*
D16*
X290500Y371500D02*
X290500Y378000D01*
X284440Y347697D02*
X287000Y345137D01*
X284440Y365440D02*
X290500Y371500D01*
X284440Y365440D02*
X284440Y347697D01*
D14*
X287000Y342072D03*
D16*
X287000Y345137D01*
D14*
X208023Y182023D03*
D16*
X208023Y179216D01*
X209943Y157943D02*
X204500Y152500D01*
X209943Y157943D02*
X209943Y177296D01*
X208023Y179216D01*
X209500Y152500D02*
X209500Y146000D01*
D14*
X283798Y189968D03*
D16*
X285500Y371500D02*
X285500Y378000D01*
X285500Y371500D02*
X281392Y367392D01*
X281392Y336608D01*
D14*
X284000Y334000D03*
X210868Y334000D03*
D16*
X213583Y156583D02*
X209500Y152500D01*
D14*
X210740Y190095D03*
D16*
X213583Y187252D01*
X213583Y156583D01*
X284000Y334000D02*
X281392Y336608D01*
X231500Y159500D02*
X223000Y159500D01*
X231500Y159500D02*
X236000Y155000D01*
D14*
X236000Y155000D03*
X236000Y369288D03*
D16*
X240788Y364500D02*
X272000Y364500D01*
X240788Y364500D02*
X236000Y369288D01*
D14*
X236000Y163072D03*
D16*
X234572Y164500D02*
X223000Y164500D01*
X234572Y164500D02*
X236000Y163072D01*
D14*
X236000Y361216D03*
D16*
X237716Y359500D02*
X272000Y359500D01*
X237716Y359500D02*
X236000Y361216D01*
D14*
X236000Y171144D03*
D16*
X234356Y169500D02*
X223000Y169500D01*
X234356Y169500D02*
X236000Y171144D01*
D14*
X236068Y353144D03*
D16*
X237424Y354500D02*
X272000Y354500D01*
X237424Y354500D02*
X236068Y353144D01*
D14*
X236000Y179216D03*
D16*
X231284Y174500D02*
X223000Y174500D01*
X231284Y174500D02*
X236000Y179216D01*
D14*
X236068Y345072D03*
D16*
X240496Y349500D02*
X272000Y349500D01*
X240496Y349500D02*
X236068Y345072D01*
X154500Y251461D02*
X154500Y228000D01*
X340500Y289500D02*
X340500Y296000D01*
X340500Y289500D02*
X344456Y285544D01*
D14*
X342186Y252049D03*
D16*
X344456Y254319D01*
X344456Y285544D01*
D17*
X83700Y230700D02*
X46700Y230700D01*
X83700Y230700D02*
X110147Y257147D01*
X148814Y257147D01*
D16*
X154500Y251461D01*
D14*
X148814Y257233D03*
D16*
X148814Y257147D01*
X159500Y257877D02*
X159500Y228000D01*
X335500Y289500D02*
X335500Y296000D01*
X340816Y264577D02*
X338896Y262657D01*
X340816Y284184D02*
X335500Y289500D01*
X340816Y284184D02*
X340816Y264577D01*
D14*
X338896Y260121D03*
D16*
X338896Y262657D01*
D17*
X33600Y243000D02*
X21300Y230700D01*
X33600Y243000D02*
X84000Y243000D01*
D16*
X156680Y260697D02*
X159500Y257877D01*
D14*
X156723Y260740D03*
D17*
X156680Y260697D01*
X104301Y263301D02*
X84000Y243000D01*
X104301Y263301D02*
X154075Y263301D01*
X156680Y260697D01*
D16*
X164500Y264292D02*
X164500Y228000D01*
X330500Y290187D02*
X330500Y296000D01*
X330500Y290187D02*
X336952Y283735D01*
D14*
X335248Y267888D03*
D16*
X336952Y269593D01*
X336952Y283735D01*
D17*
X84100Y256100D02*
X46700Y256100D01*
X84100Y256100D02*
X96464Y268464D01*
D16*
X160328Y268464D02*
X164500Y264292D01*
D17*
X160328Y268464D02*
X96464Y268464D01*
D14*
X160372Y268507D03*
D17*
X160328Y268464D01*
D16*
X169500Y270708D02*
X169500Y228000D01*
X325500Y289683D02*
X325500Y296000D01*
X325500Y289683D02*
X331880Y283303D01*
D14*
X331384Y275440D03*
D16*
X331880Y275937D02*
X331880Y283303D01*
X331880Y275937D02*
X331384Y275440D01*
D17*
X34200Y269000D02*
X21300Y256100D01*
X34200Y269000D02*
X85000Y269000D01*
X92012Y276012D01*
D16*
X164196Y276012D02*
X169500Y270708D01*
D17*
X164196Y276012D02*
X92012Y276012D01*
D14*
X164239Y276055D03*
D16*
X164196Y276012D01*
D14*
X325320Y281000D03*
D16*
X320500Y285820D02*
X320500Y296000D01*
X320500Y285820D02*
X325320Y281000D01*
X174500Y275500D02*
X174500Y228000D01*
X174500Y275500D02*
X170152Y279848D01*
X170152Y281472D01*
D17*
X160500Y281500D02*
X46700Y281500D01*
X160500Y281500D02*
X162000Y283000D01*
X168624Y283000D01*
X170152Y281472D01*
D14*
X170195Y281515D03*
D17*
X170152Y281472D01*
D14*
X317248Y281000D03*
D16*
X315500Y282748D02*
X315500Y296000D01*
X315500Y282748D02*
X317248Y281000D01*
D17*
X33416Y293616D02*
X21300Y281500D01*
D16*
X179500Y279724D02*
X179500Y228000D01*
X179500Y279724D02*
X178224Y281000D01*
D14*
X178267Y281000D03*
D17*
X178224Y281000D01*
X166676Y293616D02*
X33416Y293616D01*
X166676Y293616D02*
X178224Y282068D01*
X178224Y281000D01*
D14*
X309072Y281072D03*
D17*
X60353Y306900D02*
X46700Y306900D01*
X60353Y306900D02*
X68573Y298680D01*
X169320Y298680D01*
D16*
X184500Y279276D02*
X184500Y228000D01*
X184500Y279276D02*
X186296Y281072D01*
D17*
X186296Y281704D02*
X169320Y298680D01*
X186296Y281704D02*
X186296Y281072D01*
D14*
X186339Y281072D03*
D17*
X186296Y281072D01*
D16*
X310500Y282500D02*
X310500Y296000D01*
X310500Y282500D02*
X309072Y281072D01*
X305500Y285500D02*
X305500Y296000D01*
X305500Y285500D02*
X301000Y281000D01*
D14*
X301000Y281000D03*
D17*
X33400Y319000D02*
X21300Y306900D01*
X33400Y319000D02*
X62000Y319000D01*
X77256Y303744D01*
X172256Y303744D01*
X194087Y281913D01*
X194087Y281000D01*
D16*
X189500Y276370D02*
X189500Y228000D01*
X189500Y276370D02*
X191899Y278769D01*
X191899Y278812D01*
X194087Y281000D01*
D14*
X194411Y281000D03*
D16*
X194087Y281000D01*
D14*
X201000Y276000D03*
D16*
X194500Y269500D02*
X194500Y228000D01*
X194500Y269500D02*
X201000Y276000D01*
X300500Y289500D02*
X300500Y296000D01*
X300500Y289500D02*
X294000Y283000D01*
X294000Y276000D01*
D14*
X294000Y276000D03*
D17*
X201000Y276000D02*
X201000Y283000D01*
X60953Y332300D02*
X46700Y332300D01*
X60953Y332300D02*
X84445Y308808D01*
X175192Y308808D01*
X201000Y283000D01*
D14*
X205000Y268144D03*
D16*
X199500Y262644D02*
X199500Y228000D01*
X199500Y262644D02*
X205000Y268144D01*
X295500Y290189D02*
X295500Y296000D01*
X288440Y273697D02*
X290000Y272137D01*
X288440Y283129D02*
X295500Y290189D01*
X288440Y283129D02*
X288440Y273697D01*
D14*
X290000Y268144D03*
D16*
X290000Y272137D01*
D17*
X34000Y345000D02*
X21300Y332300D01*
X34000Y345000D02*
X61000Y345000D01*
X208000Y282000D02*
X208000Y271144D01*
X205000Y268144D01*
X92128Y313872D02*
X61000Y345000D01*
X92128Y313872D02*
X176128Y313872D01*
X208000Y282000D01*
D14*
X208000Y260072D03*
D16*
X204500Y256572D02*
X204500Y228000D01*
X204500Y256572D02*
X208000Y260072D01*
X290500Y289500D02*
X290500Y296000D01*
X284440Y265697D02*
X287000Y263137D01*
X284440Y283440D02*
X290500Y289500D01*
X284440Y283440D02*
X284440Y265697D01*
D14*
X287000Y260072D03*
D16*
X287000Y263137D01*
D17*
X213000Y265072D02*
X213000Y283000D01*
X213000Y265072D02*
X208000Y260072D01*
X60553Y357700D02*
X46700Y357700D01*
X60553Y357700D02*
X99317Y318936D01*
X177064Y318936D01*
X213000Y283000D01*
D14*
X211000Y252000D03*
D16*
X209500Y250500D02*
X209500Y228000D01*
X209500Y250500D02*
X211000Y252000D01*
X285500Y289500D02*
X285500Y296000D01*
X285500Y289500D02*
X281392Y285392D01*
D14*
X284000Y252000D03*
D17*
X33600Y370000D02*
X21300Y357700D01*
X33600Y370000D02*
X61000Y370000D01*
X218000Y284000D02*
X218000Y259000D01*
X211000Y252000D01*
X107000Y324000D02*
X61000Y370000D01*
X107000Y324000D02*
X178000Y324000D01*
X218000Y284000D01*
D16*
X281392Y285392D02*
X281392Y254608D01*
X284000Y252000D01*
D14*
X236000Y304712D03*
X236000Y219040D03*
D16*
X231460Y214500D02*
X223000Y214500D01*
X231460Y214500D02*
X236000Y219040D01*
D17*
X184414Y383100D02*
X46700Y383100D01*
X184414Y383100D02*
X216936Y350578D01*
X216936Y322064D01*
D16*
X240788Y309500D02*
X272000Y309500D01*
X240788Y309500D02*
X236000Y304712D01*
D17*
X234288Y304712D02*
X216936Y322064D01*
X234288Y304712D02*
X236000Y304712D01*
D14*
X236000Y312784D03*
X236000Y210968D03*
D16*
X234532Y209500D02*
X223000Y209500D01*
X234532Y209500D02*
X236000Y210968D01*
D17*
X34200Y396000D02*
X21300Y383100D01*
X34200Y396000D02*
X178000Y396000D01*
X221000Y353000D01*
X221000Y327000D01*
D16*
X237716Y314500D02*
X272000Y314500D01*
X237716Y314500D02*
X236000Y312784D01*
D17*
X235216Y312784D02*
X221000Y327000D01*
X235216Y312784D02*
X236000Y312784D01*
D16*
X234356Y204500D02*
X223000Y204500D01*
D14*
X236000Y320856D03*
X236000Y202896D03*
D16*
X235960Y202896D02*
X234356Y204500D01*
X235960Y202896D02*
X236000Y202896D01*
D17*
X171500Y408500D02*
X46700Y408500D01*
X171500Y408500D02*
X225936Y354064D01*
X225936Y330064D01*
D16*
X237356Y319500D02*
X272000Y319500D01*
X237356Y319500D02*
X236000Y320856D01*
D17*
X235144Y320856D02*
X225936Y330064D01*
X235144Y320856D02*
X236000Y320856D01*
D16*
X231284Y199500D02*
X223000Y199500D01*
D14*
X236000Y328928D03*
X235960Y194824D03*
D16*
X231284Y199500D01*
D17*
X230000Y334928D02*
X230000Y356000D01*
D16*
X240428Y324500D02*
X272000Y324500D01*
X240428Y324500D02*
X236000Y328928D01*
D17*
X230000Y334928D01*
X33868Y421068D02*
X21300Y408500D01*
X33868Y421068D02*
X164932Y421068D01*
X230000Y356000D01*
D16*
X354000Y334500D02*
X362500Y334500D01*
X366000Y331000D01*
D14*
X366000Y331000D03*
X366000Y193000D03*
X129000Y331000D03*
X129132Y194000D03*
D16*
X133632Y189500D02*
X141000Y189500D01*
X133632Y189500D02*
X129132Y194000D01*
D14*
X96072Y38000D03*
D17*
X96000Y37928D02*
X96000Y23500D01*
X96000Y37928D02*
X96072Y38000D01*
X223000Y184500D02*
X231500Y184500D01*
X233000Y186000D01*
X237798Y186000D01*
X242068Y181730D01*
X242068Y152068D01*
X237000Y147000D01*
D18*
X233000Y147000D01*
X180000Y94000D01*
X167000Y81000D01*
X145000Y81000D01*
X136000Y72000D01*
D14*
X180000Y94000D03*
D18*
X136000Y72000D02*
X136000Y62500D01*
D14*
X227000Y301000D03*
D18*
X247412Y280588D01*
X247412Y149412D01*
X192000Y94000D01*
X173000Y75000D01*
X149000Y75000D01*
X144000Y70000D01*
D14*
X192000Y94000D03*
D18*
X144000Y70000D02*
X144000Y62500D01*
D14*
X260000Y183000D03*
D18*
X260000Y55000D01*
X216000Y11000D01*
X139000Y11000D01*
X136000Y14000D01*
D14*
X216000Y11000D03*
D18*
X136000Y14000D02*
X136000Y23500D01*
D17*
X259500Y339500D02*
X272000Y339500D01*
X259500Y339500D02*
X259000Y339000D01*
D14*
X259000Y339000D03*
X267000Y301000D03*
D18*
X253000Y287000D01*
X253000Y65000D01*
X216000Y28000D01*
D14*
X216000Y28000D03*
D18*
X211500Y23500D01*
X144000Y23500D01*
D16*
X361500Y344500D02*
X366000Y349000D01*
D14*
X366000Y349000D03*
D16*
X361500Y344500D02*
X354000Y344500D01*
D14*
X104144Y38000D03*
D17*
X104000Y37856D02*
X104000Y23500D01*
X104000Y37856D02*
X104144Y38000D01*
D14*
X366000Y175000D03*
X112216Y38000D03*
D17*
X112000Y37784D02*
X112000Y23500D01*
X112000Y37784D02*
X112216Y38000D01*
D14*
X129000Y349000D03*
X104144Y77000D03*
D17*
X104000Y76856D02*
X104000Y62500D01*
X104000Y76856D02*
X104144Y77000D01*
D14*
X88000Y49000D03*
X80000Y49000D03*
X148000Y89000D03*
X140000Y89000D03*
X129000Y358000D03*
X129000Y367000D03*
X366000Y166000D03*
X366000Y157000D03*
D15*
X365500Y359500D02*
X354000Y359500D01*
X365500Y359500D02*
X366000Y359000D01*
D14*
X366000Y359000D03*
D15*
X362500Y364500D02*
X354000Y364500D01*
X362500Y364500D02*
X366000Y368000D01*
D14*
X366000Y368000D03*
D15*
X141000Y164500D02*
X131500Y164500D01*
X129000Y167000D01*
D14*
X129000Y167000D03*
D15*
X130500Y159500D02*
X141000Y159500D01*
X130500Y159500D02*
X129000Y158000D01*
D14*
X129000Y158000D03*
D19*
X356000Y386000D02*
X356000Y396254D01*
X356000Y386000D02*
X366000Y376000D01*
X366000Y368000D01*
X129000Y158000D02*
X129000Y127746D01*
D17*
X88000Y62500D02*
X88000Y49000D01*
X80000Y49000D02*
X80000Y62500D01*
D19*
X80000Y49000D02*
X88000Y49000D01*
X140000Y89000D02*
X148000Y89000D01*
X129000Y158000D02*
X129000Y167000D01*
X129000Y358000D02*
X129000Y367000D01*
X366000Y368000D02*
X366000Y359000D01*
X366000Y166000D02*
X366000Y157000D01*
D16*
X365500Y339500D02*
X354000Y339500D01*
X365500Y339500D02*
X366000Y340000D01*
D14*
X366000Y340000D03*
X366000Y184000D03*
X129000Y340000D03*
X129132Y185000D03*
D16*
X129632Y184500D02*
X141000Y184500D01*
X129632Y184500D02*
X129132Y185000D01*
D14*
X96072Y77000D03*
X156000Y94000D03*
D17*
X96072Y78072D02*
X96072Y77000D01*
X115068Y97068D02*
X152932Y97068D01*
X115068Y97068D02*
X96072Y78072D01*
X152932Y97068D02*
X156000Y94000D01*
X96000Y76928D02*
X96000Y62500D01*
X96000Y76928D02*
X96072Y77000D01*
D14*
X188072Y50000D03*
D17*
X134810Y48190D02*
X128000Y55000D01*
X134810Y48190D02*
X166190Y48190D01*
X175000Y57000D01*
X182000Y57000D01*
X188072Y50928D01*
X188072Y50000D01*
X128000Y55000D02*
X128000Y62500D01*
D14*
X188000Y36000D03*
D17*
X182000Y29000D02*
X172000Y29000D01*
X182000Y29000D02*
X188000Y35000D01*
X188000Y36000D01*
X134093Y35794D02*
X128000Y29701D01*
X134093Y35794D02*
X165206Y35794D01*
X172000Y29000D01*
X128000Y29701D02*
X128000Y23500D01*
D14*
X179928Y36000D03*
D17*
X130157Y39858D02*
X120000Y29701D01*
X130157Y39858D02*
X176070Y39858D01*
X179928Y36000D01*
X120000Y29701D02*
X120000Y23500D01*
D14*
X180000Y50000D03*
D17*
X130000Y44000D02*
X120000Y54000D01*
X130000Y44000D02*
X174000Y44000D01*
X180000Y50000D01*
X120000Y54000D02*
X120000Y62500D01*
D14*
X129132Y176000D03*
D16*
X132632Y179500D02*
X141000Y179500D01*
X132632Y179500D02*
X129132Y176000D01*
D14*
X112216Y77000D03*
D17*
X112000Y76784D02*
X112000Y62500D01*
X112000Y76784D02*
X112216Y77000D01*
M02*
