G04 EAGLE Gerber RS-274X export*
G75*
%MOMM*%
%FSLAX34Y34*%
%LPD*%
%INCopper Layer 2*%
%IPPOS*%
%AMOC8*
5,1,8,0,0,1.08239X$1,22.5*%
G01*
G04 Define Apertures*
%ADD10C,1.524000*%
%ADD11C,0.654800*%
%ADD12C,0.152400*%
%ADD13C,0.254000*%
%ADD14C,0.508000*%
G36*
X371685Y2641D02*
X372102Y2926D01*
X372375Y3352D01*
X372460Y3810D01*
X372460Y152172D01*
X372359Y152667D01*
X372074Y153084D01*
X371648Y153356D01*
X371150Y153441D01*
X370658Y153325D01*
X370292Y153070D01*
X369293Y152071D01*
X367755Y151434D01*
X367343Y151159D01*
X230878Y14693D01*
X229010Y13920D01*
X222984Y13920D01*
X222489Y13819D01*
X222072Y13534D01*
X221800Y13108D01*
X221715Y12610D01*
X221811Y12164D01*
X221814Y12156D01*
X221814Y9843D01*
X220929Y7707D01*
X219293Y6071D01*
X217157Y5186D01*
X214843Y5186D01*
X212707Y6071D01*
X211071Y7707D01*
X210186Y9843D01*
X210186Y12156D01*
X210189Y12164D01*
X210286Y12660D01*
X210181Y13155D01*
X209892Y13569D01*
X209464Y13838D01*
X209016Y13920D01*
X99990Y13920D01*
X98122Y14693D01*
X79693Y33122D01*
X78920Y34990D01*
X78920Y42306D01*
X78819Y42801D01*
X78534Y43218D01*
X78136Y43479D01*
X76707Y44071D01*
X75071Y45707D01*
X74186Y47843D01*
X74186Y48754D01*
X74085Y49250D01*
X73800Y49667D01*
X73374Y49939D01*
X72876Y50024D01*
X72430Y49928D01*
X71301Y49460D01*
X68699Y49460D01*
X66295Y50456D01*
X64456Y52295D01*
X63460Y54699D01*
X63460Y57301D01*
X64456Y59705D01*
X66295Y61544D01*
X68699Y62540D01*
X71301Y62540D01*
X73705Y61544D01*
X75544Y59705D01*
X76477Y57454D01*
X76759Y57035D01*
X77183Y56759D01*
X77680Y56670D01*
X78173Y56783D01*
X78583Y57078D01*
X78845Y57510D01*
X78920Y57940D01*
X78920Y325010D01*
X79693Y326878D01*
X120122Y367307D01*
X121990Y368080D01*
X122306Y368080D01*
X122801Y368181D01*
X123218Y368466D01*
X123479Y368864D01*
X124071Y370293D01*
X125707Y371929D01*
X127843Y372814D01*
X130157Y372814D01*
X132293Y371929D01*
X133929Y370293D01*
X134814Y368157D01*
X134814Y365843D01*
X134177Y364305D01*
X134080Y363819D01*
X134080Y361181D01*
X134177Y360695D01*
X134814Y359157D01*
X134814Y356843D01*
X133929Y354707D01*
X133620Y354398D01*
X133341Y353977D01*
X133248Y353480D01*
X133357Y352986D01*
X133620Y352602D01*
X134019Y352203D01*
X134440Y351924D01*
X134937Y351831D01*
X135431Y351940D01*
X135815Y352203D01*
X168422Y384810D01*
X326578Y384810D01*
X359185Y352203D01*
X359606Y351924D01*
X360103Y351831D01*
X360597Y351940D01*
X360981Y352203D01*
X361880Y353102D01*
X362159Y353523D01*
X362252Y354020D01*
X362143Y354514D01*
X361880Y354898D01*
X361071Y355707D01*
X360186Y357843D01*
X360186Y360157D01*
X360823Y361695D01*
X360920Y362181D01*
X360920Y364819D01*
X360823Y365305D01*
X360186Y366843D01*
X360186Y369157D01*
X361071Y371293D01*
X362707Y372929D01*
X364843Y373814D01*
X367157Y373814D01*
X369293Y372929D01*
X370292Y371930D01*
X370713Y371651D01*
X371210Y371558D01*
X371704Y371667D01*
X372116Y371959D01*
X372382Y372389D01*
X372460Y372828D01*
X372460Y430190D01*
X372359Y430685D01*
X372074Y431102D01*
X371648Y431375D01*
X371190Y431460D01*
X3810Y431460D01*
X3315Y431359D01*
X2898Y431074D01*
X2625Y430648D01*
X2540Y430190D01*
X2540Y3810D01*
X2641Y3315D01*
X2926Y2898D01*
X3352Y2625D01*
X3810Y2540D01*
X371190Y2540D01*
X371685Y2641D01*
G37*
%LPC*%
G36*
X44679Y398340D02*
X40945Y399887D01*
X38087Y402745D01*
X36540Y406479D01*
X36540Y410521D01*
X38087Y414255D01*
X40945Y417113D01*
X44679Y418660D01*
X48721Y418660D01*
X52455Y417113D01*
X55313Y414255D01*
X56860Y410521D01*
X56860Y406479D01*
X55313Y402745D01*
X52455Y399887D01*
X48721Y398340D01*
X44679Y398340D01*
G37*
G36*
X19279Y398340D02*
X15545Y399887D01*
X12687Y402745D01*
X11140Y406479D01*
X11140Y410521D01*
X12687Y414255D01*
X15545Y417113D01*
X19279Y418660D01*
X23321Y418660D01*
X27055Y417113D01*
X29913Y414255D01*
X31460Y410521D01*
X31460Y406479D01*
X29913Y402745D01*
X27055Y399887D01*
X23321Y398340D01*
X19279Y398340D01*
G37*
G36*
X44679Y372940D02*
X40945Y374487D01*
X38087Y377345D01*
X36540Y381079D01*
X36540Y385121D01*
X38087Y388855D01*
X40945Y391713D01*
X44679Y393260D01*
X48721Y393260D01*
X52455Y391713D01*
X55313Y388855D01*
X56860Y385121D01*
X56860Y381079D01*
X55313Y377345D01*
X52455Y374487D01*
X48721Y372940D01*
X44679Y372940D01*
G37*
G36*
X19279Y372940D02*
X15545Y374487D01*
X12687Y377345D01*
X11140Y381079D01*
X11140Y385121D01*
X12687Y388855D01*
X15545Y391713D01*
X19279Y393260D01*
X23321Y393260D01*
X27055Y391713D01*
X29913Y388855D01*
X31460Y385121D01*
X31460Y381079D01*
X29913Y377345D01*
X27055Y374487D01*
X23321Y372940D01*
X19279Y372940D01*
G37*
G36*
X44679Y347540D02*
X40945Y349087D01*
X38087Y351945D01*
X36540Y355679D01*
X36540Y359721D01*
X38087Y363455D01*
X40945Y366313D01*
X44679Y367860D01*
X48721Y367860D01*
X52455Y366313D01*
X55313Y363455D01*
X56860Y359721D01*
X56860Y355679D01*
X55313Y351945D01*
X52455Y349087D01*
X48721Y347540D01*
X44679Y347540D01*
G37*
G36*
X19279Y347540D02*
X15545Y349087D01*
X12687Y351945D01*
X11140Y355679D01*
X11140Y359721D01*
X12687Y363455D01*
X15545Y366313D01*
X19279Y367860D01*
X23321Y367860D01*
X27055Y366313D01*
X29913Y363455D01*
X31460Y359721D01*
X31460Y355679D01*
X29913Y351945D01*
X27055Y349087D01*
X23321Y347540D01*
X19279Y347540D01*
G37*
G36*
X44679Y322140D02*
X40945Y323687D01*
X38087Y326545D01*
X36540Y330279D01*
X36540Y334321D01*
X38087Y338055D01*
X40945Y340913D01*
X44679Y342460D01*
X48721Y342460D01*
X52455Y340913D01*
X55313Y338055D01*
X56860Y334321D01*
X56860Y330279D01*
X55313Y326545D01*
X52455Y323687D01*
X48721Y322140D01*
X44679Y322140D01*
G37*
G36*
X19279Y322140D02*
X15545Y323687D01*
X12687Y326545D01*
X11140Y330279D01*
X11140Y334321D01*
X12687Y338055D01*
X15545Y340913D01*
X19279Y342460D01*
X23321Y342460D01*
X27055Y340913D01*
X29913Y338055D01*
X31460Y334321D01*
X31460Y330279D01*
X29913Y326545D01*
X27055Y323687D01*
X23321Y322140D01*
X19279Y322140D01*
G37*
G36*
X44679Y296740D02*
X40945Y298287D01*
X38087Y301145D01*
X36540Y304879D01*
X36540Y308921D01*
X38087Y312655D01*
X40945Y315513D01*
X44679Y317060D01*
X48721Y317060D01*
X52455Y315513D01*
X55313Y312655D01*
X56860Y308921D01*
X56860Y304879D01*
X55313Y301145D01*
X52455Y298287D01*
X48721Y296740D01*
X44679Y296740D01*
G37*
G36*
X19279Y296740D02*
X15545Y298287D01*
X12687Y301145D01*
X11140Y304879D01*
X11140Y308921D01*
X12687Y312655D01*
X15545Y315513D01*
X19279Y317060D01*
X23321Y317060D01*
X27055Y315513D01*
X29913Y312655D01*
X31460Y308921D01*
X31460Y304879D01*
X29913Y301145D01*
X27055Y298287D01*
X23321Y296740D01*
X19279Y296740D01*
G37*
G36*
X44679Y271340D02*
X40945Y272887D01*
X38087Y275745D01*
X36540Y279479D01*
X36540Y283521D01*
X38087Y287255D01*
X40945Y290113D01*
X44679Y291660D01*
X48721Y291660D01*
X52455Y290113D01*
X55313Y287255D01*
X56860Y283521D01*
X56860Y279479D01*
X55313Y275745D01*
X52455Y272887D01*
X48721Y271340D01*
X44679Y271340D01*
G37*
G36*
X19279Y271340D02*
X15545Y272887D01*
X12687Y275745D01*
X11140Y279479D01*
X11140Y283521D01*
X12687Y287255D01*
X15545Y290113D01*
X19279Y291660D01*
X23321Y291660D01*
X27055Y290113D01*
X29913Y287255D01*
X31460Y283521D01*
X31460Y279479D01*
X29913Y275745D01*
X27055Y272887D01*
X23321Y271340D01*
X19279Y271340D01*
G37*
G36*
X44679Y245940D02*
X40945Y247487D01*
X38087Y250345D01*
X36540Y254079D01*
X36540Y258121D01*
X38087Y261855D01*
X40945Y264713D01*
X44679Y266260D01*
X48721Y266260D01*
X52455Y264713D01*
X55313Y261855D01*
X56860Y258121D01*
X56860Y254079D01*
X55313Y250345D01*
X52455Y247487D01*
X48721Y245940D01*
X44679Y245940D01*
G37*
G36*
X19279Y245940D02*
X15545Y247487D01*
X12687Y250345D01*
X11140Y254079D01*
X11140Y258121D01*
X12687Y261855D01*
X15545Y264713D01*
X19279Y266260D01*
X23321Y266260D01*
X27055Y264713D01*
X29913Y261855D01*
X31460Y258121D01*
X31460Y254079D01*
X29913Y250345D01*
X27055Y247487D01*
X23321Y245940D01*
X19279Y245940D01*
G37*
G36*
X44679Y220540D02*
X40945Y222087D01*
X38087Y224945D01*
X36540Y228679D01*
X36540Y232721D01*
X38087Y236455D01*
X40945Y239313D01*
X44679Y240860D01*
X48721Y240860D01*
X52455Y239313D01*
X55313Y236455D01*
X56860Y232721D01*
X56860Y228679D01*
X55313Y224945D01*
X52455Y222087D01*
X48721Y220540D01*
X44679Y220540D01*
G37*
G36*
X19279Y220540D02*
X15545Y222087D01*
X12687Y224945D01*
X11140Y228679D01*
X11140Y232721D01*
X12687Y236455D01*
X15545Y239313D01*
X19279Y240860D01*
X23321Y240860D01*
X27055Y239313D01*
X29913Y236455D01*
X31460Y232721D01*
X31460Y228679D01*
X29913Y224945D01*
X27055Y222087D01*
X23321Y220540D01*
X19279Y220540D01*
G37*
G36*
X44679Y195140D02*
X40945Y196687D01*
X38087Y199545D01*
X36540Y203279D01*
X36540Y207321D01*
X38087Y211055D01*
X40945Y213913D01*
X44679Y215460D01*
X48721Y215460D01*
X52455Y213913D01*
X55313Y211055D01*
X56860Y207321D01*
X56860Y203279D01*
X55313Y199545D01*
X52455Y196687D01*
X48721Y195140D01*
X44679Y195140D01*
G37*
G36*
X19279Y195140D02*
X15545Y196687D01*
X12687Y199545D01*
X11140Y203279D01*
X11140Y207321D01*
X12687Y211055D01*
X15545Y213913D01*
X19279Y215460D01*
X23321Y215460D01*
X27055Y213913D01*
X29913Y211055D01*
X31460Y207321D01*
X31460Y203279D01*
X29913Y199545D01*
X27055Y196687D01*
X23321Y195140D01*
X19279Y195140D01*
G37*
G36*
X44679Y169740D02*
X40945Y171287D01*
X38087Y174145D01*
X36540Y177879D01*
X36540Y181921D01*
X38087Y185655D01*
X40945Y188513D01*
X44679Y190060D01*
X48721Y190060D01*
X52455Y188513D01*
X55313Y185655D01*
X56860Y181921D01*
X56860Y177879D01*
X55313Y174145D01*
X52455Y171287D01*
X48721Y169740D01*
X44679Y169740D01*
G37*
G36*
X19279Y169740D02*
X15545Y171287D01*
X12687Y174145D01*
X11140Y177879D01*
X11140Y181921D01*
X12687Y185655D01*
X15545Y188513D01*
X19279Y190060D01*
X23321Y190060D01*
X27055Y188513D01*
X29913Y185655D01*
X31460Y181921D01*
X31460Y177879D01*
X29913Y174145D01*
X27055Y171287D01*
X23321Y169740D01*
X19279Y169740D01*
G37*
G36*
X44679Y144340D02*
X40945Y145887D01*
X38087Y148745D01*
X36540Y152479D01*
X36540Y156521D01*
X38087Y160255D01*
X40945Y163113D01*
X44679Y164660D01*
X48721Y164660D01*
X52455Y163113D01*
X55313Y160255D01*
X56860Y156521D01*
X56860Y152479D01*
X55313Y148745D01*
X52455Y145887D01*
X48721Y144340D01*
X44679Y144340D01*
G37*
G36*
X19279Y144340D02*
X15545Y145887D01*
X12687Y148745D01*
X11140Y152479D01*
X11140Y156521D01*
X12687Y160255D01*
X15545Y163113D01*
X19279Y164660D01*
X23321Y164660D01*
X27055Y163113D01*
X29913Y160255D01*
X31460Y156521D01*
X31460Y152479D01*
X29913Y148745D01*
X27055Y145887D01*
X23321Y144340D01*
X19279Y144340D01*
G37*
G36*
X44679Y118940D02*
X40945Y120487D01*
X38087Y123345D01*
X36540Y127079D01*
X36540Y131121D01*
X38087Y134855D01*
X40945Y137713D01*
X44679Y139260D01*
X48721Y139260D01*
X52455Y137713D01*
X55313Y134855D01*
X56860Y131121D01*
X56860Y127079D01*
X55313Y123345D01*
X52455Y120487D01*
X48721Y118940D01*
X44679Y118940D01*
G37*
G36*
X19279Y118940D02*
X15545Y120487D01*
X12687Y123345D01*
X11140Y127079D01*
X11140Y131121D01*
X12687Y134855D01*
X15545Y137713D01*
X19279Y139260D01*
X23321Y139260D01*
X27055Y137713D01*
X29913Y134855D01*
X31460Y131121D01*
X31460Y127079D01*
X29913Y123345D01*
X27055Y120487D01*
X23321Y118940D01*
X19279Y118940D01*
G37*
G36*
X44679Y93540D02*
X40945Y95087D01*
X38087Y97945D01*
X36540Y101679D01*
X36540Y105721D01*
X38087Y109455D01*
X40945Y112313D01*
X44679Y113860D01*
X48721Y113860D01*
X52455Y112313D01*
X55313Y109455D01*
X56860Y105721D01*
X56860Y101679D01*
X55313Y97945D01*
X52455Y95087D01*
X48721Y93540D01*
X44679Y93540D01*
G37*
G36*
X19279Y93540D02*
X15545Y95087D01*
X12687Y97945D01*
X11140Y101679D01*
X11140Y105721D01*
X12687Y109455D01*
X15545Y112313D01*
X19279Y113860D01*
X23321Y113860D01*
X27055Y112313D01*
X29913Y109455D01*
X31460Y105721D01*
X31460Y101679D01*
X29913Y97945D01*
X27055Y95087D01*
X23321Y93540D01*
X19279Y93540D01*
G37*
G36*
X44679Y68140D02*
X40945Y69687D01*
X38087Y72545D01*
X36540Y76279D01*
X36540Y80321D01*
X38087Y84055D01*
X40945Y86913D01*
X44679Y88460D01*
X48721Y88460D01*
X52455Y86913D01*
X55313Y84055D01*
X56860Y80321D01*
X56860Y76279D01*
X55313Y72545D01*
X52455Y69687D01*
X48721Y68140D01*
X44679Y68140D01*
G37*
G36*
X19279Y68140D02*
X15545Y69687D01*
X12687Y72545D01*
X11140Y76279D01*
X11140Y80321D01*
X12687Y84055D01*
X15545Y86913D01*
X19279Y88460D01*
X23321Y88460D01*
X27055Y86913D01*
X29913Y84055D01*
X31460Y80321D01*
X31460Y76279D01*
X29913Y72545D01*
X27055Y69687D01*
X23321Y68140D01*
X19279Y68140D01*
G37*
G36*
X44679Y42740D02*
X40945Y44287D01*
X38087Y47145D01*
X36540Y50879D01*
X36540Y54921D01*
X38087Y58655D01*
X40945Y61513D01*
X44679Y63060D01*
X48721Y63060D01*
X52455Y61513D01*
X55313Y58655D01*
X56860Y54921D01*
X56860Y50879D01*
X55313Y47145D01*
X52455Y44287D01*
X48721Y42740D01*
X44679Y42740D01*
G37*
G36*
X19279Y42740D02*
X15545Y44287D01*
X12687Y47145D01*
X11140Y50879D01*
X11140Y54921D01*
X12687Y58655D01*
X15545Y61513D01*
X19279Y63060D01*
X23321Y63060D01*
X27055Y61513D01*
X29913Y58655D01*
X31460Y54921D01*
X31460Y50879D01*
X29913Y47145D01*
X27055Y44287D01*
X23321Y42740D01*
X19279Y42740D01*
G37*
G36*
X44679Y17340D02*
X40945Y18887D01*
X38087Y21745D01*
X36540Y25479D01*
X36540Y29521D01*
X38087Y33255D01*
X40945Y36113D01*
X44679Y37660D01*
X48721Y37660D01*
X52455Y36113D01*
X55313Y33255D01*
X56860Y29521D01*
X56860Y25479D01*
X55313Y21745D01*
X52455Y18887D01*
X48721Y17340D01*
X44679Y17340D01*
G37*
G36*
X19279Y17340D02*
X15545Y18887D01*
X12687Y21745D01*
X11140Y25479D01*
X11140Y29521D01*
X12687Y33255D01*
X15545Y36113D01*
X19279Y37660D01*
X23321Y37660D01*
X27055Y36113D01*
X29913Y33255D01*
X31460Y29521D01*
X31460Y25479D01*
X29913Y21745D01*
X27055Y18887D01*
X23321Y17340D01*
X19279Y17340D01*
G37*
%LPD*%
G36*
X346448Y178942D02*
X346805Y179193D01*
X359814Y192202D01*
X360093Y192624D01*
X360186Y193100D01*
X360186Y194157D01*
X361071Y196293D01*
X362707Y197929D01*
X364843Y198814D01*
X367157Y198814D01*
X369293Y197929D01*
X370292Y196930D01*
X370713Y196651D01*
X371210Y196558D01*
X371704Y196667D01*
X372116Y196959D01*
X372382Y197389D01*
X372460Y197828D01*
X372460Y326172D01*
X372359Y326667D01*
X372074Y327084D01*
X371648Y327356D01*
X371150Y327441D01*
X370658Y327325D01*
X370292Y327070D01*
X369293Y326071D01*
X367157Y325186D01*
X364843Y325186D01*
X362707Y326071D01*
X361071Y327707D01*
X360186Y329843D01*
X360186Y330900D01*
X360085Y331395D01*
X359814Y331798D01*
X346805Y344807D01*
X346383Y345086D01*
X345887Y345179D01*
X345393Y345070D01*
X344981Y344778D01*
X344715Y344348D01*
X344638Y343848D01*
X344733Y343423D01*
X344814Y343228D01*
X344814Y340916D01*
X344668Y340563D01*
X344571Y340067D01*
X344676Y339572D01*
X344965Y339157D01*
X345251Y338971D01*
X346929Y337293D01*
X347814Y335157D01*
X347814Y332843D01*
X346929Y330707D01*
X345674Y329452D01*
X345395Y329030D01*
X345302Y328554D01*
X345302Y302894D01*
X345403Y302398D01*
X345674Y301996D01*
X366302Y281368D01*
X366302Y239632D01*
X345674Y219004D01*
X345395Y218583D01*
X345302Y218106D01*
X345302Y195446D01*
X345403Y194951D01*
X345674Y194548D01*
X346929Y193293D01*
X347814Y191157D01*
X347814Y188843D01*
X346929Y186707D01*
X345244Y185022D01*
X344936Y184814D01*
X344660Y184391D01*
X344572Y183893D01*
X344668Y183437D01*
X344814Y183084D01*
X344814Y180772D01*
X344733Y180577D01*
X344637Y180081D01*
X344741Y179586D01*
X345030Y179172D01*
X345458Y178903D01*
X345957Y178822D01*
X346448Y178942D01*
G37*
G36*
X209925Y24181D02*
X210342Y24466D01*
X210615Y24892D01*
X210699Y25390D01*
X210603Y25836D01*
X210186Y26843D01*
X210186Y29157D01*
X211071Y31293D01*
X212707Y32929D01*
X214843Y33814D01*
X217157Y33814D01*
X219293Y32929D01*
X220929Y31293D01*
X221814Y29157D01*
X221814Y26843D01*
X221397Y25836D01*
X221300Y25340D01*
X221405Y24845D01*
X221694Y24431D01*
X222122Y24162D01*
X222570Y24080D01*
X225370Y24080D01*
X225865Y24181D01*
X226268Y24452D01*
X360159Y158343D01*
X360434Y158755D01*
X360823Y159695D01*
X360920Y160181D01*
X360920Y162819D01*
X360823Y163305D01*
X360186Y164843D01*
X360186Y167157D01*
X361071Y169293D01*
X361380Y169602D01*
X361659Y170023D01*
X361752Y170520D01*
X361643Y171014D01*
X361380Y171398D01*
X360981Y171797D01*
X360560Y172076D01*
X360063Y172169D01*
X359569Y172060D01*
X359185Y171797D01*
X326578Y139190D01*
X169554Y139190D01*
X135947Y172797D01*
X135526Y173076D01*
X135029Y173169D01*
X134535Y173060D01*
X134151Y172797D01*
X133686Y172332D01*
X133407Y171911D01*
X133314Y171414D01*
X133423Y170920D01*
X133686Y170536D01*
X133929Y170293D01*
X134814Y168157D01*
X134814Y165843D01*
X134177Y164305D01*
X134080Y163819D01*
X134080Y161181D01*
X134177Y160695D01*
X134814Y159157D01*
X134814Y156843D01*
X133929Y154707D01*
X132293Y153071D01*
X130157Y152186D01*
X127843Y152186D01*
X125707Y153071D01*
X124071Y154707D01*
X123186Y156843D01*
X123186Y159157D01*
X123823Y160695D01*
X123920Y161181D01*
X123920Y163819D01*
X123823Y164305D01*
X123186Y165843D01*
X123186Y168157D01*
X124071Y170293D01*
X124446Y170668D01*
X124725Y171089D01*
X124818Y171586D01*
X124709Y172080D01*
X124446Y172464D01*
X124113Y172797D01*
X123692Y173076D01*
X123195Y173169D01*
X122701Y173060D01*
X122317Y172797D01*
X100254Y150734D01*
X99975Y150312D01*
X99882Y149836D01*
X99882Y83428D01*
X99983Y82933D01*
X100268Y82516D01*
X100694Y82244D01*
X101192Y82159D01*
X101638Y82255D01*
X102988Y82814D01*
X105301Y82814D01*
X107649Y81841D01*
X107703Y81805D01*
X108200Y81712D01*
X108694Y81821D01*
X108743Y81854D01*
X111059Y82814D01*
X113373Y82814D01*
X115509Y81929D01*
X117145Y80293D01*
X118030Y78157D01*
X118030Y75843D01*
X117145Y73707D01*
X115509Y72071D01*
X113373Y71186D01*
X111059Y71186D01*
X108711Y72159D01*
X108657Y72195D01*
X108160Y72288D01*
X107666Y72179D01*
X107617Y72146D01*
X105301Y71186D01*
X102987Y71186D01*
X100639Y72159D01*
X100585Y72195D01*
X100088Y72288D01*
X99594Y72179D01*
X99545Y72146D01*
X98966Y71906D01*
X98547Y71623D01*
X98271Y71200D01*
X98182Y70702D01*
X98295Y70209D01*
X98554Y69834D01*
X99810Y68578D01*
X99810Y44399D01*
X99911Y43903D01*
X100196Y43486D01*
X100622Y43214D01*
X101120Y43129D01*
X101566Y43225D01*
X102988Y43814D01*
X105301Y43814D01*
X107649Y42841D01*
X107703Y42805D01*
X108200Y42712D01*
X108694Y42821D01*
X108743Y42854D01*
X111059Y43814D01*
X113373Y43814D01*
X115509Y42929D01*
X117145Y41293D01*
X118030Y39157D01*
X118030Y36843D01*
X117145Y34707D01*
X115509Y33071D01*
X113373Y32186D01*
X111059Y32186D01*
X108711Y33159D01*
X108657Y33195D01*
X108160Y33288D01*
X107666Y33179D01*
X107617Y33146D01*
X105301Y32186D01*
X102987Y32186D01*
X100639Y33159D01*
X100585Y33195D01*
X100088Y33288D01*
X99594Y33179D01*
X99545Y33146D01*
X97407Y32260D01*
X96988Y31978D01*
X96713Y31554D01*
X96624Y31056D01*
X96736Y30564D01*
X96995Y30189D01*
X102732Y24452D01*
X103154Y24173D01*
X103630Y24080D01*
X209430Y24080D01*
X209925Y24181D01*
G37*
%LPC*%
G36*
X178843Y88186D02*
X176707Y89071D01*
X175071Y90707D01*
X174186Y92843D01*
X174186Y95157D01*
X175071Y97293D01*
X176707Y98929D01*
X178843Y99814D01*
X181157Y99814D01*
X183293Y98929D01*
X185102Y97120D01*
X185523Y96841D01*
X186020Y96748D01*
X186514Y96857D01*
X186898Y97120D01*
X188707Y98929D01*
X190843Y99814D01*
X193157Y99814D01*
X195293Y98929D01*
X196929Y97293D01*
X197814Y95157D01*
X197814Y92843D01*
X196929Y90707D01*
X195293Y89071D01*
X193157Y88186D01*
X190843Y88186D01*
X188707Y89071D01*
X186898Y90880D01*
X186477Y91159D01*
X185980Y91252D01*
X185486Y91143D01*
X185102Y90880D01*
X183293Y89071D01*
X181157Y88186D01*
X178843Y88186D01*
G37*
G36*
X138843Y83186D02*
X136707Y84071D01*
X135071Y85707D01*
X134186Y87843D01*
X134186Y90157D01*
X135071Y92293D01*
X136707Y93929D01*
X138843Y94814D01*
X141157Y94814D01*
X142695Y94177D01*
X143181Y94080D01*
X144819Y94080D01*
X145305Y94177D01*
X146843Y94814D01*
X149196Y94814D01*
X149691Y94915D01*
X150108Y95200D01*
X150369Y95598D01*
X151071Y97293D01*
X152707Y98929D01*
X154843Y99814D01*
X157157Y99814D01*
X159293Y98929D01*
X160929Y97293D01*
X161814Y95157D01*
X161814Y92843D01*
X160929Y90707D01*
X159293Y89071D01*
X157157Y88186D01*
X154804Y88186D01*
X154309Y88085D01*
X153892Y87800D01*
X153631Y87402D01*
X152929Y85707D01*
X151293Y84071D01*
X149157Y83186D01*
X146843Y83186D01*
X145305Y83823D01*
X144819Y83920D01*
X143181Y83920D01*
X142695Y83823D01*
X141157Y83186D01*
X138843Y83186D01*
G37*
G36*
X151699Y49460D02*
X149295Y50456D01*
X147456Y52295D01*
X146460Y54699D01*
X146460Y57301D01*
X147456Y59705D01*
X149295Y61544D01*
X151699Y62540D01*
X154301Y62540D01*
X156705Y61544D01*
X158544Y59705D01*
X159540Y57301D01*
X159540Y54699D01*
X158544Y52295D01*
X156705Y50456D01*
X154301Y49460D01*
X151699Y49460D01*
G37*
G36*
X178771Y30186D02*
X176635Y31071D01*
X174999Y32707D01*
X174114Y34843D01*
X174114Y37157D01*
X174999Y39293D01*
X176635Y40929D01*
X178838Y41842D01*
X179257Y42124D01*
X179533Y42548D01*
X179622Y43045D01*
X179509Y43538D01*
X179214Y43948D01*
X178838Y44188D01*
X176707Y45071D01*
X175071Y46707D01*
X174186Y48843D01*
X174186Y51157D01*
X175071Y53293D01*
X176707Y54929D01*
X178843Y55814D01*
X181157Y55814D01*
X183505Y54841D01*
X183559Y54805D01*
X184056Y54712D01*
X184550Y54821D01*
X184599Y54854D01*
X186915Y55814D01*
X189229Y55814D01*
X191365Y54929D01*
X193001Y53293D01*
X193886Y51157D01*
X193886Y48843D01*
X193001Y46707D01*
X191365Y45071D01*
X189162Y44158D01*
X188743Y43876D01*
X188467Y43452D01*
X188378Y42955D01*
X188491Y42462D01*
X188786Y42052D01*
X189162Y41812D01*
X191293Y40929D01*
X192929Y39293D01*
X193814Y37157D01*
X193814Y34843D01*
X192929Y32707D01*
X191293Y31071D01*
X189157Y30186D01*
X186843Y30186D01*
X184495Y31159D01*
X184441Y31195D01*
X183944Y31288D01*
X183450Y31179D01*
X183401Y31146D01*
X181085Y30186D01*
X178771Y30186D01*
G37*
%LPD*%
D10*
X46700Y27500D03*
X21300Y27500D03*
X46700Y52900D03*
X21300Y52900D03*
X46700Y78300D03*
X21300Y78300D03*
X46700Y103700D03*
X21300Y103700D03*
X46700Y129100D03*
X21300Y129100D03*
X46700Y154500D03*
X21300Y154500D03*
X46700Y179900D03*
X21300Y179900D03*
X46700Y205300D03*
X21300Y205300D03*
X46700Y230700D03*
X21300Y230700D03*
X46700Y256100D03*
X21300Y256100D03*
X46700Y281500D03*
X21300Y281500D03*
X46700Y306900D03*
X21300Y306900D03*
X46700Y332300D03*
X21300Y332300D03*
X46700Y357700D03*
X21300Y357700D03*
X46700Y383100D03*
X21300Y383100D03*
X46700Y408500D03*
X21300Y408500D03*
D11*
X366000Y208000D03*
X366000Y217000D03*
X366000Y316000D03*
X366000Y307000D03*
X175000Y113000D03*
X162000Y128000D03*
X88000Y9000D03*
X80000Y9000D03*
X120000Y9000D03*
X112000Y9000D03*
X119000Y104000D03*
X360000Y100000D03*
X347000Y112000D03*
X356000Y426000D03*
X343000Y412000D03*
X147000Y415000D03*
X121000Y415000D03*
X367000Y8000D03*
X367000Y19000D03*
X356000Y8000D03*
X8000Y8000D03*
X19000Y8000D03*
X8000Y19000D03*
X8000Y426000D03*
X19000Y426000D03*
X8000Y415000D03*
X367000Y426000D03*
X367000Y415000D03*
D12*
X153000Y334000D02*
X153000Y301000D01*
D11*
X342000Y334000D03*
X342000Y190000D03*
D12*
X342000Y301000D02*
X342000Y334000D01*
X342000Y301000D02*
X363000Y280000D01*
X363000Y241000D02*
X342000Y220000D01*
X363000Y241000D02*
X363000Y280000D01*
D11*
X153053Y334053D03*
D12*
X153000Y334000D01*
X153000Y301000D02*
X128014Y276014D01*
X128014Y244986D01*
X342000Y220000D02*
X342000Y190000D01*
D11*
X152835Y188201D03*
D12*
X152835Y220165D02*
X128014Y244986D01*
X152835Y220165D02*
X152835Y188201D01*
X159000Y339072D02*
X156000Y342072D01*
X159000Y339072D02*
X159000Y302000D01*
D11*
X339000Y342072D03*
X339000Y181928D03*
D12*
X336000Y302000D02*
X336000Y339072D01*
X336000Y302000D02*
X359952Y278048D01*
X359952Y242952D02*
X336000Y219000D01*
X359952Y242952D02*
X359952Y278048D01*
D11*
X156000Y342125D03*
D12*
X156000Y342072D01*
X159000Y302000D02*
X131062Y274062D01*
X131062Y246938D01*
X159000Y219000D01*
X336000Y219000D02*
X336000Y184928D01*
X339000Y181928D01*
X336000Y339072D02*
X339000Y342072D01*
D11*
X156768Y180719D03*
D12*
X159000Y182951D02*
X159000Y219000D01*
X159000Y182951D02*
X156768Y180719D01*
X163048Y346096D02*
X159000Y350144D01*
X163048Y346096D02*
X163048Y301048D01*
D11*
X336000Y350144D03*
X336000Y173856D03*
D12*
X331952Y301048D02*
X331952Y346096D01*
X331952Y301048D02*
X356904Y276096D01*
X356904Y244215D02*
X331952Y219263D01*
X356904Y244215D02*
X356904Y276096D01*
D11*
X159000Y350197D03*
D12*
X159000Y350144D01*
X163048Y301048D02*
X134110Y272110D01*
X134110Y248200D01*
X163048Y219263D01*
X163048Y176627D01*
X331952Y177904D02*
X331952Y219263D01*
X331952Y177904D02*
X336000Y173856D01*
X331952Y346096D02*
X336000Y350144D01*
D11*
X159067Y172647D03*
D12*
X163048Y176627D01*
X168096Y301096D02*
X168096Y352904D01*
X326904Y352904D02*
X326904Y301096D01*
X353856Y274144D01*
X353856Y246167D02*
X326904Y219215D01*
X353856Y246167D02*
X353856Y274144D01*
D11*
X163791Y357209D03*
D12*
X168096Y352904D01*
D11*
X331209Y357209D03*
X331209Y166791D03*
D12*
X168096Y219215D02*
X137158Y250152D01*
X137158Y270158D01*
X168096Y301096D01*
X168096Y219215D02*
X168096Y170260D01*
X326904Y171096D02*
X326904Y219215D01*
X326904Y171096D02*
X331209Y166791D01*
X326904Y352904D02*
X331209Y357209D01*
D11*
X164775Y166939D03*
D12*
X168096Y170260D01*
D11*
X170000Y363000D03*
X325000Y363000D03*
X325000Y161000D03*
D12*
X350808Y272192D02*
X321856Y301144D01*
X350808Y248119D02*
X321856Y219167D01*
X350808Y248119D02*
X350808Y272192D01*
X173144Y301144D02*
X140206Y268206D01*
X140206Y252104D01*
X173144Y219167D01*
X173144Y163892D01*
X321856Y164144D02*
X321856Y219167D01*
X321856Y164144D02*
X325000Y161000D01*
X321856Y301144D02*
X321856Y359856D01*
X325000Y363000D01*
D11*
X170483Y161231D03*
D12*
X173144Y163892D01*
X173144Y359856D02*
X170000Y363000D01*
X173144Y359856D02*
X173144Y301144D01*
D11*
X178072Y363000D03*
X316928Y363000D03*
X316928Y160928D03*
D12*
X347760Y270240D02*
X316808Y301192D01*
X347760Y249760D02*
X316928Y218928D01*
X347760Y249760D02*
X347760Y270240D01*
X178192Y301192D02*
X143254Y266254D01*
X143254Y253742D01*
X178366Y218630D01*
X316928Y218928D02*
X316928Y160928D01*
X316808Y301192D02*
X316808Y362880D01*
X316928Y363000D01*
D11*
X178555Y160928D03*
D12*
X178366Y161117D02*
X178366Y218630D01*
X178366Y161117D02*
X178555Y160928D01*
X178072Y301312D02*
X178072Y363000D01*
X178072Y301312D02*
X178192Y301192D01*
X185808Y301192D02*
X216760Y270240D01*
X216760Y249760D01*
D11*
X186144Y363072D03*
D12*
X185808Y362736D01*
X185808Y301192D01*
D11*
X308752Y161000D03*
X308856Y363072D03*
D12*
X309192Y301192D02*
X278288Y270288D01*
X278288Y249712D02*
X308752Y219248D01*
X278288Y249712D02*
X278288Y270288D01*
X308752Y219248D02*
X308752Y161000D01*
X309192Y301192D02*
X309192Y362736D01*
X308856Y363072D01*
D11*
X186627Y161000D03*
D12*
X186627Y219627D02*
X216760Y249760D01*
X186627Y219627D02*
X186627Y161000D01*
X219808Y272192D02*
X190856Y301144D01*
X219808Y248119D02*
X190856Y219167D01*
X219808Y248119D02*
X219808Y272192D01*
D11*
X194216Y363000D03*
D12*
X190856Y359640D01*
X190856Y301144D01*
D11*
X300680Y161000D03*
X300784Y363000D03*
D12*
X304144Y359640D02*
X304144Y301144D01*
X275240Y272240D01*
X275240Y248071D02*
X304144Y219167D01*
X275240Y248071D02*
X275240Y272240D01*
D11*
X194798Y161000D03*
D12*
X190856Y164942D02*
X190856Y219167D01*
X190856Y164942D02*
X194798Y161000D01*
X304144Y164464D02*
X304144Y219167D01*
X304144Y164464D02*
X300680Y161000D01*
X304144Y359640D02*
X300784Y363000D01*
X195904Y352904D02*
X195904Y301096D01*
X222856Y274144D01*
X222856Y246167D02*
X195904Y219215D01*
X222856Y246167D02*
X222856Y274144D01*
D11*
X294608Y166568D03*
D12*
X299096Y301096D02*
X299096Y353036D01*
X299096Y301096D02*
X272192Y274192D01*
X272192Y246119D02*
X299096Y219215D01*
X272192Y246119D02*
X272192Y274192D01*
D11*
X294132Y358000D03*
X200932Y358000D03*
D12*
X200932Y357932D01*
X195904Y352904D01*
D11*
X200519Y166695D03*
D12*
X195904Y171310D02*
X195904Y219215D01*
X195904Y171310D02*
X200519Y166695D01*
X299096Y171056D02*
X299096Y219215D01*
X299096Y171056D02*
X294608Y166568D01*
X299096Y353036D02*
X294132Y358000D01*
D11*
X205000Y350144D03*
D12*
X200952Y346096D01*
X200952Y301048D01*
X225904Y276096D01*
X225904Y244215D02*
X200952Y219263D01*
X225904Y244215D02*
X225904Y276096D01*
D11*
X290744Y174120D03*
X290000Y350144D03*
D12*
X294048Y346096D02*
X294048Y301048D01*
X269144Y276144D01*
X269144Y244167D02*
X294048Y219263D01*
X269144Y244167D02*
X269144Y276144D01*
D11*
X204383Y174247D03*
D12*
X200952Y177678D02*
X200952Y219263D01*
X200952Y177678D02*
X204383Y174247D01*
X294048Y177424D02*
X294048Y219263D01*
X294048Y177424D02*
X290744Y174120D01*
X294048Y346096D02*
X290000Y350144D01*
D11*
X208000Y342072D03*
D12*
X205000Y339072D01*
X205000Y302000D01*
X228952Y278048D01*
X228952Y242952D02*
X205000Y219000D01*
X228952Y242952D02*
X228952Y278048D01*
D11*
X287104Y181896D03*
X287000Y342072D03*
D12*
X290000Y339072D02*
X290000Y302000D01*
X266096Y278096D01*
X266096Y242904D02*
X290000Y219000D01*
X266096Y242904D02*
X266096Y278096D01*
D11*
X208023Y182023D03*
D12*
X205000Y185045D02*
X205000Y219000D01*
X205000Y185045D02*
X208023Y182023D01*
X290000Y184791D02*
X290000Y219000D01*
X290000Y184791D02*
X287104Y181896D01*
X290000Y339072D02*
X287000Y342072D01*
X232000Y280000D02*
X211000Y301000D01*
X232000Y280000D02*
X232000Y241000D01*
X210740Y219740D01*
D11*
X283798Y189968D03*
X284000Y334000D03*
D12*
X283798Y220202D02*
X283798Y189968D01*
X263048Y280048D02*
X284000Y301000D01*
X263048Y240952D02*
X283798Y220202D01*
X263048Y240952D02*
X263048Y280048D01*
D11*
X210868Y334000D03*
D12*
X211000Y333868D02*
X211000Y301000D01*
X211000Y333868D02*
X210868Y334000D01*
D11*
X210740Y190095D03*
D12*
X210740Y219740D01*
X284000Y301000D02*
X284000Y334000D01*
D11*
X236000Y155000D03*
X236000Y369288D03*
D12*
X252000Y353288D02*
X252000Y333000D01*
X260000Y325000D01*
X260000Y196000D01*
X250000Y186000D01*
X250000Y169000D01*
X236000Y155000D01*
X252000Y353288D02*
X236000Y369288D01*
D11*
X236000Y163072D03*
X236000Y361216D03*
D12*
X248952Y348264D02*
X248952Y331048D01*
X256952Y323048D01*
X256952Y197952D01*
X246000Y187000D01*
X246000Y173072D01*
X236000Y163072D01*
X248952Y348264D02*
X236000Y361216D01*
D11*
X236000Y171144D03*
D12*
X245000Y330000D02*
X245000Y344212D01*
X242000Y188000D02*
X242000Y177144D01*
X236000Y171144D01*
X253904Y321096D02*
X245000Y330000D01*
X253904Y321096D02*
X253904Y199904D01*
X242000Y188000D01*
D11*
X236068Y353144D03*
D12*
X245000Y344212D01*
D11*
X236000Y179216D03*
D12*
X241952Y328048D02*
X241952Y339188D01*
X241952Y328048D02*
X250856Y319144D01*
X250856Y201856D01*
X236000Y187000D01*
X236000Y179216D01*
D11*
X236068Y345072D03*
D12*
X241952Y339188D01*
D11*
X342186Y252049D03*
X148814Y257233D03*
X338896Y260121D03*
X156723Y260740D03*
X335248Y267888D03*
X160372Y268507D03*
X331384Y275440D03*
X164239Y276055D03*
X325320Y281000D03*
X170195Y281515D03*
X317248Y281000D03*
X178267Y281000D03*
X309072Y281072D03*
X186339Y281072D03*
X301000Y281000D03*
X194411Y281000D03*
X201000Y276000D03*
X294000Y276000D03*
X205000Y268144D03*
X290000Y268144D03*
X208000Y260072D03*
X287000Y260072D03*
X211000Y252000D03*
X284000Y252000D03*
X236000Y304712D03*
X236000Y219040D03*
D12*
X236000Y304712D01*
D11*
X236000Y312784D03*
X236000Y210968D03*
D12*
X241560Y216528D02*
X241560Y307224D01*
X241560Y216528D02*
X236000Y210968D01*
X241560Y307224D02*
X236000Y312784D01*
D11*
X236000Y320856D03*
X236000Y202896D03*
D12*
X244608Y211504D02*
X244608Y312248D01*
X244608Y211504D02*
X236000Y202896D01*
X244608Y312248D02*
X236000Y320856D01*
D11*
X236000Y328928D03*
X235960Y194824D03*
D12*
X247808Y206671D02*
X247808Y317120D01*
X247808Y206671D02*
X235960Y194824D01*
X247808Y317120D02*
X236000Y328928D01*
D11*
X366000Y331000D03*
X366000Y193000D03*
X129000Y331000D03*
D13*
X174000Y376000D01*
X321000Y376000D01*
X366000Y331000D01*
X366000Y193000D02*
X321000Y148000D01*
D11*
X129132Y194000D03*
D13*
X174735Y148000D02*
X321000Y148000D01*
X90000Y154868D02*
X90000Y73000D01*
X96000Y67000D01*
D11*
X96072Y38000D03*
D13*
X96000Y38072D02*
X96000Y67000D01*
X96000Y38072D02*
X96072Y38000D01*
X174735Y148397D02*
X129132Y194000D01*
X174735Y148397D02*
X174735Y148000D01*
X129132Y194000D02*
X90000Y154868D01*
D11*
X180000Y94000D03*
X227000Y301000D03*
X192000Y94000D03*
X260000Y183000D03*
X216000Y11000D03*
X259000Y339000D03*
X267000Y301000D03*
X216000Y28000D03*
X366000Y349000D03*
X104144Y38000D03*
X366000Y175000D03*
X112216Y38000D03*
X129000Y349000D03*
X104144Y77000D03*
X88000Y49000D03*
X80000Y49000D03*
X148000Y89000D03*
X140000Y89000D03*
X129000Y358000D03*
X129000Y367000D03*
X366000Y166000D03*
X366000Y157000D03*
X366000Y359000D03*
X366000Y368000D03*
X129000Y167000D03*
X129000Y158000D03*
D14*
X129000Y363000D02*
X129000Y367000D01*
X129000Y363000D02*
X129000Y358000D01*
X84000Y49000D02*
X80000Y49000D01*
X84000Y49000D02*
X88000Y49000D01*
X84000Y49000D02*
X84000Y324000D01*
X123000Y363000D01*
X129000Y363000D01*
X366000Y166000D02*
X366000Y157000D01*
X228000Y19000D01*
X101000Y19000D01*
X84000Y36000D01*
X84000Y49000D01*
X140000Y89000D02*
X148000Y89000D01*
X129000Y158000D02*
X129000Y167000D01*
X366000Y359000D02*
X366000Y368000D01*
D11*
X366000Y340000D03*
X366000Y184000D03*
X129000Y340000D03*
D13*
X170000Y381000D01*
X325000Y381000D01*
X366000Y340000D01*
X366000Y184000D02*
X325000Y143000D01*
D11*
X129132Y185000D03*
D13*
X171132Y143000D02*
X325000Y143000D01*
D11*
X96072Y77000D03*
D13*
X96072Y151940D01*
D11*
X156000Y94000D03*
D13*
X171132Y143000D02*
X129132Y185000D01*
X96072Y151940D01*
D11*
X188072Y50000D03*
X188000Y36000D03*
X179928Y36000D03*
X180000Y50000D03*
X129132Y176000D03*
X112216Y77000D03*
M02*
