M48
;GenerationSoftware,Autodesk,EAGLE,9.7.0*%
;CreationDate,2022-05-17T19:45:22Z*%
FMAT,2
ICI,OFF
METRIC,TZ,000.000
T2C0.350
T1C1.020
%
G90
M71
T1
X9610Y14481
X7070Y14481
X9610Y11941
X7070Y11941
X9610Y9401
X7070Y9401
X9610Y6861
X7070Y6861
X9610Y4321
X7070Y4321
X1990Y4321
X1990Y6861
X1990Y9401
X1990Y11941
X1990Y14481
X35010Y1781
X32470Y1781
X29930Y1781
X27390Y1781
X24850Y1781
X22310Y1781
X19770Y1781
X17230Y1781
X14690Y1781
X12150Y1781
X9610Y1781
X7070Y1781
X4530Y1781
X1990Y1781
X35010Y17021
X32470Y17021
X29930Y17021
X27390Y17021
X24850Y17021
X22310Y17021
X19770Y17021
X17230Y17021
X14690Y17021
X12150Y17021
X9610Y17021
X7070Y17021
X4530Y17021
X1990Y17021
T2
X1100Y21400
X6800Y21800
X6800Y20700
X25800Y20500
X29600Y22300
X26100Y28600
X31700Y28300
X33700Y28900
X32400Y26300
X23200Y25600
X23200Y20200
X33700Y44100
X28500Y35100
X32500Y41600
X26800Y45500
X24400Y43200
X25900Y36400
X17500Y43500
X11700Y42100
X9800Y53300
X5900Y49500
X9800Y55700
X18000Y59200
X16500Y47900
X5300Y46100
X5300Y44000
X5300Y41900
X5300Y39800
X18100Y45400
X13600Y47400
X15100Y28600
X23600Y27100
X19900Y29400
X13500Y15300
X26900Y11000
X27600Y7500
X27500Y6100
X28550Y39200
X28550Y43000
X9600Y42900
X9600Y41300
X13700Y45200
X14400Y55700
X19400Y55700
X8400Y52200
X23700Y5500
X23700Y10800
X23200Y36100
X22400Y27300
X33600Y41600
X26700Y32900
X18600Y32500
X20500Y32531
X15100Y40600
X17600Y40900
X19800Y27300
X17100Y33400
X15800Y33400
X18500Y27300
X23200Y34900
X21100Y27300
X14400Y43300
X14200Y41400
X14300Y33400
X16100Y27300
X8600Y59300
X30700Y42900
X11800Y36200
X26000Y26800
X29700Y20600
X31800Y30000
X33800Y36400
X24900Y30200
X7900Y27600
X8900Y27600
X22900Y41400
X19600Y45300
X5300Y37800
X11100Y43000
X25500Y22200
X17400Y30250
X33600Y40500
X27800Y32900
X33600Y42700
X15000Y6200
X16200Y6200
X14700Y10000
X15700Y10000
X25300Y24700
X29685Y24715
X34600Y21800
X9200Y23700
X14200Y23700
X26000Y30900
X11200Y23700
X10200Y23700
X13200Y23700
X12200Y23700
X36000Y19400
X36000Y59500
X34900Y19400
X34500Y59500
X13000Y57100
X18200Y57100
X20900Y50300
X13400Y49500
X26900Y4200
X15700Y15900
X21000Y15900
X16800Y10000
X17800Y10000
X14000Y6400
X13000Y6400
X26900Y12300
X33000Y6600
X32000Y6600
X23700Y4200
X23700Y12300
X14400Y13200
X18300Y15900
X28600Y6100
X28600Y5100
X22400Y49500
X14700Y49500
X33100Y12944
X33100Y11900
X33100Y10900
X33300Y8900
X33300Y7600
X35500Y5600
X1100Y23400
X1100Y25400
X1100Y27400
X1100Y29400
X1100Y31400
X1100Y33400
X1100Y35400
X1100Y37400
X1100Y39400
X1100Y41400
X1100Y43400
X1100Y45400
X1100Y47400
X1100Y49400
X1100Y51400
X1100Y53400
X1100Y55400
X1100Y57400
X1100Y59400
X15100Y61400
X13100Y61400
X11100Y61400
X9100Y61400
X7100Y61400
X5100Y61400
X3100Y61400
X1100Y61400
X36500Y9400
X1100Y18900
X1100Y15800
X1100Y13200
X1100Y10700
X1100Y8100
X1100Y5600
X1100Y3100
X3900Y9400
X900Y1000
X36400Y1100
X36500Y17000
X35000Y15500
X22000Y38850
X13300Y36200
X24500Y39300
M30