G04 EAGLE Gerber RS-274X export*
G75*
%MOMM*%
%FSLAX34Y34*%
%LPD*%
%INCopper Layer 15*%
%IPPOS*%
%AMOC8*
5,1,8,0,0,1.08239X$1,22.5*%
G01*
G04 Define Apertures*
%ADD10C,1.530000*%
%ADD11C,0.756400*%
%ADD12C,0.254000*%
%ADD13C,0.508000*%
%ADD14C,0.200000*%
G36*
X371850Y2619D02*
X372178Y2844D01*
X372393Y3180D01*
X372460Y3540D01*
X372460Y480000D01*
X372381Y480390D01*
X372156Y480718D01*
X371821Y480933D01*
X371460Y481000D01*
X366039Y481000D01*
X366033Y481000D01*
X366009Y481008D01*
X366000Y481071D01*
X366000Y589645D01*
X365921Y590035D01*
X365696Y590363D01*
X365361Y590578D01*
X364968Y590645D01*
X364581Y590553D01*
X364293Y590352D01*
X363581Y589641D01*
X361258Y588678D01*
X358742Y588678D01*
X356419Y589641D01*
X354641Y591419D01*
X353678Y593742D01*
X353678Y596258D01*
X354641Y598581D01*
X356419Y600360D01*
X358742Y601322D01*
X361258Y601322D01*
X363581Y600360D01*
X364293Y599648D01*
X364625Y599428D01*
X365016Y599355D01*
X365405Y599440D01*
X365729Y599671D01*
X365938Y600009D01*
X366000Y600355D01*
X366000Y607961D01*
X366000Y607967D01*
X366008Y607991D01*
X366071Y608000D01*
X371460Y608000D01*
X371850Y608079D01*
X372178Y608304D01*
X372393Y608640D01*
X372460Y609000D01*
X372460Y621460D01*
X372381Y621850D01*
X372156Y622178D01*
X371821Y622393D01*
X371460Y622460D01*
X3540Y622460D01*
X3150Y622381D01*
X2822Y622156D01*
X2607Y621821D01*
X2540Y621460D01*
X2540Y3540D01*
X2619Y3150D01*
X2844Y2822D01*
X3180Y2607D01*
X3540Y2540D01*
X371460Y2540D01*
X371850Y2619D01*
G37*
%LPC*%
G36*
X343742Y588678D02*
X341419Y589641D01*
X339641Y591419D01*
X338678Y593742D01*
X338678Y596258D01*
X339641Y598581D01*
X341419Y600360D01*
X343742Y601322D01*
X346258Y601322D01*
X348581Y600360D01*
X350360Y598581D01*
X351322Y596258D01*
X351322Y593742D01*
X350360Y591419D01*
X348581Y589641D01*
X346258Y588678D01*
X343742Y588678D01*
G37*
G36*
X180742Y564678D02*
X178419Y565641D01*
X176641Y567419D01*
X175678Y569742D01*
X175678Y572258D01*
X176641Y574581D01*
X178419Y576360D01*
X180742Y577322D01*
X183258Y577322D01*
X185581Y576360D01*
X187360Y574581D01*
X188322Y572258D01*
X188322Y569742D01*
X187360Y567419D01*
X185581Y565641D01*
X183258Y564678D01*
X180742Y564678D01*
G37*
G36*
X128742Y564678D02*
X126419Y565641D01*
X124641Y567419D01*
X123678Y569742D01*
X123678Y572258D01*
X124641Y574581D01*
X126419Y576360D01*
X128742Y577322D01*
X131258Y577322D01*
X133581Y576360D01*
X135360Y574581D01*
X136322Y572258D01*
X136322Y569742D01*
X135360Y567419D01*
X133581Y565641D01*
X131258Y564678D01*
X128742Y564678D01*
G37*
G36*
X192742Y550678D02*
X190419Y551641D01*
X188641Y553419D01*
X187678Y555742D01*
X187678Y558258D01*
X188641Y560581D01*
X190419Y562360D01*
X192742Y563322D01*
X195258Y563322D01*
X197581Y562360D01*
X199360Y560581D01*
X200322Y558258D01*
X200322Y555742D01*
X199360Y553419D01*
X197581Y551641D01*
X195258Y550678D01*
X192742Y550678D01*
G37*
G36*
X142742Y550678D02*
X140419Y551641D01*
X138641Y553419D01*
X137678Y555742D01*
X137678Y558258D01*
X138641Y560581D01*
X140419Y562360D01*
X142742Y563322D01*
X145258Y563322D01*
X147581Y562360D01*
X149360Y560581D01*
X150322Y558258D01*
X150322Y555742D01*
X149360Y553419D01*
X147581Y551641D01*
X145258Y550678D01*
X142742Y550678D01*
G37*
G36*
X82742Y515678D02*
X80419Y516641D01*
X78641Y518419D01*
X77678Y520742D01*
X77678Y523258D01*
X78641Y525581D01*
X80419Y527360D01*
X82742Y528322D01*
X85258Y528322D01*
X87581Y527360D01*
X89360Y525581D01*
X90322Y523258D01*
X90322Y520742D01*
X89360Y518419D01*
X87581Y516641D01*
X85258Y515678D01*
X82742Y515678D01*
G37*
G36*
X207742Y496678D02*
X205419Y497641D01*
X203641Y499419D01*
X202678Y501742D01*
X202678Y504258D01*
X203641Y506581D01*
X205419Y508360D01*
X207742Y509322D01*
X210258Y509322D01*
X212581Y508360D01*
X214360Y506581D01*
X215322Y504258D01*
X215322Y501742D01*
X214360Y499419D01*
X212581Y497641D01*
X210258Y496678D01*
X207742Y496678D01*
G37*
G36*
X222742Y488678D02*
X220419Y489641D01*
X218641Y491419D01*
X217678Y493742D01*
X217678Y496258D01*
X218641Y498581D01*
X220419Y500360D01*
X222742Y501322D01*
X225258Y501322D01*
X227581Y500360D01*
X229360Y498581D01*
X230322Y496258D01*
X230322Y493742D01*
X229360Y491419D01*
X227581Y489641D01*
X225258Y488678D01*
X222742Y488678D01*
G37*
G36*
X132742Y488678D02*
X130419Y489641D01*
X128641Y491419D01*
X127678Y493742D01*
X127678Y496258D01*
X128641Y498581D01*
X130419Y500360D01*
X132742Y501322D01*
X135258Y501322D01*
X137581Y500360D01*
X139360Y498581D01*
X139576Y498058D01*
X139799Y497728D01*
X140132Y497511D01*
X140524Y497441D01*
X140912Y497530D01*
X141235Y497763D01*
X141424Y498058D01*
X141641Y498581D01*
X143419Y500360D01*
X145742Y501322D01*
X148258Y501322D01*
X150581Y500360D01*
X152360Y498581D01*
X153322Y496258D01*
X153322Y493742D01*
X152360Y491419D01*
X150581Y489641D01*
X148258Y488678D01*
X145742Y488678D01*
X143419Y489641D01*
X141641Y491419D01*
X141424Y491942D01*
X141201Y492272D01*
X140868Y492489D01*
X140476Y492559D01*
X140088Y492470D01*
X139765Y492237D01*
X139576Y491942D01*
X139360Y491419D01*
X137581Y489641D01*
X135258Y488678D01*
X132742Y488678D01*
G37*
G36*
X194742Y446678D02*
X192419Y447641D01*
X190641Y449419D01*
X189678Y451742D01*
X189678Y454258D01*
X190641Y456581D01*
X192419Y458360D01*
X194742Y459322D01*
X197258Y459322D01*
X199581Y458360D01*
X201360Y456581D01*
X202322Y454258D01*
X202322Y451742D01*
X201360Y449419D01*
X199581Y447641D01*
X197258Y446678D01*
X194742Y446678D01*
G37*
G36*
X135742Y445678D02*
X133419Y446641D01*
X131641Y448419D01*
X130678Y450742D01*
X130678Y453258D01*
X131641Y455581D01*
X133419Y457360D01*
X135742Y458322D01*
X138258Y458322D01*
X140581Y457360D01*
X142360Y455581D01*
X143322Y453258D01*
X143322Y450742D01*
X142360Y448419D01*
X140581Y446641D01*
X138258Y445678D01*
X135742Y445678D01*
G37*
G36*
X142742Y426678D02*
X140419Y427641D01*
X138641Y429419D01*
X137678Y431742D01*
X137678Y434258D01*
X138641Y436581D01*
X140419Y438360D01*
X142742Y439322D01*
X145258Y439322D01*
X147581Y438360D01*
X149360Y436581D01*
X150322Y434258D01*
X150322Y431742D01*
X149360Y429419D01*
X147581Y427641D01*
X145258Y426678D01*
X142742Y426678D01*
G37*
G36*
X284242Y423678D02*
X281919Y424641D01*
X280141Y426419D01*
X279178Y428742D01*
X279178Y431258D01*
X280141Y433581D01*
X281919Y435360D01*
X284242Y436322D01*
X286758Y436322D01*
X289081Y435360D01*
X290860Y433581D01*
X291822Y431258D01*
X291822Y428742D01*
X290860Y426419D01*
X289081Y424641D01*
X286758Y423678D01*
X284242Y423678D01*
G37*
G36*
X51742Y371678D02*
X49419Y372641D01*
X47641Y374419D01*
X46678Y376742D01*
X46678Y379258D01*
X47641Y381581D01*
X49419Y383360D01*
X51742Y384322D01*
X54258Y384322D01*
X56599Y383352D01*
X56900Y383153D01*
X57275Y383080D01*
X94482Y383080D01*
X94872Y383159D01*
X95189Y383373D01*
X102781Y390965D01*
X103001Y391297D01*
X103074Y391672D01*
X103074Y408719D01*
X102995Y409109D01*
X102770Y409437D01*
X102435Y409652D01*
X102042Y409719D01*
X101655Y409627D01*
X101367Y409426D01*
X99581Y407641D01*
X97258Y406678D01*
X94742Y406678D01*
X92419Y407641D01*
X90641Y409419D01*
X89678Y411742D01*
X89678Y414258D01*
X90641Y416581D01*
X92419Y418360D01*
X94742Y419322D01*
X97258Y419322D01*
X99581Y418360D01*
X101367Y416574D01*
X101699Y416354D01*
X102090Y416281D01*
X102479Y416366D01*
X102803Y416597D01*
X103012Y416935D01*
X103074Y417281D01*
X103074Y424719D01*
X102995Y425109D01*
X102770Y425437D01*
X102435Y425652D01*
X102042Y425719D01*
X101655Y425627D01*
X101367Y425426D01*
X99581Y423641D01*
X97258Y422678D01*
X94742Y422678D01*
X92419Y423641D01*
X90641Y425419D01*
X89678Y427742D01*
X89678Y430258D01*
X90641Y432581D01*
X92419Y434360D01*
X94742Y435322D01*
X97258Y435322D01*
X99581Y434360D01*
X101360Y432581D01*
X102262Y430402D01*
X102485Y430072D01*
X102818Y429855D01*
X103210Y429785D01*
X103598Y429873D01*
X103893Y430077D01*
X104385Y430569D01*
X104605Y430901D01*
X104671Y431241D01*
X105641Y433581D01*
X107419Y435360D01*
X109742Y436322D01*
X112258Y436322D01*
X114581Y435360D01*
X116360Y433581D01*
X117322Y431258D01*
X117322Y428742D01*
X116360Y426419D01*
X114581Y424641D01*
X113851Y424338D01*
X113521Y424116D01*
X113304Y423782D01*
X113234Y423414D01*
X113234Y388144D01*
X112461Y386276D01*
X99878Y373693D01*
X98010Y372920D01*
X57275Y372920D01*
X56885Y372841D01*
X56598Y372647D01*
X54258Y371678D01*
X51742Y371678D01*
G37*
G36*
X305742Y422678D02*
X303419Y423641D01*
X301641Y425419D01*
X300678Y427742D01*
X300678Y430258D01*
X301641Y432581D01*
X303419Y434360D01*
X305742Y435322D01*
X308258Y435322D01*
X310581Y434360D01*
X312360Y432581D01*
X313322Y430258D01*
X313322Y427742D01*
X312360Y425419D01*
X310581Y423641D01*
X308258Y422678D01*
X305742Y422678D01*
G37*
G36*
X334742Y398678D02*
X332419Y399641D01*
X330641Y401419D01*
X329678Y403742D01*
X329678Y406258D01*
X330641Y408581D01*
X331852Y409793D01*
X332072Y410125D01*
X332145Y410516D01*
X332060Y410905D01*
X331852Y411207D01*
X330641Y412419D01*
X329678Y414742D01*
X329678Y417258D01*
X330641Y419581D01*
X331852Y420793D01*
X332072Y421125D01*
X332145Y421516D01*
X332060Y421905D01*
X331852Y422207D01*
X330641Y423419D01*
X329678Y425742D01*
X329678Y428258D01*
X330641Y430581D01*
X332419Y432360D01*
X334742Y433322D01*
X337258Y433322D01*
X339581Y432360D01*
X341360Y430581D01*
X342322Y428258D01*
X342322Y425742D01*
X341360Y423419D01*
X340148Y422207D01*
X339928Y421875D01*
X339855Y421484D01*
X339940Y421095D01*
X340148Y420793D01*
X341360Y419581D01*
X342322Y417258D01*
X342322Y414742D01*
X341360Y412419D01*
X340148Y411207D01*
X339928Y410875D01*
X339855Y410484D01*
X339940Y410095D01*
X340148Y409793D01*
X341360Y408581D01*
X342322Y406258D01*
X342322Y403742D01*
X341360Y401419D01*
X339581Y399641D01*
X337258Y398678D01*
X334742Y398678D01*
G37*
G36*
X227742Y407678D02*
X225419Y408641D01*
X223641Y410419D01*
X222678Y412742D01*
X222678Y415258D01*
X223641Y417581D01*
X225419Y419360D01*
X227742Y420322D01*
X230258Y420322D01*
X232581Y419360D01*
X234360Y417581D01*
X235322Y415258D01*
X235322Y412742D01*
X234360Y410419D01*
X232581Y408641D01*
X230258Y407678D01*
X227742Y407678D01*
G37*
G36*
X149742Y399678D02*
X147419Y400641D01*
X145641Y402419D01*
X144678Y404742D01*
X144678Y406770D01*
X144599Y407160D01*
X144374Y407488D01*
X144039Y407703D01*
X143646Y407769D01*
X143295Y407694D01*
X143258Y407678D01*
X140742Y407678D01*
X138419Y408641D01*
X136641Y410419D01*
X135678Y412742D01*
X135678Y415258D01*
X136641Y417581D01*
X138419Y419360D01*
X140742Y420322D01*
X143258Y420322D01*
X145581Y419360D01*
X147360Y417581D01*
X148322Y415258D01*
X148322Y413230D01*
X148401Y412840D01*
X148626Y412512D01*
X148962Y412297D01*
X149354Y412231D01*
X149705Y412306D01*
X149743Y412322D01*
X152258Y412322D01*
X154581Y411360D01*
X156360Y409581D01*
X157322Y407258D01*
X157322Y404742D01*
X156360Y402419D01*
X154581Y400641D01*
X152258Y399678D01*
X149742Y399678D01*
G37*
G36*
X174742Y402678D02*
X172419Y403641D01*
X170641Y405419D01*
X169678Y407742D01*
X169678Y410258D01*
X170641Y412581D01*
X172419Y414360D01*
X174742Y415322D01*
X177258Y415322D01*
X179581Y414360D01*
X181360Y412581D01*
X182322Y410258D01*
X182322Y407742D01*
X181360Y405419D01*
X179581Y403641D01*
X177258Y402678D01*
X174742Y402678D01*
G37*
G36*
X243742Y386678D02*
X241419Y387641D01*
X239641Y389419D01*
X238678Y391742D01*
X238678Y394258D01*
X239641Y396581D01*
X241419Y398360D01*
X243742Y399322D01*
X246258Y399322D01*
X248581Y398360D01*
X250360Y396581D01*
X251322Y394258D01*
X251322Y391742D01*
X250360Y389419D01*
X248581Y387641D01*
X246258Y386678D01*
X243742Y386678D01*
G37*
G36*
X284242Y385678D02*
X281919Y386641D01*
X280141Y388419D01*
X279178Y390742D01*
X279178Y393258D01*
X280141Y395581D01*
X281919Y397360D01*
X284242Y398322D01*
X286758Y398322D01*
X289081Y397360D01*
X290860Y395581D01*
X291822Y393258D01*
X291822Y390742D01*
X290860Y388419D01*
X289081Y386641D01*
X286758Y385678D01*
X284242Y385678D01*
G37*
G36*
X336742Y357678D02*
X334419Y358641D01*
X332641Y360419D01*
X331678Y362742D01*
X331678Y365258D01*
X332641Y367581D01*
X334419Y369360D01*
X336742Y370322D01*
X339258Y370322D01*
X341581Y369360D01*
X343360Y367581D01*
X344322Y365258D01*
X344322Y362742D01*
X343360Y360419D01*
X341581Y358641D01*
X339258Y357678D01*
X336742Y357678D01*
G37*
G36*
X116742Y355678D02*
X114419Y356641D01*
X112641Y358419D01*
X111678Y360742D01*
X111678Y363258D01*
X112641Y365581D01*
X114419Y367360D01*
X116742Y368322D01*
X119258Y368322D01*
X121581Y367360D01*
X123360Y365581D01*
X124322Y363258D01*
X124322Y360742D01*
X123360Y358419D01*
X121581Y356641D01*
X119258Y355678D01*
X116742Y355678D01*
G37*
G36*
X230742Y342678D02*
X228419Y343641D01*
X226641Y345419D01*
X225678Y347742D01*
X225678Y350258D01*
X226641Y352581D01*
X228352Y354293D01*
X228572Y354625D01*
X228645Y355016D01*
X228560Y355405D01*
X228352Y355707D01*
X226641Y357419D01*
X225678Y359742D01*
X225678Y362258D01*
X226641Y364581D01*
X228419Y366360D01*
X230742Y367322D01*
X233258Y367322D01*
X235581Y366360D01*
X237360Y364581D01*
X238322Y362258D01*
X238322Y359742D01*
X237360Y357419D01*
X235648Y355707D01*
X235428Y355375D01*
X235355Y354984D01*
X235440Y354595D01*
X235648Y354293D01*
X237360Y352581D01*
X238322Y350258D01*
X238322Y347742D01*
X237360Y345419D01*
X235581Y343641D01*
X233258Y342678D01*
X230742Y342678D01*
G37*
G36*
X253742Y215678D02*
X251401Y216648D01*
X251100Y216847D01*
X250725Y216920D01*
X216990Y216920D01*
X215122Y217693D01*
X169693Y263122D01*
X168920Y264990D01*
X168920Y270573D01*
X168841Y270963D01*
X168616Y271291D01*
X168281Y271506D01*
X167888Y271573D01*
X167501Y271481D01*
X167180Y271246D01*
X166996Y270956D01*
X166360Y269419D01*
X164581Y267641D01*
X162258Y266678D01*
X159742Y266678D01*
X157419Y267641D01*
X155641Y269419D01*
X154678Y271742D01*
X154678Y274258D01*
X155641Y276581D01*
X156897Y277838D01*
X157117Y278170D01*
X157190Y278545D01*
X157190Y312559D01*
X157111Y312949D01*
X156926Y313236D01*
X143936Y327355D01*
X143614Y327588D01*
X143200Y327678D01*
X141742Y327678D01*
X139419Y328641D01*
X137641Y330419D01*
X136678Y332742D01*
X136678Y335258D01*
X137641Y337581D01*
X139419Y339360D01*
X141742Y340322D01*
X144258Y340322D01*
X146581Y339360D01*
X148360Y337581D01*
X149322Y335258D01*
X149322Y333146D01*
X149401Y332756D01*
X149586Y332469D01*
X149942Y332082D01*
X150264Y331848D01*
X150652Y331759D01*
X151044Y331828D01*
X151378Y332045D01*
X151601Y332374D01*
X151678Y332759D01*
X151678Y335258D01*
X152641Y337581D01*
X154419Y339360D01*
X156742Y340322D01*
X159258Y340322D01*
X161581Y339360D01*
X163360Y337581D01*
X163576Y337058D01*
X163799Y336728D01*
X164132Y336511D01*
X164524Y336441D01*
X164912Y336530D01*
X165235Y336763D01*
X165424Y337058D01*
X165641Y337581D01*
X167419Y339360D01*
X169742Y340322D01*
X172258Y340322D01*
X174581Y339360D01*
X176360Y337581D01*
X177322Y335258D01*
X177322Y332742D01*
X176360Y330419D01*
X175103Y329162D01*
X174883Y328830D01*
X174810Y328455D01*
X174810Y324992D01*
X174889Y324602D01*
X175103Y324285D01*
X178974Y320414D01*
X179306Y320194D01*
X179697Y320121D01*
X180086Y320206D01*
X180411Y320437D01*
X180620Y320775D01*
X180680Y321169D01*
X180605Y321504D01*
X179678Y323742D01*
X179678Y326258D01*
X180641Y328581D01*
X182419Y330360D01*
X184742Y331322D01*
X187258Y331322D01*
X189581Y330360D01*
X191360Y328581D01*
X192322Y326258D01*
X192322Y323742D01*
X191360Y321419D01*
X189581Y319641D01*
X187258Y318678D01*
X184742Y318678D01*
X182504Y319605D01*
X182113Y319682D01*
X181724Y319599D01*
X181397Y319372D01*
X181185Y319035D01*
X181122Y318642D01*
X181216Y318255D01*
X181414Y317974D01*
X193810Y305578D01*
X193810Y282992D01*
X193889Y282602D01*
X194103Y282285D01*
X196773Y279615D01*
X197105Y279395D01*
X197480Y279322D01*
X199258Y279322D01*
X201581Y278360D01*
X203360Y276581D01*
X203576Y276058D01*
X203799Y275728D01*
X204132Y275511D01*
X204524Y275441D01*
X204912Y275530D01*
X205235Y275763D01*
X205424Y276058D01*
X205641Y276581D01*
X207419Y278360D01*
X209742Y279322D01*
X212258Y279322D01*
X214581Y278360D01*
X216360Y276581D01*
X216576Y276058D01*
X216799Y275728D01*
X217132Y275511D01*
X217524Y275441D01*
X217912Y275530D01*
X218235Y275763D01*
X218424Y276058D01*
X218641Y276581D01*
X220419Y278360D01*
X222742Y279322D01*
X225258Y279322D01*
X227581Y278360D01*
X229360Y276581D01*
X230322Y274258D01*
X230322Y271742D01*
X229360Y269419D01*
X227581Y267641D01*
X225258Y266678D01*
X222742Y266678D01*
X220419Y267641D01*
X218641Y269419D01*
X218424Y269942D01*
X218201Y270272D01*
X217868Y270489D01*
X217476Y270559D01*
X217088Y270470D01*
X216765Y270237D01*
X216576Y269942D01*
X216360Y269419D01*
X214581Y267641D01*
X212258Y266678D01*
X209742Y266678D01*
X207419Y267641D01*
X205641Y269419D01*
X205424Y269942D01*
X205201Y270272D01*
X204868Y270489D01*
X204476Y270559D01*
X204088Y270470D01*
X203765Y270237D01*
X203576Y269942D01*
X203360Y269419D01*
X201581Y267641D01*
X199258Y266678D01*
X196742Y266678D01*
X194419Y267641D01*
X192641Y269419D01*
X192424Y269942D01*
X192201Y270272D01*
X191868Y270489D01*
X191476Y270559D01*
X191088Y270470D01*
X190765Y270237D01*
X190576Y269942D01*
X190360Y269419D01*
X188581Y267641D01*
X186258Y266678D01*
X183742Y266678D01*
X182862Y267043D01*
X182472Y267119D01*
X182082Y267036D01*
X181756Y266809D01*
X181544Y266472D01*
X181481Y266079D01*
X181575Y265692D01*
X181773Y265412D01*
X219811Y227373D01*
X220143Y227153D01*
X220518Y227080D01*
X250725Y227080D01*
X251115Y227159D01*
X251402Y227353D01*
X253742Y228322D01*
X256258Y228322D01*
X258581Y227360D01*
X260360Y225581D01*
X261322Y223258D01*
X261322Y220742D01*
X260360Y218419D01*
X258581Y216641D01*
X256258Y215678D01*
X253742Y215678D01*
G37*
G36*
X265742Y322678D02*
X263419Y323641D01*
X261641Y325419D01*
X260678Y327742D01*
X260678Y330258D01*
X261641Y332581D01*
X263419Y334360D01*
X265742Y335322D01*
X268258Y335322D01*
X270581Y334360D01*
X271793Y333148D01*
X272125Y332928D01*
X272516Y332855D01*
X272905Y332940D01*
X273207Y333148D01*
X274419Y334360D01*
X276742Y335322D01*
X279258Y335322D01*
X281581Y334360D01*
X283360Y332581D01*
X284322Y330258D01*
X284322Y327742D01*
X283360Y325419D01*
X281581Y323641D01*
X279258Y322678D01*
X276742Y322678D01*
X274419Y323641D01*
X273207Y324852D01*
X272875Y325072D01*
X272484Y325145D01*
X272095Y325060D01*
X271793Y324852D01*
X270581Y323641D01*
X268258Y322678D01*
X265742Y322678D01*
G37*
G36*
X203742Y318984D02*
X201419Y319947D01*
X199641Y321725D01*
X198678Y324048D01*
X198678Y326564D01*
X199641Y328887D01*
X201419Y330666D01*
X203742Y331628D01*
X206258Y331628D01*
X208581Y330666D01*
X210360Y328887D01*
X211322Y326564D01*
X211322Y324048D01*
X210360Y321725D01*
X208581Y319947D01*
X206258Y318984D01*
X203742Y318984D01*
G37*
G36*
X247742Y295678D02*
X245419Y296641D01*
X243641Y298419D01*
X242678Y300742D01*
X242678Y303258D01*
X243641Y305581D01*
X245419Y307360D01*
X247742Y308322D01*
X250258Y308322D01*
X252295Y307478D01*
X252686Y307402D01*
X253075Y307484D01*
X253402Y307712D01*
X253614Y308049D01*
X253678Y308402D01*
X253678Y310258D01*
X254641Y312581D01*
X256419Y314360D01*
X258742Y315322D01*
X261258Y315322D01*
X263581Y314360D01*
X265360Y312581D01*
X266322Y310258D01*
X266322Y307742D01*
X265360Y305419D01*
X263581Y303641D01*
X261258Y302678D01*
X258742Y302678D01*
X256705Y303522D01*
X256314Y303598D01*
X255925Y303516D01*
X255598Y303288D01*
X255386Y302951D01*
X255322Y302598D01*
X255322Y300742D01*
X254360Y298419D01*
X252581Y296641D01*
X250258Y295678D01*
X247742Y295678D01*
G37*
G36*
X316742Y293678D02*
X314419Y294641D01*
X312641Y296419D01*
X311678Y298742D01*
X311678Y301258D01*
X312641Y303581D01*
X314419Y305360D01*
X316742Y306322D01*
X319258Y306322D01*
X321581Y305360D01*
X323360Y303581D01*
X324322Y301258D01*
X324322Y298742D01*
X323360Y296419D01*
X321581Y294641D01*
X319258Y293678D01*
X316742Y293678D01*
G37*
G36*
X77742Y269678D02*
X75419Y270641D01*
X73641Y272419D01*
X72678Y274742D01*
X72678Y277258D01*
X73641Y279581D01*
X75419Y281360D01*
X77742Y282322D01*
X80258Y282322D01*
X82581Y281360D01*
X83293Y280648D01*
X83625Y280428D01*
X84016Y280355D01*
X84405Y280440D01*
X84707Y280648D01*
X85419Y281360D01*
X87742Y282322D01*
X90258Y282322D01*
X92581Y281360D01*
X94360Y279581D01*
X95322Y277258D01*
X95322Y274742D01*
X94360Y272419D01*
X92581Y270641D01*
X90258Y269678D01*
X87742Y269678D01*
X85419Y270641D01*
X84707Y271352D01*
X84375Y271572D01*
X83984Y271645D01*
X83595Y271560D01*
X83293Y271352D01*
X82581Y270641D01*
X80258Y269678D01*
X77742Y269678D01*
G37*
G36*
X258742Y261678D02*
X256419Y262641D01*
X254641Y264419D01*
X253678Y266742D01*
X253678Y269258D01*
X254641Y271581D01*
X256419Y273360D01*
X258742Y274322D01*
X261258Y274322D01*
X263581Y273360D01*
X265360Y271581D01*
X266322Y269258D01*
X266322Y266742D01*
X265360Y264419D01*
X263581Y262641D01*
X261258Y261678D01*
X258742Y261678D01*
G37*
G36*
X295592Y240828D02*
X293269Y241791D01*
X291491Y243569D01*
X290528Y245892D01*
X290528Y248408D01*
X291491Y250731D01*
X293269Y252510D01*
X295592Y253472D01*
X298108Y253472D01*
X300431Y252510D01*
X302210Y250731D01*
X303172Y248408D01*
X303172Y245892D01*
X302210Y243569D01*
X300431Y241791D01*
X298108Y240828D01*
X295592Y240828D01*
G37*
G36*
X251742Y240678D02*
X249419Y241641D01*
X247641Y243419D01*
X246678Y245742D01*
X246678Y248258D01*
X247641Y250581D01*
X249419Y252360D01*
X251742Y253322D01*
X254258Y253322D01*
X256581Y252360D01*
X258360Y250581D01*
X259322Y248258D01*
X259322Y245742D01*
X258360Y243419D01*
X256581Y241641D01*
X254258Y240678D01*
X251742Y240678D01*
G37*
G36*
X90742Y230678D02*
X88419Y231641D01*
X86641Y233419D01*
X85678Y235742D01*
X85678Y238258D01*
X86641Y240581D01*
X88419Y242360D01*
X90742Y243322D01*
X93258Y243322D01*
X95581Y242360D01*
X96293Y241648D01*
X96625Y241428D01*
X97016Y241355D01*
X97405Y241440D01*
X97707Y241648D01*
X98419Y242360D01*
X100742Y243322D01*
X103258Y243322D01*
X105581Y242360D01*
X106293Y241648D01*
X106625Y241428D01*
X107016Y241355D01*
X107405Y241440D01*
X107707Y241648D01*
X108419Y242360D01*
X110742Y243322D01*
X113258Y243322D01*
X115581Y242360D01*
X116293Y241648D01*
X116625Y241428D01*
X117016Y241355D01*
X117405Y241440D01*
X117707Y241648D01*
X118419Y242360D01*
X120742Y243322D01*
X123258Y243322D01*
X125581Y242360D01*
X126293Y241648D01*
X126625Y241428D01*
X127016Y241355D01*
X127405Y241440D01*
X127707Y241648D01*
X128419Y242360D01*
X130742Y243322D01*
X133258Y243322D01*
X135581Y242360D01*
X136293Y241648D01*
X136625Y241428D01*
X137016Y241355D01*
X137405Y241440D01*
X137707Y241648D01*
X138419Y242360D01*
X140742Y243322D01*
X143258Y243322D01*
X145581Y242360D01*
X147360Y240581D01*
X148322Y238258D01*
X148322Y235742D01*
X147360Y233419D01*
X145581Y231641D01*
X143258Y230678D01*
X140742Y230678D01*
X138419Y231641D01*
X137707Y232352D01*
X137375Y232572D01*
X136984Y232645D01*
X136595Y232560D01*
X136293Y232352D01*
X135581Y231641D01*
X133258Y230678D01*
X130742Y230678D01*
X128419Y231641D01*
X127707Y232352D01*
X127375Y232572D01*
X126984Y232645D01*
X126595Y232560D01*
X126293Y232352D01*
X125581Y231641D01*
X123258Y230678D01*
X120742Y230678D01*
X118419Y231641D01*
X117707Y232352D01*
X117375Y232572D01*
X116984Y232645D01*
X116595Y232560D01*
X116293Y232352D01*
X115581Y231641D01*
X113258Y230678D01*
X110742Y230678D01*
X108419Y231641D01*
X107707Y232352D01*
X107375Y232572D01*
X106984Y232645D01*
X106595Y232560D01*
X106293Y232352D01*
X105581Y231641D01*
X103258Y230678D01*
X100742Y230678D01*
X98419Y231641D01*
X97707Y232352D01*
X97375Y232572D01*
X96984Y232645D01*
X96595Y232560D01*
X96293Y232352D01*
X95581Y231641D01*
X93258Y230678D01*
X90742Y230678D01*
G37*
G36*
X344742Y211678D02*
X342419Y212641D01*
X340641Y214419D01*
X339678Y216742D01*
X339678Y219258D01*
X340641Y221581D01*
X342419Y223360D01*
X344742Y224322D01*
X347258Y224322D01*
X349581Y223360D01*
X351360Y221581D01*
X352322Y219258D01*
X352322Y216742D01*
X351360Y214419D01*
X349581Y212641D01*
X347258Y211678D01*
X344742Y211678D01*
G37*
G36*
X295742Y199678D02*
X293419Y200641D01*
X291641Y202419D01*
X290678Y204742D01*
X290678Y207258D01*
X291641Y209581D01*
X293419Y211360D01*
X295742Y212322D01*
X298258Y212322D01*
X300581Y211360D01*
X302360Y209581D01*
X303322Y207258D01*
X303322Y204742D01*
X302360Y202419D01*
X300581Y200641D01*
X298258Y199678D01*
X295742Y199678D01*
G37*
G36*
X347742Y187678D02*
X345419Y188641D01*
X343641Y190419D01*
X342678Y192742D01*
X342678Y195258D01*
X343641Y197581D01*
X345419Y199360D01*
X347742Y200322D01*
X350258Y200322D01*
X352581Y199360D01*
X353793Y198148D01*
X354125Y197928D01*
X354516Y197855D01*
X354905Y197940D01*
X355207Y198148D01*
X356419Y199360D01*
X358742Y200322D01*
X361258Y200322D01*
X363581Y199360D01*
X365360Y197581D01*
X366322Y195258D01*
X366322Y192742D01*
X365360Y190419D01*
X363581Y188641D01*
X361258Y187678D01*
X358742Y187678D01*
X356419Y188641D01*
X355207Y189852D01*
X354875Y190072D01*
X354484Y190145D01*
X354095Y190060D01*
X353793Y189852D01*
X352581Y188641D01*
X350258Y187678D01*
X347742Y187678D01*
G37*
G36*
X339910Y170972D02*
X339910Y172237D01*
X341461Y175982D01*
X344328Y178849D01*
X348073Y180400D01*
X349338Y180400D01*
X349338Y170972D01*
X339910Y170972D01*
G37*
G36*
X322673Y160020D02*
X318928Y161571D01*
X316061Y164438D01*
X314510Y168183D01*
X314510Y172237D01*
X316061Y175982D01*
X318928Y178849D01*
X322673Y180400D01*
X326727Y180400D01*
X330472Y178849D01*
X333339Y175982D01*
X334890Y172237D01*
X334890Y168183D01*
X333339Y164438D01*
X330472Y161571D01*
X326727Y160020D01*
X322673Y160020D01*
G37*
G36*
X297273Y160020D02*
X293528Y161571D01*
X290661Y164438D01*
X289110Y168183D01*
X289110Y172237D01*
X290661Y175982D01*
X293528Y178849D01*
X297273Y180400D01*
X301327Y180400D01*
X305072Y178849D01*
X307939Y175982D01*
X309490Y172237D01*
X309490Y168183D01*
X307939Y164438D01*
X305072Y161571D01*
X301327Y160020D01*
X297273Y160020D01*
G37*
G36*
X271873Y160020D02*
X268128Y161571D01*
X265261Y164438D01*
X263710Y168183D01*
X263710Y172237D01*
X265261Y175982D01*
X268128Y178849D01*
X271873Y180400D01*
X275927Y180400D01*
X279672Y178849D01*
X282539Y175982D01*
X284090Y172237D01*
X284090Y168183D01*
X282539Y164438D01*
X279672Y161571D01*
X275927Y160020D01*
X271873Y160020D01*
G37*
G36*
X246473Y160020D02*
X242728Y161571D01*
X239861Y164438D01*
X238310Y168183D01*
X238310Y172237D01*
X239861Y175982D01*
X242728Y178849D01*
X246473Y180400D01*
X250527Y180400D01*
X254272Y178849D01*
X257139Y175982D01*
X258690Y172237D01*
X258690Y168183D01*
X257139Y164438D01*
X254272Y161571D01*
X250527Y160020D01*
X246473Y160020D01*
G37*
G36*
X17873Y160020D02*
X14128Y161571D01*
X11261Y164438D01*
X9710Y168183D01*
X9710Y172237D01*
X11261Y175982D01*
X14128Y178849D01*
X17873Y180400D01*
X21927Y180400D01*
X25672Y178849D01*
X28539Y175982D01*
X30090Y172237D01*
X30090Y168183D01*
X28539Y164438D01*
X25672Y161571D01*
X21927Y160020D01*
X17873Y160020D01*
G37*
G36*
X43273Y160020D02*
X39528Y161571D01*
X36661Y164438D01*
X35110Y168183D01*
X35110Y172237D01*
X36661Y175982D01*
X39528Y178849D01*
X43273Y180400D01*
X47327Y180400D01*
X51072Y178849D01*
X53939Y175982D01*
X55490Y172237D01*
X55490Y168183D01*
X53939Y164438D01*
X51072Y161571D01*
X47327Y160020D01*
X43273Y160020D01*
G37*
G36*
X221073Y7620D02*
X217328Y9171D01*
X214461Y12038D01*
X212910Y15783D01*
X212910Y19837D01*
X214461Y23582D01*
X217328Y26449D01*
X221073Y28000D01*
X223586Y28000D01*
X223976Y28079D01*
X224304Y28304D01*
X224519Y28640D01*
X224585Y29032D01*
X224494Y29419D01*
X224293Y29707D01*
X173293Y80707D01*
X172961Y80927D01*
X172586Y81000D01*
X154414Y81000D01*
X154024Y80921D01*
X153707Y80707D01*
X146293Y73293D01*
X146073Y72961D01*
X146000Y72586D01*
X146000Y68683D01*
X146079Y68293D01*
X146304Y67964D01*
X146640Y67750D01*
X147032Y67683D01*
X147383Y67759D01*
X148742Y68322D01*
X151258Y68322D01*
X153581Y67360D01*
X155293Y65648D01*
X155625Y65428D01*
X156016Y65355D01*
X156405Y65440D01*
X156707Y65648D01*
X158419Y67360D01*
X160742Y68322D01*
X163258Y68322D01*
X165581Y67360D01*
X167360Y65581D01*
X168322Y63258D01*
X168322Y60742D01*
X167360Y58419D01*
X165581Y56641D01*
X163258Y55678D01*
X160742Y55678D01*
X158419Y56641D01*
X156707Y58352D01*
X156375Y58572D01*
X155984Y58645D01*
X155595Y58560D01*
X155293Y58352D01*
X153581Y56641D01*
X151258Y55678D01*
X148742Y55678D01*
X147175Y56327D01*
X146785Y56403D01*
X146395Y56321D01*
X146114Y56084D01*
X146101Y56099D01*
X145996Y56010D01*
X145929Y56000D01*
X122039Y56000D01*
X122033Y56000D01*
X122009Y56008D01*
X122000Y56071D01*
X122000Y70961D01*
X122000Y70967D01*
X122008Y70991D01*
X122071Y71000D01*
X127000Y71000D01*
X127390Y71079D01*
X127718Y71304D01*
X127933Y71640D01*
X128000Y72000D01*
X128000Y75945D01*
X128004Y75983D01*
X128009Y75995D01*
X128050Y76050D01*
X144639Y92639D01*
X144858Y92970D01*
X144931Y93362D01*
X144846Y93750D01*
X144616Y94075D01*
X144314Y94270D01*
X143419Y94641D01*
X141641Y96419D01*
X140678Y98742D01*
X140678Y100901D01*
X140599Y101292D01*
X140385Y101609D01*
X126460Y115534D01*
X126460Y138119D01*
X126381Y138510D01*
X126167Y138827D01*
X109827Y155167D01*
X109495Y155387D01*
X109119Y155460D01*
X102044Y155460D01*
X101654Y155381D01*
X101325Y155156D01*
X101111Y154821D01*
X101044Y154428D01*
X101136Y154041D01*
X101371Y153720D01*
X101661Y153536D01*
X101872Y153449D01*
X104739Y150582D01*
X106290Y146837D01*
X106290Y142783D01*
X104739Y139038D01*
X101872Y136171D01*
X98127Y134620D01*
X94073Y134620D01*
X90328Y136171D01*
X87461Y139038D01*
X85910Y142783D01*
X85910Y146837D01*
X87461Y150582D01*
X90328Y153449D01*
X90539Y153536D01*
X90869Y153759D01*
X91086Y154092D01*
X91156Y154484D01*
X91067Y154872D01*
X90835Y155195D01*
X90494Y155401D01*
X90156Y155460D01*
X80444Y155460D01*
X75432Y160472D01*
X75100Y160692D01*
X74709Y160765D01*
X74342Y160689D01*
X72727Y160020D01*
X68673Y160020D01*
X64928Y161571D01*
X62061Y164438D01*
X60510Y168183D01*
X60510Y172237D01*
X62061Y175982D01*
X64928Y178849D01*
X68673Y180400D01*
X72727Y180400D01*
X76472Y178849D01*
X79339Y175982D01*
X80890Y172237D01*
X80890Y168183D01*
X80221Y166568D01*
X80145Y166178D01*
X80227Y165788D01*
X80438Y165478D01*
X83083Y162833D01*
X83415Y162613D01*
X83791Y162540D01*
X86945Y162540D01*
X87335Y162619D01*
X87663Y162844D01*
X87878Y163180D01*
X87944Y163572D01*
X87853Y163959D01*
X87652Y164247D01*
X87461Y164438D01*
X85910Y168183D01*
X85910Y172237D01*
X87461Y175982D01*
X90328Y178849D01*
X94073Y180400D01*
X98127Y180400D01*
X101872Y178849D01*
X104739Y175982D01*
X105408Y174367D01*
X105630Y174037D01*
X105964Y173820D01*
X106331Y173750D01*
X107256Y173750D01*
X109603Y171403D01*
X109935Y171184D01*
X110326Y171111D01*
X110715Y171196D01*
X111039Y171426D01*
X111248Y171765D01*
X111310Y172111D01*
X111310Y172237D01*
X112861Y175982D01*
X115728Y178849D01*
X119473Y180400D01*
X123527Y180400D01*
X127272Y178849D01*
X130139Y175982D01*
X131690Y172237D01*
X131690Y168183D01*
X130139Y164438D01*
X127272Y161571D01*
X123527Y160020D01*
X123401Y160020D01*
X123011Y159941D01*
X122682Y159716D01*
X122468Y159381D01*
X122401Y158988D01*
X122493Y158601D01*
X122693Y158313D01*
X138540Y142466D01*
X138540Y137895D01*
X138619Y137505D01*
X138844Y137177D01*
X139180Y136962D01*
X139572Y136895D01*
X139959Y136987D01*
X140247Y137188D01*
X140419Y137360D01*
X142742Y138322D01*
X145258Y138322D01*
X147581Y137360D01*
X149360Y135581D01*
X150322Y133258D01*
X150322Y130742D01*
X149360Y128419D01*
X147581Y126641D01*
X145258Y125678D01*
X142742Y125678D01*
X140419Y126641D01*
X140247Y126812D01*
X139915Y127032D01*
X139524Y127105D01*
X139135Y127020D01*
X138811Y126789D01*
X138602Y126451D01*
X138540Y126105D01*
X138540Y123881D01*
X138619Y123491D01*
X138833Y123173D01*
X155391Y106615D01*
X155723Y106395D01*
X156099Y106322D01*
X158258Y106322D01*
X160617Y105345D01*
X161008Y105268D01*
X161397Y105351D01*
X161724Y105578D01*
X161936Y105915D01*
X162000Y106268D01*
X162000Y107961D01*
X162000Y107967D01*
X162008Y107991D01*
X162071Y108000D01*
X165000Y108000D01*
X165390Y108079D01*
X165718Y108304D01*
X165933Y108640D01*
X166000Y109000D01*
X166000Y139586D01*
X165921Y139976D01*
X165707Y140293D01*
X147028Y158972D01*
X147023Y158977D01*
X147010Y159003D01*
X146981Y159138D01*
X146957Y159337D01*
X146758Y159682D01*
X146440Y159922D01*
X146009Y160020D01*
X144873Y160020D01*
X141128Y161571D01*
X138261Y164438D01*
X136710Y168183D01*
X136710Y172237D01*
X138261Y175982D01*
X141128Y178849D01*
X144873Y180400D01*
X148927Y180400D01*
X152672Y178849D01*
X155539Y175982D01*
X157090Y172237D01*
X157090Y169324D01*
X157169Y168934D01*
X157383Y168617D01*
X161591Y164409D01*
X161923Y164189D01*
X162314Y164116D01*
X162703Y164202D01*
X163027Y164432D01*
X163236Y164771D01*
X163297Y165164D01*
X163222Y165499D01*
X162110Y168183D01*
X162110Y172237D01*
X163661Y175982D01*
X166528Y178849D01*
X170273Y180400D01*
X174327Y180400D01*
X178072Y178849D01*
X180939Y175982D01*
X182490Y172237D01*
X182490Y168183D01*
X181878Y166705D01*
X181802Y166314D01*
X181884Y165925D01*
X182112Y165598D01*
X182448Y165386D01*
X182802Y165322D01*
X184258Y165322D01*
X186581Y164360D01*
X187316Y163625D01*
X187647Y163405D01*
X188039Y163332D01*
X188427Y163418D01*
X188752Y163648D01*
X188961Y163987D01*
X189022Y164380D01*
X188947Y164715D01*
X187510Y168183D01*
X187510Y172237D01*
X189061Y175982D01*
X191928Y178849D01*
X195673Y180400D01*
X199727Y180400D01*
X203472Y178849D01*
X206339Y175982D01*
X207890Y172237D01*
X207890Y169304D01*
X207969Y168914D01*
X208194Y168586D01*
X208530Y168371D01*
X208922Y168305D01*
X209309Y168396D01*
X209597Y168597D01*
X210972Y169972D01*
X210977Y169977D01*
X210999Y169988D01*
X211050Y169950D01*
X211203Y169797D01*
X211535Y169577D01*
X211926Y169504D01*
X212315Y169590D01*
X212639Y169820D01*
X212848Y170159D01*
X212910Y170504D01*
X212910Y172237D01*
X214461Y175982D01*
X217328Y178849D01*
X221073Y180400D01*
X225127Y180400D01*
X228872Y178849D01*
X231739Y175982D01*
X233290Y172237D01*
X233290Y168183D01*
X231739Y164438D01*
X228872Y161571D01*
X225127Y160020D01*
X221434Y160020D01*
X221044Y159941D01*
X220727Y159727D01*
X201039Y140039D01*
X201009Y140015D01*
X200997Y140010D01*
X200929Y140000D01*
X181000Y140000D01*
X180610Y139921D01*
X180282Y139696D01*
X180067Y139361D01*
X180000Y139000D01*
X180000Y109000D01*
X180079Y108610D01*
X180304Y108282D01*
X180640Y108067D01*
X181000Y108000D01*
X185961Y108000D01*
X185967Y108000D01*
X185991Y107992D01*
X186000Y107929D01*
X186000Y88414D01*
X186079Y88024D01*
X186293Y87707D01*
X229639Y44361D01*
X229970Y44142D01*
X230362Y44069D01*
X230750Y44154D01*
X231075Y44384D01*
X231270Y44686D01*
X231641Y45581D01*
X233419Y47360D01*
X233942Y47576D01*
X234272Y47799D01*
X234489Y48132D01*
X234559Y48524D01*
X234470Y48912D01*
X234237Y49235D01*
X233942Y49424D01*
X233419Y49641D01*
X231641Y51419D01*
X230678Y53742D01*
X230678Y56258D01*
X231641Y58581D01*
X233419Y60360D01*
X235742Y61322D01*
X238258Y61322D01*
X240581Y60360D01*
X242360Y58581D01*
X243322Y56258D01*
X243322Y53742D01*
X242360Y51419D01*
X240581Y49641D01*
X240058Y49424D01*
X239728Y49201D01*
X239511Y48868D01*
X239441Y48476D01*
X239530Y48088D01*
X239763Y47765D01*
X240058Y47576D01*
X240581Y47360D01*
X242360Y45581D01*
X243322Y43258D01*
X243322Y40742D01*
X243173Y40383D01*
X243097Y39992D01*
X243179Y39603D01*
X243407Y39276D01*
X243744Y39064D01*
X244097Y39000D01*
X260000Y39000D01*
X260390Y39079D01*
X260718Y39304D01*
X260933Y39640D01*
X261000Y40000D01*
X261000Y49961D01*
X261000Y49967D01*
X261008Y49991D01*
X261071Y50000D01*
X276961Y50000D01*
X276967Y50000D01*
X276991Y49992D01*
X277000Y49929D01*
X277000Y40000D01*
X277079Y39610D01*
X277304Y39282D01*
X277640Y39067D01*
X278000Y39000D01*
X280586Y39000D01*
X280976Y39079D01*
X281293Y39293D01*
X285053Y43053D01*
X285273Y43385D01*
X285346Y43776D01*
X285260Y44165D01*
X285030Y44489D01*
X284728Y44684D01*
X282419Y45641D01*
X280641Y47419D01*
X279678Y49742D01*
X279678Y52258D01*
X280641Y54581D01*
X281352Y55293D01*
X281572Y55625D01*
X281645Y56016D01*
X281560Y56405D01*
X281352Y56707D01*
X280641Y57419D01*
X279678Y59742D01*
X279678Y62258D01*
X280641Y64581D01*
X282419Y66360D01*
X284742Y67322D01*
X287258Y67322D01*
X289581Y66360D01*
X291360Y64581D01*
X292322Y62258D01*
X292322Y59742D01*
X291360Y57419D01*
X290648Y56707D01*
X290428Y56375D01*
X290355Y55984D01*
X290440Y55595D01*
X290648Y55293D01*
X291360Y54581D01*
X292316Y52272D01*
X292539Y51942D01*
X292872Y51724D01*
X293264Y51655D01*
X293652Y51743D01*
X293947Y51947D01*
X311293Y69293D01*
X311513Y69625D01*
X311586Y70016D01*
X311500Y70405D01*
X311293Y70707D01*
X259028Y122972D01*
X259023Y122977D01*
X259012Y122999D01*
X259050Y123050D01*
X268972Y132972D01*
X268977Y132977D01*
X268999Y132988D01*
X269050Y132950D01*
X325053Y76947D01*
X325385Y76727D01*
X325776Y76654D01*
X326165Y76740D01*
X326489Y76970D01*
X326684Y77272D01*
X327641Y79581D01*
X329419Y81360D01*
X329942Y81576D01*
X330272Y81799D01*
X330489Y82132D01*
X330559Y82524D01*
X330470Y82912D01*
X330237Y83235D01*
X329942Y83424D01*
X329419Y83641D01*
X327641Y85419D01*
X326678Y87742D01*
X326678Y90258D01*
X327641Y92581D01*
X329419Y94360D01*
X331742Y95322D01*
X334258Y95322D01*
X336581Y94360D01*
X338360Y92581D01*
X339322Y90258D01*
X339322Y87742D01*
X338360Y85419D01*
X336581Y83641D01*
X336058Y83424D01*
X335728Y83201D01*
X335511Y82868D01*
X335441Y82476D01*
X335530Y82088D01*
X335763Y81765D01*
X336058Y81576D01*
X336581Y81360D01*
X338360Y79581D01*
X339322Y77258D01*
X339322Y74742D01*
X338360Y72419D01*
X338293Y72352D01*
X338073Y72020D01*
X338000Y71645D01*
X338000Y60039D01*
X338000Y60033D01*
X337992Y60009D01*
X337929Y60000D01*
X332234Y60000D01*
X331851Y59924D01*
X331258Y59678D01*
X328742Y59678D01*
X328149Y59924D01*
X327766Y60000D01*
X322414Y60000D01*
X322024Y59921D01*
X321707Y59707D01*
X287039Y25039D01*
X287009Y25015D01*
X286997Y25010D01*
X286929Y25000D01*
X283448Y25000D01*
X283058Y24921D01*
X282730Y24696D01*
X282515Y24361D01*
X282449Y23968D01*
X282524Y23617D01*
X284090Y19837D01*
X284090Y15783D01*
X282539Y12038D01*
X279672Y9171D01*
X275927Y7620D01*
X271873Y7620D01*
X268128Y9171D01*
X265261Y12038D01*
X263710Y15783D01*
X263710Y19837D01*
X265276Y23617D01*
X265352Y24008D01*
X265270Y24397D01*
X265042Y24724D01*
X264705Y24936D01*
X264352Y25000D01*
X258048Y25000D01*
X257658Y24921D01*
X257330Y24696D01*
X257115Y24361D01*
X257049Y23968D01*
X257124Y23617D01*
X258690Y19837D01*
X258690Y15783D01*
X257139Y12038D01*
X254272Y9171D01*
X250527Y7620D01*
X246473Y7620D01*
X242728Y9171D01*
X239861Y12038D01*
X238310Y15783D01*
X238310Y19837D01*
X239876Y23617D01*
X239952Y24008D01*
X239870Y24397D01*
X239642Y24724D01*
X239305Y24936D01*
X238952Y25000D01*
X232648Y25000D01*
X232258Y24921D01*
X231930Y24696D01*
X231715Y24361D01*
X231649Y23968D01*
X231724Y23617D01*
X233290Y19837D01*
X233290Y15783D01*
X231739Y12038D01*
X228872Y9171D01*
X225127Y7620D01*
X221073Y7620D01*
G37*
G36*
X350862Y170972D02*
X350862Y180400D01*
X352127Y180400D01*
X355872Y178849D01*
X358739Y175982D01*
X360290Y172237D01*
X360290Y170972D01*
X350862Y170972D01*
G37*
G36*
X348073Y160020D02*
X344328Y161571D01*
X341461Y164438D01*
X339910Y168183D01*
X339910Y169448D01*
X349338Y169448D01*
X349338Y160020D01*
X348073Y160020D01*
G37*
G36*
X350862Y160020D02*
X350862Y169448D01*
X360290Y169448D01*
X360290Y168183D01*
X358739Y164438D01*
X355872Y161571D01*
X352127Y160020D01*
X350862Y160020D01*
G37*
G36*
X68673Y134620D02*
X64928Y136171D01*
X62061Y139038D01*
X60510Y142783D01*
X60510Y146837D01*
X62061Y150582D01*
X64928Y153449D01*
X68673Y155000D01*
X72727Y155000D01*
X76472Y153449D01*
X79339Y150582D01*
X80890Y146837D01*
X80890Y142783D01*
X79339Y139038D01*
X76472Y136171D01*
X72727Y134620D01*
X68673Y134620D01*
G37*
G36*
X17873Y134620D02*
X14128Y136171D01*
X11261Y139038D01*
X9710Y142783D01*
X9710Y146837D01*
X11261Y150582D01*
X14128Y153449D01*
X17873Y155000D01*
X21927Y155000D01*
X25672Y153449D01*
X28539Y150582D01*
X30090Y146837D01*
X30090Y142783D01*
X28539Y139038D01*
X25672Y136171D01*
X21927Y134620D01*
X17873Y134620D01*
G37*
G36*
X329742Y102678D02*
X327419Y103641D01*
X325641Y105419D01*
X324678Y107742D01*
X324678Y110258D01*
X325641Y112581D01*
X326352Y113293D01*
X326572Y113625D01*
X326645Y114016D01*
X326560Y114405D01*
X326352Y114707D01*
X325641Y115419D01*
X324678Y117742D01*
X324678Y120258D01*
X325641Y122581D01*
X326573Y123514D01*
X326793Y123846D01*
X326866Y124237D01*
X326781Y124626D01*
X326573Y124928D01*
X325641Y125861D01*
X324678Y128184D01*
X324678Y130700D01*
X325641Y133023D01*
X327419Y134802D01*
X329742Y135764D01*
X332258Y135764D01*
X334581Y134802D01*
X336360Y133023D01*
X337322Y130700D01*
X337322Y128184D01*
X336360Y125861D01*
X335427Y124928D01*
X335207Y124596D01*
X335134Y124205D01*
X335219Y123816D01*
X335427Y123514D01*
X336360Y122581D01*
X337322Y120258D01*
X337322Y117742D01*
X336360Y115419D01*
X335648Y114707D01*
X335428Y114375D01*
X335355Y113984D01*
X335440Y113595D01*
X335648Y113293D01*
X336360Y112581D01*
X337322Y110258D01*
X337322Y107742D01*
X336360Y105419D01*
X334581Y103641D01*
X332258Y102678D01*
X329742Y102678D01*
G37*
G36*
X17873Y109220D02*
X14128Y110771D01*
X11261Y113638D01*
X9710Y117383D01*
X9710Y121437D01*
X11261Y125182D01*
X14128Y128049D01*
X17873Y129600D01*
X21927Y129600D01*
X25672Y128049D01*
X28539Y125182D01*
X30090Y121437D01*
X30090Y117383D01*
X28539Y113638D01*
X25672Y110771D01*
X21927Y109220D01*
X17873Y109220D01*
G37*
G36*
X68673Y109220D02*
X64928Y110771D01*
X62061Y113638D01*
X60510Y117383D01*
X60510Y121437D01*
X62061Y125182D01*
X64928Y128049D01*
X68673Y129600D01*
X72727Y129600D01*
X76472Y128049D01*
X79339Y125182D01*
X80890Y121437D01*
X80890Y117383D01*
X79339Y113638D01*
X76472Y110771D01*
X72727Y109220D01*
X68673Y109220D01*
G37*
G36*
X94073Y109220D02*
X90328Y110771D01*
X87461Y113638D01*
X85910Y117383D01*
X85910Y121437D01*
X87461Y125182D01*
X90328Y128049D01*
X94073Y129600D01*
X98127Y129600D01*
X101872Y128049D01*
X104739Y125182D01*
X106290Y121437D01*
X106290Y117383D01*
X104739Y113638D01*
X101872Y110771D01*
X98127Y109220D01*
X94073Y109220D01*
G37*
G36*
X235742Y116678D02*
X233419Y117641D01*
X231641Y119419D01*
X230678Y121742D01*
X230678Y124258D01*
X231641Y126581D01*
X233419Y128360D01*
X235742Y129322D01*
X238258Y129322D01*
X240581Y128360D01*
X242360Y126581D01*
X243322Y124258D01*
X243322Y121742D01*
X242360Y119419D01*
X240581Y117641D01*
X238258Y116678D01*
X235742Y116678D01*
G37*
G36*
X235742Y101678D02*
X233419Y102641D01*
X231641Y104419D01*
X230678Y106742D01*
X230678Y109258D01*
X231641Y111581D01*
X233419Y113360D01*
X235742Y114322D01*
X238258Y114322D01*
X240581Y113360D01*
X242360Y111581D01*
X243322Y109258D01*
X243322Y106742D01*
X242360Y104419D01*
X240581Y102641D01*
X238258Y101678D01*
X235742Y101678D01*
G37*
G36*
X20662Y94772D02*
X20662Y104200D01*
X21927Y104200D01*
X25672Y102649D01*
X28539Y99782D01*
X30090Y96037D01*
X30090Y94772D01*
X20662Y94772D01*
G37*
G36*
X94073Y83820D02*
X90328Y85371D01*
X87461Y88238D01*
X85910Y91983D01*
X85910Y96037D01*
X87461Y99782D01*
X90328Y102649D01*
X94073Y104200D01*
X98127Y104200D01*
X101872Y102649D01*
X104739Y99782D01*
X106290Y96037D01*
X106290Y91983D01*
X104739Y88238D01*
X101872Y85371D01*
X98127Y83820D01*
X94073Y83820D01*
G37*
G36*
X68673Y83820D02*
X64928Y85371D01*
X62061Y88238D01*
X60510Y91983D01*
X60510Y96037D01*
X62061Y99782D01*
X64928Y102649D01*
X68673Y104200D01*
X72727Y104200D01*
X76472Y102649D01*
X79339Y99782D01*
X80890Y96037D01*
X80890Y91983D01*
X79339Y88238D01*
X76472Y85371D01*
X72727Y83820D01*
X68673Y83820D01*
G37*
G36*
X9710Y94772D02*
X9710Y96037D01*
X11261Y99782D01*
X14128Y102649D01*
X17873Y104200D01*
X19138Y104200D01*
X19138Y94772D01*
X9710Y94772D01*
G37*
G36*
X17873Y83820D02*
X14128Y85371D01*
X11261Y88238D01*
X9710Y91983D01*
X9710Y93248D01*
X19138Y93248D01*
X19138Y83820D01*
X17873Y83820D01*
G37*
G36*
X20662Y83820D02*
X20662Y93248D01*
X30090Y93248D01*
X30090Y91983D01*
X28539Y88238D01*
X25672Y85371D01*
X21927Y83820D01*
X20662Y83820D01*
G37*
G36*
X94073Y58420D02*
X90328Y59971D01*
X87461Y62838D01*
X85910Y66583D01*
X85910Y70637D01*
X87461Y74382D01*
X90328Y77249D01*
X94073Y78800D01*
X98127Y78800D01*
X101872Y77249D01*
X104739Y74382D01*
X106290Y70637D01*
X106290Y66583D01*
X104739Y62838D01*
X101872Y59971D01*
X98127Y58420D01*
X94073Y58420D01*
G37*
G36*
X68673Y58420D02*
X64928Y59971D01*
X62061Y62838D01*
X60510Y66583D01*
X60510Y70637D01*
X62061Y74382D01*
X64928Y77249D01*
X68673Y78800D01*
X72727Y78800D01*
X76472Y77249D01*
X79339Y74382D01*
X80890Y70637D01*
X80890Y66583D01*
X79339Y62838D01*
X76472Y59971D01*
X72727Y58420D01*
X68673Y58420D01*
G37*
G36*
X17873Y58420D02*
X14128Y59971D01*
X11261Y62838D01*
X9710Y66583D01*
X9710Y70637D01*
X11261Y74382D01*
X14128Y77249D01*
X17873Y78800D01*
X21927Y78800D01*
X25672Y77249D01*
X28539Y74382D01*
X30090Y70637D01*
X30090Y66583D01*
X28539Y62838D01*
X25672Y59971D01*
X21927Y58420D01*
X17873Y58420D01*
G37*
G36*
X353742Y49678D02*
X351419Y50641D01*
X349641Y52419D01*
X348678Y54742D01*
X348678Y57258D01*
X349641Y59581D01*
X351419Y61360D01*
X353742Y62322D01*
X356258Y62322D01*
X358581Y61360D01*
X360360Y59581D01*
X361322Y57258D01*
X361322Y54742D01*
X360360Y52419D01*
X358581Y50641D01*
X356258Y49678D01*
X353742Y49678D01*
G37*
G36*
X94073Y33020D02*
X90328Y34571D01*
X87461Y37438D01*
X85910Y41183D01*
X85910Y45237D01*
X87461Y48982D01*
X90328Y51849D01*
X94073Y53400D01*
X98127Y53400D01*
X101872Y51849D01*
X104739Y48982D01*
X106290Y45237D01*
X106290Y41183D01*
X104739Y37438D01*
X101872Y34571D01*
X98127Y33020D01*
X94073Y33020D01*
G37*
G36*
X68673Y33020D02*
X64928Y34571D01*
X62061Y37438D01*
X60510Y41183D01*
X60510Y45237D01*
X62061Y48982D01*
X64928Y51849D01*
X68673Y53400D01*
X72727Y53400D01*
X76472Y51849D01*
X79339Y48982D01*
X80890Y45237D01*
X80890Y41183D01*
X79339Y37438D01*
X76472Y34571D01*
X72727Y33020D01*
X68673Y33020D01*
G37*
G36*
X17873Y33020D02*
X14128Y34571D01*
X11261Y37438D01*
X9710Y41183D01*
X9710Y45237D01*
X11261Y48982D01*
X14128Y51849D01*
X17873Y53400D01*
X21927Y53400D01*
X25672Y51849D01*
X28539Y48982D01*
X30090Y45237D01*
X30090Y41183D01*
X28539Y37438D01*
X25672Y34571D01*
X21927Y33020D01*
X17873Y33020D01*
G37*
G36*
X348073Y7620D02*
X344328Y9171D01*
X341461Y12038D01*
X339910Y15783D01*
X339910Y19837D01*
X341461Y23582D01*
X344328Y26449D01*
X348073Y28000D01*
X352127Y28000D01*
X355872Y26449D01*
X358739Y23582D01*
X360290Y19837D01*
X360290Y15783D01*
X358739Y12038D01*
X355872Y9171D01*
X352127Y7620D01*
X348073Y7620D01*
G37*
G36*
X314510Y18572D02*
X314510Y19837D01*
X316061Y23582D01*
X318928Y26449D01*
X322673Y28000D01*
X326727Y28000D01*
X330472Y26449D01*
X333339Y23582D01*
X334890Y19837D01*
X334890Y18572D01*
X314510Y18572D01*
G37*
G36*
X297273Y7620D02*
X293528Y9171D01*
X290661Y12038D01*
X289110Y15783D01*
X289110Y19837D01*
X290661Y23582D01*
X293528Y26449D01*
X297273Y28000D01*
X301327Y28000D01*
X305072Y26449D01*
X307939Y23582D01*
X309490Y19837D01*
X309490Y15783D01*
X307939Y12038D01*
X305072Y9171D01*
X301327Y7620D01*
X297273Y7620D01*
G37*
G36*
X195673Y7620D02*
X191928Y9171D01*
X189061Y12038D01*
X187510Y15783D01*
X187510Y19837D01*
X189061Y23582D01*
X191928Y26449D01*
X195673Y28000D01*
X199727Y28000D01*
X203472Y26449D01*
X206339Y23582D01*
X207890Y19837D01*
X207890Y15783D01*
X206339Y12038D01*
X203472Y9171D01*
X199727Y7620D01*
X195673Y7620D01*
G37*
G36*
X170273Y7620D02*
X166528Y9171D01*
X163661Y12038D01*
X162110Y15783D01*
X162110Y19837D01*
X163661Y23582D01*
X166528Y26449D01*
X170273Y28000D01*
X174327Y28000D01*
X178072Y26449D01*
X180939Y23582D01*
X182490Y19837D01*
X182490Y15783D01*
X180939Y12038D01*
X178072Y9171D01*
X174327Y7620D01*
X170273Y7620D01*
G37*
G36*
X144873Y7620D02*
X141128Y9171D01*
X138261Y12038D01*
X136710Y15783D01*
X136710Y19837D01*
X138261Y23582D01*
X141128Y26449D01*
X144873Y28000D01*
X148927Y28000D01*
X152672Y26449D01*
X155539Y23582D01*
X157090Y19837D01*
X157090Y15783D01*
X155539Y12038D01*
X152672Y9171D01*
X148927Y7620D01*
X144873Y7620D01*
G37*
G36*
X119473Y7620D02*
X115728Y9171D01*
X112861Y12038D01*
X111310Y15783D01*
X111310Y19837D01*
X112861Y23582D01*
X115728Y26449D01*
X119473Y28000D01*
X123527Y28000D01*
X127272Y26449D01*
X130139Y23582D01*
X131690Y19837D01*
X131690Y15783D01*
X130139Y12038D01*
X127272Y9171D01*
X123527Y7620D01*
X119473Y7620D01*
G37*
G36*
X94073Y7620D02*
X90328Y9171D01*
X87461Y12038D01*
X85910Y15783D01*
X85910Y19837D01*
X87461Y23582D01*
X90328Y26449D01*
X94073Y28000D01*
X98127Y28000D01*
X101872Y26449D01*
X104739Y23582D01*
X106290Y19837D01*
X106290Y15783D01*
X104739Y12038D01*
X101872Y9171D01*
X98127Y7620D01*
X94073Y7620D01*
G37*
G36*
X68673Y7620D02*
X64928Y9171D01*
X62061Y12038D01*
X60510Y15783D01*
X60510Y19837D01*
X62061Y23582D01*
X64928Y26449D01*
X68673Y28000D01*
X72727Y28000D01*
X76472Y26449D01*
X79339Y23582D01*
X80890Y19837D01*
X80890Y15783D01*
X79339Y12038D01*
X76472Y9171D01*
X72727Y7620D01*
X68673Y7620D01*
G37*
G36*
X43273Y7620D02*
X39528Y9171D01*
X36661Y12038D01*
X35110Y15783D01*
X35110Y19837D01*
X36661Y23582D01*
X39528Y26449D01*
X43273Y28000D01*
X47327Y28000D01*
X51072Y26449D01*
X53939Y23582D01*
X55490Y19837D01*
X55490Y15783D01*
X53939Y12038D01*
X51072Y9171D01*
X47327Y7620D01*
X43273Y7620D01*
G37*
G36*
X17873Y7620D02*
X14128Y9171D01*
X11261Y12038D01*
X9710Y15783D01*
X9710Y19837D01*
X11261Y23582D01*
X14128Y26449D01*
X17873Y28000D01*
X21927Y28000D01*
X25672Y26449D01*
X28539Y23582D01*
X30090Y19837D01*
X30090Y15783D01*
X28539Y12038D01*
X25672Y9171D01*
X21927Y7620D01*
X17873Y7620D01*
G37*
G36*
X325462Y7620D02*
X325462Y17048D01*
X334890Y17048D01*
X334890Y15783D01*
X333339Y12038D01*
X330472Y9171D01*
X326727Y7620D01*
X325462Y7620D01*
G37*
G36*
X322673Y7620D02*
X318928Y9171D01*
X316061Y12038D01*
X314510Y15783D01*
X314510Y17048D01*
X323938Y17048D01*
X323938Y7620D01*
X322673Y7620D01*
G37*
%LPD*%
D10*
X19900Y170210D03*
X45300Y170210D03*
X70700Y170210D03*
X96100Y170210D03*
X121500Y170210D03*
X146900Y170210D03*
X172300Y170210D03*
X197700Y170210D03*
X223100Y170210D03*
X248500Y170210D03*
X273900Y170210D03*
X299300Y170210D03*
X324700Y170210D03*
X350100Y170210D03*
X19900Y17810D03*
X45300Y17810D03*
X70700Y17810D03*
X96100Y17810D03*
X121500Y17810D03*
X146900Y17810D03*
X172300Y17810D03*
X197700Y17810D03*
X223100Y17810D03*
X248500Y17810D03*
X273900Y17810D03*
X299300Y17810D03*
X324700Y17810D03*
X350100Y17810D03*
X19900Y144810D03*
X19900Y119410D03*
X19900Y94010D03*
X19900Y68610D03*
X19900Y43210D03*
X70700Y43210D03*
X96100Y43210D03*
X70700Y68610D03*
X96100Y68610D03*
X70700Y94010D03*
X96100Y94010D03*
X70700Y119410D03*
X96100Y119410D03*
X70700Y144810D03*
X96100Y144810D03*
D11*
X86000Y593000D03*
X133000Y362000D03*
X220004Y388500D03*
X350000Y155000D03*
X365000Y170000D03*
X364000Y11000D03*
X9000Y10000D03*
X39000Y94000D03*
X11000Y31000D03*
X11000Y56000D03*
X11000Y81000D03*
X11000Y107000D03*
X11000Y132000D03*
X11000Y158000D03*
X11000Y189000D03*
X365000Y94000D03*
X11000Y614000D03*
X31000Y614000D03*
X51000Y614000D03*
X71000Y614000D03*
X91000Y614000D03*
X111000Y614000D03*
X131000Y614000D03*
X151000Y614000D03*
X11000Y594000D03*
X11000Y574000D03*
X11000Y554000D03*
X11000Y534000D03*
X11000Y514000D03*
X11000Y494000D03*
X11000Y474000D03*
X11000Y454000D03*
X11000Y434000D03*
X11000Y414000D03*
X11000Y394000D03*
X11000Y374000D03*
X11000Y354000D03*
X11000Y334000D03*
X11000Y314000D03*
X11000Y294000D03*
X11000Y274000D03*
X11000Y254000D03*
X11000Y234000D03*
X11000Y214000D03*
X68000Y218000D03*
X68000Y207000D03*
X258000Y205000D03*
X296000Y223000D03*
X261000Y286000D03*
X317000Y283000D03*
X337000Y289000D03*
X324000Y263000D03*
X232000Y256000D03*
X232000Y202000D03*
X337000Y441000D03*
X285000Y351000D03*
X325000Y416000D03*
X268000Y455000D03*
X244000Y432000D03*
X259000Y364000D03*
X175000Y435000D03*
X117000Y421000D03*
X98000Y533000D03*
X59000Y495000D03*
X98000Y557000D03*
X180000Y592000D03*
X165000Y479000D03*
X53000Y461000D03*
X53000Y440000D03*
X53000Y419000D03*
X53000Y398000D03*
X181000Y454000D03*
X136000Y474000D03*
X151000Y286000D03*
X236000Y271000D03*
X199000Y294000D03*
X135000Y153000D03*
X269000Y110000D03*
X276000Y75000D03*
X275000Y61000D03*
X285500Y392000D03*
X285500Y430000D03*
X96000Y429000D03*
X96000Y413000D03*
X137000Y452000D03*
X144000Y557000D03*
X194000Y557000D03*
X84000Y522000D03*
X237000Y55000D03*
X237000Y108000D03*
X232000Y361000D03*
X224000Y273000D03*
X336000Y416000D03*
X267000Y329000D03*
X186000Y325000D03*
X205000Y325306D03*
X151000Y406000D03*
X176000Y409000D03*
X198000Y273000D03*
X171000Y334000D03*
D12*
X171000Y323000D01*
X190000Y304000D01*
X190000Y281000D01*
X198000Y273000D01*
D11*
X158000Y334000D03*
D12*
X158000Y329000D02*
X185000Y302000D01*
X158000Y329000D02*
X158000Y334000D01*
D11*
X185000Y273000D03*
D12*
X185000Y302000D01*
D11*
X232000Y349000D03*
X211000Y273000D03*
X144000Y433000D03*
X142000Y414000D03*
X143000Y334000D03*
D12*
X161000Y314435D01*
X161000Y273000D01*
D11*
X161000Y273000D03*
X245000Y393000D03*
X307000Y429000D03*
X118000Y362000D03*
X260000Y268000D03*
X297000Y206000D03*
X318000Y300000D03*
X338000Y364000D03*
X249000Y302000D03*
X79000Y276000D03*
X89000Y276000D03*
X229000Y414000D03*
X196000Y453000D03*
X53000Y378000D03*
D13*
X97000Y378000D01*
D11*
X111000Y430000D03*
X255000Y222000D03*
X174000Y302500D03*
D13*
X174000Y266000D01*
X218000Y222000D01*
X255000Y222000D01*
X97000Y378000D02*
X108154Y389154D01*
X108154Y427154D01*
X111000Y430000D01*
D11*
X336000Y405000D03*
X278000Y329000D03*
X336000Y427000D03*
X150000Y62000D03*
X162000Y62000D03*
X147000Y100000D03*
D14*
X81910Y159000D02*
X70700Y170210D01*
X81910Y159000D02*
X111000Y159000D01*
X130000Y140000D01*
X130000Y117000D01*
X147000Y100000D01*
D11*
X157000Y100000D03*
D14*
X105790Y170210D02*
X96100Y170210D01*
X105790Y170210D02*
X135000Y141000D01*
X135000Y122000D01*
X157000Y100000D01*
D11*
X253000Y247000D03*
X296850Y247150D03*
X346000Y218000D03*
X92000Y237000D03*
X142000Y237000D03*
X260000Y309000D03*
X112000Y237000D03*
X102000Y237000D03*
X132000Y237000D03*
X122000Y237000D03*
X360000Y194000D03*
X360000Y595000D03*
X349000Y194000D03*
X345000Y595000D03*
X130000Y571000D03*
X182000Y571000D03*
X209000Y503000D03*
X134000Y495000D03*
X269000Y42000D03*
X157000Y159000D03*
X210000Y159000D03*
X168000Y100000D03*
X178000Y100000D03*
X140000Y64000D03*
X130000Y64000D03*
D13*
X135000Y64000D01*
X140000Y64000D01*
X168000Y100000D02*
X173000Y100000D01*
X178000Y100000D01*
X169000Y147000D02*
X157000Y159000D01*
X169000Y147000D02*
X173000Y147000D01*
X198000Y147000D01*
X210000Y159000D01*
D11*
X269000Y123000D03*
D13*
X173000Y100000D02*
X173000Y147000D01*
X135000Y72000D02*
X135000Y64000D01*
X173000Y88000D02*
X173000Y100000D01*
D11*
X330000Y66000D03*
X320000Y66000D03*
D13*
X286000Y32000D01*
X320000Y66000D02*
X330000Y66000D01*
X151000Y88000D02*
X135000Y72000D01*
X151000Y88000D02*
X173000Y88000D01*
X269000Y32000D02*
X286000Y32000D01*
X269000Y32000D02*
X232000Y32000D01*
X176000Y88000D01*
X173000Y88000D01*
X269000Y42000D02*
X269000Y32000D01*
X320000Y72000D02*
X269000Y123000D01*
X320000Y72000D02*
X320000Y66000D01*
D11*
X237000Y42000D03*
X237000Y123000D03*
X144000Y132000D03*
X183000Y159000D03*
X286000Y61000D03*
X286000Y51000D03*
X224000Y495000D03*
X147000Y495000D03*
X331000Y129442D03*
X331000Y119000D03*
X331000Y109000D03*
X333000Y89000D03*
X333000Y76000D03*
X355000Y56000D03*
M02*
