G04 EAGLE Gerber RS-274X export*
G75*
%MOMM*%
%FSLAX34Y34*%
%LPD*%
%INTop Copper*%
%IPPOS*%
%AMOC8*
5,1,8,0,0,1.08239X$1,22.5*%
G01*
G04 Define Apertures*
%ADD10R,1.100000X1.000000*%
%ADD11R,1.000000X1.100000*%
%ADD12R,1.000000X0.450000*%
%ADD13R,0.450000X1.000000*%
%ADD14R,1.422400X0.304800*%
%ADD15C,1.530000*%
%ADD16R,2.000000X0.600000*%
%ADD17R,4.200000X0.700000*%
%ADD18R,0.304800X1.422400*%
%ADD19R,1.164600X1.465300*%
%ADD20R,0.611800X0.911800*%
%ADD21R,2.000000X2.000000*%
%ADD22R,0.550000X1.800000*%
%ADD23R,1.300000X1.000000*%
%ADD24R,1.000000X1.300000*%
%ADD25C,0.304800*%
%ADD26C,0.756400*%
%ADD27C,0.203200*%
%ADD28C,0.200000*%
%ADD29C,0.508000*%
%ADD30C,0.254000*%
%ADD31C,0.300000*%
%ADD32C,0.152400*%
G36*
X371995Y2600D02*
X372245Y2772D01*
X372409Y3027D01*
X372460Y3302D01*
X372460Y478198D01*
X372400Y478495D01*
X372228Y478745D01*
X371973Y478909D01*
X371698Y478960D01*
X368552Y478960D01*
X368255Y478900D01*
X368005Y478728D01*
X367841Y478473D01*
X367790Y478198D01*
X367790Y473948D01*
X366302Y472460D01*
X354198Y472460D01*
X353289Y473369D01*
X353036Y473537D01*
X352738Y473592D01*
X352442Y473527D01*
X352211Y473369D01*
X351302Y472460D01*
X339198Y472460D01*
X338289Y473369D01*
X338036Y473537D01*
X337738Y473592D01*
X337442Y473527D01*
X337211Y473369D01*
X336302Y472460D01*
X324198Y472460D01*
X323289Y473369D01*
X323036Y473537D01*
X322738Y473592D01*
X322442Y473527D01*
X322211Y473369D01*
X321302Y472460D01*
X309198Y472460D01*
X308289Y473369D01*
X308036Y473537D01*
X307738Y473592D01*
X307442Y473527D01*
X307211Y473369D01*
X306302Y472460D01*
X294198Y472460D01*
X293289Y473369D01*
X293036Y473537D01*
X292738Y473592D01*
X292442Y473527D01*
X292211Y473369D01*
X291302Y472460D01*
X279198Y472460D01*
X278289Y473369D01*
X278036Y473537D01*
X277738Y473592D01*
X277442Y473527D01*
X277211Y473369D01*
X276302Y472460D01*
X264198Y472460D01*
X263289Y473369D01*
X263036Y473537D01*
X262738Y473592D01*
X262442Y473527D01*
X262211Y473369D01*
X261302Y472460D01*
X249198Y472460D01*
X248289Y473369D01*
X248036Y473537D01*
X247738Y473592D01*
X247442Y473527D01*
X247211Y473369D01*
X246302Y472460D01*
X234198Y472460D01*
X233289Y473369D01*
X233036Y473537D01*
X232738Y473592D01*
X232442Y473527D01*
X232211Y473369D01*
X231302Y472460D01*
X219198Y472460D01*
X218289Y473369D01*
X218036Y473537D01*
X217738Y473592D01*
X217442Y473527D01*
X217211Y473369D01*
X216302Y472460D01*
X204198Y472460D01*
X203289Y473369D01*
X203036Y473537D01*
X202738Y473592D01*
X202442Y473527D01*
X202211Y473369D01*
X201302Y472460D01*
X189198Y472460D01*
X188289Y473369D01*
X188036Y473537D01*
X187738Y473592D01*
X187442Y473527D01*
X187211Y473369D01*
X186302Y472460D01*
X181012Y472460D01*
X181012Y490540D01*
X186302Y490540D01*
X187211Y489631D01*
X187464Y489463D01*
X187762Y489408D01*
X188058Y489473D01*
X188289Y489631D01*
X189198Y490540D01*
X190538Y490540D01*
X190835Y490600D01*
X191085Y490772D01*
X191249Y491027D01*
X191300Y491302D01*
X191300Y536378D01*
X191240Y536675D01*
X191077Y536917D01*
X178460Y549534D01*
X178460Y565284D01*
X178400Y565581D01*
X178237Y565823D01*
X176640Y567419D01*
X175756Y569554D01*
X175587Y569806D01*
X175332Y569971D01*
X175034Y570024D01*
X174738Y569957D01*
X174492Y569779D01*
X174335Y569520D01*
X174290Y569263D01*
X174290Y561448D01*
X173381Y560539D01*
X173213Y560286D01*
X173158Y559988D01*
X173223Y559692D01*
X173381Y559461D01*
X174290Y558552D01*
X174290Y546448D01*
X173381Y545539D01*
X173213Y545286D01*
X173158Y544988D01*
X173223Y544692D01*
X173381Y544461D01*
X174290Y543552D01*
X174290Y531448D01*
X173381Y530539D01*
X173213Y530286D01*
X173158Y529988D01*
X173223Y529692D01*
X173381Y529461D01*
X174290Y528552D01*
X174290Y516448D01*
X173381Y515539D01*
X173213Y515286D01*
X173158Y514988D01*
X173223Y514692D01*
X173381Y514461D01*
X174290Y513552D01*
X174290Y501448D01*
X173381Y500539D01*
X173213Y500286D01*
X173158Y499988D01*
X173223Y499692D01*
X173381Y499461D01*
X174290Y498552D01*
X174290Y493262D01*
X156210Y493262D01*
X156210Y498552D01*
X157119Y499461D01*
X157287Y499714D01*
X157342Y500012D01*
X157277Y500308D01*
X157119Y500539D01*
X156210Y501448D01*
X156210Y513552D01*
X157119Y514461D01*
X157287Y514714D01*
X157342Y515012D01*
X157277Y515308D01*
X157119Y515539D01*
X156210Y516448D01*
X156210Y528552D01*
X157119Y529461D01*
X157287Y529714D01*
X157342Y530012D01*
X157277Y530308D01*
X157119Y530539D01*
X156210Y531448D01*
X156210Y543552D01*
X157119Y544461D01*
X157287Y544714D01*
X157342Y545012D01*
X157277Y545308D01*
X157119Y545539D01*
X156210Y546448D01*
X156210Y558552D01*
X157119Y559461D01*
X157287Y559714D01*
X157342Y560012D01*
X157277Y560308D01*
X157119Y560539D01*
X156210Y561448D01*
X156210Y573552D01*
X157119Y574461D01*
X157287Y574714D01*
X157342Y575012D01*
X157277Y575308D01*
X157119Y575539D01*
X156210Y576448D01*
X156210Y588552D01*
X157119Y589461D01*
X157287Y589714D01*
X157342Y590012D01*
X157277Y590308D01*
X157119Y590539D01*
X156210Y591448D01*
X156210Y603552D01*
X157698Y605040D01*
X171948Y605040D01*
X172245Y605100D01*
X172495Y605272D01*
X172659Y605527D01*
X172710Y605802D01*
X172710Y607738D01*
X179488Y607738D01*
X179488Y599460D01*
X175052Y599460D01*
X174755Y599400D01*
X174505Y599228D01*
X174341Y598973D01*
X174290Y598698D01*
X174290Y591448D01*
X173381Y590539D01*
X173213Y590286D01*
X173158Y589988D01*
X173223Y589692D01*
X173381Y589461D01*
X174290Y588552D01*
X174290Y576448D01*
X173381Y575539D01*
X173213Y575286D01*
X173158Y574988D01*
X173223Y574692D01*
X173381Y574461D01*
X174290Y573552D01*
X174290Y572737D01*
X174350Y572440D01*
X174522Y572190D01*
X174777Y572027D01*
X175076Y571976D01*
X175371Y572046D01*
X175616Y572225D01*
X175756Y572446D01*
X176640Y574581D01*
X178419Y576360D01*
X180742Y577322D01*
X183258Y577322D01*
X185581Y576360D01*
X186869Y575071D01*
X187122Y574904D01*
X187420Y574848D01*
X187716Y574913D01*
X187964Y575089D01*
X188123Y575347D01*
X188170Y575610D01*
X188170Y599488D01*
X188110Y599786D01*
X187938Y600036D01*
X187683Y600199D01*
X187384Y600250D01*
X187089Y600180D01*
X186869Y600027D01*
X186302Y599460D01*
X181012Y599460D01*
X181012Y617540D01*
X186302Y617540D01*
X187211Y616631D01*
X187464Y616463D01*
X187762Y616408D01*
X188058Y616473D01*
X188289Y616631D01*
X189198Y617540D01*
X201302Y617540D01*
X202211Y616631D01*
X202464Y616463D01*
X202762Y616408D01*
X203058Y616473D01*
X203289Y616631D01*
X204198Y617540D01*
X216302Y617540D01*
X217211Y616631D01*
X217464Y616463D01*
X217762Y616408D01*
X218058Y616473D01*
X218289Y616631D01*
X219198Y617540D01*
X231302Y617540D01*
X232211Y616631D01*
X232464Y616463D01*
X232762Y616408D01*
X233058Y616473D01*
X233289Y616631D01*
X234198Y617540D01*
X246302Y617540D01*
X247211Y616631D01*
X247464Y616463D01*
X247762Y616408D01*
X248058Y616473D01*
X248289Y616631D01*
X249198Y617540D01*
X261302Y617540D01*
X262211Y616631D01*
X262464Y616463D01*
X262762Y616408D01*
X263058Y616473D01*
X263289Y616631D01*
X264198Y617540D01*
X276302Y617540D01*
X277211Y616631D01*
X277464Y616463D01*
X277762Y616408D01*
X278058Y616473D01*
X278289Y616631D01*
X279198Y617540D01*
X291302Y617540D01*
X292211Y616631D01*
X292464Y616463D01*
X292762Y616408D01*
X293058Y616473D01*
X293289Y616631D01*
X294198Y617540D01*
X306302Y617540D01*
X307211Y616631D01*
X307464Y616463D01*
X307762Y616408D01*
X308058Y616473D01*
X308289Y616631D01*
X309198Y617540D01*
X321302Y617540D01*
X322211Y616631D01*
X322464Y616463D01*
X322762Y616408D01*
X323058Y616473D01*
X323289Y616631D01*
X324198Y617540D01*
X336302Y617540D01*
X337211Y616631D01*
X337464Y616463D01*
X337762Y616408D01*
X338058Y616473D01*
X338289Y616631D01*
X339198Y617540D01*
X351302Y617540D01*
X352211Y616631D01*
X352464Y616463D01*
X352762Y616408D01*
X353058Y616473D01*
X353289Y616631D01*
X354198Y617540D01*
X366302Y617540D01*
X367790Y616052D01*
X367790Y611802D01*
X367850Y611505D01*
X368022Y611255D01*
X368277Y611091D01*
X368552Y611040D01*
X371698Y611040D01*
X371995Y611100D01*
X372245Y611272D01*
X372409Y611527D01*
X372460Y611802D01*
X372460Y621698D01*
X372400Y621995D01*
X372228Y622245D01*
X371973Y622409D01*
X371698Y622460D01*
X3302Y622460D01*
X3005Y622400D01*
X2755Y622228D01*
X2591Y621973D01*
X2540Y621698D01*
X2540Y3302D01*
X2600Y3005D01*
X2772Y2755D01*
X3027Y2591D01*
X3302Y2540D01*
X371698Y2540D01*
X371995Y2600D01*
G37*
%LPC*%
G36*
X172710Y609262D02*
X172710Y616052D01*
X174198Y617540D01*
X179488Y617540D01*
X179488Y609262D01*
X172710Y609262D01*
G37*
G36*
X112008Y522134D02*
X112008Y541867D01*
X118121Y541867D01*
X119461Y540526D01*
X119714Y540359D01*
X120012Y540303D01*
X120308Y540368D01*
X120539Y540526D01*
X121879Y541867D01*
X135629Y541867D01*
X137117Y540379D01*
X137117Y537842D01*
X137177Y537545D01*
X137349Y537295D01*
X137604Y537131D01*
X137879Y537080D01*
X138158Y537080D01*
X138455Y537140D01*
X138705Y537312D01*
X138869Y537567D01*
X138920Y537842D01*
X138920Y551158D01*
X138860Y551455D01*
X138688Y551705D01*
X138433Y551869D01*
X138158Y551920D01*
X137302Y551920D01*
X137005Y551860D01*
X136755Y551688D01*
X136591Y551433D01*
X136540Y551158D01*
X136540Y550948D01*
X135052Y549460D01*
X121948Y549460D01*
X120539Y550869D01*
X120286Y551037D01*
X119988Y551092D01*
X119692Y551027D01*
X119461Y550869D01*
X118052Y549460D01*
X112262Y549460D01*
X112262Y564540D01*
X118052Y564540D01*
X119461Y563131D01*
X119714Y562963D01*
X120012Y562908D01*
X120308Y562973D01*
X120539Y563131D01*
X121948Y564540D01*
X125680Y564540D01*
X125977Y564600D01*
X126227Y564772D01*
X126391Y565027D01*
X126441Y565326D01*
X126372Y565621D01*
X126219Y565841D01*
X125093Y566967D01*
X124840Y567134D01*
X124554Y567190D01*
X90894Y567190D01*
X90597Y567130D01*
X90355Y566967D01*
X88033Y564645D01*
X87866Y564392D01*
X87810Y564106D01*
X87810Y560802D01*
X87870Y560505D01*
X88042Y560255D01*
X88297Y560091D01*
X88572Y560040D01*
X90552Y560040D01*
X92040Y558552D01*
X92040Y546448D01*
X90552Y544960D01*
X77448Y544960D01*
X75960Y546448D01*
X75960Y558552D01*
X77448Y560040D01*
X79428Y560040D01*
X79725Y560100D01*
X79975Y560272D01*
X80139Y560527D01*
X80190Y560802D01*
X80190Y567578D01*
X87422Y574810D01*
X124554Y574810D01*
X124851Y574870D01*
X125093Y575033D01*
X125967Y575907D01*
X126134Y576160D01*
X126190Y576446D01*
X126190Y577238D01*
X126130Y577535D01*
X125958Y577785D01*
X125703Y577949D01*
X125428Y578000D01*
X92052Y578000D01*
X92012Y578006D01*
X92009Y578007D01*
X92000Y578062D01*
X92000Y607948D01*
X92006Y607988D01*
X92007Y607991D01*
X92062Y608000D01*
X144948Y608000D01*
X144988Y607994D01*
X144991Y607993D01*
X145000Y607938D01*
X145000Y578052D01*
X144994Y578012D01*
X144993Y578009D01*
X144938Y578000D01*
X134572Y578000D01*
X134275Y577940D01*
X134025Y577768D01*
X133861Y577513D01*
X133810Y577238D01*
X133810Y576446D01*
X133870Y576149D01*
X134033Y575907D01*
X135360Y574581D01*
X136322Y572258D01*
X136322Y569742D01*
X135360Y567419D01*
X133781Y565841D01*
X133614Y565588D01*
X133558Y565290D01*
X133623Y564994D01*
X133799Y564746D01*
X134057Y564587D01*
X134320Y564540D01*
X135052Y564540D01*
X136540Y563052D01*
X136540Y562842D01*
X136600Y562545D01*
X136772Y562295D01*
X137027Y562131D01*
X137302Y562080D01*
X139824Y562080D01*
X140121Y562140D01*
X140363Y562303D01*
X140419Y562360D01*
X142742Y563322D01*
X145258Y563322D01*
X147581Y562360D01*
X149360Y560581D01*
X150322Y558258D01*
X150322Y555742D01*
X149360Y553419D01*
X149303Y553363D01*
X149136Y553110D01*
X149080Y552824D01*
X149080Y532896D01*
X143104Y526920D01*
X137879Y526920D01*
X137582Y526860D01*
X137332Y526688D01*
X137168Y526433D01*
X137117Y526158D01*
X137117Y523621D01*
X135629Y522134D01*
X121879Y522134D01*
X120539Y523474D01*
X120286Y523641D01*
X119988Y523697D01*
X119692Y523632D01*
X119461Y523474D01*
X118121Y522134D01*
X112008Y522134D01*
G37*
G36*
X103460Y557762D02*
X103460Y563052D01*
X104948Y564540D01*
X110738Y564540D01*
X110738Y557762D01*
X103460Y557762D01*
G37*
G36*
X104948Y549460D02*
X103460Y550948D01*
X103460Y556238D01*
X110738Y556238D01*
X110738Y549460D01*
X104948Y549460D01*
G37*
G36*
X82742Y515678D02*
X80419Y516640D01*
X78640Y518419D01*
X77678Y520742D01*
X77678Y523258D01*
X78640Y525581D01*
X79719Y526659D01*
X79886Y526912D01*
X79942Y527210D01*
X79877Y527506D01*
X79701Y527754D01*
X79443Y527913D01*
X79180Y527960D01*
X77448Y527960D01*
X75960Y529448D01*
X75960Y541552D01*
X77448Y543040D01*
X90552Y543040D01*
X92040Y541552D01*
X92040Y529448D01*
X90552Y527960D01*
X88820Y527960D01*
X88523Y527900D01*
X88273Y527728D01*
X88110Y527473D01*
X88059Y527174D01*
X88128Y526879D01*
X88281Y526659D01*
X89360Y525581D01*
X90322Y523258D01*
X90322Y520742D01*
X89360Y518419D01*
X87581Y516640D01*
X85258Y515678D01*
X82742Y515678D01*
G37*
G36*
X102883Y532762D02*
X102883Y540379D01*
X104371Y541867D01*
X110484Y541867D01*
X110484Y532762D01*
X102883Y532762D01*
G37*
G36*
X104371Y522134D02*
X102883Y523621D01*
X102883Y531238D01*
X110484Y531238D01*
X110484Y522134D01*
X104371Y522134D01*
G37*
G36*
X114448Y474960D02*
X112960Y476448D01*
X112960Y489552D01*
X114448Y491040D01*
X126552Y491040D01*
X128040Y489552D01*
X128040Y487302D01*
X128100Y487005D01*
X128272Y486755D01*
X128527Y486591D01*
X128802Y486540D01*
X133218Y486540D01*
X133515Y486600D01*
X133757Y486763D01*
X134371Y487377D01*
X134538Y487630D01*
X134594Y487928D01*
X134529Y488224D01*
X134353Y488472D01*
X134095Y488631D01*
X133832Y488678D01*
X132742Y488678D01*
X130419Y489640D01*
X128640Y491419D01*
X127678Y493742D01*
X127678Y496258D01*
X128212Y497547D01*
X128270Y497844D01*
X128207Y498141D01*
X128034Y498390D01*
X127777Y498551D01*
X127478Y498600D01*
X127183Y498528D01*
X126969Y498377D01*
X126552Y497960D01*
X114448Y497960D01*
X112960Y499448D01*
X112960Y512552D01*
X114448Y514040D01*
X126552Y514040D01*
X128040Y512552D01*
X128040Y510302D01*
X128100Y510005D01*
X128272Y509755D01*
X128527Y509591D01*
X128802Y509540D01*
X130466Y509540D01*
X137540Y502466D01*
X137540Y500716D01*
X137600Y500419D01*
X137763Y500177D01*
X139360Y498581D01*
X139796Y497527D01*
X139966Y497276D01*
X140220Y497110D01*
X140518Y497057D01*
X140814Y497125D01*
X141060Y497302D01*
X141204Y497527D01*
X141640Y498581D01*
X143419Y500360D01*
X145742Y501322D01*
X148258Y501322D01*
X150581Y500360D01*
X152360Y498581D01*
X153322Y496258D01*
X153322Y493742D01*
X152360Y491419D01*
X150581Y489640D01*
X148258Y488678D01*
X146000Y488678D01*
X145703Y488618D01*
X145461Y488455D01*
X136466Y479460D01*
X128802Y479460D01*
X128505Y479400D01*
X128255Y479228D01*
X128091Y478973D01*
X128040Y478698D01*
X128040Y476448D01*
X126552Y474960D01*
X114448Y474960D01*
G37*
G36*
X97448Y497960D02*
X95960Y499448D01*
X95960Y501698D01*
X95900Y501995D01*
X95728Y502245D01*
X95473Y502409D01*
X95198Y502460D01*
X89861Y502460D01*
X89564Y502400D01*
X89314Y502228D01*
X89150Y501973D01*
X89099Y501698D01*
X89099Y500389D01*
X87611Y498901D01*
X79389Y498901D01*
X77901Y500389D01*
X77901Y511611D01*
X79389Y513099D01*
X87611Y513099D01*
X89099Y511611D01*
X89099Y510302D01*
X89159Y510005D01*
X89331Y509755D01*
X89586Y509591D01*
X89861Y509540D01*
X95198Y509540D01*
X95495Y509600D01*
X95745Y509772D01*
X95909Y510027D01*
X95960Y510302D01*
X95960Y512552D01*
X97448Y514040D01*
X109552Y514040D01*
X111040Y512552D01*
X111040Y499448D01*
X109552Y497960D01*
X97448Y497960D01*
G37*
G36*
X62901Y506762D02*
X62901Y511611D01*
X64389Y513099D01*
X67738Y513099D01*
X67738Y506762D01*
X62901Y506762D01*
G37*
G36*
X69262Y506762D02*
X69262Y513099D01*
X72611Y513099D01*
X74099Y511611D01*
X74099Y506762D01*
X69262Y506762D01*
G37*
G36*
X69262Y498901D02*
X69262Y505238D01*
X74099Y505238D01*
X74099Y500389D01*
X72611Y498901D01*
X69262Y498901D01*
G37*
G36*
X64389Y498901D02*
X62901Y500389D01*
X62901Y505238D01*
X67738Y505238D01*
X67738Y498901D01*
X64389Y498901D01*
G37*
G36*
X172710Y482262D02*
X172710Y484198D01*
X172650Y484495D01*
X172478Y484745D01*
X172223Y484909D01*
X171948Y484960D01*
X166012Y484960D01*
X166012Y491738D01*
X174290Y491738D01*
X174290Y491302D01*
X174350Y491005D01*
X174522Y490755D01*
X174777Y490591D01*
X175052Y490540D01*
X179488Y490540D01*
X179488Y482262D01*
X172710Y482262D01*
G37*
G36*
X157698Y484960D02*
X156210Y486448D01*
X156210Y491738D01*
X164488Y491738D01*
X164488Y484960D01*
X157698Y484960D01*
G37*
G36*
X97448Y474960D02*
X95960Y476448D01*
X95960Y478698D01*
X95900Y478995D01*
X95728Y479245D01*
X95473Y479409D01*
X95198Y479460D01*
X89861Y479460D01*
X89564Y479400D01*
X89314Y479228D01*
X89150Y478973D01*
X89099Y478698D01*
X89099Y477389D01*
X87611Y475901D01*
X79389Y475901D01*
X77901Y477389D01*
X77901Y488611D01*
X79389Y490099D01*
X87611Y490099D01*
X89099Y488611D01*
X89099Y487302D01*
X89159Y487005D01*
X89331Y486755D01*
X89586Y486591D01*
X89861Y486540D01*
X95198Y486540D01*
X95495Y486600D01*
X95745Y486772D01*
X95909Y487027D01*
X95960Y487302D01*
X95960Y489552D01*
X97448Y491040D01*
X109552Y491040D01*
X111040Y489552D01*
X111040Y476448D01*
X109552Y474960D01*
X97448Y474960D01*
G37*
G36*
X62901Y483762D02*
X62901Y488611D01*
X64389Y490099D01*
X67738Y490099D01*
X67738Y483762D01*
X62901Y483762D01*
G37*
G36*
X69262Y483762D02*
X69262Y490099D01*
X72611Y490099D01*
X74099Y488611D01*
X74099Y483762D01*
X69262Y483762D01*
G37*
G36*
X69262Y475901D02*
X69262Y482238D01*
X74099Y482238D01*
X74099Y477389D01*
X72611Y475901D01*
X69262Y475901D01*
G37*
G36*
X64389Y475901D02*
X62901Y477389D01*
X62901Y482238D01*
X67738Y482238D01*
X67738Y475901D01*
X64389Y475901D01*
G37*
G36*
X174198Y472460D02*
X172710Y473948D01*
X172710Y480738D01*
X179488Y480738D01*
X179488Y472460D01*
X174198Y472460D01*
G37*
G36*
X68673Y109220D02*
X64928Y110771D01*
X62061Y113638D01*
X60510Y117383D01*
X60510Y121437D01*
X62061Y125182D01*
X64928Y128049D01*
X68673Y129600D01*
X72727Y129600D01*
X74727Y128772D01*
X75024Y128714D01*
X75321Y128776D01*
X75557Y128937D01*
X78427Y131807D01*
X78594Y132059D01*
X78650Y132345D01*
X78650Y136510D01*
X78590Y136807D01*
X78418Y137057D01*
X78163Y137220D01*
X77864Y137271D01*
X77569Y137201D01*
X77349Y137048D01*
X76472Y136171D01*
X72727Y134620D01*
X68673Y134620D01*
X64928Y136171D01*
X62061Y139038D01*
X60510Y142783D01*
X60510Y146837D01*
X62061Y150582D01*
X64928Y153449D01*
X68673Y155000D01*
X72727Y155000D01*
X74548Y154246D01*
X74846Y154188D01*
X75143Y154250D01*
X75392Y154424D01*
X75553Y154681D01*
X75602Y154950D01*
X75602Y155893D01*
X78427Y158718D01*
X78594Y158971D01*
X78650Y159257D01*
X78650Y161910D01*
X78590Y162207D01*
X78418Y162457D01*
X78163Y162620D01*
X77864Y162671D01*
X77569Y162601D01*
X77349Y162448D01*
X76472Y161571D01*
X72727Y160020D01*
X68673Y160020D01*
X64928Y161571D01*
X62061Y164438D01*
X60510Y168183D01*
X60510Y172237D01*
X62061Y175982D01*
X64928Y178849D01*
X68673Y180400D01*
X72727Y180400D01*
X76472Y178849D01*
X77349Y177972D01*
X77602Y177804D01*
X77900Y177749D01*
X78196Y177814D01*
X78444Y177989D01*
X78603Y178247D01*
X78650Y178510D01*
X78650Y185320D01*
X92989Y199659D01*
X93157Y199912D01*
X93213Y200210D01*
X93147Y200506D01*
X92972Y200754D01*
X92714Y200913D01*
X92451Y200960D01*
X88762Y200960D01*
X88762Y224040D01*
X91698Y224040D01*
X91995Y224100D01*
X92245Y224272D01*
X92409Y224527D01*
X92460Y224802D01*
X92460Y225466D01*
X97988Y230994D01*
X98155Y231247D01*
X98211Y231545D01*
X98146Y231841D01*
X97988Y232072D01*
X97539Y232521D01*
X97286Y232688D01*
X96988Y232744D01*
X96692Y232679D01*
X96461Y232521D01*
X95581Y231640D01*
X93258Y230678D01*
X90742Y230678D01*
X88419Y231640D01*
X86640Y233419D01*
X85678Y235742D01*
X85678Y238258D01*
X86640Y240581D01*
X88419Y242360D01*
X88744Y242494D01*
X88995Y242664D01*
X89160Y242918D01*
X89214Y243216D01*
X89146Y243512D01*
X88969Y243758D01*
X88710Y243915D01*
X88452Y243960D01*
X76198Y243960D01*
X74710Y245448D01*
X74710Y265552D01*
X75713Y266555D01*
X75880Y266808D01*
X75936Y267094D01*
X75936Y269917D01*
X75876Y270214D01*
X75704Y270464D01*
X75466Y270621D01*
X75419Y270640D01*
X73640Y272419D01*
X72678Y274742D01*
X72678Y277258D01*
X73640Y279581D01*
X75419Y281360D01*
X77742Y282322D01*
X80258Y282322D01*
X82581Y281360D01*
X83461Y280479D01*
X83714Y280312D01*
X84012Y280256D01*
X84308Y280321D01*
X84539Y280479D01*
X85419Y281360D01*
X87742Y282322D01*
X90258Y282322D01*
X92581Y281360D01*
X94360Y279581D01*
X95322Y277258D01*
X95322Y274742D01*
X94360Y272419D01*
X92581Y270640D01*
X92534Y270621D01*
X92283Y270452D01*
X92117Y270198D01*
X92064Y269917D01*
X92064Y267802D01*
X92124Y267505D01*
X92296Y267255D01*
X92551Y267091D01*
X92826Y267040D01*
X131174Y267040D01*
X131471Y267100D01*
X131721Y267272D01*
X131885Y267527D01*
X131936Y267802D01*
X131936Y301035D01*
X131876Y301332D01*
X131713Y301574D01*
X122550Y310737D01*
X122297Y310904D01*
X122011Y310960D01*
X93302Y310960D01*
X93005Y310900D01*
X92755Y310728D01*
X92591Y310473D01*
X92540Y310198D01*
X92540Y308948D01*
X91052Y307460D01*
X89072Y307460D01*
X88775Y307400D01*
X88525Y307228D01*
X88361Y306973D01*
X88310Y306698D01*
X88310Y304922D01*
X83578Y300190D01*
X60422Y300190D01*
X53190Y307422D01*
X53190Y364578D01*
X59737Y371125D01*
X59904Y371378D01*
X59960Y371664D01*
X59960Y373428D01*
X59900Y373725D01*
X59728Y373975D01*
X59473Y374139D01*
X59198Y374190D01*
X58446Y374190D01*
X58149Y374130D01*
X57907Y373967D01*
X56581Y372640D01*
X54258Y371678D01*
X51742Y371678D01*
X49419Y372640D01*
X47640Y374419D01*
X46678Y376742D01*
X46678Y379258D01*
X47640Y381581D01*
X49419Y383360D01*
X51742Y384322D01*
X54258Y384322D01*
X56581Y383360D01*
X57907Y382033D01*
X58160Y381866D01*
X58446Y381810D01*
X59198Y381810D01*
X59495Y381870D01*
X59745Y382042D01*
X59909Y382297D01*
X59960Y382572D01*
X59960Y384552D01*
X61448Y386040D01*
X71428Y386040D01*
X71725Y386100D01*
X71975Y386272D01*
X72139Y386527D01*
X72190Y386802D01*
X72190Y390198D01*
X72130Y390495D01*
X71958Y390745D01*
X71703Y390909D01*
X71428Y390960D01*
X61448Y390960D01*
X59960Y392448D01*
X59960Y405552D01*
X61448Y407040D01*
X65511Y407040D01*
X65808Y407100D01*
X66050Y407263D01*
X69446Y410659D01*
X69613Y410912D01*
X69669Y411210D01*
X69604Y411506D01*
X69428Y411754D01*
X69170Y411913D01*
X68907Y411960D01*
X61448Y411960D01*
X59960Y413448D01*
X59960Y426552D01*
X61448Y428040D01*
X62698Y428040D01*
X62995Y428100D01*
X63245Y428272D01*
X63409Y428527D01*
X63460Y428802D01*
X63460Y432198D01*
X63400Y432495D01*
X63228Y432745D01*
X62973Y432909D01*
X62698Y432960D01*
X61448Y432960D01*
X59960Y434448D01*
X59960Y447552D01*
X61448Y449040D01*
X73552Y449040D01*
X75040Y447552D01*
X75040Y434448D01*
X73552Y432960D01*
X72302Y432960D01*
X72005Y432900D01*
X71755Y432728D01*
X71591Y432473D01*
X71540Y432198D01*
X71540Y428802D01*
X71600Y428505D01*
X71772Y428255D01*
X72027Y428091D01*
X72302Y428040D01*
X73552Y428040D01*
X75040Y426552D01*
X75040Y418093D01*
X75100Y417796D01*
X75272Y417546D01*
X75527Y417382D01*
X75826Y417331D01*
X76121Y417401D01*
X76341Y417554D01*
X76737Y417950D01*
X76904Y418203D01*
X76960Y418489D01*
X76960Y426552D01*
X78448Y428040D01*
X88916Y428040D01*
X89213Y428100D01*
X89463Y428272D01*
X89627Y428527D01*
X89678Y428802D01*
X89678Y430258D01*
X90361Y431906D01*
X90419Y432204D01*
X90356Y432501D01*
X90183Y432750D01*
X89926Y432911D01*
X89657Y432960D01*
X78448Y432960D01*
X76960Y434448D01*
X76960Y447552D01*
X78448Y449040D01*
X79928Y449040D01*
X80225Y449100D01*
X80475Y449272D01*
X80639Y449527D01*
X80690Y449802D01*
X80690Y452078D01*
X94422Y465810D01*
X226578Y465810D01*
X259810Y432578D01*
X259810Y409422D01*
X254328Y403940D01*
X252802Y403940D01*
X252505Y403880D01*
X252255Y403708D01*
X252091Y403453D01*
X252040Y403178D01*
X252040Y397948D01*
X250811Y396719D01*
X250644Y396467D01*
X250588Y396168D01*
X250646Y395889D01*
X251322Y394258D01*
X251322Y391742D01*
X250432Y389594D01*
X250374Y389296D01*
X250437Y388999D01*
X250610Y388750D01*
X250867Y388589D01*
X251033Y388559D01*
X252540Y387052D01*
X252540Y373948D01*
X251131Y372539D01*
X250963Y372286D01*
X250908Y371988D01*
X250973Y371692D01*
X251131Y371461D01*
X252540Y370052D01*
X252540Y364262D01*
X244238Y364262D01*
X244238Y355460D01*
X243572Y355460D01*
X243275Y355400D01*
X243025Y355228D01*
X242861Y354973D01*
X242810Y354698D01*
X242810Y306590D01*
X242870Y306293D01*
X243042Y306043D01*
X243297Y305880D01*
X243596Y305829D01*
X243891Y305898D01*
X244111Y306051D01*
X245419Y307360D01*
X247742Y308322D01*
X250258Y308322D01*
X252624Y307342D01*
X252922Y307284D01*
X253219Y307346D01*
X253468Y307520D01*
X253629Y307777D01*
X253678Y308046D01*
X253678Y310258D01*
X254640Y312581D01*
X256419Y314360D01*
X258742Y315322D01*
X261000Y315322D01*
X261297Y315382D01*
X261539Y315545D01*
X262534Y316540D01*
X263268Y316540D01*
X263565Y316600D01*
X263815Y316772D01*
X263979Y317027D01*
X264030Y317302D01*
X264030Y320008D01*
X265041Y321019D01*
X265208Y321272D01*
X265264Y321570D01*
X265199Y321866D01*
X265041Y322096D01*
X263659Y323478D01*
X263424Y323635D01*
X261640Y325419D01*
X260678Y327742D01*
X260678Y330258D01*
X261640Y332581D01*
X263419Y334360D01*
X265742Y335322D01*
X268258Y335322D01*
X270581Y334360D01*
X271961Y332979D01*
X272214Y332812D01*
X272512Y332756D01*
X272808Y332821D01*
X273039Y332979D01*
X274419Y334360D01*
X276742Y335322D01*
X279258Y335322D01*
X281581Y334360D01*
X283360Y332581D01*
X284322Y330258D01*
X284322Y329302D01*
X284382Y329005D01*
X284554Y328755D01*
X284809Y328591D01*
X285084Y328540D01*
X302466Y328540D01*
X306743Y324263D01*
X306996Y324096D01*
X307282Y324040D01*
X310552Y324040D01*
X312040Y322552D01*
X312040Y310448D01*
X310552Y308960D01*
X297448Y308960D01*
X295960Y310448D01*
X295960Y320698D01*
X295900Y320995D01*
X295728Y321245D01*
X295473Y321409D01*
X295198Y321460D01*
X292358Y321460D01*
X292061Y321400D01*
X291810Y321228D01*
X291647Y320973D01*
X291596Y320674D01*
X291666Y320379D01*
X291819Y320159D01*
X291970Y320008D01*
X291970Y312606D01*
X287144Y312606D01*
X287144Y302192D01*
X265518Y302192D01*
X264286Y303423D01*
X264034Y303591D01*
X263735Y303647D01*
X263456Y303589D01*
X261258Y302678D01*
X258742Y302678D01*
X256376Y303658D01*
X256078Y303716D01*
X255781Y303654D01*
X255532Y303480D01*
X255371Y303223D01*
X255322Y302954D01*
X255322Y300742D01*
X254360Y298419D01*
X252581Y296640D01*
X250258Y295678D01*
X247742Y295678D01*
X245419Y296640D01*
X244111Y297949D01*
X243858Y298116D01*
X243560Y298172D01*
X243264Y298107D01*
X243016Y297931D01*
X242857Y297673D01*
X242810Y297410D01*
X242810Y294302D01*
X242870Y294005D01*
X243042Y293755D01*
X243297Y293591D01*
X243572Y293540D01*
X247238Y293540D01*
X247238Y284738D01*
X255540Y284738D01*
X255540Y278948D01*
X254131Y277539D01*
X253963Y277286D01*
X253908Y276988D01*
X253973Y276692D01*
X254131Y276461D01*
X255540Y275052D01*
X255540Y274136D01*
X255600Y273839D01*
X255772Y273589D01*
X256027Y273425D01*
X256326Y273374D01*
X256594Y273432D01*
X258742Y274322D01*
X261258Y274322D01*
X262976Y273610D01*
X263274Y273552D01*
X263571Y273615D01*
X263820Y273788D01*
X263981Y274045D01*
X264030Y274314D01*
X264030Y276320D01*
X265518Y277808D01*
X282318Y277808D01*
X282318Y267394D01*
X283842Y267394D01*
X283842Y277808D01*
X290482Y277808D01*
X291970Y276320D01*
X291970Y272458D01*
X292030Y272161D01*
X292202Y271911D01*
X292457Y271747D01*
X292732Y271696D01*
X294310Y271696D01*
X295159Y270847D01*
X295412Y270680D01*
X295710Y270624D01*
X296006Y270689D01*
X296254Y270865D01*
X296413Y271123D01*
X296460Y271386D01*
X296460Y272052D01*
X297869Y273461D01*
X298037Y273714D01*
X298092Y274012D01*
X298027Y274308D01*
X297869Y274539D01*
X296460Y275948D01*
X296460Y281738D01*
X311540Y281738D01*
X311540Y275948D01*
X310131Y274539D01*
X309963Y274286D01*
X309908Y273988D01*
X309973Y273692D01*
X310131Y273461D01*
X311540Y272052D01*
X311540Y258948D01*
X310052Y257460D01*
X297948Y257460D01*
X296460Y258948D01*
X296460Y261198D01*
X296400Y261495D01*
X296228Y261745D01*
X295973Y261909D01*
X295698Y261960D01*
X294034Y261960D01*
X293271Y262723D01*
X293018Y262890D01*
X292720Y262946D01*
X292424Y262881D01*
X292176Y262705D01*
X292017Y262447D01*
X291970Y262184D01*
X291970Y259992D01*
X290482Y258504D01*
X284342Y258504D01*
X284045Y258444D01*
X283795Y258272D01*
X283631Y258017D01*
X283580Y257718D01*
X283650Y257423D01*
X283803Y257203D01*
X284790Y256216D01*
X284790Y254802D01*
X284850Y254505D01*
X285022Y254255D01*
X285277Y254091D01*
X285552Y254040D01*
X291052Y254040D01*
X292424Y252669D01*
X292676Y252501D01*
X292975Y252445D01*
X293254Y252503D01*
X295592Y253472D01*
X298108Y253472D01*
X300431Y252510D01*
X302210Y250731D01*
X303172Y248408D01*
X303172Y245892D01*
X302210Y243569D01*
X300431Y241790D01*
X298108Y240828D01*
X295592Y240828D01*
X293594Y241656D01*
X293296Y241714D01*
X292999Y241651D01*
X292750Y241478D01*
X292589Y241221D01*
X292540Y240952D01*
X292540Y240448D01*
X291052Y238960D01*
X264948Y238960D01*
X263850Y240058D01*
X263597Y240226D01*
X263299Y240282D01*
X263002Y240216D01*
X262772Y240058D01*
X251830Y229117D01*
X251663Y228864D01*
X251607Y228566D01*
X251672Y228269D01*
X251848Y228022D01*
X252106Y227863D01*
X252405Y227817D01*
X252660Y227874D01*
X253742Y228322D01*
X256258Y228322D01*
X258581Y227360D01*
X259907Y226033D01*
X260160Y225866D01*
X260446Y225810D01*
X269578Y225810D01*
X278560Y216828D01*
X278560Y213802D01*
X278620Y213505D01*
X278792Y213255D01*
X279047Y213091D01*
X279322Y213040D01*
X291052Y213040D01*
X292574Y211519D01*
X292826Y211351D01*
X293125Y211295D01*
X293404Y211353D01*
X295742Y212322D01*
X298258Y212322D01*
X300406Y211432D01*
X300704Y211374D01*
X301001Y211437D01*
X301250Y211610D01*
X301411Y211867D01*
X301441Y212033D01*
X302869Y213461D01*
X303037Y213714D01*
X303092Y214012D01*
X303027Y214308D01*
X302869Y214539D01*
X301460Y215948D01*
X301460Y221738D01*
X316540Y221738D01*
X316540Y215948D01*
X315131Y214539D01*
X314963Y214286D01*
X314908Y213988D01*
X314973Y213692D01*
X315131Y213461D01*
X316540Y212052D01*
X316540Y199778D01*
X316600Y199481D01*
X316772Y199231D01*
X317027Y199067D01*
X317302Y199016D01*
X318264Y199016D01*
X318561Y199076D01*
X318802Y199239D01*
X333237Y213674D01*
X333404Y213927D01*
X333460Y214213D01*
X333460Y223198D01*
X333400Y223495D01*
X333228Y223745D01*
X332973Y223909D01*
X332698Y223960D01*
X331448Y223960D01*
X329960Y225448D01*
X329960Y238552D01*
X331448Y240040D01*
X343552Y240040D01*
X345040Y238552D01*
X345040Y225330D01*
X344992Y225072D01*
X345057Y224776D01*
X345232Y224528D01*
X345490Y224369D01*
X345754Y224322D01*
X346246Y224322D01*
X346544Y224382D01*
X346794Y224554D01*
X346957Y224809D01*
X347008Y225108D01*
X346960Y225311D01*
X346960Y238552D01*
X348448Y240040D01*
X349698Y240040D01*
X349995Y240100D01*
X350245Y240272D01*
X350409Y240527D01*
X350460Y240802D01*
X350460Y244198D01*
X350400Y244495D01*
X350228Y244745D01*
X349973Y244909D01*
X349698Y244960D01*
X348448Y244960D01*
X346960Y246448D01*
X346960Y259552D01*
X348448Y261040D01*
X349698Y261040D01*
X349995Y261100D01*
X350245Y261272D01*
X350409Y261527D01*
X350460Y261802D01*
X350460Y265698D01*
X350400Y265995D01*
X350228Y266245D01*
X349973Y266409D01*
X349698Y266460D01*
X347948Y266460D01*
X346539Y267869D01*
X346286Y268037D01*
X345988Y268092D01*
X345692Y268027D01*
X345461Y267869D01*
X344052Y266460D01*
X338262Y266460D01*
X338262Y281540D01*
X344052Y281540D01*
X345461Y280131D01*
X345714Y279963D01*
X346012Y279908D01*
X346308Y279973D01*
X346539Y280131D01*
X347948Y281540D01*
X361052Y281540D01*
X362540Y280052D01*
X362540Y267948D01*
X361052Y266460D01*
X359302Y266460D01*
X359005Y266400D01*
X358755Y266228D01*
X358591Y265973D01*
X358540Y265698D01*
X358540Y261802D01*
X358600Y261505D01*
X358772Y261255D01*
X359027Y261091D01*
X359302Y261040D01*
X360552Y261040D01*
X362040Y259552D01*
X362040Y246448D01*
X360552Y244960D01*
X359302Y244960D01*
X359005Y244900D01*
X358755Y244728D01*
X358591Y244473D01*
X358540Y244198D01*
X358540Y240802D01*
X358600Y240505D01*
X358772Y240255D01*
X359027Y240091D01*
X359302Y240040D01*
X360552Y240040D01*
X362040Y238552D01*
X362040Y225448D01*
X360552Y223960D01*
X359072Y223960D01*
X358775Y223900D01*
X358525Y223728D01*
X358361Y223473D01*
X358310Y223198D01*
X358310Y219922D01*
X352578Y214190D01*
X351446Y214190D01*
X351149Y214130D01*
X350907Y213967D01*
X349581Y212640D01*
X347258Y211678D01*
X344742Y211678D01*
X342594Y212568D01*
X342296Y212626D01*
X341999Y212563D01*
X341750Y212390D01*
X341589Y212133D01*
X341540Y211864D01*
X341540Y210550D01*
X326355Y195365D01*
X326187Y195112D01*
X326132Y194814D01*
X326197Y194518D01*
X326372Y194270D01*
X326630Y194111D01*
X326894Y194064D01*
X341916Y194064D01*
X342213Y194124D01*
X342463Y194296D01*
X342627Y194551D01*
X342678Y194826D01*
X342678Y195258D01*
X343640Y197581D01*
X345419Y199360D01*
X347742Y200322D01*
X350258Y200322D01*
X352581Y199360D01*
X353961Y197979D01*
X354214Y197812D01*
X354512Y197756D01*
X354808Y197821D01*
X355039Y197979D01*
X356419Y199360D01*
X358742Y200322D01*
X361258Y200322D01*
X363581Y199360D01*
X365360Y197581D01*
X366322Y195258D01*
X366322Y192742D01*
X365360Y190419D01*
X363581Y188640D01*
X361258Y187678D01*
X359741Y187678D01*
X359444Y187618D01*
X359202Y187455D01*
X352948Y181200D01*
X352780Y180948D01*
X352725Y180649D01*
X352790Y180353D01*
X352965Y180106D01*
X353195Y179958D01*
X355872Y178849D01*
X358739Y175982D01*
X360290Y172237D01*
X360290Y170972D01*
X339910Y170972D01*
X339910Y172237D01*
X341461Y175982D01*
X344328Y178849D01*
X345828Y179470D01*
X346079Y179640D01*
X346245Y179894D01*
X346298Y180192D01*
X346231Y180488D01*
X346053Y180734D01*
X345794Y180891D01*
X345536Y180936D01*
X329264Y180936D01*
X328967Y180876D01*
X328716Y180704D01*
X328553Y180449D01*
X328502Y180150D01*
X328572Y179855D01*
X328751Y179610D01*
X328972Y179470D01*
X330472Y178849D01*
X333339Y175982D01*
X334890Y172237D01*
X334890Y168183D01*
X333339Y164438D01*
X330472Y161571D01*
X326727Y160020D01*
X322673Y160020D01*
X318928Y161571D01*
X316061Y164438D01*
X314510Y168183D01*
X314510Y172237D01*
X316061Y175982D01*
X318928Y178849D01*
X320428Y179470D01*
X320679Y179640D01*
X320845Y179894D01*
X320898Y180192D01*
X320831Y180488D01*
X320653Y180734D01*
X320394Y180891D01*
X320136Y180936D01*
X303864Y180936D01*
X303567Y180876D01*
X303316Y180704D01*
X303153Y180449D01*
X303102Y180150D01*
X303172Y179855D01*
X303351Y179610D01*
X303572Y179470D01*
X305072Y178849D01*
X307939Y175982D01*
X309490Y172237D01*
X309490Y168183D01*
X307939Y164438D01*
X305072Y161571D01*
X301327Y160020D01*
X297273Y160020D01*
X293528Y161571D01*
X290661Y164438D01*
X289110Y168183D01*
X289110Y172237D01*
X290661Y175982D01*
X293528Y178849D01*
X295028Y179470D01*
X295279Y179640D01*
X295445Y179894D01*
X295498Y180192D01*
X295431Y180488D01*
X295253Y180734D01*
X294994Y180891D01*
X294736Y180936D01*
X278464Y180936D01*
X278167Y180876D01*
X277916Y180704D01*
X277753Y180449D01*
X277702Y180150D01*
X277772Y179855D01*
X277951Y179610D01*
X278172Y179470D01*
X279672Y178849D01*
X282539Y175982D01*
X284090Y172237D01*
X284090Y168183D01*
X282539Y164438D01*
X279672Y161571D01*
X275927Y160020D01*
X271873Y160020D01*
X268128Y161571D01*
X265261Y164438D01*
X263710Y168183D01*
X263710Y172237D01*
X265261Y175982D01*
X268128Y178849D01*
X269628Y179470D01*
X269879Y179640D01*
X270045Y179894D01*
X270098Y180192D01*
X270031Y180488D01*
X269853Y180734D01*
X269594Y180891D01*
X269336Y180936D01*
X253064Y180936D01*
X252767Y180876D01*
X252516Y180704D01*
X252353Y180449D01*
X252302Y180150D01*
X252372Y179855D01*
X252551Y179610D01*
X252772Y179470D01*
X254272Y178849D01*
X257139Y175982D01*
X258690Y172237D01*
X258690Y168183D01*
X257139Y164438D01*
X254272Y161571D01*
X250527Y160020D01*
X246473Y160020D01*
X242728Y161571D01*
X239861Y164438D01*
X238310Y168183D01*
X238310Y172237D01*
X239861Y175982D01*
X242728Y178849D01*
X244228Y179470D01*
X244479Y179640D01*
X244645Y179894D01*
X244698Y180192D01*
X244631Y180488D01*
X244453Y180734D01*
X244194Y180891D01*
X243936Y180936D01*
X227664Y180936D01*
X227367Y180876D01*
X227116Y180704D01*
X226953Y180449D01*
X226902Y180150D01*
X226972Y179855D01*
X227151Y179610D01*
X227372Y179470D01*
X228872Y178849D01*
X231739Y175982D01*
X233290Y172237D01*
X233290Y168183D01*
X231739Y164438D01*
X228872Y161571D01*
X225127Y160020D01*
X221073Y160020D01*
X217243Y161607D01*
X217138Y161676D01*
X216840Y161732D01*
X216543Y161667D01*
X216296Y161491D01*
X216137Y161233D01*
X216091Y160933D01*
X216148Y160678D01*
X216322Y160258D01*
X216322Y157742D01*
X215360Y155419D01*
X213581Y153640D01*
X211258Y152678D01*
X208742Y152678D01*
X206419Y153640D01*
X204640Y155419D01*
X203678Y157742D01*
X203678Y160270D01*
X203732Y160544D01*
X203669Y160841D01*
X203495Y161090D01*
X203239Y161251D01*
X202939Y161300D01*
X202678Y161242D01*
X199727Y160020D01*
X195673Y160020D01*
X191928Y161571D01*
X189061Y164438D01*
X187510Y168183D01*
X187510Y172237D01*
X189061Y175982D01*
X191928Y178849D01*
X193428Y179470D01*
X193679Y179640D01*
X193845Y179894D01*
X193898Y180192D01*
X193831Y180488D01*
X193653Y180734D01*
X193394Y180891D01*
X193136Y180936D01*
X176864Y180936D01*
X176567Y180876D01*
X176316Y180704D01*
X176153Y180449D01*
X176102Y180150D01*
X176172Y179855D01*
X176351Y179610D01*
X176572Y179470D01*
X178072Y178849D01*
X180939Y175982D01*
X182490Y172237D01*
X182490Y168183D01*
X181741Y166376D01*
X181683Y166078D01*
X181746Y165781D01*
X181920Y165532D01*
X182176Y165371D01*
X182445Y165322D01*
X184258Y165322D01*
X186581Y164360D01*
X188360Y162581D01*
X189322Y160258D01*
X189322Y157742D01*
X188360Y155419D01*
X186581Y153640D01*
X184258Y152678D01*
X181742Y152678D01*
X179419Y153640D01*
X177640Y155419D01*
X176678Y157742D01*
X176678Y159853D01*
X176618Y160151D01*
X176446Y160401D01*
X176191Y160564D01*
X175892Y160615D01*
X175624Y160557D01*
X174327Y160020D01*
X170273Y160020D01*
X166528Y161571D01*
X163661Y164438D01*
X162110Y168183D01*
X162110Y172237D01*
X163661Y175982D01*
X166528Y178849D01*
X168028Y179470D01*
X168279Y179640D01*
X168445Y179894D01*
X168498Y180192D01*
X168431Y180488D01*
X168253Y180734D01*
X167994Y180891D01*
X167736Y180936D01*
X155999Y180936D01*
X155702Y180876D01*
X155460Y180713D01*
X153673Y178926D01*
X153505Y178673D01*
X153450Y178375D01*
X153515Y178078D01*
X153673Y177848D01*
X155539Y175982D01*
X157090Y172237D01*
X157090Y168183D01*
X156341Y166376D01*
X156283Y166078D01*
X156346Y165781D01*
X156520Y165532D01*
X156776Y165371D01*
X157045Y165322D01*
X158258Y165322D01*
X160581Y164360D01*
X162360Y162581D01*
X163322Y160258D01*
X163322Y157742D01*
X162360Y155419D01*
X160581Y153640D01*
X158258Y152678D01*
X155742Y152678D01*
X153419Y153640D01*
X151640Y155419D01*
X150678Y157742D01*
X150678Y159605D01*
X150618Y159902D01*
X150446Y160152D01*
X150191Y160316D01*
X149892Y160367D01*
X149624Y160309D01*
X148927Y160020D01*
X144873Y160020D01*
X141128Y161571D01*
X138261Y164438D01*
X136710Y168183D01*
X136710Y172237D01*
X138261Y175982D01*
X141128Y178849D01*
X142650Y179479D01*
X142897Y179644D01*
X147888Y184635D01*
X148055Y184888D01*
X148111Y185186D01*
X148046Y185482D01*
X147870Y185730D01*
X147612Y185889D01*
X147349Y185936D01*
X143289Y185936D01*
X142992Y185876D01*
X142750Y185713D01*
X131342Y174305D01*
X131175Y174052D01*
X131119Y173754D01*
X131177Y173475D01*
X131690Y172237D01*
X131690Y168183D01*
X130139Y164438D01*
X127272Y161571D01*
X123527Y160020D01*
X119473Y160020D01*
X115728Y161571D01*
X114603Y162696D01*
X114350Y162864D01*
X114052Y162919D01*
X113756Y162854D01*
X113508Y162679D01*
X113349Y162421D01*
X113302Y162158D01*
X113302Y157342D01*
X105627Y149667D01*
X105459Y149414D01*
X105404Y149116D01*
X105462Y148837D01*
X106290Y146837D01*
X106290Y142783D01*
X104739Y139038D01*
X101872Y136171D01*
X98127Y134620D01*
X94073Y134620D01*
X90328Y136171D01*
X89603Y136896D01*
X89350Y137064D01*
X89052Y137119D01*
X88756Y137054D01*
X88508Y136879D01*
X88349Y136621D01*
X88302Y136358D01*
X88302Y132193D01*
X88362Y131896D01*
X88525Y131655D01*
X91243Y128937D01*
X91496Y128769D01*
X91794Y128714D01*
X92073Y128772D01*
X94073Y129600D01*
X98127Y129600D01*
X101872Y128049D01*
X104739Y125182D01*
X106290Y121437D01*
X106290Y117383D01*
X104739Y113638D01*
X101872Y110771D01*
X98127Y109220D01*
X94073Y109220D01*
X90328Y110771D01*
X87461Y113638D01*
X85910Y117383D01*
X85910Y121437D01*
X86738Y123437D01*
X86796Y123734D01*
X86734Y124031D01*
X86573Y124267D01*
X83939Y126901D01*
X83686Y127069D01*
X83388Y127125D01*
X83092Y127059D01*
X82861Y126901D01*
X80227Y124267D01*
X80059Y124014D01*
X80004Y123716D01*
X80062Y123437D01*
X80890Y121437D01*
X80890Y117383D01*
X79339Y113638D01*
X76472Y110771D01*
X72727Y109220D01*
X68673Y109220D01*
G37*
G36*
X269262Y441762D02*
X269262Y449040D01*
X274552Y449040D01*
X276040Y447552D01*
X276040Y441762D01*
X269262Y441762D01*
G37*
G36*
X260960Y441762D02*
X260960Y447552D01*
X262448Y449040D01*
X267738Y449040D01*
X267738Y441762D01*
X260960Y441762D01*
G37*
G36*
X300460Y364262D02*
X300460Y370052D01*
X301869Y371461D01*
X302037Y371714D01*
X302092Y372012D01*
X302027Y372308D01*
X301869Y372539D01*
X300460Y373948D01*
X300460Y387052D01*
X301948Y388540D01*
X303698Y388540D01*
X303995Y388600D01*
X304245Y388772D01*
X304409Y389027D01*
X304460Y389302D01*
X304460Y396268D01*
X304400Y396565D01*
X304228Y396815D01*
X303973Y396979D01*
X303698Y397030D01*
X298992Y397030D01*
X297504Y398518D01*
X297504Y404658D01*
X297444Y404955D01*
X297272Y405205D01*
X297017Y405369D01*
X296718Y405420D01*
X296423Y405350D01*
X296203Y405197D01*
X295216Y404210D01*
X293802Y404210D01*
X293505Y404150D01*
X293255Y403978D01*
X293091Y403723D01*
X293040Y403448D01*
X293040Y397948D01*
X291531Y396439D01*
X291339Y396400D01*
X291089Y396228D01*
X290925Y395973D01*
X290874Y395674D01*
X290932Y395406D01*
X291822Y393258D01*
X291822Y390742D01*
X291139Y389094D01*
X291081Y388796D01*
X291144Y388499D01*
X291317Y388250D01*
X291383Y388209D01*
X293040Y386552D01*
X293040Y374448D01*
X291552Y372960D01*
X278448Y372960D01*
X276960Y374448D01*
X276960Y386552D01*
X278448Y388040D01*
X279157Y388040D01*
X279454Y388100D01*
X279704Y388272D01*
X279868Y388527D01*
X279919Y388826D01*
X279861Y389094D01*
X279178Y390742D01*
X279178Y393258D01*
X280068Y395406D01*
X280126Y395704D01*
X280063Y396001D01*
X279890Y396250D01*
X279633Y396411D01*
X279467Y396441D01*
X277960Y397948D01*
X277960Y424052D01*
X279469Y425561D01*
X279661Y425600D01*
X279911Y425772D01*
X280075Y426027D01*
X280126Y426326D01*
X280068Y426594D01*
X279178Y428742D01*
X279178Y431258D01*
X279561Y432182D01*
X279619Y432480D01*
X279556Y432776D01*
X279396Y433012D01*
X277960Y434448D01*
X277960Y447552D01*
X279448Y449040D01*
X291552Y449040D01*
X293040Y447552D01*
X293040Y434448D01*
X291604Y433012D01*
X291437Y432759D01*
X291381Y432461D01*
X291439Y432182D01*
X291822Y431258D01*
X291822Y428742D01*
X290932Y426594D01*
X290874Y426296D01*
X290937Y425999D01*
X291110Y425750D01*
X291367Y425589D01*
X291533Y425559D01*
X293040Y424052D01*
X293040Y420382D01*
X293100Y420085D01*
X293272Y419835D01*
X293527Y419671D01*
X293802Y419620D01*
X296742Y419620D01*
X297039Y419680D01*
X297289Y419852D01*
X297453Y420107D01*
X297504Y420382D01*
X297504Y423482D01*
X298992Y424970D01*
X300686Y424970D01*
X300983Y425030D01*
X301233Y425202D01*
X301397Y425457D01*
X301448Y425756D01*
X301390Y426024D01*
X300678Y427742D01*
X300678Y430258D01*
X301568Y432406D01*
X301626Y432704D01*
X301563Y433001D01*
X301390Y433250D01*
X301133Y433411D01*
X300864Y433460D01*
X299948Y433460D01*
X298460Y434948D01*
X298460Y447052D01*
X299948Y448540D01*
X313052Y448540D01*
X314461Y447131D01*
X314714Y446963D01*
X315012Y446908D01*
X315308Y446973D01*
X315539Y447131D01*
X316948Y448540D01*
X322738Y448540D01*
X322738Y433460D01*
X316948Y433460D01*
X315539Y434869D01*
X315286Y435037D01*
X314988Y435092D01*
X314692Y435027D01*
X314461Y434869D01*
X313031Y433439D01*
X312839Y433400D01*
X312589Y433228D01*
X312425Y432973D01*
X312374Y432674D01*
X312432Y432406D01*
X313322Y430258D01*
X313322Y427742D01*
X312610Y426024D01*
X312552Y425726D01*
X312615Y425429D01*
X312788Y425180D01*
X313045Y425019D01*
X313314Y424970D01*
X315320Y424970D01*
X316808Y423482D01*
X316808Y406682D01*
X306394Y406682D01*
X306394Y405158D01*
X316808Y405158D01*
X316808Y398518D01*
X315320Y397030D01*
X312302Y397030D01*
X312005Y396970D01*
X311755Y396798D01*
X311591Y396543D01*
X311540Y396268D01*
X311540Y389302D01*
X311600Y389005D01*
X311772Y388755D01*
X312027Y388591D01*
X312302Y388540D01*
X314052Y388540D01*
X315540Y387052D01*
X315540Y373948D01*
X314131Y372539D01*
X313963Y372286D01*
X313908Y371988D01*
X313973Y371692D01*
X314131Y371461D01*
X315540Y370052D01*
X315540Y364262D01*
X300460Y364262D01*
G37*
G36*
X324262Y441762D02*
X324262Y448540D01*
X330052Y448540D01*
X331540Y447052D01*
X331540Y441762D01*
X324262Y441762D01*
G37*
G36*
X262448Y432960D02*
X260960Y434448D01*
X260960Y440238D01*
X267738Y440238D01*
X267738Y432960D01*
X262448Y432960D01*
G37*
G36*
X269262Y432960D02*
X269262Y440238D01*
X276040Y440238D01*
X276040Y434448D01*
X274552Y432960D01*
X269262Y432960D01*
G37*
G36*
X324262Y433460D02*
X324262Y440238D01*
X331540Y440238D01*
X331540Y434948D01*
X330052Y433460D01*
X324262Y433460D01*
G37*
G36*
X344448Y372960D02*
X342960Y374448D01*
X342960Y386552D01*
X344448Y388040D01*
X357698Y388040D01*
X357995Y388100D01*
X358245Y388272D01*
X358409Y388527D01*
X358460Y388802D01*
X358460Y396268D01*
X358400Y396565D01*
X358228Y396815D01*
X357973Y396979D01*
X357698Y397030D01*
X351606Y397030D01*
X351606Y401856D01*
X350082Y401856D01*
X350082Y397030D01*
X342680Y397030D01*
X341192Y398518D01*
X341192Y399412D01*
X341132Y399709D01*
X340960Y399959D01*
X340705Y400123D01*
X340406Y400173D01*
X340111Y400104D01*
X339891Y399951D01*
X339581Y399640D01*
X337258Y398678D01*
X334742Y398678D01*
X332419Y399640D01*
X330640Y401419D01*
X329678Y403742D01*
X329678Y406258D01*
X330640Y408581D01*
X332021Y409961D01*
X332188Y410214D01*
X332244Y410512D01*
X332179Y410808D01*
X332021Y411039D01*
X330640Y412419D01*
X329678Y414742D01*
X329678Y417258D01*
X330640Y419581D01*
X332021Y420961D01*
X332188Y421214D01*
X332244Y421512D01*
X332179Y421808D01*
X332021Y422039D01*
X330640Y423419D01*
X329678Y425742D01*
X329678Y428258D01*
X330640Y430581D01*
X332419Y432360D01*
X334742Y433322D01*
X337258Y433322D01*
X339581Y432360D01*
X341360Y430581D01*
X342322Y428258D01*
X342322Y426000D01*
X342382Y425703D01*
X342545Y425461D01*
X342813Y425193D01*
X343066Y425026D01*
X343352Y424970D01*
X359008Y424970D01*
X360496Y423482D01*
X360496Y410222D01*
X360556Y409925D01*
X360728Y409675D01*
X360983Y409511D01*
X361258Y409460D01*
X361546Y409460D01*
X365540Y405466D01*
X365540Y382534D01*
X359966Y376960D01*
X359802Y376960D01*
X359505Y376900D01*
X359255Y376728D01*
X359091Y376473D01*
X359040Y376198D01*
X359040Y374448D01*
X357552Y372960D01*
X344448Y372960D01*
G37*
G36*
X285762Y364262D02*
X285762Y371040D01*
X291552Y371040D01*
X293040Y369552D01*
X293040Y364262D01*
X285762Y364262D01*
G37*
G36*
X276960Y364262D02*
X276960Y369552D01*
X278448Y371040D01*
X284238Y371040D01*
X284238Y364262D01*
X276960Y364262D01*
G37*
G36*
X344448Y355960D02*
X342960Y357448D01*
X342960Y358180D01*
X342900Y358477D01*
X342728Y358727D01*
X342473Y358891D01*
X342174Y358941D01*
X341879Y358872D01*
X341659Y358719D01*
X341581Y358640D01*
X339258Y357678D01*
X336742Y357678D01*
X334419Y358640D01*
X332640Y360419D01*
X331678Y362742D01*
X331678Y365258D01*
X332640Y367581D01*
X334419Y369360D01*
X336742Y370322D01*
X339258Y370322D01*
X341581Y369360D01*
X341659Y369281D01*
X341912Y369114D01*
X342210Y369058D01*
X342506Y369123D01*
X342754Y369299D01*
X342829Y369422D01*
X344448Y371040D01*
X357552Y371040D01*
X359040Y369552D01*
X359040Y357448D01*
X357552Y355960D01*
X344448Y355960D01*
G37*
G36*
X301948Y355460D02*
X300460Y356948D01*
X300460Y362738D01*
X307238Y362738D01*
X307238Y355460D01*
X301948Y355460D01*
G37*
G36*
X285762Y355960D02*
X285762Y362738D01*
X293040Y362738D01*
X293040Y357448D01*
X291552Y355960D01*
X285762Y355960D01*
G37*
G36*
X308762Y355460D02*
X308762Y362738D01*
X315540Y362738D01*
X315540Y356948D01*
X314052Y355460D01*
X308762Y355460D01*
G37*
G36*
X278448Y355960D02*
X276960Y357448D01*
X276960Y362738D01*
X284238Y362738D01*
X284238Y355960D01*
X278448Y355960D01*
G37*
G36*
X245762Y355460D02*
X245762Y362738D01*
X252540Y362738D01*
X252540Y356948D01*
X251052Y355460D01*
X245762Y355460D01*
G37*
G36*
X288668Y302192D02*
X288668Y311082D01*
X291970Y311082D01*
X291970Y303680D01*
X290482Y302192D01*
X288668Y302192D01*
G37*
G36*
X296460Y283262D02*
X296460Y289052D01*
X298067Y290659D01*
X298235Y290912D01*
X298290Y291210D01*
X298225Y291506D01*
X298050Y291754D01*
X297792Y291913D01*
X297528Y291960D01*
X297448Y291960D01*
X295960Y293448D01*
X295960Y305552D01*
X297448Y307040D01*
X310552Y307040D01*
X312040Y305552D01*
X312040Y304820D01*
X312100Y304523D01*
X312272Y304273D01*
X312527Y304110D01*
X312826Y304059D01*
X313121Y304128D01*
X313341Y304281D01*
X314419Y305360D01*
X316742Y306322D01*
X319258Y306322D01*
X321581Y305360D01*
X323360Y303581D01*
X324322Y301258D01*
X324322Y298742D01*
X323360Y296419D01*
X321581Y294640D01*
X319258Y293678D01*
X316742Y293678D01*
X314419Y294640D01*
X313341Y295719D01*
X313088Y295886D01*
X312790Y295942D01*
X312494Y295877D01*
X312246Y295701D01*
X312087Y295443D01*
X312040Y295180D01*
X312040Y293448D01*
X310552Y291960D01*
X310472Y291960D01*
X310175Y291900D01*
X309924Y291728D01*
X309761Y291473D01*
X309710Y291174D01*
X309780Y290879D01*
X309933Y290659D01*
X311540Y289052D01*
X311540Y283262D01*
X296460Y283262D01*
G37*
G36*
X248762Y286262D02*
X248762Y293540D01*
X254052Y293540D01*
X255540Y292052D01*
X255540Y286262D01*
X248762Y286262D01*
G37*
G36*
X329460Y274762D02*
X329460Y280052D01*
X330948Y281540D01*
X336738Y281540D01*
X336738Y274762D01*
X329460Y274762D01*
G37*
G36*
X330948Y266460D02*
X329460Y267948D01*
X329460Y273238D01*
X336738Y273238D01*
X336738Y266460D01*
X330948Y266460D01*
G37*
G36*
X329960Y253762D02*
X329960Y259552D01*
X331448Y261040D01*
X336738Y261040D01*
X336738Y253762D01*
X329960Y253762D01*
G37*
G36*
X338262Y253762D02*
X338262Y261040D01*
X343552Y261040D01*
X345040Y259552D01*
X345040Y253762D01*
X338262Y253762D01*
G37*
G36*
X331448Y244960D02*
X329960Y246448D01*
X329960Y252238D01*
X336738Y252238D01*
X336738Y244960D01*
X331448Y244960D01*
G37*
G36*
X338262Y244960D02*
X338262Y252238D01*
X345040Y252238D01*
X345040Y246448D01*
X343552Y244960D01*
X338262Y244960D01*
G37*
G36*
X309762Y223262D02*
X309762Y230540D01*
X315052Y230540D01*
X316540Y229052D01*
X316540Y223262D01*
X309762Y223262D01*
G37*
G36*
X301460Y223262D02*
X301460Y229052D01*
X302948Y230540D01*
X308238Y230540D01*
X308238Y223262D01*
X301460Y223262D01*
G37*
G36*
X74710Y213262D02*
X74710Y222552D01*
X76198Y224040D01*
X79238Y224040D01*
X79238Y213262D01*
X74710Y213262D01*
G37*
G36*
X80762Y200960D02*
X80762Y224040D01*
X87238Y224040D01*
X87238Y200960D01*
X80762Y200960D01*
G37*
G36*
X76198Y200960D02*
X74710Y202448D01*
X74710Y211738D01*
X79238Y211738D01*
X79238Y200960D01*
X76198Y200960D01*
G37*
G36*
X43273Y160020D02*
X39528Y161571D01*
X36661Y164438D01*
X35110Y168183D01*
X35110Y172237D01*
X36661Y175982D01*
X39528Y178849D01*
X43273Y180400D01*
X47327Y180400D01*
X51072Y178849D01*
X53939Y175982D01*
X55490Y172237D01*
X55490Y168183D01*
X53939Y164438D01*
X51072Y161571D01*
X47327Y160020D01*
X43273Y160020D01*
G37*
G36*
X17873Y160020D02*
X14128Y161571D01*
X11261Y164438D01*
X9710Y168183D01*
X9710Y172237D01*
X11261Y175982D01*
X14128Y178849D01*
X17873Y180400D01*
X21927Y180400D01*
X25672Y178849D01*
X28539Y175982D01*
X30090Y172237D01*
X30090Y168183D01*
X28539Y164438D01*
X25672Y161571D01*
X21927Y160020D01*
X17873Y160020D01*
G37*
G36*
X348073Y160020D02*
X344328Y161571D01*
X341461Y164438D01*
X339910Y168183D01*
X339910Y169448D01*
X349338Y169448D01*
X349338Y160020D01*
X348073Y160020D01*
G37*
G36*
X350862Y160020D02*
X350862Y169448D01*
X360290Y169448D01*
X360290Y168183D01*
X358739Y164438D01*
X355872Y161571D01*
X352127Y160020D01*
X350862Y160020D01*
G37*
G36*
X17873Y134620D02*
X14128Y136171D01*
X11261Y139038D01*
X9710Y142783D01*
X9710Y146837D01*
X11261Y150582D01*
X14128Y153449D01*
X17873Y155000D01*
X21927Y155000D01*
X25672Y153449D01*
X28539Y150582D01*
X30090Y146837D01*
X30090Y142783D01*
X28539Y139038D01*
X25672Y136171D01*
X21927Y134620D01*
X17873Y134620D01*
G37*
G36*
X300460Y139772D02*
X300460Y143562D01*
X301948Y145050D01*
X323238Y145050D01*
X323238Y139772D01*
X300460Y139772D01*
G37*
G36*
X324762Y139772D02*
X324762Y145050D01*
X346052Y145050D01*
X347540Y143562D01*
X347540Y139772D01*
X324762Y139772D01*
G37*
G36*
X142742Y125678D02*
X140419Y126640D01*
X138640Y128419D01*
X137678Y130742D01*
X137678Y133258D01*
X138640Y135581D01*
X140419Y137360D01*
X142742Y138322D01*
X145258Y138322D01*
X147581Y137360D01*
X149360Y135581D01*
X150322Y133258D01*
X150322Y130742D01*
X149360Y128419D01*
X147581Y126640D01*
X145258Y125678D01*
X142742Y125678D01*
G37*
G36*
X284742Y44678D02*
X282419Y45640D01*
X280640Y47419D01*
X279678Y49742D01*
X279678Y52258D01*
X280640Y54581D01*
X281521Y55461D01*
X281688Y55714D01*
X281744Y56012D01*
X281679Y56308D01*
X281521Y56539D01*
X280640Y57419D01*
X279678Y59742D01*
X279678Y62258D01*
X280640Y64581D01*
X282419Y66360D01*
X284742Y67322D01*
X287258Y67322D01*
X289406Y66432D01*
X289704Y66374D01*
X290001Y66437D01*
X290250Y66610D01*
X290411Y66867D01*
X290460Y67136D01*
X290460Y73062D01*
X290869Y73471D01*
X291037Y73724D01*
X291092Y74022D01*
X291027Y74318D01*
X290869Y74549D01*
X290460Y74958D01*
X290460Y78248D01*
X315921Y78248D01*
X315921Y78743D01*
X316027Y78675D01*
X316326Y78624D01*
X316621Y78694D01*
X316841Y78847D01*
X317534Y79540D01*
X327284Y79540D01*
X327581Y79600D01*
X327823Y79763D01*
X329419Y81360D01*
X330473Y81796D01*
X330724Y81966D01*
X330890Y82220D01*
X330943Y82518D01*
X330875Y82814D01*
X330698Y83060D01*
X330473Y83204D01*
X329419Y83640D01*
X327813Y85247D01*
X327560Y85414D01*
X327274Y85470D01*
X316302Y85470D01*
X316005Y85410D01*
X315755Y85238D01*
X315638Y85056D01*
X315131Y84549D01*
X314963Y84296D01*
X314908Y83998D01*
X314973Y83702D01*
X315131Y83471D01*
X315540Y83062D01*
X315540Y79772D01*
X290460Y79772D01*
X290460Y83062D01*
X290869Y83471D01*
X291037Y83724D01*
X291092Y84022D01*
X291027Y84318D01*
X290869Y84549D01*
X290460Y84958D01*
X290460Y93062D01*
X290869Y93471D01*
X291037Y93724D01*
X291092Y94022D01*
X291027Y94318D01*
X290869Y94549D01*
X290460Y94958D01*
X290460Y103062D01*
X290869Y103471D01*
X291037Y103724D01*
X291092Y104022D01*
X291027Y104318D01*
X290869Y104549D01*
X290460Y104958D01*
X290460Y113062D01*
X290869Y113471D01*
X291037Y113724D01*
X291092Y114022D01*
X291027Y114318D01*
X290869Y114549D01*
X290460Y114958D01*
X290460Y123062D01*
X290869Y123471D01*
X291037Y123724D01*
X291092Y124022D01*
X291027Y124318D01*
X290869Y124549D01*
X290460Y124958D01*
X290460Y133062D01*
X291948Y134550D01*
X299698Y134550D01*
X299995Y134610D01*
X300245Y134782D01*
X300409Y135037D01*
X300460Y135312D01*
X300460Y138248D01*
X347540Y138248D01*
X347540Y134458D01*
X346052Y132970D01*
X337522Y132970D01*
X337225Y132910D01*
X336975Y132738D01*
X336811Y132483D01*
X336760Y132184D01*
X336818Y131916D01*
X337322Y130700D01*
X337322Y128184D01*
X336360Y125861D01*
X335258Y124760D01*
X335091Y124507D01*
X335035Y124209D01*
X335100Y123913D01*
X335258Y123682D01*
X336360Y122581D01*
X337322Y120258D01*
X337322Y117742D01*
X336360Y115419D01*
X335479Y114539D01*
X335312Y114286D01*
X335256Y113988D01*
X335321Y113692D01*
X335479Y113461D01*
X336360Y112581D01*
X337322Y110258D01*
X337322Y107742D01*
X336360Y105419D01*
X334581Y103640D01*
X332258Y102678D01*
X329742Y102678D01*
X327419Y103640D01*
X325813Y105247D01*
X325560Y105414D01*
X325274Y105470D01*
X316302Y105470D01*
X316005Y105410D01*
X315755Y105238D01*
X315638Y105056D01*
X315131Y104549D01*
X314963Y104296D01*
X314908Y103998D01*
X314973Y103702D01*
X315131Y103471D01*
X315540Y103062D01*
X315540Y94958D01*
X315131Y94549D01*
X314963Y94296D01*
X314908Y93998D01*
X314973Y93702D01*
X315131Y93471D01*
X315629Y92973D01*
X315772Y92765D01*
X316027Y92601D01*
X316302Y92550D01*
X327294Y92550D01*
X327591Y92610D01*
X327833Y92773D01*
X329419Y94360D01*
X331742Y95322D01*
X334258Y95322D01*
X336581Y94360D01*
X338360Y92581D01*
X339322Y90258D01*
X339322Y87742D01*
X338360Y85419D01*
X336581Y83640D01*
X335527Y83204D01*
X335276Y83035D01*
X335110Y82780D01*
X335057Y82482D01*
X335125Y82186D01*
X335302Y81940D01*
X335527Y81796D01*
X336581Y81360D01*
X338360Y79581D01*
X339322Y77258D01*
X339322Y74742D01*
X338360Y72419D01*
X336581Y70640D01*
X335868Y70345D01*
X335616Y70176D01*
X335451Y69921D01*
X335398Y69623D01*
X335456Y69349D01*
X336322Y67258D01*
X336322Y64742D01*
X335432Y62594D01*
X335374Y62296D01*
X335437Y61999D01*
X335610Y61750D01*
X335867Y61589D01*
X336136Y61540D01*
X351703Y61540D01*
X351995Y61598D01*
X353742Y62322D01*
X356258Y62322D01*
X358581Y61360D01*
X360360Y59581D01*
X361322Y57258D01*
X361322Y54742D01*
X360360Y52419D01*
X358581Y50640D01*
X356258Y49678D01*
X353742Y49678D01*
X351419Y50640D01*
X349640Y52419D01*
X349006Y53951D01*
X348837Y54202D01*
X348582Y54368D01*
X348284Y54421D01*
X347988Y54353D01*
X347742Y54176D01*
X347585Y53917D01*
X347540Y53659D01*
X347540Y49772D01*
X300460Y49772D01*
X300460Y52708D01*
X300400Y53005D01*
X300228Y53255D01*
X299973Y53419D01*
X299698Y53470D01*
X292960Y53470D01*
X292663Y53410D01*
X292413Y53238D01*
X292249Y52983D01*
X292199Y52684D01*
X292256Y52416D01*
X292322Y52258D01*
X292322Y49742D01*
X291360Y47419D01*
X289581Y45640D01*
X287258Y44678D01*
X284742Y44678D01*
G37*
G36*
X17873Y109220D02*
X14128Y110771D01*
X11261Y113638D01*
X9710Y117383D01*
X9710Y121437D01*
X11261Y125182D01*
X14128Y128049D01*
X17873Y129600D01*
X21927Y129600D01*
X25672Y128049D01*
X28539Y125182D01*
X30090Y121437D01*
X30090Y117383D01*
X28539Y113638D01*
X25672Y110771D01*
X21927Y109220D01*
X17873Y109220D01*
G37*
G36*
X267742Y116678D02*
X265419Y117640D01*
X263640Y119419D01*
X262678Y121742D01*
X262678Y124258D01*
X263640Y126581D01*
X265419Y128360D01*
X267742Y129322D01*
X270258Y129322D01*
X272581Y128360D01*
X274360Y126581D01*
X275322Y124258D01*
X275322Y121742D01*
X274360Y119419D01*
X272581Y117640D01*
X270258Y116678D01*
X267742Y116678D01*
G37*
G36*
X235742Y116678D02*
X233419Y117640D01*
X231640Y119419D01*
X230678Y121742D01*
X230678Y124258D01*
X231640Y126581D01*
X233419Y128360D01*
X235742Y129322D01*
X238258Y129322D01*
X240581Y128360D01*
X242360Y126581D01*
X243322Y124258D01*
X243322Y121742D01*
X242360Y119419D01*
X240581Y117640D01*
X238258Y116678D01*
X235742Y116678D01*
G37*
G36*
X235742Y101678D02*
X233419Y102640D01*
X231640Y104419D01*
X230678Y106742D01*
X230678Y109258D01*
X231640Y111581D01*
X233419Y113360D01*
X235742Y114322D01*
X238258Y114322D01*
X240581Y113360D01*
X242360Y111581D01*
X243322Y109258D01*
X243322Y106742D01*
X242360Y104419D01*
X240581Y102640D01*
X238258Y101678D01*
X235742Y101678D01*
G37*
G36*
X145742Y93678D02*
X143419Y94640D01*
X141640Y96419D01*
X140678Y98742D01*
X140678Y101258D01*
X141640Y103581D01*
X143419Y105360D01*
X145742Y106322D01*
X148258Y106322D01*
X150581Y105360D01*
X151461Y104479D01*
X151714Y104312D01*
X152012Y104256D01*
X152308Y104321D01*
X152539Y104479D01*
X153419Y105360D01*
X155742Y106322D01*
X158258Y106322D01*
X160581Y105360D01*
X161961Y103979D01*
X162214Y103812D01*
X162512Y103756D01*
X162808Y103821D01*
X163039Y103979D01*
X164419Y105360D01*
X166742Y106322D01*
X169258Y106322D01*
X171581Y105360D01*
X172461Y104479D01*
X172714Y104312D01*
X173012Y104256D01*
X173308Y104321D01*
X173539Y104479D01*
X174419Y105360D01*
X176742Y106322D01*
X179258Y106322D01*
X181581Y105360D01*
X183360Y103581D01*
X184322Y101258D01*
X184322Y98742D01*
X183360Y96419D01*
X181581Y94640D01*
X179258Y93678D01*
X176742Y93678D01*
X174419Y94640D01*
X173539Y95521D01*
X173286Y95688D01*
X172988Y95744D01*
X172692Y95679D01*
X172461Y95521D01*
X171581Y94640D01*
X169258Y93678D01*
X166742Y93678D01*
X164419Y94640D01*
X163039Y96021D01*
X162786Y96188D01*
X162488Y96244D01*
X162192Y96179D01*
X161961Y96021D01*
X160581Y94640D01*
X158258Y93678D01*
X155742Y93678D01*
X153419Y94640D01*
X152539Y95521D01*
X152286Y95688D01*
X151988Y95744D01*
X151692Y95679D01*
X151461Y95521D01*
X150581Y94640D01*
X148258Y93678D01*
X145742Y93678D01*
G37*
G36*
X94073Y83820D02*
X90328Y85371D01*
X87461Y88238D01*
X85910Y91983D01*
X85910Y96037D01*
X87461Y99782D01*
X90328Y102649D01*
X94073Y104200D01*
X98127Y104200D01*
X101872Y102649D01*
X104739Y99782D01*
X106290Y96037D01*
X106290Y91983D01*
X104739Y88238D01*
X101872Y85371D01*
X98127Y83820D01*
X94073Y83820D01*
G37*
G36*
X68673Y83820D02*
X64928Y85371D01*
X62061Y88238D01*
X60510Y91983D01*
X60510Y96037D01*
X62061Y99782D01*
X64928Y102649D01*
X68673Y104200D01*
X72727Y104200D01*
X76472Y102649D01*
X79339Y99782D01*
X80890Y96037D01*
X80890Y91983D01*
X79339Y88238D01*
X76472Y85371D01*
X72727Y83820D01*
X68673Y83820D01*
G37*
G36*
X9710Y94772D02*
X9710Y96037D01*
X11261Y99782D01*
X14128Y102649D01*
X17873Y104200D01*
X19138Y104200D01*
X19138Y94772D01*
X9710Y94772D01*
G37*
G36*
X20662Y94772D02*
X20662Y104200D01*
X21927Y104200D01*
X25672Y102649D01*
X28539Y99782D01*
X30090Y96037D01*
X30090Y94772D01*
X20662Y94772D01*
G37*
G36*
X20662Y83820D02*
X20662Y93248D01*
X30090Y93248D01*
X30090Y91983D01*
X28539Y88238D01*
X25672Y85371D01*
X21927Y83820D01*
X20662Y83820D01*
G37*
G36*
X17873Y83820D02*
X14128Y85371D01*
X11261Y88238D01*
X9710Y91983D01*
X9710Y93248D01*
X19138Y93248D01*
X19138Y83820D01*
X17873Y83820D01*
G37*
G36*
X17873Y58420D02*
X14128Y59971D01*
X11261Y62838D01*
X9710Y66583D01*
X9710Y70637D01*
X11261Y74382D01*
X14128Y77249D01*
X17873Y78800D01*
X21927Y78800D01*
X25672Y77249D01*
X28539Y74382D01*
X30090Y70637D01*
X30090Y66583D01*
X28539Y62838D01*
X25672Y59971D01*
X21927Y58420D01*
X17873Y58420D01*
G37*
G36*
X68673Y58420D02*
X64928Y59971D01*
X62061Y62838D01*
X60510Y66583D01*
X60510Y70637D01*
X62061Y74382D01*
X64928Y77249D01*
X68673Y78800D01*
X72727Y78800D01*
X76472Y77249D01*
X79339Y74382D01*
X80890Y70637D01*
X80890Y66583D01*
X79339Y62838D01*
X76472Y59971D01*
X72727Y58420D01*
X68673Y58420D01*
G37*
G36*
X94073Y58420D02*
X90328Y59971D01*
X87461Y62838D01*
X85910Y66583D01*
X85910Y70637D01*
X87461Y74382D01*
X90328Y77249D01*
X94073Y78800D01*
X98127Y78800D01*
X101872Y77249D01*
X104739Y74382D01*
X106290Y70637D01*
X106290Y66583D01*
X104739Y62838D01*
X101872Y59971D01*
X98127Y58420D01*
X94073Y58420D01*
G37*
G36*
X43273Y7620D02*
X39528Y9171D01*
X36661Y12038D01*
X35110Y15783D01*
X35110Y19837D01*
X36661Y23582D01*
X39528Y26449D01*
X43273Y28000D01*
X47327Y28000D01*
X49089Y27270D01*
X49386Y27212D01*
X49683Y27275D01*
X49919Y27435D01*
X59024Y36540D01*
X61293Y36540D01*
X61590Y36600D01*
X61840Y36772D01*
X62004Y37027D01*
X62054Y37326D01*
X61997Y37594D01*
X60510Y41183D01*
X60510Y45237D01*
X62061Y48982D01*
X64928Y51849D01*
X68673Y53400D01*
X72727Y53400D01*
X76472Y51849D01*
X79339Y48982D01*
X80890Y45237D01*
X80890Y41183D01*
X79403Y37594D01*
X79345Y37296D01*
X79408Y36999D01*
X79581Y36750D01*
X79838Y36589D01*
X80107Y36540D01*
X86693Y36540D01*
X86990Y36600D01*
X87240Y36772D01*
X87404Y37027D01*
X87454Y37326D01*
X87397Y37594D01*
X85910Y41183D01*
X85910Y45237D01*
X87461Y48982D01*
X90328Y51849D01*
X94073Y53400D01*
X98127Y53400D01*
X101872Y51849D01*
X104739Y48982D01*
X106290Y45237D01*
X106290Y41183D01*
X104803Y37594D01*
X104745Y37296D01*
X104808Y36999D01*
X104981Y36750D01*
X105238Y36589D01*
X105507Y36540D01*
X119218Y36540D01*
X119515Y36600D01*
X119757Y36763D01*
X139371Y56377D01*
X139538Y56630D01*
X139594Y56928D01*
X139529Y57224D01*
X139353Y57472D01*
X139095Y57631D01*
X138832Y57678D01*
X138742Y57678D01*
X136419Y58640D01*
X135539Y59521D01*
X135286Y59688D01*
X134988Y59744D01*
X134692Y59679D01*
X134461Y59521D01*
X133581Y58640D01*
X131258Y57678D01*
X128742Y57678D01*
X126419Y58640D01*
X124640Y60419D01*
X123678Y62742D01*
X123678Y65258D01*
X124640Y67581D01*
X126419Y69360D01*
X128742Y70322D01*
X131258Y70322D01*
X133581Y69360D01*
X134461Y68479D01*
X134714Y68312D01*
X135012Y68256D01*
X135308Y68321D01*
X135539Y68479D01*
X136419Y69360D01*
X138742Y70322D01*
X141258Y70322D01*
X143581Y69360D01*
X145466Y67474D01*
X145719Y67307D01*
X146017Y67251D01*
X146297Y67309D01*
X148742Y68322D01*
X151258Y68322D01*
X153581Y67360D01*
X155461Y65479D01*
X155714Y65312D01*
X156012Y65256D01*
X156308Y65321D01*
X156539Y65479D01*
X158419Y67360D01*
X160742Y68322D01*
X163258Y68322D01*
X165581Y67360D01*
X167360Y65581D01*
X168322Y63258D01*
X168322Y60742D01*
X167360Y58419D01*
X165581Y56640D01*
X163258Y55678D01*
X161000Y55678D01*
X160703Y55618D01*
X160461Y55455D01*
X130466Y25460D01*
X130100Y25460D01*
X129803Y25400D01*
X129553Y25228D01*
X129390Y24973D01*
X129339Y24674D01*
X129409Y24379D01*
X129562Y24159D01*
X130139Y23582D01*
X131690Y19837D01*
X131690Y15783D01*
X130139Y12038D01*
X127272Y9171D01*
X123527Y7620D01*
X119473Y7620D01*
X115728Y9171D01*
X112861Y12038D01*
X111310Y15783D01*
X111310Y19837D01*
X112861Y23582D01*
X113438Y24159D01*
X113606Y24412D01*
X113661Y24710D01*
X113596Y25006D01*
X113421Y25254D01*
X113163Y25413D01*
X112900Y25460D01*
X104700Y25460D01*
X104403Y25400D01*
X104153Y25228D01*
X103990Y24973D01*
X103939Y24674D01*
X104009Y24379D01*
X104162Y24159D01*
X104739Y23582D01*
X106290Y19837D01*
X106290Y15783D01*
X104739Y12038D01*
X101872Y9171D01*
X98127Y7620D01*
X94073Y7620D01*
X90328Y9171D01*
X87461Y12038D01*
X85910Y15783D01*
X85910Y19837D01*
X87461Y23582D01*
X88038Y24159D01*
X88206Y24412D01*
X88261Y24710D01*
X88196Y25006D01*
X88021Y25254D01*
X87763Y25413D01*
X87500Y25460D01*
X83672Y25460D01*
X83375Y25400D01*
X83133Y25237D01*
X80325Y22429D01*
X80158Y22176D01*
X80102Y21878D01*
X80160Y21599D01*
X80890Y19837D01*
X80890Y15783D01*
X79339Y12038D01*
X76472Y9171D01*
X72727Y7620D01*
X68673Y7620D01*
X64928Y9171D01*
X62061Y12038D01*
X60510Y15783D01*
X60510Y19837D01*
X62061Y23582D01*
X64928Y26449D01*
X68659Y27994D01*
X68910Y28164D01*
X69076Y28418D01*
X69129Y28716D01*
X69061Y29012D01*
X68884Y29258D01*
X68625Y29415D01*
X68367Y29460D01*
X62272Y29460D01*
X61975Y29400D01*
X61733Y29237D01*
X54925Y22429D01*
X54758Y22176D01*
X54702Y21878D01*
X54760Y21599D01*
X55490Y19837D01*
X55490Y15783D01*
X53939Y12038D01*
X51072Y9171D01*
X47327Y7620D01*
X43273Y7620D01*
G37*
G36*
X235742Y35678D02*
X233419Y36640D01*
X231640Y38419D01*
X230678Y40742D01*
X230678Y43258D01*
X231640Y45581D01*
X233419Y47360D01*
X234473Y47796D01*
X234724Y47966D01*
X234890Y48220D01*
X234943Y48518D01*
X234875Y48814D01*
X234698Y49060D01*
X234473Y49204D01*
X233419Y49640D01*
X231640Y51419D01*
X230678Y53742D01*
X230678Y56258D01*
X231640Y58581D01*
X233419Y60360D01*
X235742Y61322D01*
X238258Y61322D01*
X240581Y60360D01*
X242360Y58581D01*
X243322Y56258D01*
X243322Y53742D01*
X242360Y51419D01*
X240581Y49640D01*
X239527Y49204D01*
X239276Y49035D01*
X239110Y48780D01*
X239057Y48482D01*
X239125Y48186D01*
X239302Y47940D01*
X239527Y47796D01*
X240581Y47360D01*
X242360Y45581D01*
X243322Y43258D01*
X243322Y40742D01*
X242360Y38419D01*
X240581Y36640D01*
X238258Y35678D01*
X235742Y35678D01*
G37*
G36*
X17873Y33020D02*
X14128Y34571D01*
X11261Y37438D01*
X9710Y41183D01*
X9710Y45237D01*
X11261Y48982D01*
X14128Y51849D01*
X17873Y53400D01*
X21927Y53400D01*
X25672Y51849D01*
X28539Y48982D01*
X30090Y45237D01*
X30090Y41183D01*
X28539Y37438D01*
X25672Y34571D01*
X21927Y33020D01*
X17873Y33020D01*
G37*
G36*
X267742Y35678D02*
X265419Y36640D01*
X263640Y38419D01*
X262678Y40742D01*
X262678Y43258D01*
X263640Y45581D01*
X265419Y47360D01*
X267742Y48322D01*
X270258Y48322D01*
X272581Y47360D01*
X274360Y45581D01*
X275322Y43258D01*
X275322Y40742D01*
X274360Y38419D01*
X272581Y36640D01*
X270258Y35678D01*
X267742Y35678D01*
G37*
G36*
X324762Y42970D02*
X324762Y48248D01*
X347540Y48248D01*
X347540Y44458D01*
X346052Y42970D01*
X324762Y42970D01*
G37*
G36*
X301948Y42970D02*
X300460Y44458D01*
X300460Y48248D01*
X323238Y48248D01*
X323238Y42970D01*
X301948Y42970D01*
G37*
G36*
X144873Y7620D02*
X141128Y9171D01*
X138261Y12038D01*
X136710Y15783D01*
X136710Y19837D01*
X138261Y23582D01*
X141128Y26449D01*
X144873Y28000D01*
X148927Y28000D01*
X152672Y26449D01*
X155539Y23582D01*
X157090Y19837D01*
X157090Y15783D01*
X155539Y12038D01*
X152672Y9171D01*
X148927Y7620D01*
X144873Y7620D01*
G37*
G36*
X17873Y7620D02*
X14128Y9171D01*
X11261Y12038D01*
X9710Y15783D01*
X9710Y19837D01*
X11261Y23582D01*
X14128Y26449D01*
X17873Y28000D01*
X21927Y28000D01*
X25672Y26449D01*
X28539Y23582D01*
X30090Y19837D01*
X30090Y15783D01*
X28539Y12038D01*
X25672Y9171D01*
X21927Y7620D01*
X17873Y7620D01*
G37*
G36*
X348073Y7620D02*
X344328Y9171D01*
X341461Y12038D01*
X339910Y15783D01*
X339910Y19837D01*
X341461Y23582D01*
X344328Y26449D01*
X348073Y28000D01*
X352127Y28000D01*
X355872Y26449D01*
X358739Y23582D01*
X360290Y19837D01*
X360290Y15783D01*
X358739Y12038D01*
X355872Y9171D01*
X352127Y7620D01*
X348073Y7620D01*
G37*
G36*
X314510Y18572D02*
X314510Y19837D01*
X316061Y23582D01*
X318928Y26449D01*
X322673Y28000D01*
X323938Y28000D01*
X323938Y18572D01*
X314510Y18572D01*
G37*
G36*
X297273Y7620D02*
X293528Y9171D01*
X290661Y12038D01*
X289110Y15783D01*
X289110Y19837D01*
X290661Y23582D01*
X293528Y26449D01*
X297273Y28000D01*
X301327Y28000D01*
X305072Y26449D01*
X307939Y23582D01*
X309490Y19837D01*
X309490Y15783D01*
X307939Y12038D01*
X305072Y9171D01*
X301327Y7620D01*
X297273Y7620D01*
G37*
G36*
X271873Y7620D02*
X268128Y9171D01*
X265261Y12038D01*
X263710Y15783D01*
X263710Y19837D01*
X265261Y23582D01*
X268128Y26449D01*
X271873Y28000D01*
X275927Y28000D01*
X279672Y26449D01*
X282539Y23582D01*
X284090Y19837D01*
X284090Y15783D01*
X282539Y12038D01*
X279672Y9171D01*
X275927Y7620D01*
X271873Y7620D01*
G37*
G36*
X246473Y7620D02*
X242728Y9171D01*
X239861Y12038D01*
X238310Y15783D01*
X238310Y19837D01*
X239861Y23582D01*
X242728Y26449D01*
X246473Y28000D01*
X250527Y28000D01*
X254272Y26449D01*
X257139Y23582D01*
X258690Y19837D01*
X258690Y15783D01*
X257139Y12038D01*
X254272Y9171D01*
X250527Y7620D01*
X246473Y7620D01*
G37*
G36*
X221073Y7620D02*
X217328Y9171D01*
X214461Y12038D01*
X212910Y15783D01*
X212910Y19837D01*
X214461Y23582D01*
X217328Y26449D01*
X221073Y28000D01*
X225127Y28000D01*
X228872Y26449D01*
X231739Y23582D01*
X233290Y19837D01*
X233290Y15783D01*
X231739Y12038D01*
X228872Y9171D01*
X225127Y7620D01*
X221073Y7620D01*
G37*
G36*
X195673Y7620D02*
X191928Y9171D01*
X189061Y12038D01*
X187510Y15783D01*
X187510Y19837D01*
X189061Y23582D01*
X191928Y26449D01*
X195673Y28000D01*
X199727Y28000D01*
X203472Y26449D01*
X206339Y23582D01*
X207890Y19837D01*
X207890Y15783D01*
X206339Y12038D01*
X203472Y9171D01*
X199727Y7620D01*
X195673Y7620D01*
G37*
G36*
X170273Y7620D02*
X166528Y9171D01*
X163661Y12038D01*
X162110Y15783D01*
X162110Y19837D01*
X163661Y23582D01*
X166528Y26449D01*
X170273Y28000D01*
X174327Y28000D01*
X178072Y26449D01*
X180939Y23582D01*
X182490Y19837D01*
X182490Y15783D01*
X180939Y12038D01*
X178072Y9171D01*
X174327Y7620D01*
X170273Y7620D01*
G37*
G36*
X325462Y18572D02*
X325462Y28000D01*
X326727Y28000D01*
X330472Y26449D01*
X333339Y23582D01*
X334890Y19837D01*
X334890Y18572D01*
X325462Y18572D01*
G37*
G36*
X325462Y7620D02*
X325462Y17048D01*
X334890Y17048D01*
X334890Y15783D01*
X333339Y12038D01*
X330472Y9171D01*
X326727Y7620D01*
X325462Y7620D01*
G37*
G36*
X322673Y7620D02*
X318928Y9171D01*
X316061Y12038D01*
X314510Y15783D01*
X314510Y17048D01*
X323938Y17048D01*
X323938Y7620D01*
X322673Y7620D01*
G37*
%LPD*%
G36*
X187495Y445446D02*
X187745Y445618D01*
X187909Y445873D01*
X187960Y446148D01*
X187960Y447552D01*
X189448Y449040D01*
X189657Y449040D01*
X189954Y449100D01*
X190204Y449272D01*
X190368Y449527D01*
X190419Y449826D01*
X190361Y450094D01*
X189678Y451742D01*
X189678Y454258D01*
X190640Y456581D01*
X190949Y456889D01*
X191116Y457142D01*
X191172Y457440D01*
X191107Y457736D01*
X190931Y457984D01*
X190673Y458143D01*
X190410Y458190D01*
X141590Y458190D01*
X141293Y458130D01*
X141043Y457958D01*
X140880Y457703D01*
X140829Y457404D01*
X140898Y457109D01*
X141051Y456889D01*
X142360Y455581D01*
X143322Y453258D01*
X143322Y450742D01*
X142360Y448419D01*
X140627Y446687D01*
X140460Y446434D01*
X140404Y446136D01*
X140469Y445840D01*
X140645Y445592D01*
X140903Y445433D01*
X141166Y445386D01*
X187198Y445386D01*
X187495Y445446D01*
G37*
G36*
X140308Y305128D02*
X140539Y305286D01*
X142470Y307217D01*
X142574Y307287D01*
X154327Y319040D01*
X181180Y319040D01*
X181477Y319100D01*
X181727Y319272D01*
X181891Y319527D01*
X181941Y319826D01*
X181872Y320121D01*
X181719Y320341D01*
X180640Y321419D01*
X179678Y323742D01*
X179678Y326258D01*
X180640Y328581D01*
X182419Y330360D01*
X182744Y330494D01*
X182995Y330664D01*
X183160Y330918D01*
X183214Y331216D01*
X183146Y331512D01*
X182969Y331758D01*
X182710Y331915D01*
X182452Y331960D01*
X180327Y331960D01*
X178623Y333664D01*
X178370Y333831D01*
X178072Y333887D01*
X177776Y333822D01*
X177528Y333646D01*
X177369Y333388D01*
X177322Y333125D01*
X177322Y332742D01*
X176360Y330419D01*
X174581Y328640D01*
X172258Y327678D01*
X169742Y327678D01*
X167419Y328640D01*
X165640Y330419D01*
X165204Y331473D01*
X165035Y331724D01*
X164780Y331890D01*
X164482Y331943D01*
X164186Y331875D01*
X163940Y331698D01*
X163796Y331473D01*
X163360Y330419D01*
X161581Y328640D01*
X159258Y327678D01*
X156742Y327678D01*
X154419Y328640D01*
X152640Y330419D01*
X151678Y332742D01*
X151678Y335258D01*
X152640Y337581D01*
X154419Y339360D01*
X156742Y340322D01*
X159258Y340322D01*
X161581Y339360D01*
X163360Y337581D01*
X163796Y336527D01*
X163966Y336276D01*
X164220Y336110D01*
X164518Y336057D01*
X164814Y336125D01*
X165060Y336302D01*
X165204Y336527D01*
X165640Y337581D01*
X167419Y339360D01*
X169742Y340322D01*
X170125Y340322D01*
X170422Y340382D01*
X170672Y340554D01*
X170836Y340809D01*
X170887Y341108D01*
X170817Y341403D01*
X170664Y341623D01*
X167960Y344327D01*
X167960Y365011D01*
X167900Y365308D01*
X167737Y365550D01*
X166728Y366558D01*
X166475Y366726D01*
X166177Y366782D01*
X165881Y366716D01*
X165651Y366558D01*
X165552Y366460D01*
X153448Y366460D01*
X151960Y367948D01*
X151960Y389988D01*
X167040Y389988D01*
X167040Y389076D01*
X167100Y388779D01*
X167272Y388529D01*
X167527Y388365D01*
X167802Y388314D01*
X173847Y388314D01*
X173884Y388290D01*
X174170Y388234D01*
X177830Y388234D01*
X178127Y388294D01*
X178369Y388457D01*
X180713Y390801D01*
X180880Y391054D01*
X180936Y391340D01*
X180936Y403156D01*
X180876Y403453D01*
X180704Y403703D01*
X180449Y403867D01*
X180150Y403917D01*
X179855Y403848D01*
X179635Y403695D01*
X179581Y403640D01*
X177258Y402678D01*
X174742Y402678D01*
X172419Y403640D01*
X171093Y404967D01*
X170840Y405134D01*
X170554Y405190D01*
X158017Y405190D01*
X157719Y405130D01*
X157469Y404958D01*
X157313Y404720D01*
X156360Y402419D01*
X154581Y400640D01*
X152258Y399678D01*
X149742Y399678D01*
X147419Y400640D01*
X145640Y402419D01*
X144678Y404742D01*
X144678Y407126D01*
X144618Y407423D01*
X144446Y407673D01*
X144191Y407837D01*
X143892Y407888D01*
X143624Y407830D01*
X143258Y407678D01*
X140742Y407678D01*
X138419Y408640D01*
X136640Y410419D01*
X135678Y412742D01*
X135678Y415258D01*
X136640Y417581D01*
X137967Y418907D01*
X138134Y419160D01*
X138190Y419446D01*
X138190Y430355D01*
X138132Y430646D01*
X137678Y431742D01*
X137678Y434258D01*
X138695Y436712D01*
X138753Y437010D01*
X138690Y437307D01*
X138517Y437556D01*
X138260Y437717D01*
X137991Y437766D01*
X124470Y437766D01*
X124173Y437706D01*
X123931Y437543D01*
X117545Y431157D01*
X117378Y430904D01*
X117322Y430618D01*
X117322Y428742D01*
X116360Y426419D01*
X114581Y424640D01*
X112258Y423678D01*
X109742Y423678D01*
X107419Y424640D01*
X105640Y426419D01*
X104678Y428742D01*
X104678Y431258D01*
X105640Y433581D01*
X107419Y435360D01*
X109742Y436322D01*
X111618Y436322D01*
X111915Y436382D01*
X112157Y436545D01*
X120998Y445386D01*
X132834Y445386D01*
X133131Y445446D01*
X133381Y445618D01*
X133545Y445873D01*
X133595Y446172D01*
X133526Y446467D01*
X133373Y446687D01*
X131640Y448419D01*
X130678Y450742D01*
X130678Y453258D01*
X131640Y455581D01*
X132949Y456889D01*
X133116Y457142D01*
X133172Y457440D01*
X133107Y457736D01*
X132931Y457984D01*
X132673Y458143D01*
X132410Y458190D01*
X97894Y458190D01*
X97597Y458130D01*
X97355Y457967D01*
X89729Y450341D01*
X89561Y450088D01*
X89506Y449790D01*
X89571Y449494D01*
X89746Y449246D01*
X90004Y449087D01*
X90268Y449040D01*
X90552Y449040D01*
X92040Y447552D01*
X92040Y435343D01*
X92100Y435046D01*
X92272Y434796D01*
X92527Y434632D01*
X92826Y434581D01*
X93094Y434639D01*
X94742Y435322D01*
X97258Y435322D01*
X99581Y434360D01*
X101360Y432581D01*
X102322Y430258D01*
X102322Y427742D01*
X101360Y425419D01*
X101281Y425341D01*
X101114Y425088D01*
X101058Y424790D01*
X101123Y424494D01*
X101299Y424246D01*
X101557Y424087D01*
X101820Y424040D01*
X103673Y424040D01*
X110040Y417673D01*
X110040Y396989D01*
X110100Y396692D01*
X110263Y396450D01*
X111272Y395442D01*
X111525Y395274D01*
X111823Y395219D01*
X112119Y395284D01*
X112350Y395442D01*
X112448Y395540D01*
X124552Y395540D01*
X126040Y394052D01*
X126040Y367948D01*
X124552Y366460D01*
X124136Y366460D01*
X123839Y366400D01*
X123589Y366228D01*
X123425Y365973D01*
X123374Y365674D01*
X123432Y365406D01*
X124322Y363258D01*
X124322Y360742D01*
X123432Y358594D01*
X123374Y358296D01*
X123437Y357999D01*
X123610Y357750D01*
X123867Y357589D01*
X124136Y357540D01*
X125052Y357540D01*
X126461Y356131D01*
X126714Y355963D01*
X127012Y355908D01*
X127308Y355973D01*
X127539Y356131D01*
X128948Y357540D01*
X134738Y357540D01*
X134738Y342460D01*
X128948Y342460D01*
X127539Y343869D01*
X127286Y344037D01*
X126988Y344092D01*
X126692Y344027D01*
X126461Y343869D01*
X125052Y342460D01*
X111948Y342460D01*
X110600Y343808D01*
X110347Y343976D01*
X110049Y344032D01*
X109752Y343966D01*
X109522Y343808D01*
X102673Y336960D01*
X92802Y336960D01*
X92505Y336900D01*
X92255Y336728D01*
X92091Y336473D01*
X92040Y336198D01*
X92040Y329448D01*
X90552Y327960D01*
X78448Y327960D01*
X76960Y329448D01*
X76960Y342552D01*
X77058Y342651D01*
X77226Y342903D01*
X77282Y343202D01*
X77216Y343498D01*
X77058Y343728D01*
X72050Y348737D01*
X71797Y348904D01*
X71511Y348960D01*
X61572Y348960D01*
X61275Y348900D01*
X61025Y348728D01*
X60861Y348473D01*
X60810Y348198D01*
X60810Y344802D01*
X60870Y344505D01*
X61042Y344255D01*
X61297Y344091D01*
X61572Y344040D01*
X73552Y344040D01*
X75040Y342552D01*
X75040Y329448D01*
X73552Y327960D01*
X72302Y327960D01*
X72005Y327900D01*
X71755Y327728D01*
X71591Y327473D01*
X71540Y327198D01*
X71540Y323302D01*
X71600Y323005D01*
X71772Y322755D01*
X72027Y322591D01*
X72302Y322540D01*
X74052Y322540D01*
X75461Y321131D01*
X75714Y320963D01*
X76012Y320908D01*
X76308Y320973D01*
X76539Y321131D01*
X77948Y322540D01*
X91052Y322540D01*
X92540Y321052D01*
X92540Y319802D01*
X92600Y319505D01*
X92772Y319255D01*
X93027Y319091D01*
X93302Y319040D01*
X125673Y319040D01*
X137426Y307287D01*
X137527Y307221D01*
X139461Y305286D01*
X139714Y305119D01*
X140012Y305063D01*
X140308Y305128D01*
G37*
%LPC*%
G36*
X160262Y391512D02*
X160262Y395540D01*
X165552Y395540D01*
X167040Y394052D01*
X167040Y391512D01*
X160262Y391512D01*
G37*
G36*
X151960Y391512D02*
X151960Y394052D01*
X153448Y395540D01*
X158738Y395540D01*
X158738Y391512D01*
X151960Y391512D01*
G37*
G36*
X136262Y350762D02*
X136262Y357540D01*
X142052Y357540D01*
X143540Y356052D01*
X143540Y350762D01*
X136262Y350762D01*
G37*
G36*
X136262Y342460D02*
X136262Y349238D01*
X143540Y349238D01*
X143540Y343948D01*
X142052Y342460D01*
X136262Y342460D01*
G37*
G36*
X141742Y327678D02*
X139419Y328640D01*
X137640Y330419D01*
X136678Y332742D01*
X136678Y335258D01*
X137640Y337581D01*
X139419Y339360D01*
X141742Y340322D01*
X144258Y340322D01*
X146581Y339360D01*
X148360Y337581D01*
X149322Y335258D01*
X149322Y332742D01*
X148360Y330419D01*
X146581Y328640D01*
X144258Y327678D01*
X141742Y327678D01*
G37*
%LPD*%
G36*
X221403Y381870D02*
X221645Y382033D01*
X224967Y385355D01*
X225134Y385608D01*
X225190Y385894D01*
X225190Y402578D01*
X228989Y406377D01*
X229157Y406630D01*
X229212Y406928D01*
X229147Y407224D01*
X228972Y407472D01*
X228714Y407631D01*
X228450Y407678D01*
X227742Y407678D01*
X225419Y408640D01*
X223640Y410419D01*
X222678Y412742D01*
X222678Y415258D01*
X223640Y417581D01*
X225419Y419360D01*
X227742Y420322D01*
X230258Y420322D01*
X232581Y419360D01*
X234177Y417763D01*
X234430Y417596D01*
X234716Y417540D01*
X236198Y417540D01*
X236495Y417600D01*
X236745Y417772D01*
X236909Y418027D01*
X236960Y418302D01*
X236960Y419988D01*
X245262Y419988D01*
X245262Y425540D01*
X250552Y425540D01*
X250889Y425203D01*
X251142Y425035D01*
X251440Y424980D01*
X251736Y425045D01*
X251984Y425220D01*
X252143Y425478D01*
X252190Y425742D01*
X252190Y429106D01*
X252130Y429403D01*
X251967Y429645D01*
X223645Y457967D01*
X223392Y458134D01*
X223106Y458190D01*
X201590Y458190D01*
X201293Y458130D01*
X201043Y457958D01*
X200880Y457703D01*
X200829Y457404D01*
X200898Y457109D01*
X201051Y456889D01*
X201360Y456581D01*
X202322Y454258D01*
X202322Y451742D01*
X201500Y449758D01*
X201442Y449460D01*
X201505Y449163D01*
X201665Y448927D01*
X203040Y447552D01*
X203040Y434448D01*
X201552Y432960D01*
X189448Y432960D01*
X187960Y434448D01*
X187960Y437004D01*
X187900Y437301D01*
X187728Y437551D01*
X187473Y437715D01*
X187198Y437766D01*
X150009Y437766D01*
X149712Y437706D01*
X149462Y437534D01*
X149298Y437279D01*
X149248Y436980D01*
X149305Y436712D01*
X150322Y434258D01*
X150322Y431742D01*
X149360Y429419D01*
X147581Y427640D01*
X146280Y427102D01*
X146029Y426932D01*
X145863Y426678D01*
X145810Y426398D01*
X145810Y419446D01*
X145870Y419149D01*
X146033Y418907D01*
X147360Y417581D01*
X148322Y415258D01*
X148322Y412874D01*
X148382Y412577D01*
X148554Y412327D01*
X148809Y412163D01*
X149108Y412112D01*
X149376Y412170D01*
X149742Y412322D01*
X151618Y412322D01*
X151915Y412382D01*
X152157Y412545D01*
X152422Y412810D01*
X170554Y412810D01*
X170851Y412870D01*
X171093Y413033D01*
X172419Y414360D01*
X174742Y415322D01*
X177258Y415322D01*
X179581Y414360D01*
X179635Y414305D01*
X179888Y414138D01*
X180186Y414082D01*
X180482Y414147D01*
X180730Y414323D01*
X180889Y414581D01*
X180936Y414844D01*
X180936Y415683D01*
X187737Y422484D01*
X187904Y422737D01*
X187960Y423023D01*
X187960Y426552D01*
X189448Y428040D01*
X201552Y428040D01*
X203040Y426552D01*
X203040Y418489D01*
X203100Y418192D01*
X203263Y417950D01*
X203659Y417554D01*
X203912Y417387D01*
X204210Y417331D01*
X204506Y417396D01*
X204754Y417572D01*
X204913Y417830D01*
X204960Y418093D01*
X204960Y426552D01*
X206448Y428040D01*
X207698Y428040D01*
X207995Y428100D01*
X208245Y428272D01*
X208409Y428527D01*
X208460Y428802D01*
X208460Y432198D01*
X208400Y432495D01*
X208228Y432745D01*
X207973Y432909D01*
X207698Y432960D01*
X206448Y432960D01*
X204960Y434448D01*
X204960Y447552D01*
X206448Y449040D01*
X218552Y449040D01*
X220040Y447552D01*
X220040Y434448D01*
X218552Y432960D01*
X217302Y432960D01*
X217005Y432900D01*
X216755Y432728D01*
X216591Y432473D01*
X216540Y432198D01*
X216540Y428802D01*
X216600Y428505D01*
X216772Y428255D01*
X217027Y428091D01*
X217302Y428040D01*
X218552Y428040D01*
X220040Y426552D01*
X220040Y413448D01*
X218552Y411960D01*
X211093Y411960D01*
X210796Y411900D01*
X210546Y411728D01*
X210382Y411473D01*
X210331Y411174D01*
X210401Y410879D01*
X210554Y410659D01*
X213950Y407263D01*
X214203Y407096D01*
X214489Y407040D01*
X218552Y407040D01*
X220040Y405552D01*
X220040Y392448D01*
X218552Y390960D01*
X208572Y390960D01*
X208275Y390900D01*
X208025Y390728D01*
X207861Y390473D01*
X207810Y390198D01*
X207810Y386802D01*
X207870Y386505D01*
X208042Y386255D01*
X208297Y386091D01*
X208572Y386040D01*
X218552Y386040D01*
X220040Y384552D01*
X220040Y382572D01*
X220100Y382275D01*
X220272Y382025D01*
X220527Y381861D01*
X220802Y381810D01*
X221106Y381810D01*
X221403Y381870D01*
G37*
%LPC*%
G36*
X236960Y421512D02*
X236960Y424052D01*
X238448Y425540D01*
X243738Y425540D01*
X243738Y421512D01*
X236960Y421512D01*
G37*
%LPD*%
G36*
X114383Y177571D02*
X114603Y177724D01*
X115728Y178849D01*
X119473Y180400D01*
X123527Y180400D01*
X124765Y179887D01*
X125062Y179829D01*
X125359Y179892D01*
X125595Y180052D01*
X139607Y194064D01*
X280106Y194064D01*
X280404Y194124D01*
X280654Y194296D01*
X280817Y194551D01*
X280868Y194850D01*
X280798Y195145D01*
X280645Y195365D01*
X278273Y197737D01*
X278020Y197904D01*
X277734Y197960D01*
X269012Y197960D01*
X269012Y213040D01*
X269732Y213040D01*
X270029Y213100D01*
X270280Y213272D01*
X270443Y213527D01*
X270494Y213826D01*
X270424Y214121D01*
X270271Y214341D01*
X266645Y217967D01*
X266392Y218134D01*
X266106Y218190D01*
X260446Y218190D01*
X260149Y218130D01*
X259907Y217967D01*
X258581Y216640D01*
X256258Y215678D01*
X253742Y215678D01*
X251419Y216640D01*
X249640Y218419D01*
X248678Y220742D01*
X248678Y223258D01*
X249126Y224340D01*
X249184Y224637D01*
X249121Y224934D01*
X248948Y225183D01*
X248691Y225344D01*
X248392Y225393D01*
X248097Y225320D01*
X247883Y225170D01*
X241173Y218460D01*
X227802Y218460D01*
X227505Y218400D01*
X227255Y218228D01*
X227091Y217973D01*
X227040Y217698D01*
X227040Y216448D01*
X225552Y214960D01*
X212448Y214960D01*
X210960Y216448D01*
X210960Y217698D01*
X210900Y217995D01*
X210728Y218245D01*
X210473Y218409D01*
X210198Y218460D01*
X206802Y218460D01*
X206505Y218400D01*
X206255Y218228D01*
X206091Y217973D01*
X206040Y217698D01*
X206040Y216448D01*
X204552Y214960D01*
X191448Y214960D01*
X189960Y216448D01*
X189960Y228552D01*
X191448Y230040D01*
X204552Y230040D01*
X206040Y228552D01*
X206040Y227302D01*
X206100Y227005D01*
X206272Y226755D01*
X206527Y226591D01*
X206802Y226540D01*
X210198Y226540D01*
X210495Y226600D01*
X210745Y226772D01*
X210909Y227027D01*
X210960Y227302D01*
X210960Y228552D01*
X212448Y230040D01*
X225552Y230040D01*
X227040Y228552D01*
X227040Y227302D01*
X227100Y227005D01*
X227272Y226755D01*
X227527Y226591D01*
X227802Y226540D01*
X237511Y226540D01*
X237808Y226600D01*
X238050Y226763D01*
X245446Y234159D01*
X245613Y234412D01*
X245669Y234710D01*
X245604Y235006D01*
X245428Y235254D01*
X245170Y235413D01*
X244907Y235460D01*
X227802Y235460D01*
X227505Y235400D01*
X227255Y235228D01*
X227091Y234973D01*
X227040Y234698D01*
X227040Y233448D01*
X225552Y231960D01*
X212448Y231960D01*
X210960Y233448D01*
X210960Y234698D01*
X210900Y234995D01*
X210728Y235245D01*
X210473Y235409D01*
X210198Y235460D01*
X206802Y235460D01*
X206505Y235400D01*
X206255Y235228D01*
X206091Y234973D01*
X206040Y234698D01*
X206040Y233448D01*
X204552Y231960D01*
X191448Y231960D01*
X189960Y233448D01*
X189960Y245552D01*
X191448Y247040D01*
X204552Y247040D01*
X206040Y245552D01*
X206040Y244302D01*
X206100Y244005D01*
X206272Y243755D01*
X206527Y243591D01*
X206802Y243540D01*
X210198Y243540D01*
X210495Y243600D01*
X210745Y243772D01*
X210909Y244027D01*
X210960Y244302D01*
X210960Y245552D01*
X212448Y247040D01*
X225552Y247040D01*
X227040Y245552D01*
X227040Y244302D01*
X227100Y244005D01*
X227272Y243755D01*
X227527Y243591D01*
X227802Y243540D01*
X243511Y243540D01*
X243808Y243600D01*
X244050Y243763D01*
X246455Y246168D01*
X246622Y246421D01*
X246678Y246707D01*
X246678Y248258D01*
X247640Y250581D01*
X249419Y252360D01*
X251742Y253322D01*
X254258Y253322D01*
X256581Y252360D01*
X258360Y250581D01*
X258951Y249154D01*
X259120Y248903D01*
X259374Y248737D01*
X259673Y248684D01*
X259969Y248751D01*
X260193Y248907D01*
X261827Y250540D01*
X262698Y250540D01*
X262995Y250600D01*
X263245Y250772D01*
X263409Y251027D01*
X263460Y251302D01*
X263460Y252552D01*
X264948Y254040D01*
X268618Y254040D01*
X268915Y254100D01*
X269165Y254272D01*
X269329Y254527D01*
X269380Y254802D01*
X269380Y257742D01*
X269320Y258039D01*
X269148Y258289D01*
X268893Y258453D01*
X268618Y258504D01*
X265518Y258504D01*
X264030Y259992D01*
X264030Y261686D01*
X263970Y261983D01*
X263798Y262233D01*
X263543Y262397D01*
X263244Y262448D01*
X262976Y262390D01*
X261258Y261678D01*
X258742Y261678D01*
X256594Y262568D01*
X256296Y262626D01*
X255999Y262563D01*
X255750Y262390D01*
X255589Y262133D01*
X255559Y261967D01*
X254052Y260460D01*
X241948Y260460D01*
X240460Y261948D01*
X240460Y275052D01*
X241869Y276461D01*
X242037Y276714D01*
X242092Y277012D01*
X242027Y277308D01*
X241869Y277539D01*
X240460Y278948D01*
X240460Y282232D01*
X240400Y282529D01*
X240228Y282780D01*
X239973Y282943D01*
X239674Y282994D01*
X239379Y282924D01*
X239159Y282771D01*
X230545Y274157D01*
X230378Y273904D01*
X230322Y273618D01*
X230322Y271742D01*
X229360Y269419D01*
X227581Y267640D01*
X225258Y266678D01*
X222742Y266678D01*
X220419Y267640D01*
X218640Y269419D01*
X218204Y270473D01*
X218035Y270724D01*
X217780Y270890D01*
X217482Y270943D01*
X217186Y270875D01*
X216940Y270698D01*
X216796Y270473D01*
X216360Y269419D01*
X214581Y267640D01*
X212258Y266678D01*
X209742Y266678D01*
X207419Y267640D01*
X205640Y269419D01*
X205204Y270473D01*
X205035Y270724D01*
X204780Y270890D01*
X204482Y270943D01*
X204186Y270875D01*
X203940Y270698D01*
X203796Y270473D01*
X203360Y269419D01*
X201581Y267640D01*
X199258Y266678D01*
X196742Y266678D01*
X194419Y267640D01*
X192640Y269419D01*
X192204Y270473D01*
X192035Y270724D01*
X191780Y270890D01*
X191482Y270943D01*
X191186Y270875D01*
X190940Y270698D01*
X190796Y270473D01*
X190360Y269419D01*
X188581Y267640D01*
X186258Y266678D01*
X183742Y266678D01*
X181419Y267640D01*
X179640Y269419D01*
X178678Y271742D01*
X178678Y274258D01*
X179640Y276581D01*
X181419Y278360D01*
X183742Y279322D01*
X186258Y279322D01*
X188581Y278360D01*
X190360Y276581D01*
X190796Y275527D01*
X190966Y275276D01*
X191220Y275110D01*
X191518Y275057D01*
X191814Y275125D01*
X192060Y275302D01*
X192204Y275527D01*
X192640Y276581D01*
X194419Y278360D01*
X196742Y279322D01*
X199258Y279322D01*
X201581Y278360D01*
X203360Y276581D01*
X203796Y275527D01*
X203966Y275276D01*
X204220Y275110D01*
X204518Y275057D01*
X204814Y275125D01*
X205060Y275302D01*
X205204Y275527D01*
X205640Y276581D01*
X207419Y278360D01*
X209742Y279322D01*
X211618Y279322D01*
X211915Y279382D01*
X212157Y279545D01*
X229967Y297355D01*
X230134Y297608D01*
X230190Y297894D01*
X230190Y342398D01*
X230130Y342695D01*
X229958Y342945D01*
X229720Y343102D01*
X228419Y343640D01*
X227111Y344949D01*
X226858Y345116D01*
X226560Y345172D01*
X226264Y345107D01*
X226016Y344931D01*
X225857Y344673D01*
X225810Y344410D01*
X225810Y306422D01*
X220578Y301190D01*
X197422Y301190D01*
X191633Y306979D01*
X191630Y306995D01*
X191458Y307245D01*
X191203Y307409D01*
X190928Y307460D01*
X188948Y307460D01*
X187460Y308948D01*
X187460Y310198D01*
X187400Y310495D01*
X187228Y310745D01*
X186973Y310909D01*
X186698Y310960D01*
X157989Y310960D01*
X157692Y310900D01*
X157450Y310737D01*
X148287Y301574D01*
X148120Y301321D01*
X148064Y301035D01*
X148064Y267094D01*
X148124Y266797D01*
X148287Y266555D01*
X149290Y265552D01*
X149290Y245448D01*
X147802Y243960D01*
X145548Y243960D01*
X145251Y243900D01*
X145001Y243728D01*
X144837Y243473D01*
X144786Y243174D01*
X144856Y242879D01*
X145036Y242634D01*
X145257Y242494D01*
X145581Y242360D01*
X147360Y240581D01*
X147658Y239861D01*
X147827Y239610D01*
X148081Y239444D01*
X148380Y239391D01*
X148676Y239458D01*
X148901Y239614D01*
X152827Y243540D01*
X168698Y243540D01*
X168995Y243600D01*
X169245Y243772D01*
X169409Y244027D01*
X169460Y244302D01*
X169460Y246052D01*
X170869Y247461D01*
X171037Y247714D01*
X171092Y248012D01*
X171027Y248308D01*
X170869Y248539D01*
X169460Y249948D01*
X169460Y263052D01*
X170948Y264540D01*
X183052Y264540D01*
X184540Y263052D01*
X184540Y261302D01*
X184600Y261005D01*
X184772Y260755D01*
X185027Y260591D01*
X185302Y260540D01*
X189198Y260540D01*
X189495Y260600D01*
X189745Y260772D01*
X189909Y261027D01*
X189960Y261302D01*
X189960Y262552D01*
X191448Y264040D01*
X204552Y264040D01*
X206040Y262552D01*
X206040Y250448D01*
X204552Y248960D01*
X191448Y248960D01*
X189960Y250448D01*
X189960Y251698D01*
X189900Y251995D01*
X189728Y252245D01*
X189473Y252409D01*
X189198Y252460D01*
X185302Y252460D01*
X185005Y252400D01*
X184755Y252228D01*
X184591Y251973D01*
X184540Y251698D01*
X184540Y249948D01*
X183131Y248539D01*
X182963Y248286D01*
X182908Y247988D01*
X182973Y247692D01*
X183131Y247461D01*
X184540Y246052D01*
X184540Y232948D01*
X183051Y231459D01*
X182883Y231206D01*
X182828Y230908D01*
X182893Y230612D01*
X183051Y230381D01*
X184380Y229052D01*
X184380Y215948D01*
X182971Y214539D01*
X182803Y214286D01*
X182748Y213988D01*
X182813Y213692D01*
X182971Y213461D01*
X184380Y212052D01*
X184380Y210302D01*
X184440Y210005D01*
X184612Y209755D01*
X184867Y209591D01*
X185142Y209540D01*
X189198Y209540D01*
X189495Y209600D01*
X189745Y209772D01*
X189909Y210027D01*
X189960Y210302D01*
X189960Y211552D01*
X191448Y213040D01*
X204552Y213040D01*
X206040Y211552D01*
X206040Y199448D01*
X204552Y197960D01*
X191448Y197960D01*
X189960Y199448D01*
X189960Y200698D01*
X189900Y200995D01*
X189728Y201245D01*
X189473Y201409D01*
X189198Y201460D01*
X185142Y201460D01*
X184845Y201400D01*
X184595Y201228D01*
X184431Y200973D01*
X184380Y200698D01*
X184380Y198948D01*
X182892Y197460D01*
X170788Y197460D01*
X169300Y198948D01*
X169300Y212052D01*
X170709Y213461D01*
X170877Y213714D01*
X170932Y214012D01*
X170867Y214308D01*
X170709Y214539D01*
X169300Y215948D01*
X169300Y217698D01*
X169240Y217995D01*
X169068Y218245D01*
X168813Y218409D01*
X168538Y218460D01*
X150052Y218460D01*
X149755Y218400D01*
X149505Y218228D01*
X149341Y217973D01*
X149290Y217698D01*
X149290Y202448D01*
X147802Y200960D01*
X130945Y200960D01*
X130648Y200900D01*
X130407Y200737D01*
X113525Y183855D01*
X113358Y183603D01*
X113302Y183317D01*
X113302Y178262D01*
X113362Y177965D01*
X113534Y177715D01*
X113789Y177552D01*
X114088Y177501D01*
X114383Y177571D01*
G37*
%LPC*%
G36*
X172742Y296178D02*
X170419Y297140D01*
X168640Y298919D01*
X167678Y301242D01*
X167678Y303758D01*
X168640Y306081D01*
X170419Y307860D01*
X172742Y308822D01*
X175258Y308822D01*
X177581Y307860D01*
X179360Y306081D01*
X180322Y303758D01*
X180322Y301242D01*
X179360Y298919D01*
X177581Y297140D01*
X175258Y296178D01*
X172742Y296178D01*
G37*
G36*
X159742Y266678D02*
X157419Y267640D01*
X155640Y269419D01*
X154678Y271742D01*
X154678Y274258D01*
X155640Y276581D01*
X157419Y278360D01*
X159742Y279322D01*
X162258Y279322D01*
X164581Y278360D01*
X166360Y276581D01*
X167322Y274258D01*
X167322Y271742D01*
X166360Y269419D01*
X164581Y267640D01*
X162258Y266678D01*
X159742Y266678D01*
G37*
G36*
X210960Y257262D02*
X210960Y262552D01*
X212448Y264040D01*
X218238Y264040D01*
X218238Y257262D01*
X210960Y257262D01*
G37*
G36*
X219762Y257262D02*
X219762Y264040D01*
X225552Y264040D01*
X227040Y262552D01*
X227040Y257262D01*
X219762Y257262D01*
G37*
G36*
X219762Y248960D02*
X219762Y255738D01*
X227040Y255738D01*
X227040Y250448D01*
X225552Y248960D01*
X219762Y248960D01*
G37*
G36*
X212448Y248960D02*
X210960Y250448D01*
X210960Y255738D01*
X218238Y255738D01*
X218238Y248960D01*
X212448Y248960D01*
G37*
G36*
X219762Y206262D02*
X219762Y213040D01*
X225552Y213040D01*
X227040Y211552D01*
X227040Y206262D01*
X219762Y206262D01*
G37*
G36*
X210960Y206262D02*
X210960Y211552D01*
X212448Y213040D01*
X218238Y213040D01*
X218238Y206262D01*
X210960Y206262D01*
G37*
G36*
X263460Y206262D02*
X263460Y211552D01*
X264948Y213040D01*
X267488Y213040D01*
X267488Y206262D01*
X263460Y206262D01*
G37*
G36*
X212448Y197960D02*
X210960Y199448D01*
X210960Y204738D01*
X218238Y204738D01*
X218238Y197960D01*
X212448Y197960D01*
G37*
G36*
X219762Y197960D02*
X219762Y204738D01*
X227040Y204738D01*
X227040Y199448D01*
X225552Y197960D01*
X219762Y197960D01*
G37*
G36*
X264948Y197960D02*
X263460Y199448D01*
X263460Y204738D01*
X267488Y204738D01*
X267488Y197960D01*
X264948Y197960D01*
G37*
%LPD*%
D10*
X306500Y441000D03*
X323500Y441000D03*
D11*
X308000Y380500D03*
X308000Y363500D03*
X245000Y363500D03*
X245000Y380500D03*
D10*
X135500Y350000D03*
X118500Y350000D03*
D11*
X176840Y222500D03*
X176840Y205500D03*
X177000Y239500D03*
X177000Y256500D03*
X248000Y268500D03*
X248000Y285500D03*
X304000Y265500D03*
X304000Y282500D03*
X309000Y222500D03*
X309000Y205500D03*
D10*
X354500Y274000D03*
X337500Y274000D03*
X212500Y315000D03*
X195500Y315000D03*
X67500Y315000D03*
X84500Y315000D03*
D12*
X285500Y401250D03*
X285500Y407750D03*
X285500Y414250D03*
X285500Y420750D03*
X244500Y420750D03*
X244500Y414250D03*
X244500Y407750D03*
X244500Y401250D03*
X159500Y371250D03*
X159500Y377750D03*
X159500Y384250D03*
X159500Y390750D03*
X118500Y390750D03*
X118500Y384250D03*
X118500Y377750D03*
X118500Y371250D03*
D13*
X287750Y246500D03*
X281250Y246500D03*
X274750Y246500D03*
X268250Y246500D03*
X268250Y205500D03*
X274750Y205500D03*
X281250Y205500D03*
X287750Y205500D03*
D11*
X212500Y420000D03*
X195500Y420000D03*
X212500Y378000D03*
X195500Y378000D03*
X67500Y420000D03*
X84500Y420000D03*
X67500Y378000D03*
X84500Y378000D03*
X212500Y399000D03*
X195500Y399000D03*
X212500Y357000D03*
X195500Y357000D03*
X67500Y399000D03*
X84500Y399000D03*
X67500Y357000D03*
X84500Y357000D03*
D10*
X285000Y380500D03*
X285000Y363500D03*
D11*
X212500Y336000D03*
X195500Y336000D03*
X67500Y336000D03*
X84500Y336000D03*
D10*
X198000Y222500D03*
X198000Y205500D03*
X219000Y205500D03*
X219000Y222500D03*
X198000Y239500D03*
X198000Y256500D03*
X219000Y256500D03*
X219000Y239500D03*
X304000Y316500D03*
X304000Y299500D03*
D11*
X354500Y232000D03*
X337500Y232000D03*
X285500Y441000D03*
X268500Y441000D03*
X337500Y253000D03*
X354500Y253000D03*
D10*
X351000Y380500D03*
X351000Y363500D03*
D11*
X212500Y441000D03*
X195500Y441000D03*
X67500Y441000D03*
X84500Y441000D03*
D14*
X307156Y420906D03*
X307156Y416080D03*
X307156Y411000D03*
X307156Y405920D03*
X307156Y401094D03*
X350844Y401094D03*
X350844Y405920D03*
X350844Y411000D03*
X350844Y416080D03*
X350844Y420906D03*
D15*
X19900Y170210D03*
X45300Y170210D03*
X70700Y170210D03*
X96100Y170210D03*
X121500Y170210D03*
X146900Y170210D03*
X172300Y170210D03*
X197700Y170210D03*
X223100Y170210D03*
X248500Y170210D03*
X273900Y170210D03*
X299300Y170210D03*
X324700Y170210D03*
X350100Y170210D03*
X19900Y17810D03*
X45300Y17810D03*
X70700Y17810D03*
X96100Y17810D03*
X121500Y17810D03*
X146900Y17810D03*
X172300Y17810D03*
X197700Y17810D03*
X223100Y17810D03*
X248500Y17810D03*
X273900Y17810D03*
X299300Y17810D03*
X324700Y17810D03*
X350100Y17810D03*
X19900Y144810D03*
X19900Y119410D03*
X19900Y94010D03*
X19900Y68610D03*
X19900Y43210D03*
X70700Y43210D03*
X96100Y43210D03*
X70700Y68610D03*
X96100Y68610D03*
X70700Y94010D03*
X96100Y94010D03*
X70700Y119410D03*
X96100Y119410D03*
X70700Y144810D03*
X96100Y144810D03*
D16*
X303000Y59010D03*
X303000Y69010D03*
X303000Y79010D03*
X303000Y89010D03*
X303000Y99010D03*
X303000Y109010D03*
X303000Y119010D03*
X303000Y129010D03*
D17*
X324000Y49010D03*
X324000Y139010D03*
D18*
X268094Y268156D03*
X272920Y268156D03*
X278000Y268156D03*
X283080Y268156D03*
X287906Y268156D03*
X287906Y311844D03*
X283080Y311844D03*
X278000Y311844D03*
X272920Y311844D03*
X268094Y311844D03*
D10*
X111500Y557000D03*
X128500Y557000D03*
D19*
X111246Y532000D03*
X128754Y532000D03*
D20*
X68500Y506000D03*
X83500Y506000D03*
D11*
X120500Y506000D03*
X103500Y506000D03*
D10*
X84000Y552500D03*
X84000Y535500D03*
D21*
X130000Y593000D03*
X107476Y593000D03*
D22*
X80000Y212500D03*
X80000Y255500D03*
X88000Y212500D03*
X88000Y255500D03*
X96000Y212500D03*
X96000Y255500D03*
X104000Y212500D03*
X104000Y255500D03*
X112000Y212500D03*
X112000Y255500D03*
X120000Y212500D03*
X120000Y255500D03*
X128000Y212500D03*
X128000Y255500D03*
X136000Y212500D03*
X136000Y255500D03*
X144000Y212500D03*
X144000Y255500D03*
D11*
X120500Y483000D03*
X103500Y483000D03*
D20*
X68500Y483000D03*
X83500Y483000D03*
D23*
X165250Y552500D03*
X165250Y597500D03*
X165250Y582500D03*
X165250Y567500D03*
X165250Y537500D03*
X165250Y522500D03*
X165250Y507500D03*
X165250Y492500D03*
D24*
X180250Y481500D03*
X195250Y481500D03*
X210250Y481500D03*
X225250Y481500D03*
X240250Y481500D03*
X255250Y481500D03*
X270250Y481500D03*
X285250Y481500D03*
X300250Y481500D03*
X315250Y481500D03*
X330250Y481500D03*
X345250Y481500D03*
X360250Y481500D03*
X360250Y608500D03*
X345250Y608500D03*
X330250Y608500D03*
X315250Y608500D03*
X300250Y608500D03*
X285250Y608500D03*
X270250Y608500D03*
X255250Y608500D03*
X240250Y608500D03*
X225250Y608500D03*
X210250Y608500D03*
X195250Y608500D03*
X180250Y608500D03*
D25*
X107476Y593000D02*
X86000Y593000D01*
D26*
X86000Y593000D03*
D27*
X135500Y359500D02*
X135500Y350000D01*
X135500Y359500D02*
X133000Y362000D01*
D26*
X133000Y362000D03*
X220004Y388500D03*
X350000Y155000D03*
X365000Y170000D03*
X364000Y11000D03*
X9000Y10000D03*
X39000Y94000D03*
X11000Y31000D03*
X11000Y56000D03*
X11000Y81000D03*
X11000Y107000D03*
X11000Y132000D03*
X11000Y158000D03*
X11000Y189000D03*
X365000Y94000D03*
X11000Y614000D03*
X31000Y614000D03*
X51000Y614000D03*
X71000Y614000D03*
X91000Y614000D03*
X111000Y614000D03*
X131000Y614000D03*
X151000Y614000D03*
X11000Y594000D03*
X11000Y574000D03*
X11000Y554000D03*
X11000Y534000D03*
X11000Y514000D03*
X11000Y494000D03*
X11000Y474000D03*
X11000Y454000D03*
X11000Y434000D03*
X11000Y414000D03*
X11000Y394000D03*
X11000Y374000D03*
X11000Y354000D03*
X11000Y334000D03*
X11000Y314000D03*
X11000Y294000D03*
X11000Y274000D03*
X11000Y254000D03*
X11000Y234000D03*
X11000Y214000D03*
X68000Y218000D03*
X68000Y207000D03*
X258000Y205000D03*
X296000Y223000D03*
X261000Y286000D03*
X317000Y283000D03*
X337000Y289000D03*
X324000Y263000D03*
X232000Y256000D03*
X232000Y202000D03*
X337000Y441000D03*
X285000Y351000D03*
X325000Y416000D03*
X268000Y455000D03*
X244000Y432000D03*
X259000Y364000D03*
X175000Y435000D03*
X117000Y421000D03*
X98000Y533000D03*
X59000Y495000D03*
X98000Y557000D03*
X180000Y592000D03*
X165000Y479000D03*
X53000Y461000D03*
X53000Y440000D03*
X53000Y419000D03*
X53000Y398000D03*
X181000Y454000D03*
X136000Y474000D03*
X151000Y286000D03*
X236000Y271000D03*
X199000Y294000D03*
X135000Y153000D03*
X269000Y110000D03*
X276000Y75000D03*
X275000Y61000D03*
D28*
X285000Y380500D02*
X285500Y381000D01*
X285500Y392000D02*
X285500Y401250D01*
X285500Y392000D02*
X285500Y381000D01*
D26*
X285500Y392000D03*
D28*
X285500Y420750D02*
X285500Y430000D01*
X285500Y441000D01*
D26*
X285500Y430000D03*
X96000Y429000D03*
X96000Y413000D03*
X137000Y452000D03*
X144000Y557000D03*
D29*
X144000Y535000D01*
X141000Y532000D01*
X128754Y532000D01*
D26*
X194000Y557000D03*
D30*
X84000Y535500D02*
X84000Y522000D01*
D26*
X84000Y522000D03*
D29*
X303000Y99010D02*
X302990Y99000D01*
D26*
X237000Y55000D03*
X237000Y108000D03*
D29*
X144000Y557000D02*
X128500Y557000D01*
X193250Y606500D02*
X195250Y608500D01*
X193250Y606500D02*
X193250Y557750D01*
X194000Y557000D01*
D26*
X232000Y361000D03*
D30*
X239000Y354000D01*
X239000Y288000D01*
X224000Y273000D01*
D26*
X224000Y273000D03*
D28*
X336080Y416080D02*
X350844Y416080D01*
X336080Y416080D02*
X336000Y416000D01*
D26*
X336000Y416000D03*
X267000Y329000D03*
D28*
X267000Y325144D01*
D26*
X186000Y325000D03*
X205000Y325306D03*
D30*
X204694Y325000D02*
X186000Y325000D01*
X204694Y325000D02*
X205000Y325306D01*
D26*
X151000Y406000D03*
X176000Y409000D03*
D30*
X154000Y409000D01*
X151000Y406000D01*
D28*
X272920Y319224D02*
X272920Y311844D01*
X272920Y319224D02*
X267000Y325144D01*
D26*
X198000Y273000D03*
X171000Y334000D03*
X158000Y334000D03*
X185000Y273000D03*
X232000Y349000D03*
D30*
X234000Y347000D01*
X234000Y296000D01*
X211000Y273000D01*
D26*
X211000Y273000D03*
X144000Y433000D03*
D30*
X142000Y431000D01*
X142000Y414000D01*
D26*
X142000Y414000D03*
X143000Y334000D03*
X161000Y273000D03*
D31*
X244500Y393500D02*
X244500Y401250D01*
X244500Y393500D02*
X245000Y393000D01*
D26*
X245000Y393000D03*
D31*
X245000Y380500D01*
X307156Y420906D02*
X307156Y428844D01*
X307000Y429000D01*
D26*
X307000Y429000D03*
D31*
X307000Y440500D02*
X306500Y441000D01*
X307000Y440500D02*
X307000Y429000D01*
X118500Y361500D02*
X118500Y350000D01*
X118500Y361500D02*
X118000Y362000D01*
D26*
X118000Y362000D03*
D31*
X118000Y370750D01*
X118500Y371250D01*
X248000Y268500D02*
X259500Y268500D01*
X260000Y268000D01*
D26*
X260000Y268000D03*
D31*
X260156Y268156D01*
X268094Y268156D01*
X297500Y205500D02*
X309000Y205500D01*
X297500Y205500D02*
X297000Y206000D01*
D26*
X297000Y206000D03*
D31*
X288250Y206000D02*
X287750Y205500D01*
X288250Y206000D02*
X297000Y206000D01*
D28*
X304000Y299500D02*
X317500Y299500D01*
X318000Y300000D01*
D26*
X318000Y300000D03*
D28*
X351000Y363500D02*
X350500Y364000D01*
X338000Y364000D01*
D26*
X338000Y364000D03*
X249000Y302000D03*
X79000Y276000D03*
X89000Y276000D03*
D25*
X80000Y275000D02*
X80000Y255500D01*
X80000Y275000D02*
X79000Y276000D01*
X88000Y275000D02*
X88000Y255500D01*
X88000Y275000D02*
X89000Y276000D01*
D28*
X244250Y414000D02*
X244500Y414250D01*
X244250Y414000D02*
X229000Y414000D01*
D26*
X229000Y414000D03*
X196000Y453000D03*
X53000Y378000D03*
X111000Y430000D03*
D30*
X195500Y441000D02*
X195500Y452500D01*
X196000Y453000D01*
X67500Y378000D02*
X53000Y378000D01*
X274750Y215250D02*
X274750Y205500D01*
X274750Y215250D02*
X268000Y222000D01*
X255000Y222000D01*
D26*
X255000Y222000D03*
X174000Y302500D03*
D30*
X195500Y441000D02*
X194924Y441576D01*
X122576Y441576D01*
X111000Y430000D01*
D31*
X212500Y420000D02*
X212500Y441000D01*
X67500Y441000D02*
X67500Y420000D01*
X84500Y378000D02*
X84500Y357000D01*
X84500Y378000D02*
X97000Y378000D01*
X103250Y384250D01*
X118500Y384250D01*
X84500Y420000D02*
X67500Y403000D01*
X67500Y399000D01*
X110250Y390750D02*
X118500Y390750D01*
X110250Y390750D02*
X106000Y395000D01*
X106000Y416000D01*
X102000Y420000D01*
X84500Y420000D01*
X195500Y420000D02*
X212500Y403000D01*
X212500Y399000D01*
D25*
X191000Y420000D02*
X185000Y414000D01*
X191000Y420000D02*
X195500Y420000D01*
X185000Y389341D02*
X179829Y384170D01*
X185000Y389341D02*
X185000Y414000D01*
X172091Y384250D02*
X159500Y384250D01*
X172091Y384250D02*
X172171Y384170D01*
X179829Y384170D01*
D31*
X195500Y378000D02*
X195500Y357000D01*
X174750Y377750D02*
X159500Y377750D01*
X174750Y377750D02*
X175000Y378000D01*
X195500Y378000D01*
X195500Y340000D02*
X195500Y336000D01*
X195500Y340000D02*
X212500Y357000D01*
X167750Y371250D02*
X159500Y371250D01*
X167750Y371250D02*
X172000Y367000D01*
X172000Y346000D01*
X182000Y336000D01*
X195500Y336000D01*
X84500Y342000D02*
X69500Y357000D01*
X67500Y357000D01*
X84500Y342000D02*
X84500Y336000D01*
X108750Y377750D02*
X118500Y377750D01*
X108750Y377750D02*
X106000Y375000D01*
X106000Y346000D01*
X101000Y341000D01*
X85500Y341000D01*
X84500Y342000D01*
D30*
X235750Y407750D02*
X244500Y407750D01*
X84500Y441000D02*
X84500Y450500D01*
X96000Y462000D01*
X225000Y462000D01*
X256000Y431000D01*
X256000Y411000D01*
X252750Y407750D01*
X244500Y407750D01*
X223000Y378000D02*
X212500Y378000D01*
X223000Y378000D02*
X229000Y384000D01*
X229000Y401000D01*
X235750Y407750D01*
D28*
X350844Y405920D02*
X360080Y405920D01*
X362000Y404000D01*
X362000Y384000D01*
X358500Y380500D01*
X351000Y380500D01*
X293750Y407750D02*
X285500Y407750D01*
X293750Y407750D02*
X297000Y411000D01*
X307156Y411000D01*
X293250Y414250D02*
X285500Y414250D01*
X293250Y414250D02*
X295080Y416080D01*
X307156Y416080D01*
X342000Y411000D02*
X350844Y411000D01*
X342000Y411000D02*
X336000Y405000D01*
D26*
X336000Y405000D03*
D28*
X278000Y329000D02*
X278000Y311844D01*
D26*
X278000Y329000D03*
D28*
X342094Y420906D02*
X350844Y420906D01*
X342094Y420906D02*
X336000Y427000D01*
D26*
X336000Y427000D03*
D28*
X308000Y400250D02*
X307156Y401094D01*
X308000Y400250D02*
X308000Y380500D01*
X283080Y322080D02*
X283080Y311844D01*
X283080Y322080D02*
X286000Y325000D01*
X301000Y325000D01*
X304000Y322000D01*
X304000Y316500D01*
X292844Y268156D02*
X287906Y268156D01*
X292844Y268156D02*
X295500Y265500D01*
X304000Y265500D01*
X60490Y33000D02*
X45300Y17810D01*
D26*
X150000Y62000D03*
D28*
X121000Y33000D02*
X60490Y33000D01*
X121000Y33000D02*
X150000Y62000D01*
X81890Y29000D02*
X70700Y17810D01*
D26*
X162000Y62000D03*
D28*
X129000Y29000D02*
X81890Y29000D01*
X129000Y29000D02*
X162000Y62000D01*
D26*
X147000Y100000D03*
X157000Y100000D03*
D31*
X281250Y200473D02*
X281250Y205500D01*
X281250Y200473D02*
X286747Y194976D01*
X320253Y194976D01*
X337500Y212223D01*
X337500Y232000D01*
X219000Y222500D02*
X198000Y222500D01*
X219000Y222500D02*
X239500Y222500D01*
X263500Y246500D01*
X268250Y246500D01*
X219000Y239500D02*
X198000Y239500D01*
D26*
X253000Y247000D03*
D31*
X245500Y239500D01*
X219000Y239500D01*
D26*
X296850Y247150D03*
D31*
X296200Y246500D01*
X287750Y246500D01*
X198000Y205500D02*
X176840Y205500D01*
X177000Y256500D02*
X198000Y256500D01*
D28*
X278000Y258000D02*
X278000Y268156D01*
X278000Y258000D02*
X281250Y254750D01*
X281250Y246500D01*
X274750Y246500D02*
X274750Y254250D01*
X272920Y256080D01*
X272920Y268156D01*
D31*
X354500Y253000D02*
X354500Y232000D01*
X354500Y253000D02*
X354500Y274000D01*
D26*
X346000Y218000D03*
D30*
X354500Y221500D02*
X354500Y232000D01*
X354500Y221500D02*
X351000Y218000D01*
X346000Y218000D01*
D28*
X96000Y241000D02*
X92000Y237000D01*
D26*
X92000Y237000D03*
D28*
X96000Y241000D02*
X96000Y255500D01*
X100000Y228000D02*
X96000Y224000D01*
X100000Y228000D02*
X133000Y228000D01*
X142000Y237000D01*
D26*
X142000Y237000D03*
D28*
X96000Y224000D02*
X96000Y212500D01*
X268094Y311844D02*
X268094Y313000D01*
D26*
X260000Y309000D03*
D28*
X264000Y313000D01*
X268094Y313000D01*
D31*
X136000Y303000D02*
X124000Y315000D01*
X84500Y315000D01*
D30*
X84500Y306500D01*
X82000Y304000D01*
X62000Y304000D01*
X57000Y309000D01*
X57000Y363000D01*
X62000Y368000D01*
X73000Y368000D01*
X76000Y371000D01*
X76000Y390500D01*
X84500Y399000D01*
D25*
X136000Y303000D02*
X136000Y255500D01*
D31*
X212500Y315000D02*
X212500Y336000D01*
X67500Y336000D02*
X67500Y315000D01*
D26*
X112000Y237000D03*
D28*
X112000Y255500D01*
X104000Y239000D02*
X102000Y237000D01*
D26*
X102000Y237000D03*
D28*
X104000Y239000D02*
X104000Y255500D01*
X128000Y241000D02*
X132000Y237000D01*
D26*
X132000Y237000D03*
D28*
X128000Y241000D02*
X128000Y255500D01*
D26*
X122000Y237000D03*
D28*
X120000Y239000D01*
X120000Y255500D01*
D32*
X110000Y158710D02*
X96100Y144810D01*
X110000Y158710D02*
X110000Y185000D01*
X128000Y203000D01*
X128000Y212500D01*
X85000Y130510D02*
X96100Y119410D01*
X85000Y130510D02*
X85000Y152000D01*
X90000Y157000D01*
X120000Y201000D02*
X120000Y212500D01*
X99942Y157000D02*
X90000Y157000D01*
X99942Y157000D02*
X106952Y164010D01*
X106952Y187952D01*
X120000Y201000D01*
X81952Y183952D02*
X81952Y157573D01*
X78904Y154525D01*
X78904Y153014D01*
X70700Y144810D01*
X81952Y183952D02*
X96000Y198000D01*
X99000Y198000D01*
X104000Y203000D01*
X104000Y212500D01*
X97000Y194000D02*
X85000Y182000D01*
X97000Y194000D02*
X106000Y194000D01*
X112000Y200000D01*
X112000Y212500D01*
X81952Y130662D02*
X70700Y119410D01*
X85000Y156311D02*
X85000Y182000D01*
X85000Y156311D02*
X81952Y153263D01*
X81952Y130662D01*
D31*
X144000Y303000D02*
X156000Y315000D01*
X195500Y315000D01*
D30*
X195500Y308500D01*
X199000Y305000D01*
X219000Y305000D01*
X222000Y308000D01*
X222000Y364000D01*
X218000Y368000D01*
X207000Y368000D01*
X204000Y371000D01*
X204000Y390500D01*
X195500Y399000D01*
D25*
X144000Y303000D02*
X144000Y255500D01*
D31*
X154500Y239500D02*
X136000Y221000D01*
X154500Y239500D02*
X177000Y239500D01*
D25*
X136000Y221000D02*
X136000Y212500D01*
D31*
X147500Y222500D02*
X176840Y222500D01*
X147500Y222500D02*
X144000Y219000D01*
D25*
X144000Y212500D01*
X146900Y177900D02*
X146900Y170210D01*
X146900Y177900D02*
X154000Y185000D01*
X351000Y185000D01*
X360000Y194000D01*
D26*
X360000Y194000D03*
X360000Y595000D03*
D28*
X360250Y595250D02*
X360250Y608500D01*
X360250Y595250D02*
X360000Y595000D01*
D25*
X141290Y190000D02*
X121500Y170210D01*
X141290Y190000D02*
X345000Y190000D01*
X349000Y194000D01*
D26*
X349000Y194000D03*
X345000Y595000D03*
D28*
X345000Y608250D01*
X345250Y608500D01*
X103500Y506000D02*
X83500Y506000D01*
D30*
X130000Y571000D02*
X130000Y593000D01*
X130000Y571000D02*
X89000Y571000D01*
X84000Y566000D01*
X84000Y552500D01*
D26*
X130000Y571000D03*
X182000Y571000D03*
D28*
X182000Y551000D01*
X194840Y538160D01*
X194840Y481910D01*
X195250Y481500D01*
D26*
X209000Y503000D03*
D28*
X129000Y506000D02*
X120500Y506000D01*
X129000Y506000D02*
X134000Y501000D01*
X134000Y495000D01*
D26*
X134000Y495000D03*
D28*
X209000Y482750D02*
X210250Y481500D01*
X209000Y482750D02*
X209000Y503000D01*
D26*
X269000Y42000D03*
X157000Y159000D03*
X210000Y159000D03*
X168000Y100000D03*
X178000Y100000D03*
X140000Y64000D03*
X130000Y64000D03*
X269000Y123000D03*
X330000Y66000D03*
X320000Y66000D03*
X237000Y42000D03*
X237000Y123000D03*
X144000Y132000D03*
X183000Y159000D03*
X286000Y61000D03*
X286000Y51000D03*
D28*
X103500Y483000D02*
X83500Y483000D01*
D26*
X224000Y495000D03*
D28*
X135000Y483000D02*
X120500Y483000D01*
X135000Y483000D02*
X147000Y495000D01*
D26*
X147000Y495000D03*
D28*
X224000Y482750D02*
X225250Y481500D01*
X224000Y482750D02*
X224000Y495000D01*
D26*
X331000Y129442D03*
D28*
X303432Y129442D01*
X303000Y129010D01*
X303000Y119010D02*
X330990Y119010D01*
X331000Y119000D01*
D26*
X331000Y119000D03*
D28*
X330990Y109010D02*
X303000Y109010D01*
X330990Y109010D02*
X331000Y109000D01*
D26*
X331000Y109000D03*
D28*
X332990Y89010D02*
X303000Y89010D01*
X332990Y89010D02*
X333000Y89000D01*
D26*
X333000Y89000D03*
D28*
X312010Y69010D02*
X303000Y69010D01*
X312010Y69010D02*
X319000Y76000D01*
X333000Y76000D01*
D26*
X333000Y76000D03*
D28*
X304010Y58000D02*
X303000Y59010D01*
X304010Y58000D02*
X353000Y58000D01*
X355000Y56000D01*
D26*
X355000Y56000D03*
M02*
