G04 EAGLE Gerber RS-274X export*
G75*
%MOMM*%
%FSLAX34Y34*%
%LPD*%
%INSolderpaste Bottom*%
%IPPOS*%
%AMOC8*
5,1,8,0,0,1.08239X$1,22.5*%
G01*
G04 Define Apertures*
%ADD10R,1.100000X1.000000*%
%ADD11R,1.000000X1.100000*%
%ADD12R,0.629100X0.560000*%
%ADD13R,0.560000X0.629100*%
%ADD14R,1.200000X0.350000*%
%ADD15R,0.348000X1.397000*%
%ADD16R,1.200000X1.000000*%
%ADD17R,1.000000X1.200000*%
%ADD18R,0.644000X0.535100*%
%ADD19C,0.295000*%
%ADD20R,0.973900X0.798700*%
D10*
X67500Y440000D03*
X84500Y440000D03*
D11*
X162000Y302500D03*
X162000Y285500D03*
D10*
X67500Y461000D03*
X84500Y461000D03*
D12*
X168000Y149846D03*
X168000Y140154D03*
X192000Y149846D03*
X192000Y140154D03*
D11*
X238000Y285500D03*
X238000Y302500D03*
D12*
X156000Y149846D03*
X156000Y140154D03*
X216000Y149846D03*
X216000Y140154D03*
X242000Y149846D03*
X242000Y140154D03*
D13*
X247154Y110000D03*
X256846Y110000D03*
X247154Y42000D03*
X256846Y42000D03*
D12*
X144000Y140154D03*
X144000Y149846D03*
D13*
X247154Y123000D03*
X256846Y123000D03*
X247154Y55000D03*
X256846Y55000D03*
D11*
X123000Y449500D03*
X123000Y466500D03*
D10*
X84500Y419000D03*
X67500Y419000D03*
X84500Y377000D03*
X67500Y377000D03*
X84500Y398000D03*
X67500Y398000D03*
D14*
X129300Y376250D03*
X129300Y382750D03*
X129300Y389250D03*
X129300Y395750D03*
X129300Y402250D03*
X129300Y408750D03*
X129300Y415250D03*
X129300Y421750D03*
X129300Y428250D03*
X129300Y434750D03*
X188700Y434750D03*
X188700Y428250D03*
X188700Y421750D03*
X188700Y415250D03*
X188700Y408750D03*
X188700Y402250D03*
X188700Y395750D03*
X188700Y389250D03*
X188700Y382750D03*
X188700Y376250D03*
D15*
X224250Y118560D03*
X217750Y118560D03*
X211250Y118560D03*
X204750Y118560D03*
X198250Y118560D03*
X191750Y118560D03*
X185250Y118560D03*
X172250Y118560D03*
X178750Y118560D03*
X165750Y118560D03*
X159250Y118560D03*
X152750Y118560D03*
X146250Y118560D03*
X139750Y118560D03*
X224250Y45440D03*
X217750Y45440D03*
X211250Y45440D03*
X204750Y45440D03*
X198250Y45440D03*
X191750Y45440D03*
X185250Y45440D03*
X178750Y45440D03*
X172250Y45440D03*
X165750Y45440D03*
X159250Y45440D03*
X152750Y45440D03*
X146250Y45440D03*
X139750Y45440D03*
D16*
X150500Y464500D03*
X167500Y464500D03*
X167500Y451500D03*
X150500Y451500D03*
D17*
X262500Y89500D03*
X262500Y72500D03*
X249500Y72500D03*
X249500Y89500D03*
D11*
X84500Y356000D03*
X67500Y356000D03*
D18*
X180000Y139925D03*
X180000Y150075D03*
X204000Y139925D03*
X204000Y150075D03*
X229000Y150075D03*
X229000Y139925D03*
D19*
X217125Y304975D02*
X207975Y304975D01*
X217125Y304975D02*
X217125Y302025D01*
X207975Y302025D01*
X207975Y304975D01*
X207975Y304827D02*
X217125Y304827D01*
X217125Y295475D02*
X207975Y295475D01*
X217125Y295475D02*
X217125Y292525D01*
X207975Y292525D01*
X207975Y295475D01*
X207975Y295327D02*
X217125Y295327D01*
X217125Y285975D02*
X207975Y285975D01*
X217125Y285975D02*
X217125Y283025D01*
X207975Y283025D01*
X207975Y285975D01*
X207975Y285827D02*
X217125Y285827D01*
X192025Y285975D02*
X182875Y285975D01*
X192025Y285975D02*
X192025Y283025D01*
X182875Y283025D01*
X182875Y285975D01*
X182875Y285827D02*
X192025Y285827D01*
X192025Y304975D02*
X182875Y304975D01*
X192025Y304975D02*
X192025Y302025D01*
X182875Y302025D01*
X182875Y304975D01*
X182875Y304827D02*
X192025Y304827D01*
D20*
X299000Y56152D03*
X299000Y39848D03*
X325000Y56152D03*
X325000Y39848D03*
M02*
