G04 EAGLE Gerber RS-274X export*
G75*
%MOMM*%
%FSLAX34Y34*%
%LPD*%
%INSolderpaste Top*%
%IPPOS*%
%AMOC8*
5,1,8,0,0,1.08239X$1,22.5*%
G01*
G04 Define Apertures*
%ADD10R,1.100000X1.000000*%
%ADD11R,1.000000X1.100000*%
%ADD12R,1.000000X0.450000*%
%ADD13R,0.450000X1.000000*%
%ADD14R,1.422400X0.304800*%
%ADD15R,2.000000X0.600000*%
%ADD16R,4.200000X0.700000*%
%ADD17R,0.304800X1.422400*%
%ADD18R,1.164600X1.465300*%
%ADD19R,0.611800X0.911800*%
%ADD20R,0.550000X1.800000*%
%ADD21R,1.300000X1.000000*%
%ADD22R,1.000000X1.300000*%
D10*
X306500Y441000D03*
X323500Y441000D03*
D11*
X308000Y380500D03*
X308000Y363500D03*
X245000Y363500D03*
X245000Y380500D03*
D10*
X135500Y350000D03*
X118500Y350000D03*
D11*
X176840Y222500D03*
X176840Y205500D03*
X177000Y239500D03*
X177000Y256500D03*
X248000Y268500D03*
X248000Y285500D03*
X304000Y265500D03*
X304000Y282500D03*
X309000Y222500D03*
X309000Y205500D03*
D10*
X354500Y274000D03*
X337500Y274000D03*
X212500Y315000D03*
X195500Y315000D03*
X67500Y315000D03*
X84500Y315000D03*
D12*
X285500Y401250D03*
X285500Y407750D03*
X285500Y414250D03*
X285500Y420750D03*
X244500Y420750D03*
X244500Y414250D03*
X244500Y407750D03*
X244500Y401250D03*
X159500Y371250D03*
X159500Y377750D03*
X159500Y384250D03*
X159500Y390750D03*
X118500Y390750D03*
X118500Y384250D03*
X118500Y377750D03*
X118500Y371250D03*
D13*
X287750Y246500D03*
X281250Y246500D03*
X274750Y246500D03*
X268250Y246500D03*
X268250Y205500D03*
X274750Y205500D03*
X281250Y205500D03*
X287750Y205500D03*
D11*
X212500Y420000D03*
X195500Y420000D03*
X212500Y378000D03*
X195500Y378000D03*
X67500Y420000D03*
X84500Y420000D03*
X67500Y378000D03*
X84500Y378000D03*
X212500Y399000D03*
X195500Y399000D03*
X212500Y357000D03*
X195500Y357000D03*
X67500Y399000D03*
X84500Y399000D03*
X67500Y357000D03*
X84500Y357000D03*
D10*
X285000Y380500D03*
X285000Y363500D03*
D11*
X212500Y336000D03*
X195500Y336000D03*
X67500Y336000D03*
X84500Y336000D03*
D10*
X198000Y222500D03*
X198000Y205500D03*
X219000Y205500D03*
X219000Y222500D03*
X198000Y239500D03*
X198000Y256500D03*
X219000Y256500D03*
X219000Y239500D03*
X304000Y316500D03*
X304000Y299500D03*
D11*
X354500Y232000D03*
X337500Y232000D03*
X285500Y441000D03*
X268500Y441000D03*
X337500Y253000D03*
X354500Y253000D03*
D10*
X351000Y380500D03*
X351000Y363500D03*
D11*
X212500Y441000D03*
X195500Y441000D03*
X67500Y441000D03*
X84500Y441000D03*
D14*
X307156Y420906D03*
X307156Y416080D03*
X307156Y411000D03*
X307156Y405920D03*
X307156Y401094D03*
X350844Y401094D03*
X350844Y405920D03*
X350844Y411000D03*
X350844Y416080D03*
X350844Y420906D03*
D15*
X303000Y59010D03*
X303000Y69010D03*
X303000Y79010D03*
X303000Y89010D03*
X303000Y99010D03*
X303000Y109010D03*
X303000Y119010D03*
X303000Y129010D03*
D16*
X324000Y49010D03*
X324000Y139010D03*
D17*
X268094Y268156D03*
X272920Y268156D03*
X278000Y268156D03*
X283080Y268156D03*
X287906Y268156D03*
X287906Y311844D03*
X283080Y311844D03*
X278000Y311844D03*
X272920Y311844D03*
X268094Y311844D03*
D10*
X111500Y557000D03*
X128500Y557000D03*
D18*
X111246Y532000D03*
X128754Y532000D03*
D19*
X68500Y506000D03*
X83500Y506000D03*
D11*
X120500Y506000D03*
X103500Y506000D03*
D10*
X84000Y552500D03*
X84000Y535500D03*
D20*
X80000Y212500D03*
X80000Y255500D03*
X88000Y212500D03*
X88000Y255500D03*
X96000Y212500D03*
X96000Y255500D03*
X104000Y212500D03*
X104000Y255500D03*
X112000Y212500D03*
X112000Y255500D03*
X120000Y212500D03*
X120000Y255500D03*
X128000Y212500D03*
X128000Y255500D03*
X136000Y212500D03*
X136000Y255500D03*
X144000Y212500D03*
X144000Y255500D03*
D11*
X120500Y483000D03*
X103500Y483000D03*
D19*
X68500Y483000D03*
X83500Y483000D03*
D21*
X165250Y552500D03*
X165250Y597500D03*
X165250Y582500D03*
X165250Y567500D03*
X165250Y537500D03*
X165250Y522500D03*
X165250Y507500D03*
X165250Y492500D03*
D22*
X180250Y481500D03*
X195250Y481500D03*
X210250Y481500D03*
X225250Y481500D03*
X240250Y481500D03*
X255250Y481500D03*
X270250Y481500D03*
X285250Y481500D03*
X300250Y481500D03*
X315250Y481500D03*
X330250Y481500D03*
X345250Y481500D03*
X360250Y481500D03*
X360250Y608500D03*
X345250Y608500D03*
X330250Y608500D03*
X315250Y608500D03*
X300250Y608500D03*
X285250Y608500D03*
X270250Y608500D03*
X255250Y608500D03*
X240250Y608500D03*
X225250Y608500D03*
X210250Y608500D03*
X195250Y608500D03*
X180250Y608500D03*
M02*
