G04 EAGLE Gerber RS-274X export*
G75*
%MOMM*%
%FSLAX34Y34*%
%LPD*%
%INSoldermask Bottom*%
%IPPOS*%
%AMOC8*
5,1,8,0,0,1.08239X$1,22.5*%
G01*
G04 Define Apertures*
%ADD10R,1.201600X1.101600*%
%ADD11R,1.101600X1.201600*%
%ADD12R,0.730700X0.661600*%
%ADD13R,0.661600X0.730700*%
%ADD14R,1.301600X0.451600*%
%ADD15R,0.449600X1.498600*%
%ADD16R,1.301600X1.101600*%
%ADD17R,1.101600X1.301600*%
%ADD18R,0.745600X0.636700*%
%ADD19C,0.394209*%
%ADD20C,1.631600*%
%ADD21R,1.075500X0.900300*%
%ADD22C,1.401600*%
D10*
X67500Y440000D03*
X84500Y440000D03*
D11*
X162000Y302500D03*
X162000Y285500D03*
D10*
X67500Y461000D03*
X84500Y461000D03*
D12*
X168000Y149846D03*
X168000Y140154D03*
X192000Y149846D03*
X192000Y140154D03*
D11*
X238000Y285500D03*
X238000Y302500D03*
D12*
X156000Y149846D03*
X156000Y140154D03*
X216000Y149846D03*
X216000Y140154D03*
X242000Y149846D03*
X242000Y140154D03*
D13*
X247154Y110000D03*
X256846Y110000D03*
X247154Y42000D03*
X256846Y42000D03*
D12*
X144000Y140154D03*
X144000Y149846D03*
D13*
X247154Y123000D03*
X256846Y123000D03*
X247154Y55000D03*
X256846Y55000D03*
D11*
X123000Y449500D03*
X123000Y466500D03*
D10*
X84500Y419000D03*
X67500Y419000D03*
X84500Y377000D03*
X67500Y377000D03*
X84500Y398000D03*
X67500Y398000D03*
D14*
X129300Y376250D03*
X129300Y382750D03*
X129300Y389250D03*
X129300Y395750D03*
X129300Y402250D03*
X129300Y408750D03*
X129300Y415250D03*
X129300Y421750D03*
X129300Y428250D03*
X129300Y434750D03*
X188700Y434750D03*
X188700Y428250D03*
X188700Y421750D03*
X188700Y415250D03*
X188700Y408750D03*
X188700Y402250D03*
X188700Y395750D03*
X188700Y389250D03*
X188700Y382750D03*
X188700Y376250D03*
D15*
X224250Y118560D03*
X217750Y118560D03*
X211250Y118560D03*
X204750Y118560D03*
X198250Y118560D03*
X191750Y118560D03*
X185250Y118560D03*
X172250Y118560D03*
X178750Y118560D03*
X165750Y118560D03*
X159250Y118560D03*
X152750Y118560D03*
X146250Y118560D03*
X139750Y118560D03*
X224250Y45440D03*
X217750Y45440D03*
X211250Y45440D03*
X204750Y45440D03*
X198250Y45440D03*
X191750Y45440D03*
X185250Y45440D03*
X178750Y45440D03*
X172250Y45440D03*
X165750Y45440D03*
X159250Y45440D03*
X152750Y45440D03*
X146250Y45440D03*
X139750Y45440D03*
D16*
X150500Y464500D03*
X167500Y464500D03*
X167500Y451500D03*
X150500Y451500D03*
D17*
X262500Y89500D03*
X262500Y72500D03*
X249500Y72500D03*
X249500Y89500D03*
D11*
X84500Y356000D03*
X67500Y356000D03*
D18*
X180000Y139925D03*
X180000Y150075D03*
X204000Y139925D03*
X204000Y150075D03*
X229000Y150075D03*
X229000Y139925D03*
D19*
X217137Y304987D02*
X207963Y304987D01*
X217137Y304987D02*
X217137Y302013D01*
X207963Y302013D01*
X207963Y304987D01*
X207963Y295487D02*
X217137Y295487D01*
X217137Y292513D01*
X207963Y292513D01*
X207963Y295487D01*
X207963Y285987D02*
X217137Y285987D01*
X217137Y283013D01*
X207963Y283013D01*
X207963Y285987D01*
X192037Y285987D02*
X182863Y285987D01*
X192037Y285987D02*
X192037Y283013D01*
X182863Y283013D01*
X182863Y285987D01*
X182863Y304987D02*
X192037Y304987D01*
X192037Y302013D01*
X182863Y302013D01*
X182863Y304987D01*
D20*
X19900Y170210D03*
X45300Y170210D03*
X70700Y170210D03*
X96100Y170210D03*
X121500Y170210D03*
X146900Y170210D03*
X172300Y170210D03*
X197700Y170210D03*
X223100Y170210D03*
X248500Y170210D03*
X273900Y170210D03*
X299300Y170210D03*
X324700Y170210D03*
X350100Y170210D03*
X19900Y17810D03*
X45300Y17810D03*
X70700Y17810D03*
X96100Y17810D03*
X121500Y17810D03*
X146900Y17810D03*
X172300Y17810D03*
X197700Y17810D03*
X223100Y17810D03*
X248500Y17810D03*
X273900Y17810D03*
X299300Y17810D03*
X324700Y17810D03*
X350100Y17810D03*
X19900Y144810D03*
X19900Y119410D03*
X19900Y94010D03*
X19900Y68610D03*
X19900Y43210D03*
X70700Y43210D03*
X96100Y43210D03*
X70700Y68610D03*
X96100Y68610D03*
X70700Y94010D03*
X96100Y94010D03*
X70700Y119410D03*
X96100Y119410D03*
X70700Y144810D03*
X96100Y144810D03*
D21*
X299000Y56152D03*
X299000Y39848D03*
X325000Y56152D03*
X325000Y39848D03*
D22*
X344000Y141000D03*
X344000Y122000D03*
X344000Y103000D03*
X344000Y84000D03*
X344000Y65476D03*
X344000Y47000D03*
M02*
