G04 EAGLE Gerber RS-274X export*
G75*
%MOMM*%
%FSLAX34Y34*%
%LPD*%
%INCopper Layer 2*%
%IPPOS*%
%AMOC8*
5,1,8,0,0,1.08239X$1,22.5*%
G01*
G04 Define Apertures*
%ADD10C,1.158000*%
%ADD11C,1.208000*%
%ADD12C,0.756400*%
%ADD13C,0.152400*%
G36*
X396233Y3362D02*
X396483Y3534D01*
X396647Y3789D01*
X396698Y4064D01*
X396698Y595936D01*
X396638Y596233D01*
X396466Y596483D01*
X396211Y596647D01*
X395936Y596698D01*
X4064Y596698D01*
X3767Y596638D01*
X3517Y596466D01*
X3353Y596211D01*
X3302Y595936D01*
X3302Y4064D01*
X3362Y3767D01*
X3534Y3517D01*
X3789Y3353D01*
X4064Y3302D01*
X395936Y3302D01*
X396233Y3362D01*
G37*
%LPC*%
G36*
X361802Y87694D02*
X358694Y90802D01*
X358694Y95198D01*
X360957Y97461D01*
X361125Y97714D01*
X361180Y98012D01*
X361115Y98308D01*
X360957Y98539D01*
X358694Y100802D01*
X358694Y105198D01*
X360957Y107461D01*
X361125Y107714D01*
X361180Y108012D01*
X361115Y108308D01*
X360957Y108539D01*
X359005Y110491D01*
X358753Y110658D01*
X358467Y110714D01*
X358053Y110714D01*
X291714Y177053D01*
X291714Y200467D01*
X291654Y200764D01*
X291491Y201005D01*
X288694Y203802D01*
X288694Y208198D01*
X291491Y210995D01*
X291658Y211247D01*
X291714Y211533D01*
X291714Y217952D01*
X291654Y218249D01*
X291482Y218499D01*
X291227Y218663D01*
X290952Y218714D01*
X178533Y218714D01*
X178236Y218654D01*
X177995Y218491D01*
X176043Y216539D01*
X175875Y216286D01*
X175820Y215988D01*
X175885Y215692D01*
X176043Y215461D01*
X177995Y213509D01*
X178247Y213342D01*
X178533Y213286D01*
X248467Y213286D01*
X248764Y213346D01*
X249005Y213509D01*
X251802Y216306D01*
X256198Y216306D01*
X259306Y213198D01*
X259306Y208802D01*
X256198Y205694D01*
X251802Y205694D01*
X249005Y208491D01*
X248753Y208658D01*
X248467Y208714D01*
X178533Y208714D01*
X178236Y208654D01*
X177995Y208491D01*
X175198Y205694D01*
X170802Y205694D01*
X167694Y208802D01*
X167694Y213198D01*
X169957Y215461D01*
X170125Y215714D01*
X170180Y216012D01*
X170115Y216308D01*
X169957Y216539D01*
X168005Y218491D01*
X167753Y218658D01*
X167467Y218714D01*
X73053Y218714D01*
X22640Y269127D01*
X22387Y269294D01*
X22089Y269350D01*
X21793Y269285D01*
X21563Y269127D01*
X19441Y267005D01*
X19274Y266753D01*
X19218Y266467D01*
X19218Y211068D01*
X19278Y210771D01*
X19450Y210521D01*
X19705Y210357D01*
X19980Y210306D01*
X20198Y210306D01*
X23306Y207198D01*
X23306Y202802D01*
X20198Y199694D01*
X15802Y199694D01*
X12694Y202802D01*
X12694Y207198D01*
X14423Y208927D01*
X14590Y209179D01*
X14646Y209465D01*
X14646Y266467D01*
X14586Y266764D01*
X14423Y267005D01*
X11626Y269802D01*
X11626Y274198D01*
X14491Y277063D01*
X14658Y277315D01*
X14714Y277601D01*
X14714Y577947D01*
X27053Y590286D01*
X169947Y590286D01*
X173704Y586529D01*
X173957Y586362D01*
X174243Y586306D01*
X178198Y586306D01*
X181306Y583198D01*
X181306Y578802D01*
X178198Y575694D01*
X173802Y575694D01*
X170694Y578802D01*
X170694Y582757D01*
X170634Y583055D01*
X170471Y583296D01*
X168276Y585491D01*
X168023Y585658D01*
X167737Y585714D01*
X117629Y585714D01*
X117332Y585654D01*
X117082Y585482D01*
X116919Y585227D01*
X116868Y584928D01*
X116938Y584633D01*
X117091Y584413D01*
X117995Y583509D01*
X118247Y583342D01*
X118533Y583286D01*
X163947Y583286D01*
X235286Y511947D01*
X235286Y261263D01*
X235346Y260965D01*
X235509Y260724D01*
X256286Y239947D01*
X256286Y233533D01*
X256346Y233236D01*
X256509Y232995D01*
X259306Y230198D01*
X259306Y225802D01*
X258091Y224587D01*
X257923Y224334D01*
X257868Y224036D01*
X257933Y223740D01*
X258108Y223492D01*
X258366Y223333D01*
X258629Y223286D01*
X290952Y223286D01*
X291249Y223346D01*
X291499Y223518D01*
X291663Y223773D01*
X291714Y224048D01*
X291714Y247947D01*
X366160Y322393D01*
X366328Y322646D01*
X366383Y322944D01*
X366318Y323240D01*
X366143Y323488D01*
X365885Y323647D01*
X365621Y323694D01*
X364734Y323694D01*
X362927Y325501D01*
X362674Y325669D01*
X362376Y325724D01*
X362080Y325659D01*
X361849Y325501D01*
X360042Y323694D01*
X355646Y323694D01*
X353839Y325501D01*
X353586Y325669D01*
X353288Y325724D01*
X352992Y325659D01*
X352761Y325501D01*
X350954Y323694D01*
X346558Y323694D01*
X344751Y325501D01*
X344498Y325669D01*
X344200Y325724D01*
X343904Y325659D01*
X343673Y325501D01*
X341866Y323694D01*
X337470Y323694D01*
X335663Y325501D01*
X335410Y325669D01*
X335112Y325724D01*
X334816Y325659D01*
X334585Y325501D01*
X332778Y323694D01*
X328382Y323694D01*
X326575Y325501D01*
X326322Y325669D01*
X326024Y325724D01*
X325728Y325659D01*
X325497Y325501D01*
X323690Y323694D01*
X319294Y323694D01*
X317487Y325501D01*
X317234Y325669D01*
X316936Y325724D01*
X316640Y325659D01*
X316409Y325501D01*
X314602Y323694D01*
X310206Y323694D01*
X308399Y325501D01*
X308146Y325669D01*
X307848Y325724D01*
X307552Y325659D01*
X307321Y325501D01*
X305514Y323694D01*
X301118Y323694D01*
X298010Y326802D01*
X298010Y331198D01*
X301161Y334348D01*
X301249Y334366D01*
X301499Y334538D01*
X301663Y334793D01*
X301714Y335068D01*
X301714Y353439D01*
X301654Y353736D01*
X301482Y353986D01*
X301227Y354149D01*
X300928Y354200D01*
X300633Y354130D01*
X300413Y353977D01*
X298198Y351762D01*
X293802Y351762D01*
X290694Y354870D01*
X290694Y359266D01*
X293802Y362374D01*
X298198Y362374D01*
X300413Y360159D01*
X300666Y359991D01*
X300964Y359936D01*
X301260Y360001D01*
X301508Y360176D01*
X301667Y360434D01*
X301714Y360697D01*
X301714Y397568D01*
X318487Y414342D01*
X318655Y414594D01*
X318711Y414892D01*
X318645Y415189D01*
X318470Y415436D01*
X318212Y415595D01*
X317949Y415642D01*
X317548Y415642D01*
X314440Y418751D01*
X314440Y423146D01*
X317548Y426254D01*
X321944Y426254D01*
X322227Y425971D01*
X322480Y425803D01*
X322778Y425748D01*
X323074Y425813D01*
X323321Y425988D01*
X323481Y426246D01*
X323528Y426510D01*
X323528Y462184D01*
X323467Y462481D01*
X323296Y462732D01*
X323040Y462895D01*
X322741Y462946D01*
X322446Y462876D01*
X322227Y462723D01*
X321198Y461694D01*
X316802Y461694D01*
X313694Y464802D01*
X313694Y469198D01*
X316802Y472306D01*
X318621Y472306D01*
X318919Y472366D01*
X319169Y472538D01*
X319332Y472793D01*
X319383Y473092D01*
X319313Y473387D01*
X319160Y473607D01*
X317618Y475149D01*
X317618Y537226D01*
X317658Y537287D01*
X317714Y537573D01*
X317714Y571467D01*
X317654Y571764D01*
X317491Y572005D01*
X314694Y574802D01*
X314694Y579198D01*
X317802Y582306D01*
X322198Y582306D01*
X324461Y580043D01*
X324714Y579875D01*
X325012Y579820D01*
X325308Y579885D01*
X325539Y580043D01*
X327802Y582306D01*
X332198Y582306D01*
X334461Y580043D01*
X334714Y579875D01*
X335012Y579820D01*
X335308Y579885D01*
X335539Y580043D01*
X337802Y582306D01*
X342198Y582306D01*
X344427Y580077D01*
X344680Y579909D01*
X344978Y579854D01*
X345274Y579919D01*
X345505Y580077D01*
X347734Y582306D01*
X352130Y582306D01*
X355238Y579198D01*
X355238Y574802D01*
X352130Y571694D01*
X351804Y571694D01*
X351507Y571634D01*
X351257Y571462D01*
X351093Y571207D01*
X351042Y570932D01*
X351042Y538561D01*
X351102Y538264D01*
X351274Y538014D01*
X351529Y537851D01*
X351828Y537800D01*
X352123Y537870D01*
X352343Y538023D01*
X352626Y538306D01*
X357022Y538306D01*
X358829Y536499D01*
X359082Y536331D01*
X359380Y536276D01*
X359676Y536341D01*
X359907Y536499D01*
X361714Y538306D01*
X366110Y538306D01*
X367917Y536499D01*
X368170Y536331D01*
X368468Y536276D01*
X368764Y536341D01*
X368995Y536499D01*
X370802Y538306D01*
X375198Y538306D01*
X378306Y535198D01*
X378306Y530802D01*
X375198Y527694D01*
X370802Y527694D01*
X368995Y529501D01*
X368742Y529669D01*
X368444Y529724D01*
X368148Y529659D01*
X367917Y529501D01*
X366441Y528025D01*
X366274Y527773D01*
X366218Y527487D01*
X366218Y335068D01*
X366278Y334771D01*
X366450Y334521D01*
X366705Y334357D01*
X366980Y334306D01*
X369130Y334306D01*
X372238Y331198D01*
X372238Y330311D01*
X372298Y330013D01*
X372470Y329763D01*
X372725Y329600D01*
X373024Y329549D01*
X373319Y329619D01*
X373539Y329772D01*
X382491Y338724D01*
X382658Y338977D01*
X382714Y339263D01*
X382714Y397371D01*
X382654Y397668D01*
X382482Y397918D01*
X382227Y398081D01*
X381928Y398132D01*
X381633Y398062D01*
X381413Y397909D01*
X380198Y396694D01*
X375802Y396694D01*
X372694Y399802D01*
X372694Y404198D01*
X375802Y407306D01*
X380198Y407306D01*
X381413Y406091D01*
X381666Y405923D01*
X381964Y405868D01*
X382260Y405933D01*
X382508Y406108D01*
X382667Y406366D01*
X382714Y406629D01*
X382714Y459737D01*
X382654Y460035D01*
X382491Y460276D01*
X373714Y469053D01*
X373714Y481947D01*
X376471Y484704D01*
X376638Y484957D01*
X376694Y485243D01*
X376694Y487198D01*
X379802Y490306D01*
X384198Y490306D01*
X387306Y487198D01*
X387306Y482802D01*
X385077Y480573D01*
X384909Y480320D01*
X384854Y480022D01*
X384919Y479726D01*
X385077Y479495D01*
X387374Y477198D01*
X387374Y473243D01*
X387434Y472945D01*
X387597Y472704D01*
X391286Y469015D01*
X391286Y336053D01*
X306509Y251276D01*
X306342Y251023D01*
X306286Y250737D01*
X306286Y211533D01*
X306346Y211236D01*
X306509Y210995D01*
X308461Y209043D01*
X308714Y208875D01*
X309012Y208820D01*
X309308Y208885D01*
X309539Y209043D01*
X311802Y211306D01*
X316198Y211306D01*
X319306Y208198D01*
X319306Y203802D01*
X316198Y200694D01*
X311802Y200694D01*
X309539Y202957D01*
X309286Y203125D01*
X308988Y203180D01*
X308692Y203115D01*
X308461Y202957D01*
X306509Y201005D01*
X306342Y200753D01*
X306286Y200467D01*
X306286Y174263D01*
X306346Y173965D01*
X306509Y173724D01*
X354724Y125509D01*
X354977Y125342D01*
X355263Y125286D01*
X358467Y125286D01*
X358764Y125346D01*
X359005Y125509D01*
X360957Y127461D01*
X361125Y127714D01*
X361180Y128012D01*
X361115Y128308D01*
X360957Y128539D01*
X358694Y130802D01*
X358694Y135198D01*
X360957Y137461D01*
X361125Y137714D01*
X361180Y138012D01*
X361115Y138308D01*
X360957Y138539D01*
X358694Y140802D01*
X358694Y145198D01*
X361802Y148306D01*
X366198Y148306D01*
X369306Y145198D01*
X369306Y140802D01*
X367043Y138539D01*
X366875Y138286D01*
X366820Y137988D01*
X366885Y137692D01*
X367043Y137461D01*
X369306Y135198D01*
X369306Y130802D01*
X367043Y128539D01*
X366875Y128286D01*
X366820Y127988D01*
X366885Y127692D01*
X367043Y127461D01*
X369306Y125198D01*
X369306Y120802D01*
X367043Y118539D01*
X366875Y118286D01*
X366820Y117988D01*
X366885Y117692D01*
X367043Y117461D01*
X369306Y115198D01*
X369306Y110802D01*
X367043Y108539D01*
X366875Y108286D01*
X366820Y107988D01*
X366885Y107692D01*
X367043Y107461D01*
X369306Y105198D01*
X369306Y100802D01*
X367043Y98539D01*
X366875Y98286D01*
X366820Y97988D01*
X366885Y97692D01*
X367043Y97461D01*
X369306Y95198D01*
X369306Y90802D01*
X366198Y87694D01*
X361802Y87694D01*
G37*
G36*
X385870Y539694D02*
X382762Y542802D01*
X382762Y547198D01*
X385025Y549461D01*
X385193Y549714D01*
X385248Y550012D01*
X385183Y550308D01*
X385025Y550539D01*
X382762Y552802D01*
X382762Y557198D01*
X385870Y560306D01*
X390266Y560306D01*
X393374Y557198D01*
X393374Y552802D01*
X391111Y550539D01*
X390943Y550286D01*
X390888Y549988D01*
X390953Y549692D01*
X391111Y549461D01*
X393374Y547198D01*
X393374Y542802D01*
X390266Y539694D01*
X385870Y539694D01*
G37*
G36*
X275802Y529694D02*
X272694Y532802D01*
X272694Y537198D01*
X275802Y540306D01*
X280198Y540306D01*
X283306Y537198D01*
X283306Y532802D01*
X280198Y529694D01*
X275802Y529694D01*
G37*
G36*
X305802Y529694D02*
X302694Y532802D01*
X302694Y537198D01*
X305802Y540306D01*
X310198Y540306D01*
X313306Y537198D01*
X313306Y532802D01*
X310198Y529694D01*
X305802Y529694D01*
G37*
G36*
X385802Y496694D02*
X382694Y499802D01*
X382694Y504198D01*
X384957Y506461D01*
X385125Y506714D01*
X385180Y507012D01*
X385115Y507308D01*
X384957Y507539D01*
X382694Y509802D01*
X382694Y514198D01*
X385802Y517306D01*
X390198Y517306D01*
X393306Y514198D01*
X393306Y509802D01*
X391043Y507539D01*
X390875Y507286D01*
X390820Y506988D01*
X390885Y506692D01*
X391043Y506461D01*
X393306Y504198D01*
X393306Y499802D01*
X390198Y496694D01*
X385802Y496694D01*
G37*
G36*
X253802Y497388D02*
X250694Y500496D01*
X250694Y504892D01*
X253802Y508000D01*
X258198Y508000D01*
X261306Y504892D01*
X261306Y500496D01*
X258198Y497388D01*
X253802Y497388D01*
G37*
G36*
X266802Y476694D02*
X263694Y479802D01*
X263694Y484198D01*
X266802Y487306D01*
X271198Y487306D01*
X274306Y484198D01*
X274306Y479802D01*
X271198Y476694D01*
X266802Y476694D01*
G37*
G36*
X255802Y457694D02*
X252694Y460802D01*
X252694Y465198D01*
X255802Y468306D01*
X260198Y468306D01*
X263306Y465198D01*
X263306Y460802D01*
X260198Y457694D01*
X255802Y457694D01*
G37*
G36*
X255802Y377694D02*
X252694Y380802D01*
X252694Y385198D01*
X255802Y388306D01*
X260198Y388306D01*
X263306Y385198D01*
X263306Y380802D01*
X260198Y377694D01*
X255802Y377694D01*
G37*
G36*
X245802Y315694D02*
X242694Y318802D01*
X242694Y323198D01*
X244423Y324927D01*
X244591Y325180D01*
X244646Y325478D01*
X244581Y325774D01*
X244423Y326005D01*
X242694Y327734D01*
X242694Y332130D01*
X245802Y335238D01*
X250198Y335238D01*
X253306Y332130D01*
X253306Y327734D01*
X251577Y326005D01*
X251409Y325752D01*
X251354Y325454D01*
X251419Y325158D01*
X251577Y324927D01*
X253306Y323198D01*
X253306Y318802D01*
X250198Y315694D01*
X245802Y315694D01*
G37*
G36*
X278511Y300985D02*
X275403Y304093D01*
X275403Y308489D01*
X278511Y311597D01*
X282907Y311597D01*
X286015Y308489D01*
X286015Y304093D01*
X282907Y300985D01*
X278511Y300985D01*
G37*
G36*
X299802Y279694D02*
X296694Y282802D01*
X296694Y287198D01*
X299802Y290306D01*
X304198Y290306D01*
X307306Y287198D01*
X307306Y282802D01*
X304198Y279694D01*
X299802Y279694D01*
G37*
G36*
X278802Y251194D02*
X275694Y254302D01*
X275694Y258698D01*
X278802Y261806D01*
X283198Y261806D01*
X286306Y258698D01*
X286306Y254302D01*
X283198Y251194D01*
X278802Y251194D01*
G37*
G36*
X353802Y250694D02*
X350694Y253802D01*
X350694Y258198D01*
X353802Y261306D01*
X358198Y261306D01*
X361306Y258198D01*
X361306Y253802D01*
X358198Y250694D01*
X353802Y250694D01*
G37*
G36*
X314802Y230694D02*
X311694Y233802D01*
X311694Y238198D01*
X314802Y241306D01*
X319198Y241306D01*
X322306Y238198D01*
X322306Y233802D01*
X319198Y230694D01*
X314802Y230694D01*
G37*
G36*
X33802Y199694D02*
X30694Y202802D01*
X30694Y207198D01*
X33802Y210306D01*
X38198Y210306D01*
X41306Y207198D01*
X41306Y202802D01*
X38198Y199694D01*
X33802Y199694D01*
G37*
G36*
X200802Y189694D02*
X197694Y192802D01*
X197694Y197198D01*
X200802Y200306D01*
X205198Y200306D01*
X208306Y197198D01*
X208306Y192802D01*
X205198Y189694D01*
X200802Y189694D01*
G37*
G36*
X101802Y165694D02*
X98694Y168802D01*
X98694Y173198D01*
X101802Y176306D01*
X106198Y176306D01*
X109306Y173198D01*
X109306Y168802D01*
X106198Y165694D01*
X101802Y165694D01*
G37*
G36*
X158802Y120694D02*
X155694Y123802D01*
X155694Y128198D01*
X157957Y130461D01*
X158125Y130714D01*
X158180Y131012D01*
X158115Y131308D01*
X157957Y131539D01*
X155694Y133802D01*
X155694Y138198D01*
X158802Y141306D01*
X163198Y141306D01*
X165461Y139043D01*
X165714Y138875D01*
X166012Y138820D01*
X166308Y138885D01*
X166539Y139043D01*
X168802Y141306D01*
X173198Y141306D01*
X176306Y138198D01*
X176306Y133802D01*
X174043Y131539D01*
X173875Y131286D01*
X173820Y130988D01*
X173885Y130692D01*
X174043Y130461D01*
X176306Y128198D01*
X176306Y123802D01*
X173198Y120694D01*
X168802Y120694D01*
X166539Y122957D01*
X166286Y123125D01*
X165988Y123180D01*
X165692Y123115D01*
X165461Y122957D01*
X163198Y120694D01*
X158802Y120694D01*
G37*
G36*
X130802Y120694D02*
X127694Y123802D01*
X127694Y128198D01*
X129957Y130461D01*
X130125Y130714D01*
X130180Y131012D01*
X130115Y131308D01*
X129957Y131539D01*
X127694Y133802D01*
X127694Y138198D01*
X130802Y141306D01*
X135198Y141306D01*
X137461Y139043D01*
X137714Y138875D01*
X138012Y138820D01*
X138308Y138885D01*
X138539Y139043D01*
X140802Y141306D01*
X145198Y141306D01*
X148306Y138198D01*
X148306Y133802D01*
X146043Y131539D01*
X145875Y131286D01*
X145820Y130988D01*
X145885Y130692D01*
X146043Y130461D01*
X148306Y128198D01*
X148306Y123802D01*
X145198Y120694D01*
X140802Y120694D01*
X138539Y122957D01*
X138286Y123125D01*
X137988Y123180D01*
X137692Y123115D01*
X137461Y122957D01*
X135198Y120694D01*
X130802Y120694D01*
G37*
G36*
X299802Y126694D02*
X296694Y129802D01*
X296694Y134198D01*
X299802Y137306D01*
X304198Y137306D01*
X307306Y134198D01*
X307306Y129802D01*
X304198Y126694D01*
X299802Y126694D01*
G37*
G36*
X299802Y90694D02*
X296694Y93802D01*
X296694Y98198D01*
X299802Y101306D01*
X304198Y101306D01*
X307306Y98198D01*
X307306Y93802D01*
X304198Y90694D01*
X299802Y90694D01*
G37*
G36*
X18802Y67694D02*
X15694Y70802D01*
X15694Y75198D01*
X17957Y77461D01*
X18125Y77714D01*
X18180Y78012D01*
X18115Y78308D01*
X17957Y78539D01*
X15694Y80802D01*
X15694Y85198D01*
X18802Y88306D01*
X23198Y88306D01*
X25461Y86043D01*
X25714Y85875D01*
X26012Y85820D01*
X26308Y85885D01*
X26539Y86043D01*
X28802Y88306D01*
X33198Y88306D01*
X36306Y85198D01*
X36306Y80802D01*
X34043Y78539D01*
X33875Y78286D01*
X33820Y77988D01*
X33885Y77692D01*
X34043Y77461D01*
X36306Y75198D01*
X36306Y70802D01*
X33198Y67694D01*
X28802Y67694D01*
X26539Y69957D01*
X26286Y70125D01*
X25988Y70180D01*
X25692Y70115D01*
X25461Y69957D01*
X23198Y67694D01*
X18802Y67694D01*
G37*
G36*
X291802Y74694D02*
X288694Y77802D01*
X288694Y82198D01*
X291802Y85306D01*
X296198Y85306D01*
X299306Y82198D01*
X299306Y77802D01*
X296198Y74694D01*
X291802Y74694D01*
G37*
G36*
X54270Y67694D02*
X51162Y70802D01*
X51162Y75198D01*
X54270Y78306D01*
X58666Y78306D01*
X61774Y75198D01*
X61774Y70802D01*
X58666Y67694D01*
X54270Y67694D01*
G37*
G36*
X41802Y67694D02*
X38694Y70802D01*
X38694Y75198D01*
X41802Y78306D01*
X46198Y78306D01*
X49306Y75198D01*
X49306Y70802D01*
X46198Y67694D01*
X41802Y67694D01*
G37*
G36*
X65920Y48062D02*
X65920Y48957D01*
X67188Y52019D01*
X69531Y54362D01*
X72593Y55630D01*
X73488Y55630D01*
X73488Y48062D01*
X65920Y48062D01*
G37*
G36*
X17420Y48062D02*
X17420Y48957D01*
X18688Y52019D01*
X21031Y54362D01*
X24093Y55630D01*
X24988Y55630D01*
X24988Y48062D01*
X17420Y48062D01*
G37*
G36*
X26512Y48062D02*
X26512Y55630D01*
X27407Y55630D01*
X30469Y54362D01*
X32812Y52019D01*
X34080Y48957D01*
X34080Y48062D01*
X26512Y48062D01*
G37*
G36*
X75012Y48062D02*
X75012Y55630D01*
X75907Y55630D01*
X78969Y54362D01*
X81312Y52019D01*
X82580Y48957D01*
X82580Y48062D01*
X75012Y48062D01*
G37*
G36*
X75012Y38970D02*
X75012Y46538D01*
X82580Y46538D01*
X82580Y45643D01*
X81312Y42581D01*
X78969Y40238D01*
X75907Y38970D01*
X75012Y38970D01*
G37*
G36*
X72593Y38970D02*
X69531Y40238D01*
X67188Y42581D01*
X65920Y45643D01*
X65920Y46538D01*
X73488Y46538D01*
X73488Y38970D01*
X72593Y38970D01*
G37*
G36*
X26512Y38970D02*
X26512Y46538D01*
X34080Y46538D01*
X34080Y45643D01*
X32812Y42581D01*
X30469Y40238D01*
X27407Y38970D01*
X26512Y38970D01*
G37*
G36*
X24093Y38970D02*
X21031Y40238D01*
X18688Y42581D01*
X17420Y45643D01*
X17420Y46538D01*
X24988Y46538D01*
X24988Y38970D01*
X24093Y38970D01*
G37*
G36*
X68670Y17762D02*
X68670Y18707D01*
X69976Y21860D01*
X72390Y24274D01*
X75543Y25580D01*
X76488Y25580D01*
X76488Y17762D01*
X68670Y17762D01*
G37*
G36*
X14170Y17762D02*
X14170Y18707D01*
X15476Y21860D01*
X17890Y24274D01*
X21043Y25580D01*
X21988Y25580D01*
X21988Y17762D01*
X14170Y17762D01*
G37*
G36*
X23512Y17762D02*
X23512Y25580D01*
X24457Y25580D01*
X27610Y24274D01*
X30024Y21860D01*
X31330Y18707D01*
X31330Y17762D01*
X23512Y17762D01*
G37*
G36*
X78012Y17762D02*
X78012Y25580D01*
X78957Y25580D01*
X82110Y24274D01*
X84524Y21860D01*
X85830Y18707D01*
X85830Y17762D01*
X78012Y17762D01*
G37*
G36*
X78012Y8420D02*
X78012Y16238D01*
X85830Y16238D01*
X85830Y15293D01*
X84524Y12140D01*
X82110Y9726D01*
X78957Y8420D01*
X78012Y8420D01*
G37*
G36*
X75543Y8420D02*
X72390Y9726D01*
X69976Y12140D01*
X68670Y15293D01*
X68670Y16238D01*
X76488Y16238D01*
X76488Y8420D01*
X75543Y8420D01*
G37*
G36*
X23512Y8420D02*
X23512Y16238D01*
X31330Y16238D01*
X31330Y15293D01*
X30024Y12140D01*
X27610Y9726D01*
X24457Y8420D01*
X23512Y8420D01*
G37*
G36*
X21043Y8420D02*
X17890Y9726D01*
X15476Y12140D01*
X14170Y15293D01*
X14170Y16238D01*
X21988Y16238D01*
X21988Y8420D01*
X21043Y8420D01*
G37*
%LPD*%
G36*
X167764Y223346D02*
X168005Y223509D01*
X170802Y226306D01*
X175198Y226306D01*
X177995Y223509D01*
X178247Y223342D01*
X178533Y223286D01*
X249371Y223286D01*
X249668Y223346D01*
X249918Y223518D01*
X250081Y223773D01*
X250132Y224072D01*
X250062Y224367D01*
X249909Y224587D01*
X248694Y225802D01*
X248694Y230198D01*
X251491Y232995D01*
X251658Y233247D01*
X251714Y233533D01*
X251714Y237737D01*
X251654Y238035D01*
X251491Y238276D01*
X230714Y259053D01*
X230714Y509737D01*
X230654Y510035D01*
X230491Y510276D01*
X162276Y578491D01*
X162023Y578658D01*
X161737Y578714D01*
X118533Y578714D01*
X118236Y578654D01*
X117995Y578491D01*
X115198Y575694D01*
X110802Y575694D01*
X107694Y578802D01*
X107694Y583198D01*
X108909Y584413D01*
X109077Y584666D01*
X109132Y584964D01*
X109067Y585260D01*
X108892Y585508D01*
X108634Y585667D01*
X108371Y585714D01*
X66629Y585714D01*
X66332Y585654D01*
X66082Y585482D01*
X65919Y585227D01*
X65868Y584928D01*
X65938Y584633D01*
X66091Y584413D01*
X67306Y583198D01*
X67306Y578802D01*
X64509Y576005D01*
X64342Y575753D01*
X64286Y575467D01*
X64286Y574053D01*
X48509Y558276D01*
X48342Y558023D01*
X48286Y557737D01*
X48286Y312263D01*
X48346Y311965D01*
X48509Y311724D01*
X66286Y293947D01*
X66286Y277053D01*
X62529Y273296D01*
X62362Y273043D01*
X62306Y272757D01*
X62306Y269802D01*
X59198Y266694D01*
X54802Y266694D01*
X51694Y269802D01*
X51694Y274198D01*
X53957Y276461D01*
X54125Y276714D01*
X54180Y277012D01*
X54115Y277308D01*
X53957Y277539D01*
X51694Y279802D01*
X51694Y283932D01*
X51634Y284229D01*
X51462Y284479D01*
X51207Y284643D01*
X50932Y284694D01*
X46802Y284694D01*
X43694Y287802D01*
X43694Y292198D01*
X46802Y295306D01*
X51198Y295306D01*
X53413Y293091D01*
X53666Y292923D01*
X53964Y292868D01*
X54260Y292933D01*
X54508Y293108D01*
X54667Y293366D01*
X54714Y293629D01*
X54714Y294427D01*
X54654Y294724D01*
X54491Y294966D01*
X40666Y308791D01*
X40666Y426323D01*
X40606Y426620D01*
X40434Y426870D01*
X40179Y427033D01*
X39880Y427084D01*
X39585Y427014D01*
X39365Y426861D01*
X38198Y425694D01*
X33802Y425694D01*
X30694Y428802D01*
X30694Y433198D01*
X33802Y436306D01*
X38198Y436306D01*
X39365Y435139D01*
X39618Y434971D01*
X39916Y434916D01*
X40212Y434981D01*
X40460Y435156D01*
X40619Y435414D01*
X40666Y435677D01*
X40666Y562209D01*
X46491Y568034D01*
X46658Y568287D01*
X46714Y568573D01*
X46714Y575467D01*
X46654Y575764D01*
X46491Y576005D01*
X43694Y578802D01*
X43694Y583198D01*
X44909Y584413D01*
X45077Y584666D01*
X45132Y584964D01*
X45067Y585260D01*
X44892Y585508D01*
X44634Y585667D01*
X44371Y585714D01*
X35629Y585714D01*
X35332Y585654D01*
X35082Y585482D01*
X34919Y585227D01*
X34868Y584928D01*
X34938Y584633D01*
X35091Y584413D01*
X36306Y583198D01*
X36306Y578802D01*
X33198Y575694D01*
X29243Y575694D01*
X28945Y575634D01*
X28704Y575471D01*
X25509Y572276D01*
X25342Y572023D01*
X25286Y571737D01*
X25286Y352561D01*
X25346Y352264D01*
X25518Y352014D01*
X25773Y351851D01*
X26072Y351800D01*
X26367Y351870D01*
X26587Y352023D01*
X26870Y352306D01*
X31266Y352306D01*
X34374Y349198D01*
X34374Y344802D01*
X31266Y341694D01*
X26870Y341694D01*
X26587Y341977D01*
X26334Y342145D01*
X26036Y342200D01*
X25740Y342135D01*
X25492Y341960D01*
X25333Y341702D01*
X25286Y341439D01*
X25286Y273263D01*
X25346Y272965D01*
X25509Y272724D01*
X42393Y255840D01*
X42646Y255672D01*
X42944Y255617D01*
X43240Y255682D01*
X43488Y255857D01*
X43647Y256115D01*
X43694Y256379D01*
X43694Y258198D01*
X46802Y261306D01*
X51198Y261306D01*
X54306Y258198D01*
X54306Y253802D01*
X51198Y250694D01*
X49379Y250694D01*
X49081Y250634D01*
X48831Y250462D01*
X48668Y250207D01*
X48617Y249908D01*
X48687Y249613D01*
X48840Y249393D01*
X74724Y223509D01*
X74977Y223342D01*
X75263Y223286D01*
X167467Y223286D01*
X167764Y223346D01*
G37*
%LPC*%
G36*
X81186Y527694D02*
X78078Y530802D01*
X78078Y535198D01*
X81186Y538306D01*
X85582Y538306D01*
X87389Y536499D01*
X87642Y536331D01*
X87940Y536276D01*
X88236Y536341D01*
X88467Y536499D01*
X90274Y538306D01*
X94670Y538306D01*
X96477Y536499D01*
X96730Y536331D01*
X97028Y536276D01*
X97324Y536341D01*
X97555Y536499D01*
X99362Y538306D01*
X103758Y538306D01*
X105565Y536499D01*
X105818Y536331D01*
X106116Y536276D01*
X106412Y536341D01*
X106643Y536499D01*
X108450Y538306D01*
X112846Y538306D01*
X114653Y536499D01*
X114906Y536331D01*
X115204Y536276D01*
X115500Y536341D01*
X115731Y536499D01*
X117538Y538306D01*
X121934Y538306D01*
X123741Y536499D01*
X123994Y536331D01*
X124292Y536276D01*
X124588Y536341D01*
X124819Y536499D01*
X126626Y538306D01*
X131022Y538306D01*
X132829Y536499D01*
X133082Y536331D01*
X133380Y536276D01*
X133676Y536341D01*
X133907Y536499D01*
X135714Y538306D01*
X140110Y538306D01*
X141917Y536499D01*
X142170Y536331D01*
X142468Y536276D01*
X142764Y536341D01*
X142995Y536499D01*
X144802Y538306D01*
X149198Y538306D01*
X152306Y535198D01*
X152306Y530802D01*
X149198Y527694D01*
X144802Y527694D01*
X142995Y529501D01*
X142742Y529669D01*
X142444Y529724D01*
X142148Y529659D01*
X141917Y529501D01*
X140110Y527694D01*
X135714Y527694D01*
X133907Y529501D01*
X133654Y529669D01*
X133356Y529724D01*
X133060Y529659D01*
X132829Y529501D01*
X131022Y527694D01*
X126626Y527694D01*
X124819Y529501D01*
X124566Y529669D01*
X124268Y529724D01*
X123972Y529659D01*
X123741Y529501D01*
X121934Y527694D01*
X117538Y527694D01*
X115731Y529501D01*
X115478Y529669D01*
X115180Y529724D01*
X114884Y529659D01*
X114653Y529501D01*
X112846Y527694D01*
X108450Y527694D01*
X106643Y529501D01*
X106390Y529669D01*
X106092Y529724D01*
X105796Y529659D01*
X105565Y529501D01*
X103758Y527694D01*
X99362Y527694D01*
X97555Y529501D01*
X97302Y529669D01*
X97004Y529724D01*
X96708Y529659D01*
X96477Y529501D01*
X94670Y527694D01*
X90274Y527694D01*
X88467Y529501D01*
X88214Y529669D01*
X87916Y529724D01*
X87620Y529659D01*
X87389Y529501D01*
X85582Y527694D01*
X81186Y527694D01*
G37*
G36*
X69802Y511694D02*
X66694Y514802D01*
X66694Y519198D01*
X69802Y522306D01*
X74198Y522306D01*
X77306Y519198D01*
X77306Y514802D01*
X74198Y511694D01*
X69802Y511694D01*
G37*
G36*
X56802Y499694D02*
X53694Y502802D01*
X53694Y507198D01*
X56802Y510306D01*
X61198Y510306D01*
X64306Y507198D01*
X64306Y502802D01*
X61198Y499694D01*
X56802Y499694D01*
G37*
G36*
X129802Y484694D02*
X126694Y487802D01*
X126694Y492198D01*
X129802Y495306D01*
X134198Y495306D01*
X136461Y493043D01*
X136714Y492875D01*
X137012Y492820D01*
X137308Y492885D01*
X137539Y493043D01*
X139802Y495306D01*
X144198Y495306D01*
X147306Y492198D01*
X147306Y487802D01*
X144198Y484694D01*
X139802Y484694D01*
X137539Y486957D01*
X137286Y487125D01*
X136988Y487180D01*
X136692Y487115D01*
X136461Y486957D01*
X134198Y484694D01*
X129802Y484694D01*
G37*
G36*
X160802Y470694D02*
X157694Y473802D01*
X157694Y478198D01*
X160802Y481306D01*
X165198Y481306D01*
X168306Y478198D01*
X168306Y473802D01*
X165198Y470694D01*
X160802Y470694D01*
G37*
G36*
X144802Y326626D02*
X141694Y329734D01*
X141694Y334130D01*
X144491Y336927D01*
X144658Y337179D01*
X144714Y337465D01*
X144714Y365737D01*
X144654Y366035D01*
X144491Y366276D01*
X140626Y370141D01*
X140626Y446467D01*
X140566Y446764D01*
X140403Y447005D01*
X137606Y449802D01*
X137606Y454198D01*
X140714Y457306D01*
X145110Y457306D01*
X146917Y455499D01*
X147170Y455331D01*
X147468Y455276D01*
X147764Y455341D01*
X147995Y455499D01*
X149802Y457306D01*
X154198Y457306D01*
X157306Y454198D01*
X157306Y449802D01*
X154198Y446694D01*
X150243Y446694D01*
X149945Y446634D01*
X149704Y446471D01*
X148509Y445276D01*
X148342Y445023D01*
X148286Y444737D01*
X148286Y374263D01*
X148346Y373965D01*
X148509Y373724D01*
X159286Y362947D01*
X159286Y337465D01*
X159346Y337168D01*
X159509Y336927D01*
X162306Y334130D01*
X162306Y329734D01*
X159198Y326626D01*
X154802Y326626D01*
X152539Y328889D01*
X152286Y329057D01*
X151988Y329112D01*
X151692Y329047D01*
X151461Y328889D01*
X149198Y326626D01*
X144802Y326626D01*
G37*
G36*
X161802Y414694D02*
X158694Y417802D01*
X158694Y422198D01*
X160957Y424461D01*
X161125Y424714D01*
X161180Y425012D01*
X161115Y425308D01*
X160957Y425539D01*
X158694Y427802D01*
X158694Y432198D01*
X161802Y435306D01*
X166198Y435306D01*
X169306Y432198D01*
X169306Y427802D01*
X167043Y425539D01*
X166875Y425286D01*
X166820Y424988D01*
X166885Y424692D01*
X167043Y424461D01*
X169306Y422198D01*
X169306Y417802D01*
X166198Y414694D01*
X161802Y414694D01*
G37*
G36*
X215802Y397694D02*
X212694Y400802D01*
X212694Y405198D01*
X215802Y408306D01*
X220198Y408306D01*
X223306Y405198D01*
X223306Y400802D01*
X220198Y397694D01*
X215802Y397694D01*
G37*
G36*
X133802Y354762D02*
X130694Y357870D01*
X130694Y362266D01*
X133802Y365374D01*
X138198Y365374D01*
X141306Y362266D01*
X141306Y357870D01*
X138198Y354762D01*
X133802Y354762D01*
G37*
G36*
X110802Y338762D02*
X107694Y341870D01*
X107694Y346266D01*
X110802Y349374D01*
X115198Y349374D01*
X118306Y346266D01*
X118306Y341870D01*
X115198Y338762D01*
X110802Y338762D01*
G37*
G36*
X89870Y318694D02*
X86762Y321802D01*
X86762Y326198D01*
X89870Y329306D01*
X90351Y329306D01*
X90648Y329366D01*
X90898Y329538D01*
X91061Y329793D01*
X91112Y330092D01*
X91042Y330387D01*
X90889Y330607D01*
X90694Y330802D01*
X90694Y335198D01*
X93802Y338306D01*
X96351Y338306D01*
X96648Y338366D01*
X96898Y338538D01*
X97061Y338793D01*
X97112Y339092D01*
X97042Y339387D01*
X96889Y339607D01*
X94694Y341802D01*
X94694Y346198D01*
X97802Y349306D01*
X102198Y349306D01*
X105306Y346198D01*
X105306Y341802D01*
X102198Y338694D01*
X99649Y338694D01*
X99352Y338634D01*
X99102Y338462D01*
X98939Y338207D01*
X98888Y337908D01*
X98958Y337613D01*
X99111Y337393D01*
X101306Y335198D01*
X101306Y330802D01*
X98198Y327694D01*
X97717Y327694D01*
X97420Y327634D01*
X97170Y327462D01*
X97007Y327207D01*
X96956Y326908D01*
X97026Y326613D01*
X97179Y326393D01*
X97374Y326198D01*
X97374Y321802D01*
X94266Y318694D01*
X89870Y318694D01*
G37*
G36*
X60802Y322694D02*
X57694Y325802D01*
X57694Y330198D01*
X60802Y333306D01*
X65198Y333306D01*
X68306Y330198D01*
X68306Y325802D01*
X65198Y322694D01*
X60802Y322694D01*
G37*
G36*
X161802Y285694D02*
X158694Y288802D01*
X158694Y293198D01*
X161802Y296306D01*
X166198Y296306D01*
X169306Y293198D01*
X169306Y288802D01*
X166198Y285694D01*
X161802Y285694D01*
G37*
G36*
X163802Y239694D02*
X160694Y242802D01*
X160694Y247198D01*
X163802Y250306D01*
X168198Y250306D01*
X171306Y247198D01*
X171306Y242802D01*
X168198Y239694D01*
X163802Y239694D01*
G37*
G36*
X150802Y239694D02*
X147694Y242802D01*
X147694Y247198D01*
X150802Y250306D01*
X155198Y250306D01*
X158306Y247198D01*
X158306Y242802D01*
X155198Y239694D01*
X150802Y239694D01*
G37*
G36*
X102802Y225694D02*
X99694Y228802D01*
X99694Y233198D01*
X102802Y236306D01*
X107198Y236306D01*
X110306Y233198D01*
X110306Y228802D01*
X107198Y225694D01*
X102802Y225694D01*
G37*
%LPD*%
D10*
X25750Y47300D03*
X74250Y47300D03*
D11*
X22750Y17000D03*
X77250Y17000D03*
D12*
X216000Y104000D03*
X203000Y104000D03*
X203000Y81000D03*
X216000Y81000D03*
X64000Y220000D03*
X55000Y229000D03*
X64000Y242000D03*
X73000Y233000D03*
X223000Y511000D03*
X223000Y501000D03*
X213000Y511000D03*
X213000Y501000D03*
X224000Y550000D03*
X234000Y550000D03*
X244000Y550000D03*
X214000Y550000D03*
X330000Y295000D03*
X320000Y295000D03*
X343000Y274000D03*
X353000Y274000D03*
X9000Y591000D03*
X391000Y591000D03*
X391000Y9000D03*
X391000Y19000D03*
X391000Y29000D03*
X381000Y9000D03*
X371000Y9000D03*
X391000Y288000D03*
X391000Y278000D03*
X391000Y268000D03*
X391000Y258000D03*
X391000Y248000D03*
X391000Y238000D03*
X391000Y228000D03*
X391000Y218000D03*
X53000Y487000D03*
X53000Y469000D03*
X53000Y450000D03*
X120000Y487000D03*
X120000Y468000D03*
X120000Y450000D03*
X282000Y460000D03*
X292000Y460000D03*
X302000Y460000D03*
X282000Y450000D03*
X292000Y450000D03*
X302000Y450000D03*
X302000Y132000D03*
X294000Y80000D03*
X161000Y136000D03*
X161000Y126000D03*
X171000Y136000D03*
X171000Y126000D03*
X105000Y231000D03*
X164000Y291000D03*
X163000Y476000D03*
X59000Y505000D03*
X72000Y517000D03*
X164000Y420000D03*
X203000Y195000D03*
X36000Y431000D03*
X136000Y360068D03*
X29068Y347000D03*
X36000Y205000D03*
X63000Y328000D03*
X364000Y143000D03*
X364000Y123000D03*
X113000Y581000D03*
X304000Y206000D03*
X173000Y211000D03*
D13*
X304000Y206000D02*
X304000Y173000D01*
X354000Y123000D01*
X364000Y123000D01*
D12*
X382068Y475000D03*
D13*
X304000Y252000D02*
X304000Y206000D01*
X304000Y252000D02*
X389000Y337000D01*
X389000Y468068D01*
X382068Y475000D01*
D12*
X254000Y211000D03*
D13*
X173000Y211000D01*
D12*
X254000Y228000D03*
D13*
X163000Y581000D02*
X113000Y581000D01*
X163000Y581000D02*
X233000Y511000D01*
X233000Y260000D01*
X254000Y239000D01*
X254000Y228000D01*
D12*
X364000Y103000D03*
X364000Y93000D03*
X364000Y133000D03*
X96000Y333000D03*
X302000Y96000D03*
X92068Y324000D03*
X31000Y83000D03*
X21000Y83000D03*
X31000Y73000D03*
X21000Y73000D03*
X104000Y171000D03*
X133000Y136000D03*
X143000Y136000D03*
X143000Y126000D03*
X133000Y126000D03*
X317000Y236000D03*
X153000Y245000D03*
X256000Y502694D03*
X319000Y467000D03*
X388000Y512000D03*
X388000Y502000D03*
X319746Y420948D03*
X280709Y306291D03*
X388068Y555000D03*
X388068Y545000D03*
X378000Y402000D03*
X269000Y482000D03*
X302000Y285000D03*
X248000Y321000D03*
X248000Y329932D03*
X218000Y403000D03*
X296000Y357068D03*
X364000Y113000D03*
X31000Y581000D03*
X382000Y485000D03*
X294000Y206000D03*
X173000Y221000D03*
D13*
X294000Y206000D02*
X294000Y178000D01*
X359000Y113000D01*
X364000Y113000D01*
X294000Y206000D02*
X294000Y221000D01*
X294000Y247000D01*
X385000Y338000D01*
X385000Y461000D01*
X376000Y470000D01*
X376000Y481000D01*
X380000Y485000D01*
X382000Y485000D01*
X294000Y221000D02*
X173000Y221000D01*
X23000Y573000D02*
X31000Y581000D01*
X23000Y573000D02*
X23000Y272000D01*
X74000Y221000D01*
X173000Y221000D01*
D12*
X314000Y206000D03*
X100000Y344000D03*
X142000Y490000D03*
X132000Y490000D03*
X147000Y533000D03*
X137912Y533000D03*
X128824Y533000D03*
X119736Y533000D03*
X110648Y533000D03*
X101560Y533000D03*
X92472Y533000D03*
X83384Y533000D03*
X152000Y452000D03*
D13*
X146000Y446000D01*
X146000Y373000D01*
X157000Y362000D01*
D12*
X157000Y331932D03*
D13*
X157000Y362000D01*
D12*
X142912Y452000D03*
D13*
X142912Y371088D01*
X147000Y367000D01*
D12*
X147000Y331932D03*
D13*
X147000Y367000D01*
D12*
X57000Y282000D03*
X49000Y581000D03*
D13*
X49000Y567311D01*
X42952Y561263D01*
X42952Y309737D02*
X57000Y295689D01*
X57000Y282000D01*
X42952Y309737D02*
X42952Y561263D01*
D12*
X57000Y272000D03*
X62000Y581000D03*
D13*
X62000Y575000D01*
X46000Y311000D02*
X64000Y293000D01*
X64000Y278000D01*
X58000Y272000D01*
X57000Y272000D01*
X46000Y559000D02*
X62000Y575000D01*
X46000Y559000D02*
X46000Y311000D01*
D12*
X176000Y581000D03*
D13*
X169000Y588000D01*
X28000Y588000D01*
X17000Y577000D01*
D12*
X16932Y272000D03*
D13*
X17000Y272068D02*
X17000Y577000D01*
X17000Y272068D02*
X16932Y272000D01*
D12*
X18000Y205000D03*
D13*
X16932Y206068D01*
X16932Y272000D01*
D12*
X166000Y245000D03*
X164000Y430000D03*
X373000Y533000D03*
X113000Y344068D03*
X320000Y577000D03*
D13*
X320000Y536311D01*
X319904Y536215D01*
X319904Y476096D01*
X325814Y470186D01*
X325814Y418435D01*
X304000Y396621D01*
D12*
X303316Y329000D03*
D13*
X304000Y329684D02*
X304000Y396621D01*
X304000Y329684D02*
X303316Y329000D01*
D12*
X330000Y577000D03*
D13*
X330000Y542000D01*
X322952Y534952D01*
X322952Y478048D01*
X328862Y472138D01*
X328862Y417172D01*
X313000Y401311D01*
D12*
X312404Y329000D03*
D13*
X313000Y329596D02*
X313000Y401311D01*
X313000Y329596D02*
X312404Y329000D01*
D12*
X333000Y533000D03*
D13*
X326000Y526000D01*
X326000Y480000D01*
X331910Y474090D01*
X331910Y415910D01*
X322000Y406000D01*
D12*
X321492Y329000D03*
D13*
X322000Y329508D02*
X322000Y406000D01*
X322000Y329508D02*
X321492Y329000D01*
D12*
X340000Y577000D03*
D13*
X341000Y576000D01*
X341000Y500000D01*
X332000Y491000D01*
X332000Y479000D01*
X334958Y476042D01*
X334958Y413958D01*
X329864Y408864D01*
X329864Y379487D01*
D12*
X330580Y329000D03*
D13*
X330580Y378771D02*
X329864Y379487D01*
X330580Y378771D02*
X330580Y329000D01*
D12*
X339000Y487000D03*
D13*
X339000Y481311D01*
X338952Y481263D01*
X338952Y389048D01*
X342000Y386000D01*
D12*
X339668Y329000D03*
D13*
X342000Y331332D02*
X342000Y386000D01*
X342000Y331332D02*
X339668Y329000D01*
X354952Y469952D02*
X354952Y490737D01*
X354952Y469952D02*
X349000Y464000D01*
D12*
X348756Y329000D03*
D13*
X349000Y329244D02*
X349000Y464000D01*
X349000Y329244D02*
X348756Y329000D01*
X348756Y496933D02*
X348756Y575756D01*
X348756Y496933D02*
X354952Y490737D01*
D12*
X349932Y577000D03*
D13*
X349932Y576932D01*
X348756Y575756D01*
D12*
X49000Y290000D03*
X49000Y256000D03*
X44000Y73000D03*
X56468Y73000D03*
X278000Y535000D03*
X308000Y535000D03*
X258000Y463000D03*
X258000Y383000D03*
X335932Y382000D03*
X348884Y474000D03*
X281000Y256500D03*
X356000Y256000D03*
D13*
X358000Y492000D02*
X354844Y495156D01*
D12*
X357844Y329000D03*
D13*
X358000Y329156D02*
X358000Y492000D01*
X358000Y329156D02*
X357844Y329000D01*
D12*
X354824Y533000D03*
D13*
X354844Y532980D01*
X354844Y495156D01*
D12*
X366932Y329000D03*
D13*
X366932Y329068D02*
X363932Y332068D01*
X366932Y329068D02*
X366932Y329000D01*
D12*
X363912Y533000D03*
D13*
X363932Y532980D01*
X363932Y332068D01*
M02*
