G04 EAGLE Gerber RS-274X export*
G75*
%MOMM*%
%FSLAX34Y34*%
%LPD*%
%INCopper Layer 15*%
%IPPOS*%
%AMOC8*
5,1,8,0,0,1.08239X$1,22.5*%
G01*
G04 Define Apertures*
%ADD10C,1.158000*%
%ADD11C,1.208000*%
%ADD12C,0.756400*%
%ADD13C,1.016000*%
G36*
X308995Y72600D02*
X309245Y72772D01*
X309409Y73027D01*
X309460Y73302D01*
X309460Y93659D01*
X309400Y93956D01*
X309228Y94206D01*
X308973Y94370D01*
X308674Y94421D01*
X308379Y94351D01*
X308134Y94171D01*
X307994Y93951D01*
X307360Y92419D01*
X305581Y90640D01*
X303258Y89678D01*
X300742Y89678D01*
X298419Y90640D01*
X296640Y92419D01*
X295678Y94742D01*
X295678Y97258D01*
X296640Y99581D01*
X298419Y101360D01*
X300742Y102322D01*
X303258Y102322D01*
X305581Y101360D01*
X307360Y99581D01*
X307994Y98049D01*
X308164Y97798D01*
X308418Y97632D01*
X308716Y97579D01*
X309012Y97647D01*
X309258Y97824D01*
X309415Y98083D01*
X309460Y98341D01*
X309460Y200680D01*
X309400Y200977D01*
X309228Y201227D01*
X308973Y201391D01*
X308674Y201441D01*
X308379Y201372D01*
X308159Y201219D01*
X307581Y200640D01*
X305258Y199678D01*
X302742Y199678D01*
X300419Y200640D01*
X299539Y201521D01*
X299286Y201688D01*
X298988Y201744D01*
X298692Y201679D01*
X298461Y201521D01*
X297581Y200640D01*
X295258Y199678D01*
X292742Y199678D01*
X290419Y200640D01*
X288640Y202419D01*
X287678Y204742D01*
X287678Y207258D01*
X288640Y209581D01*
X290419Y211360D01*
X292742Y212322D01*
X295258Y212322D01*
X297581Y211360D01*
X298461Y210479D01*
X298714Y210312D01*
X299012Y210256D01*
X299308Y210321D01*
X299539Y210479D01*
X300419Y211360D01*
X302742Y212322D01*
X305258Y212322D01*
X307581Y211360D01*
X308159Y210781D01*
X308412Y210614D01*
X308710Y210558D01*
X309006Y210623D01*
X309254Y210799D01*
X309413Y211057D01*
X309460Y211320D01*
X309460Y279844D01*
X309400Y280141D01*
X309228Y280391D01*
X308973Y280555D01*
X308674Y280606D01*
X308379Y280536D01*
X308159Y280383D01*
X306316Y278540D01*
X303516Y277380D01*
X271484Y277380D01*
X268684Y278540D01*
X241540Y305684D01*
X240380Y308484D01*
X240380Y359828D01*
X241540Y362628D01*
X255121Y376209D01*
X255288Y376462D01*
X255344Y376760D01*
X255279Y377056D01*
X255104Y377304D01*
X254874Y377452D01*
X254419Y377640D01*
X252640Y379419D01*
X251678Y381742D01*
X251678Y384258D01*
X252640Y386581D01*
X254419Y388360D01*
X256742Y389322D01*
X259258Y389322D01*
X259712Y389134D01*
X260010Y389076D01*
X260307Y389138D01*
X260556Y389312D01*
X260717Y389569D01*
X260766Y389838D01*
X260766Y402902D01*
X261322Y404244D01*
X261380Y404536D01*
X261380Y456417D01*
X261320Y456714D01*
X261148Y456964D01*
X260893Y457128D01*
X260594Y457178D01*
X260326Y457121D01*
X259258Y456678D01*
X256742Y456678D01*
X254419Y457640D01*
X252640Y459419D01*
X251678Y461742D01*
X251678Y464258D01*
X252640Y466581D01*
X254419Y468360D01*
X256742Y469322D01*
X259258Y469322D01*
X260326Y468879D01*
X260624Y468821D01*
X260921Y468884D01*
X261170Y469057D01*
X261331Y469314D01*
X261380Y469583D01*
X261380Y483516D01*
X262540Y486316D01*
X264684Y488460D01*
X267484Y489620D01*
X270516Y489620D01*
X273316Y488460D01*
X275460Y486316D01*
X276620Y483516D01*
X276620Y465400D01*
X276680Y465103D01*
X276852Y464853D01*
X277107Y464690D01*
X277406Y464639D01*
X277701Y464708D01*
X277921Y464861D01*
X278419Y465360D01*
X280742Y466322D01*
X283258Y466322D01*
X285581Y465360D01*
X286461Y464479D01*
X286714Y464312D01*
X287012Y464256D01*
X287308Y464321D01*
X287539Y464479D01*
X288419Y465360D01*
X290742Y466322D01*
X293258Y466322D01*
X295581Y465360D01*
X296461Y464479D01*
X296714Y464312D01*
X297012Y464256D01*
X297308Y464321D01*
X297539Y464479D01*
X298419Y465360D01*
X300742Y466322D01*
X303258Y466322D01*
X305581Y465360D01*
X307360Y463581D01*
X307994Y462049D01*
X308164Y461798D01*
X308418Y461632D01*
X308716Y461579D01*
X309012Y461647D01*
X309258Y461824D01*
X309415Y462083D01*
X309460Y462341D01*
X309460Y494312D01*
X309400Y494609D01*
X309228Y494859D01*
X308973Y495023D01*
X308698Y495074D01*
X254484Y495074D01*
X251684Y496234D01*
X249540Y498378D01*
X248380Y501178D01*
X248380Y504210D01*
X249540Y507010D01*
X251684Y509154D01*
X254484Y510314D01*
X308698Y510314D01*
X308995Y510374D01*
X309245Y510546D01*
X309409Y510801D01*
X309460Y511076D01*
X309460Y527916D01*
X309400Y528213D01*
X309228Y528463D01*
X308973Y528627D01*
X308698Y528678D01*
X306742Y528678D01*
X304419Y529640D01*
X302640Y531419D01*
X301678Y533742D01*
X301678Y536258D01*
X302640Y538581D01*
X304419Y540360D01*
X306742Y541322D01*
X308698Y541322D01*
X308995Y541382D01*
X309245Y541554D01*
X309409Y541809D01*
X309460Y542084D01*
X309460Y595936D01*
X309400Y596233D01*
X309228Y596483D01*
X308973Y596647D01*
X308698Y596698D01*
X14082Y596698D01*
X13785Y596638D01*
X13535Y596466D01*
X13372Y596211D01*
X13321Y595912D01*
X13390Y595617D01*
X13543Y595397D01*
X14360Y594581D01*
X15322Y592258D01*
X15322Y589742D01*
X14360Y587419D01*
X12581Y585640D01*
X10258Y584678D01*
X7742Y584678D01*
X5419Y585640D01*
X4603Y586457D01*
X4350Y586624D01*
X4052Y586680D01*
X3756Y586615D01*
X3508Y586439D01*
X3349Y586181D01*
X3302Y585918D01*
X3302Y180302D01*
X3362Y180005D01*
X3534Y179755D01*
X3789Y179591D01*
X4064Y179540D01*
X136618Y179540D01*
X136915Y179600D01*
X137165Y179772D01*
X137329Y180027D01*
X137380Y180302D01*
X137380Y238516D01*
X138540Y241316D01*
X148684Y251460D01*
X151484Y252620D01*
X154516Y252620D01*
X157316Y251460D01*
X159460Y249316D01*
X159585Y249015D01*
X159754Y248764D01*
X160008Y248598D01*
X160307Y248545D01*
X160603Y248613D01*
X160827Y248768D01*
X162419Y250360D01*
X164742Y251322D01*
X167258Y251322D01*
X169581Y250360D01*
X171360Y248581D01*
X172322Y246258D01*
X172322Y243742D01*
X171360Y241419D01*
X169581Y239640D01*
X167258Y238678D01*
X164742Y238678D01*
X162419Y239640D01*
X160827Y241232D01*
X160575Y241399D01*
X160276Y241455D01*
X159980Y241390D01*
X159733Y241214D01*
X159585Y240985D01*
X159460Y240684D01*
X152843Y234067D01*
X152676Y233814D01*
X152620Y233528D01*
X152620Y168484D01*
X152598Y168431D01*
X152540Y168140D01*
X152540Y73302D01*
X152600Y73005D01*
X152772Y72755D01*
X153027Y72591D01*
X153302Y72540D01*
X308698Y72540D01*
X308995Y72600D01*
G37*
%LPC*%
G36*
X47742Y574678D02*
X45419Y575640D01*
X43640Y577419D01*
X42678Y579742D01*
X42678Y582258D01*
X43640Y584581D01*
X45419Y586360D01*
X47742Y587322D01*
X50258Y587322D01*
X52581Y586360D01*
X54360Y584581D01*
X54796Y583527D01*
X54966Y583276D01*
X55220Y583110D01*
X55518Y583057D01*
X55814Y583125D01*
X56060Y583302D01*
X56204Y583527D01*
X56640Y584581D01*
X58419Y586360D01*
X60742Y587322D01*
X63258Y587322D01*
X65581Y586360D01*
X67360Y584581D01*
X68322Y582258D01*
X68322Y579742D01*
X67360Y577419D01*
X65581Y575640D01*
X63258Y574678D01*
X60742Y574678D01*
X58419Y575640D01*
X56640Y577419D01*
X56204Y578473D01*
X56035Y578724D01*
X55780Y578890D01*
X55482Y578943D01*
X55186Y578875D01*
X54940Y578698D01*
X54796Y578473D01*
X54360Y577419D01*
X52581Y575640D01*
X50258Y574678D01*
X47742Y574678D01*
G37*
G36*
X111742Y574678D02*
X109419Y575640D01*
X107640Y577419D01*
X106678Y579742D01*
X106678Y582258D01*
X107640Y584581D01*
X109419Y586360D01*
X111742Y587322D01*
X114258Y587322D01*
X116581Y586360D01*
X118360Y584581D01*
X119322Y582258D01*
X119322Y579742D01*
X118360Y577419D01*
X116581Y575640D01*
X114258Y574678D01*
X111742Y574678D01*
G37*
G36*
X174742Y574678D02*
X172419Y575640D01*
X170640Y577419D01*
X169678Y579742D01*
X169678Y582258D01*
X170640Y584581D01*
X172419Y586360D01*
X174742Y587322D01*
X177258Y587322D01*
X179581Y586360D01*
X181360Y584581D01*
X182322Y582258D01*
X182322Y579742D01*
X181360Y577419D01*
X179581Y575640D01*
X177258Y574678D01*
X174742Y574678D01*
G37*
G36*
X29742Y574678D02*
X27419Y575640D01*
X25640Y577419D01*
X24678Y579742D01*
X24678Y582258D01*
X25640Y584581D01*
X27419Y586360D01*
X29742Y587322D01*
X32258Y587322D01*
X34581Y586360D01*
X36360Y584581D01*
X37322Y582258D01*
X37322Y579742D01*
X36360Y577419D01*
X34581Y575640D01*
X32258Y574678D01*
X29742Y574678D01*
G37*
G36*
X212742Y543678D02*
X210419Y544640D01*
X208640Y546419D01*
X207678Y548742D01*
X207678Y551258D01*
X208640Y553581D01*
X210419Y555360D01*
X212742Y556322D01*
X215258Y556322D01*
X217581Y555360D01*
X218461Y554479D01*
X218714Y554312D01*
X219012Y554256D01*
X219308Y554321D01*
X219539Y554479D01*
X220419Y555360D01*
X222742Y556322D01*
X225258Y556322D01*
X227581Y555360D01*
X228461Y554479D01*
X228714Y554312D01*
X229012Y554256D01*
X229308Y554321D01*
X229539Y554479D01*
X230419Y555360D01*
X232742Y556322D01*
X235258Y556322D01*
X237581Y555360D01*
X238461Y554479D01*
X238714Y554312D01*
X239012Y554256D01*
X239308Y554321D01*
X239539Y554479D01*
X240419Y555360D01*
X242742Y556322D01*
X245258Y556322D01*
X247581Y555360D01*
X249360Y553581D01*
X250322Y551258D01*
X250322Y548742D01*
X249360Y546419D01*
X247581Y544640D01*
X245258Y543678D01*
X242742Y543678D01*
X240419Y544640D01*
X239539Y545521D01*
X239286Y545688D01*
X238988Y545744D01*
X238692Y545679D01*
X238461Y545521D01*
X237581Y544640D01*
X235258Y543678D01*
X232742Y543678D01*
X230419Y544640D01*
X229539Y545521D01*
X229286Y545688D01*
X228988Y545744D01*
X228692Y545679D01*
X228461Y545521D01*
X227581Y544640D01*
X225258Y543678D01*
X222742Y543678D01*
X220419Y544640D01*
X219539Y545521D01*
X219286Y545688D01*
X218988Y545744D01*
X218692Y545679D01*
X218461Y545521D01*
X217581Y544640D01*
X215258Y543678D01*
X212742Y543678D01*
G37*
G36*
X276742Y528678D02*
X274419Y529640D01*
X272640Y531419D01*
X271678Y533742D01*
X271678Y536258D01*
X272640Y538581D01*
X274419Y540360D01*
X276742Y541322D01*
X279258Y541322D01*
X281581Y540360D01*
X283360Y538581D01*
X284322Y536258D01*
X284322Y533742D01*
X283360Y531419D01*
X281581Y529640D01*
X279258Y528678D01*
X276742Y528678D01*
G37*
G36*
X82126Y526678D02*
X79803Y527640D01*
X78024Y529419D01*
X77062Y531742D01*
X77062Y534258D01*
X78024Y536581D01*
X79803Y538360D01*
X82126Y539322D01*
X84642Y539322D01*
X86965Y538360D01*
X87389Y537935D01*
X87642Y537768D01*
X87940Y537712D01*
X88236Y537777D01*
X88467Y537935D01*
X88891Y538360D01*
X91214Y539322D01*
X93730Y539322D01*
X96053Y538360D01*
X96477Y537935D01*
X96730Y537768D01*
X97028Y537712D01*
X97324Y537777D01*
X97555Y537935D01*
X97979Y538360D01*
X100302Y539322D01*
X102818Y539322D01*
X105141Y538360D01*
X105565Y537935D01*
X105818Y537768D01*
X106116Y537712D01*
X106412Y537777D01*
X106643Y537935D01*
X107067Y538360D01*
X109390Y539322D01*
X111906Y539322D01*
X114229Y538360D01*
X114653Y537935D01*
X114906Y537768D01*
X115204Y537712D01*
X115500Y537777D01*
X115731Y537935D01*
X116155Y538360D01*
X118478Y539322D01*
X120994Y539322D01*
X123317Y538360D01*
X123741Y537935D01*
X123994Y537768D01*
X124292Y537712D01*
X124588Y537777D01*
X124819Y537935D01*
X125243Y538360D01*
X127566Y539322D01*
X130082Y539322D01*
X132405Y538360D01*
X132829Y537935D01*
X133082Y537768D01*
X133380Y537712D01*
X133676Y537777D01*
X133907Y537935D01*
X134331Y538360D01*
X136654Y539322D01*
X139170Y539322D01*
X141493Y538360D01*
X141917Y537935D01*
X142170Y537768D01*
X142468Y537712D01*
X142764Y537777D01*
X142995Y537935D01*
X143419Y538360D01*
X145742Y539322D01*
X148258Y539322D01*
X150581Y538360D01*
X152360Y536581D01*
X153322Y534258D01*
X153322Y531742D01*
X152360Y529419D01*
X150581Y527640D01*
X148258Y526678D01*
X145742Y526678D01*
X143419Y527640D01*
X142995Y528065D01*
X142742Y528232D01*
X142444Y528288D01*
X142148Y528223D01*
X141917Y528065D01*
X141493Y527640D01*
X139170Y526678D01*
X136654Y526678D01*
X134331Y527640D01*
X133907Y528065D01*
X133654Y528232D01*
X133356Y528288D01*
X133060Y528223D01*
X132829Y528065D01*
X132405Y527640D01*
X130082Y526678D01*
X127566Y526678D01*
X125243Y527640D01*
X124819Y528065D01*
X124566Y528232D01*
X124268Y528288D01*
X123972Y528223D01*
X123741Y528065D01*
X123317Y527640D01*
X120994Y526678D01*
X118478Y526678D01*
X116155Y527640D01*
X115731Y528065D01*
X115478Y528232D01*
X115180Y528288D01*
X114884Y528223D01*
X114653Y528065D01*
X114229Y527640D01*
X111906Y526678D01*
X109390Y526678D01*
X107067Y527640D01*
X106643Y528065D01*
X106390Y528232D01*
X106092Y528288D01*
X105796Y528223D01*
X105565Y528065D01*
X105141Y527640D01*
X102818Y526678D01*
X100302Y526678D01*
X97979Y527640D01*
X97555Y528065D01*
X97302Y528232D01*
X97004Y528288D01*
X96708Y528223D01*
X96477Y528065D01*
X96053Y527640D01*
X93730Y526678D01*
X91214Y526678D01*
X88891Y527640D01*
X88467Y528065D01*
X88214Y528232D01*
X87916Y528288D01*
X87620Y528223D01*
X87389Y528065D01*
X86965Y527640D01*
X84642Y526678D01*
X82126Y526678D01*
G37*
G36*
X211742Y494678D02*
X209419Y495640D01*
X207640Y497419D01*
X206678Y499742D01*
X206678Y502258D01*
X207640Y504581D01*
X208521Y505461D01*
X208688Y505714D01*
X208744Y506012D01*
X208679Y506308D01*
X208521Y506539D01*
X207640Y507419D01*
X206678Y509742D01*
X206678Y512258D01*
X207640Y514581D01*
X209419Y516360D01*
X211742Y517322D01*
X214258Y517322D01*
X216581Y516360D01*
X217461Y515479D01*
X217714Y515312D01*
X218012Y515256D01*
X218308Y515321D01*
X218539Y515479D01*
X219419Y516360D01*
X221742Y517322D01*
X224258Y517322D01*
X226581Y516360D01*
X228360Y514581D01*
X229322Y512258D01*
X229322Y509742D01*
X228360Y507419D01*
X227479Y506539D01*
X227312Y506286D01*
X227256Y505988D01*
X227321Y505692D01*
X227479Y505461D01*
X228360Y504581D01*
X229322Y502258D01*
X229322Y499742D01*
X228360Y497419D01*
X226581Y495640D01*
X224258Y494678D01*
X221742Y494678D01*
X219419Y495640D01*
X218539Y496521D01*
X218286Y496688D01*
X217988Y496744D01*
X217692Y496679D01*
X217461Y496521D01*
X216581Y495640D01*
X214258Y494678D01*
X211742Y494678D01*
G37*
G36*
X118742Y480678D02*
X116419Y481640D01*
X114640Y483419D01*
X113678Y485742D01*
X113678Y488258D01*
X114640Y490581D01*
X116419Y492360D01*
X118742Y493322D01*
X121258Y493322D01*
X123581Y492360D01*
X124580Y491360D01*
X124833Y491193D01*
X125131Y491137D01*
X125427Y491202D01*
X125675Y491378D01*
X125823Y491608D01*
X126640Y493581D01*
X128419Y495360D01*
X130742Y496322D01*
X133258Y496322D01*
X135581Y495360D01*
X136461Y494479D01*
X136714Y494312D01*
X137012Y494256D01*
X137308Y494321D01*
X137539Y494479D01*
X138419Y495360D01*
X140742Y496322D01*
X143258Y496322D01*
X145581Y495360D01*
X147360Y493581D01*
X148322Y491258D01*
X148322Y488742D01*
X147360Y486419D01*
X145581Y484640D01*
X143258Y483678D01*
X140742Y483678D01*
X138419Y484640D01*
X137539Y485521D01*
X137286Y485688D01*
X136988Y485744D01*
X136692Y485679D01*
X136461Y485521D01*
X135581Y484640D01*
X133258Y483678D01*
X130742Y483678D01*
X128419Y484640D01*
X127420Y485640D01*
X127167Y485807D01*
X126869Y485863D01*
X126573Y485798D01*
X126325Y485622D01*
X126177Y485392D01*
X125360Y483419D01*
X123581Y481640D01*
X121258Y480678D01*
X118742Y480678D01*
G37*
G36*
X51742Y480678D02*
X49419Y481640D01*
X47640Y483419D01*
X46678Y485742D01*
X46678Y488258D01*
X47640Y490581D01*
X49419Y492360D01*
X51742Y493322D01*
X54258Y493322D01*
X56581Y492360D01*
X58360Y490581D01*
X59322Y488258D01*
X59322Y485742D01*
X58360Y483419D01*
X56581Y481640D01*
X54258Y480678D01*
X51742Y480678D01*
G37*
G36*
X51742Y462678D02*
X49419Y463640D01*
X47640Y465419D01*
X46678Y467742D01*
X46678Y470258D01*
X47640Y472581D01*
X49419Y474360D01*
X51742Y475322D01*
X54258Y475322D01*
X56581Y474360D01*
X58360Y472581D01*
X59322Y470258D01*
X59322Y467742D01*
X58360Y465419D01*
X56581Y463640D01*
X54258Y462678D01*
X51742Y462678D01*
G37*
G36*
X118742Y461678D02*
X116419Y462640D01*
X114640Y464419D01*
X113678Y466742D01*
X113678Y469258D01*
X114640Y471581D01*
X116419Y473360D01*
X118742Y474322D01*
X121258Y474322D01*
X123581Y473360D01*
X125360Y471581D01*
X126322Y469258D01*
X126322Y466742D01*
X125360Y464419D01*
X123581Y462640D01*
X121258Y461678D01*
X118742Y461678D01*
G37*
G36*
X141654Y445678D02*
X139331Y446640D01*
X137552Y448419D01*
X136590Y450742D01*
X136590Y453258D01*
X137552Y455581D01*
X139331Y457360D01*
X141654Y458322D01*
X144170Y458322D01*
X146493Y457360D01*
X146917Y456935D01*
X147170Y456768D01*
X147468Y456712D01*
X147764Y456777D01*
X147995Y456935D01*
X148419Y457360D01*
X150742Y458322D01*
X153258Y458322D01*
X155581Y457360D01*
X157360Y455581D01*
X158322Y453258D01*
X158322Y450742D01*
X157360Y448419D01*
X155581Y446640D01*
X153258Y445678D01*
X150742Y445678D01*
X148419Y446640D01*
X147995Y447065D01*
X147742Y447232D01*
X147444Y447288D01*
X147148Y447223D01*
X146917Y447065D01*
X146493Y446640D01*
X144170Y445678D01*
X141654Y445678D01*
G37*
G36*
X118742Y443678D02*
X116419Y444640D01*
X114640Y446419D01*
X113678Y448742D01*
X113678Y451258D01*
X114640Y453581D01*
X116419Y455360D01*
X118742Y456322D01*
X121258Y456322D01*
X123581Y455360D01*
X125360Y453581D01*
X126322Y451258D01*
X126322Y448742D01*
X125360Y446419D01*
X123581Y444640D01*
X121258Y443678D01*
X118742Y443678D01*
G37*
G36*
X51742Y443678D02*
X49419Y444640D01*
X47640Y446419D01*
X46678Y448742D01*
X46678Y451258D01*
X47640Y453581D01*
X49419Y455360D01*
X51742Y456322D01*
X54258Y456322D01*
X56581Y455360D01*
X58360Y453581D01*
X59322Y451258D01*
X59322Y448742D01*
X58360Y446419D01*
X56581Y444640D01*
X54258Y443678D01*
X51742Y443678D01*
G37*
G36*
X162742Y423678D02*
X160419Y424640D01*
X158640Y426419D01*
X157678Y428742D01*
X157678Y431258D01*
X158640Y433581D01*
X160419Y435360D01*
X162742Y436322D01*
X165258Y436322D01*
X167581Y435360D01*
X169360Y433581D01*
X170322Y431258D01*
X170322Y428742D01*
X169360Y426419D01*
X167581Y424640D01*
X165258Y423678D01*
X162742Y423678D01*
G37*
G36*
X216742Y396678D02*
X214419Y397640D01*
X212640Y399419D01*
X211678Y401742D01*
X211678Y404258D01*
X212640Y406581D01*
X214419Y408360D01*
X216742Y409322D01*
X219258Y409322D01*
X221581Y408360D01*
X223360Y406581D01*
X224322Y404258D01*
X224322Y401742D01*
X223360Y399419D01*
X221581Y397640D01*
X219258Y396678D01*
X216742Y396678D01*
G37*
G36*
X90810Y317678D02*
X88487Y318640D01*
X86708Y320419D01*
X85746Y322742D01*
X85746Y325258D01*
X86708Y327581D01*
X88487Y329360D01*
X89642Y329838D01*
X89894Y330008D01*
X90059Y330262D01*
X90112Y330560D01*
X90054Y330834D01*
X89678Y331743D01*
X89678Y334258D01*
X90640Y336581D01*
X92419Y338360D01*
X94392Y339177D01*
X94644Y339346D01*
X94809Y339601D01*
X94863Y339899D01*
X94795Y340195D01*
X94641Y340418D01*
X93678Y342742D01*
X93678Y345258D01*
X94640Y347581D01*
X96419Y349360D01*
X98742Y350322D01*
X101258Y350322D01*
X103581Y349360D01*
X105360Y347581D01*
X105782Y346561D01*
X105951Y346310D01*
X106206Y346144D01*
X106504Y346091D01*
X106800Y346159D01*
X107046Y346336D01*
X107190Y346561D01*
X107640Y347649D01*
X109419Y349428D01*
X111742Y350390D01*
X114258Y350390D01*
X116581Y349428D01*
X118360Y347649D01*
X119322Y345326D01*
X119322Y342810D01*
X118360Y340487D01*
X116581Y338708D01*
X114258Y337746D01*
X111742Y337746D01*
X109419Y338708D01*
X107640Y340487D01*
X107218Y341507D01*
X107049Y341758D01*
X106794Y341924D01*
X106496Y341977D01*
X106200Y341909D01*
X105954Y341732D01*
X105810Y341507D01*
X105360Y340419D01*
X103581Y338640D01*
X101608Y337823D01*
X101356Y337654D01*
X101191Y337399D01*
X101137Y337101D01*
X101205Y336805D01*
X101359Y336582D01*
X102322Y334258D01*
X102322Y331742D01*
X101360Y329419D01*
X99581Y327640D01*
X98426Y327162D01*
X98174Y326992D01*
X98009Y326738D01*
X97956Y326440D01*
X98014Y326166D01*
X98390Y325258D01*
X98390Y322742D01*
X97428Y320419D01*
X95649Y318640D01*
X93326Y317678D01*
X90810Y317678D01*
G37*
G36*
X145742Y325610D02*
X143419Y326572D01*
X141640Y328351D01*
X140678Y330674D01*
X140678Y333190D01*
X141640Y335513D01*
X143419Y337292D01*
X145742Y338254D01*
X148258Y338254D01*
X150581Y337292D01*
X151461Y336411D01*
X151714Y336244D01*
X152012Y336188D01*
X152308Y336253D01*
X152539Y336411D01*
X153419Y337292D01*
X155742Y338254D01*
X158258Y338254D01*
X160581Y337292D01*
X162360Y335513D01*
X163322Y333190D01*
X163322Y330674D01*
X162360Y328351D01*
X160581Y326572D01*
X158258Y325610D01*
X155742Y325610D01*
X153419Y326572D01*
X152539Y327453D01*
X152286Y327620D01*
X151988Y327676D01*
X151692Y327611D01*
X151461Y327453D01*
X150581Y326572D01*
X148258Y325610D01*
X145742Y325610D01*
G37*
G36*
X55742Y265678D02*
X53419Y266640D01*
X51640Y268419D01*
X50678Y270742D01*
X50678Y273258D01*
X51640Y275581D01*
X52521Y276461D01*
X52688Y276714D01*
X52744Y277012D01*
X52679Y277308D01*
X52521Y277539D01*
X51640Y278419D01*
X50678Y280742D01*
X50678Y282916D01*
X50618Y283213D01*
X50446Y283463D01*
X50191Y283627D01*
X49916Y283678D01*
X47742Y283678D01*
X45419Y284640D01*
X43640Y286419D01*
X42678Y288742D01*
X42678Y291258D01*
X43640Y293581D01*
X45419Y295360D01*
X47742Y296322D01*
X50258Y296322D01*
X52581Y295360D01*
X54360Y293581D01*
X55322Y291258D01*
X55322Y289084D01*
X55382Y288787D01*
X55554Y288537D01*
X55809Y288373D01*
X56084Y288322D01*
X58258Y288322D01*
X60581Y287360D01*
X62360Y285581D01*
X63322Y283258D01*
X63322Y280742D01*
X62360Y278419D01*
X61479Y277539D01*
X61312Y277286D01*
X61256Y276988D01*
X61321Y276692D01*
X61479Y276461D01*
X62360Y275581D01*
X63322Y273258D01*
X63322Y270742D01*
X62360Y268419D01*
X60581Y266640D01*
X58258Y265678D01*
X55742Y265678D01*
G37*
G36*
X15674Y265678D02*
X13351Y266640D01*
X11572Y268419D01*
X10610Y270742D01*
X10610Y273258D01*
X11572Y275581D01*
X13351Y277360D01*
X15674Y278322D01*
X18190Y278322D01*
X20513Y277360D01*
X22292Y275581D01*
X23254Y273258D01*
X23254Y270742D01*
X22292Y268419D01*
X20513Y266640D01*
X18190Y265678D01*
X15674Y265678D01*
G37*
G36*
X279742Y250178D02*
X277419Y251140D01*
X275640Y252919D01*
X274678Y255242D01*
X274678Y257758D01*
X275640Y260081D01*
X277419Y261860D01*
X279742Y262822D01*
X282258Y262822D01*
X284581Y261860D01*
X286360Y260081D01*
X287322Y257758D01*
X287322Y255242D01*
X286360Y252919D01*
X284581Y251140D01*
X282258Y250178D01*
X279742Y250178D01*
G37*
G36*
X47742Y249678D02*
X45419Y250640D01*
X43640Y252419D01*
X42678Y254742D01*
X42678Y257258D01*
X43640Y259581D01*
X45419Y261360D01*
X47742Y262322D01*
X50258Y262322D01*
X52581Y261360D01*
X54360Y259581D01*
X55322Y257258D01*
X55322Y254742D01*
X54360Y252419D01*
X52581Y250640D01*
X50258Y249678D01*
X47742Y249678D01*
G37*
G36*
X71742Y226678D02*
X69419Y227640D01*
X67640Y229419D01*
X66678Y231742D01*
X66678Y234258D01*
X66978Y234983D01*
X67036Y235281D01*
X66974Y235577D01*
X66800Y235826D01*
X66543Y235987D01*
X66244Y236036D01*
X65983Y235978D01*
X65258Y235678D01*
X62742Y235678D01*
X60419Y236640D01*
X58640Y238419D01*
X57678Y240742D01*
X57678Y243258D01*
X58640Y245581D01*
X60419Y247360D01*
X62742Y248322D01*
X65258Y248322D01*
X67581Y247360D01*
X69360Y245581D01*
X70322Y243258D01*
X70322Y240742D01*
X70022Y240017D01*
X69964Y239720D01*
X70026Y239423D01*
X70200Y239174D01*
X70457Y239013D01*
X70756Y238964D01*
X71017Y239022D01*
X71742Y239322D01*
X74258Y239322D01*
X76581Y238360D01*
X78360Y236581D01*
X79322Y234258D01*
X79322Y231742D01*
X78360Y229419D01*
X76581Y227640D01*
X74258Y226678D01*
X71742Y226678D01*
G37*
G36*
X62742Y213678D02*
X60419Y214640D01*
X58640Y216419D01*
X57678Y218742D01*
X57678Y221258D01*
X57978Y221983D01*
X58036Y222281D01*
X57974Y222577D01*
X57800Y222826D01*
X57543Y222987D01*
X57244Y223036D01*
X56983Y222978D01*
X56258Y222678D01*
X53742Y222678D01*
X51419Y223640D01*
X49640Y225419D01*
X48678Y227742D01*
X48678Y230258D01*
X49640Y232581D01*
X51419Y234360D01*
X53742Y235322D01*
X56258Y235322D01*
X58581Y234360D01*
X60360Y232581D01*
X61322Y230258D01*
X61322Y227742D01*
X61022Y227017D01*
X60964Y226720D01*
X61026Y226423D01*
X61200Y226174D01*
X61457Y226013D01*
X61756Y225964D01*
X62017Y226022D01*
X62742Y226322D01*
X65258Y226322D01*
X67581Y225360D01*
X69360Y223581D01*
X70322Y221258D01*
X70322Y218742D01*
X69360Y216419D01*
X67581Y214640D01*
X65258Y213678D01*
X62742Y213678D01*
G37*
G36*
X252742Y221678D02*
X250419Y222640D01*
X248640Y224419D01*
X247678Y226742D01*
X247678Y229258D01*
X248640Y231581D01*
X250419Y233360D01*
X252742Y234322D01*
X255258Y234322D01*
X257581Y233360D01*
X259360Y231581D01*
X260322Y229258D01*
X260322Y226742D01*
X259360Y224419D01*
X257581Y222640D01*
X255258Y221678D01*
X252742Y221678D01*
G37*
G36*
X171742Y204678D02*
X169419Y205640D01*
X167640Y207419D01*
X166678Y209742D01*
X166678Y212258D01*
X167640Y214581D01*
X168521Y215461D01*
X168688Y215714D01*
X168744Y216012D01*
X168679Y216308D01*
X168521Y216539D01*
X167640Y217419D01*
X166678Y219742D01*
X166678Y222258D01*
X167640Y224581D01*
X169419Y226360D01*
X171742Y227322D01*
X174258Y227322D01*
X176581Y226360D01*
X178360Y224581D01*
X179322Y222258D01*
X179322Y219742D01*
X178360Y217419D01*
X177479Y216539D01*
X177312Y216286D01*
X177256Y215988D01*
X177321Y215692D01*
X177479Y215461D01*
X178360Y214581D01*
X179322Y212258D01*
X179322Y209742D01*
X178360Y207419D01*
X176581Y205640D01*
X174258Y204678D01*
X171742Y204678D01*
G37*
G36*
X252742Y204678D02*
X250419Y205640D01*
X248640Y207419D01*
X247678Y209742D01*
X247678Y212258D01*
X248640Y214581D01*
X250419Y216360D01*
X252742Y217322D01*
X255258Y217322D01*
X257581Y216360D01*
X259360Y214581D01*
X260322Y212258D01*
X260322Y209742D01*
X259360Y207419D01*
X257581Y205640D01*
X255258Y204678D01*
X252742Y204678D01*
G37*
G36*
X16742Y198678D02*
X14419Y199640D01*
X12640Y201419D01*
X11678Y203742D01*
X11678Y206258D01*
X12640Y208581D01*
X14419Y210360D01*
X16742Y211322D01*
X19258Y211322D01*
X21581Y210360D01*
X23360Y208581D01*
X24322Y206258D01*
X24322Y203742D01*
X23360Y201419D01*
X21581Y199640D01*
X19258Y198678D01*
X16742Y198678D01*
G37*
G36*
X201742Y97678D02*
X199419Y98640D01*
X197640Y100419D01*
X196678Y102742D01*
X196678Y105258D01*
X197640Y107581D01*
X199419Y109360D01*
X201742Y110322D01*
X204258Y110322D01*
X206581Y109360D01*
X208360Y107581D01*
X208796Y106527D01*
X208966Y106276D01*
X209220Y106110D01*
X209518Y106057D01*
X209814Y106125D01*
X210060Y106302D01*
X210204Y106527D01*
X210640Y107581D01*
X212419Y109360D01*
X214742Y110322D01*
X217258Y110322D01*
X219581Y109360D01*
X221360Y107581D01*
X222322Y105258D01*
X222322Y102742D01*
X221360Y100419D01*
X219581Y98640D01*
X217258Y97678D01*
X214742Y97678D01*
X212419Y98640D01*
X210640Y100419D01*
X210204Y101473D01*
X210035Y101724D01*
X209780Y101890D01*
X209482Y101943D01*
X209186Y101875D01*
X208940Y101698D01*
X208796Y101473D01*
X208360Y100419D01*
X206581Y98640D01*
X204258Y97678D01*
X201742Y97678D01*
G37*
G36*
X201742Y74678D02*
X199419Y75640D01*
X197640Y77419D01*
X196678Y79742D01*
X196678Y82258D01*
X197640Y84581D01*
X199419Y86360D01*
X201742Y87322D01*
X204258Y87322D01*
X206581Y86360D01*
X208360Y84581D01*
X208796Y83527D01*
X208966Y83276D01*
X209220Y83110D01*
X209518Y83057D01*
X209814Y83125D01*
X210060Y83302D01*
X210204Y83527D01*
X210640Y84581D01*
X212419Y86360D01*
X214742Y87322D01*
X217258Y87322D01*
X219581Y86360D01*
X221360Y84581D01*
X222322Y82258D01*
X222322Y79742D01*
X221360Y77419D01*
X219581Y75640D01*
X217258Y74678D01*
X214742Y74678D01*
X212419Y75640D01*
X210640Y77419D01*
X210204Y78473D01*
X210035Y78724D01*
X209780Y78890D01*
X209482Y78943D01*
X209186Y78875D01*
X208940Y78698D01*
X208796Y78473D01*
X208360Y77419D01*
X206581Y75640D01*
X204258Y74678D01*
X201742Y74678D01*
G37*
%LPD*%
G36*
X367652Y3362D02*
X367902Y3534D01*
X368065Y3789D01*
X368116Y4088D01*
X368046Y4383D01*
X367893Y4603D01*
X365694Y6802D01*
X365694Y11198D01*
X368802Y14306D01*
X373198Y14306D01*
X375461Y12043D01*
X375714Y11875D01*
X376012Y11820D01*
X376308Y11885D01*
X376539Y12043D01*
X378802Y14306D01*
X383198Y14306D01*
X385461Y12043D01*
X385714Y11875D01*
X386012Y11820D01*
X386308Y11885D01*
X386539Y12043D01*
X387957Y13461D01*
X388125Y13714D01*
X388180Y14012D01*
X388115Y14308D01*
X387957Y14539D01*
X385694Y16802D01*
X385694Y21198D01*
X387957Y23461D01*
X388125Y23714D01*
X388180Y24012D01*
X388115Y24308D01*
X387957Y24539D01*
X385694Y26802D01*
X385694Y31198D01*
X388802Y34306D01*
X393198Y34306D01*
X395397Y32107D01*
X395650Y31939D01*
X395948Y31884D01*
X396244Y31949D01*
X396492Y32124D01*
X396651Y32382D01*
X396698Y32645D01*
X396698Y214355D01*
X396638Y214652D01*
X396466Y214902D01*
X396211Y215065D01*
X395912Y215116D01*
X395617Y215046D01*
X395397Y214893D01*
X393198Y212694D01*
X388802Y212694D01*
X385694Y215802D01*
X385694Y220198D01*
X387957Y222461D01*
X388125Y222714D01*
X388180Y223012D01*
X388115Y223308D01*
X387957Y223539D01*
X385694Y225802D01*
X385694Y230198D01*
X387957Y232461D01*
X388125Y232714D01*
X388180Y233012D01*
X388115Y233308D01*
X387957Y233539D01*
X385694Y235802D01*
X385694Y240198D01*
X387957Y242461D01*
X388125Y242714D01*
X388180Y243012D01*
X388115Y243308D01*
X387957Y243539D01*
X385694Y245802D01*
X385694Y250198D01*
X387957Y252461D01*
X388125Y252714D01*
X388180Y253012D01*
X388115Y253308D01*
X387957Y253539D01*
X385694Y255802D01*
X385694Y260198D01*
X387957Y262461D01*
X388125Y262714D01*
X388180Y263012D01*
X388115Y263308D01*
X387957Y263539D01*
X385694Y265802D01*
X385694Y270198D01*
X387957Y272461D01*
X388125Y272714D01*
X388180Y273012D01*
X388115Y273308D01*
X387957Y273539D01*
X385694Y275802D01*
X385694Y280198D01*
X387957Y282461D01*
X388125Y282714D01*
X388180Y283012D01*
X388115Y283308D01*
X387957Y283539D01*
X385694Y285802D01*
X385694Y290198D01*
X388802Y293306D01*
X393198Y293306D01*
X395397Y291107D01*
X395650Y290939D01*
X395948Y290884D01*
X396244Y290949D01*
X396492Y291124D01*
X396651Y291382D01*
X396698Y291645D01*
X396698Y587355D01*
X396638Y587652D01*
X396466Y587902D01*
X396211Y588065D01*
X395912Y588116D01*
X395617Y588046D01*
X395397Y587893D01*
X393198Y585694D01*
X388802Y585694D01*
X385694Y588802D01*
X385694Y593198D01*
X387893Y595397D01*
X388061Y595650D01*
X388116Y595948D01*
X388051Y596244D01*
X387876Y596492D01*
X387618Y596651D01*
X387355Y596698D01*
X312762Y596698D01*
X312465Y596638D01*
X312215Y596466D01*
X312051Y596211D01*
X312000Y595936D01*
X312000Y538819D01*
X312060Y538522D01*
X312223Y538281D01*
X313306Y537198D01*
X313306Y532802D01*
X312223Y531719D01*
X312056Y531467D01*
X312000Y531181D01*
X312000Y409366D01*
X312060Y409069D01*
X312232Y408819D01*
X312487Y408655D01*
X312762Y408604D01*
X379314Y408604D01*
X381741Y407599D01*
X383599Y405741D01*
X384604Y403314D01*
X384604Y400686D01*
X383599Y398259D01*
X381741Y396401D01*
X379314Y395396D01*
X312762Y395396D01*
X312465Y395336D01*
X312215Y395164D01*
X312051Y394909D01*
X312000Y394634D01*
X312000Y335068D01*
X312060Y334771D01*
X312232Y334521D01*
X312487Y334357D01*
X312762Y334306D01*
X314602Y334306D01*
X316409Y332499D01*
X316662Y332331D01*
X316960Y332276D01*
X317256Y332341D01*
X317487Y332499D01*
X319294Y334306D01*
X323690Y334306D01*
X325497Y332499D01*
X325750Y332331D01*
X326048Y332276D01*
X326344Y332341D01*
X326575Y332499D01*
X328382Y334306D01*
X332778Y334306D01*
X334585Y332499D01*
X334838Y332331D01*
X335136Y332276D01*
X335432Y332341D01*
X335663Y332499D01*
X337470Y334306D01*
X341866Y334306D01*
X343673Y332499D01*
X343926Y332331D01*
X344224Y332276D01*
X344520Y332341D01*
X344751Y332499D01*
X346558Y334306D01*
X350954Y334306D01*
X352761Y332499D01*
X353014Y332331D01*
X353312Y332276D01*
X353608Y332341D01*
X353839Y332499D01*
X355646Y334306D01*
X360042Y334306D01*
X361849Y332499D01*
X362102Y332331D01*
X362400Y332276D01*
X362696Y332341D01*
X362927Y332499D01*
X364734Y334306D01*
X369130Y334306D01*
X372238Y331198D01*
X372238Y326802D01*
X369130Y323694D01*
X364734Y323694D01*
X362927Y325501D01*
X362674Y325669D01*
X362376Y325724D01*
X362080Y325659D01*
X361849Y325501D01*
X360042Y323694D01*
X355646Y323694D01*
X353839Y325501D01*
X353586Y325669D01*
X353288Y325724D01*
X352992Y325659D01*
X352761Y325501D01*
X350954Y323694D01*
X346558Y323694D01*
X344751Y325501D01*
X344498Y325669D01*
X344200Y325724D01*
X343904Y325659D01*
X343673Y325501D01*
X341866Y323694D01*
X337470Y323694D01*
X335663Y325501D01*
X335410Y325669D01*
X335112Y325724D01*
X334816Y325659D01*
X334585Y325501D01*
X332778Y323694D01*
X328382Y323694D01*
X326575Y325501D01*
X326322Y325669D01*
X326024Y325724D01*
X325728Y325659D01*
X325497Y325501D01*
X323690Y323694D01*
X319294Y323694D01*
X317487Y325501D01*
X317234Y325669D01*
X316936Y325724D01*
X316640Y325659D01*
X316409Y325501D01*
X314602Y323694D01*
X312762Y323694D01*
X312465Y323634D01*
X312215Y323462D01*
X312051Y323207D01*
X312000Y322932D01*
X312000Y212068D01*
X312060Y211771D01*
X312232Y211521D01*
X312487Y211357D01*
X312762Y211306D01*
X316198Y211306D01*
X319306Y208198D01*
X319306Y203802D01*
X316198Y200694D01*
X312762Y200694D01*
X312465Y200634D01*
X312215Y200462D01*
X312051Y200207D01*
X312000Y199932D01*
X312000Y70062D01*
X311991Y70007D01*
X311988Y70006D01*
X311948Y70000D01*
X150062Y70000D01*
X150007Y70009D01*
X150006Y70012D01*
X150000Y70052D01*
X150000Y176238D01*
X149940Y176535D01*
X149768Y176785D01*
X149513Y176949D01*
X149238Y177000D01*
X4064Y177000D01*
X3767Y176940D01*
X3517Y176768D01*
X3353Y176513D01*
X3302Y176238D01*
X3302Y4064D01*
X3362Y3767D01*
X3534Y3517D01*
X3789Y3353D01*
X4064Y3302D01*
X367355Y3302D01*
X367652Y3362D01*
G37*
%LPC*%
G36*
X317802Y571694D02*
X314694Y574802D01*
X314694Y579198D01*
X317802Y582306D01*
X322198Y582306D01*
X324461Y580043D01*
X324714Y579875D01*
X325012Y579820D01*
X325308Y579885D01*
X325539Y580043D01*
X327802Y582306D01*
X332198Y582306D01*
X334461Y580043D01*
X334714Y579875D01*
X335012Y579820D01*
X335308Y579885D01*
X335539Y580043D01*
X337802Y582306D01*
X342198Y582306D01*
X344427Y580077D01*
X344680Y579909D01*
X344978Y579854D01*
X345274Y579919D01*
X345505Y580077D01*
X347734Y582306D01*
X352130Y582306D01*
X355238Y579198D01*
X355238Y574802D01*
X352130Y571694D01*
X347734Y571694D01*
X345505Y573923D01*
X345252Y574091D01*
X344954Y574146D01*
X344658Y574081D01*
X344427Y573923D01*
X342198Y571694D01*
X337802Y571694D01*
X335539Y573957D01*
X335286Y574125D01*
X334988Y574180D01*
X334692Y574115D01*
X334461Y573957D01*
X332198Y571694D01*
X327802Y571694D01*
X325539Y573957D01*
X325286Y574125D01*
X324988Y574180D01*
X324692Y574115D01*
X324461Y573957D01*
X322198Y571694D01*
X317802Y571694D01*
G37*
G36*
X352626Y527694D02*
X349518Y530802D01*
X349518Y535198D01*
X352626Y538306D01*
X357022Y538306D01*
X358829Y536499D01*
X359082Y536331D01*
X359380Y536276D01*
X359676Y536341D01*
X359907Y536499D01*
X361714Y538306D01*
X366110Y538306D01*
X367917Y536499D01*
X368170Y536331D01*
X368468Y536276D01*
X368764Y536341D01*
X368995Y536499D01*
X370802Y538306D01*
X375198Y538306D01*
X378306Y535198D01*
X378306Y530802D01*
X375198Y527694D01*
X370802Y527694D01*
X368995Y529501D01*
X368742Y529669D01*
X368444Y529724D01*
X368148Y529659D01*
X367917Y529501D01*
X366110Y527694D01*
X361714Y527694D01*
X359907Y529501D01*
X359654Y529669D01*
X359356Y529724D01*
X359060Y529659D01*
X358829Y529501D01*
X357022Y527694D01*
X352626Y527694D01*
G37*
G36*
X330802Y527694D02*
X327694Y530802D01*
X327694Y535198D01*
X330802Y538306D01*
X335198Y538306D01*
X338306Y535198D01*
X338306Y530802D01*
X335198Y527694D01*
X330802Y527694D01*
G37*
G36*
X336802Y481694D02*
X333694Y484802D01*
X333694Y489198D01*
X336802Y492306D01*
X341198Y492306D01*
X344306Y489198D01*
X344306Y484802D01*
X341198Y481694D01*
X336802Y481694D01*
G37*
G36*
X379870Y469694D02*
X376762Y472802D01*
X376762Y477198D01*
X378991Y479427D01*
X379159Y479680D01*
X379214Y479978D01*
X379149Y480274D01*
X378991Y480505D01*
X376694Y482802D01*
X376694Y487198D01*
X379802Y490306D01*
X384198Y490306D01*
X387306Y487198D01*
X387306Y482802D01*
X385077Y480573D01*
X384909Y480320D01*
X384854Y480022D01*
X384919Y479726D01*
X385077Y479495D01*
X387374Y477198D01*
X387374Y472802D01*
X384266Y469694D01*
X379870Y469694D01*
G37*
G36*
X346686Y468694D02*
X343578Y471802D01*
X343578Y476198D01*
X346686Y479306D01*
X351082Y479306D01*
X354190Y476198D01*
X354190Y471802D01*
X351082Y468694D01*
X346686Y468694D01*
G37*
G36*
X333734Y376694D02*
X330626Y379802D01*
X330626Y384198D01*
X333734Y387306D01*
X338130Y387306D01*
X341238Y384198D01*
X341238Y379802D01*
X338130Y376694D01*
X333734Y376694D01*
G37*
G36*
X317802Y289694D02*
X314694Y292802D01*
X314694Y297198D01*
X317802Y300306D01*
X322198Y300306D01*
X324461Y298043D01*
X324714Y297875D01*
X325012Y297820D01*
X325308Y297885D01*
X325539Y298043D01*
X327802Y300306D01*
X332198Y300306D01*
X335306Y297198D01*
X335306Y292802D01*
X332198Y289694D01*
X327802Y289694D01*
X325539Y291957D01*
X325286Y292125D01*
X324988Y292180D01*
X324692Y292115D01*
X324461Y291957D01*
X322198Y289694D01*
X317802Y289694D01*
G37*
G36*
X340802Y268694D02*
X337694Y271802D01*
X337694Y276198D01*
X340802Y279306D01*
X345198Y279306D01*
X347461Y277043D01*
X347714Y276875D01*
X348012Y276820D01*
X348308Y276885D01*
X348539Y277043D01*
X350802Y279306D01*
X355198Y279306D01*
X358306Y276198D01*
X358306Y271802D01*
X355198Y268694D01*
X350802Y268694D01*
X348539Y270957D01*
X348286Y271125D01*
X347988Y271180D01*
X347692Y271115D01*
X347461Y270957D01*
X345198Y268694D01*
X340802Y268694D01*
G37*
G36*
X353802Y250694D02*
X350694Y253802D01*
X350694Y258198D01*
X353802Y261306D01*
X358198Y261306D01*
X361306Y258198D01*
X361306Y253802D01*
X358198Y250694D01*
X353802Y250694D01*
G37*
G36*
X361802Y87694D02*
X358694Y90802D01*
X358694Y95198D01*
X360957Y97461D01*
X361125Y97714D01*
X361180Y98012D01*
X361115Y98308D01*
X360957Y98539D01*
X358694Y100802D01*
X358694Y105198D01*
X360957Y107461D01*
X361125Y107714D01*
X361180Y108012D01*
X361115Y108308D01*
X360957Y108539D01*
X358694Y110802D01*
X358694Y115198D01*
X360957Y117461D01*
X361125Y117714D01*
X361180Y118012D01*
X361115Y118308D01*
X360957Y118539D01*
X358694Y120802D01*
X358694Y125198D01*
X360957Y127461D01*
X361125Y127714D01*
X361180Y128012D01*
X361115Y128308D01*
X360957Y128539D01*
X358694Y130802D01*
X358694Y135198D01*
X360957Y137461D01*
X361125Y137714D01*
X361180Y138012D01*
X361115Y138308D01*
X360957Y138539D01*
X358694Y140802D01*
X358694Y145198D01*
X361802Y148306D01*
X366198Y148306D01*
X369306Y145198D01*
X369306Y140802D01*
X367043Y138539D01*
X366875Y138286D01*
X366820Y137988D01*
X366885Y137692D01*
X367043Y137461D01*
X369306Y135198D01*
X369306Y130802D01*
X367043Y128539D01*
X366875Y128286D01*
X366820Y127988D01*
X366885Y127692D01*
X367043Y127461D01*
X369306Y125198D01*
X369306Y120802D01*
X367043Y118539D01*
X366875Y118286D01*
X366820Y117988D01*
X366885Y117692D01*
X367043Y117461D01*
X369306Y115198D01*
X369306Y110802D01*
X367043Y108539D01*
X366875Y108286D01*
X366820Y107988D01*
X366885Y107692D01*
X367043Y107461D01*
X369306Y105198D01*
X369306Y100802D01*
X367043Y98539D01*
X366875Y98286D01*
X366820Y97988D01*
X366885Y97692D01*
X367043Y97461D01*
X369306Y95198D01*
X369306Y90802D01*
X366198Y87694D01*
X361802Y87694D01*
G37*
G36*
X54270Y67694D02*
X51162Y70802D01*
X51162Y75198D01*
X54270Y78306D01*
X58666Y78306D01*
X61774Y75198D01*
X61774Y70802D01*
X58666Y67694D01*
X54270Y67694D01*
G37*
G36*
X41802Y67694D02*
X38694Y70802D01*
X38694Y75198D01*
X41802Y78306D01*
X46198Y78306D01*
X49306Y75198D01*
X49306Y70802D01*
X46198Y67694D01*
X41802Y67694D01*
G37*
G36*
X72795Y39986D02*
X70107Y41100D01*
X68050Y43157D01*
X66936Y45845D01*
X66936Y48755D01*
X68050Y51443D01*
X70107Y53501D01*
X72795Y54614D01*
X75705Y54614D01*
X78393Y53501D01*
X80451Y51443D01*
X81564Y48755D01*
X81564Y45845D01*
X80451Y43157D01*
X78393Y41100D01*
X75705Y39986D01*
X72795Y39986D01*
G37*
G36*
X24295Y39986D02*
X21607Y41100D01*
X19550Y43157D01*
X18436Y45845D01*
X18436Y48755D01*
X19550Y51443D01*
X21607Y53501D01*
X24295Y54614D01*
X27205Y54614D01*
X29893Y53501D01*
X31951Y51443D01*
X33064Y48755D01*
X33064Y45845D01*
X31951Y43157D01*
X29893Y41100D01*
X27205Y39986D01*
X24295Y39986D01*
G37*
G36*
X75745Y9436D02*
X72965Y10588D01*
X70838Y12715D01*
X69686Y15495D01*
X69686Y18505D01*
X70838Y21285D01*
X72965Y23412D01*
X75745Y24564D01*
X78755Y24564D01*
X81535Y23412D01*
X83662Y21285D01*
X84814Y18505D01*
X84814Y15495D01*
X83662Y12715D01*
X81535Y10588D01*
X78755Y9436D01*
X75745Y9436D01*
G37*
G36*
X21245Y9436D02*
X18465Y10588D01*
X16338Y12715D01*
X15186Y15495D01*
X15186Y18505D01*
X16338Y21285D01*
X18465Y23412D01*
X21245Y24564D01*
X24255Y24564D01*
X27035Y23412D01*
X29162Y21285D01*
X30314Y18505D01*
X30314Y15495D01*
X29162Y12715D01*
X27035Y10588D01*
X24255Y9436D01*
X21245Y9436D01*
G37*
%LPD*%
D10*
X25750Y47300D03*
X74250Y47300D03*
D11*
X22750Y17000D03*
X77250Y17000D03*
D12*
X216000Y104000D03*
X203000Y104000D03*
X203000Y81000D03*
X216000Y81000D03*
X64000Y220000D03*
X55000Y229000D03*
X64000Y242000D03*
X73000Y233000D03*
X223000Y511000D03*
X223000Y501000D03*
X213000Y511000D03*
X213000Y501000D03*
X224000Y550000D03*
X234000Y550000D03*
X244000Y550000D03*
X214000Y550000D03*
X330000Y295000D03*
X320000Y295000D03*
X343000Y274000D03*
X353000Y274000D03*
X9000Y591000D03*
X391000Y591000D03*
X391000Y9000D03*
X391000Y19000D03*
X391000Y29000D03*
X381000Y9000D03*
X371000Y9000D03*
X391000Y288000D03*
X391000Y278000D03*
X391000Y268000D03*
X391000Y258000D03*
X391000Y248000D03*
X391000Y238000D03*
X391000Y228000D03*
X391000Y218000D03*
X53000Y487000D03*
X53000Y469000D03*
X53000Y450000D03*
X120000Y487000D03*
X120000Y468000D03*
X120000Y450000D03*
X282000Y460000D03*
X292000Y460000D03*
X302000Y460000D03*
X282000Y450000D03*
X292000Y450000D03*
X302000Y450000D03*
X302000Y132000D03*
X294000Y80000D03*
X161000Y136000D03*
X161000Y126000D03*
X171000Y136000D03*
X171000Y126000D03*
X105000Y231000D03*
X164000Y291000D03*
X163000Y476000D03*
X59000Y505000D03*
X72000Y517000D03*
X164000Y420000D03*
X203000Y195000D03*
X36000Y431000D03*
X136000Y360068D03*
X29068Y347000D03*
X36000Y205000D03*
X63000Y328000D03*
X364000Y143000D03*
X364000Y123000D03*
X113000Y581000D03*
X304000Y206000D03*
X173000Y211000D03*
X382068Y475000D03*
X254000Y211000D03*
X254000Y228000D03*
X364000Y103000D03*
X364000Y93000D03*
X364000Y133000D03*
X96000Y333000D03*
X302000Y96000D03*
X92068Y324000D03*
X31000Y83000D03*
X21000Y83000D03*
X31000Y73000D03*
X21000Y73000D03*
X104000Y171000D03*
X133000Y136000D03*
X143000Y136000D03*
X143000Y126000D03*
X133000Y126000D03*
X317000Y236000D03*
X153000Y245000D03*
X256000Y502694D03*
X319000Y467000D03*
X388000Y512000D03*
X388000Y502000D03*
D13*
X153000Y245000D02*
X145000Y237000D01*
X145000Y170000D01*
X281000Y306000D02*
X320000Y306000D01*
D12*
X319746Y420948D03*
X280709Y306291D03*
D13*
X281000Y306000D01*
D12*
X388068Y555000D03*
X388068Y545000D03*
D13*
X319694Y502694D02*
X256000Y502694D01*
X319694Y502694D02*
X320000Y503000D01*
D12*
X378000Y402000D03*
X269000Y482000D03*
X302000Y285000D03*
X248000Y321000D03*
D13*
X269000Y402000D02*
X269000Y482000D01*
X269000Y402000D02*
X378000Y402000D01*
X302000Y285000D02*
X273000Y285000D01*
X248000Y310000D01*
X268386Y401386D02*
X269000Y402000D01*
X268386Y401386D02*
X268386Y378698D01*
D12*
X248000Y329932D03*
D13*
X248000Y358312D01*
X268386Y378698D01*
X248000Y329932D02*
X248000Y321000D01*
X248000Y310000D01*
D12*
X218000Y403000D03*
X296000Y357068D03*
X364000Y113000D03*
X31000Y581000D03*
X382000Y485000D03*
X294000Y206000D03*
X173000Y221000D03*
X314000Y206000D03*
X100000Y344000D03*
X142000Y490000D03*
X132000Y490000D03*
X147000Y533000D03*
X137912Y533000D03*
X128824Y533000D03*
X119736Y533000D03*
X110648Y533000D03*
X101560Y533000D03*
X92472Y533000D03*
X83384Y533000D03*
X152000Y452000D03*
X157000Y331932D03*
X142912Y452000D03*
X147000Y331932D03*
X57000Y282000D03*
X49000Y581000D03*
X57000Y272000D03*
X62000Y581000D03*
X176000Y581000D03*
X16932Y272000D03*
X18000Y205000D03*
X166000Y245000D03*
X164000Y430000D03*
X373000Y533000D03*
X113000Y344068D03*
X320000Y577000D03*
X303316Y329000D03*
X330000Y577000D03*
X312404Y329000D03*
X333000Y533000D03*
X321492Y329000D03*
X340000Y577000D03*
X330580Y329000D03*
X339000Y487000D03*
X339668Y329000D03*
X348756Y329000D03*
X349932Y577000D03*
X49000Y290000D03*
X49000Y256000D03*
X44000Y73000D03*
X56468Y73000D03*
X278000Y535000D03*
X308000Y535000D03*
X258000Y463000D03*
X258000Y383000D03*
X335932Y382000D03*
X348884Y474000D03*
X281000Y256500D03*
X356000Y256000D03*
X357844Y329000D03*
X354824Y533000D03*
X366932Y329000D03*
X363912Y533000D03*
M02*
