G04 EAGLE Gerber RS-274X export*
G75*
%MOMM*%
%FSLAX34Y34*%
%LPD*%
%INBottom Copper*%
%IPPOS*%
%AMOC8*
5,1,8,0,0,1.08239X$1,22.5*%
G01*
G04 Define Apertures*
%ADD10R,1.000000X1.100000*%
%ADD11R,1.100000X1.000000*%
%ADD12R,1.000000X0.450000*%
%ADD13C,0.070000*%
%ADD14C,0.740000*%
%ADD15R,0.348000X1.397000*%
%ADD16C,1.158000*%
%ADD17C,1.208000*%
%ADD18C,1.050000*%
%ADD19R,1.000000X1.200000*%
%ADD20R,1.422400X0.304800*%
%ADD21C,0.756400*%
%ADD22C,0.304800*%
%ADD23C,0.152400*%
%ADD24C,0.254000*%
%ADD25C,0.406400*%
G36*
X16732Y3362D02*
X16982Y3534D01*
X17145Y3789D01*
X17196Y4088D01*
X17126Y4383D01*
X16973Y4603D01*
X15476Y6100D01*
X14170Y9253D01*
X14170Y16238D01*
X31330Y16238D01*
X31330Y9253D01*
X30024Y6100D01*
X28527Y4603D01*
X28359Y4350D01*
X28304Y4052D01*
X28369Y3756D01*
X28544Y3508D01*
X28802Y3349D01*
X29066Y3302D01*
X70934Y3302D01*
X71232Y3362D01*
X71482Y3534D01*
X71645Y3789D01*
X71696Y4088D01*
X71626Y4383D01*
X71473Y4603D01*
X69976Y6100D01*
X68670Y9253D01*
X68670Y16238D01*
X85830Y16238D01*
X85830Y9253D01*
X84524Y6100D01*
X83027Y4603D01*
X82859Y4350D01*
X82804Y4052D01*
X82869Y3756D01*
X83044Y3508D01*
X83302Y3349D01*
X83566Y3302D01*
X395936Y3302D01*
X396233Y3362D01*
X396483Y3534D01*
X396647Y3789D01*
X396698Y4064D01*
X396698Y595936D01*
X396638Y596233D01*
X396466Y596483D01*
X396211Y596647D01*
X395936Y596698D01*
X4064Y596698D01*
X3767Y596638D01*
X3517Y596466D01*
X3353Y596211D01*
X3302Y595936D01*
X3302Y4064D01*
X3362Y3767D01*
X3534Y3517D01*
X3789Y3353D01*
X4064Y3302D01*
X16434Y3302D01*
X16732Y3362D01*
G37*
%LPC*%
G36*
X291802Y74694D02*
X288694Y77802D01*
X288694Y82198D01*
X291909Y85413D01*
X292077Y85666D01*
X292132Y85964D01*
X292067Y86260D01*
X291892Y86508D01*
X291634Y86667D01*
X291371Y86714D01*
X130053Y86714D01*
X83714Y133053D01*
X83714Y329947D01*
X89053Y335286D01*
X90467Y335286D01*
X90764Y335346D01*
X91005Y335509D01*
X93802Y338306D01*
X96351Y338306D01*
X96648Y338366D01*
X96898Y338538D01*
X97061Y338793D01*
X97112Y339092D01*
X97042Y339387D01*
X96889Y339607D01*
X94694Y341802D01*
X94694Y346198D01*
X95639Y347143D01*
X95807Y347396D01*
X95862Y347694D01*
X95797Y347990D01*
X95622Y348238D01*
X95364Y348397D01*
X95101Y348444D01*
X41527Y348444D01*
X32444Y357527D01*
X32444Y362714D01*
X32384Y363011D01*
X32212Y363261D01*
X31957Y363425D01*
X31682Y363476D01*
X30369Y363476D01*
X29476Y364369D01*
X29476Y376631D01*
X30369Y377524D01*
X40903Y377524D01*
X41201Y377584D01*
X41451Y377756D01*
X41614Y378011D01*
X41665Y378310D01*
X41595Y378605D01*
X41442Y378825D01*
X40014Y380253D01*
X39761Y380420D01*
X39475Y380476D01*
X30369Y380476D01*
X29476Y381369D01*
X29476Y393631D01*
X30369Y394524D01*
X32952Y394524D01*
X33249Y394584D01*
X33499Y394756D01*
X33663Y395011D01*
X33714Y395286D01*
X33714Y406947D01*
X44053Y417286D01*
X66737Y417286D01*
X67035Y417346D01*
X67276Y417509D01*
X71397Y421630D01*
X71565Y421883D01*
X71620Y422181D01*
X71555Y422477D01*
X71380Y422725D01*
X71122Y422884D01*
X70858Y422931D01*
X66379Y422931D01*
X65486Y423824D01*
X65486Y427630D01*
X65426Y427927D01*
X65254Y428177D01*
X64999Y428341D01*
X64724Y428392D01*
X41211Y428392D01*
X40914Y428332D01*
X40673Y428169D01*
X38198Y425694D01*
X35320Y425694D01*
X35023Y425634D01*
X34781Y425471D01*
X19271Y409961D01*
X19104Y409708D01*
X19048Y409422D01*
X19048Y395286D01*
X19108Y394989D01*
X19280Y394739D01*
X19535Y394575D01*
X19810Y394524D01*
X21631Y394524D01*
X22524Y393631D01*
X22524Y381369D01*
X21631Y380476D01*
X10369Y380476D01*
X9476Y381369D01*
X9476Y393631D01*
X10369Y394524D01*
X12190Y394524D01*
X12487Y394584D01*
X12737Y394756D01*
X12901Y395011D01*
X12952Y395286D01*
X12952Y412263D01*
X30471Y429781D01*
X30638Y430034D01*
X30694Y430320D01*
X30694Y433198D01*
X33802Y436306D01*
X38198Y436306D01*
X39793Y434711D01*
X40045Y434544D01*
X40331Y434488D01*
X64724Y434488D01*
X65021Y434548D01*
X65271Y434720D01*
X65435Y434975D01*
X65486Y435250D01*
X65486Y439056D01*
X66379Y439949D01*
X71121Y439949D01*
X71461Y439609D01*
X71714Y439442D01*
X72012Y439386D01*
X72308Y439451D01*
X72539Y439609D01*
X72879Y439949D01*
X77621Y439949D01*
X77961Y439609D01*
X78214Y439442D01*
X78512Y439386D01*
X78808Y439451D01*
X79039Y439609D01*
X79379Y439949D01*
X84121Y439949D01*
X84461Y439609D01*
X84714Y439442D01*
X85012Y439386D01*
X85308Y439451D01*
X85539Y439609D01*
X85879Y439949D01*
X90621Y439949D01*
X90961Y439609D01*
X91214Y439442D01*
X91512Y439386D01*
X91808Y439451D01*
X92039Y439609D01*
X92379Y439949D01*
X97121Y439949D01*
X97461Y439609D01*
X97714Y439442D01*
X98012Y439386D01*
X98308Y439451D01*
X98539Y439609D01*
X98879Y439949D01*
X103621Y439949D01*
X103961Y439609D01*
X104214Y439442D01*
X104512Y439386D01*
X104808Y439451D01*
X105039Y439609D01*
X105379Y439949D01*
X110121Y439949D01*
X110461Y439609D01*
X110714Y439442D01*
X111012Y439386D01*
X111308Y439451D01*
X111539Y439609D01*
X111879Y439949D01*
X116626Y439949D01*
X116924Y440009D01*
X117165Y440172D01*
X117958Y440965D01*
X119988Y440965D01*
X119988Y421881D01*
X119860Y421855D01*
X119610Y421683D01*
X119447Y421428D01*
X119396Y421129D01*
X119466Y420834D01*
X119619Y420614D01*
X124724Y415509D01*
X124977Y415342D01*
X125263Y415286D01*
X159371Y415286D01*
X159668Y415346D01*
X159918Y415518D01*
X160081Y415773D01*
X160132Y416072D01*
X160062Y416367D01*
X159909Y416587D01*
X159767Y416729D01*
X159515Y416896D01*
X159229Y416952D01*
X135737Y416952D01*
X130947Y421742D01*
X130694Y421910D01*
X130396Y421965D01*
X130166Y421915D01*
X128012Y421915D01*
X128012Y440965D01*
X130042Y440965D01*
X130835Y440172D01*
X131088Y440005D01*
X131374Y439949D01*
X136121Y439949D01*
X136461Y439609D01*
X136714Y439442D01*
X137012Y439386D01*
X137308Y439451D01*
X137539Y439609D01*
X137741Y439811D01*
X137908Y440064D01*
X137964Y440350D01*
X137964Y449129D01*
X137904Y449426D01*
X137741Y449667D01*
X137606Y449802D01*
X137606Y454198D01*
X140714Y457306D01*
X145110Y457306D01*
X146917Y455499D01*
X147170Y455331D01*
X147468Y455276D01*
X147764Y455341D01*
X147995Y455499D01*
X149802Y457306D01*
X154198Y457306D01*
X157306Y454198D01*
X157306Y451379D01*
X157366Y451081D01*
X157538Y450831D01*
X157793Y450668D01*
X158092Y450617D01*
X158387Y450687D01*
X158607Y450840D01*
X169753Y461986D01*
X169920Y462239D01*
X169976Y462525D01*
X169976Y466131D01*
X170869Y467024D01*
X182116Y467024D01*
X182414Y467084D01*
X182655Y467247D01*
X183588Y468180D01*
X183755Y468432D01*
X183811Y468731D01*
X183746Y469027D01*
X183588Y469257D01*
X183539Y469306D01*
X183286Y469473D01*
X182988Y469529D01*
X182692Y469464D01*
X182461Y469306D01*
X182131Y468976D01*
X170869Y468976D01*
X169976Y469869D01*
X169976Y472690D01*
X169916Y472987D01*
X169744Y473237D01*
X169489Y473401D01*
X169214Y473452D01*
X168271Y473452D01*
X167974Y473392D01*
X167733Y473229D01*
X165198Y470694D01*
X160802Y470694D01*
X157694Y473802D01*
X157694Y478198D01*
X160802Y481306D01*
X165198Y481306D01*
X166733Y479771D01*
X166985Y479604D01*
X167271Y479548D01*
X169214Y479548D01*
X169511Y479608D01*
X169761Y479780D01*
X169925Y480035D01*
X169976Y480310D01*
X169976Y483131D01*
X170869Y484024D01*
X172690Y484024D01*
X172987Y484084D01*
X173237Y484256D01*
X173401Y484511D01*
X173452Y484786D01*
X173452Y496714D01*
X173392Y497011D01*
X173220Y497261D01*
X172965Y497425D01*
X172690Y497476D01*
X168369Y497476D01*
X167476Y498369D01*
X167476Y509631D01*
X168369Y510524D01*
X180631Y510524D01*
X181524Y509631D01*
X181524Y498369D01*
X180631Y497476D01*
X180310Y497476D01*
X180013Y497416D01*
X179763Y497244D01*
X179599Y496989D01*
X179548Y496714D01*
X179548Y493048D01*
X179608Y492751D01*
X179780Y492501D01*
X180035Y492337D01*
X180310Y492286D01*
X185947Y492286D01*
X191786Y486447D01*
X191786Y484786D01*
X191846Y484489D01*
X192018Y484239D01*
X192273Y484075D01*
X192548Y484024D01*
X195131Y484024D01*
X196024Y483131D01*
X196024Y469869D01*
X195413Y469257D01*
X195245Y469004D01*
X195189Y468706D01*
X195255Y468410D01*
X195413Y468180D01*
X197040Y466552D01*
X197040Y460262D01*
X188738Y460262D01*
X188738Y450960D01*
X183448Y450960D01*
X182655Y451753D01*
X182402Y451920D01*
X182116Y451976D01*
X170869Y451976D01*
X169976Y452869D01*
X169976Y453903D01*
X169916Y454201D01*
X169744Y454451D01*
X169489Y454614D01*
X169190Y454665D01*
X168895Y454595D01*
X168675Y454442D01*
X155759Y441526D01*
X155592Y441273D01*
X155536Y440987D01*
X155536Y440350D01*
X155596Y440053D01*
X155759Y439811D01*
X156514Y439056D01*
X156514Y423810D01*
X156574Y423513D01*
X156746Y423263D01*
X157001Y423099D01*
X157276Y423048D01*
X159229Y423048D01*
X159526Y423108D01*
X159767Y423271D01*
X160957Y424461D01*
X161125Y424714D01*
X161180Y425012D01*
X161115Y425308D01*
X160957Y425539D01*
X158694Y427802D01*
X158694Y432198D01*
X161802Y435306D01*
X166198Y435306D01*
X168995Y432509D01*
X169247Y432342D01*
X169533Y432286D01*
X191737Y432286D01*
X192035Y432346D01*
X192276Y432509D01*
X203491Y443724D01*
X203658Y443977D01*
X203714Y444263D01*
X203714Y560947D01*
X230053Y587286D01*
X375947Y587286D01*
X384286Y578947D01*
X384286Y560561D01*
X384346Y560264D01*
X384518Y560014D01*
X384773Y559851D01*
X385072Y559800D01*
X385367Y559870D01*
X385587Y560023D01*
X385870Y560306D01*
X390266Y560306D01*
X393374Y557198D01*
X393374Y552802D01*
X391111Y550539D01*
X390943Y550286D01*
X390888Y549988D01*
X390953Y549692D01*
X391111Y549461D01*
X393374Y547198D01*
X393374Y542802D01*
X390266Y539694D01*
X385870Y539694D01*
X384937Y540627D01*
X384685Y540794D01*
X384386Y540850D01*
X384090Y540785D01*
X383860Y540627D01*
X378529Y535296D01*
X378362Y535043D01*
X378306Y534757D01*
X378306Y530802D01*
X375091Y527587D01*
X374923Y527334D01*
X374868Y527036D01*
X374933Y526740D01*
X375108Y526492D01*
X375366Y526333D01*
X375629Y526286D01*
X384947Y526286D01*
X390286Y520947D01*
X390286Y517533D01*
X390346Y517236D01*
X390509Y516995D01*
X393306Y514198D01*
X393306Y509802D01*
X391043Y507539D01*
X390875Y507286D01*
X390820Y506988D01*
X390885Y506692D01*
X391043Y506461D01*
X393306Y504198D01*
X393306Y499802D01*
X390198Y496694D01*
X385802Y496694D01*
X382694Y499802D01*
X382694Y504198D01*
X384957Y506461D01*
X385125Y506714D01*
X385180Y507012D01*
X385115Y507308D01*
X384957Y507539D01*
X382694Y509802D01*
X382694Y514198D01*
X385491Y516995D01*
X385658Y517247D01*
X385714Y517533D01*
X385714Y518737D01*
X385654Y519035D01*
X385491Y519276D01*
X383276Y521491D01*
X383023Y521658D01*
X382737Y521714D01*
X375281Y521714D01*
X374984Y521654D01*
X374734Y521482D01*
X374570Y521227D01*
X374519Y520928D01*
X374589Y520633D01*
X374742Y520413D01*
X375024Y520131D01*
X375024Y517048D01*
X375084Y516751D01*
X375256Y516501D01*
X375511Y516337D01*
X375786Y516286D01*
X375947Y516286D01*
X379286Y512947D01*
X379286Y491068D01*
X379346Y490771D01*
X379518Y490521D01*
X379773Y490357D01*
X380048Y490306D01*
X384198Y490306D01*
X387306Y487198D01*
X387306Y482802D01*
X385077Y480573D01*
X384909Y480320D01*
X384854Y480022D01*
X384919Y479726D01*
X385077Y479495D01*
X387374Y477198D01*
X387374Y472802D01*
X384266Y469694D01*
X379870Y469694D01*
X376762Y472802D01*
X376762Y476689D01*
X376702Y476987D01*
X376539Y477228D01*
X376356Y477411D01*
X376103Y477578D01*
X375817Y477634D01*
X374242Y477634D01*
X373945Y477574D01*
X373695Y477402D01*
X373531Y477147D01*
X373480Y476872D01*
X373480Y472939D01*
X372587Y472046D01*
X367892Y472046D01*
X367595Y471986D01*
X367345Y471814D01*
X367181Y471559D01*
X367130Y471284D01*
X367130Y370897D01*
X337820Y341587D01*
X337652Y341334D01*
X337597Y341036D01*
X337662Y340740D01*
X337837Y340492D01*
X338095Y340333D01*
X338359Y340286D01*
X368947Y340286D01*
X375286Y333947D01*
X375286Y229053D01*
X349947Y203714D01*
X319533Y203714D01*
X319236Y203654D01*
X318995Y203491D01*
X316198Y200694D01*
X311802Y200694D01*
X309539Y202957D01*
X309286Y203125D01*
X308988Y203180D01*
X308692Y203115D01*
X308461Y202957D01*
X306198Y200694D01*
X301802Y200694D01*
X299539Y202957D01*
X299286Y203125D01*
X298988Y203180D01*
X298692Y203115D01*
X298461Y202957D01*
X296198Y200694D01*
X291802Y200694D01*
X288694Y203802D01*
X288694Y208198D01*
X291802Y211306D01*
X296198Y211306D01*
X298461Y209043D01*
X298714Y208875D01*
X299012Y208820D01*
X299308Y208885D01*
X299539Y209043D01*
X301802Y211306D01*
X306198Y211306D01*
X308461Y209043D01*
X308714Y208875D01*
X309012Y208820D01*
X309308Y208885D01*
X309539Y209043D01*
X311802Y211306D01*
X316198Y211306D01*
X318995Y208509D01*
X319247Y208342D01*
X319533Y208286D01*
X347737Y208286D01*
X348035Y208346D01*
X348276Y208509D01*
X370491Y230724D01*
X370658Y230977D01*
X370714Y231263D01*
X370714Y323439D01*
X370654Y323736D01*
X370482Y323986D01*
X370227Y324149D01*
X369928Y324200D01*
X369633Y324130D01*
X369413Y323977D01*
X369130Y323694D01*
X365175Y323694D01*
X364877Y323634D01*
X364636Y323471D01*
X341879Y300714D01*
X302263Y300714D01*
X301965Y300654D01*
X301724Y300491D01*
X260509Y259276D01*
X260342Y259023D01*
X260286Y258737D01*
X260286Y242053D01*
X252840Y234607D01*
X252672Y234354D01*
X252617Y234056D01*
X252682Y233760D01*
X252857Y233512D01*
X253115Y233353D01*
X253379Y233306D01*
X256198Y233306D01*
X259306Y230198D01*
X259306Y225802D01*
X256198Y222694D01*
X251802Y222694D01*
X248694Y225802D01*
X248694Y228621D01*
X248634Y228919D01*
X248462Y229169D01*
X248207Y229332D01*
X247908Y229383D01*
X247613Y229313D01*
X247393Y229160D01*
X243447Y225214D01*
X242230Y225214D01*
X241933Y225154D01*
X241691Y224991D01*
X241489Y224789D01*
X241322Y224536D01*
X241266Y224238D01*
X241331Y223942D01*
X241489Y223711D01*
X241691Y223509D01*
X241944Y223342D01*
X242230Y223286D01*
X243947Y223286D01*
X246218Y221015D01*
X246218Y177331D01*
X246278Y177033D01*
X246441Y176792D01*
X277724Y145509D01*
X277977Y145342D01*
X278263Y145286D01*
X358467Y145286D01*
X358764Y145346D01*
X359005Y145509D01*
X361802Y148306D01*
X366198Y148306D01*
X369306Y145198D01*
X369306Y140802D01*
X367043Y138539D01*
X366875Y138286D01*
X366820Y137988D01*
X366885Y137692D01*
X367043Y137461D01*
X369306Y135198D01*
X369306Y131243D01*
X369366Y130945D01*
X369529Y130704D01*
X374286Y125947D01*
X374286Y90053D01*
X367947Y83714D01*
X302053Y83714D01*
X299276Y86491D01*
X299023Y86658D01*
X298737Y86714D01*
X296629Y86714D01*
X296332Y86654D01*
X296082Y86482D01*
X295919Y86227D01*
X295868Y85928D01*
X295938Y85633D01*
X296091Y85413D01*
X299306Y82198D01*
X299306Y77802D01*
X296198Y74694D01*
X291802Y74694D01*
G37*
G36*
X28802Y575694D02*
X25694Y578802D01*
X25694Y583198D01*
X28802Y586306D01*
X33198Y586306D01*
X36306Y583198D01*
X36306Y578802D01*
X33198Y575694D01*
X28802Y575694D01*
G37*
G36*
X173802Y575694D02*
X170694Y578802D01*
X170694Y583198D01*
X173802Y586306D01*
X178198Y586306D01*
X181306Y583198D01*
X181306Y578802D01*
X178198Y575694D01*
X173802Y575694D01*
G37*
G36*
X110802Y575694D02*
X107694Y578802D01*
X107694Y583198D01*
X110802Y586306D01*
X115198Y586306D01*
X118306Y583198D01*
X118306Y578802D01*
X115198Y575694D01*
X110802Y575694D01*
G37*
G36*
X59802Y575694D02*
X56694Y578802D01*
X56694Y583198D01*
X59802Y586306D01*
X64198Y586306D01*
X67306Y583198D01*
X67306Y578802D01*
X64198Y575694D01*
X59802Y575694D01*
G37*
G36*
X46802Y575694D02*
X43694Y578802D01*
X43694Y583198D01*
X46802Y586306D01*
X51198Y586306D01*
X54306Y583198D01*
X54306Y578802D01*
X51198Y575694D01*
X46802Y575694D01*
G37*
G36*
X64460Y546262D02*
X64460Y552052D01*
X65948Y553540D01*
X71238Y553540D01*
X71238Y546262D01*
X64460Y546262D01*
G37*
G36*
X52762Y546262D02*
X52762Y553540D01*
X58052Y553540D01*
X59540Y552052D01*
X59540Y546262D01*
X52762Y546262D01*
G37*
G36*
X44460Y546262D02*
X44460Y552052D01*
X45948Y553540D01*
X51238Y553540D01*
X51238Y546262D01*
X44460Y546262D01*
G37*
G36*
X72762Y546262D02*
X72762Y553540D01*
X78052Y553540D01*
X79540Y552052D01*
X79540Y546262D01*
X72762Y546262D01*
G37*
G36*
X72762Y537460D02*
X72762Y544738D01*
X79540Y544738D01*
X79540Y538948D01*
X78052Y537460D01*
X72762Y537460D01*
G37*
G36*
X45948Y537460D02*
X44460Y538948D01*
X44460Y544738D01*
X51238Y544738D01*
X51238Y537460D01*
X45948Y537460D01*
G37*
G36*
X52762Y537460D02*
X52762Y544738D01*
X59540Y544738D01*
X59540Y538948D01*
X58052Y537460D01*
X52762Y537460D01*
G37*
G36*
X65948Y537460D02*
X64460Y538948D01*
X64460Y544738D01*
X71238Y544738D01*
X71238Y537460D01*
X65948Y537460D01*
G37*
G36*
X129802Y484694D02*
X126694Y487802D01*
X126694Y492198D01*
X129246Y494750D01*
X129414Y495003D01*
X129469Y495301D01*
X129404Y495597D01*
X129229Y495845D01*
X128971Y496004D01*
X128708Y496051D01*
X124879Y496051D01*
X124539Y496391D01*
X124286Y496558D01*
X123988Y496614D01*
X123692Y496549D01*
X123461Y496391D01*
X123121Y496051D01*
X118379Y496051D01*
X118039Y496391D01*
X117786Y496558D01*
X117488Y496614D01*
X117192Y496549D01*
X116961Y496391D01*
X116621Y496051D01*
X111879Y496051D01*
X111539Y496391D01*
X111286Y496558D01*
X110988Y496614D01*
X110692Y496549D01*
X110461Y496391D01*
X110121Y496051D01*
X105379Y496051D01*
X105039Y496391D01*
X104786Y496558D01*
X104488Y496614D01*
X104192Y496549D01*
X103961Y496391D01*
X103621Y496051D01*
X98879Y496051D01*
X98539Y496391D01*
X98286Y496558D01*
X97988Y496614D01*
X97692Y496549D01*
X97461Y496391D01*
X97121Y496051D01*
X92379Y496051D01*
X92039Y496391D01*
X91786Y496558D01*
X91488Y496614D01*
X91192Y496549D01*
X90961Y496391D01*
X90621Y496051D01*
X85879Y496051D01*
X85539Y496391D01*
X85286Y496558D01*
X84988Y496614D01*
X84692Y496549D01*
X84461Y496391D01*
X84121Y496051D01*
X79379Y496051D01*
X79039Y496391D01*
X78786Y496558D01*
X78488Y496614D01*
X78192Y496549D01*
X77961Y496391D01*
X77621Y496051D01*
X72879Y496051D01*
X72539Y496391D01*
X72286Y496558D01*
X71988Y496614D01*
X71692Y496549D01*
X71461Y496391D01*
X71121Y496051D01*
X66379Y496051D01*
X65486Y496944D01*
X65486Y500750D01*
X65426Y501047D01*
X65254Y501297D01*
X64999Y501461D01*
X64724Y501512D01*
X63331Y501512D01*
X63034Y501452D01*
X62793Y501289D01*
X61198Y499694D01*
X56802Y499694D01*
X53694Y502802D01*
X53694Y505680D01*
X53634Y505977D01*
X53471Y506219D01*
X48952Y510737D01*
X48952Y520714D01*
X48892Y521011D01*
X48720Y521261D01*
X48465Y521425D01*
X48190Y521476D01*
X46369Y521476D01*
X45476Y522369D01*
X45476Y534631D01*
X46369Y535524D01*
X57631Y535524D01*
X58524Y534631D01*
X58524Y522369D01*
X57631Y521476D01*
X55810Y521476D01*
X55513Y521416D01*
X55263Y521244D01*
X55099Y520989D01*
X55048Y520714D01*
X55048Y513578D01*
X55108Y513281D01*
X55271Y513039D01*
X57781Y510529D01*
X58034Y510362D01*
X58320Y510306D01*
X61198Y510306D01*
X63673Y507831D01*
X63925Y507664D01*
X64211Y507608D01*
X64724Y507608D01*
X65021Y507668D01*
X65271Y507840D01*
X65435Y508095D01*
X65486Y508370D01*
X65486Y512176D01*
X66379Y513069D01*
X66588Y513069D01*
X66885Y513129D01*
X67135Y513301D01*
X67298Y513556D01*
X67349Y513855D01*
X67279Y514150D01*
X67126Y514370D01*
X66694Y514802D01*
X66694Y519198D01*
X67671Y520175D01*
X67839Y520428D01*
X67894Y520726D01*
X67829Y521022D01*
X67654Y521270D01*
X67396Y521429D01*
X67133Y521476D01*
X66369Y521476D01*
X65476Y522369D01*
X65476Y534631D01*
X66369Y535524D01*
X77709Y535524D01*
X77732Y535509D01*
X78030Y535453D01*
X78326Y535518D01*
X78557Y535676D01*
X81186Y538306D01*
X85582Y538306D01*
X87389Y536499D01*
X87642Y536331D01*
X87940Y536276D01*
X88236Y536341D01*
X88467Y536499D01*
X90274Y538306D01*
X94670Y538306D01*
X96477Y536499D01*
X96730Y536331D01*
X97028Y536276D01*
X97324Y536341D01*
X97555Y536499D01*
X99362Y538306D01*
X103758Y538306D01*
X105565Y536499D01*
X105818Y536331D01*
X106116Y536276D01*
X106412Y536341D01*
X106643Y536499D01*
X108450Y538306D01*
X112846Y538306D01*
X114653Y536499D01*
X114906Y536331D01*
X115204Y536276D01*
X115500Y536341D01*
X115731Y536499D01*
X117538Y538306D01*
X121934Y538306D01*
X123741Y536499D01*
X123994Y536331D01*
X124292Y536276D01*
X124588Y536341D01*
X124819Y536499D01*
X126626Y538306D01*
X131022Y538306D01*
X132829Y536499D01*
X133082Y536331D01*
X133380Y536276D01*
X133676Y536341D01*
X133907Y536499D01*
X135714Y538306D01*
X140110Y538306D01*
X141917Y536499D01*
X142170Y536331D01*
X142468Y536276D01*
X142764Y536341D01*
X142995Y536499D01*
X144802Y538306D01*
X149198Y538306D01*
X152306Y535198D01*
X152306Y530802D01*
X149198Y527694D01*
X145243Y527694D01*
X144945Y527634D01*
X144704Y527471D01*
X131603Y514370D01*
X131435Y514117D01*
X131380Y513819D01*
X131445Y513523D01*
X131620Y513275D01*
X131878Y513116D01*
X132142Y513069D01*
X136121Y513069D01*
X136461Y512729D01*
X136714Y512562D01*
X137012Y512506D01*
X137308Y512571D01*
X137539Y512729D01*
X137879Y513069D01*
X142626Y513069D01*
X142924Y513129D01*
X143165Y513292D01*
X143958Y514085D01*
X145988Y514085D01*
X145988Y494959D01*
X145761Y494803D01*
X145598Y494548D01*
X145547Y494249D01*
X145617Y493954D01*
X145770Y493734D01*
X147306Y492198D01*
X147306Y487802D01*
X144198Y484694D01*
X139802Y484694D01*
X137539Y486957D01*
X137286Y487125D01*
X136988Y487180D01*
X136692Y487115D01*
X136461Y486957D01*
X134198Y484694D01*
X129802Y484694D01*
G37*
G36*
X147512Y495035D02*
X147512Y514085D01*
X149583Y514085D01*
X149714Y513998D01*
X150012Y513943D01*
X150308Y514008D01*
X150421Y514085D01*
X152488Y514085D01*
X152488Y495035D01*
X150417Y495035D01*
X150286Y495122D01*
X149988Y495177D01*
X149692Y495112D01*
X149579Y495035D01*
X147512Y495035D01*
G37*
G36*
X154012Y505322D02*
X154012Y514085D01*
X156042Y514085D01*
X157530Y512597D01*
X157530Y505322D01*
X154012Y505322D01*
G37*
G36*
X183460Y504762D02*
X183460Y510052D01*
X184948Y511540D01*
X190738Y511540D01*
X190738Y504762D01*
X183460Y504762D01*
G37*
G36*
X192262Y504762D02*
X192262Y511540D01*
X198052Y511540D01*
X199540Y510052D01*
X199540Y504762D01*
X192262Y504762D01*
G37*
G36*
X154012Y495035D02*
X154012Y503798D01*
X157530Y503798D01*
X157530Y496523D01*
X156042Y495035D01*
X154012Y495035D01*
G37*
G36*
X192262Y496460D02*
X192262Y503238D01*
X199540Y503238D01*
X199540Y497948D01*
X198052Y496460D01*
X192262Y496460D01*
G37*
G36*
X184948Y496460D02*
X183460Y497948D01*
X183460Y503238D01*
X190738Y503238D01*
X190738Y496460D01*
X184948Y496460D01*
G37*
G36*
X190262Y450960D02*
X190262Y458738D01*
X197040Y458738D01*
X197040Y452448D01*
X195552Y450960D01*
X190262Y450960D01*
G37*
G36*
X121512Y421915D02*
X121512Y440965D01*
X123583Y440965D01*
X123714Y440878D01*
X124012Y440823D01*
X124308Y440888D01*
X124421Y440965D01*
X126488Y440965D01*
X126488Y421915D01*
X124417Y421915D01*
X124286Y422002D01*
X123988Y422057D01*
X123692Y421992D01*
X123579Y421915D01*
X121512Y421915D01*
G37*
G36*
X375802Y396694D02*
X372694Y399802D01*
X372694Y404198D01*
X375802Y407306D01*
X380198Y407306D01*
X383306Y404198D01*
X383306Y399802D01*
X380198Y396694D01*
X375802Y396694D01*
G37*
G36*
X16762Y371262D02*
X16762Y378540D01*
X22052Y378540D01*
X23540Y377052D01*
X23540Y371262D01*
X16762Y371262D01*
G37*
G36*
X8460Y371262D02*
X8460Y377052D01*
X9948Y378540D01*
X15238Y378540D01*
X15238Y371262D01*
X8460Y371262D01*
G37*
G36*
X16762Y362460D02*
X16762Y369738D01*
X23540Y369738D01*
X23540Y363948D01*
X22052Y362460D01*
X16762Y362460D01*
G37*
G36*
X9948Y362460D02*
X8460Y363948D01*
X8460Y369738D01*
X15238Y369738D01*
X15238Y362460D01*
X9948Y362460D01*
G37*
G36*
X26870Y341694D02*
X23762Y344802D01*
X23762Y349198D01*
X26870Y352306D01*
X31266Y352306D01*
X34374Y349198D01*
X34374Y344802D01*
X31266Y341694D01*
X26870Y341694D01*
G37*
G36*
X60802Y322694D02*
X57694Y325802D01*
X57694Y330198D01*
X60802Y333306D01*
X65198Y333306D01*
X68306Y330198D01*
X68306Y325802D01*
X65198Y322694D01*
X60802Y322694D01*
G37*
G36*
X46802Y250694D02*
X43694Y253802D01*
X43694Y258198D01*
X46491Y260995D01*
X46658Y261247D01*
X46714Y261533D01*
X46714Y284467D01*
X46654Y284764D01*
X46491Y285005D01*
X43694Y287802D01*
X43694Y292198D01*
X46802Y295306D01*
X51198Y295306D01*
X54306Y292198D01*
X54306Y288068D01*
X54366Y287771D01*
X54538Y287521D01*
X54793Y287357D01*
X55068Y287306D01*
X59198Y287306D01*
X62306Y284198D01*
X62306Y279802D01*
X60043Y277539D01*
X59875Y277286D01*
X59820Y276988D01*
X59885Y276692D01*
X60043Y276461D01*
X62306Y274198D01*
X62306Y269802D01*
X59198Y266694D01*
X54802Y266694D01*
X52587Y268909D01*
X52334Y269077D01*
X52036Y269132D01*
X51740Y269067D01*
X51492Y268892D01*
X51333Y268634D01*
X51286Y268371D01*
X51286Y261533D01*
X51346Y261236D01*
X51509Y260995D01*
X54306Y258198D01*
X54306Y253802D01*
X51198Y250694D01*
X46802Y250694D01*
G37*
G36*
X299802Y279694D02*
X296694Y282802D01*
X296694Y287198D01*
X299802Y290306D01*
X304198Y290306D01*
X307306Y287198D01*
X307306Y282802D01*
X304198Y279694D01*
X299802Y279694D01*
G37*
G36*
X14734Y266694D02*
X11626Y269802D01*
X11626Y274198D01*
X14734Y277306D01*
X19130Y277306D01*
X22238Y274198D01*
X22238Y269802D01*
X19130Y266694D01*
X14734Y266694D01*
G37*
G36*
X353802Y250694D02*
X350505Y253991D01*
X350253Y254158D01*
X349967Y254214D01*
X286533Y254214D01*
X286236Y254154D01*
X285995Y253991D01*
X283198Y251194D01*
X278802Y251194D01*
X275694Y254302D01*
X275694Y258698D01*
X278802Y261806D01*
X283198Y261806D01*
X285995Y259009D01*
X286247Y258842D01*
X286533Y258786D01*
X350967Y258786D01*
X351264Y258846D01*
X351505Y259009D01*
X353802Y261306D01*
X358198Y261306D01*
X361306Y258198D01*
X361306Y253802D01*
X358198Y250694D01*
X353802Y250694D01*
G37*
G36*
X314802Y230694D02*
X311694Y233802D01*
X311694Y238198D01*
X314802Y241306D01*
X319198Y241306D01*
X322306Y238198D01*
X322306Y233802D01*
X319198Y230694D01*
X314802Y230694D01*
G37*
G36*
X251802Y205694D02*
X248694Y208802D01*
X248694Y213198D01*
X251802Y216306D01*
X256198Y216306D01*
X259306Y213198D01*
X259306Y208802D01*
X256198Y205694D01*
X251802Y205694D01*
G37*
G36*
X33802Y199694D02*
X30694Y202802D01*
X30694Y207198D01*
X33802Y210306D01*
X38198Y210306D01*
X41306Y207198D01*
X41306Y202802D01*
X38198Y199694D01*
X33802Y199694D01*
G37*
G36*
X15802Y199694D02*
X12694Y202802D01*
X12694Y207198D01*
X15802Y210306D01*
X20198Y210306D01*
X23306Y207198D01*
X23306Y202802D01*
X20198Y199694D01*
X15802Y199694D01*
G37*
G36*
X18802Y67694D02*
X15694Y70802D01*
X15694Y75198D01*
X17957Y77461D01*
X18125Y77714D01*
X18180Y78012D01*
X18115Y78308D01*
X17957Y78539D01*
X15694Y80802D01*
X15694Y85198D01*
X18802Y88306D01*
X23198Y88306D01*
X25461Y86043D01*
X25714Y85875D01*
X26012Y85820D01*
X26308Y85885D01*
X26539Y86043D01*
X28802Y88306D01*
X33198Y88306D01*
X36306Y85198D01*
X36306Y80802D01*
X34043Y78539D01*
X33875Y78286D01*
X33820Y77988D01*
X33885Y77692D01*
X34043Y77461D01*
X36306Y75198D01*
X36306Y70802D01*
X33198Y67694D01*
X28802Y67694D01*
X26539Y69957D01*
X26286Y70125D01*
X25988Y70180D01*
X25692Y70115D01*
X25461Y69957D01*
X23198Y67694D01*
X18802Y67694D01*
G37*
G36*
X41802Y67694D02*
X38694Y70802D01*
X38694Y75198D01*
X41802Y78306D01*
X46198Y78306D01*
X48995Y75509D01*
X49247Y75342D01*
X49533Y75286D01*
X50935Y75286D01*
X51232Y75346D01*
X51473Y75509D01*
X54270Y78306D01*
X58666Y78306D01*
X61774Y75198D01*
X61774Y70802D01*
X58666Y67694D01*
X54270Y67694D01*
X51473Y70491D01*
X51221Y70658D01*
X50935Y70714D01*
X49533Y70714D01*
X49236Y70654D01*
X48995Y70491D01*
X46198Y67694D01*
X41802Y67694D01*
G37*
G36*
X26512Y48062D02*
X26512Y61420D01*
X27407Y61420D01*
X30469Y60152D01*
X32812Y57809D01*
X34080Y54747D01*
X34080Y48062D01*
X26512Y48062D01*
G37*
G36*
X75012Y48062D02*
X75012Y61420D01*
X75907Y61420D01*
X78969Y60152D01*
X81312Y57809D01*
X82580Y54747D01*
X82580Y48062D01*
X75012Y48062D01*
G37*
G36*
X17420Y48062D02*
X17420Y54747D01*
X18688Y57809D01*
X21031Y60152D01*
X24093Y61420D01*
X24988Y61420D01*
X24988Y48062D01*
X17420Y48062D01*
G37*
G36*
X65920Y48062D02*
X65920Y54747D01*
X67188Y57809D01*
X69531Y60152D01*
X72593Y61420D01*
X73488Y61420D01*
X73488Y48062D01*
X65920Y48062D01*
G37*
G36*
X24093Y33180D02*
X21031Y34448D01*
X18688Y36791D01*
X17420Y39853D01*
X17420Y46538D01*
X24988Y46538D01*
X24988Y33180D01*
X24093Y33180D01*
G37*
G36*
X26512Y33180D02*
X26512Y46538D01*
X34080Y46538D01*
X34080Y39853D01*
X32812Y36791D01*
X30469Y34448D01*
X27407Y33180D01*
X26512Y33180D01*
G37*
G36*
X75012Y33180D02*
X75012Y46538D01*
X82580Y46538D01*
X82580Y39853D01*
X81312Y36791D01*
X78969Y34448D01*
X75907Y33180D01*
X75012Y33180D01*
G37*
G36*
X72593Y33180D02*
X69531Y34448D01*
X67188Y36791D01*
X65920Y39853D01*
X65920Y46538D01*
X73488Y46538D01*
X73488Y33180D01*
X72593Y33180D01*
G37*
G36*
X78012Y17762D02*
X78012Y31620D01*
X78957Y31620D01*
X82110Y30314D01*
X84524Y27900D01*
X85830Y24747D01*
X85830Y17762D01*
X78012Y17762D01*
G37*
G36*
X68670Y17762D02*
X68670Y24747D01*
X69976Y27900D01*
X72390Y30314D01*
X75543Y31620D01*
X76488Y31620D01*
X76488Y17762D01*
X68670Y17762D01*
G37*
G36*
X14170Y17762D02*
X14170Y24747D01*
X15476Y27900D01*
X17890Y30314D01*
X21043Y31620D01*
X21988Y31620D01*
X21988Y17762D01*
X14170Y17762D01*
G37*
G36*
X23512Y17762D02*
X23512Y31620D01*
X24457Y31620D01*
X27610Y30314D01*
X30024Y27900D01*
X31330Y24747D01*
X31330Y17762D01*
X23512Y17762D01*
G37*
%LPD*%
G36*
X336103Y346414D02*
X336344Y346577D01*
X362335Y372568D01*
X362502Y372821D01*
X362558Y373107D01*
X362558Y471284D01*
X362498Y471581D01*
X362326Y471831D01*
X362071Y471995D01*
X361796Y472046D01*
X357101Y472046D01*
X356208Y472939D01*
X356208Y482154D01*
X356221Y482174D01*
X356277Y482472D01*
X356212Y482768D01*
X356208Y482774D01*
X356208Y487234D01*
X356221Y487254D01*
X356277Y487552D01*
X356212Y487848D01*
X356208Y487854D01*
X356208Y490998D01*
X356148Y491296D01*
X355985Y491537D01*
X355192Y492330D01*
X355192Y494144D01*
X365606Y494144D01*
X365606Y498970D01*
X373008Y498970D01*
X373413Y498565D01*
X373666Y498397D01*
X373964Y498342D01*
X374260Y498407D01*
X374508Y498582D01*
X374667Y498840D01*
X374714Y499104D01*
X374714Y506214D01*
X374654Y506511D01*
X374482Y506761D01*
X374227Y506925D01*
X373952Y506976D01*
X362869Y506976D01*
X361976Y507869D01*
X361976Y520131D01*
X362258Y520413D01*
X362425Y520666D01*
X362481Y520964D01*
X362416Y521260D01*
X362240Y521508D01*
X361982Y521667D01*
X361719Y521714D01*
X358281Y521714D01*
X357984Y521654D01*
X357734Y521482D01*
X357570Y521227D01*
X357519Y520928D01*
X357589Y520633D01*
X357742Y520413D01*
X358024Y520131D01*
X358024Y507869D01*
X357131Y506976D01*
X345869Y506976D01*
X345257Y507588D01*
X345004Y507755D01*
X344706Y507811D01*
X344410Y507746D01*
X344180Y507588D01*
X343052Y506460D01*
X337262Y506460D01*
X337262Y514762D01*
X328460Y514762D01*
X328460Y520052D01*
X329821Y521413D01*
X329989Y521666D01*
X330044Y521964D01*
X329979Y522260D01*
X329804Y522508D01*
X329546Y522667D01*
X329282Y522714D01*
X307263Y522714D01*
X306965Y522654D01*
X306724Y522491D01*
X301009Y516776D01*
X300842Y516523D01*
X300786Y516237D01*
X300786Y499286D01*
X300846Y498989D01*
X301018Y498739D01*
X301273Y498575D01*
X301548Y498524D01*
X304131Y498524D01*
X305024Y497631D01*
X305024Y491772D01*
X304971Y491488D01*
X305036Y491192D01*
X305050Y491172D01*
X305084Y491001D01*
X305256Y490751D01*
X305511Y490587D01*
X305786Y490536D01*
X308697Y490536D01*
X310203Y489030D01*
X310456Y488862D01*
X310754Y488807D01*
X311050Y488872D01*
X311298Y489047D01*
X311457Y489305D01*
X311459Y489318D01*
X330808Y489318D01*
X330808Y487504D01*
X330015Y486711D01*
X329848Y486458D01*
X329792Y486172D01*
X329792Y482766D01*
X329779Y482746D01*
X329723Y482448D01*
X329788Y482152D01*
X329792Y482146D01*
X329792Y472939D01*
X328899Y472046D01*
X324204Y472046D01*
X323907Y471986D01*
X323657Y471814D01*
X323493Y471559D01*
X323442Y471284D01*
X323442Y470377D01*
X323502Y470080D01*
X323665Y469839D01*
X324306Y469198D01*
X324306Y464802D01*
X323329Y463825D01*
X323161Y463572D01*
X323106Y463274D01*
X323171Y462978D01*
X323346Y462730D01*
X323604Y462571D01*
X323867Y462524D01*
X325631Y462524D01*
X326524Y461631D01*
X326524Y450369D01*
X325631Y449476D01*
X313369Y449476D01*
X312476Y450369D01*
X312476Y461631D01*
X313369Y462524D01*
X314133Y462524D01*
X314430Y462584D01*
X314680Y462756D01*
X314843Y463011D01*
X314894Y463310D01*
X314824Y463605D01*
X314671Y463825D01*
X313694Y464802D01*
X313694Y469198D01*
X315241Y470745D01*
X315409Y470998D01*
X315464Y471296D01*
X315399Y471592D01*
X315224Y471840D01*
X314966Y471999D01*
X314703Y472046D01*
X313413Y472046D01*
X312520Y472939D01*
X312520Y476872D01*
X312460Y477169D01*
X312288Y477419D01*
X312033Y477583D01*
X311758Y477634D01*
X308133Y477634D01*
X306325Y479442D01*
X306072Y479610D01*
X305774Y479665D01*
X305478Y479600D01*
X305230Y479425D01*
X305071Y479167D01*
X305024Y478903D01*
X305024Y478772D01*
X304971Y478488D01*
X305024Y478247D01*
X305024Y472369D01*
X304131Y471476D01*
X292869Y471476D01*
X291934Y472411D01*
X291916Y472499D01*
X291744Y472749D01*
X291489Y472913D01*
X291214Y472964D01*
X290803Y472964D01*
X285714Y478053D01*
X285714Y541214D01*
X285654Y541511D01*
X285482Y541761D01*
X285227Y541925D01*
X284952Y541976D01*
X281869Y541976D01*
X280976Y542869D01*
X280976Y554131D01*
X281869Y555024D01*
X294131Y555024D01*
X295024Y554131D01*
X295024Y551548D01*
X295084Y551251D01*
X295256Y551001D01*
X295511Y550837D01*
X295786Y550786D01*
X300214Y550786D01*
X300511Y550846D01*
X300761Y551018D01*
X300925Y551273D01*
X300976Y551548D01*
X300976Y554131D01*
X301869Y555024D01*
X314131Y555024D01*
X315024Y554131D01*
X315024Y542869D01*
X314131Y541976D01*
X301869Y541976D01*
X300976Y542869D01*
X300976Y545452D01*
X300916Y545749D01*
X300744Y545999D01*
X300489Y546163D01*
X300214Y546214D01*
X295786Y546214D01*
X295489Y546154D01*
X295239Y545982D01*
X295075Y545727D01*
X295024Y545452D01*
X295024Y542869D01*
X294131Y541976D01*
X291048Y541976D01*
X290751Y541916D01*
X290501Y541744D01*
X290337Y541489D01*
X290286Y541214D01*
X290286Y480263D01*
X290346Y479965D01*
X290509Y479724D01*
X290675Y479558D01*
X290928Y479390D01*
X291226Y479335D01*
X291522Y479400D01*
X291770Y479575D01*
X291929Y479833D01*
X291976Y480097D01*
X291976Y484728D01*
X292029Y485012D01*
X291976Y485253D01*
X291976Y491228D01*
X292029Y491512D01*
X291976Y491753D01*
X291976Y497631D01*
X292869Y498524D01*
X295452Y498524D01*
X295749Y498584D01*
X295999Y498756D01*
X296163Y499011D01*
X296214Y499286D01*
X296214Y518447D01*
X305053Y527286D01*
X329371Y527286D01*
X329668Y527346D01*
X329918Y527518D01*
X330081Y527773D01*
X330132Y528072D01*
X330062Y528367D01*
X329909Y528587D01*
X327694Y530802D01*
X327694Y532903D01*
X327634Y533200D01*
X327462Y533450D01*
X327207Y533614D01*
X326908Y533665D01*
X326613Y533595D01*
X326393Y533442D01*
X325157Y532206D01*
X313025Y532206D01*
X312728Y532146D01*
X312487Y531983D01*
X310198Y529694D01*
X305802Y529694D01*
X302694Y532802D01*
X302694Y537198D01*
X305802Y540306D01*
X310198Y540306D01*
X312487Y538017D01*
X312739Y537850D01*
X313025Y537794D01*
X322527Y537794D01*
X322824Y537854D01*
X323066Y538017D01*
X324983Y539934D01*
X325150Y540187D01*
X325206Y540473D01*
X325206Y540714D01*
X325146Y541011D01*
X324974Y541261D01*
X324719Y541425D01*
X324444Y541476D01*
X322369Y541476D01*
X321476Y542369D01*
X321476Y554631D01*
X322369Y555524D01*
X333631Y555524D01*
X334524Y554631D01*
X334524Y542369D01*
X333631Y541476D01*
X331556Y541476D01*
X331259Y541416D01*
X331009Y541244D01*
X330845Y540989D01*
X330794Y540714D01*
X330794Y539068D01*
X330854Y538771D01*
X331026Y538521D01*
X331281Y538357D01*
X331556Y538306D01*
X335198Y538306D01*
X338306Y535198D01*
X338306Y530802D01*
X336091Y528587D01*
X335923Y528334D01*
X335868Y528036D01*
X335933Y527740D01*
X336108Y527492D01*
X336366Y527333D01*
X336629Y527286D01*
X343737Y527286D01*
X344035Y527346D01*
X344276Y527509D01*
X345491Y528724D01*
X345658Y528977D01*
X345714Y529263D01*
X345714Y541214D01*
X345654Y541511D01*
X345482Y541761D01*
X345227Y541925D01*
X344952Y541976D01*
X341869Y541976D01*
X340976Y542869D01*
X340976Y554131D01*
X341869Y555024D01*
X354131Y555024D01*
X355024Y554131D01*
X355024Y551548D01*
X355084Y551251D01*
X355256Y551001D01*
X355511Y550837D01*
X355786Y550786D01*
X360214Y550786D01*
X360511Y550846D01*
X360761Y551018D01*
X360925Y551273D01*
X360976Y551548D01*
X360976Y554131D01*
X361869Y555024D01*
X374131Y555024D01*
X375024Y554131D01*
X375024Y542869D01*
X374131Y541976D01*
X361869Y541976D01*
X360976Y542869D01*
X360976Y545452D01*
X360916Y545749D01*
X360744Y545999D01*
X360489Y546163D01*
X360214Y546214D01*
X355786Y546214D01*
X355489Y546154D01*
X355239Y545982D01*
X355075Y545727D01*
X355024Y545452D01*
X355024Y542869D01*
X354131Y541976D01*
X351048Y541976D01*
X350751Y541916D01*
X350501Y541744D01*
X350337Y541489D01*
X350286Y541214D01*
X350286Y537805D01*
X350346Y537508D01*
X350518Y537258D01*
X350773Y537095D01*
X351072Y537044D01*
X351367Y537114D01*
X351587Y537267D01*
X352626Y538306D01*
X357022Y538306D01*
X358829Y536499D01*
X359082Y536331D01*
X359380Y536276D01*
X359676Y536341D01*
X359907Y536499D01*
X361714Y538306D01*
X366110Y538306D01*
X367917Y536499D01*
X368170Y536331D01*
X368468Y536276D01*
X368764Y536341D01*
X368995Y536499D01*
X370802Y538306D01*
X374757Y538306D01*
X375055Y538366D01*
X375296Y538529D01*
X379491Y542724D01*
X379658Y542977D01*
X379714Y543263D01*
X379714Y576737D01*
X379654Y577035D01*
X379491Y577276D01*
X374276Y582491D01*
X374023Y582658D01*
X373737Y582714D01*
X353561Y582714D01*
X353264Y582654D01*
X353014Y582482D01*
X352851Y582227D01*
X352800Y581928D01*
X352870Y581633D01*
X353023Y581413D01*
X355238Y579198D01*
X355238Y574802D01*
X353761Y573325D01*
X353593Y573072D01*
X353538Y572774D01*
X353603Y572478D01*
X353778Y572230D01*
X354036Y572071D01*
X354095Y572060D01*
X355024Y571131D01*
X355024Y559869D01*
X354131Y558976D01*
X341869Y558976D01*
X340976Y559869D01*
X340976Y562452D01*
X340916Y562749D01*
X340744Y562999D01*
X340489Y563163D01*
X340214Y563214D01*
X335286Y563214D01*
X334989Y563154D01*
X334739Y562982D01*
X334575Y562727D01*
X334524Y562452D01*
X334524Y559369D01*
X333631Y558476D01*
X322369Y558476D01*
X321476Y559369D01*
X321476Y570932D01*
X321416Y571229D01*
X321244Y571479D01*
X320989Y571643D01*
X320714Y571694D01*
X317802Y571694D01*
X317341Y572155D01*
X317088Y572323D01*
X316790Y572378D01*
X316494Y572313D01*
X316246Y572138D01*
X316087Y571880D01*
X316040Y571617D01*
X316040Y566262D01*
X308762Y566262D01*
X308762Y573040D01*
X314617Y573040D01*
X314914Y573100D01*
X315164Y573272D01*
X315327Y573527D01*
X315378Y573826D01*
X315308Y574121D01*
X315155Y574341D01*
X314694Y574802D01*
X314694Y579198D01*
X316909Y581413D01*
X317077Y581666D01*
X317132Y581964D01*
X317067Y582260D01*
X316892Y582508D01*
X316634Y582667D01*
X316371Y582714D01*
X232263Y582714D01*
X231965Y582654D01*
X231724Y582491D01*
X208509Y559276D01*
X208342Y559023D01*
X208286Y558737D01*
X208286Y442053D01*
X193947Y427714D01*
X169533Y427714D01*
X169236Y427654D01*
X168995Y427491D01*
X167043Y425539D01*
X166875Y425286D01*
X166820Y424988D01*
X166885Y424692D01*
X167043Y424461D01*
X168233Y423271D01*
X168485Y423104D01*
X168771Y423048D01*
X181263Y423048D01*
X199048Y405263D01*
X199048Y395286D01*
X199108Y394989D01*
X199280Y394739D01*
X199535Y394575D01*
X199810Y394524D01*
X201631Y394524D01*
X202524Y393631D01*
X202524Y381369D01*
X201631Y380476D01*
X190369Y380476D01*
X189476Y381369D01*
X189476Y393631D01*
X190369Y394524D01*
X192190Y394524D01*
X192487Y394584D01*
X192737Y394756D01*
X192901Y395011D01*
X192952Y395286D01*
X192952Y402422D01*
X192892Y402719D01*
X192729Y402961D01*
X178961Y416729D01*
X178708Y416896D01*
X178422Y416952D01*
X168771Y416952D01*
X168474Y416892D01*
X168233Y416729D01*
X168091Y416587D01*
X167923Y416334D01*
X167868Y416036D01*
X167933Y415740D01*
X168108Y415492D01*
X168366Y415333D01*
X168629Y415286D01*
X169947Y415286D01*
X178286Y406947D01*
X178286Y395286D01*
X178346Y394989D01*
X178518Y394739D01*
X178773Y394575D01*
X179048Y394524D01*
X181631Y394524D01*
X182524Y393631D01*
X182524Y381369D01*
X181631Y380476D01*
X170369Y380476D01*
X169476Y381369D01*
X169476Y393631D01*
X170369Y394524D01*
X172952Y394524D01*
X173249Y394584D01*
X173499Y394756D01*
X173663Y395011D01*
X173714Y395286D01*
X173714Y404737D01*
X173654Y405035D01*
X173491Y405276D01*
X168276Y410491D01*
X168023Y410658D01*
X167737Y410714D01*
X133359Y410714D01*
X133061Y410654D01*
X132811Y410482D01*
X132648Y410227D01*
X132597Y409928D01*
X132667Y409633D01*
X132820Y409413D01*
X138286Y403947D01*
X138286Y394786D01*
X138346Y394489D01*
X138518Y394239D01*
X138773Y394075D01*
X139048Y394024D01*
X142131Y394024D01*
X143024Y393131D01*
X143024Y390548D01*
X143084Y390251D01*
X143256Y390001D01*
X143511Y389837D01*
X143786Y389786D01*
X148714Y389786D01*
X149011Y389846D01*
X149261Y390018D01*
X149425Y390273D01*
X149476Y390548D01*
X149476Y393631D01*
X150369Y394524D01*
X161631Y394524D01*
X162524Y393631D01*
X162524Y381369D01*
X161631Y380476D01*
X150369Y380476D01*
X149476Y381369D01*
X149476Y384452D01*
X149416Y384749D01*
X149244Y384999D01*
X148989Y385163D01*
X148714Y385214D01*
X143786Y385214D01*
X143489Y385154D01*
X143239Y384982D01*
X143075Y384727D01*
X143024Y384452D01*
X143024Y381869D01*
X142131Y380976D01*
X129869Y380976D01*
X128976Y381869D01*
X128976Y393131D01*
X129869Y394024D01*
X132952Y394024D01*
X133249Y394084D01*
X133499Y394256D01*
X133663Y394511D01*
X133714Y394786D01*
X133714Y401737D01*
X133654Y402035D01*
X133491Y402276D01*
X129276Y406491D01*
X129023Y406658D01*
X128737Y406714D01*
X121053Y406714D01*
X105464Y422303D01*
X105464Y422530D01*
X105404Y422827D01*
X105241Y423069D01*
X105039Y423271D01*
X104786Y423438D01*
X104488Y423494D01*
X104192Y423429D01*
X103961Y423271D01*
X103621Y422931D01*
X98879Y422931D01*
X98539Y423271D01*
X98286Y423438D01*
X97988Y423494D01*
X97692Y423429D01*
X97461Y423271D01*
X97259Y423069D01*
X97092Y422816D01*
X97036Y422530D01*
X97036Y394786D01*
X97096Y394489D01*
X97268Y394239D01*
X97523Y394075D01*
X97798Y394024D01*
X102131Y394024D01*
X103024Y393131D01*
X103024Y390548D01*
X103084Y390251D01*
X103256Y390001D01*
X103511Y389837D01*
X103786Y389786D01*
X108714Y389786D01*
X109011Y389846D01*
X109261Y390018D01*
X109425Y390273D01*
X109476Y390548D01*
X109476Y393631D01*
X110369Y394524D01*
X121631Y394524D01*
X122524Y393631D01*
X122524Y381369D01*
X121631Y380476D01*
X110369Y380476D01*
X109476Y381369D01*
X109476Y384452D01*
X109416Y384749D01*
X109244Y384999D01*
X108989Y385163D01*
X108714Y385214D01*
X103786Y385214D01*
X103489Y385154D01*
X103239Y384982D01*
X103075Y384727D01*
X103024Y384452D01*
X103024Y381869D01*
X102131Y380976D01*
X89869Y380976D01*
X88976Y381869D01*
X88976Y393131D01*
X89869Y394024D01*
X91702Y394024D01*
X91999Y394084D01*
X92249Y394256D01*
X92413Y394511D01*
X92464Y394786D01*
X92464Y422530D01*
X92404Y422827D01*
X92241Y423069D01*
X92039Y423271D01*
X91786Y423438D01*
X91488Y423494D01*
X91192Y423429D01*
X90961Y423271D01*
X90759Y423069D01*
X90592Y422816D01*
X90536Y422530D01*
X90536Y421303D01*
X78509Y409276D01*
X78342Y409023D01*
X78286Y408737D01*
X78286Y395286D01*
X78346Y394989D01*
X78518Y394739D01*
X78773Y394575D01*
X79048Y394524D01*
X81631Y394524D01*
X82524Y393631D01*
X82524Y381369D01*
X81631Y380476D01*
X70369Y380476D01*
X69476Y381369D01*
X69476Y393631D01*
X70369Y394524D01*
X72952Y394524D01*
X73249Y394584D01*
X73499Y394756D01*
X73663Y395011D01*
X73714Y395286D01*
X73714Y409641D01*
X73654Y409939D01*
X73482Y410189D01*
X73227Y410352D01*
X72928Y410403D01*
X72633Y410333D01*
X72413Y410180D01*
X70947Y408714D01*
X62263Y408714D01*
X61965Y408654D01*
X61724Y408491D01*
X58509Y405276D01*
X58342Y405023D01*
X58286Y404737D01*
X58286Y394786D01*
X58346Y394489D01*
X58518Y394239D01*
X58773Y394075D01*
X59048Y394024D01*
X62131Y394024D01*
X63024Y393131D01*
X63024Y381869D01*
X62131Y380976D01*
X49869Y380976D01*
X48976Y381869D01*
X48976Y393131D01*
X49869Y394024D01*
X52952Y394024D01*
X53249Y394084D01*
X53499Y394256D01*
X53663Y394511D01*
X53714Y394786D01*
X53714Y406947D01*
X58180Y411413D01*
X58348Y411666D01*
X58403Y411964D01*
X58338Y412260D01*
X58163Y412508D01*
X57905Y412667D01*
X57641Y412714D01*
X46263Y412714D01*
X45965Y412654D01*
X45724Y412491D01*
X38509Y405276D01*
X38342Y405023D01*
X38286Y404737D01*
X38286Y395286D01*
X38346Y394989D01*
X38518Y394739D01*
X38773Y394575D01*
X39048Y394524D01*
X41631Y394524D01*
X42524Y393631D01*
X42524Y384525D01*
X42584Y384227D01*
X42747Y383986D01*
X49486Y377247D01*
X49739Y377080D01*
X50025Y377024D01*
X62131Y377024D01*
X63024Y376131D01*
X63024Y364869D01*
X62131Y363976D01*
X49869Y363976D01*
X48976Y364869D01*
X48976Y370975D01*
X48916Y371273D01*
X48753Y371514D01*
X43825Y376442D01*
X43572Y376610D01*
X43274Y376665D01*
X42978Y376600D01*
X42730Y376425D01*
X42571Y376167D01*
X42524Y375903D01*
X42524Y364369D01*
X41631Y363476D01*
X40318Y363476D01*
X40021Y363416D01*
X39771Y363244D01*
X39607Y362989D01*
X39556Y362714D01*
X39556Y360789D01*
X39616Y360491D01*
X39779Y360250D01*
X44250Y355779D01*
X44503Y355612D01*
X44789Y355556D01*
X131169Y355556D01*
X131466Y355616D01*
X131716Y355788D01*
X131879Y356043D01*
X131930Y356342D01*
X131860Y356637D01*
X131707Y356857D01*
X130694Y357870D01*
X130694Y362266D01*
X131103Y362675D01*
X131271Y362928D01*
X131326Y363226D01*
X131261Y363522D01*
X131086Y363770D01*
X130828Y363929D01*
X130565Y363976D01*
X129869Y363976D01*
X128976Y364869D01*
X128976Y376131D01*
X129869Y377024D01*
X142131Y377024D01*
X143024Y376131D01*
X143024Y364869D01*
X142131Y363976D01*
X141435Y363976D01*
X141138Y363916D01*
X140888Y363744D01*
X140725Y363489D01*
X140674Y363190D01*
X140744Y362895D01*
X140897Y362675D01*
X141306Y362266D01*
X141306Y357870D01*
X140293Y356857D01*
X140125Y356604D01*
X140070Y356306D01*
X140135Y356010D01*
X140310Y355762D01*
X140568Y355603D01*
X140831Y355556D01*
X200211Y355556D01*
X200509Y355616D01*
X200750Y355779D01*
X205221Y360250D01*
X205388Y360503D01*
X205444Y360789D01*
X205444Y427473D01*
X216721Y438750D01*
X216888Y439003D01*
X216944Y439289D01*
X216944Y440714D01*
X216884Y441011D01*
X216712Y441261D01*
X216457Y441425D01*
X216182Y441476D01*
X214369Y441476D01*
X213476Y442369D01*
X213476Y453631D01*
X214369Y454524D01*
X217452Y454524D01*
X217749Y454584D01*
X217999Y454756D01*
X218163Y455011D01*
X218214Y455286D01*
X218214Y460214D01*
X218154Y460511D01*
X217982Y460761D01*
X217727Y460925D01*
X217452Y460976D01*
X214869Y460976D01*
X213976Y461869D01*
X213976Y474131D01*
X214869Y475024D01*
X217452Y475024D01*
X217749Y475084D01*
X217999Y475256D01*
X218163Y475511D01*
X218214Y475786D01*
X218214Y480214D01*
X218154Y480511D01*
X217982Y480761D01*
X217727Y480925D01*
X217452Y480976D01*
X214869Y480976D01*
X213976Y481869D01*
X213976Y494131D01*
X214869Y495024D01*
X226131Y495024D01*
X227024Y494131D01*
X227024Y481869D01*
X226131Y480976D01*
X223548Y480976D01*
X223251Y480916D01*
X223001Y480744D01*
X222837Y480489D01*
X222786Y480214D01*
X222786Y475786D01*
X222846Y475489D01*
X223018Y475239D01*
X223273Y475075D01*
X223548Y475024D01*
X226131Y475024D01*
X227024Y474131D01*
X227024Y461869D01*
X226131Y460976D01*
X223548Y460976D01*
X223251Y460916D01*
X223001Y460744D01*
X222837Y460489D01*
X222786Y460214D01*
X222786Y455286D01*
X222846Y454989D01*
X223018Y454739D01*
X223273Y454575D01*
X223548Y454524D01*
X226631Y454524D01*
X227524Y453631D01*
X227524Y442369D01*
X226631Y441476D01*
X224818Y441476D01*
X224521Y441416D01*
X224271Y441244D01*
X224107Y440989D01*
X224056Y440714D01*
X224056Y436027D01*
X212779Y424750D01*
X212612Y424497D01*
X212556Y424211D01*
X212556Y406899D01*
X212616Y406602D01*
X212788Y406352D01*
X213043Y406189D01*
X213342Y406138D01*
X213637Y406208D01*
X213857Y406361D01*
X215802Y408306D01*
X220198Y408306D01*
X223306Y405198D01*
X223306Y401243D01*
X223366Y400945D01*
X223529Y400704D01*
X263676Y360557D01*
X263929Y360390D01*
X264215Y360334D01*
X271520Y360334D01*
X272277Y359577D01*
X272530Y359410D01*
X272816Y359354D01*
X290467Y359354D01*
X290764Y359414D01*
X291005Y359577D01*
X293802Y362374D01*
X298198Y362374D01*
X301306Y359266D01*
X301306Y354870D01*
X298198Y351762D01*
X293802Y351762D01*
X291005Y354559D01*
X290753Y354726D01*
X290467Y354782D01*
X270606Y354782D01*
X269849Y355539D01*
X269597Y355706D01*
X269311Y355762D01*
X262005Y355762D01*
X220296Y397471D01*
X220043Y397638D01*
X219757Y397694D01*
X215802Y397694D01*
X213857Y399639D01*
X213604Y399807D01*
X213306Y399862D01*
X213010Y399797D01*
X212762Y399622D01*
X212603Y399364D01*
X212556Y399101D01*
X212556Y357527D01*
X203473Y348444D01*
X117967Y348444D01*
X117670Y348384D01*
X117420Y348212D01*
X117257Y347957D01*
X117206Y347658D01*
X117276Y347363D01*
X117429Y347143D01*
X117995Y346577D01*
X118247Y346410D01*
X118533Y346354D01*
X335805Y346354D01*
X336103Y346414D01*
G37*
%LPC*%
G36*
X368762Y566262D02*
X368762Y573040D01*
X374552Y573040D01*
X376040Y571552D01*
X376040Y566262D01*
X368762Y566262D01*
G37*
G36*
X359960Y566262D02*
X359960Y571552D01*
X361448Y573040D01*
X367238Y573040D01*
X367238Y566262D01*
X359960Y566262D01*
G37*
G36*
X299960Y566262D02*
X299960Y571552D01*
X301448Y573040D01*
X307238Y573040D01*
X307238Y566262D01*
X299960Y566262D01*
G37*
G36*
X262369Y558476D02*
X261476Y559369D01*
X261476Y571631D01*
X262369Y572524D01*
X273631Y572524D01*
X274524Y571631D01*
X274524Y568548D01*
X274584Y568251D01*
X274756Y568001D01*
X275011Y567837D01*
X275286Y567786D01*
X280214Y567786D01*
X280511Y567846D01*
X280761Y568018D01*
X280925Y568273D01*
X280976Y568548D01*
X280976Y571131D01*
X281869Y572024D01*
X294131Y572024D01*
X295024Y571131D01*
X295024Y559869D01*
X294131Y558976D01*
X281869Y558976D01*
X280976Y559869D01*
X280976Y562452D01*
X280916Y562749D01*
X280744Y562999D01*
X280489Y563163D01*
X280214Y563214D01*
X275286Y563214D01*
X274989Y563154D01*
X274739Y562982D01*
X274575Y562727D01*
X274524Y562452D01*
X274524Y559369D01*
X273631Y558476D01*
X262369Y558476D01*
G37*
G36*
X368762Y557960D02*
X368762Y564738D01*
X376040Y564738D01*
X376040Y559448D01*
X374552Y557960D01*
X368762Y557960D01*
G37*
G36*
X361448Y557960D02*
X359960Y559448D01*
X359960Y564738D01*
X367238Y564738D01*
X367238Y557960D01*
X361448Y557960D01*
G37*
G36*
X308762Y557960D02*
X308762Y564738D01*
X316040Y564738D01*
X316040Y559448D01*
X314552Y557960D01*
X308762Y557960D01*
G37*
G36*
X301448Y557960D02*
X299960Y559448D01*
X299960Y564738D01*
X307238Y564738D01*
X307238Y557960D01*
X301448Y557960D01*
G37*
G36*
X275802Y529694D02*
X272694Y532802D01*
X272694Y537198D01*
X273484Y537987D01*
X273651Y538240D01*
X273707Y538538D01*
X273642Y538835D01*
X273484Y539065D01*
X271296Y541253D01*
X271043Y541420D01*
X270757Y541476D01*
X262369Y541476D01*
X261476Y542369D01*
X261476Y554631D01*
X262369Y555524D01*
X273631Y555524D01*
X274524Y554631D01*
X274524Y546243D01*
X274584Y545946D01*
X274747Y545704D01*
X279922Y540529D01*
X280078Y540426D01*
X283306Y537198D01*
X283306Y532802D01*
X280198Y529694D01*
X275802Y529694D01*
G37*
G36*
X264460Y513762D02*
X264460Y519052D01*
X265948Y520540D01*
X271738Y520540D01*
X271738Y513762D01*
X264460Y513762D01*
G37*
G36*
X273262Y513762D02*
X273262Y520540D01*
X279052Y520540D01*
X280540Y519052D01*
X280540Y513762D01*
X273262Y513762D01*
G37*
G36*
X311504Y490842D02*
X311504Y492656D01*
X312297Y493449D01*
X312464Y493702D01*
X312520Y493988D01*
X312520Y497061D01*
X313413Y497954D01*
X318108Y497954D01*
X318405Y498014D01*
X318655Y498186D01*
X318819Y498441D01*
X318870Y498716D01*
X318870Y501581D01*
X318810Y501879D01*
X318647Y502120D01*
X317214Y503553D01*
X317214Y506714D01*
X317154Y507011D01*
X316982Y507261D01*
X316727Y507425D01*
X316452Y507476D01*
X313369Y507476D01*
X312476Y508369D01*
X312476Y519631D01*
X313369Y520524D01*
X325631Y520524D01*
X326524Y519631D01*
X326524Y508369D01*
X325631Y507476D01*
X322548Y507476D01*
X322251Y507416D01*
X322001Y507244D01*
X321837Y506989D01*
X321786Y506714D01*
X321786Y505763D01*
X321846Y505465D01*
X322009Y505224D01*
X323442Y503791D01*
X323442Y498716D01*
X323502Y498419D01*
X323674Y498169D01*
X323929Y498005D01*
X324204Y497954D01*
X328899Y497954D01*
X329792Y497061D01*
X329792Y493988D01*
X329852Y493691D01*
X330015Y493449D01*
X330808Y492656D01*
X330808Y490842D01*
X311504Y490842D01*
G37*
G36*
X249960Y476012D02*
X249960Y478552D01*
X250753Y479345D01*
X250920Y479598D01*
X250976Y479884D01*
X250976Y484728D01*
X251029Y485012D01*
X250964Y485308D01*
X250950Y485328D01*
X250916Y485499D01*
X250744Y485749D01*
X250489Y485913D01*
X250214Y485964D01*
X244786Y485964D01*
X244489Y485904D01*
X244239Y485732D01*
X244075Y485477D01*
X244024Y485202D01*
X244024Y481869D01*
X243131Y480976D01*
X231869Y480976D01*
X230976Y481869D01*
X230976Y494131D01*
X231869Y495024D01*
X243131Y495024D01*
X244024Y494131D01*
X244024Y491298D01*
X244084Y491001D01*
X244256Y490751D01*
X244511Y490587D01*
X244786Y490536D01*
X250214Y490536D01*
X250511Y490596D01*
X250761Y490768D01*
X250925Y491023D01*
X250955Y491187D01*
X250973Y491214D01*
X251029Y491512D01*
X250976Y491753D01*
X250976Y497631D01*
X251729Y498384D01*
X251896Y498637D01*
X251952Y498935D01*
X251887Y499231D01*
X251729Y499462D01*
X250694Y500496D01*
X250694Y504892D01*
X250977Y505175D01*
X251145Y505428D01*
X251200Y505726D01*
X251135Y506022D01*
X250960Y506270D01*
X250702Y506429D01*
X250439Y506476D01*
X249369Y506476D01*
X248476Y507369D01*
X248476Y518631D01*
X249369Y519524D01*
X261631Y519524D01*
X262524Y518631D01*
X262524Y507369D01*
X261631Y506476D01*
X261561Y506476D01*
X261264Y506416D01*
X261014Y506244D01*
X260851Y505989D01*
X260800Y505690D01*
X260870Y505395D01*
X261023Y505175D01*
X261306Y504892D01*
X261306Y500496D01*
X260635Y499825D01*
X260467Y499572D01*
X260412Y499274D01*
X260477Y498978D01*
X260652Y498730D01*
X260910Y498571D01*
X261173Y498524D01*
X263131Y498524D01*
X264024Y497631D01*
X264024Y491772D01*
X263971Y491488D01*
X264024Y491247D01*
X264024Y486367D01*
X264084Y486070D01*
X264256Y485820D01*
X264511Y485657D01*
X264810Y485606D01*
X265105Y485676D01*
X265325Y485829D01*
X266802Y487306D01*
X271198Y487306D01*
X274306Y484198D01*
X274306Y479802D01*
X271198Y476694D01*
X266802Y476694D01*
X266341Y477155D01*
X266088Y477323D01*
X265790Y477378D01*
X265494Y477313D01*
X265246Y477138D01*
X265087Y476880D01*
X265040Y476617D01*
X265040Y476012D01*
X249960Y476012D01*
G37*
G36*
X329948Y506460D02*
X328460Y507948D01*
X328460Y513238D01*
X335738Y513238D01*
X335738Y506460D01*
X329948Y506460D01*
G37*
G36*
X273262Y505460D02*
X273262Y512238D01*
X280540Y512238D01*
X280540Y506948D01*
X279052Y505460D01*
X273262Y505460D01*
G37*
G36*
X265948Y505460D02*
X264460Y506948D01*
X264460Y512238D01*
X271738Y512238D01*
X271738Y505460D01*
X265948Y505460D01*
G37*
G36*
X355192Y495668D02*
X355192Y497482D01*
X356680Y498970D01*
X364082Y498970D01*
X364082Y495668D01*
X355192Y495668D01*
G37*
G36*
X336802Y481694D02*
X333694Y484802D01*
X333694Y489198D01*
X336802Y492306D01*
X341198Y492306D01*
X344306Y489198D01*
X344306Y484802D01*
X341198Y481694D01*
X336802Y481694D01*
G37*
G36*
X333734Y376694D02*
X330626Y379802D01*
X330626Y384198D01*
X333734Y387306D01*
X338164Y387306D01*
X338316Y387206D01*
X338614Y387150D01*
X338910Y387215D01*
X339140Y387373D01*
X346375Y394608D01*
X346542Y394861D01*
X346598Y395147D01*
X346598Y468467D01*
X346538Y468764D01*
X346375Y469005D01*
X343578Y471802D01*
X343578Y476198D01*
X346686Y479306D01*
X351082Y479306D01*
X354190Y476198D01*
X354190Y471802D01*
X351393Y469005D01*
X351226Y468753D01*
X351170Y468467D01*
X351170Y392937D01*
X341461Y383228D01*
X341294Y382975D01*
X341238Y382689D01*
X341238Y379802D01*
X338130Y376694D01*
X333734Y376694D01*
G37*
G36*
X238262Y468762D02*
X238262Y476040D01*
X243552Y476040D01*
X245040Y474552D01*
X245040Y468762D01*
X238262Y468762D01*
G37*
G36*
X229960Y468762D02*
X229960Y474552D01*
X231448Y476040D01*
X236738Y476040D01*
X236738Y468762D01*
X229960Y468762D01*
G37*
G36*
X251448Y470460D02*
X249960Y471948D01*
X249960Y474488D01*
X256738Y474488D01*
X256738Y470460D01*
X251448Y470460D01*
G37*
G36*
X258262Y470460D02*
X258262Y474488D01*
X265040Y474488D01*
X265040Y471948D01*
X263552Y470460D01*
X258262Y470460D01*
G37*
G36*
X255802Y377694D02*
X252694Y380802D01*
X252694Y385198D01*
X255491Y387995D01*
X255658Y388247D01*
X255714Y388533D01*
X255714Y457467D01*
X255654Y457764D01*
X255491Y458005D01*
X252694Y460802D01*
X252694Y465198D01*
X255802Y468306D01*
X260198Y468306D01*
X263306Y465198D01*
X263306Y460802D01*
X260509Y458005D01*
X260342Y457753D01*
X260286Y457467D01*
X260286Y388533D01*
X260346Y388236D01*
X260509Y387995D01*
X263306Y385198D01*
X263306Y380802D01*
X260198Y377694D01*
X255802Y377694D01*
G37*
G36*
X231448Y459960D02*
X229960Y461448D01*
X229960Y467238D01*
X236738Y467238D01*
X236738Y459960D01*
X231448Y459960D01*
G37*
G36*
X238262Y459960D02*
X238262Y467238D01*
X245040Y467238D01*
X245040Y461448D01*
X243552Y459960D01*
X238262Y459960D01*
G37*
G36*
X337262Y456762D02*
X337262Y463540D01*
X343052Y463540D01*
X344540Y462052D01*
X344540Y456762D01*
X337262Y456762D01*
G37*
G36*
X328460Y456762D02*
X328460Y462052D01*
X329948Y463540D01*
X335738Y463540D01*
X335738Y456762D01*
X328460Y456762D01*
G37*
G36*
X229460Y448762D02*
X229460Y454052D01*
X230948Y455540D01*
X236738Y455540D01*
X236738Y448762D01*
X229460Y448762D01*
G37*
G36*
X238262Y448762D02*
X238262Y455540D01*
X244052Y455540D01*
X245540Y454052D01*
X245540Y448762D01*
X238262Y448762D01*
G37*
G36*
X337262Y448460D02*
X337262Y455238D01*
X344540Y455238D01*
X344540Y449948D01*
X343052Y448460D01*
X337262Y448460D01*
G37*
G36*
X329948Y448460D02*
X328460Y449948D01*
X328460Y455238D01*
X335738Y455238D01*
X335738Y448460D01*
X329948Y448460D01*
G37*
G36*
X238262Y440460D02*
X238262Y447238D01*
X245540Y447238D01*
X245540Y441948D01*
X244052Y440460D01*
X238262Y440460D01*
G37*
G36*
X230948Y440460D02*
X229460Y441948D01*
X229460Y447238D01*
X236738Y447238D01*
X236738Y440460D01*
X230948Y440460D01*
G37*
G36*
X317548Y415642D02*
X314440Y418751D01*
X314440Y423146D01*
X317548Y426254D01*
X321944Y426254D01*
X325052Y423146D01*
X325052Y418751D01*
X321944Y415642D01*
X317548Y415642D01*
G37*
G36*
X116762Y371262D02*
X116762Y378540D01*
X122052Y378540D01*
X123540Y377052D01*
X123540Y371262D01*
X116762Y371262D01*
G37*
G36*
X76762Y371262D02*
X76762Y378540D01*
X82052Y378540D01*
X83540Y377052D01*
X83540Y371262D01*
X76762Y371262D01*
G37*
G36*
X196762Y371262D02*
X196762Y378540D01*
X202052Y378540D01*
X203540Y377052D01*
X203540Y371262D01*
X196762Y371262D01*
G37*
G36*
X156762Y371262D02*
X156762Y378540D01*
X162052Y378540D01*
X163540Y377052D01*
X163540Y371262D01*
X156762Y371262D01*
G37*
G36*
X176762Y371262D02*
X176762Y378540D01*
X182052Y378540D01*
X183540Y377052D01*
X183540Y371262D01*
X176762Y371262D01*
G37*
G36*
X68460Y371262D02*
X68460Y377052D01*
X69948Y378540D01*
X75238Y378540D01*
X75238Y371262D01*
X68460Y371262D01*
G37*
G36*
X108460Y371262D02*
X108460Y377052D01*
X109948Y378540D01*
X115238Y378540D01*
X115238Y371262D01*
X108460Y371262D01*
G37*
G36*
X148460Y371262D02*
X148460Y377052D01*
X149948Y378540D01*
X155238Y378540D01*
X155238Y371262D01*
X148460Y371262D01*
G37*
G36*
X168460Y371262D02*
X168460Y377052D01*
X169948Y378540D01*
X175238Y378540D01*
X175238Y371262D01*
X168460Y371262D01*
G37*
G36*
X188460Y371262D02*
X188460Y377052D01*
X189948Y378540D01*
X195238Y378540D01*
X195238Y371262D01*
X188460Y371262D01*
G37*
G36*
X87960Y371262D02*
X87960Y376552D01*
X89448Y378040D01*
X95238Y378040D01*
X95238Y371262D01*
X87960Y371262D01*
G37*
G36*
X96762Y371262D02*
X96762Y378040D01*
X102552Y378040D01*
X104040Y376552D01*
X104040Y371262D01*
X96762Y371262D01*
G37*
G36*
X176762Y362460D02*
X176762Y369738D01*
X183540Y369738D01*
X183540Y363948D01*
X182052Y362460D01*
X176762Y362460D01*
G37*
G36*
X169948Y362460D02*
X168460Y363948D01*
X168460Y369738D01*
X175238Y369738D01*
X175238Y362460D01*
X169948Y362460D01*
G37*
G36*
X69948Y362460D02*
X68460Y363948D01*
X68460Y369738D01*
X75238Y369738D01*
X75238Y362460D01*
X69948Y362460D01*
G37*
G36*
X156762Y362460D02*
X156762Y369738D01*
X163540Y369738D01*
X163540Y363948D01*
X162052Y362460D01*
X156762Y362460D01*
G37*
G36*
X149948Y362460D02*
X148460Y363948D01*
X148460Y369738D01*
X155238Y369738D01*
X155238Y362460D01*
X149948Y362460D01*
G37*
G36*
X116762Y362460D02*
X116762Y369738D01*
X123540Y369738D01*
X123540Y363948D01*
X122052Y362460D01*
X116762Y362460D01*
G37*
G36*
X109948Y362460D02*
X108460Y363948D01*
X108460Y369738D01*
X115238Y369738D01*
X115238Y362460D01*
X109948Y362460D01*
G37*
G36*
X96762Y362960D02*
X96762Y369738D01*
X104040Y369738D01*
X104040Y364448D01*
X102552Y362960D01*
X96762Y362960D01*
G37*
G36*
X89448Y362960D02*
X87960Y364448D01*
X87960Y369738D01*
X95238Y369738D01*
X95238Y362960D01*
X89448Y362960D01*
G37*
G36*
X76762Y362460D02*
X76762Y369738D01*
X83540Y369738D01*
X83540Y363948D01*
X82052Y362460D01*
X76762Y362460D01*
G37*
G36*
X196762Y362460D02*
X196762Y369738D01*
X203540Y369738D01*
X203540Y363948D01*
X202052Y362460D01*
X196762Y362460D01*
G37*
G36*
X189948Y362460D02*
X188460Y363948D01*
X188460Y369738D01*
X195238Y369738D01*
X195238Y362460D01*
X189948Y362460D01*
G37*
%LPD*%
G36*
X296764Y98346D02*
X297005Y98509D01*
X299802Y101306D01*
X301621Y101306D01*
X301919Y101366D01*
X302169Y101538D01*
X302332Y101793D01*
X302383Y102092D01*
X302313Y102387D01*
X302160Y102607D01*
X227214Y177553D01*
X227214Y201770D01*
X227154Y202067D01*
X226991Y202309D01*
X226789Y202511D01*
X226536Y202678D01*
X226238Y202734D01*
X225942Y202669D01*
X225711Y202511D01*
X225176Y201976D01*
X220824Y201976D01*
X220289Y202511D01*
X220036Y202678D01*
X219738Y202734D01*
X219442Y202669D01*
X219211Y202511D01*
X218676Y201976D01*
X214324Y201976D01*
X213789Y202511D01*
X213536Y202678D01*
X213238Y202734D01*
X212942Y202669D01*
X212711Y202511D01*
X212176Y201976D01*
X207824Y201976D01*
X207595Y202205D01*
X207342Y202372D01*
X207044Y202428D01*
X206748Y202363D01*
X206500Y202188D01*
X206341Y201929D01*
X206294Y201666D01*
X206294Y199525D01*
X206354Y199228D01*
X206517Y198987D01*
X208306Y197198D01*
X208306Y192802D01*
X206329Y190825D01*
X206161Y190572D01*
X206106Y190274D01*
X206171Y189978D01*
X206346Y189730D01*
X206604Y189571D01*
X206867Y189524D01*
X208631Y189524D01*
X209524Y188631D01*
X209524Y176369D01*
X208631Y175476D01*
X197369Y175476D01*
X196476Y176369D01*
X196476Y188631D01*
X197369Y189524D01*
X199133Y189524D01*
X199430Y189584D01*
X199680Y189756D01*
X199843Y190011D01*
X199894Y190310D01*
X199824Y190605D01*
X199671Y190825D01*
X197694Y192802D01*
X197694Y197198D01*
X200155Y199659D01*
X200323Y199912D01*
X200378Y200210D01*
X200313Y200506D01*
X200138Y200754D01*
X199880Y200913D01*
X199617Y200960D01*
X197762Y200960D01*
X197762Y207762D01*
X196238Y207762D01*
X196238Y200960D01*
X194403Y200960D01*
X194087Y201276D01*
X193834Y201444D01*
X193536Y201499D01*
X193240Y201434D01*
X192992Y201259D01*
X192833Y201001D01*
X192786Y200737D01*
X192786Y200553D01*
X188947Y196714D01*
X171053Y196714D01*
X163714Y204053D01*
X163714Y239467D01*
X163654Y239764D01*
X163491Y240005D01*
X160694Y242802D01*
X160694Y247198D01*
X163802Y250306D01*
X168198Y250306D01*
X171306Y247198D01*
X171306Y242802D01*
X168509Y240005D01*
X168342Y239753D01*
X168286Y239467D01*
X168286Y225629D01*
X168346Y225332D01*
X168518Y225082D01*
X168773Y224919D01*
X169072Y224868D01*
X169367Y224938D01*
X169587Y225091D01*
X170802Y226306D01*
X175198Y226306D01*
X176675Y224829D01*
X176928Y224661D01*
X177226Y224606D01*
X177522Y224671D01*
X177770Y224846D01*
X177929Y225104D01*
X177976Y225367D01*
X177976Y229831D01*
X178016Y230044D01*
X177951Y230340D01*
X177793Y230570D01*
X176960Y231403D01*
X176960Y233238D01*
X183762Y233238D01*
X183762Y234762D01*
X176960Y234762D01*
X176960Y236597D01*
X177074Y236711D01*
X177242Y236964D01*
X177297Y237262D01*
X177232Y237558D01*
X177074Y237789D01*
X176960Y237903D01*
X176960Y239738D01*
X183762Y239738D01*
X183762Y241262D01*
X176960Y241262D01*
X176960Y243097D01*
X177074Y243211D01*
X177242Y243464D01*
X177297Y243762D01*
X177232Y244058D01*
X177074Y244289D01*
X176960Y244403D01*
X176960Y246238D01*
X183762Y246238D01*
X183762Y247762D01*
X176960Y247762D01*
X176960Y249597D01*
X177276Y249913D01*
X177444Y250166D01*
X177499Y250464D01*
X177434Y250760D01*
X177259Y251008D01*
X177001Y251167D01*
X176737Y251214D01*
X173553Y251214D01*
X161714Y263053D01*
X161714Y285467D01*
X161654Y285764D01*
X161491Y286005D01*
X158694Y288802D01*
X158694Y293198D01*
X161802Y296306D01*
X166198Y296306D01*
X169306Y293198D01*
X169306Y288802D01*
X166509Y286005D01*
X166342Y285753D01*
X166286Y285467D01*
X166286Y265263D01*
X166346Y264965D01*
X166509Y264724D01*
X175224Y256009D01*
X175477Y255842D01*
X175763Y255786D01*
X177770Y255786D01*
X178067Y255846D01*
X178309Y256009D01*
X179074Y256774D01*
X186464Y256774D01*
X186761Y256834D01*
X187011Y257006D01*
X187175Y257261D01*
X187226Y257536D01*
X187226Y264926D01*
X188324Y266024D01*
X192676Y266024D01*
X193211Y265489D01*
X193464Y265322D01*
X193762Y265266D01*
X194058Y265331D01*
X194289Y265489D01*
X194824Y266024D01*
X199176Y266024D01*
X199711Y265489D01*
X199964Y265322D01*
X200262Y265266D01*
X200558Y265331D01*
X200789Y265489D01*
X200991Y265691D01*
X201158Y265944D01*
X201214Y266230D01*
X201214Y274169D01*
X201154Y274467D01*
X200991Y274708D01*
X149296Y326403D01*
X149043Y326570D01*
X148757Y326626D01*
X144802Y326626D01*
X141694Y329734D01*
X141694Y334130D01*
X141977Y334413D01*
X142145Y334666D01*
X142200Y334964D01*
X142135Y335260D01*
X141960Y335508D01*
X141702Y335667D01*
X141439Y335714D01*
X105053Y335714D01*
X102296Y338471D01*
X102043Y338638D01*
X101757Y338694D01*
X99649Y338694D01*
X99352Y338634D01*
X99102Y338462D01*
X98939Y338207D01*
X98888Y337908D01*
X98958Y337613D01*
X99111Y337393D01*
X101306Y335198D01*
X101306Y330802D01*
X98198Y327694D01*
X97717Y327694D01*
X97420Y327634D01*
X97170Y327462D01*
X97007Y327207D01*
X96956Y326908D01*
X97026Y326613D01*
X97179Y326393D01*
X97374Y326198D01*
X97374Y321802D01*
X94577Y319005D01*
X94410Y318753D01*
X94354Y318467D01*
X94354Y134195D01*
X94414Y133897D01*
X94577Y133656D01*
X129724Y98509D01*
X129977Y98342D01*
X130263Y98286D01*
X296467Y98286D01*
X296764Y98346D01*
G37*
%LPC*%
G36*
X150802Y239694D02*
X147694Y242802D01*
X147694Y247198D01*
X150802Y250306D01*
X155198Y250306D01*
X158306Y247198D01*
X158306Y242802D01*
X155198Y239694D01*
X150802Y239694D01*
G37*
G36*
X102802Y225694D02*
X99694Y228802D01*
X99694Y233198D01*
X102802Y236306D01*
X107198Y236306D01*
X110306Y233198D01*
X110306Y228802D01*
X107198Y225694D01*
X102802Y225694D01*
G37*
G36*
X101802Y165694D02*
X98694Y168802D01*
X98694Y173198D01*
X101802Y176306D01*
X106198Y176306D01*
X109306Y173198D01*
X109306Y168802D01*
X106198Y165694D01*
X101802Y165694D01*
G37*
G36*
X203762Y166262D02*
X203762Y173540D01*
X209052Y173540D01*
X210540Y172052D01*
X210540Y166262D01*
X203762Y166262D01*
G37*
G36*
X195460Y166262D02*
X195460Y172052D01*
X196948Y173540D01*
X202238Y173540D01*
X202238Y166262D01*
X195460Y166262D01*
G37*
G36*
X196948Y157460D02*
X195460Y158948D01*
X195460Y164738D01*
X202238Y164738D01*
X202238Y157460D01*
X196948Y157460D01*
G37*
G36*
X203762Y157460D02*
X203762Y164738D01*
X210540Y164738D01*
X210540Y158948D01*
X209052Y157460D01*
X203762Y157460D01*
G37*
G36*
X158802Y120694D02*
X155694Y123802D01*
X155694Y128198D01*
X157957Y130461D01*
X158125Y130714D01*
X158180Y131012D01*
X158115Y131308D01*
X157957Y131539D01*
X155694Y133802D01*
X155694Y138198D01*
X158802Y141306D01*
X163198Y141306D01*
X165461Y139043D01*
X165714Y138875D01*
X166012Y138820D01*
X166308Y138885D01*
X166539Y139043D01*
X168802Y141306D01*
X173198Y141306D01*
X176306Y138198D01*
X176306Y133802D01*
X174043Y131539D01*
X173875Y131286D01*
X173820Y130988D01*
X173885Y130692D01*
X174043Y130461D01*
X176306Y128198D01*
X176306Y123802D01*
X173198Y120694D01*
X168802Y120694D01*
X166539Y122957D01*
X166286Y123125D01*
X165988Y123180D01*
X165692Y123115D01*
X165461Y122957D01*
X163198Y120694D01*
X158802Y120694D01*
G37*
G36*
X130802Y120694D02*
X127694Y123802D01*
X127694Y128198D01*
X129957Y130461D01*
X130125Y130714D01*
X130180Y131012D01*
X130115Y131308D01*
X129957Y131539D01*
X127694Y133802D01*
X127694Y138198D01*
X130802Y141306D01*
X135198Y141306D01*
X137461Y139043D01*
X137714Y138875D01*
X138012Y138820D01*
X138308Y138885D01*
X138539Y139043D01*
X140802Y141306D01*
X145198Y141306D01*
X148306Y138198D01*
X148306Y133802D01*
X146043Y131539D01*
X145875Y131286D01*
X145820Y130988D01*
X145885Y130692D01*
X146043Y130461D01*
X148306Y128198D01*
X148306Y123802D01*
X145198Y120694D01*
X140802Y120694D01*
X138539Y122957D01*
X138286Y123125D01*
X137988Y123180D01*
X137692Y123115D01*
X137461Y122957D01*
X135198Y120694D01*
X130802Y120694D01*
G37*
%LPD*%
D10*
X268000Y548500D03*
X268000Y565500D03*
X328000Y548500D03*
X328000Y565500D03*
D11*
X319500Y456000D03*
X336500Y456000D03*
X319500Y514000D03*
X336500Y514000D03*
D10*
X203000Y165500D03*
X203000Y182500D03*
D11*
X272500Y513000D03*
X255500Y513000D03*
X220500Y448000D03*
X237500Y448000D03*
D10*
X156000Y370500D03*
X156000Y387500D03*
X116000Y370500D03*
X116000Y387500D03*
X176000Y370500D03*
X176000Y387500D03*
X76000Y370500D03*
X76000Y387500D03*
X36000Y370500D03*
X36000Y387500D03*
D11*
X174500Y504000D03*
X191500Y504000D03*
D10*
X52000Y528500D03*
X52000Y545500D03*
X196000Y387500D03*
X196000Y370500D03*
X16000Y387500D03*
X16000Y370500D03*
X72000Y528500D03*
X72000Y545500D03*
D12*
X298500Y494750D03*
X298500Y488250D03*
X298500Y481750D03*
X298500Y475250D03*
X257500Y475250D03*
X257500Y481750D03*
X257500Y488250D03*
X257500Y494750D03*
D13*
X230900Y210150D02*
X230900Y203850D01*
X228100Y203850D01*
X228100Y210150D01*
X230900Y210150D01*
X230900Y204515D02*
X228100Y204515D01*
X228100Y205180D02*
X230900Y205180D01*
X230900Y205845D02*
X228100Y205845D01*
X228100Y206510D02*
X230900Y206510D01*
X230900Y207175D02*
X228100Y207175D01*
X228100Y207840D02*
X230900Y207840D01*
X230900Y208505D02*
X228100Y208505D01*
X228100Y209170D02*
X230900Y209170D01*
X230900Y209835D02*
X228100Y209835D01*
X224400Y210150D02*
X224400Y203850D01*
X221600Y203850D01*
X221600Y210150D01*
X224400Y210150D01*
X224400Y204515D02*
X221600Y204515D01*
X221600Y205180D02*
X224400Y205180D01*
X224400Y205845D02*
X221600Y205845D01*
X221600Y206510D02*
X224400Y206510D01*
X224400Y207175D02*
X221600Y207175D01*
X221600Y207840D02*
X224400Y207840D01*
X224400Y208505D02*
X221600Y208505D01*
X221600Y209170D02*
X224400Y209170D01*
X224400Y209835D02*
X221600Y209835D01*
X217900Y210150D02*
X217900Y203850D01*
X215100Y203850D01*
X215100Y210150D01*
X217900Y210150D01*
X217900Y204515D02*
X215100Y204515D01*
X215100Y205180D02*
X217900Y205180D01*
X217900Y205845D02*
X215100Y205845D01*
X215100Y206510D02*
X217900Y206510D01*
X217900Y207175D02*
X215100Y207175D01*
X215100Y207840D02*
X217900Y207840D01*
X217900Y208505D02*
X215100Y208505D01*
X215100Y209170D02*
X217900Y209170D01*
X217900Y209835D02*
X215100Y209835D01*
X211400Y210150D02*
X211400Y203850D01*
X208600Y203850D01*
X208600Y210150D01*
X211400Y210150D01*
X211400Y204515D02*
X208600Y204515D01*
X208600Y205180D02*
X211400Y205180D01*
X211400Y205845D02*
X208600Y205845D01*
X208600Y206510D02*
X211400Y206510D01*
X211400Y207175D02*
X208600Y207175D01*
X208600Y207840D02*
X211400Y207840D01*
X211400Y208505D02*
X208600Y208505D01*
X208600Y209170D02*
X211400Y209170D01*
X211400Y209835D02*
X208600Y209835D01*
X204900Y210150D02*
X204900Y203850D01*
X202100Y203850D01*
X202100Y210150D01*
X204900Y210150D01*
X204900Y204515D02*
X202100Y204515D01*
X202100Y205180D02*
X204900Y205180D01*
X204900Y205845D02*
X202100Y205845D01*
X202100Y206510D02*
X204900Y206510D01*
X204900Y207175D02*
X202100Y207175D01*
X202100Y207840D02*
X204900Y207840D01*
X204900Y208505D02*
X202100Y208505D01*
X202100Y209170D02*
X204900Y209170D01*
X204900Y209835D02*
X202100Y209835D01*
X198400Y210150D02*
X198400Y203850D01*
X195600Y203850D01*
X195600Y210150D01*
X198400Y210150D01*
X198400Y204515D02*
X195600Y204515D01*
X195600Y205180D02*
X198400Y205180D01*
X198400Y205845D02*
X195600Y205845D01*
X195600Y206510D02*
X198400Y206510D01*
X198400Y207175D02*
X195600Y207175D01*
X195600Y207840D02*
X198400Y207840D01*
X198400Y208505D02*
X195600Y208505D01*
X195600Y209170D02*
X198400Y209170D01*
X198400Y209835D02*
X195600Y209835D01*
X191900Y210150D02*
X191900Y203850D01*
X189100Y203850D01*
X189100Y210150D01*
X191900Y210150D01*
X191900Y204515D02*
X189100Y204515D01*
X189100Y205180D02*
X191900Y205180D01*
X191900Y205845D02*
X189100Y205845D01*
X189100Y206510D02*
X191900Y206510D01*
X191900Y207175D02*
X189100Y207175D01*
X189100Y207840D02*
X191900Y207840D01*
X191900Y208505D02*
X189100Y208505D01*
X189100Y209170D02*
X191900Y209170D01*
X191900Y209835D02*
X189100Y209835D01*
X186150Y213100D02*
X186150Y215900D01*
X186150Y213100D02*
X179850Y213100D01*
X179850Y215900D01*
X186150Y215900D01*
X186150Y213765D02*
X179850Y213765D01*
X179850Y214430D02*
X186150Y214430D01*
X186150Y215095D02*
X179850Y215095D01*
X179850Y215760D02*
X186150Y215760D01*
X186150Y219600D02*
X186150Y222400D01*
X186150Y219600D02*
X179850Y219600D01*
X179850Y222400D01*
X186150Y222400D01*
X186150Y220265D02*
X179850Y220265D01*
X179850Y220930D02*
X186150Y220930D01*
X186150Y221595D02*
X179850Y221595D01*
X179850Y222260D02*
X186150Y222260D01*
X186150Y226100D02*
X186150Y228900D01*
X186150Y226100D02*
X179850Y226100D01*
X179850Y228900D01*
X186150Y228900D01*
X186150Y226765D02*
X179850Y226765D01*
X179850Y227430D02*
X186150Y227430D01*
X186150Y228095D02*
X179850Y228095D01*
X179850Y228760D02*
X186150Y228760D01*
X186150Y232600D02*
X186150Y235400D01*
X186150Y232600D02*
X179850Y232600D01*
X179850Y235400D01*
X186150Y235400D01*
X186150Y233265D02*
X179850Y233265D01*
X179850Y233930D02*
X186150Y233930D01*
X186150Y234595D02*
X179850Y234595D01*
X179850Y235260D02*
X186150Y235260D01*
X186150Y239100D02*
X186150Y241900D01*
X186150Y239100D02*
X179850Y239100D01*
X179850Y241900D01*
X186150Y241900D01*
X186150Y239765D02*
X179850Y239765D01*
X179850Y240430D02*
X186150Y240430D01*
X186150Y241095D02*
X179850Y241095D01*
X179850Y241760D02*
X186150Y241760D01*
X186150Y245600D02*
X186150Y248400D01*
X186150Y245600D02*
X179850Y245600D01*
X179850Y248400D01*
X186150Y248400D01*
X186150Y246265D02*
X179850Y246265D01*
X179850Y246930D02*
X186150Y246930D01*
X186150Y247595D02*
X179850Y247595D01*
X179850Y248260D02*
X186150Y248260D01*
X186150Y252100D02*
X186150Y254900D01*
X186150Y252100D02*
X179850Y252100D01*
X179850Y254900D01*
X186150Y254900D01*
X186150Y252765D02*
X179850Y252765D01*
X179850Y253430D02*
X186150Y253430D01*
X186150Y254095D02*
X179850Y254095D01*
X179850Y254760D02*
X186150Y254760D01*
X191900Y257850D02*
X191900Y264150D01*
X191900Y257850D02*
X189100Y257850D01*
X189100Y264150D01*
X191900Y264150D01*
X191900Y258515D02*
X189100Y258515D01*
X189100Y259180D02*
X191900Y259180D01*
X191900Y259845D02*
X189100Y259845D01*
X189100Y260510D02*
X191900Y260510D01*
X191900Y261175D02*
X189100Y261175D01*
X189100Y261840D02*
X191900Y261840D01*
X191900Y262505D02*
X189100Y262505D01*
X189100Y263170D02*
X191900Y263170D01*
X191900Y263835D02*
X189100Y263835D01*
X198400Y264150D02*
X198400Y257850D01*
X195600Y257850D01*
X195600Y264150D01*
X198400Y264150D01*
X198400Y258515D02*
X195600Y258515D01*
X195600Y259180D02*
X198400Y259180D01*
X198400Y259845D02*
X195600Y259845D01*
X195600Y260510D02*
X198400Y260510D01*
X198400Y261175D02*
X195600Y261175D01*
X195600Y261840D02*
X198400Y261840D01*
X198400Y262505D02*
X195600Y262505D01*
X195600Y263170D02*
X198400Y263170D01*
X198400Y263835D02*
X195600Y263835D01*
X204900Y264150D02*
X204900Y257850D01*
X202100Y257850D01*
X202100Y264150D01*
X204900Y264150D01*
X204900Y258515D02*
X202100Y258515D01*
X202100Y259180D02*
X204900Y259180D01*
X204900Y259845D02*
X202100Y259845D01*
X202100Y260510D02*
X204900Y260510D01*
X204900Y261175D02*
X202100Y261175D01*
X202100Y261840D02*
X204900Y261840D01*
X204900Y262505D02*
X202100Y262505D01*
X202100Y263170D02*
X204900Y263170D01*
X204900Y263835D02*
X202100Y263835D01*
X211400Y264150D02*
X211400Y257850D01*
X208600Y257850D01*
X208600Y264150D01*
X211400Y264150D01*
X211400Y258515D02*
X208600Y258515D01*
X208600Y259180D02*
X211400Y259180D01*
X211400Y259845D02*
X208600Y259845D01*
X208600Y260510D02*
X211400Y260510D01*
X211400Y261175D02*
X208600Y261175D01*
X208600Y261840D02*
X211400Y261840D01*
X211400Y262505D02*
X208600Y262505D01*
X208600Y263170D02*
X211400Y263170D01*
X211400Y263835D02*
X208600Y263835D01*
X217900Y264150D02*
X217900Y257850D01*
X215100Y257850D01*
X215100Y264150D01*
X217900Y264150D01*
X217900Y258515D02*
X215100Y258515D01*
X215100Y259180D02*
X217900Y259180D01*
X217900Y259845D02*
X215100Y259845D01*
X215100Y260510D02*
X217900Y260510D01*
X217900Y261175D02*
X215100Y261175D01*
X215100Y261840D02*
X217900Y261840D01*
X217900Y262505D02*
X215100Y262505D01*
X215100Y263170D02*
X217900Y263170D01*
X217900Y263835D02*
X215100Y263835D01*
X224400Y264150D02*
X224400Y257850D01*
X221600Y257850D01*
X221600Y264150D01*
X224400Y264150D01*
X224400Y258515D02*
X221600Y258515D01*
X221600Y259180D02*
X224400Y259180D01*
X224400Y259845D02*
X221600Y259845D01*
X221600Y260510D02*
X224400Y260510D01*
X224400Y261175D02*
X221600Y261175D01*
X221600Y261840D02*
X224400Y261840D01*
X224400Y262505D02*
X221600Y262505D01*
X221600Y263170D02*
X224400Y263170D01*
X224400Y263835D02*
X221600Y263835D01*
X230900Y264150D02*
X230900Y257850D01*
X228100Y257850D01*
X228100Y264150D01*
X230900Y264150D01*
X230900Y258515D02*
X228100Y258515D01*
X228100Y259180D02*
X230900Y259180D01*
X230900Y259845D02*
X228100Y259845D01*
X228100Y260510D02*
X230900Y260510D01*
X230900Y261175D02*
X228100Y261175D01*
X228100Y261840D02*
X230900Y261840D01*
X230900Y262505D02*
X228100Y262505D01*
X228100Y263170D02*
X230900Y263170D01*
X230900Y263835D02*
X228100Y263835D01*
X240150Y254900D02*
X240150Y252100D01*
X233850Y252100D01*
X233850Y254900D01*
X240150Y254900D01*
X240150Y252765D02*
X233850Y252765D01*
X233850Y253430D02*
X240150Y253430D01*
X240150Y254095D02*
X233850Y254095D01*
X233850Y254760D02*
X240150Y254760D01*
X240150Y248400D02*
X240150Y245600D01*
X233850Y245600D01*
X233850Y248400D01*
X240150Y248400D01*
X240150Y246265D02*
X233850Y246265D01*
X233850Y246930D02*
X240150Y246930D01*
X240150Y247595D02*
X233850Y247595D01*
X233850Y248260D02*
X240150Y248260D01*
X240150Y241900D02*
X240150Y239100D01*
X233850Y239100D01*
X233850Y241900D01*
X240150Y241900D01*
X240150Y239765D02*
X233850Y239765D01*
X233850Y240430D02*
X240150Y240430D01*
X240150Y241095D02*
X233850Y241095D01*
X233850Y241760D02*
X240150Y241760D01*
X240150Y235400D02*
X240150Y232600D01*
X233850Y232600D01*
X233850Y235400D01*
X240150Y235400D01*
X240150Y233265D02*
X233850Y233265D01*
X233850Y233930D02*
X240150Y233930D01*
X240150Y234595D02*
X233850Y234595D01*
X233850Y235260D02*
X240150Y235260D01*
X240150Y228900D02*
X240150Y226100D01*
X233850Y226100D01*
X233850Y228900D01*
X240150Y228900D01*
X240150Y226765D02*
X233850Y226765D01*
X233850Y227430D02*
X240150Y227430D01*
X240150Y228095D02*
X233850Y228095D01*
X233850Y228760D02*
X240150Y228760D01*
X240150Y222400D02*
X240150Y219600D01*
X233850Y219600D01*
X233850Y222400D01*
X240150Y222400D01*
X240150Y220265D02*
X233850Y220265D01*
X233850Y220930D02*
X240150Y220930D01*
X240150Y221595D02*
X233850Y221595D01*
X233850Y222260D02*
X240150Y222260D01*
X240150Y215900D02*
X240150Y213100D01*
X233850Y213100D01*
X233850Y215900D01*
X240150Y215900D01*
X240150Y213765D02*
X233850Y213765D01*
X233850Y214430D02*
X240150Y214430D01*
X240150Y215095D02*
X233850Y215095D01*
X233850Y215760D02*
X240150Y215760D01*
D14*
X224800Y219200D02*
X224800Y248800D01*
X224800Y219200D02*
X195200Y219200D01*
X195200Y248800D01*
X224800Y248800D01*
X224800Y226230D02*
X195200Y226230D01*
X195200Y233260D02*
X224800Y233260D01*
X224800Y240290D02*
X195200Y240290D01*
X195200Y247320D02*
X224800Y247320D01*
D15*
X68750Y431440D03*
X75250Y431440D03*
X81750Y431440D03*
X88250Y431440D03*
X94750Y431440D03*
X101250Y431440D03*
X107750Y431440D03*
X120750Y431440D03*
X114250Y431440D03*
X127250Y431440D03*
X133750Y431440D03*
X140250Y431440D03*
X146750Y431440D03*
X153250Y431440D03*
X68750Y504560D03*
X75250Y504560D03*
X81750Y504560D03*
X88250Y504560D03*
X94750Y504560D03*
X101250Y504560D03*
X107750Y504560D03*
X114250Y504560D03*
X120750Y504560D03*
X127250Y504560D03*
X133750Y504560D03*
X140250Y504560D03*
X146750Y504560D03*
X153250Y504560D03*
D16*
X25750Y53090D02*
X25750Y41510D01*
X74250Y41510D02*
X74250Y53090D01*
D17*
X22750Y23040D02*
X22750Y10960D01*
X77250Y10960D02*
X77250Y23040D01*
D18*
X25750Y42050D02*
X25750Y52550D01*
X74250Y52550D02*
X74250Y42050D01*
D19*
X189500Y476500D03*
X189500Y459500D03*
X176500Y459500D03*
X176500Y476500D03*
D11*
X288000Y548500D03*
X288000Y565500D03*
X308000Y565500D03*
X308000Y548500D03*
X348000Y548500D03*
X348000Y565500D03*
X368000Y565500D03*
X368000Y548500D03*
D10*
X368500Y514000D03*
X351500Y514000D03*
X220500Y488000D03*
X237500Y488000D03*
X237500Y468000D03*
X220500Y468000D03*
D11*
X136000Y387500D03*
X136000Y370500D03*
X96000Y387500D03*
X96000Y370500D03*
X56000Y370500D03*
X56000Y387500D03*
D20*
X321156Y475094D03*
X321156Y479920D03*
X321156Y485000D03*
X321156Y490080D03*
X321156Y494906D03*
X364844Y494906D03*
X364844Y490080D03*
X364844Y485000D03*
X364844Y479920D03*
X364844Y475094D03*
D21*
X216000Y104000D03*
X203000Y104000D03*
X203000Y81000D03*
X216000Y81000D03*
X64000Y220000D03*
X55000Y229000D03*
X64000Y242000D03*
X73000Y233000D03*
X223000Y511000D03*
X223000Y501000D03*
X213000Y511000D03*
X213000Y501000D03*
X224000Y550000D03*
X234000Y550000D03*
X244000Y550000D03*
X214000Y550000D03*
X330000Y295000D03*
X320000Y295000D03*
X343000Y274000D03*
X353000Y274000D03*
X9000Y591000D03*
X391000Y591000D03*
X391000Y9000D03*
X391000Y19000D03*
X391000Y29000D03*
X381000Y9000D03*
X371000Y9000D03*
X391000Y288000D03*
X391000Y278000D03*
X391000Y268000D03*
X391000Y258000D03*
X391000Y248000D03*
X391000Y238000D03*
X391000Y228000D03*
X391000Y218000D03*
X53000Y487000D03*
X53000Y469000D03*
X53000Y450000D03*
X120000Y487000D03*
X120000Y468000D03*
X120000Y450000D03*
X282000Y460000D03*
X292000Y460000D03*
X302000Y460000D03*
X282000Y450000D03*
X292000Y450000D03*
X302000Y450000D03*
X302000Y132000D03*
X294000Y80000D03*
X161000Y136000D03*
X161000Y126000D03*
X171000Y136000D03*
X171000Y126000D03*
X105000Y231000D03*
X164000Y291000D03*
X163000Y476000D03*
D22*
X163500Y476500D01*
X176500Y476500D01*
X176500Y502000D02*
X174500Y504000D01*
X176500Y502000D02*
X176500Y490000D01*
X176500Y476500D01*
D23*
X176500Y490000D02*
X185000Y490000D01*
X189500Y485500D01*
X189500Y476500D01*
D22*
X68750Y504560D02*
X59440Y504560D01*
X59000Y505000D01*
D21*
X59000Y505000D03*
D22*
X52000Y512000D01*
X52000Y528500D01*
X75250Y513750D02*
X75250Y504560D01*
X75250Y513750D02*
X72000Y517000D01*
D21*
X72000Y517000D03*
D22*
X72000Y528500D01*
X133750Y431440D02*
X134000Y431190D01*
X134000Y423000D01*
X137000Y420000D01*
X164000Y420000D01*
D21*
X164000Y420000D03*
D22*
X180000Y420000D01*
X196000Y404000D01*
X196000Y387500D01*
D24*
X203500Y207000D02*
X203500Y195500D01*
X203000Y195000D01*
D21*
X203000Y195000D03*
D24*
X203000Y182500D01*
D23*
X164000Y264000D02*
X164000Y291000D01*
X164000Y264000D02*
X174500Y253500D01*
X183000Y253500D01*
D21*
X36000Y431000D03*
X136000Y360068D03*
D23*
X136000Y370500D01*
D21*
X29068Y347000D03*
D22*
X16000Y387500D02*
X16000Y411000D01*
X36000Y431000D01*
X36440Y431440D02*
X68750Y431440D01*
X36440Y431440D02*
X36000Y431000D01*
D21*
X36000Y205000D03*
X63000Y328000D03*
X364000Y143000D03*
D23*
X277000Y143000D01*
X243000Y221000D02*
X237000Y221000D01*
X243000Y221000D02*
X243932Y220068D01*
X243932Y176068D02*
X277000Y143000D01*
X243932Y176068D02*
X243932Y220068D01*
D21*
X364000Y123000D03*
X113000Y581000D03*
D23*
X364844Y479920D02*
X377080Y479920D01*
X382000Y475000D01*
D21*
X304000Y206000D03*
D23*
X183000Y214500D02*
X176500Y214500D01*
X173000Y211000D01*
D21*
X173000Y211000D03*
X382068Y475000D03*
D23*
X382000Y475000D01*
D21*
X254000Y211000D03*
X254000Y228000D03*
X364000Y103000D03*
D23*
X311000Y103000D01*
X237000Y177000D01*
X237000Y214500D01*
D21*
X364000Y93000D03*
D23*
X315000Y93000D01*
X229500Y178500D01*
X229500Y207000D01*
D21*
X364000Y133000D03*
X96000Y333000D03*
D23*
X86000Y134000D02*
X131000Y89000D01*
X300000Y89000D01*
X303000Y86000D01*
X367000Y86000D01*
X372000Y91000D01*
X372000Y125000D01*
X364000Y133000D01*
X86000Y134000D02*
X86000Y329000D01*
X90000Y333000D01*
X96000Y333000D01*
D21*
X302000Y96000D03*
D23*
X129000Y96000D01*
X92068Y132932D01*
D21*
X92068Y324000D03*
D23*
X92068Y132932D01*
D21*
X31000Y83000D03*
X21000Y83000D03*
X31000Y73000D03*
X21000Y73000D03*
X104000Y171000D03*
X133000Y136000D03*
X143000Y136000D03*
X143000Y126000D03*
X133000Y126000D03*
X317000Y236000D03*
X153000Y245000D03*
X256000Y502694D03*
D23*
X255500Y503194D01*
X255500Y513000D01*
X256000Y502694D02*
X257500Y501194D01*
X257500Y494750D01*
D21*
X319000Y467000D03*
D23*
X319000Y456500D02*
X319500Y456000D01*
X319000Y456500D02*
X319000Y467000D01*
X321156Y469156D02*
X321156Y475094D01*
X321156Y469156D02*
X319000Y467000D01*
D21*
X388000Y512000D03*
X388000Y502000D03*
X319746Y420948D03*
X280709Y306291D03*
D23*
X351500Y514000D02*
X351500Y520500D01*
X355000Y524000D01*
X384000Y524000D01*
X388000Y520000D01*
X388000Y512000D01*
D21*
X388068Y555000D03*
X388068Y545000D03*
X378000Y402000D03*
D24*
X268750Y481750D02*
X257500Y481750D01*
X268750Y481750D02*
X269000Y482000D01*
D21*
X269000Y482000D03*
X302000Y285000D03*
X248000Y321000D03*
X248000Y329932D03*
X218000Y403000D03*
X296000Y357068D03*
D23*
X271553Y357068D01*
X270573Y358048D01*
X262952Y358048D01*
X218000Y403000D01*
D21*
X364000Y113000D03*
X31000Y581000D03*
D23*
X364844Y485000D02*
X382000Y485000D01*
D21*
X382000Y485000D03*
X294000Y206000D03*
D23*
X183000Y221000D02*
X173000Y221000D01*
D21*
X173000Y221000D03*
X314000Y206000D03*
D23*
X349000Y206000D01*
X373000Y230000D01*
X373000Y333000D01*
X368000Y338000D01*
D21*
X100000Y344000D03*
D23*
X106000Y338000D01*
X368000Y338000D01*
X364844Y490080D02*
X375080Y490080D01*
X377000Y492000D01*
X377000Y512000D01*
X375000Y514000D01*
X368500Y514000D01*
X319500Y514000D02*
X319500Y504500D01*
X321156Y502844D01*
X321156Y494906D01*
X140250Y491750D02*
X140250Y504560D01*
X140250Y491750D02*
X142000Y490000D01*
D21*
X142000Y490000D03*
D23*
X133750Y491750D02*
X133750Y504560D01*
X133750Y491750D02*
X132000Y490000D01*
D21*
X132000Y490000D03*
D23*
X127250Y504560D02*
X127250Y513250D01*
X147000Y533000D01*
D21*
X147000Y533000D03*
D23*
X120750Y515750D02*
X120750Y504560D01*
D21*
X137912Y533000D03*
D23*
X137912Y532912D02*
X120750Y515750D01*
X137912Y532912D02*
X137912Y533000D01*
X114250Y518250D02*
X114250Y504560D01*
D21*
X128824Y533000D03*
D23*
X128824Y532824D02*
X114250Y518250D01*
X128824Y532824D02*
X128824Y533000D01*
X107750Y520750D02*
X107750Y504560D01*
D21*
X119736Y533000D03*
D23*
X119736Y532736D02*
X107750Y520750D01*
X119736Y532736D02*
X119736Y533000D01*
X101250Y523250D02*
X101250Y504560D01*
D21*
X110648Y533000D03*
D23*
X110648Y532648D02*
X101250Y523250D01*
X110648Y532648D02*
X110648Y533000D01*
X94750Y525750D02*
X94750Y504560D01*
D21*
X101560Y533000D03*
D23*
X101560Y532560D02*
X94750Y525750D01*
X101560Y532560D02*
X101560Y533000D01*
X88250Y528250D02*
X88250Y504560D01*
D21*
X92472Y533000D03*
D23*
X92472Y532472D02*
X88250Y528250D01*
X92472Y532472D02*
X92472Y533000D01*
X81750Y530750D02*
X81750Y504560D01*
D21*
X83384Y533000D03*
D23*
X83384Y532384D02*
X81750Y530750D01*
X83384Y532384D02*
X83384Y533000D01*
X81750Y431440D02*
X81750Y422750D01*
X70000Y411000D01*
X61000Y411000D01*
X56000Y406000D01*
X56000Y387500D01*
X36000Y387500D02*
X36000Y406000D01*
X45000Y415000D01*
X68000Y415000D01*
X75250Y422250D01*
X75250Y431440D01*
X36000Y387500D02*
X53000Y370500D01*
X56000Y370500D01*
X136000Y387500D02*
X156000Y387500D01*
X107750Y423250D02*
X107750Y431440D01*
X107750Y423250D02*
X122000Y409000D01*
X130000Y409000D01*
X136000Y403000D01*
X136000Y387500D01*
X116000Y387500D02*
X96000Y387500D01*
X94750Y388750D01*
X94750Y431440D01*
X146750Y431440D02*
X146750Y446750D01*
X152000Y452000D01*
D21*
X152000Y452000D03*
X157000Y331932D03*
D23*
X210000Y278932D01*
X210000Y261000D01*
X140250Y431440D02*
X140250Y449250D01*
D21*
X142912Y452000D03*
D23*
X142912Y451912D02*
X140250Y449250D01*
X142912Y451912D02*
X142912Y452000D01*
D21*
X147000Y331932D03*
D23*
X203500Y275432D01*
X203500Y261000D01*
X88250Y422250D02*
X88250Y431440D01*
X88250Y422250D02*
X76000Y410000D01*
X76000Y387500D01*
X114250Y422750D02*
X114250Y431440D01*
X114250Y422750D02*
X124000Y413000D01*
X169000Y413000D01*
X176000Y406000D01*
X176000Y387500D01*
X153250Y431440D02*
X153250Y442250D01*
X171000Y460000D01*
X176000Y460000D01*
X176500Y459500D01*
X237500Y488000D02*
X237750Y488250D01*
X257500Y488250D01*
X288000Y548500D02*
X308000Y548500D01*
X288000Y548500D02*
X288000Y479000D01*
X291750Y475250D01*
X298500Y475250D01*
X348000Y548500D02*
X368000Y548500D01*
X348000Y548500D02*
X348000Y528000D01*
X345000Y525000D01*
X306000Y525000D01*
X298500Y517500D01*
X298500Y494750D01*
X288000Y565500D02*
X268000Y565500D01*
X328000Y565500D02*
X348000Y565500D01*
X321156Y485000D02*
X311000Y485000D01*
X307750Y488250D01*
X298500Y488250D01*
X309080Y479920D02*
X321156Y479920D01*
X309080Y479920D02*
X307000Y482000D01*
X298750Y482000D01*
X298500Y481750D01*
X220500Y468000D02*
X220500Y448000D01*
X220500Y468000D02*
X220500Y488000D01*
D25*
X220500Y448000D02*
X220500Y437500D01*
X209000Y426000D01*
X209000Y359000D01*
X202000Y352000D01*
X43000Y352000D01*
X36000Y359000D01*
X36000Y370500D01*
D21*
X57000Y282000D03*
X49000Y581000D03*
X57000Y272000D03*
X62000Y581000D03*
X176000Y581000D03*
X16932Y272000D03*
X18000Y205000D03*
X166000Y245000D03*
D23*
X166000Y205000D01*
X172000Y199000D01*
X188000Y199000D01*
X190500Y201500D02*
X190500Y207000D01*
X190500Y201500D02*
X188000Y199000D01*
D21*
X164000Y430000D03*
X373000Y533000D03*
D23*
X193000Y430000D02*
X164000Y430000D01*
X193000Y430000D02*
X206000Y443000D01*
X206000Y560000D01*
X231000Y585000D01*
X375000Y585000D01*
X382000Y578000D01*
X382000Y542000D01*
X373000Y533000D01*
X364844Y475094D02*
X364844Y371844D01*
X337068Y344068D01*
D21*
X113000Y344068D03*
D23*
X337068Y344068D01*
D21*
X320000Y577000D03*
D23*
X216500Y278500D02*
X216500Y261000D01*
X216500Y278500D02*
X267000Y329000D01*
D21*
X303316Y329000D03*
D23*
X267000Y329000D01*
D21*
X330000Y577000D03*
D23*
X223000Y275000D02*
X223000Y261000D01*
X223000Y275000D02*
X270096Y322096D01*
D21*
X312404Y329000D03*
D23*
X305500Y322096D02*
X270096Y322096D01*
X305500Y322096D02*
X312404Y329000D01*
D21*
X333000Y533000D03*
D23*
X229500Y276811D02*
X229500Y261000D01*
X229500Y276811D02*
X271737Y319048D01*
D21*
X321492Y329000D03*
D23*
X311540Y319048D02*
X271737Y319048D01*
X311540Y319048D02*
X321492Y329000D01*
D21*
X340000Y577000D03*
D23*
X237000Y280000D02*
X237000Y253500D01*
X237000Y280000D02*
X273000Y316000D01*
D21*
X330580Y329000D03*
D23*
X317580Y316000D02*
X273000Y316000D01*
X317580Y316000D02*
X330580Y329000D01*
D21*
X339000Y487000D03*
D23*
X242000Y247000D02*
X237000Y247000D01*
X242000Y247000D02*
X246000Y251000D01*
X246000Y263000D01*
X295144Y312144D01*
D21*
X339668Y329000D03*
D23*
X322812Y312144D02*
X295144Y312144D01*
X322812Y312144D02*
X339668Y329000D01*
X242500Y240500D02*
X237000Y240500D01*
X242500Y240500D02*
X250000Y248000D01*
X250000Y262000D01*
X297096Y309096D01*
D21*
X348756Y329000D03*
D23*
X328852Y309096D02*
X297096Y309096D01*
X328852Y309096D02*
X348756Y329000D01*
D21*
X349932Y577000D03*
X49000Y290000D03*
X49000Y256000D03*
D23*
X49000Y290000D01*
D21*
X44000Y73000D03*
D23*
X56468Y73000D01*
D21*
X56468Y73000D03*
D24*
X278000Y538500D02*
X268000Y548500D01*
X278000Y538500D02*
X278000Y535000D01*
D21*
X278000Y535000D03*
X308000Y535000D03*
D24*
X324000Y535000D01*
X328000Y539000D01*
X328000Y548500D01*
D21*
X258000Y463000D03*
X258000Y383000D03*
D23*
X258000Y463000D01*
D21*
X335932Y382000D03*
D23*
X337000Y382000D01*
D21*
X348884Y474000D03*
D23*
X348884Y393884D01*
X337000Y382000D01*
D21*
X281000Y256500D03*
X356000Y256000D03*
D23*
X355500Y256500D02*
X281000Y256500D01*
X355500Y256500D02*
X356000Y256000D01*
X243000Y234000D02*
X237000Y234000D01*
X243000Y234000D02*
X254000Y245000D01*
X254000Y261000D01*
X299048Y306048D01*
D21*
X357844Y329000D03*
D23*
X334892Y306048D02*
X299048Y306048D01*
X334892Y306048D02*
X357844Y329000D01*
D21*
X354824Y533000D03*
D23*
X242500Y227500D02*
X237000Y227500D01*
X242500Y227500D02*
X258000Y243000D01*
X258000Y260000D01*
X301000Y303000D01*
D21*
X366932Y329000D03*
D23*
X340932Y303000D02*
X301000Y303000D01*
X340932Y303000D02*
X366932Y329000D01*
D21*
X363912Y533000D03*
M02*
