G04 EAGLE Gerber RS-274X export*
G75*
%MOMM*%
%FSLAX34Y34*%
%LPD*%
%IN*%
%IPPOS*%
%AMOC8*
5,1,8,0,0,1.08239X$1,22.5*%
G01*
G04 Define Apertures*
%ADD10C,0.254000*%
D10*
X0Y0D02*
X400000Y0D01*
X400000Y600000D01*
X0Y600000D01*
X0Y0D01*
X22500Y45300D02*
X22512Y45017D01*
X22549Y44736D01*
X22611Y44459D01*
X22696Y44188D01*
X22805Y43927D01*
X22935Y43675D01*
X23088Y43436D01*
X23260Y43211D01*
X23452Y43002D01*
X23661Y42810D01*
X23886Y42638D01*
X24125Y42485D01*
X24377Y42355D01*
X24638Y42246D01*
X24909Y42161D01*
X25186Y42099D01*
X25467Y42062D01*
X25750Y42050D01*
X26033Y42062D01*
X26314Y42099D01*
X26591Y42161D01*
X26862Y42246D01*
X27124Y42355D01*
X27375Y42485D01*
X27614Y42638D01*
X27839Y42810D01*
X28048Y43002D01*
X28240Y43211D01*
X28412Y43436D01*
X28565Y43675D01*
X28696Y43927D01*
X28804Y44188D01*
X28889Y44459D01*
X28951Y44736D01*
X28988Y45017D01*
X29000Y45300D01*
X29000Y49300D01*
X28988Y49583D01*
X28951Y49864D01*
X28889Y50141D01*
X28804Y50412D01*
X28696Y50674D01*
X28565Y50925D01*
X28412Y51164D01*
X28240Y51389D01*
X28048Y51598D01*
X27839Y51790D01*
X27614Y51962D01*
X27375Y52115D01*
X27124Y52246D01*
X26862Y52354D01*
X26591Y52439D01*
X26314Y52501D01*
X26033Y52538D01*
X25750Y52550D01*
X25467Y52538D01*
X25186Y52501D01*
X24909Y52439D01*
X24638Y52354D01*
X24377Y52246D01*
X24125Y52115D01*
X23886Y51962D01*
X23661Y51790D01*
X23452Y51598D01*
X23260Y51389D01*
X23088Y51164D01*
X22935Y50925D01*
X22805Y50674D01*
X22696Y50412D01*
X22611Y50141D01*
X22549Y49864D01*
X22512Y49583D01*
X22500Y49300D01*
X22500Y45300D01*
X73750Y14300D02*
X73763Y14012D01*
X73800Y13727D01*
X73862Y13446D01*
X73949Y13171D01*
X74059Y12905D01*
X74192Y12650D01*
X74347Y12407D01*
X74522Y12179D01*
X74717Y11967D01*
X74929Y11772D01*
X75157Y11597D01*
X75400Y11442D01*
X75655Y11309D01*
X75921Y11199D01*
X76196Y11112D01*
X76477Y11050D01*
X76762Y11013D01*
X77050Y11000D01*
X77450Y11000D01*
X77738Y11013D01*
X78023Y11050D01*
X78304Y11112D01*
X78579Y11199D01*
X78845Y11309D01*
X79100Y11442D01*
X79343Y11597D01*
X79571Y11772D01*
X79783Y11967D01*
X79978Y12179D01*
X80153Y12407D01*
X80308Y12650D01*
X80441Y12905D01*
X80551Y13171D01*
X80638Y13446D01*
X80700Y13727D01*
X80737Y14012D01*
X80750Y14300D01*
X80750Y19700D01*
X80737Y19988D01*
X80700Y20273D01*
X80638Y20554D01*
X80551Y20829D01*
X80441Y21095D01*
X80308Y21350D01*
X80153Y21593D01*
X79978Y21821D01*
X79783Y22033D01*
X79571Y22228D01*
X79343Y22403D01*
X79100Y22558D01*
X78845Y22691D01*
X78579Y22801D01*
X78304Y22888D01*
X78023Y22950D01*
X77738Y22987D01*
X77450Y23000D01*
X77050Y23000D01*
X76762Y22987D01*
X76477Y22950D01*
X76196Y22888D01*
X75921Y22801D01*
X75655Y22691D01*
X75400Y22558D01*
X75157Y22403D01*
X74929Y22228D01*
X74717Y22033D01*
X74522Y21821D01*
X74347Y21593D01*
X74192Y21350D01*
X74059Y21095D01*
X73949Y20829D01*
X73862Y20554D01*
X73800Y20273D01*
X73763Y19988D01*
X73750Y19700D01*
X73750Y14300D01*
X19250Y14300D02*
X19263Y14012D01*
X19300Y13727D01*
X19362Y13446D01*
X19449Y13171D01*
X19559Y12905D01*
X19692Y12650D01*
X19847Y12407D01*
X20022Y12179D01*
X20217Y11967D01*
X20429Y11772D01*
X20657Y11597D01*
X20900Y11442D01*
X21155Y11309D01*
X21421Y11199D01*
X21696Y11112D01*
X21977Y11050D01*
X22262Y11013D01*
X22550Y11000D01*
X22950Y11000D01*
X23238Y11013D01*
X23523Y11050D01*
X23804Y11112D01*
X24079Y11199D01*
X24345Y11309D01*
X24600Y11442D01*
X24843Y11597D01*
X25071Y11772D01*
X25283Y11967D01*
X25478Y12179D01*
X25653Y12407D01*
X25808Y12650D01*
X25941Y12905D01*
X26051Y13171D01*
X26138Y13446D01*
X26200Y13727D01*
X26237Y14012D01*
X26250Y14300D01*
X26250Y19700D01*
X26237Y19988D01*
X26200Y20273D01*
X26138Y20554D01*
X26051Y20829D01*
X25941Y21095D01*
X25808Y21350D01*
X25653Y21593D01*
X25478Y21821D01*
X25283Y22033D01*
X25071Y22228D01*
X24843Y22403D01*
X24600Y22558D01*
X24345Y22691D01*
X24079Y22801D01*
X23804Y22888D01*
X23523Y22950D01*
X23238Y22987D01*
X22950Y23000D01*
X22550Y23000D01*
X22262Y22987D01*
X21977Y22950D01*
X21696Y22888D01*
X21421Y22801D01*
X21155Y22691D01*
X20900Y22558D01*
X20657Y22403D01*
X20429Y22228D01*
X20217Y22033D01*
X20022Y21821D01*
X19847Y21593D01*
X19692Y21350D01*
X19559Y21095D01*
X19449Y20829D01*
X19362Y20554D01*
X19300Y20273D01*
X19263Y19988D01*
X19250Y19700D01*
X19250Y14300D01*
X71000Y45300D02*
X71012Y45017D01*
X71049Y44736D01*
X71111Y44459D01*
X71196Y44188D01*
X71305Y43927D01*
X71435Y43675D01*
X71588Y43436D01*
X71760Y43211D01*
X71952Y43002D01*
X72161Y42810D01*
X72386Y42638D01*
X72625Y42485D01*
X72877Y42355D01*
X73138Y42246D01*
X73409Y42161D01*
X73686Y42099D01*
X73967Y42062D01*
X74250Y42050D01*
X74533Y42062D01*
X74814Y42099D01*
X75091Y42161D01*
X75362Y42246D01*
X75624Y42355D01*
X75875Y42485D01*
X76114Y42638D01*
X76339Y42810D01*
X76548Y43002D01*
X76740Y43211D01*
X76912Y43436D01*
X77065Y43675D01*
X77196Y43927D01*
X77304Y44188D01*
X77389Y44459D01*
X77451Y44736D01*
X77488Y45017D01*
X77500Y45300D01*
X77500Y49300D01*
X77488Y49583D01*
X77451Y49864D01*
X77389Y50141D01*
X77304Y50412D01*
X77196Y50674D01*
X77065Y50925D01*
X76912Y51164D01*
X76740Y51389D01*
X76548Y51598D01*
X76339Y51790D01*
X76114Y51962D01*
X75875Y52115D01*
X75624Y52246D01*
X75362Y52354D01*
X75091Y52439D01*
X74814Y52501D01*
X74533Y52538D01*
X74250Y52550D01*
X73967Y52538D01*
X73686Y52501D01*
X73409Y52439D01*
X73138Y52354D01*
X72877Y52246D01*
X72625Y52115D01*
X72386Y51962D01*
X72161Y51790D01*
X71952Y51598D01*
X71760Y51389D01*
X71588Y51164D01*
X71435Y50925D01*
X71305Y50674D01*
X71196Y50412D01*
X71111Y50141D01*
X71049Y49864D01*
X71012Y49583D01*
X71000Y49300D01*
X71000Y45300D01*
M02*
