G04 EAGLE Gerber RS-274X export*
G75*
%MOMM*%
%FSLAX34Y34*%
%LPD*%
%INSoldermask Top*%
%IPPOS*%
%AMOC8*
5,1,8,0,0,1.08239X$1,22.5*%
G01*
G04 Define Apertures*
%ADD10R,1.303200X1.203200*%
%ADD11R,1.203200X1.303200*%
%ADD12R,1.503200X1.703200*%
%ADD13R,1.703200X1.503200*%
%ADD14R,1.403200X0.553200*%
%ADD15R,0.653200X1.203200*%
%ADD16R,0.300000X0.600000*%
%ADD17R,0.600000X0.300000*%
%ADD18R,0.500000X0.500000*%
%ADD19R,1.203200X0.653200*%
%ADD20R,2.200000X1.660000*%
%ADD21R,0.603200X1.953200*%
%ADD22R,1.628200X2.703200*%
%ADD23C,1.411200*%
%ADD24R,0.753200X2.003200*%
%ADD25R,1.403200X1.203200*%
%ADD26R,0.803200X1.303200*%
%ADD27C,0.499716*%
%ADD28R,0.508000X1.625600*%
%ADD29R,1.103200X2.203200*%
%ADD30R,2.203200X1.103200*%
%ADD31R,1.533200X1.533200*%
%ADD32R,1.153200X2.353200*%
%ADD33R,3.453200X2.353200*%
%ADD34C,0.959600*%
G36*
X26374Y4076D02*
X27441Y4450D01*
X28399Y5052D01*
X29199Y5851D01*
X29800Y6809D01*
X30174Y7876D01*
X30300Y8997D01*
X30300Y38550D01*
X9950Y38550D01*
X9950Y29450D01*
X15200Y29450D01*
X15200Y8997D01*
X15326Y7876D01*
X15700Y6809D01*
X16302Y5851D01*
X17101Y5052D01*
X18059Y4450D01*
X19126Y4076D01*
X20247Y3950D01*
X25253Y3950D01*
X26374Y4076D01*
G37*
G36*
X80874Y4076D02*
X81941Y4450D01*
X82899Y5052D01*
X83699Y5851D01*
X84300Y6809D01*
X84674Y7876D01*
X84800Y8997D01*
X84800Y29450D01*
X90050Y29450D01*
X90050Y38550D01*
X69700Y38550D01*
X69700Y8997D01*
X69826Y7876D01*
X70200Y6809D01*
X70802Y5851D01*
X71601Y5052D01*
X72559Y4450D01*
X73626Y4076D01*
X74747Y3950D01*
X79753Y3950D01*
X80874Y4076D01*
G37*
D10*
X231500Y84000D03*
X248500Y84000D03*
D11*
X183000Y170500D03*
X183000Y153500D03*
D12*
X163500Y111000D03*
X182500Y111000D03*
D11*
X328000Y235500D03*
X328000Y218500D03*
X270000Y235500D03*
X270000Y218500D03*
X270000Y288500D03*
X270000Y305500D03*
D10*
X121500Y221000D03*
X104500Y221000D03*
X121500Y241000D03*
X104500Y241000D03*
X302500Y431000D03*
X319500Y431000D03*
X46500Y362000D03*
X63500Y362000D03*
X235500Y564000D03*
X218500Y564000D03*
X231500Y64000D03*
X248500Y64000D03*
X29500Y362000D03*
X12500Y362000D03*
D11*
X117000Y153500D03*
X117000Y170500D03*
D12*
X121500Y111000D03*
X140500Y111000D03*
D11*
X281000Y82500D03*
X281000Y65500D03*
D13*
X19000Y98500D03*
X19000Y117500D03*
D10*
X248500Y104000D03*
X231500Y104000D03*
X248500Y144000D03*
X231500Y144000D03*
X248500Y124000D03*
X231500Y124000D03*
D14*
X287200Y154750D03*
X287200Y148250D03*
X287200Y141750D03*
X287200Y135250D03*
X287200Y128750D03*
X287200Y122250D03*
X287200Y115750D03*
X287200Y109250D03*
X287200Y102750D03*
X287200Y96250D03*
X346600Y96250D03*
X346600Y102750D03*
X346600Y109250D03*
X346600Y115750D03*
X346600Y122250D03*
X346600Y128750D03*
X346600Y135250D03*
X346600Y141750D03*
X346600Y148250D03*
X346600Y154750D03*
D15*
X289250Y256500D03*
X295750Y256500D03*
X302250Y256500D03*
X308750Y256500D03*
X308750Y297500D03*
X302250Y297500D03*
X295750Y297500D03*
X289250Y297500D03*
D16*
X74400Y257200D03*
X79400Y257200D03*
X84400Y257200D03*
X89400Y257200D03*
X94400Y257200D03*
X99400Y257200D03*
X104400Y257200D03*
D17*
X112400Y265200D03*
X112400Y270200D03*
X112400Y275200D03*
X112400Y280200D03*
X112400Y285200D03*
X112400Y290200D03*
X112400Y295200D03*
D16*
X104400Y303200D03*
X99400Y303200D03*
X94400Y303200D03*
X89400Y303200D03*
X84400Y303200D03*
X79400Y303200D03*
X74400Y303200D03*
D17*
X66400Y295200D03*
X66400Y290200D03*
X66400Y285200D03*
X66400Y280200D03*
X66400Y275200D03*
X66400Y270200D03*
X66400Y265200D03*
D18*
X68375Y259175D03*
D16*
X76900Y270200D03*
X76900Y280200D03*
X76900Y290200D03*
X81900Y270200D03*
X81900Y280200D03*
X81900Y290200D03*
X86900Y270200D03*
X86900Y280200D03*
X86900Y290200D03*
X91900Y270200D03*
X91900Y280200D03*
X91900Y290200D03*
X96900Y270200D03*
X96900Y280200D03*
X96900Y290200D03*
X101900Y270200D03*
X101900Y280200D03*
X101900Y290200D03*
D19*
X278500Y412750D03*
X278500Y406250D03*
X278500Y399750D03*
X278500Y393250D03*
X319500Y393250D03*
X319500Y399750D03*
X319500Y406250D03*
X319500Y412750D03*
D20*
X21000Y47300D03*
X79000Y47300D03*
D21*
X37000Y45250D03*
X43500Y45250D03*
X50000Y45250D03*
X56500Y45250D03*
X63000Y45250D03*
D22*
X40375Y14500D03*
X59625Y14500D03*
D23*
X22750Y10960D02*
X22750Y23040D01*
X77250Y23040D02*
X77250Y10960D01*
D24*
X372000Y550500D03*
X372000Y507500D03*
X364000Y550500D03*
X364000Y507500D03*
X356000Y550500D03*
X356000Y507500D03*
X348000Y550500D03*
X348000Y507500D03*
X340000Y550500D03*
X340000Y507500D03*
X332000Y550500D03*
X332000Y507500D03*
X324000Y550500D03*
X324000Y507500D03*
X316000Y550500D03*
X316000Y507500D03*
X308000Y550500D03*
X308000Y507500D03*
D25*
X308500Y67500D03*
X325500Y67500D03*
X325500Y80500D03*
X308500Y80500D03*
D26*
X17500Y310000D03*
X36500Y310000D03*
X27000Y332000D03*
X17500Y248900D03*
X36500Y248900D03*
X27000Y270900D03*
D11*
X248500Y164000D03*
X231500Y164000D03*
X18500Y230000D03*
X35500Y230000D03*
X230500Y363000D03*
X247500Y363000D03*
X230500Y403000D03*
X247500Y403000D03*
X365500Y362000D03*
X348500Y362000D03*
X365500Y402000D03*
X348500Y402000D03*
X230500Y383000D03*
X247500Y383000D03*
X230500Y423000D03*
X247500Y423000D03*
X365500Y382000D03*
X348500Y382000D03*
X365500Y422000D03*
X348500Y422000D03*
X134500Y291000D03*
X151500Y291000D03*
D10*
X270000Y256500D03*
X270000Y273500D03*
D11*
X151500Y311000D03*
X134500Y311000D03*
X230500Y443000D03*
X247500Y443000D03*
X365500Y442000D03*
X348500Y442000D03*
X235500Y535000D03*
X218500Y535000D03*
D10*
X328000Y256500D03*
X328000Y273500D03*
X153000Y274500D03*
X153000Y257500D03*
X133000Y274500D03*
X133000Y257500D03*
X270000Y186500D03*
X270000Y203500D03*
D11*
X230500Y343000D03*
X247500Y343000D03*
X365600Y342800D03*
X348600Y342800D03*
X18500Y291000D03*
X35500Y291000D03*
D27*
X132882Y170032D02*
X142018Y170032D01*
X132882Y170032D02*
X132882Y172968D01*
X142018Y172968D01*
X142018Y170032D01*
X142018Y160532D02*
X132882Y160532D01*
X132882Y163468D01*
X142018Y163468D01*
X142018Y160532D01*
X142018Y151032D02*
X132882Y151032D01*
X132882Y153968D01*
X142018Y153968D01*
X142018Y151032D01*
X157982Y151032D02*
X167118Y151032D01*
X157982Y151032D02*
X157982Y153968D01*
X167118Y153968D01*
X167118Y151032D01*
X167118Y170032D02*
X157982Y170032D01*
X157982Y172968D01*
X167118Y172968D01*
X167118Y170032D01*
D28*
X308906Y233844D03*
X304080Y233844D03*
X299000Y233844D03*
X293920Y233844D03*
X289094Y233844D03*
X289094Y190156D03*
X293920Y190156D03*
X299000Y190156D03*
X304080Y190156D03*
X308906Y190156D03*
D29*
X11300Y393400D03*
X24000Y393400D03*
X36700Y393400D03*
X49400Y393400D03*
X62100Y393400D03*
X74800Y393400D03*
X87500Y393400D03*
X100200Y393400D03*
X112900Y393400D03*
X125600Y393400D03*
X138300Y393400D03*
X151000Y393400D03*
X163700Y393400D03*
X176400Y393400D03*
D30*
X186400Y421250D03*
X186400Y433950D03*
X186400Y446650D03*
X186400Y459350D03*
X186400Y472050D03*
X186400Y484750D03*
X186400Y497450D03*
X186400Y510150D03*
X186400Y522850D03*
X186400Y535550D03*
D29*
X176400Y563400D03*
X163700Y563400D03*
X151000Y563400D03*
X138300Y563400D03*
X125600Y563400D03*
X112900Y563400D03*
X100200Y563400D03*
X87500Y563400D03*
X74800Y563400D03*
X62100Y563400D03*
X49400Y563400D03*
X36700Y563400D03*
X24000Y563400D03*
X11300Y563400D03*
D31*
X67950Y450050D03*
X67950Y468400D03*
X67950Y486750D03*
X86300Y450050D03*
X86300Y468400D03*
X86300Y486750D03*
X104650Y450050D03*
X104650Y468400D03*
X104650Y486750D03*
D32*
X186000Y84000D03*
X163000Y84000D03*
X140000Y84000D03*
D33*
X163000Y26000D03*
D10*
X230500Y463000D03*
X247500Y463000D03*
X365500Y462000D03*
X348500Y462000D03*
D11*
X46500Y339000D03*
X63500Y339000D03*
X18500Y194000D03*
X35500Y194000D03*
D34*
X216000Y104000D03*
X203000Y104000D03*
X203000Y81000D03*
X216000Y81000D03*
X64000Y220000D03*
X55000Y229000D03*
X64000Y242000D03*
X73000Y233000D03*
X223000Y511000D03*
X223000Y501000D03*
X213000Y511000D03*
X213000Y501000D03*
X224000Y550000D03*
X234000Y550000D03*
X244000Y550000D03*
X214000Y550000D03*
X330000Y295000D03*
X320000Y295000D03*
X343000Y274000D03*
X353000Y274000D03*
X9000Y591000D03*
X391000Y591000D03*
X391000Y9000D03*
X391000Y19000D03*
X391000Y29000D03*
X381000Y9000D03*
X371000Y9000D03*
X391000Y288000D03*
X391000Y278000D03*
X391000Y268000D03*
X391000Y258000D03*
X391000Y248000D03*
X391000Y238000D03*
X391000Y228000D03*
X391000Y218000D03*
X53000Y487000D03*
X53000Y469000D03*
X53000Y450000D03*
X120000Y487000D03*
X120000Y468000D03*
X120000Y450000D03*
X282000Y460000D03*
X292000Y460000D03*
X302000Y460000D03*
X282000Y450000D03*
X292000Y450000D03*
X302000Y450000D03*
X302000Y132000D03*
X294000Y80000D03*
X161000Y136000D03*
X161000Y126000D03*
X171000Y136000D03*
X171000Y126000D03*
X105000Y231000D03*
X164000Y291000D03*
X163000Y476000D03*
X59000Y505000D03*
X72000Y517000D03*
X164000Y420000D03*
X203000Y195000D03*
X36000Y431000D03*
X136000Y360068D03*
X29068Y347000D03*
X36000Y205000D03*
X63000Y328000D03*
X364000Y143000D03*
X364000Y123000D03*
X113000Y581000D03*
X304000Y206000D03*
X173000Y211000D03*
X382068Y475000D03*
X254000Y211000D03*
X254000Y228000D03*
X364000Y103000D03*
X364000Y93000D03*
X364000Y133000D03*
X96000Y333000D03*
X302000Y96000D03*
X92068Y324000D03*
X31000Y83000D03*
X21000Y83000D03*
X31000Y73000D03*
X21000Y73000D03*
X104000Y171000D03*
X133000Y136000D03*
X143000Y136000D03*
X143000Y126000D03*
X133000Y126000D03*
X317000Y236000D03*
X153000Y245000D03*
X256000Y502694D03*
X319000Y467000D03*
X388000Y512000D03*
X388000Y502000D03*
X319746Y420948D03*
X280709Y306291D03*
X388068Y555000D03*
X388068Y545000D03*
X378000Y402000D03*
X269000Y482000D03*
X302000Y285000D03*
X248000Y321000D03*
X248000Y329932D03*
X218000Y403000D03*
X296000Y357068D03*
X364000Y113000D03*
X31000Y581000D03*
X382000Y485000D03*
X294000Y206000D03*
X173000Y221000D03*
X314000Y206000D03*
X100000Y344000D03*
X142000Y490000D03*
X132000Y490000D03*
X147000Y533000D03*
X137912Y533000D03*
X128824Y533000D03*
X119736Y533000D03*
X110648Y533000D03*
X101560Y533000D03*
X92472Y533000D03*
X83384Y533000D03*
X152000Y452000D03*
X157000Y331932D03*
X142912Y452000D03*
X147000Y331932D03*
X57000Y282000D03*
X49000Y581000D03*
X57000Y272000D03*
X62000Y581000D03*
X176000Y581000D03*
X16932Y272000D03*
X18000Y205000D03*
X166000Y245000D03*
X164000Y430000D03*
X373000Y533000D03*
X113000Y344068D03*
X320000Y577000D03*
X303316Y329000D03*
X330000Y577000D03*
X312404Y329000D03*
X333000Y533000D03*
X321492Y329000D03*
X340000Y577000D03*
X330580Y329000D03*
X339000Y487000D03*
X339668Y329000D03*
X348756Y329000D03*
X349932Y577000D03*
X49000Y290000D03*
X49000Y256000D03*
X44000Y73000D03*
X56468Y73000D03*
X278000Y535000D03*
X308000Y535000D03*
X258000Y463000D03*
X258000Y383000D03*
X335932Y382000D03*
X348884Y474000D03*
X281000Y256500D03*
X356000Y256000D03*
X357844Y329000D03*
X354824Y533000D03*
X366932Y329000D03*
X363912Y533000D03*
M02*
