G04 EAGLE Gerber RS-274X export*
G75*
%MOMM*%
%FSLAX34Y34*%
%LPD*%
%INSoldermask Bottom*%
%IPPOS*%
%AMOC8*
5,1,8,0,0,1.08239X$1,22.5*%
G01*
G04 Define Apertures*
%ADD10R,1.203200X1.303200*%
%ADD11R,1.303200X1.203200*%
%ADD12R,1.203200X0.653200*%
%ADD13R,0.364000X0.708500*%
%ADD14R,0.708400X0.364000*%
%ADD15R,0.364000X0.708400*%
%ADD16R,3.718000X3.718000*%
%ADD17R,0.551200X1.600200*%
%ADD18C,1.411200*%
%ADD19C,1.253200*%
%ADD20R,1.203200X1.403200*%
%ADD21R,1.625600X0.508000*%
%ADD22C,0.959600*%
D10*
X268000Y548500D03*
X268000Y565500D03*
X328000Y548500D03*
X328000Y565500D03*
D11*
X319500Y456000D03*
X336500Y456000D03*
X319500Y514000D03*
X336500Y514000D03*
D10*
X203000Y165500D03*
X203000Y182500D03*
D11*
X272500Y513000D03*
X255500Y513000D03*
X220500Y448000D03*
X237500Y448000D03*
D10*
X156000Y370500D03*
X156000Y387500D03*
X116000Y370500D03*
X116000Y387500D03*
X176000Y370500D03*
X176000Y387500D03*
X76000Y370500D03*
X76000Y387500D03*
X36000Y370500D03*
X36000Y387500D03*
D11*
X174500Y504000D03*
X191500Y504000D03*
D10*
X52000Y528500D03*
X52000Y545500D03*
X196000Y387500D03*
X196000Y370500D03*
X16000Y387500D03*
X16000Y370500D03*
X72000Y528500D03*
X72000Y545500D03*
D12*
X298500Y494750D03*
X298500Y488250D03*
X298500Y481750D03*
X298500Y475250D03*
X257500Y475250D03*
X257500Y481750D03*
X257500Y488250D03*
X257500Y494750D03*
D13*
X229500Y206993D03*
X223000Y206993D03*
X216500Y206993D03*
X210000Y206993D03*
X203500Y206993D03*
X197000Y206993D03*
X190500Y206993D03*
D14*
X182993Y214500D03*
X182993Y221000D03*
X182993Y227500D03*
X182993Y234000D03*
X182993Y240500D03*
X182993Y247000D03*
X182993Y253500D03*
D15*
X190500Y261007D03*
X197000Y261007D03*
X203500Y261007D03*
X210000Y261007D03*
X216500Y261007D03*
X223000Y261007D03*
X229500Y261007D03*
D14*
X237007Y253500D03*
X237007Y247000D03*
X237007Y240500D03*
X237007Y234000D03*
X237007Y227500D03*
X237007Y221000D03*
X237007Y214500D03*
D16*
X210000Y234000D03*
D17*
X68750Y431440D03*
X75250Y431440D03*
X81750Y431440D03*
X88250Y431440D03*
X94750Y431440D03*
X101250Y431440D03*
X107750Y431440D03*
X120750Y431440D03*
X114250Y431440D03*
X127250Y431440D03*
X133750Y431440D03*
X140250Y431440D03*
X146750Y431440D03*
X153250Y431440D03*
X68750Y504560D03*
X75250Y504560D03*
X81750Y504560D03*
X88250Y504560D03*
X94750Y504560D03*
X101250Y504560D03*
X107750Y504560D03*
X114250Y504560D03*
X120750Y504560D03*
X127250Y504560D03*
X133750Y504560D03*
X140250Y504560D03*
X146750Y504560D03*
X153250Y504560D03*
D18*
X22750Y23040D02*
X22750Y10960D01*
X77250Y10960D02*
X77250Y23040D01*
D19*
X25750Y42050D02*
X25750Y52550D01*
X74250Y52550D02*
X74250Y42050D01*
D20*
X189500Y476500D03*
X189500Y459500D03*
X176500Y459500D03*
X176500Y476500D03*
D11*
X288000Y548500D03*
X288000Y565500D03*
X308000Y565500D03*
X308000Y548500D03*
X348000Y548500D03*
X348000Y565500D03*
X368000Y565500D03*
X368000Y548500D03*
D10*
X368500Y514000D03*
X351500Y514000D03*
X220500Y488000D03*
X237500Y488000D03*
X237500Y468000D03*
X220500Y468000D03*
D11*
X136000Y387500D03*
X136000Y370500D03*
X96000Y387500D03*
X96000Y370500D03*
X56000Y370500D03*
X56000Y387500D03*
D21*
X321156Y475094D03*
X321156Y479920D03*
X321156Y485000D03*
X321156Y490080D03*
X321156Y494906D03*
X364844Y494906D03*
X364844Y490080D03*
X364844Y485000D03*
X364844Y479920D03*
X364844Y475094D03*
D22*
X216000Y104000D03*
X203000Y104000D03*
X203000Y81000D03*
X216000Y81000D03*
X64000Y220000D03*
X55000Y229000D03*
X64000Y242000D03*
X73000Y233000D03*
X223000Y511000D03*
X223000Y501000D03*
X213000Y511000D03*
X213000Y501000D03*
X224000Y550000D03*
X234000Y550000D03*
X244000Y550000D03*
X214000Y550000D03*
X330000Y295000D03*
X320000Y295000D03*
X343000Y274000D03*
X353000Y274000D03*
X9000Y591000D03*
X391000Y591000D03*
X391000Y9000D03*
X391000Y19000D03*
X391000Y29000D03*
X381000Y9000D03*
X371000Y9000D03*
X391000Y288000D03*
X391000Y278000D03*
X391000Y268000D03*
X391000Y258000D03*
X391000Y248000D03*
X391000Y238000D03*
X391000Y228000D03*
X391000Y218000D03*
X53000Y487000D03*
X53000Y469000D03*
X53000Y450000D03*
X120000Y487000D03*
X120000Y468000D03*
X120000Y450000D03*
X282000Y460000D03*
X292000Y460000D03*
X302000Y460000D03*
X282000Y450000D03*
X292000Y450000D03*
X302000Y450000D03*
X302000Y132000D03*
X294000Y80000D03*
X161000Y136000D03*
X161000Y126000D03*
X171000Y136000D03*
X171000Y126000D03*
X105000Y231000D03*
X164000Y291000D03*
X163000Y476000D03*
X59000Y505000D03*
X72000Y517000D03*
X164000Y420000D03*
X203000Y195000D03*
X36000Y431000D03*
X136000Y360068D03*
X29068Y347000D03*
X36000Y205000D03*
X63000Y328000D03*
X364000Y143000D03*
X364000Y123000D03*
X113000Y581000D03*
X304000Y206000D03*
X173000Y211000D03*
X382068Y475000D03*
X254000Y211000D03*
X254000Y228000D03*
X364000Y103000D03*
X364000Y93000D03*
X364000Y133000D03*
X96000Y333000D03*
X302000Y96000D03*
X92068Y324000D03*
X31000Y83000D03*
X21000Y83000D03*
X31000Y73000D03*
X21000Y73000D03*
X104000Y171000D03*
X133000Y136000D03*
X143000Y136000D03*
X143000Y126000D03*
X133000Y126000D03*
X317000Y236000D03*
X153000Y245000D03*
X256000Y502694D03*
X319000Y467000D03*
X388000Y512000D03*
X388000Y502000D03*
X319746Y420948D03*
X280709Y306291D03*
X388068Y555000D03*
X388068Y545000D03*
X378000Y402000D03*
X269000Y482000D03*
X302000Y285000D03*
X248000Y321000D03*
X248000Y329932D03*
X218000Y403000D03*
X296000Y357068D03*
X364000Y113000D03*
X31000Y581000D03*
X382000Y485000D03*
X294000Y206000D03*
X173000Y221000D03*
X314000Y206000D03*
X100000Y344000D03*
X142000Y490000D03*
X132000Y490000D03*
X147000Y533000D03*
X137912Y533000D03*
X128824Y533000D03*
X119736Y533000D03*
X110648Y533000D03*
X101560Y533000D03*
X92472Y533000D03*
X83384Y533000D03*
X152000Y452000D03*
X157000Y331932D03*
X142912Y452000D03*
X147000Y331932D03*
X57000Y282000D03*
X49000Y581000D03*
X57000Y272000D03*
X62000Y581000D03*
X176000Y581000D03*
X16932Y272000D03*
X18000Y205000D03*
X166000Y245000D03*
X164000Y430000D03*
X373000Y533000D03*
X113000Y344068D03*
X320000Y577000D03*
X303316Y329000D03*
X330000Y577000D03*
X312404Y329000D03*
X333000Y533000D03*
X321492Y329000D03*
X340000Y577000D03*
X330580Y329000D03*
X339000Y487000D03*
X339668Y329000D03*
X348756Y329000D03*
X349932Y577000D03*
X49000Y290000D03*
X49000Y256000D03*
X44000Y73000D03*
X56468Y73000D03*
X278000Y535000D03*
X308000Y535000D03*
X258000Y463000D03*
X258000Y383000D03*
X335932Y382000D03*
X348884Y474000D03*
X281000Y256500D03*
X356000Y256000D03*
X357844Y329000D03*
X354824Y533000D03*
X366932Y329000D03*
X363912Y533000D03*
M02*
