G04 EAGLE Gerber RS-274X export*
G75*
%MOMM*%
%FSLAX34Y34*%
%LPD*%
%INTop Copper*%
%IPPOS*%
%AMOC8*
5,1,8,0,0,1.08239X$1,22.5*%
G01*
G04 Define Apertures*
%ADD10C,0.250000*%
%ADD11R,0.970200X0.920900*%
%ADD12R,1.164600X1.465300*%
%ADD13P,1.64956X8X112.5*%
%ADD14C,0.203200*%
%ADD15C,0.654800*%
%ADD16C,0.152400*%
%ADD17C,0.254000*%
%ADD18C,0.508000*%
G36*
X313390Y165733D02*
X313473Y165790D01*
X315771Y166742D01*
X318085Y166742D01*
X320437Y165768D01*
X320933Y165671D01*
X321427Y165776D01*
X321569Y165872D01*
X323843Y166814D01*
X324125Y166814D01*
X324621Y166915D01*
X325037Y167200D01*
X325310Y167626D01*
X325349Y167835D01*
X326280Y170084D01*
X327916Y171720D01*
X329402Y172335D01*
X329821Y172618D01*
X330097Y173041D01*
X330186Y173509D01*
X330186Y175013D01*
X331071Y177149D01*
X332756Y178834D01*
X333064Y179042D01*
X333340Y179465D01*
X333428Y179963D01*
X333332Y180419D01*
X333186Y180772D01*
X333186Y183085D01*
X334071Y185221D01*
X335756Y186906D01*
X336064Y187114D01*
X336340Y187537D01*
X336428Y188035D01*
X336332Y188491D01*
X336186Y188844D01*
X336186Y191157D01*
X337071Y193293D01*
X338707Y194929D01*
X340843Y195814D01*
X343225Y195814D01*
X343592Y195743D01*
X344086Y195847D01*
X344501Y196136D01*
X344770Y196564D01*
X344851Y197063D01*
X344730Y197554D01*
X344480Y197911D01*
X344460Y197930D01*
X344460Y201070D01*
X344492Y201102D01*
X344771Y201523D01*
X344864Y202020D01*
X344755Y202514D01*
X344492Y202898D01*
X344460Y202930D01*
X344460Y206070D01*
X344492Y206102D01*
X344771Y206523D01*
X344864Y207020D01*
X344755Y207514D01*
X344492Y207898D01*
X344460Y207930D01*
X344460Y208738D01*
X363540Y208738D01*
X363540Y207930D01*
X363508Y207898D01*
X363229Y207477D01*
X363136Y206980D01*
X363245Y206486D01*
X363508Y206102D01*
X363540Y206070D01*
X363540Y202930D01*
X363508Y202898D01*
X363229Y202477D01*
X363136Y201980D01*
X363245Y201486D01*
X363508Y201102D01*
X363540Y201070D01*
X363540Y200084D01*
X363641Y199589D01*
X363926Y199172D01*
X364352Y198899D01*
X364810Y198814D01*
X367157Y198814D01*
X369293Y197929D01*
X370292Y196930D01*
X370713Y196651D01*
X371210Y196558D01*
X371704Y196667D01*
X372116Y196959D01*
X372382Y197389D01*
X372460Y197828D01*
X372460Y326172D01*
X372359Y326667D01*
X372074Y327084D01*
X371648Y327356D01*
X371150Y327441D01*
X370658Y327325D01*
X370292Y327070D01*
X369293Y326071D01*
X367157Y325186D01*
X364843Y325186D01*
X362707Y326071D01*
X361071Y327707D01*
X360186Y329843D01*
X360186Y332157D01*
X361071Y334293D01*
X361380Y334602D01*
X361659Y335023D01*
X361752Y335520D01*
X361643Y336014D01*
X361380Y336398D01*
X361071Y336707D01*
X360186Y338843D01*
X360186Y341157D01*
X361071Y343293D01*
X361380Y343602D01*
X361659Y344023D01*
X361752Y344520D01*
X361643Y345014D01*
X361380Y345398D01*
X361071Y345707D01*
X360186Y347843D01*
X360186Y350157D01*
X361071Y352293D01*
X361880Y353102D01*
X362159Y353523D01*
X362252Y354020D01*
X362143Y354514D01*
X361880Y354898D01*
X361071Y355707D01*
X360186Y357843D01*
X360186Y360157D01*
X360823Y361695D01*
X360920Y362181D01*
X360920Y364819D01*
X360823Y365305D01*
X360186Y366843D01*
X360186Y369157D01*
X360823Y370695D01*
X360920Y371181D01*
X360920Y373370D01*
X360819Y373865D01*
X360548Y374268D01*
X347268Y387548D01*
X346846Y387827D01*
X346370Y387920D01*
X213756Y387920D01*
X213261Y387819D01*
X212844Y387534D01*
X212571Y387108D01*
X212487Y386610D01*
X212603Y386118D01*
X212858Y385752D01*
X213290Y385320D01*
X213290Y372906D01*
X213391Y372410D01*
X213662Y372008D01*
X217008Y368662D01*
X217429Y368383D01*
X217906Y368290D01*
X228916Y368290D01*
X229411Y368391D01*
X229828Y368676D01*
X230101Y369102D01*
X230186Y369560D01*
X230186Y370445D01*
X231071Y372581D01*
X232707Y374217D01*
X234843Y375102D01*
X237157Y375102D01*
X239293Y374217D01*
X240929Y372581D01*
X241814Y370445D01*
X241814Y368131D01*
X240841Y365783D01*
X240805Y365729D01*
X240712Y365232D01*
X240821Y364738D01*
X240854Y364689D01*
X241814Y362373D01*
X241814Y360060D01*
X240839Y357704D01*
X240742Y357208D01*
X240846Y356714D01*
X240939Y356578D01*
X241882Y354301D01*
X241882Y351987D01*
X240909Y349639D01*
X240873Y349585D01*
X240780Y349088D01*
X240889Y348594D01*
X240922Y348545D01*
X241882Y346229D01*
X241882Y343915D01*
X240915Y341582D01*
X240819Y341086D01*
X240923Y340591D01*
X241191Y340198D01*
X246810Y334578D01*
X246810Y300422D01*
X240578Y294190D01*
X228422Y294190D01*
X227798Y294814D01*
X227376Y295093D01*
X226900Y295186D01*
X225843Y295186D01*
X223707Y296071D01*
X222071Y297707D01*
X221186Y299843D01*
X221186Y302156D01*
X221931Y303954D01*
X222027Y304450D01*
X221923Y304945D01*
X221634Y305359D01*
X221206Y305628D01*
X220757Y305710D01*
X215680Y305710D01*
X213460Y307930D01*
X213460Y311070D01*
X213492Y311102D01*
X213771Y311523D01*
X213864Y312020D01*
X213755Y312514D01*
X213492Y312898D01*
X213460Y312930D01*
X213460Y316070D01*
X213492Y316102D01*
X213771Y316523D01*
X213864Y317020D01*
X213755Y317514D01*
X213492Y317898D01*
X213460Y317930D01*
X213460Y321070D01*
X213492Y321102D01*
X213771Y321523D01*
X213864Y322020D01*
X213755Y322514D01*
X213492Y322898D01*
X213460Y322930D01*
X213460Y326070D01*
X213492Y326102D01*
X213771Y326523D01*
X213864Y327020D01*
X213755Y327514D01*
X213492Y327898D01*
X213459Y327931D01*
X213037Y328211D01*
X212540Y328303D01*
X212075Y328207D01*
X212025Y328186D01*
X209711Y328186D01*
X207575Y329071D01*
X205939Y330707D01*
X205054Y332843D01*
X205054Y335157D01*
X205220Y335556D01*
X205316Y336052D01*
X205212Y336547D01*
X204923Y336961D01*
X204825Y337025D01*
X203071Y338779D01*
X202186Y340915D01*
X202186Y343228D01*
X202332Y343581D01*
X202429Y344078D01*
X202324Y344572D01*
X202035Y344987D01*
X201749Y345173D01*
X200071Y346851D01*
X199186Y348987D01*
X199186Y351541D01*
X199194Y351582D01*
X199090Y352076D01*
X198801Y352491D01*
X198410Y352746D01*
X197634Y353067D01*
X195999Y354703D01*
X195295Y356402D01*
X195012Y356821D01*
X194589Y357097D01*
X194122Y357186D01*
X193059Y357186D01*
X190768Y358135D01*
X190615Y358236D01*
X190118Y358329D01*
X189653Y358232D01*
X187301Y357258D01*
X184987Y357258D01*
X182635Y358232D01*
X182139Y358329D01*
X181645Y358224D01*
X181503Y358128D01*
X179229Y357186D01*
X176915Y357186D01*
X174567Y358159D01*
X174513Y358195D01*
X174016Y358288D01*
X173522Y358179D01*
X173473Y358146D01*
X171157Y357186D01*
X170875Y357186D01*
X170379Y357085D01*
X169963Y356800D01*
X169690Y356374D01*
X169651Y356165D01*
X168720Y353916D01*
X167084Y352280D01*
X165598Y351665D01*
X165179Y351382D01*
X164903Y350959D01*
X164814Y350491D01*
X164814Y349040D01*
X163929Y346903D01*
X162244Y345219D01*
X161936Y345011D01*
X161660Y344587D01*
X161572Y344090D01*
X161668Y343634D01*
X161814Y343281D01*
X161814Y340968D01*
X160929Y338831D01*
X159208Y337111D01*
X158981Y336958D01*
X158705Y336534D01*
X158617Y336036D01*
X158713Y335581D01*
X158867Y335209D01*
X158867Y332896D01*
X157982Y330759D01*
X156346Y329124D01*
X154209Y328239D01*
X151848Y328239D01*
X151443Y328317D01*
X150949Y328213D01*
X150555Y327946D01*
X150508Y327898D01*
X150229Y327477D01*
X150136Y326980D01*
X150245Y326486D01*
X150508Y326102D01*
X150540Y326070D01*
X150540Y322930D01*
X150508Y322898D01*
X150229Y322477D01*
X150136Y321980D01*
X150245Y321486D01*
X150508Y321102D01*
X150540Y321070D01*
X150540Y317930D01*
X150508Y317898D01*
X150229Y317477D01*
X150136Y316980D01*
X150245Y316486D01*
X150508Y316102D01*
X150540Y316070D01*
X150540Y315262D01*
X131460Y315262D01*
X131460Y316070D01*
X131492Y316102D01*
X131771Y316523D01*
X131864Y317020D01*
X131755Y317514D01*
X131492Y317898D01*
X131460Y317930D01*
X131460Y321070D01*
X131492Y321102D01*
X131771Y321523D01*
X131864Y322020D01*
X131755Y322514D01*
X131492Y322898D01*
X131460Y322930D01*
X131460Y323916D01*
X131359Y324411D01*
X131074Y324828D01*
X130648Y325101D01*
X130190Y325186D01*
X127843Y325186D01*
X125707Y326071D01*
X124071Y327707D01*
X123186Y329843D01*
X123186Y332157D01*
X124071Y334293D01*
X124380Y334602D01*
X124659Y335023D01*
X124752Y335520D01*
X124643Y336014D01*
X124380Y336398D01*
X124071Y336707D01*
X123186Y338843D01*
X123186Y341157D01*
X124071Y343293D01*
X124380Y343602D01*
X124659Y344023D01*
X124752Y344520D01*
X124643Y345014D01*
X124380Y345398D01*
X124071Y345707D01*
X123186Y347843D01*
X123186Y350157D01*
X124071Y352293D01*
X124380Y352602D01*
X124659Y353023D01*
X124752Y353520D01*
X124643Y354014D01*
X124380Y354398D01*
X124071Y354707D01*
X123186Y356843D01*
X123186Y359157D01*
X123823Y360695D01*
X123920Y361181D01*
X123920Y363819D01*
X123823Y364305D01*
X123186Y365843D01*
X123186Y368157D01*
X123823Y369695D01*
X123920Y370181D01*
X123920Y374010D01*
X124693Y375878D01*
X140918Y392102D01*
X141197Y392523D01*
X141290Y393020D01*
X141181Y393514D01*
X140918Y393898D01*
X139693Y395122D01*
X139195Y396326D01*
X138913Y396745D01*
X138489Y397020D01*
X138115Y397092D01*
X136609Y398597D01*
X136609Y409911D01*
X137800Y411102D01*
X138080Y411523D01*
X138172Y412020D01*
X138064Y412514D01*
X137800Y412898D01*
X136609Y414089D01*
X136609Y418984D01*
X151391Y418984D01*
X151391Y414089D01*
X150200Y412898D01*
X149921Y412477D01*
X149828Y411980D01*
X149936Y411486D01*
X150200Y411102D01*
X151391Y409911D01*
X151391Y399350D01*
X151492Y398855D01*
X151777Y398438D01*
X152203Y398165D01*
X152661Y398080D01*
X350010Y398080D01*
X351878Y397307D01*
X370292Y378892D01*
X370713Y378613D01*
X371210Y378520D01*
X371704Y378629D01*
X372116Y378921D01*
X372382Y379351D01*
X372460Y379790D01*
X372460Y430190D01*
X372359Y430685D01*
X372074Y431102D01*
X371648Y431375D01*
X371190Y431460D01*
X63810Y431460D01*
X63315Y431359D01*
X62898Y431074D01*
X62625Y430648D01*
X62540Y430190D01*
X62540Y415174D01*
X62641Y414679D01*
X62926Y414262D01*
X63352Y413990D01*
X63850Y413905D01*
X64342Y414021D01*
X64708Y414276D01*
X69092Y418660D01*
X77508Y418660D01*
X83460Y412708D01*
X83460Y404292D01*
X77508Y398340D01*
X69092Y398340D01*
X64708Y402724D01*
X64287Y403003D01*
X63790Y403095D01*
X63296Y402987D01*
X62884Y402695D01*
X62618Y402264D01*
X62540Y401826D01*
X62540Y389774D01*
X62641Y389279D01*
X62926Y388862D01*
X63352Y388590D01*
X63850Y388505D01*
X64342Y388621D01*
X64708Y388876D01*
X69092Y393260D01*
X77508Y393260D01*
X83460Y387308D01*
X83460Y378892D01*
X77508Y372940D01*
X69092Y372940D01*
X64708Y377324D01*
X64287Y377603D01*
X63790Y377695D01*
X63296Y377587D01*
X62884Y377295D01*
X62618Y376864D01*
X62540Y376426D01*
X62540Y364374D01*
X62641Y363879D01*
X62926Y363462D01*
X63352Y363190D01*
X63850Y363105D01*
X64342Y363221D01*
X64708Y363476D01*
X69092Y367860D01*
X77508Y367860D01*
X83460Y361908D01*
X83460Y353492D01*
X77508Y347540D01*
X69092Y347540D01*
X64708Y351924D01*
X64287Y352203D01*
X63790Y352295D01*
X63296Y352187D01*
X62884Y351895D01*
X62618Y351464D01*
X62540Y351026D01*
X62540Y338974D01*
X62641Y338479D01*
X62926Y338062D01*
X63352Y337790D01*
X63850Y337705D01*
X64342Y337821D01*
X64708Y338076D01*
X69092Y342460D01*
X77508Y342460D01*
X83460Y336508D01*
X83460Y328092D01*
X77508Y322140D01*
X69092Y322140D01*
X64708Y326524D01*
X64287Y326803D01*
X63790Y326895D01*
X63296Y326787D01*
X62884Y326495D01*
X62618Y326064D01*
X62540Y325626D01*
X62540Y313574D01*
X62641Y313079D01*
X62926Y312662D01*
X63352Y312390D01*
X63850Y312305D01*
X64342Y312421D01*
X64708Y312676D01*
X69092Y317060D01*
X77508Y317060D01*
X83460Y311108D01*
X83460Y302692D01*
X77508Y296740D01*
X69092Y296740D01*
X64708Y301124D01*
X64287Y301403D01*
X63790Y301495D01*
X63296Y301387D01*
X62884Y301095D01*
X62618Y300664D01*
X62540Y300226D01*
X62540Y288174D01*
X62641Y287679D01*
X62926Y287262D01*
X63352Y286990D01*
X63850Y286905D01*
X64342Y287021D01*
X64708Y287276D01*
X69092Y291660D01*
X77508Y291660D01*
X83460Y285708D01*
X83460Y277292D01*
X77508Y271340D01*
X69092Y271340D01*
X64708Y275724D01*
X64287Y276003D01*
X63790Y276095D01*
X63296Y275987D01*
X62884Y275695D01*
X62618Y275264D01*
X62540Y274826D01*
X62540Y262774D01*
X62641Y262279D01*
X62926Y261862D01*
X63352Y261590D01*
X63850Y261505D01*
X64342Y261621D01*
X64708Y261876D01*
X69092Y266260D01*
X77508Y266260D01*
X83460Y260308D01*
X83460Y251892D01*
X77508Y245940D01*
X69092Y245940D01*
X64708Y250324D01*
X64287Y250603D01*
X63790Y250695D01*
X63296Y250587D01*
X62884Y250295D01*
X62618Y249864D01*
X62540Y249426D01*
X62540Y237374D01*
X62641Y236879D01*
X62926Y236462D01*
X63352Y236190D01*
X63850Y236105D01*
X64342Y236221D01*
X64708Y236476D01*
X69092Y240860D01*
X77508Y240860D01*
X83460Y234908D01*
X83460Y226492D01*
X77508Y220540D01*
X69092Y220540D01*
X64708Y224924D01*
X64287Y225203D01*
X63790Y225295D01*
X63296Y225187D01*
X62884Y224895D01*
X62618Y224464D01*
X62540Y224026D01*
X62540Y211974D01*
X62641Y211479D01*
X62926Y211062D01*
X63352Y210790D01*
X63850Y210705D01*
X64342Y210821D01*
X64708Y211076D01*
X69092Y215460D01*
X77546Y215460D01*
X78041Y215561D01*
X78444Y215832D01*
X84422Y221810D01*
X90156Y221810D01*
X90651Y221911D01*
X91068Y222196D01*
X91340Y222622D01*
X91425Y223120D01*
X91309Y223612D01*
X91054Y223978D01*
X88540Y226492D01*
X88540Y234908D01*
X94492Y240860D01*
X102908Y240860D01*
X108860Y234908D01*
X108860Y234587D01*
X108961Y234091D01*
X109246Y233674D01*
X109672Y233402D01*
X110170Y233317D01*
X110662Y233434D01*
X111028Y233689D01*
X133642Y256302D01*
X141730Y256302D01*
X142226Y256403D01*
X142643Y256688D01*
X142915Y257114D01*
X143000Y257572D01*
X143000Y259717D01*
X143885Y261853D01*
X145521Y263489D01*
X146454Y263875D01*
X146873Y264158D01*
X147149Y264582D01*
X147238Y265049D01*
X147238Y286908D01*
X150338Y290008D01*
X150617Y290429D01*
X150710Y290906D01*
X150710Y303320D01*
X152930Y305540D01*
X156070Y305540D01*
X156102Y305508D01*
X156523Y305229D01*
X157020Y305136D01*
X157514Y305245D01*
X157898Y305508D01*
X157930Y305540D01*
X161070Y305540D01*
X161102Y305508D01*
X161523Y305229D01*
X162020Y305136D01*
X162514Y305245D01*
X162898Y305508D01*
X162930Y305540D01*
X166070Y305540D01*
X166102Y305508D01*
X166523Y305229D01*
X167020Y305136D01*
X167514Y305245D01*
X167898Y305508D01*
X167930Y305540D01*
X171070Y305540D01*
X171102Y305508D01*
X171523Y305229D01*
X172020Y305136D01*
X172514Y305245D01*
X172898Y305508D01*
X172930Y305540D01*
X176070Y305540D01*
X176102Y305508D01*
X176523Y305229D01*
X177020Y305136D01*
X177514Y305245D01*
X177898Y305508D01*
X177930Y305540D01*
X181070Y305540D01*
X181102Y305508D01*
X181523Y305229D01*
X182020Y305136D01*
X182514Y305245D01*
X182898Y305508D01*
X182930Y305540D01*
X186070Y305540D01*
X186102Y305508D01*
X186523Y305229D01*
X187020Y305136D01*
X187514Y305245D01*
X187898Y305508D01*
X187930Y305540D01*
X191070Y305540D01*
X191102Y305508D01*
X191523Y305229D01*
X192020Y305136D01*
X192514Y305245D01*
X192898Y305508D01*
X192930Y305540D01*
X196070Y305540D01*
X196102Y305508D01*
X196523Y305229D01*
X197020Y305136D01*
X197514Y305245D01*
X197898Y305508D01*
X197930Y305540D01*
X201070Y305540D01*
X201102Y305508D01*
X201523Y305229D01*
X202020Y305136D01*
X202514Y305245D01*
X202898Y305508D01*
X202930Y305540D01*
X206070Y305540D01*
X206102Y305508D01*
X206523Y305229D01*
X207020Y305136D01*
X207514Y305245D01*
X207898Y305508D01*
X207930Y305540D01*
X211070Y305540D01*
X213290Y303320D01*
X213290Y290906D01*
X213391Y290410D01*
X213662Y290008D01*
X216910Y286760D01*
X216910Y253100D01*
X216907Y253095D01*
X216814Y252618D01*
X216814Y250843D01*
X215929Y248707D01*
X214293Y247071D01*
X212157Y246186D01*
X209843Y246186D01*
X207707Y247071D01*
X206071Y248707D01*
X205186Y250843D01*
X205186Y253156D01*
X205332Y253509D01*
X205429Y254006D01*
X205324Y254500D01*
X205035Y254915D01*
X204749Y255101D01*
X203071Y256779D01*
X202186Y258915D01*
X202186Y261228D01*
X202332Y261581D01*
X202429Y262078D01*
X202324Y262572D01*
X202035Y262987D01*
X201749Y263173D01*
X200071Y264851D01*
X199186Y266987D01*
X199186Y269509D01*
X199206Y269612D01*
X199101Y270106D01*
X198812Y270521D01*
X198422Y270775D01*
X197707Y271071D01*
X196071Y272707D01*
X195369Y274402D01*
X195086Y274821D01*
X194663Y275097D01*
X194196Y275186D01*
X193336Y275186D01*
X191044Y276135D01*
X190892Y276236D01*
X190395Y276329D01*
X189929Y276232D01*
X187577Y275258D01*
X185264Y275258D01*
X182911Y276232D01*
X182415Y276329D01*
X181921Y276225D01*
X181779Y276128D01*
X179505Y275186D01*
X177192Y275186D01*
X175055Y276071D01*
X174798Y276328D01*
X174377Y276607D01*
X173880Y276700D01*
X173414Y276603D01*
X171433Y275783D01*
X171316Y275783D01*
X170820Y275682D01*
X170404Y275396D01*
X170142Y274999D01*
X169250Y272843D01*
X167614Y271208D01*
X167051Y270975D01*
X166632Y270692D01*
X166356Y270268D01*
X166267Y269801D01*
X166267Y267432D01*
X165382Y265296D01*
X163746Y263660D01*
X163403Y263518D01*
X162984Y263235D01*
X162708Y262812D01*
X162620Y262314D01*
X162700Y261933D01*
X162700Y259583D01*
X162279Y258566D01*
X162182Y258070D01*
X162287Y257575D01*
X162576Y257161D01*
X163004Y256892D01*
X163452Y256810D01*
X181578Y256810D01*
X228018Y210370D01*
X228439Y210091D01*
X228936Y209998D01*
X229430Y210107D01*
X229842Y210399D01*
X230108Y210829D01*
X230186Y211268D01*
X230186Y212124D01*
X231159Y214472D01*
X231195Y214527D01*
X231288Y215024D01*
X231179Y215518D01*
X231146Y215566D01*
X230186Y217883D01*
X230186Y220196D01*
X231071Y222333D01*
X232707Y223968D01*
X234843Y224854D01*
X237157Y224854D01*
X239293Y223968D01*
X240929Y222333D01*
X241814Y220196D01*
X241814Y219072D01*
X241915Y218577D01*
X242200Y218160D01*
X242626Y217887D01*
X243084Y217802D01*
X263666Y217802D01*
X264161Y217903D01*
X264564Y218174D01*
X264680Y218290D01*
X279320Y218290D01*
X281540Y216070D01*
X281540Y212930D01*
X281508Y212898D01*
X281229Y212477D01*
X281136Y211980D01*
X281245Y211486D01*
X281508Y211102D01*
X281540Y211070D01*
X281540Y207930D01*
X281508Y207898D01*
X281229Y207477D01*
X281136Y206980D01*
X281245Y206486D01*
X281508Y206102D01*
X281540Y206070D01*
X281540Y202930D01*
X281508Y202898D01*
X281229Y202477D01*
X281136Y201980D01*
X281245Y201486D01*
X281508Y201102D01*
X281540Y201070D01*
X281540Y197920D01*
X281280Y197528D01*
X281188Y197031D01*
X281296Y196538D01*
X281589Y196125D01*
X282019Y195860D01*
X282458Y195782D01*
X284955Y195782D01*
X287091Y194897D01*
X288727Y193261D01*
X289612Y191124D01*
X289612Y188811D01*
X289511Y188567D01*
X289414Y188070D01*
X289519Y187576D01*
X289808Y187161D01*
X290198Y186907D01*
X290398Y186825D01*
X292033Y185189D01*
X292918Y183052D01*
X292918Y180597D01*
X292874Y180369D01*
X292979Y179875D01*
X293268Y179460D01*
X293658Y179206D01*
X294038Y179049D01*
X295673Y177413D01*
X296558Y175276D01*
X296558Y172902D01*
X296659Y172406D01*
X296945Y171989D01*
X297342Y171728D01*
X297901Y171497D01*
X299537Y169861D01*
X300474Y167598D01*
X300757Y167179D01*
X301180Y166903D01*
X301648Y166814D01*
X301837Y166814D01*
X304185Y165841D01*
X304239Y165805D01*
X304736Y165712D01*
X305230Y165821D01*
X305279Y165854D01*
X307595Y166814D01*
X309909Y166814D01*
X312137Y165891D01*
X312399Y165717D01*
X312896Y165624D01*
X313390Y165733D01*
G37*
%LPC*%
G36*
X144762Y420508D02*
X144762Y426891D01*
X149903Y426891D01*
X151391Y425403D01*
X151391Y420508D01*
X144762Y420508D01*
G37*
G36*
X136609Y420508D02*
X136609Y425403D01*
X138097Y426891D01*
X143238Y426891D01*
X143238Y420508D01*
X136609Y420508D01*
G37*
G36*
X94492Y398340D02*
X88540Y404292D01*
X88540Y412708D01*
X94492Y418660D01*
X102908Y418660D01*
X108860Y412708D01*
X108860Y404292D01*
X102908Y398340D01*
X94492Y398340D01*
G37*
G36*
X94492Y372940D02*
X88540Y378892D01*
X88540Y387308D01*
X94492Y393260D01*
X102908Y393260D01*
X108860Y387308D01*
X108860Y378892D01*
X102908Y372940D01*
X94492Y372940D01*
G37*
G36*
X282843Y328186D02*
X280707Y329071D01*
X279071Y330707D01*
X278186Y332843D01*
X278186Y335157D01*
X279071Y337293D01*
X280756Y338978D01*
X281064Y339186D01*
X281340Y339609D01*
X281428Y340107D01*
X281332Y340563D01*
X281186Y340916D01*
X281186Y343229D01*
X282071Y345365D01*
X283756Y347050D01*
X284064Y347258D01*
X284340Y347681D01*
X284428Y348179D01*
X284332Y348635D01*
X284186Y348988D01*
X284186Y351301D01*
X285071Y353437D01*
X286707Y355073D01*
X287535Y355416D01*
X287954Y355698D01*
X288230Y356122D01*
X288313Y356591D01*
X288318Y356591D01*
X288318Y356618D01*
X288318Y356620D01*
X288318Y356621D01*
X288318Y359157D01*
X289203Y361293D01*
X290839Y362929D01*
X292975Y363814D01*
X293980Y363814D01*
X294475Y363915D01*
X294892Y364200D01*
X295153Y364598D01*
X295855Y366293D01*
X297491Y367929D01*
X299627Y368814D01*
X301941Y368814D01*
X304293Y367840D01*
X304789Y367743D01*
X305283Y367848D01*
X305425Y367944D01*
X307699Y368886D01*
X310013Y368886D01*
X312304Y367937D01*
X312457Y367836D01*
X312954Y367743D01*
X313419Y367840D01*
X315771Y368814D01*
X318085Y368814D01*
X320433Y367841D01*
X320487Y367805D01*
X320984Y367712D01*
X321478Y367821D01*
X321527Y367854D01*
X323843Y368814D01*
X326157Y368814D01*
X328293Y367929D01*
X329929Y366293D01*
X330868Y364025D01*
X330915Y363798D01*
X331200Y363381D01*
X331626Y363109D01*
X332084Y363023D01*
X332366Y363023D01*
X334503Y362138D01*
X336138Y360503D01*
X337023Y358366D01*
X337023Y356862D01*
X337124Y356366D01*
X337410Y355950D01*
X337807Y355688D01*
X339293Y355073D01*
X340929Y353437D01*
X341814Y351301D01*
X341814Y348988D01*
X341668Y348635D01*
X341571Y348139D01*
X341676Y347644D01*
X341965Y347229D01*
X342251Y347043D01*
X343929Y345365D01*
X344814Y343229D01*
X344814Y340916D01*
X344668Y340563D01*
X344571Y340067D01*
X344676Y339572D01*
X344965Y339157D01*
X345251Y338971D01*
X346929Y337293D01*
X347814Y335157D01*
X347814Y332843D01*
X346929Y330707D01*
X345293Y329071D01*
X343157Y328186D01*
X340843Y328186D01*
X338707Y329071D01*
X337071Y330707D01*
X336186Y332843D01*
X336186Y335156D01*
X336332Y335509D01*
X336429Y336006D01*
X336324Y336500D01*
X336035Y336915D01*
X335749Y337101D01*
X334071Y338779D01*
X333186Y340915D01*
X333186Y343228D01*
X333332Y343581D01*
X333429Y344078D01*
X333324Y344572D01*
X333035Y344987D01*
X332749Y345173D01*
X331071Y346851D01*
X330186Y348987D01*
X330186Y350491D01*
X330085Y350987D01*
X329800Y351404D01*
X329402Y351665D01*
X327916Y352280D01*
X326280Y353916D01*
X325341Y356184D01*
X325295Y356411D01*
X325009Y356828D01*
X324583Y357101D01*
X324125Y357186D01*
X323843Y357186D01*
X321495Y358159D01*
X321441Y358195D01*
X320944Y358288D01*
X320450Y358179D01*
X320401Y358146D01*
X318085Y357186D01*
X315771Y357186D01*
X313480Y358135D01*
X313327Y358236D01*
X312830Y358329D01*
X312365Y358232D01*
X310013Y357258D01*
X307699Y357258D01*
X305347Y358232D01*
X304851Y358329D01*
X304357Y358224D01*
X304215Y358128D01*
X301941Y357186D01*
X300936Y357186D01*
X300441Y357085D01*
X300024Y356800D01*
X299763Y356402D01*
X299061Y354707D01*
X297425Y353071D01*
X296597Y352728D01*
X296178Y352446D01*
X295902Y352022D01*
X295819Y351553D01*
X295814Y351553D01*
X295814Y351526D01*
X295814Y351524D01*
X295814Y351523D01*
X295814Y348987D01*
X294929Y346851D01*
X293244Y345166D01*
X292936Y344958D01*
X292660Y344535D01*
X292572Y344037D01*
X292668Y343581D01*
X292814Y343228D01*
X292814Y340915D01*
X291929Y338779D01*
X290244Y337094D01*
X289936Y336886D01*
X289660Y336463D01*
X289572Y335965D01*
X289668Y335509D01*
X289814Y335156D01*
X289814Y332843D01*
X288929Y330707D01*
X287293Y329071D01*
X285157Y328186D01*
X282843Y328186D01*
G37*
G36*
X94492Y347540D02*
X88540Y353492D01*
X88540Y361908D01*
X94492Y367860D01*
X102908Y367860D01*
X108860Y361908D01*
X108860Y353492D01*
X102908Y347540D01*
X94492Y347540D01*
G37*
G36*
X265843Y295186D02*
X263707Y296071D01*
X262071Y297707D01*
X261186Y299843D01*
X261186Y300900D01*
X261085Y301395D01*
X260814Y301798D01*
X255190Y307422D01*
X255190Y334062D01*
X255089Y334557D01*
X254818Y334960D01*
X254071Y335707D01*
X253186Y337843D01*
X253186Y340157D01*
X254071Y342293D01*
X255707Y343929D01*
X257843Y344814D01*
X260157Y344814D01*
X262293Y343929D01*
X263929Y342293D01*
X264814Y340157D01*
X264814Y337843D01*
X263929Y335707D01*
X263182Y334960D01*
X262903Y334538D01*
X262810Y334062D01*
X262810Y311104D01*
X262911Y310609D01*
X263182Y310206D01*
X266202Y307186D01*
X266624Y306907D01*
X267100Y306814D01*
X268157Y306814D01*
X270293Y305929D01*
X271929Y304293D01*
X272814Y302157D01*
X272814Y299843D01*
X271929Y297707D01*
X270293Y296071D01*
X268157Y295186D01*
X265843Y295186D01*
G37*
G36*
X94492Y322140D02*
X88540Y328092D01*
X88540Y336508D01*
X94492Y342460D01*
X102908Y342460D01*
X108860Y336508D01*
X108860Y328092D01*
X102908Y322140D01*
X94492Y322140D01*
G37*
G36*
X94492Y296740D02*
X88540Y302692D01*
X88540Y311108D01*
X94492Y317060D01*
X102908Y317060D01*
X108860Y311108D01*
X108860Y302692D01*
X102908Y296740D01*
X94492Y296740D01*
G37*
G36*
X131460Y310262D02*
X131460Y311070D01*
X131492Y311102D01*
X131771Y311523D01*
X131864Y312020D01*
X131755Y312514D01*
X131492Y312898D01*
X131460Y312930D01*
X131460Y313738D01*
X150540Y313738D01*
X150540Y312930D01*
X150508Y312898D01*
X150229Y312477D01*
X150136Y311980D01*
X150245Y311486D01*
X150508Y311102D01*
X150540Y311070D01*
X150540Y310262D01*
X131460Y310262D01*
G37*
G36*
X133680Y305710D02*
X131460Y307930D01*
X131460Y308738D01*
X140238Y308738D01*
X140238Y305710D01*
X133680Y305710D01*
G37*
G36*
X141762Y305710D02*
X141762Y308738D01*
X150540Y308738D01*
X150540Y307930D01*
X148320Y305710D01*
X141762Y305710D01*
G37*
G36*
X94492Y271340D02*
X88540Y277292D01*
X88540Y285708D01*
X94492Y291660D01*
X102908Y291660D01*
X108860Y285708D01*
X108860Y277292D01*
X102908Y271340D01*
X94492Y271340D01*
G37*
G36*
X283930Y218460D02*
X281710Y220680D01*
X281710Y235320D01*
X281826Y235436D01*
X282105Y235857D01*
X282198Y236334D01*
X282198Y245605D01*
X282097Y246100D01*
X281812Y246517D01*
X281414Y246778D01*
X280707Y247071D01*
X279071Y248707D01*
X278186Y250843D01*
X278186Y253157D01*
X279071Y255293D01*
X280756Y256978D01*
X281064Y257186D01*
X281340Y257609D01*
X281428Y258107D01*
X281332Y258563D01*
X281186Y258916D01*
X281186Y261229D01*
X282071Y263365D01*
X283756Y265050D01*
X284064Y265258D01*
X284340Y265681D01*
X284428Y266179D01*
X284332Y266635D01*
X284186Y266988D01*
X284186Y269301D01*
X285071Y271437D01*
X286707Y273073D01*
X287422Y273369D01*
X287841Y273652D01*
X288117Y274075D01*
X288206Y274573D01*
X288186Y274666D01*
X288186Y277157D01*
X289071Y279293D01*
X290707Y280929D01*
X292843Y281814D01*
X294196Y281814D01*
X294691Y281915D01*
X295108Y282200D01*
X295369Y282598D01*
X296071Y284293D01*
X297707Y285929D01*
X299843Y286814D01*
X302157Y286814D01*
X304509Y285840D01*
X305005Y285743D01*
X305499Y285848D01*
X305641Y285944D01*
X307915Y286886D01*
X310229Y286886D01*
X312457Y285963D01*
X312719Y285789D01*
X313216Y285697D01*
X313710Y285805D01*
X313794Y285862D01*
X316091Y286814D01*
X318405Y286814D01*
X320753Y285842D01*
X320807Y285805D01*
X321304Y285713D01*
X321798Y285821D01*
X321847Y285855D01*
X324163Y286814D01*
X326477Y286814D01*
X328613Y285929D01*
X330249Y284294D01*
X331183Y282038D01*
X331466Y281619D01*
X331889Y281343D01*
X332356Y281254D01*
X332540Y281254D01*
X334677Y280369D01*
X336313Y278734D01*
X337198Y276597D01*
X337198Y274222D01*
X337298Y273727D01*
X337584Y273310D01*
X337982Y273049D01*
X338541Y272817D01*
X340176Y271182D01*
X341062Y269045D01*
X341062Y266579D01*
X341021Y266372D01*
X341126Y265877D01*
X341415Y265463D01*
X341805Y265209D01*
X342189Y265050D01*
X343825Y263414D01*
X344710Y261277D01*
X344710Y258964D01*
X344606Y258714D01*
X344509Y258218D01*
X344614Y257723D01*
X344903Y257309D01*
X345293Y257055D01*
X345479Y256978D01*
X347115Y255342D01*
X348000Y253205D01*
X348000Y250892D01*
X347115Y248755D01*
X345479Y247120D01*
X344586Y246750D01*
X344167Y246468D01*
X343891Y246044D01*
X343802Y245577D01*
X343802Y236334D01*
X343903Y235839D01*
X344174Y235436D01*
X344290Y235320D01*
X344290Y220680D01*
X342070Y218460D01*
X338930Y218460D01*
X338898Y218492D01*
X338477Y218771D01*
X337980Y218864D01*
X337486Y218755D01*
X337102Y218492D01*
X337070Y218460D01*
X333930Y218460D01*
X333898Y218492D01*
X333477Y218771D01*
X332980Y218864D01*
X332486Y218755D01*
X332102Y218492D01*
X332070Y218460D01*
X328930Y218460D01*
X328898Y218492D01*
X328477Y218771D01*
X327980Y218864D01*
X327486Y218755D01*
X327102Y218492D01*
X327070Y218460D01*
X323930Y218460D01*
X323898Y218492D01*
X323477Y218771D01*
X322980Y218864D01*
X322486Y218755D01*
X322102Y218492D01*
X322070Y218460D01*
X318930Y218460D01*
X318898Y218492D01*
X318477Y218771D01*
X317980Y218864D01*
X317486Y218755D01*
X317102Y218492D01*
X317070Y218460D01*
X313930Y218460D01*
X313898Y218492D01*
X313477Y218771D01*
X312980Y218864D01*
X312486Y218755D01*
X312102Y218492D01*
X312070Y218460D01*
X308930Y218460D01*
X308898Y218492D01*
X308477Y218771D01*
X307980Y218864D01*
X307486Y218755D01*
X307102Y218492D01*
X307070Y218460D01*
X303930Y218460D01*
X303898Y218492D01*
X303477Y218771D01*
X302980Y218864D01*
X302486Y218755D01*
X302102Y218492D01*
X302070Y218460D01*
X298930Y218460D01*
X298898Y218492D01*
X298477Y218771D01*
X297980Y218864D01*
X297486Y218755D01*
X297102Y218492D01*
X297070Y218460D01*
X293930Y218460D01*
X293898Y218492D01*
X293477Y218771D01*
X292980Y218864D01*
X292486Y218755D01*
X292102Y218492D01*
X292070Y218460D01*
X288930Y218460D01*
X288898Y218492D01*
X288477Y218771D01*
X287980Y218864D01*
X287486Y218755D01*
X287102Y218492D01*
X287070Y218460D01*
X283930Y218460D01*
G37*
G36*
X94492Y245940D02*
X88540Y251892D01*
X88540Y260308D01*
X94492Y266260D01*
X102908Y266260D01*
X108860Y260308D01*
X108860Y251892D01*
X102908Y245940D01*
X94492Y245940D01*
G37*
G36*
X344460Y215262D02*
X344460Y216070D01*
X346680Y218290D01*
X353238Y218290D01*
X353238Y215262D01*
X344460Y215262D01*
G37*
G36*
X354762Y215262D02*
X354762Y218290D01*
X361320Y218290D01*
X363540Y216070D01*
X363540Y215262D01*
X354762Y215262D01*
G37*
G36*
X344460Y210262D02*
X344460Y211070D01*
X344492Y211102D01*
X344771Y211523D01*
X344864Y212020D01*
X344755Y212514D01*
X344492Y212898D01*
X344460Y212930D01*
X344460Y213738D01*
X363540Y213738D01*
X363540Y212930D01*
X363508Y212898D01*
X363229Y212477D01*
X363136Y211980D01*
X363245Y211486D01*
X363508Y211102D01*
X363540Y211070D01*
X363540Y210262D01*
X344460Y210262D01*
G37*
%LPD*%
G36*
X371685Y2641D02*
X372102Y2926D01*
X372375Y3352D01*
X372460Y3810D01*
X372460Y142210D01*
X372359Y142705D01*
X372074Y143122D01*
X371648Y143394D01*
X371150Y143479D01*
X370658Y143363D01*
X370292Y143108D01*
X365452Y138268D01*
X365173Y137846D01*
X365080Y137370D01*
X365080Y136161D01*
X365181Y135665D01*
X365466Y135248D01*
X365685Y135108D01*
X367391Y133403D01*
X367391Y122089D01*
X366200Y120898D01*
X365921Y120477D01*
X365828Y119980D01*
X365936Y119486D01*
X366200Y119102D01*
X367391Y117911D01*
X367391Y113016D01*
X352609Y113016D01*
X352609Y117911D01*
X353800Y119102D01*
X354080Y119523D01*
X354172Y120020D01*
X354064Y120514D01*
X353800Y120898D01*
X352609Y122089D01*
X352609Y133403D01*
X354311Y135105D01*
X354562Y135277D01*
X354835Y135703D01*
X354920Y136161D01*
X354920Y141010D01*
X355693Y142878D01*
X360548Y147732D01*
X360827Y148154D01*
X360920Y148630D01*
X360920Y153819D01*
X360823Y154305D01*
X360566Y154926D01*
X360284Y155345D01*
X359860Y155621D01*
X359393Y155710D01*
X348906Y155710D01*
X348410Y155609D01*
X348008Y155338D01*
X344662Y151992D01*
X344383Y151571D01*
X344290Y151094D01*
X344290Y138680D01*
X342070Y136460D01*
X338930Y136460D01*
X338898Y136492D01*
X338477Y136771D01*
X337980Y136864D01*
X337486Y136755D01*
X337102Y136492D01*
X337070Y136460D01*
X333930Y136460D01*
X333898Y136492D01*
X333477Y136771D01*
X332980Y136864D01*
X332486Y136755D01*
X332102Y136492D01*
X332070Y136460D01*
X328930Y136460D01*
X328898Y136492D01*
X328477Y136771D01*
X327980Y136864D01*
X327486Y136755D01*
X327102Y136492D01*
X327070Y136460D01*
X323930Y136460D01*
X323898Y136492D01*
X323477Y136771D01*
X322980Y136864D01*
X322486Y136755D01*
X322102Y136492D01*
X322070Y136460D01*
X318930Y136460D01*
X318898Y136492D01*
X318477Y136771D01*
X317980Y136864D01*
X317486Y136755D01*
X317102Y136492D01*
X317070Y136460D01*
X313930Y136460D01*
X313898Y136492D01*
X313477Y136771D01*
X312980Y136864D01*
X312486Y136755D01*
X312102Y136492D01*
X312070Y136460D01*
X308930Y136460D01*
X308898Y136492D01*
X308477Y136771D01*
X307980Y136864D01*
X307486Y136755D01*
X307102Y136492D01*
X307070Y136460D01*
X303930Y136460D01*
X303898Y136492D01*
X303477Y136771D01*
X302980Y136864D01*
X302486Y136755D01*
X302102Y136492D01*
X302070Y136460D01*
X298930Y136460D01*
X298898Y136492D01*
X298477Y136771D01*
X297980Y136864D01*
X297486Y136755D01*
X297102Y136492D01*
X297070Y136460D01*
X293930Y136460D01*
X293898Y136492D01*
X293477Y136771D01*
X292980Y136864D01*
X292486Y136755D01*
X292102Y136492D01*
X292070Y136460D01*
X288930Y136460D01*
X288898Y136492D01*
X288477Y136771D01*
X287980Y136864D01*
X287486Y136755D01*
X287102Y136492D01*
X287070Y136460D01*
X283930Y136460D01*
X281710Y138680D01*
X281710Y151094D01*
X281609Y151590D01*
X281338Y151992D01*
X277992Y155338D01*
X277571Y155617D01*
X277094Y155710D01*
X264680Y155710D01*
X264564Y155826D01*
X264143Y156105D01*
X263666Y156198D01*
X243084Y156198D01*
X242589Y156097D01*
X242172Y155812D01*
X241899Y155386D01*
X241814Y154928D01*
X241814Y153843D01*
X240929Y151707D01*
X239293Y150071D01*
X237157Y149186D01*
X234843Y149186D01*
X232707Y150071D01*
X231071Y151707D01*
X230186Y153843D01*
X230186Y153900D01*
X230085Y154395D01*
X229814Y154798D01*
X213998Y170614D01*
X213998Y176710D01*
X213897Y177205D01*
X213612Y177622D01*
X213186Y177894D01*
X212688Y177979D01*
X212196Y177863D01*
X211830Y177608D01*
X211334Y177112D01*
X210954Y176955D01*
X210535Y176672D01*
X210259Y176249D01*
X210171Y175751D01*
X210215Y175543D01*
X210215Y173108D01*
X209330Y170972D01*
X207694Y169336D01*
X207135Y169104D01*
X206716Y168822D01*
X206440Y168398D01*
X206351Y167931D01*
X206351Y165556D01*
X205466Y163420D01*
X203830Y161784D01*
X201477Y160809D01*
X201423Y160798D01*
X201006Y160513D01*
X200734Y160087D01*
X200721Y160019D01*
X199763Y157707D01*
X198128Y156071D01*
X195991Y155186D01*
X193678Y155186D01*
X191330Y156159D01*
X191275Y156195D01*
X190778Y156288D01*
X190284Y156179D01*
X190236Y156146D01*
X187919Y155186D01*
X185606Y155186D01*
X183254Y156160D01*
X182758Y156257D01*
X182263Y156152D01*
X182121Y156056D01*
X179847Y155114D01*
X177534Y155114D01*
X175334Y156025D01*
X175022Y156232D01*
X174526Y156324D01*
X174060Y156228D01*
X171775Y155281D01*
X169462Y155281D01*
X167325Y156166D01*
X165689Y157802D01*
X164717Y160150D01*
X164704Y160214D01*
X164418Y160631D01*
X163992Y160904D01*
X163934Y160915D01*
X161617Y161874D01*
X159982Y163510D01*
X159042Y165777D01*
X158760Y166196D01*
X158336Y166472D01*
X157946Y166547D01*
X156142Y167294D01*
X155646Y167391D01*
X155151Y167286D01*
X154737Y166997D01*
X154468Y166569D01*
X154386Y166121D01*
X154386Y138084D01*
X154487Y137589D01*
X154772Y137172D01*
X155198Y136899D01*
X155656Y136814D01*
X158157Y136814D01*
X159695Y136177D01*
X160181Y136080D01*
X161819Y136080D01*
X162305Y136177D01*
X163843Y136814D01*
X166157Y136814D01*
X168293Y135929D01*
X169929Y134293D01*
X170814Y132157D01*
X170814Y129843D01*
X169929Y127707D01*
X168293Y126071D01*
X166157Y125186D01*
X163843Y125186D01*
X162305Y125823D01*
X161819Y125920D01*
X160181Y125920D01*
X159695Y125823D01*
X158157Y125186D01*
X155656Y125186D01*
X155161Y125085D01*
X154744Y124800D01*
X154471Y124374D01*
X154386Y123916D01*
X154386Y103741D01*
X154487Y103245D01*
X154772Y102828D01*
X155198Y102556D01*
X155696Y102471D01*
X156142Y102567D01*
X156912Y102886D01*
X159225Y102886D01*
X161361Y102001D01*
X162997Y100365D01*
X163882Y98229D01*
X163882Y95915D01*
X162931Y93620D01*
X162835Y93474D01*
X162742Y92977D01*
X162839Y92512D01*
X163814Y90156D01*
X163814Y87843D01*
X162929Y85707D01*
X162182Y84960D01*
X161903Y84538D01*
X161810Y84062D01*
X161810Y52098D01*
X161911Y51603D01*
X162196Y51186D01*
X162622Y50914D01*
X163120Y50829D01*
X163612Y50945D01*
X163978Y51200D01*
X164707Y51929D01*
X166245Y52566D01*
X166657Y52841D01*
X171122Y57307D01*
X172099Y57711D01*
X172518Y57994D01*
X172794Y58417D01*
X172883Y58884D01*
X172883Y61379D01*
X174371Y62867D01*
X188121Y62867D01*
X189102Y61886D01*
X189523Y61607D01*
X190020Y61514D01*
X190514Y61622D01*
X190898Y61886D01*
X191879Y62867D01*
X197992Y62867D01*
X197992Y43134D01*
X193227Y43134D01*
X192731Y43033D01*
X192315Y42747D01*
X192042Y42321D01*
X191957Y41823D01*
X192074Y41331D01*
X192329Y40965D01*
X193001Y40293D01*
X193886Y38157D01*
X193886Y35843D01*
X193001Y33707D01*
X191365Y32071D01*
X189229Y31186D01*
X186915Y31186D01*
X184567Y32159D01*
X184513Y32195D01*
X184016Y32288D01*
X183522Y32179D01*
X183473Y32146D01*
X181157Y31186D01*
X178843Y31186D01*
X176707Y32071D01*
X175071Y33707D01*
X174585Y34880D01*
X174303Y35299D01*
X173879Y35575D01*
X173382Y35663D01*
X172889Y35551D01*
X172514Y35292D01*
X171293Y34071D01*
X169157Y33186D01*
X166843Y33186D01*
X164707Y34071D01*
X163486Y35292D01*
X163065Y35571D01*
X162568Y35664D01*
X162074Y35555D01*
X161662Y35263D01*
X161415Y34880D01*
X160929Y33707D01*
X159293Y32071D01*
X157157Y31186D01*
X154843Y31186D01*
X152707Y32071D01*
X151071Y33707D01*
X150186Y35843D01*
X150186Y38156D01*
X150318Y38474D01*
X150414Y38970D01*
X150310Y39465D01*
X150021Y39879D01*
X149593Y40148D01*
X149094Y40229D01*
X148603Y40109D01*
X148246Y39858D01*
X132078Y23690D01*
X109784Y23690D01*
X109289Y23589D01*
X108886Y23318D01*
X102908Y17340D01*
X94492Y17340D01*
X88540Y23292D01*
X88540Y31708D01*
X90854Y34022D01*
X91133Y34443D01*
X91225Y34940D01*
X91117Y35434D01*
X90825Y35846D01*
X90394Y36112D01*
X89956Y36190D01*
X87904Y36190D01*
X87409Y36089D01*
X87006Y35818D01*
X83832Y32644D01*
X83553Y32222D01*
X83460Y31746D01*
X83460Y23292D01*
X77508Y17340D01*
X69092Y17340D01*
X64708Y21724D01*
X64287Y22003D01*
X63790Y22095D01*
X63296Y21987D01*
X62884Y21695D01*
X62618Y21264D01*
X62540Y20826D01*
X62540Y3810D01*
X62641Y3315D01*
X62926Y2898D01*
X63352Y2625D01*
X63810Y2540D01*
X371190Y2540D01*
X371685Y2641D01*
G37*
%LPC*%
G36*
X360762Y105110D02*
X360762Y111492D01*
X367391Y111492D01*
X367391Y106597D01*
X365903Y105110D01*
X360762Y105110D01*
G37*
G36*
X354097Y105110D02*
X352609Y106597D01*
X352609Y111492D01*
X359238Y111492D01*
X359238Y105110D01*
X354097Y105110D01*
G37*
G36*
X178843Y71186D02*
X176707Y72071D01*
X175071Y73707D01*
X174186Y75843D01*
X174186Y78157D01*
X175071Y80293D01*
X176707Y81929D01*
X178843Y82814D01*
X181157Y82814D01*
X183293Y81929D01*
X184929Y80293D01*
X185814Y78157D01*
X185814Y75843D01*
X184929Y73707D01*
X183293Y72071D01*
X181157Y71186D01*
X178843Y71186D01*
G37*
G36*
X199516Y43134D02*
X199516Y62867D01*
X205629Y62867D01*
X207225Y61270D01*
X207647Y60991D01*
X208144Y60899D01*
X208637Y61007D01*
X209021Y61270D01*
X209295Y61544D01*
X211699Y62540D01*
X214301Y62540D01*
X216705Y61544D01*
X218544Y59705D01*
X219540Y57301D01*
X219540Y54699D01*
X218544Y52295D01*
X216705Y50456D01*
X214301Y49460D01*
X211699Y49460D01*
X209295Y50456D01*
X209285Y50466D01*
X208864Y50745D01*
X208367Y50838D01*
X207873Y50729D01*
X207461Y50437D01*
X207195Y50007D01*
X207117Y49568D01*
X207117Y44621D01*
X205629Y43134D01*
X199516Y43134D01*
G37*
%LPD*%
D10*
X209500Y372250D02*
X209500Y383750D01*
X204500Y383750D02*
X204500Y372250D01*
X199500Y372250D02*
X199500Y383750D01*
X194500Y383750D02*
X194500Y372250D01*
X189500Y372250D02*
X189500Y383750D01*
X184500Y383750D02*
X184500Y372250D01*
X179500Y372250D02*
X179500Y383750D01*
X174500Y383750D02*
X174500Y372250D01*
X169500Y372250D02*
X169500Y383750D01*
X164500Y383750D02*
X164500Y372250D01*
X159500Y372250D02*
X159500Y383750D01*
X154500Y383750D02*
X154500Y372250D01*
X146750Y364500D02*
X135250Y364500D01*
X135250Y359500D02*
X146750Y359500D01*
X146750Y354500D02*
X135250Y354500D01*
X135250Y349500D02*
X146750Y349500D01*
X146750Y344500D02*
X135250Y344500D01*
X135250Y339500D02*
X146750Y339500D01*
X146750Y334500D02*
X135250Y334500D01*
X135250Y329500D02*
X146750Y329500D01*
X146750Y324500D02*
X135250Y324500D01*
X135250Y319500D02*
X146750Y319500D01*
X146750Y314500D02*
X135250Y314500D01*
X135250Y309500D02*
X146750Y309500D01*
X154500Y301750D02*
X154500Y290250D01*
X159500Y290250D02*
X159500Y301750D01*
X164500Y301750D02*
X164500Y290250D01*
X169500Y290250D02*
X169500Y301750D01*
X174500Y301750D02*
X174500Y290250D01*
X179500Y290250D02*
X179500Y301750D01*
X184500Y301750D02*
X184500Y290250D01*
X189500Y290250D02*
X189500Y301750D01*
X194500Y301750D02*
X194500Y290250D01*
X199500Y290250D02*
X199500Y301750D01*
X204500Y301750D02*
X204500Y290250D01*
X209500Y290250D02*
X209500Y301750D01*
X217250Y309500D02*
X228750Y309500D01*
X228750Y314500D02*
X217250Y314500D01*
X217250Y319500D02*
X228750Y319500D01*
X228750Y324500D02*
X217250Y324500D01*
X217250Y329500D02*
X228750Y329500D01*
X228750Y334500D02*
X217250Y334500D01*
X217250Y339500D02*
X228750Y339500D01*
X228750Y344500D02*
X217250Y344500D01*
X217250Y349500D02*
X228750Y349500D01*
X228750Y354500D02*
X217250Y354500D01*
X217250Y359500D02*
X228750Y359500D01*
X228750Y364500D02*
X217250Y364500D01*
D11*
X144000Y419746D03*
X144000Y404254D03*
D10*
X285500Y151750D02*
X285500Y140250D01*
X290500Y140250D02*
X290500Y151750D01*
X295500Y151750D02*
X295500Y140250D01*
X300500Y140250D02*
X300500Y151750D01*
X305500Y151750D02*
X305500Y140250D01*
X310500Y140250D02*
X310500Y151750D01*
X315500Y151750D02*
X315500Y140250D01*
X320500Y140250D02*
X320500Y151750D01*
X325500Y151750D02*
X325500Y140250D01*
X330500Y140250D02*
X330500Y151750D01*
X335500Y151750D02*
X335500Y140250D01*
X340500Y140250D02*
X340500Y151750D01*
X348250Y159500D02*
X359750Y159500D01*
X359750Y164500D02*
X348250Y164500D01*
X348250Y169500D02*
X359750Y169500D01*
X359750Y174500D02*
X348250Y174500D01*
X348250Y179500D02*
X359750Y179500D01*
X359750Y184500D02*
X348250Y184500D01*
X348250Y189500D02*
X359750Y189500D01*
X359750Y194500D02*
X348250Y194500D01*
X348250Y199500D02*
X359750Y199500D01*
X359750Y204500D02*
X348250Y204500D01*
X348250Y209500D02*
X359750Y209500D01*
X359750Y214500D02*
X348250Y214500D01*
X340500Y222250D02*
X340500Y233750D01*
X335500Y233750D02*
X335500Y222250D01*
X330500Y222250D02*
X330500Y233750D01*
X325500Y233750D02*
X325500Y222250D01*
X320500Y222250D02*
X320500Y233750D01*
X315500Y233750D02*
X315500Y222250D01*
X310500Y222250D02*
X310500Y233750D01*
X305500Y233750D02*
X305500Y222250D01*
X300500Y222250D02*
X300500Y233750D01*
X295500Y233750D02*
X295500Y222250D01*
X290500Y222250D02*
X290500Y233750D01*
X285500Y233750D02*
X285500Y222250D01*
X277750Y214500D02*
X266250Y214500D01*
X266250Y209500D02*
X277750Y209500D01*
X277750Y204500D02*
X266250Y204500D01*
X266250Y199500D02*
X277750Y199500D01*
X277750Y194500D02*
X266250Y194500D01*
X266250Y189500D02*
X277750Y189500D01*
X277750Y184500D02*
X266250Y184500D01*
X266250Y179500D02*
X277750Y179500D01*
X277750Y174500D02*
X266250Y174500D01*
X266250Y169500D02*
X277750Y169500D01*
X277750Y164500D02*
X266250Y164500D01*
X266250Y159500D02*
X277750Y159500D01*
D11*
X360000Y112254D03*
X360000Y127746D03*
D12*
X198754Y53000D03*
X181246Y53000D03*
D13*
X98700Y27500D03*
X73300Y27500D03*
X98700Y52900D03*
X73300Y52900D03*
X98700Y78300D03*
X73300Y78300D03*
X98700Y103700D03*
X73300Y103700D03*
X98700Y129100D03*
X73300Y129100D03*
X98700Y154500D03*
X73300Y154500D03*
X98700Y179900D03*
X73300Y179900D03*
X98700Y205300D03*
X73300Y205300D03*
X98700Y230700D03*
X73300Y230700D03*
X98700Y256100D03*
X73300Y256100D03*
X98700Y281500D03*
X73300Y281500D03*
X98700Y306900D03*
X73300Y306900D03*
X98700Y332300D03*
X73300Y332300D03*
X98700Y357700D03*
X73300Y357700D03*
X98700Y383100D03*
X73300Y383100D03*
X98700Y408500D03*
X73300Y408500D03*
D14*
X354000Y209500D02*
X364500Y209500D01*
X366000Y208000D01*
D15*
X366000Y208000D03*
D14*
X363500Y214500D02*
X354000Y214500D01*
X363500Y214500D02*
X366000Y217000D01*
D15*
X366000Y217000D03*
X366000Y316000D03*
X366000Y307000D03*
X360000Y100000D03*
X347000Y112000D03*
X356000Y426000D03*
X343000Y412000D03*
X367000Y8000D03*
X367000Y19000D03*
X356000Y8000D03*
X367000Y426000D03*
X367000Y415000D03*
X130000Y414932D03*
X158000Y414932D03*
X68000Y8000D03*
X79000Y8000D03*
X68000Y426000D03*
X79000Y426000D03*
X140000Y9000D03*
X148000Y9000D03*
X157000Y115000D03*
D16*
X154500Y371500D02*
X154500Y378000D01*
X154500Y371500D02*
X150392Y367392D01*
X340500Y152500D02*
X340500Y146000D01*
X340500Y152500D02*
X344608Y156608D01*
D15*
X342000Y334000D03*
X342000Y190000D03*
X153053Y334053D03*
D16*
X150392Y336713D02*
X150392Y367392D01*
X150392Y336713D02*
X153053Y334053D01*
X344608Y187392D02*
X344608Y156608D01*
X344608Y187392D02*
X342000Y190000D01*
D15*
X153088Y187912D03*
D17*
X130500Y27500D02*
X98700Y27500D01*
X130500Y27500D02*
X151000Y48000D01*
D16*
X151084Y185908D02*
X153088Y187912D01*
X151084Y48084D02*
X151000Y48000D01*
X151084Y48084D02*
X151084Y185908D01*
X159500Y371500D02*
X159500Y378000D01*
X153440Y347697D02*
X156000Y345137D01*
X153440Y365440D02*
X159500Y371500D01*
X153440Y365440D02*
X153440Y347697D01*
X335500Y152500D02*
X335500Y146000D01*
X341560Y176303D02*
X339000Y178863D01*
X341560Y158560D02*
X335500Y152500D01*
X341560Y158560D02*
X341560Y176303D01*
X339000Y178863D02*
X339000Y181928D01*
D15*
X339000Y342072D03*
X339000Y181928D03*
X156000Y342125D03*
D16*
X156000Y345137D01*
D15*
X157039Y180447D03*
D16*
X147528Y191215D02*
X147528Y52528D01*
X147528Y191215D02*
X151000Y194687D01*
D17*
X155313Y194687D01*
X159156Y190844D01*
X159156Y182564D01*
X157039Y180447D01*
X85800Y40000D02*
X73300Y27500D01*
X85800Y40000D02*
X135000Y40000D01*
X147528Y52528D01*
D16*
X164500Y372189D02*
X164500Y378000D01*
X157440Y355697D02*
X159000Y354137D01*
X157440Y365129D02*
X164500Y372189D01*
X157440Y365129D02*
X157440Y355697D01*
X330500Y151811D02*
X330500Y146000D01*
X337560Y168303D02*
X336000Y169863D01*
X337560Y158871D02*
X330500Y151811D01*
X337560Y158871D02*
X337560Y168303D01*
X336000Y169863D02*
X336000Y173856D01*
D15*
X336000Y350144D03*
X336000Y173856D03*
X159000Y350197D03*
D16*
X159000Y354137D01*
D15*
X159067Y172375D03*
D16*
X144000Y193998D02*
X149001Y198999D01*
D17*
X149002Y199000D02*
X157000Y199000D01*
X149002Y199000D02*
X149001Y198999D01*
X157000Y199000D02*
X163220Y192780D01*
X163220Y176528D01*
X159067Y172375D01*
X121100Y52900D02*
X98700Y52900D01*
X121100Y52900D02*
X125810Y48190D01*
D16*
X144000Y57000D02*
X144000Y193998D01*
X144000Y57000D02*
X143000Y56000D01*
D17*
X135190Y48190D02*
X125810Y48190D01*
X135190Y48190D02*
X143000Y56000D01*
D16*
X169500Y371500D02*
X169500Y378000D01*
X325500Y152500D02*
X325500Y146000D01*
D15*
X163791Y357209D03*
D16*
X163791Y365791D02*
X169500Y371500D01*
X163791Y365791D02*
X163791Y357209D01*
D15*
X331209Y357209D03*
X331209Y166791D03*
D16*
X331209Y158209D01*
X325500Y152500D01*
D15*
X164911Y166803D03*
D16*
X141432Y197740D02*
X146846Y203154D01*
D17*
X158593Y203154D01*
X167284Y194463D01*
X167284Y169177D01*
X164911Y166803D01*
D16*
X140952Y195260D02*
X140952Y75952D01*
X140952Y195260D02*
X141432Y195740D01*
X141432Y197740D01*
X140952Y75952D02*
X140000Y75000D01*
D17*
X86400Y66000D02*
X73300Y52900D01*
X86400Y66000D02*
X131000Y66000D01*
X140000Y75000D01*
D16*
X174500Y367500D02*
X174500Y378000D01*
X174500Y367500D02*
X170000Y363000D01*
D15*
X170000Y363000D03*
D16*
X320500Y156500D02*
X320500Y146000D01*
X320500Y156500D02*
X325000Y161000D01*
D15*
X325000Y363000D03*
X325000Y161000D03*
X170618Y161095D03*
D16*
X138384Y201003D02*
X144691Y207309D01*
D17*
X172000Y196000D02*
X172000Y162477D01*
X172000Y196000D02*
X160691Y207309D01*
X144691Y207309D01*
X172000Y162477D02*
X170618Y161095D01*
D16*
X137904Y196523D02*
X137904Y83904D01*
X137904Y196523D02*
X138384Y197003D01*
X138384Y201003D01*
X137904Y83904D02*
X137000Y83000D01*
D17*
X132300Y78300D02*
X98700Y78300D01*
X132300Y78300D02*
X137000Y83000D01*
D15*
X178072Y363000D03*
X316928Y363000D03*
X316928Y160928D03*
D16*
X179500Y364428D02*
X179500Y378000D01*
X179500Y364428D02*
X178072Y363000D01*
X315500Y159500D02*
X315500Y146000D01*
X315500Y159500D02*
X316928Y160928D01*
D15*
X178690Y160928D03*
D16*
X135336Y203265D02*
X143535Y211465D01*
D17*
X178690Y195310D02*
X178690Y160928D01*
X178690Y195310D02*
X162535Y211465D01*
X143535Y211465D01*
D16*
X135336Y203265D02*
X135336Y198265D01*
X134856Y197785D01*
X134856Y99856D01*
X134000Y99000D01*
D17*
X86000Y91000D02*
X73300Y78300D01*
X86000Y91000D02*
X126000Y91000D01*
X134000Y99000D01*
D15*
X186144Y363072D03*
X308752Y161000D03*
D16*
X310500Y159252D02*
X310500Y146000D01*
X310500Y159252D02*
X308752Y161000D01*
D15*
X308856Y363072D03*
D16*
X184500Y364716D02*
X184500Y378000D01*
X184500Y364716D02*
X186144Y363072D01*
D15*
X186762Y161000D03*
D17*
X186762Y193238D01*
X164448Y215552D01*
D16*
X132288Y207528D02*
X132288Y199528D01*
X131808Y199048D01*
X131808Y113808D01*
X131000Y113000D01*
D17*
X121700Y103700D02*
X98700Y103700D01*
X121700Y103700D02*
X131000Y113000D01*
X143552Y215552D02*
X164448Y215552D01*
D16*
X140312Y215552D02*
X132288Y207528D01*
X140312Y215552D02*
X143552Y215552D01*
D15*
X194216Y363000D03*
D16*
X189500Y367716D02*
X189500Y378000D01*
X189500Y367716D02*
X194216Y363000D01*
D15*
X300680Y161000D03*
D16*
X305500Y156180D01*
X305500Y146000D01*
D15*
X300784Y363000D03*
X194834Y161000D03*
D17*
X192872Y162962D01*
X192872Y179967D01*
X192808Y180031D01*
X192808Y192939D01*
X166131Y219616D01*
X142900Y219616D01*
D16*
X138066Y219616D02*
X129240Y210790D01*
X138066Y219616D02*
X142900Y219616D01*
X128760Y200310D02*
X128760Y124760D01*
X128760Y200310D02*
X129240Y200790D01*
X129240Y210790D01*
X128760Y124760D02*
X128000Y124000D01*
D17*
X85600Y116000D02*
X73300Y103700D01*
X85600Y116000D02*
X120000Y116000D01*
X128000Y124000D01*
D16*
X194500Y371500D02*
X194500Y378000D01*
D15*
X294608Y166568D03*
D16*
X300500Y152317D02*
X300500Y146000D01*
X294120Y166080D02*
X294608Y166568D01*
X294120Y166080D02*
X294120Y158697D01*
X300500Y152317D01*
D15*
X294132Y358000D03*
X200537Y166713D03*
D17*
X196936Y170314D01*
X196936Y181651D01*
X196872Y181715D01*
X196872Y194623D01*
X167815Y223680D01*
X144583Y223680D01*
D16*
X135863Y223680D02*
X126192Y214009D01*
X135863Y223680D02*
X144583Y223680D01*
X125712Y201573D02*
X125712Y131712D01*
X125712Y201573D02*
X126192Y202053D01*
X126192Y214009D01*
X125712Y131712D02*
X125000Y131000D01*
D17*
X123100Y129100D02*
X98700Y129100D01*
X123100Y129100D02*
X125000Y131000D01*
D15*
X200928Y357996D03*
D16*
X200928Y365072D02*
X194500Y371500D01*
X200928Y365072D02*
X200928Y357996D01*
X199500Y372189D02*
X199500Y378000D01*
X206560Y355697D02*
X205000Y354137D01*
X206560Y365129D02*
X199500Y372189D01*
X206560Y365129D02*
X206560Y355697D01*
D15*
X205000Y350144D03*
D16*
X205000Y354137D01*
X295500Y151813D02*
X295500Y146000D01*
D15*
X290744Y174120D03*
D16*
X290744Y171567D01*
X289048Y169871D01*
X289048Y158265D01*
X295500Y151813D01*
D15*
X290000Y350144D03*
X204401Y174265D03*
D17*
X201000Y177666D01*
X201000Y183334D01*
X200936Y183398D01*
X200936Y196306D01*
X169498Y227744D01*
X146267Y227744D01*
D16*
X135617Y227744D02*
X123144Y215271D01*
X135617Y227744D02*
X146267Y227744D01*
X122664Y202836D02*
X122664Y148664D01*
X122664Y202836D02*
X123144Y203316D01*
X123144Y215271D01*
X122664Y148664D02*
X122000Y148000D01*
D17*
X86200Y142000D02*
X73300Y129100D01*
X86200Y142000D02*
X116000Y142000D01*
X122000Y148000D01*
D16*
X204500Y371500D02*
X204500Y378000D01*
X210560Y347697D02*
X208000Y345137D01*
X210560Y365440D02*
X204500Y371500D01*
X210560Y365440D02*
X210560Y347697D01*
D15*
X208000Y342072D03*
D16*
X208000Y345137D01*
X290500Y152500D02*
X290500Y146000D01*
D15*
X287104Y181896D03*
D16*
X287104Y179343D02*
X285184Y177423D01*
X287104Y179343D02*
X287104Y181896D01*
X285184Y157816D02*
X290500Y152500D01*
X285184Y157816D02*
X285184Y177423D01*
D15*
X287000Y342072D03*
X208041Y182041D03*
D17*
X205000Y185081D01*
X205000Y197990D01*
X171182Y231808D01*
X147950Y231808D01*
D16*
X135370Y231808D02*
X120096Y216534D01*
X135370Y231808D02*
X147950Y231808D01*
X119616Y204098D02*
X119616Y159616D01*
X119616Y204098D02*
X120096Y204578D01*
X120096Y216534D01*
X119616Y159616D02*
X118000Y158000D01*
D17*
X114500Y154500D02*
X98700Y154500D01*
X114500Y154500D02*
X118000Y158000D01*
D16*
X209500Y371500D02*
X209500Y378000D01*
X209500Y371500D02*
X213608Y367392D01*
X285500Y152500D02*
X285500Y146000D01*
D15*
X283798Y189968D03*
D16*
X283798Y187452D01*
X281544Y185199D01*
X281544Y156456D01*
X285500Y152500D01*
D15*
X284000Y334000D03*
X210868Y334000D03*
D16*
X213608Y336740D02*
X213608Y367392D01*
X213608Y336740D02*
X210868Y334000D01*
D15*
X211068Y190113D03*
D17*
X211068Y197669D01*
X172865Y235872D01*
X149633Y235872D01*
D16*
X135124Y235872D02*
X117048Y217797D01*
X135124Y235872D02*
X149633Y235872D01*
X116568Y205361D02*
X116568Y169568D01*
X116568Y205361D02*
X117048Y205841D01*
X117048Y217797D01*
X116568Y169568D02*
X115000Y168000D01*
D17*
X85800Y167000D02*
X73300Y154500D01*
X85800Y167000D02*
X114000Y167000D01*
X115000Y168000D01*
D15*
X236000Y155000D03*
D16*
X240500Y159500D02*
X272000Y159500D01*
X240500Y159500D02*
X236000Y155000D01*
D15*
X236000Y369288D03*
D16*
X231212Y364500D02*
X223000Y364500D01*
X231212Y364500D02*
X236000Y369288D01*
D17*
X236000Y155000D02*
X235000Y155000D01*
X175064Y239936D02*
X151317Y239936D01*
X175064Y239936D02*
X217808Y197192D01*
X217808Y172192D02*
X235000Y155000D01*
X217808Y172192D02*
X217808Y197192D01*
D16*
X134877Y239936D02*
X114000Y219059D01*
X134877Y239936D02*
X151317Y239936D01*
X113520Y206623D02*
X113520Y184000D01*
X113520Y206623D02*
X114000Y207103D01*
X114000Y219059D01*
X113520Y184000D02*
X109420Y179900D01*
X98700Y179900D01*
D15*
X236000Y163072D03*
D16*
X237428Y164500D02*
X272000Y164500D01*
X237428Y164500D02*
X236000Y163072D01*
D15*
X236000Y361216D03*
D16*
X234284Y359500D02*
X223000Y359500D01*
X234284Y359500D02*
X236000Y361216D01*
D17*
X234072Y165000D02*
X236000Y163072D01*
X234072Y165000D02*
X231000Y165000D01*
X177000Y244000D02*
X153000Y244000D01*
X177000Y244000D02*
X221872Y199128D01*
X221872Y174128D02*
X231000Y165000D01*
X221872Y174128D02*
X221872Y199128D01*
D16*
X134630Y244000D02*
X110952Y220322D01*
X134630Y244000D02*
X153000Y244000D01*
X110472Y207886D02*
X110472Y196952D01*
X110472Y207886D02*
X110952Y208366D01*
X110952Y220322D01*
X110472Y196952D02*
X109520Y196000D01*
D17*
X86400Y193000D02*
X73300Y179900D01*
X86400Y193000D02*
X106520Y193000D01*
X109520Y196000D01*
D15*
X236000Y171144D03*
D16*
X237644Y169500D02*
X272000Y169500D01*
X237644Y169500D02*
X236000Y171144D01*
D15*
X236068Y353144D03*
D16*
X234712Y354500D02*
X223000Y354500D01*
X234712Y354500D02*
X236068Y353144D01*
X107904Y221584D02*
X107904Y214504D01*
D17*
X230856Y171144D02*
X236000Y171144D01*
X230856Y171144D02*
X225936Y176064D01*
X225936Y201064D01*
X178064Y248936D01*
X155000Y248936D01*
D16*
X135256Y248936D02*
X107904Y221584D01*
X135256Y248936D02*
X155000Y248936D01*
X107904Y214504D02*
X98700Y205300D01*
D15*
X236000Y179216D03*
D16*
X231640Y349500D02*
X223000Y349500D01*
X240716Y174500D02*
X272000Y174500D01*
X240716Y174500D02*
X236000Y179216D01*
D15*
X236068Y345072D03*
D16*
X231640Y349500D01*
D17*
X234784Y179216D02*
X236000Y179216D01*
X234784Y179216D02*
X230000Y184000D01*
X230000Y203000D01*
X180000Y253000D01*
X155000Y253000D01*
D16*
X135009Y253000D02*
X100009Y218000D01*
X135009Y253000D02*
X155000Y253000D01*
D17*
X86000Y218000D02*
X73300Y205300D01*
X86000Y218000D02*
X100009Y218000D01*
D16*
X154500Y289500D02*
X154500Y296000D01*
X340500Y250330D02*
X340500Y228000D01*
D15*
X342186Y252049D03*
D16*
X342186Y252016D02*
X340500Y250330D01*
X342186Y252016D02*
X342186Y252049D01*
X154500Y289500D02*
X150540Y285540D01*
D15*
X148814Y258560D03*
D16*
X150540Y260286D02*
X150540Y285540D01*
X150540Y260286D02*
X148814Y258560D01*
X159500Y289500D02*
X159500Y296000D01*
X159500Y289500D02*
X154184Y284184D01*
X335500Y256709D02*
X335500Y228000D01*
X335500Y256709D02*
X338896Y260104D01*
D15*
X338896Y260121D03*
D16*
X338896Y260104D01*
D15*
X156886Y260740D03*
D16*
X154184Y263442D02*
X154184Y284184D01*
X154184Y263442D02*
X156886Y260740D01*
X164500Y290187D02*
X164500Y296000D01*
X164500Y290187D02*
X158048Y283735D01*
X330500Y263124D02*
X330500Y228000D01*
D15*
X335248Y267888D03*
D16*
X335248Y267872D02*
X330500Y263124D01*
X335248Y267872D02*
X335248Y267888D01*
D15*
X160453Y268589D03*
D16*
X158048Y270994D02*
X158048Y283735D01*
X158048Y270994D02*
X160453Y268589D01*
X169500Y289683D02*
X169500Y296000D01*
X169500Y289683D02*
X163120Y283303D01*
X325500Y269540D02*
X325500Y228000D01*
D15*
X331384Y275440D03*
D16*
X331384Y275424D02*
X325500Y269540D01*
X331384Y275424D02*
X331384Y275440D01*
D15*
X164321Y276137D03*
D16*
X163120Y277337D02*
X163120Y283303D01*
X163120Y277337D02*
X164321Y276137D01*
X320500Y276180D02*
X320500Y228000D01*
X320500Y276180D02*
X325320Y281000D01*
X174500Y285820D02*
X174500Y296000D01*
D15*
X325320Y281000D03*
D16*
X325320Y281000D01*
D15*
X170276Y281597D03*
D16*
X174500Y285820D01*
X315500Y279252D02*
X315500Y228000D01*
X315500Y279252D02*
X317248Y281000D01*
D15*
X317248Y281000D03*
D16*
X317248Y281000D01*
X179500Y282277D02*
X179500Y296000D01*
D15*
X178348Y281000D03*
D16*
X178348Y281125D02*
X179500Y282277D01*
X178348Y281125D02*
X178348Y281000D01*
D15*
X309072Y281072D03*
D16*
X310500Y279644D02*
X310500Y228000D01*
X310500Y279644D02*
X309072Y281072D01*
D15*
X186420Y281072D03*
D16*
X184500Y282992D02*
X184500Y296000D01*
X184500Y282992D02*
X186420Y281072D01*
D15*
X301000Y281000D03*
D16*
X305500Y276500D02*
X305500Y228000D01*
X305500Y276500D02*
X301000Y281000D01*
D15*
X194492Y281000D03*
D16*
X189500Y285992D02*
X189500Y296000D01*
X189500Y285992D02*
X194492Y281000D01*
X194500Y289500D02*
X194500Y296000D01*
X194500Y289500D02*
X201000Y283000D01*
X201000Y276000D01*
D15*
X201000Y276000D03*
X294000Y276000D03*
D16*
X300500Y269500D02*
X300500Y228000D01*
X300500Y269500D02*
X294000Y276000D01*
X199500Y290189D02*
X199500Y296000D01*
X206560Y273697D02*
X205000Y272137D01*
X206560Y283129D02*
X199500Y290189D01*
X206560Y283129D02*
X206560Y273697D01*
D15*
X205000Y268144D03*
D16*
X205000Y272137D01*
D15*
X290000Y268144D03*
D16*
X295500Y262644D02*
X295500Y228000D01*
X295500Y262644D02*
X290000Y268144D01*
X204500Y289500D02*
X204500Y296000D01*
X210560Y265697D02*
X208000Y263137D01*
X210560Y283440D02*
X204500Y289500D01*
X210560Y283440D02*
X210560Y265697D01*
D15*
X208000Y260072D03*
D16*
X208000Y263137D01*
D15*
X287000Y260072D03*
D16*
X290500Y256572D02*
X290500Y228000D01*
X290500Y256572D02*
X287000Y260072D01*
X209500Y289500D02*
X209500Y296000D01*
X209500Y289500D02*
X213608Y285392D01*
D15*
X211000Y252000D03*
X284000Y252000D03*
D16*
X285500Y250500D02*
X285500Y228000D01*
X285500Y250500D02*
X284000Y252000D01*
X213608Y254608D02*
X213608Y285392D01*
X213608Y254608D02*
X211000Y252000D01*
D15*
X236000Y304712D03*
D16*
X231212Y309500D02*
X223000Y309500D01*
D15*
X236000Y219040D03*
D16*
X240540Y214500D02*
X272000Y214500D01*
X240540Y214500D02*
X236000Y219040D01*
X236000Y304712D02*
X231212Y309500D01*
D15*
X236000Y312784D03*
X236000Y210968D03*
D16*
X237468Y209500D02*
X272000Y209500D01*
X237468Y209500D02*
X236000Y210968D01*
X234284Y314500D02*
X223000Y314500D01*
X234284Y314500D02*
X236000Y312784D01*
X237644Y204500D02*
X272000Y204500D01*
D15*
X236000Y320856D03*
D16*
X234644Y319500D02*
X223000Y319500D01*
X234644Y319500D02*
X236000Y320856D01*
D15*
X236068Y202896D03*
D16*
X236068Y202924D02*
X237644Y204500D01*
X236068Y202924D02*
X236068Y202896D01*
X231572Y324500D02*
X223000Y324500D01*
X240716Y199500D02*
X272000Y199500D01*
D15*
X236000Y328928D03*
D16*
X231572Y324500D01*
D15*
X236068Y194824D03*
D16*
X236068Y194852D02*
X240716Y199500D01*
X236068Y194852D02*
X236068Y194824D01*
D15*
X366000Y331000D03*
D16*
X362500Y189500D02*
X354000Y189500D01*
X362500Y189500D02*
X366000Y193000D01*
D15*
X366000Y193000D03*
D16*
X141000Y334500D02*
X132500Y334500D01*
X129000Y331000D01*
D15*
X129000Y331000D03*
X158000Y89000D03*
X156000Y37000D03*
D17*
X158000Y39000D02*
X158000Y89000D01*
X158000Y39000D02*
X156000Y37000D01*
X223000Y339500D02*
X232500Y339500D01*
X235000Y337000D01*
X239000Y337000D01*
X243000Y333000D01*
X243000Y302000D01*
X239000Y298000D01*
X230000Y298000D01*
X227000Y301000D01*
D15*
X227000Y301000D03*
D17*
X261500Y184500D02*
X272000Y184500D01*
X261500Y184500D02*
X260000Y183000D01*
D15*
X260000Y183000D03*
X259000Y339000D03*
D17*
X259000Y309000D01*
X267000Y301000D01*
D15*
X267000Y301000D03*
D14*
X141000Y359500D02*
X130500Y359500D01*
X129000Y358000D01*
D15*
X129000Y358000D03*
D14*
X131500Y364500D02*
X141000Y364500D01*
X131500Y364500D02*
X129000Y367000D01*
D15*
X129000Y367000D03*
D14*
X354000Y164500D02*
X364500Y164500D01*
X366000Y166000D01*
D15*
X366000Y166000D03*
D14*
X363500Y159500D02*
X354000Y159500D01*
X363500Y159500D02*
X366000Y157000D01*
D15*
X366000Y157000D03*
X366000Y359000D03*
X366000Y368000D03*
D18*
X129000Y367000D02*
X129000Y373000D01*
X149000Y393000D01*
X349000Y393000D01*
X366000Y376000D01*
X366000Y368000D01*
X366000Y359000D01*
X360000Y140000D02*
X360000Y127746D01*
X360000Y140000D02*
X366000Y146000D01*
X366000Y157000D01*
X129000Y358000D02*
X129000Y367000D01*
X366000Y166000D02*
X366000Y157000D01*
D15*
X157000Y131000D03*
X165000Y131000D03*
X168000Y47000D03*
X168000Y39000D03*
D18*
X165000Y131000D02*
X157000Y131000D01*
X168000Y47000D02*
X168000Y39000D01*
X168000Y47000D02*
X174000Y53000D01*
X181246Y53000D01*
X149000Y393000D02*
X144000Y398000D01*
X144000Y404254D01*
D15*
X366000Y340000D03*
D16*
X365500Y184500D02*
X354000Y184500D01*
X365500Y184500D02*
X366000Y184000D01*
D15*
X366000Y184000D03*
D16*
X141000Y339500D02*
X129500Y339500D01*
X129000Y340000D01*
D15*
X129000Y340000D03*
X158068Y97072D03*
D16*
X361500Y179500D02*
X366000Y175000D01*
D15*
X366000Y175000D03*
D16*
X361500Y179500D02*
X354000Y179500D01*
D15*
X188072Y37000D03*
X366000Y349000D03*
X180000Y37000D03*
D16*
X141000Y344500D02*
X133500Y344500D01*
X129000Y349000D01*
D15*
X129000Y349000D03*
X180000Y77000D03*
M02*
