G04 EAGLE Gerber RS-274X export*
G75*
%MOMM*%
%FSLAX34Y34*%
%LPD*%
%INCopper Layer 15*%
%IPPOS*%
%AMOC8*
5,1,8,0,0,1.08239X$1,22.5*%
G01*
G04 Define Apertures*
%ADD10C,1.524000*%
%ADD11C,0.654800*%
%ADD12C,0.254000*%
%ADD13C,0.508000*%
G36*
X371685Y2641D02*
X372102Y2926D01*
X372375Y3352D01*
X372460Y3810D01*
X372460Y152172D01*
X372359Y152667D01*
X372074Y153084D01*
X371648Y153356D01*
X371150Y153441D01*
X370658Y153325D01*
X370292Y153070D01*
X369293Y152071D01*
X367157Y151186D01*
X364843Y151186D01*
X363566Y151715D01*
X363070Y151812D01*
X362575Y151707D01*
X362161Y151418D01*
X361892Y150990D01*
X361810Y150542D01*
X361810Y139422D01*
X285578Y63190D01*
X218125Y63190D01*
X217630Y63089D01*
X217213Y62804D01*
X216940Y62378D01*
X216856Y61880D01*
X216972Y61388D01*
X217227Y61022D01*
X218544Y59705D01*
X219540Y57301D01*
X219540Y54699D01*
X218544Y52295D01*
X216705Y50456D01*
X214301Y49460D01*
X211699Y49460D01*
X209295Y50456D01*
X207456Y52295D01*
X206492Y54621D01*
X206210Y55040D01*
X205786Y55316D01*
X205289Y55405D01*
X204796Y55292D01*
X204421Y55033D01*
X192254Y42866D01*
X191975Y42444D01*
X191882Y41968D01*
X191882Y41938D01*
X191983Y41443D01*
X192254Y41040D01*
X193001Y40293D01*
X193886Y38157D01*
X193886Y35843D01*
X193001Y33707D01*
X191365Y32071D01*
X189229Y31186D01*
X186915Y31186D01*
X184567Y32159D01*
X184513Y32195D01*
X184016Y32288D01*
X183522Y32179D01*
X183473Y32146D01*
X181157Y31186D01*
X178843Y31186D01*
X176707Y32071D01*
X175071Y33707D01*
X174585Y34880D01*
X174303Y35299D01*
X173879Y35575D01*
X173382Y35663D01*
X172889Y35551D01*
X172514Y35292D01*
X171293Y34071D01*
X169157Y33186D01*
X166843Y33186D01*
X164707Y34071D01*
X163486Y35292D01*
X163065Y35571D01*
X162568Y35664D01*
X162074Y35555D01*
X161662Y35263D01*
X161415Y34880D01*
X160929Y33707D01*
X159293Y32071D01*
X157157Y31186D01*
X154843Y31186D01*
X152707Y32071D01*
X151071Y33707D01*
X150186Y35843D01*
X150186Y38157D01*
X151071Y40293D01*
X152707Y41929D01*
X154843Y42814D01*
X157157Y42814D01*
X159293Y41929D01*
X160514Y40708D01*
X160935Y40429D01*
X161432Y40337D01*
X161926Y40445D01*
X162338Y40737D01*
X162585Y41120D01*
X162823Y41695D01*
X162920Y42181D01*
X162920Y43819D01*
X162823Y44305D01*
X162186Y45843D01*
X162186Y48157D01*
X163071Y50293D01*
X164707Y51929D01*
X166843Y52814D01*
X169157Y52814D01*
X171293Y51929D01*
X172929Y50293D01*
X173814Y48157D01*
X173814Y45843D01*
X173177Y44305D01*
X173080Y43819D01*
X173080Y42181D01*
X173177Y41695D01*
X173415Y41120D01*
X173697Y40701D01*
X174121Y40425D01*
X174618Y40337D01*
X175111Y40449D01*
X175486Y40708D01*
X175818Y41040D01*
X176097Y41462D01*
X176190Y41938D01*
X176190Y44578D01*
X207422Y75810D01*
X272896Y75810D01*
X273391Y75911D01*
X273794Y76182D01*
X295634Y98022D01*
X295913Y98443D01*
X296006Y98940D01*
X295897Y99434D01*
X295605Y99846D01*
X295175Y100112D01*
X294736Y100190D01*
X200003Y100190D01*
X172022Y128171D01*
X171601Y128450D01*
X171104Y128543D01*
X170610Y128435D01*
X170198Y128142D01*
X169951Y127759D01*
X169929Y127707D01*
X168293Y126071D01*
X166157Y125186D01*
X163843Y125186D01*
X162305Y125823D01*
X161819Y125920D01*
X160181Y125920D01*
X159695Y125823D01*
X158157Y125186D01*
X155843Y125186D01*
X153707Y126071D01*
X152071Y127707D01*
X151186Y129843D01*
X151186Y132157D01*
X152071Y134293D01*
X153707Y135929D01*
X155843Y136814D01*
X158157Y136814D01*
X159695Y136177D01*
X160181Y136080D01*
X161047Y136080D01*
X161543Y136181D01*
X161960Y136466D01*
X162232Y136892D01*
X162317Y137390D01*
X162200Y137882D01*
X161945Y138248D01*
X144190Y156003D01*
X144190Y184402D01*
X146902Y187114D01*
X147181Y187536D01*
X147274Y188012D01*
X147274Y189069D01*
X148159Y191205D01*
X149795Y192841D01*
X151931Y193726D01*
X154245Y193726D01*
X156381Y192841D01*
X158017Y191205D01*
X158902Y189069D01*
X158902Y186817D01*
X159003Y186322D01*
X159288Y185905D01*
X159686Y185644D01*
X160332Y185376D01*
X161968Y183741D01*
X162853Y181604D01*
X162853Y179291D01*
X162452Y178322D01*
X162355Y177826D01*
X162460Y177331D01*
X162727Y176938D01*
X163996Y175669D01*
X164935Y173401D01*
X165218Y172982D01*
X165641Y172706D01*
X166032Y172632D01*
X168204Y171732D01*
X169839Y170096D01*
X170812Y167748D01*
X170825Y167684D01*
X171111Y167267D01*
X171537Y166995D01*
X171595Y166984D01*
X173975Y165998D01*
X174286Y165792D01*
X174783Y165699D01*
X175249Y165796D01*
X177534Y166742D01*
X179847Y166742D01*
X182199Y165768D01*
X182695Y165671D01*
X183190Y165776D01*
X183332Y165872D01*
X185606Y166814D01*
X187919Y166814D01*
X190267Y165841D01*
X190322Y165805D01*
X190819Y165712D01*
X191312Y165821D01*
X191361Y165854D01*
X193894Y166904D01*
X193948Y166915D01*
X194365Y167200D01*
X194638Y167626D01*
X194650Y167694D01*
X195608Y170006D01*
X197244Y171642D01*
X197803Y171873D01*
X198222Y172156D01*
X198498Y172580D01*
X198587Y173047D01*
X198587Y175421D01*
X199472Y177558D01*
X201107Y179194D01*
X201487Y179351D01*
X201906Y179634D01*
X202182Y180057D01*
X202271Y180555D01*
X202227Y180763D01*
X202227Y183197D01*
X203112Y185334D01*
X204778Y187000D01*
X205128Y187236D01*
X205404Y187660D01*
X205492Y188157D01*
X205396Y188613D01*
X205254Y188956D01*
X205254Y191269D01*
X206139Y193406D01*
X207775Y195042D01*
X209911Y195927D01*
X212225Y195927D01*
X214361Y195042D01*
X215997Y193406D01*
X216882Y191269D01*
X216882Y190202D01*
X216983Y189707D01*
X217254Y189304D01*
X219810Y186748D01*
X219810Y168523D01*
X219911Y168027D01*
X220182Y167625D01*
X228708Y159098D01*
X229130Y158819D01*
X229627Y158727D01*
X230120Y158835D01*
X230532Y159128D01*
X230798Y159558D01*
X230875Y160057D01*
X230780Y160482D01*
X230186Y161916D01*
X230186Y164229D01*
X231159Y166577D01*
X231195Y166631D01*
X231288Y167128D01*
X231179Y167622D01*
X231146Y167671D01*
X230186Y169987D01*
X230186Y172301D01*
X231159Y174649D01*
X231195Y174703D01*
X231288Y175200D01*
X231179Y175694D01*
X231146Y175743D01*
X230186Y178059D01*
X230186Y180373D01*
X231071Y182509D01*
X232707Y184145D01*
X234843Y185030D01*
X237157Y185030D01*
X239293Y184145D01*
X240929Y182509D01*
X241814Y180373D01*
X241814Y178059D01*
X240841Y175711D01*
X240805Y175657D01*
X240712Y175160D01*
X240821Y174666D01*
X240854Y174617D01*
X241814Y172301D01*
X241814Y169987D01*
X240841Y167639D01*
X240805Y167585D01*
X240712Y167088D01*
X240821Y166594D01*
X240854Y166545D01*
X241814Y164229D01*
X241814Y161915D01*
X240841Y159567D01*
X240805Y159513D01*
X240712Y159016D01*
X240821Y158522D01*
X240854Y158473D01*
X241814Y156157D01*
X241814Y153784D01*
X241915Y153289D01*
X242200Y152872D01*
X242626Y152599D01*
X243084Y152514D01*
X256600Y152514D01*
X257095Y152615D01*
X257498Y152886D01*
X274818Y170206D01*
X275097Y170628D01*
X275190Y171104D01*
X275190Y186748D01*
X277612Y189170D01*
X277891Y189591D01*
X277984Y190068D01*
X277984Y191124D01*
X278869Y193261D01*
X280505Y194897D01*
X282641Y195782D01*
X284955Y195782D01*
X287091Y194897D01*
X288727Y193261D01*
X289612Y191124D01*
X289612Y188811D01*
X289511Y188567D01*
X289414Y188070D01*
X289519Y187576D01*
X289808Y187161D01*
X290198Y186907D01*
X290398Y186825D01*
X292033Y185189D01*
X292918Y183052D01*
X292918Y180597D01*
X292874Y180369D01*
X292979Y179875D01*
X293268Y179460D01*
X293658Y179206D01*
X294038Y179049D01*
X295673Y177413D01*
X296558Y175276D01*
X296558Y172902D01*
X296659Y172406D01*
X296945Y171989D01*
X297342Y171728D01*
X297901Y171497D01*
X299537Y169861D01*
X300474Y167598D01*
X300757Y167179D01*
X301180Y166903D01*
X301648Y166814D01*
X301837Y166814D01*
X304185Y165841D01*
X304239Y165805D01*
X304736Y165712D01*
X305230Y165821D01*
X305279Y165854D01*
X307595Y166814D01*
X309909Y166814D01*
X312137Y165891D01*
X312399Y165717D01*
X312896Y165624D01*
X313390Y165733D01*
X313473Y165790D01*
X315771Y166742D01*
X318085Y166742D01*
X320437Y165768D01*
X320933Y165671D01*
X321427Y165776D01*
X321569Y165872D01*
X323843Y166814D01*
X324125Y166814D01*
X324621Y166915D01*
X325037Y167200D01*
X325310Y167626D01*
X325349Y167835D01*
X326280Y170084D01*
X327916Y171720D01*
X329402Y172335D01*
X329821Y172618D01*
X330097Y173041D01*
X330186Y173509D01*
X330186Y175013D01*
X331071Y177149D01*
X332756Y178834D01*
X333064Y179042D01*
X333340Y179465D01*
X333428Y179963D01*
X333332Y180419D01*
X333186Y180772D01*
X333186Y183085D01*
X334071Y185221D01*
X335756Y186906D01*
X336064Y187114D01*
X336340Y187537D01*
X336428Y188035D01*
X336332Y188491D01*
X336186Y188844D01*
X336186Y191157D01*
X337071Y193293D01*
X338707Y194929D01*
X340843Y195814D01*
X343157Y195814D01*
X345238Y194952D01*
X345734Y194855D01*
X346229Y194960D01*
X346643Y195249D01*
X346912Y195677D01*
X346994Y196125D01*
X346994Y245847D01*
X346893Y246342D01*
X346608Y246759D01*
X346182Y247031D01*
X345684Y247116D01*
X345238Y247020D01*
X343342Y246235D01*
X342286Y246235D01*
X341791Y246134D01*
X341388Y245863D01*
X320715Y225190D01*
X241138Y225190D01*
X240643Y225089D01*
X240226Y224804D01*
X239953Y224378D01*
X239869Y223880D01*
X239985Y223388D01*
X240240Y223022D01*
X240929Y222333D01*
X241814Y220196D01*
X241814Y217883D01*
X240841Y215535D01*
X240805Y215480D01*
X240712Y214983D01*
X240821Y214490D01*
X240854Y214441D01*
X241814Y212124D01*
X241814Y209811D01*
X240839Y207456D01*
X240742Y206960D01*
X240846Y206465D01*
X240939Y206330D01*
X241882Y204052D01*
X241882Y201739D01*
X240909Y199391D01*
X240873Y199336D01*
X240780Y198839D01*
X240889Y198346D01*
X240922Y198297D01*
X241882Y195980D01*
X241882Y193667D01*
X240997Y191530D01*
X239361Y189895D01*
X237225Y189010D01*
X234911Y189010D01*
X232775Y189895D01*
X231139Y191530D01*
X230254Y193667D01*
X230254Y195980D01*
X231227Y198328D01*
X231263Y198383D01*
X231356Y198880D01*
X231247Y199374D01*
X231214Y199422D01*
X230254Y201739D01*
X230254Y204052D01*
X231230Y206407D01*
X231326Y206903D01*
X231222Y207398D01*
X231129Y207533D01*
X230186Y209811D01*
X230186Y212124D01*
X231159Y214472D01*
X231195Y214527D01*
X231288Y215024D01*
X231179Y215518D01*
X231146Y215566D01*
X230186Y217883D01*
X230186Y220196D01*
X231071Y222333D01*
X231760Y223022D01*
X232039Y223443D01*
X232132Y223940D01*
X232024Y224434D01*
X231731Y224846D01*
X231301Y225112D01*
X230862Y225190D01*
X174285Y225190D01*
X146251Y253224D01*
X145839Y253500D01*
X145521Y253631D01*
X143885Y255267D01*
X143000Y257403D01*
X143000Y259717D01*
X143885Y261853D01*
X145521Y263489D01*
X147658Y264374D01*
X149971Y264374D01*
X150833Y264017D01*
X151329Y263920D01*
X151823Y264025D01*
X152217Y264292D01*
X153593Y265669D01*
X153936Y265811D01*
X154355Y266093D01*
X154631Y266517D01*
X154720Y267014D01*
X154639Y267396D01*
X154639Y269745D01*
X155524Y271882D01*
X157160Y273518D01*
X157723Y273751D01*
X158142Y274033D01*
X158418Y274457D01*
X158507Y274924D01*
X158507Y277293D01*
X159392Y279430D01*
X161028Y281066D01*
X163164Y281951D01*
X163281Y281951D01*
X163777Y282051D01*
X164194Y282337D01*
X164455Y282735D01*
X165348Y284890D01*
X166983Y286526D01*
X169120Y287411D01*
X171433Y287411D01*
X173570Y286526D01*
X173826Y286269D01*
X174248Y285990D01*
X174745Y285897D01*
X175210Y285994D01*
X177358Y286883D01*
X177770Y287159D01*
X187354Y296742D01*
X220570Y296742D01*
X221065Y296843D01*
X221482Y297128D01*
X221755Y297554D01*
X221839Y298052D01*
X221743Y298498D01*
X221186Y299844D01*
X221186Y302157D01*
X222071Y304293D01*
X223707Y305929D01*
X225843Y306814D01*
X228156Y306814D01*
X229050Y306444D01*
X229546Y306347D01*
X230040Y306452D01*
X230455Y306741D01*
X230709Y307131D01*
X231159Y308217D01*
X231195Y308271D01*
X231288Y308768D01*
X231179Y309262D01*
X231146Y309311D01*
X230186Y311627D01*
X230186Y313941D01*
X231159Y316289D01*
X231195Y316343D01*
X231288Y316840D01*
X231179Y317334D01*
X231146Y317383D01*
X230186Y319699D01*
X230186Y322013D01*
X231159Y324361D01*
X231195Y324415D01*
X231288Y324912D01*
X231179Y325406D01*
X231146Y325455D01*
X230186Y327771D01*
X230186Y330085D01*
X231071Y332221D01*
X232707Y333857D01*
X234843Y334742D01*
X237157Y334742D01*
X239293Y333857D01*
X240929Y332221D01*
X241814Y330085D01*
X241814Y327771D01*
X240841Y325423D01*
X240805Y325369D01*
X240712Y324872D01*
X240821Y324378D01*
X240854Y324329D01*
X241814Y322013D01*
X241814Y319699D01*
X240841Y317351D01*
X240805Y317297D01*
X240712Y316800D01*
X240821Y316306D01*
X240854Y316257D01*
X241814Y313941D01*
X241814Y311627D01*
X240841Y309279D01*
X240805Y309225D01*
X240712Y308728D01*
X240821Y308234D01*
X240854Y308185D01*
X241814Y305869D01*
X241814Y303555D01*
X240929Y301419D01*
X239293Y299783D01*
X237850Y299185D01*
X237431Y298903D01*
X237155Y298479D01*
X237067Y297982D01*
X237179Y297489D01*
X237475Y297079D01*
X237907Y296817D01*
X238336Y296742D01*
X260570Y296742D01*
X261065Y296843D01*
X261482Y297128D01*
X261755Y297554D01*
X261839Y298052D01*
X261743Y298498D01*
X261186Y299844D01*
X261186Y302157D01*
X262071Y304293D01*
X263707Y305929D01*
X265843Y306814D01*
X268157Y306814D01*
X270293Y305929D01*
X271929Y304293D01*
X272814Y302157D01*
X272814Y299844D01*
X272257Y298498D01*
X272160Y298002D01*
X272265Y297507D01*
X272554Y297093D01*
X272982Y296824D01*
X273430Y296742D01*
X307646Y296742D01*
X317202Y287186D01*
X317623Y286907D01*
X318100Y286814D01*
X318405Y286814D01*
X320753Y285842D01*
X320807Y285805D01*
X321304Y285713D01*
X321798Y285821D01*
X321847Y285855D01*
X324163Y286814D01*
X326477Y286814D01*
X328613Y285929D01*
X330249Y284294D01*
X331183Y282038D01*
X331466Y281619D01*
X331889Y281343D01*
X332356Y281254D01*
X332540Y281254D01*
X334677Y280369D01*
X336313Y278734D01*
X337198Y276597D01*
X337198Y274222D01*
X337298Y273727D01*
X337584Y273310D01*
X337982Y273049D01*
X338541Y272817D01*
X340176Y271182D01*
X341062Y269045D01*
X341062Y266579D01*
X341021Y266372D01*
X341126Y265877D01*
X341415Y265463D01*
X341805Y265209D01*
X342189Y265050D01*
X343825Y263414D01*
X344551Y261661D01*
X344833Y261242D01*
X345257Y260966D01*
X345754Y260877D01*
X346247Y260990D01*
X346657Y261285D01*
X346919Y261718D01*
X346994Y262147D01*
X346994Y327875D01*
X346893Y328370D01*
X346608Y328787D01*
X346182Y329060D01*
X345684Y329144D01*
X345238Y329048D01*
X343157Y328186D01*
X340843Y328186D01*
X338707Y329071D01*
X337071Y330707D01*
X336186Y332843D01*
X336186Y335156D01*
X336332Y335509D01*
X336429Y336006D01*
X336324Y336500D01*
X336035Y336915D01*
X335749Y337101D01*
X334071Y338779D01*
X333186Y340915D01*
X333186Y343228D01*
X333332Y343581D01*
X333429Y344078D01*
X333324Y344572D01*
X333035Y344987D01*
X332749Y345173D01*
X331071Y346851D01*
X330186Y348987D01*
X330186Y350491D01*
X330085Y350987D01*
X329800Y351404D01*
X329402Y351665D01*
X327916Y352280D01*
X326280Y353916D01*
X325341Y356184D01*
X325295Y356411D01*
X325009Y356828D01*
X324583Y357101D01*
X324125Y357186D01*
X323843Y357186D01*
X321495Y358159D01*
X321441Y358195D01*
X320944Y358288D01*
X320450Y358179D01*
X320401Y358146D01*
X318085Y357186D01*
X315771Y357186D01*
X313480Y358135D01*
X313327Y358236D01*
X312830Y358329D01*
X312365Y358232D01*
X310013Y357258D01*
X307699Y357258D01*
X305347Y358232D01*
X304851Y358329D01*
X304357Y358224D01*
X304215Y358128D01*
X301941Y357186D01*
X300936Y357186D01*
X300441Y357085D01*
X300024Y356800D01*
X299763Y356402D01*
X299061Y354707D01*
X297425Y353071D01*
X296597Y352728D01*
X296178Y352446D01*
X295902Y352022D01*
X295819Y351553D01*
X295814Y351553D01*
X295814Y351526D01*
X295814Y351524D01*
X295814Y351523D01*
X295814Y348987D01*
X294929Y346851D01*
X293244Y345166D01*
X292936Y344958D01*
X292660Y344535D01*
X292572Y344037D01*
X292668Y343581D01*
X292814Y343228D01*
X292814Y340915D01*
X291929Y338779D01*
X290244Y337094D01*
X289936Y336886D01*
X289660Y336463D01*
X289572Y335965D01*
X289668Y335509D01*
X289814Y335156D01*
X289814Y332843D01*
X288929Y330707D01*
X287293Y329071D01*
X285157Y328186D01*
X282843Y328186D01*
X280707Y329071D01*
X279071Y330707D01*
X278186Y332843D01*
X278186Y333900D01*
X278085Y334395D01*
X277814Y334798D01*
X273190Y339422D01*
X273190Y355896D01*
X273089Y356391D01*
X272818Y356794D01*
X257498Y372114D01*
X257076Y372393D01*
X256600Y372486D01*
X242869Y372486D01*
X242374Y372385D01*
X241957Y372100D01*
X241684Y371674D01*
X241600Y371176D01*
X241696Y370730D01*
X241814Y370445D01*
X241814Y368131D01*
X240841Y365783D01*
X240805Y365729D01*
X240712Y365232D01*
X240821Y364738D01*
X240854Y364689D01*
X241814Y362373D01*
X241814Y360060D01*
X240839Y357704D01*
X240742Y357208D01*
X240846Y356714D01*
X240939Y356578D01*
X241882Y354301D01*
X241882Y351987D01*
X240909Y349639D01*
X240873Y349585D01*
X240780Y349088D01*
X240889Y348594D01*
X240922Y348545D01*
X241882Y346229D01*
X241882Y343915D01*
X240997Y341779D01*
X239361Y340143D01*
X237225Y339258D01*
X234911Y339258D01*
X232775Y340143D01*
X231139Y341779D01*
X230254Y343915D01*
X230254Y346229D01*
X231227Y348577D01*
X231263Y348631D01*
X231356Y349128D01*
X231247Y349622D01*
X231214Y349671D01*
X230254Y351987D01*
X230254Y354300D01*
X231230Y356656D01*
X231326Y357152D01*
X231222Y357646D01*
X231129Y357782D01*
X230186Y360059D01*
X230186Y362373D01*
X231159Y364721D01*
X231195Y364775D01*
X231288Y365272D01*
X231179Y365766D01*
X231146Y365815D01*
X231134Y365844D01*
X230851Y366263D01*
X230428Y366539D01*
X229930Y366627D01*
X229437Y366515D01*
X229062Y366256D01*
X220182Y357375D01*
X219903Y356954D01*
X219810Y356477D01*
X219810Y337554D01*
X217054Y334798D01*
X216775Y334376D01*
X216682Y333900D01*
X216682Y332843D01*
X215797Y330707D01*
X214161Y329071D01*
X212025Y328186D01*
X209711Y328186D01*
X207575Y329071D01*
X205939Y330707D01*
X205054Y332843D01*
X205054Y335157D01*
X205220Y335556D01*
X205316Y336052D01*
X205212Y336547D01*
X204923Y336961D01*
X204825Y337025D01*
X203071Y338779D01*
X202186Y340915D01*
X202186Y343228D01*
X202332Y343581D01*
X202429Y344078D01*
X202324Y344572D01*
X202035Y344987D01*
X201749Y345173D01*
X200071Y346851D01*
X199186Y348987D01*
X199186Y351541D01*
X199194Y351582D01*
X199090Y352076D01*
X198801Y352491D01*
X198410Y352746D01*
X197634Y353067D01*
X195999Y354703D01*
X195295Y356402D01*
X195012Y356821D01*
X194589Y357097D01*
X194122Y357186D01*
X193059Y357186D01*
X190768Y358135D01*
X190615Y358236D01*
X190118Y358329D01*
X189653Y358232D01*
X187301Y357258D01*
X184987Y357258D01*
X182635Y358232D01*
X182139Y358329D01*
X181645Y358224D01*
X181503Y358128D01*
X179229Y357186D01*
X176915Y357186D01*
X174567Y358159D01*
X174513Y358195D01*
X174016Y358288D01*
X173522Y358179D01*
X173473Y358146D01*
X171157Y357186D01*
X170875Y357186D01*
X170379Y357085D01*
X169963Y356800D01*
X169690Y356374D01*
X169651Y356165D01*
X168720Y353916D01*
X167084Y352280D01*
X165598Y351665D01*
X165179Y351382D01*
X164903Y350959D01*
X164814Y350491D01*
X164814Y349040D01*
X163929Y346903D01*
X162244Y345219D01*
X161936Y345011D01*
X161660Y344587D01*
X161572Y344090D01*
X161668Y343634D01*
X161814Y343281D01*
X161814Y340968D01*
X160929Y338831D01*
X159208Y337111D01*
X158981Y336958D01*
X158705Y336534D01*
X158617Y336036D01*
X158713Y335581D01*
X158867Y335209D01*
X158867Y332896D01*
X157982Y330759D01*
X156346Y329124D01*
X154209Y328239D01*
X151896Y328239D01*
X149759Y329124D01*
X148124Y330759D01*
X147239Y332896D01*
X147239Y333952D01*
X147138Y334448D01*
X146867Y334851D01*
X144190Y337527D01*
X144190Y369578D01*
X199422Y424810D01*
X295578Y424810D01*
X350810Y369578D01*
X350810Y342264D01*
X350911Y341769D01*
X351196Y341352D01*
X351622Y341080D01*
X352120Y340995D01*
X352612Y341111D01*
X352978Y341366D01*
X359814Y348202D01*
X360093Y348624D01*
X360186Y349100D01*
X360186Y350157D01*
X361071Y352293D01*
X361880Y353102D01*
X362159Y353523D01*
X362252Y354020D01*
X362143Y354514D01*
X361880Y354898D01*
X361071Y355707D01*
X360186Y357843D01*
X360186Y360157D01*
X360823Y361695D01*
X360920Y362181D01*
X360920Y364819D01*
X360823Y365305D01*
X360186Y366843D01*
X360186Y369157D01*
X361071Y371293D01*
X362707Y372929D01*
X364843Y373814D01*
X367157Y373814D01*
X369293Y372929D01*
X370292Y371930D01*
X370713Y371651D01*
X371210Y371558D01*
X371704Y371667D01*
X372116Y371959D01*
X372382Y372389D01*
X372460Y372828D01*
X372460Y430190D01*
X372359Y430685D01*
X372074Y431102D01*
X371648Y431375D01*
X371190Y431460D01*
X63810Y431460D01*
X63315Y431359D01*
X62898Y431074D01*
X62625Y430648D01*
X62540Y430190D01*
X62540Y415174D01*
X62641Y414679D01*
X62926Y414262D01*
X63352Y413990D01*
X63850Y413905D01*
X64342Y414021D01*
X64708Y414276D01*
X67545Y417113D01*
X71279Y418660D01*
X75321Y418660D01*
X79055Y417113D01*
X81913Y414255D01*
X83460Y410521D01*
X83460Y406479D01*
X81913Y402745D01*
X79055Y399887D01*
X75321Y398340D01*
X71279Y398340D01*
X67545Y399887D01*
X64708Y402724D01*
X64287Y403003D01*
X63790Y403095D01*
X63296Y402987D01*
X62884Y402695D01*
X62618Y402264D01*
X62540Y401826D01*
X62540Y389774D01*
X62641Y389279D01*
X62926Y388862D01*
X63352Y388590D01*
X63850Y388505D01*
X64342Y388621D01*
X64708Y388876D01*
X67545Y391713D01*
X71279Y393260D01*
X75321Y393260D01*
X79055Y391713D01*
X81913Y388855D01*
X83460Y385121D01*
X83460Y381079D01*
X81913Y377345D01*
X79055Y374487D01*
X75321Y372940D01*
X71279Y372940D01*
X67545Y374487D01*
X64708Y377324D01*
X64287Y377603D01*
X63790Y377695D01*
X63296Y377587D01*
X62884Y377295D01*
X62618Y376864D01*
X62540Y376426D01*
X62540Y364374D01*
X62641Y363879D01*
X62926Y363462D01*
X63352Y363190D01*
X63850Y363105D01*
X64342Y363221D01*
X64708Y363476D01*
X67545Y366313D01*
X71279Y367860D01*
X75321Y367860D01*
X79055Y366313D01*
X81913Y363455D01*
X83460Y359721D01*
X83460Y355679D01*
X81913Y351945D01*
X79055Y349087D01*
X75321Y347540D01*
X71279Y347540D01*
X67545Y349087D01*
X64708Y351924D01*
X64287Y352203D01*
X63790Y352295D01*
X63296Y352187D01*
X62884Y351895D01*
X62618Y351464D01*
X62540Y351026D01*
X62540Y338974D01*
X62641Y338479D01*
X62926Y338062D01*
X63352Y337790D01*
X63850Y337705D01*
X64342Y337821D01*
X64708Y338076D01*
X67545Y340913D01*
X71279Y342460D01*
X75321Y342460D01*
X79055Y340913D01*
X81913Y338055D01*
X83460Y334321D01*
X83460Y330279D01*
X81913Y326545D01*
X79055Y323687D01*
X75321Y322140D01*
X71279Y322140D01*
X67545Y323687D01*
X64708Y326524D01*
X64287Y326803D01*
X63790Y326895D01*
X63296Y326787D01*
X62884Y326495D01*
X62618Y326064D01*
X62540Y325626D01*
X62540Y313574D01*
X62641Y313079D01*
X62926Y312662D01*
X63352Y312390D01*
X63850Y312305D01*
X64342Y312421D01*
X64708Y312676D01*
X67545Y315513D01*
X71279Y317060D01*
X75321Y317060D01*
X79055Y315513D01*
X81913Y312655D01*
X83460Y308921D01*
X83460Y304879D01*
X81913Y301145D01*
X79055Y298287D01*
X75321Y296740D01*
X71279Y296740D01*
X67545Y298287D01*
X64708Y301124D01*
X64287Y301403D01*
X63790Y301495D01*
X63296Y301387D01*
X62884Y301095D01*
X62618Y300664D01*
X62540Y300226D01*
X62540Y288174D01*
X62641Y287679D01*
X62926Y287262D01*
X63352Y286990D01*
X63850Y286905D01*
X64342Y287021D01*
X64708Y287276D01*
X67545Y290113D01*
X71279Y291660D01*
X75321Y291660D01*
X79055Y290113D01*
X81913Y287255D01*
X83460Y283521D01*
X83460Y279479D01*
X81913Y275745D01*
X79055Y272887D01*
X75321Y271340D01*
X71279Y271340D01*
X67545Y272887D01*
X64708Y275724D01*
X64287Y276003D01*
X63790Y276095D01*
X63296Y275987D01*
X62884Y275695D01*
X62618Y275264D01*
X62540Y274826D01*
X62540Y262774D01*
X62641Y262279D01*
X62926Y261862D01*
X63352Y261590D01*
X63850Y261505D01*
X64342Y261621D01*
X64708Y261876D01*
X67545Y264713D01*
X71279Y266260D01*
X75321Y266260D01*
X79055Y264713D01*
X81913Y261855D01*
X83460Y258121D01*
X83460Y254079D01*
X81913Y250345D01*
X79055Y247487D01*
X75321Y245940D01*
X71279Y245940D01*
X67545Y247487D01*
X64708Y250324D01*
X64287Y250603D01*
X63790Y250695D01*
X63296Y250587D01*
X62884Y250295D01*
X62618Y249864D01*
X62540Y249426D01*
X62540Y237374D01*
X62641Y236879D01*
X62926Y236462D01*
X63352Y236190D01*
X63850Y236105D01*
X64342Y236221D01*
X64708Y236476D01*
X67545Y239313D01*
X71279Y240860D01*
X75321Y240860D01*
X79055Y239313D01*
X81913Y236455D01*
X83460Y232721D01*
X83460Y228679D01*
X81913Y224945D01*
X79055Y222087D01*
X75321Y220540D01*
X71279Y220540D01*
X67545Y222087D01*
X64708Y224924D01*
X64287Y225203D01*
X63790Y225295D01*
X63296Y225187D01*
X62884Y224895D01*
X62618Y224464D01*
X62540Y224026D01*
X62540Y211974D01*
X62641Y211479D01*
X62926Y211062D01*
X63352Y210790D01*
X63850Y210705D01*
X64342Y210821D01*
X64708Y211076D01*
X67545Y213913D01*
X71279Y215460D01*
X75321Y215460D01*
X79055Y213913D01*
X81913Y211055D01*
X83460Y207321D01*
X83460Y203279D01*
X81913Y199545D01*
X79055Y196687D01*
X75321Y195140D01*
X71279Y195140D01*
X67545Y196687D01*
X64708Y199524D01*
X64287Y199803D01*
X63790Y199895D01*
X63296Y199787D01*
X62884Y199495D01*
X62618Y199064D01*
X62540Y198626D01*
X62540Y186574D01*
X62641Y186079D01*
X62926Y185662D01*
X63352Y185390D01*
X63850Y185305D01*
X64342Y185421D01*
X64708Y185676D01*
X67545Y188513D01*
X71279Y190060D01*
X75321Y190060D01*
X79055Y188513D01*
X81913Y185655D01*
X83460Y181921D01*
X83460Y177879D01*
X81913Y174145D01*
X79055Y171287D01*
X75321Y169740D01*
X71279Y169740D01*
X67545Y171287D01*
X64708Y174124D01*
X64287Y174403D01*
X63790Y174495D01*
X63296Y174387D01*
X62884Y174095D01*
X62618Y173664D01*
X62540Y173226D01*
X62540Y161174D01*
X62641Y160679D01*
X62926Y160262D01*
X63352Y159990D01*
X63850Y159905D01*
X64342Y160021D01*
X64708Y160276D01*
X67545Y163113D01*
X71279Y164660D01*
X75321Y164660D01*
X79055Y163113D01*
X81913Y160255D01*
X83460Y156521D01*
X83460Y152479D01*
X81913Y148745D01*
X79055Y145887D01*
X75321Y144340D01*
X71279Y144340D01*
X67545Y145887D01*
X64708Y148724D01*
X64287Y149003D01*
X63790Y149095D01*
X63296Y148987D01*
X62884Y148695D01*
X62618Y148264D01*
X62540Y147826D01*
X62540Y135774D01*
X62641Y135279D01*
X62926Y134862D01*
X63352Y134590D01*
X63850Y134505D01*
X64342Y134621D01*
X64708Y134876D01*
X67545Y137713D01*
X71279Y139260D01*
X75321Y139260D01*
X79055Y137713D01*
X81913Y134855D01*
X83460Y131121D01*
X83460Y127079D01*
X81913Y123345D01*
X79055Y120487D01*
X75321Y118940D01*
X71279Y118940D01*
X67545Y120487D01*
X64708Y123324D01*
X64287Y123603D01*
X63790Y123695D01*
X63296Y123587D01*
X62884Y123295D01*
X62618Y122864D01*
X62540Y122426D01*
X62540Y110374D01*
X62641Y109879D01*
X62926Y109462D01*
X63352Y109190D01*
X63850Y109105D01*
X64342Y109221D01*
X64708Y109476D01*
X67545Y112313D01*
X71279Y113860D01*
X75321Y113860D01*
X79055Y112313D01*
X81913Y109455D01*
X83460Y105721D01*
X83460Y101679D01*
X81913Y97945D01*
X79055Y95087D01*
X75321Y93540D01*
X71279Y93540D01*
X67545Y95087D01*
X64708Y97924D01*
X64287Y98203D01*
X63790Y98295D01*
X63296Y98187D01*
X62884Y97895D01*
X62618Y97464D01*
X62540Y97026D01*
X62540Y84974D01*
X62641Y84479D01*
X62926Y84062D01*
X63352Y83790D01*
X63850Y83705D01*
X64342Y83821D01*
X64708Y84076D01*
X67545Y86913D01*
X71279Y88460D01*
X75321Y88460D01*
X79055Y86913D01*
X81913Y84055D01*
X83460Y80321D01*
X83460Y76279D01*
X81913Y72545D01*
X79055Y69687D01*
X75321Y68140D01*
X71279Y68140D01*
X67545Y69687D01*
X64708Y72524D01*
X64287Y72803D01*
X63790Y72895D01*
X63296Y72787D01*
X62884Y72495D01*
X62618Y72064D01*
X62540Y71626D01*
X62540Y59574D01*
X62641Y59079D01*
X62926Y58662D01*
X63352Y58390D01*
X63850Y58305D01*
X64342Y58421D01*
X64708Y58676D01*
X67545Y61513D01*
X71279Y63060D01*
X75321Y63060D01*
X79055Y61513D01*
X81913Y58655D01*
X83460Y54921D01*
X83460Y50879D01*
X81913Y47145D01*
X79055Y44287D01*
X75321Y42740D01*
X71279Y42740D01*
X67545Y44287D01*
X64708Y47124D01*
X64287Y47403D01*
X63790Y47495D01*
X63296Y47387D01*
X62884Y47095D01*
X62618Y46664D01*
X62540Y46226D01*
X62540Y34174D01*
X62641Y33679D01*
X62926Y33262D01*
X63352Y32990D01*
X63850Y32905D01*
X64342Y33021D01*
X64708Y33276D01*
X67545Y36113D01*
X71279Y37660D01*
X75321Y37660D01*
X79055Y36113D01*
X81913Y33255D01*
X83460Y29521D01*
X83460Y25479D01*
X81913Y21745D01*
X79055Y18887D01*
X75321Y17340D01*
X71279Y17340D01*
X67545Y18887D01*
X64708Y21724D01*
X64287Y22003D01*
X63790Y22095D01*
X63296Y21987D01*
X62884Y21695D01*
X62618Y21264D01*
X62540Y20826D01*
X62540Y3810D01*
X62641Y3315D01*
X62926Y2898D01*
X63352Y2625D01*
X63810Y2540D01*
X371190Y2540D01*
X371685Y2641D01*
G37*
%LPC*%
G36*
X96679Y398340D02*
X92945Y399887D01*
X90087Y402745D01*
X88540Y406479D01*
X88540Y410521D01*
X90087Y414255D01*
X92945Y417113D01*
X96679Y418660D01*
X100721Y418660D01*
X104455Y417113D01*
X107313Y414255D01*
X108860Y410521D01*
X108860Y406479D01*
X107313Y402745D01*
X104455Y399887D01*
X100721Y398340D01*
X96679Y398340D01*
G37*
G36*
X96679Y372940D02*
X92945Y374487D01*
X90087Y377345D01*
X88540Y381079D01*
X88540Y385121D01*
X90087Y388855D01*
X92945Y391713D01*
X96679Y393260D01*
X100721Y393260D01*
X104455Y391713D01*
X107313Y388855D01*
X108860Y385121D01*
X108860Y381079D01*
X107313Y377345D01*
X104455Y374487D01*
X100721Y372940D01*
X96679Y372940D01*
G37*
G36*
X178843Y71186D02*
X176707Y72071D01*
X175960Y72818D01*
X175538Y73097D01*
X175062Y73190D01*
X158422Y73190D01*
X118190Y113422D01*
X118190Y343578D01*
X122814Y348202D01*
X123093Y348624D01*
X123186Y349100D01*
X123186Y350157D01*
X124071Y352293D01*
X124380Y352602D01*
X124659Y353023D01*
X124752Y353520D01*
X124643Y354014D01*
X124380Y354398D01*
X124071Y354707D01*
X123186Y356843D01*
X123186Y359157D01*
X123823Y360695D01*
X123920Y361181D01*
X123920Y363819D01*
X123823Y364305D01*
X123186Y365843D01*
X123186Y368157D01*
X124071Y370293D01*
X125707Y371929D01*
X127843Y372814D01*
X130157Y372814D01*
X132293Y371929D01*
X133929Y370293D01*
X134814Y368157D01*
X134814Y365843D01*
X134177Y364305D01*
X134080Y363819D01*
X134080Y361181D01*
X134177Y360695D01*
X134814Y359157D01*
X134814Y356843D01*
X133929Y354707D01*
X133620Y354398D01*
X133341Y353977D01*
X133248Y353480D01*
X133357Y352986D01*
X133620Y352602D01*
X133929Y352293D01*
X134814Y350157D01*
X134814Y347843D01*
X133929Y345707D01*
X133620Y345398D01*
X133341Y344977D01*
X133248Y344480D01*
X133357Y343986D01*
X133620Y343602D01*
X133929Y343293D01*
X134814Y341157D01*
X134814Y340100D01*
X134915Y339605D01*
X135186Y339202D01*
X139810Y334578D01*
X139810Y120104D01*
X139911Y119609D01*
X140182Y119206D01*
X156130Y103258D01*
X156552Y102979D01*
X157028Y102886D01*
X159225Y102886D01*
X161361Y102001D01*
X162997Y100365D01*
X163882Y98229D01*
X163882Y95915D01*
X162931Y93620D01*
X162835Y93474D01*
X162742Y92977D01*
X162839Y92512D01*
X163814Y90156D01*
X163814Y87843D01*
X162929Y85707D01*
X161293Y84071D01*
X160945Y83927D01*
X160526Y83644D01*
X160250Y83221D01*
X160161Y82723D01*
X160274Y82230D01*
X160533Y81855D01*
X161206Y81182D01*
X161628Y80903D01*
X162104Y80810D01*
X175062Y80810D01*
X175557Y80911D01*
X175960Y81182D01*
X176707Y81929D01*
X178843Y82814D01*
X181157Y82814D01*
X183293Y81929D01*
X184929Y80293D01*
X185814Y78157D01*
X185814Y75843D01*
X184929Y73707D01*
X183293Y72071D01*
X181157Y71186D01*
X178843Y71186D01*
G37*
G36*
X96679Y347540D02*
X92945Y349087D01*
X90087Y351945D01*
X88540Y355679D01*
X88540Y359721D01*
X90087Y363455D01*
X92945Y366313D01*
X96679Y367860D01*
X100721Y367860D01*
X104455Y366313D01*
X107313Y363455D01*
X108860Y359721D01*
X108860Y355679D01*
X107313Y351945D01*
X104455Y349087D01*
X100721Y347540D01*
X96679Y347540D01*
G37*
G36*
X257843Y333186D02*
X255707Y334071D01*
X254071Y335707D01*
X253186Y337843D01*
X253186Y340157D01*
X254071Y342293D01*
X255707Y343929D01*
X257843Y344814D01*
X260157Y344814D01*
X262293Y343929D01*
X263929Y342293D01*
X264814Y340157D01*
X264814Y337843D01*
X263929Y335707D01*
X262293Y334071D01*
X260157Y333186D01*
X257843Y333186D01*
G37*
G36*
X96679Y322140D02*
X92945Y323687D01*
X90087Y326545D01*
X88540Y330279D01*
X88540Y334321D01*
X90087Y338055D01*
X92945Y340913D01*
X96679Y342460D01*
X100721Y342460D01*
X104455Y340913D01*
X107313Y338055D01*
X108860Y334321D01*
X108860Y330279D01*
X107313Y326545D01*
X104455Y323687D01*
X100721Y322140D01*
X96679Y322140D01*
G37*
G36*
X96679Y296740D02*
X92945Y298287D01*
X90087Y301145D01*
X88540Y304879D01*
X88540Y308921D01*
X90087Y312655D01*
X92945Y315513D01*
X96679Y317060D01*
X100721Y317060D01*
X104455Y315513D01*
X107313Y312655D01*
X108860Y308921D01*
X108860Y304879D01*
X107313Y301145D01*
X104455Y298287D01*
X100721Y296740D01*
X96679Y296740D01*
G37*
G36*
X96679Y271340D02*
X92945Y272887D01*
X90087Y275745D01*
X88540Y279479D01*
X88540Y283521D01*
X90087Y287255D01*
X92945Y290113D01*
X96679Y291660D01*
X100721Y291660D01*
X104455Y290113D01*
X107313Y287255D01*
X108860Y283521D01*
X108860Y279479D01*
X107313Y275745D01*
X104455Y272887D01*
X100721Y271340D01*
X96679Y271340D01*
G37*
G36*
X96679Y245940D02*
X92945Y247487D01*
X90087Y250345D01*
X88540Y254079D01*
X88540Y258121D01*
X90087Y261855D01*
X92945Y264713D01*
X96679Y266260D01*
X100721Y266260D01*
X104455Y264713D01*
X107313Y261855D01*
X108860Y258121D01*
X108860Y254079D01*
X107313Y250345D01*
X104455Y247487D01*
X100721Y245940D01*
X96679Y245940D01*
G37*
G36*
X96679Y220540D02*
X92945Y222087D01*
X90087Y224945D01*
X88540Y228679D01*
X88540Y232721D01*
X90087Y236455D01*
X92945Y239313D01*
X96679Y240860D01*
X100721Y240860D01*
X104455Y239313D01*
X107313Y236455D01*
X108860Y232721D01*
X108860Y228679D01*
X107313Y224945D01*
X104455Y222087D01*
X100721Y220540D01*
X96679Y220540D01*
G37*
G36*
X96679Y195140D02*
X92945Y196687D01*
X90087Y199545D01*
X88540Y203279D01*
X88540Y207321D01*
X90087Y211055D01*
X92945Y213913D01*
X96679Y215460D01*
X100721Y215460D01*
X104455Y213913D01*
X107313Y211055D01*
X108860Y207321D01*
X108860Y203279D01*
X107313Y199545D01*
X104455Y196687D01*
X100721Y195140D01*
X96679Y195140D01*
G37*
G36*
X96679Y169740D02*
X92945Y171287D01*
X90087Y174145D01*
X88540Y177879D01*
X88540Y181921D01*
X90087Y185655D01*
X92945Y188513D01*
X96679Y190060D01*
X100721Y190060D01*
X104455Y188513D01*
X107313Y185655D01*
X108860Y181921D01*
X108860Y177879D01*
X107313Y174145D01*
X104455Y171287D01*
X100721Y169740D01*
X96679Y169740D01*
G37*
G36*
X258843Y177186D02*
X256707Y178071D01*
X255071Y179707D01*
X254186Y181843D01*
X254186Y184157D01*
X255071Y186293D01*
X256707Y187929D01*
X258843Y188814D01*
X261157Y188814D01*
X263293Y187929D01*
X264929Y186293D01*
X265814Y184157D01*
X265814Y181843D01*
X264929Y179707D01*
X263293Y178071D01*
X261157Y177186D01*
X258843Y177186D01*
G37*
G36*
X96679Y144340D02*
X92945Y145887D01*
X90087Y148745D01*
X88540Y152479D01*
X88540Y156521D01*
X90087Y160255D01*
X92945Y163113D01*
X96679Y164660D01*
X100721Y164660D01*
X104455Y163113D01*
X107313Y160255D01*
X108860Y156521D01*
X108860Y152479D01*
X107313Y148745D01*
X104455Y145887D01*
X100721Y144340D01*
X96679Y144340D01*
G37*
G36*
X96679Y118940D02*
X92945Y120487D01*
X90087Y123345D01*
X88540Y127079D01*
X88540Y131121D01*
X90087Y134855D01*
X92945Y137713D01*
X96679Y139260D01*
X100721Y139260D01*
X104455Y137713D01*
X107313Y134855D01*
X108860Y131121D01*
X108860Y127079D01*
X107313Y123345D01*
X104455Y120487D01*
X100721Y118940D01*
X96679Y118940D01*
G37*
G36*
X96679Y93540D02*
X92945Y95087D01*
X90087Y97945D01*
X88540Y101679D01*
X88540Y105721D01*
X90087Y109455D01*
X92945Y112313D01*
X96679Y113860D01*
X100721Y113860D01*
X104455Y112313D01*
X107313Y109455D01*
X108860Y105721D01*
X108860Y101679D01*
X107313Y97945D01*
X104455Y95087D01*
X100721Y93540D01*
X96679Y93540D01*
G37*
G36*
X96679Y68140D02*
X92945Y69687D01*
X90087Y72545D01*
X88540Y76279D01*
X88540Y80321D01*
X90087Y84055D01*
X92945Y86913D01*
X96679Y88460D01*
X100721Y88460D01*
X104455Y86913D01*
X107313Y84055D01*
X108860Y80321D01*
X108860Y76279D01*
X107313Y72545D01*
X104455Y69687D01*
X100721Y68140D01*
X96679Y68140D01*
G37*
G36*
X96679Y42740D02*
X92945Y44287D01*
X90087Y47145D01*
X88540Y50879D01*
X88540Y54921D01*
X90087Y58655D01*
X92945Y61513D01*
X96679Y63060D01*
X100721Y63060D01*
X104455Y61513D01*
X107313Y58655D01*
X108860Y54921D01*
X108860Y50879D01*
X107313Y47145D01*
X104455Y44287D01*
X100721Y42740D01*
X96679Y42740D01*
G37*
G36*
X128699Y49460D02*
X126295Y50456D01*
X124456Y52295D01*
X123460Y54699D01*
X123460Y57301D01*
X124456Y59705D01*
X126295Y61544D01*
X128699Y62540D01*
X131301Y62540D01*
X133705Y61544D01*
X135544Y59705D01*
X136540Y57301D01*
X136540Y54699D01*
X135544Y52295D01*
X133705Y50456D01*
X131301Y49460D01*
X128699Y49460D01*
G37*
G36*
X96679Y17340D02*
X92945Y18887D01*
X90087Y21745D01*
X88540Y25479D01*
X88540Y29521D01*
X90087Y33255D01*
X92945Y36113D01*
X96679Y37660D01*
X100721Y37660D01*
X104455Y36113D01*
X107313Y33255D01*
X108860Y29521D01*
X108860Y25479D01*
X107313Y21745D01*
X104455Y18887D01*
X100721Y17340D01*
X96679Y17340D01*
G37*
%LPD*%
G36*
X371704Y196667D02*
X372116Y196959D01*
X372382Y197389D01*
X372460Y197828D01*
X372460Y326172D01*
X372359Y326667D01*
X372074Y327084D01*
X371648Y327356D01*
X371150Y327441D01*
X370658Y327325D01*
X370292Y327070D01*
X369293Y326071D01*
X367157Y325186D01*
X366100Y325186D01*
X365605Y325085D01*
X365202Y324814D01*
X363114Y322726D01*
X362835Y322304D01*
X362742Y321828D01*
X362742Y201172D01*
X362843Y200677D01*
X363114Y200274D01*
X364202Y199186D01*
X364624Y198907D01*
X365100Y198814D01*
X367157Y198814D01*
X369293Y197929D01*
X370292Y196930D01*
X370713Y196651D01*
X371210Y196558D01*
X371704Y196667D01*
G37*
D10*
X98700Y27500D03*
X73300Y27500D03*
X98700Y52900D03*
X73300Y52900D03*
X98700Y78300D03*
X73300Y78300D03*
X98700Y103700D03*
X73300Y103700D03*
X98700Y129100D03*
X73300Y129100D03*
X98700Y154500D03*
X73300Y154500D03*
X98700Y179900D03*
X73300Y179900D03*
X98700Y205300D03*
X73300Y205300D03*
X98700Y230700D03*
X73300Y230700D03*
X98700Y256100D03*
X73300Y256100D03*
X98700Y281500D03*
X73300Y281500D03*
X98700Y306900D03*
X73300Y306900D03*
X98700Y332300D03*
X73300Y332300D03*
X98700Y357700D03*
X73300Y357700D03*
X98700Y383100D03*
X73300Y383100D03*
X98700Y408500D03*
X73300Y408500D03*
D11*
X366000Y208000D03*
X366000Y217000D03*
X366000Y316000D03*
X366000Y307000D03*
X360000Y100000D03*
X347000Y112000D03*
X356000Y426000D03*
X343000Y412000D03*
X367000Y8000D03*
X367000Y19000D03*
X356000Y8000D03*
X367000Y426000D03*
X367000Y415000D03*
X130000Y414932D03*
X158000Y414932D03*
X68000Y8000D03*
X79000Y8000D03*
X68000Y426000D03*
X79000Y426000D03*
X140000Y9000D03*
X148000Y9000D03*
X157000Y115000D03*
X342000Y334000D03*
X342000Y190000D03*
X153053Y334053D03*
D12*
X148000Y368000D02*
X201000Y421000D01*
X294000Y421000D01*
X347000Y368000D01*
X148000Y368000D02*
X148000Y339105D01*
X153053Y334053D01*
X347000Y339000D02*
X347000Y368000D01*
X347000Y339000D02*
X342000Y334000D01*
X346132Y156132D02*
X294000Y104000D01*
X346132Y156132D02*
X346132Y185868D01*
X342000Y190000D01*
D11*
X153088Y187912D03*
D12*
X148000Y182824D01*
X148000Y157582D01*
X201582Y104000D02*
X294000Y104000D01*
X201582Y104000D02*
X148000Y157582D01*
D11*
X339000Y342072D03*
X339000Y181928D03*
X156000Y342125D03*
D12*
X342068Y157815D02*
X292317Y108064D01*
X342068Y157815D02*
X342068Y178860D01*
X339000Y181928D01*
X292317Y416936D02*
X203509Y416936D01*
X292317Y416936D02*
X342068Y367185D01*
X203509Y416936D02*
X152932Y366359D01*
X152932Y345193D01*
X156000Y342125D01*
X342068Y345140D02*
X342068Y367185D01*
X342068Y345140D02*
X339000Y342072D01*
D11*
X157039Y180447D03*
D12*
X152826Y176234D01*
X152826Y158503D01*
X203265Y108064D02*
X292317Y108064D01*
X203265Y108064D02*
X152826Y158503D01*
D11*
X336000Y350144D03*
X336000Y173856D03*
X159000Y350197D03*
D12*
X336000Y173856D02*
X338000Y171856D01*
X338000Y159671D02*
X290457Y112128D01*
X338000Y159671D02*
X338000Y171856D01*
X157000Y364679D02*
X205193Y412872D01*
X290457Y412872D01*
X338000Y365329D01*
X157000Y364679D02*
X157000Y352197D01*
X159000Y350197D01*
X338000Y352144D02*
X338000Y365329D01*
X338000Y352144D02*
X336000Y350144D01*
D11*
X159067Y172375D03*
D12*
X158641Y171949D01*
X158641Y158435D01*
X204948Y112128D02*
X290457Y112128D01*
X204948Y112128D02*
X158641Y158435D01*
D11*
X163791Y357209D03*
X331209Y357209D03*
X331209Y166791D03*
D12*
X331209Y158628D02*
X288774Y116192D01*
X331209Y158628D02*
X331209Y166791D01*
X163791Y365723D02*
X206876Y408808D01*
X288774Y408808D01*
X331209Y366372D01*
X163791Y365723D02*
X163791Y357209D01*
X331209Y357209D02*
X331209Y366372D01*
D11*
X164911Y166803D03*
D12*
X164226Y166118D01*
X206940Y116192D02*
X288774Y116192D01*
X206940Y116192D02*
X164226Y158907D01*
X164226Y166118D01*
D11*
X170000Y363000D03*
X325000Y363000D03*
X325000Y161000D03*
D12*
X325000Y160419D01*
X284838Y120256D01*
X284838Y404744D02*
X210521Y404744D01*
X170000Y364223D01*
X170000Y363000D01*
X284838Y404744D02*
X325000Y364582D01*
X325000Y363000D01*
X284838Y120256D02*
X210456Y120256D01*
D11*
X170618Y161095D03*
D12*
X170618Y160094D01*
X210456Y120256D01*
D11*
X178072Y363000D03*
X316928Y363000D03*
X316928Y160928D03*
D12*
X316928Y160595D01*
X280654Y124320D01*
X280654Y400680D02*
X214601Y400680D01*
X178072Y364151D01*
X178072Y363000D01*
X280654Y400680D02*
X316928Y364406D01*
X316928Y363000D01*
X280654Y124320D02*
X214536Y124320D01*
D11*
X178690Y160928D03*
D12*
X178690Y160166D01*
X214536Y124320D01*
D11*
X186144Y363072D03*
X308752Y161000D03*
X308856Y363072D03*
D12*
X308752Y161000D02*
X308752Y160491D01*
X276646Y128384D01*
X218609Y128384D01*
X218609Y396616D02*
X276646Y396616D01*
X218609Y396616D02*
X186144Y364151D01*
X186144Y363072D01*
X276646Y396616D02*
X308856Y364406D01*
X308856Y363072D01*
D11*
X186762Y161000D03*
D12*
X186762Y160231D02*
X218609Y128384D01*
X186762Y160231D02*
X186762Y161000D01*
D11*
X194216Y363000D03*
X300680Y161000D03*
X300784Y363000D03*
D12*
X300680Y161000D02*
X272128Y132448D01*
X272128Y392552D02*
X223127Y392552D01*
X194216Y363641D01*
X194216Y363000D01*
X272128Y392552D02*
X300784Y363896D01*
X300784Y363000D01*
D11*
X194834Y161000D03*
D12*
X223386Y132448D02*
X272128Y132448D01*
X223386Y132448D02*
X194834Y161000D01*
D11*
X294608Y166568D03*
D12*
X264552Y136512D01*
X228664Y136512D01*
X228664Y388488D02*
X264552Y388488D01*
D11*
X294132Y358000D03*
D12*
X228664Y388488D02*
X201000Y360824D01*
X201000Y358068D01*
X264552Y388488D02*
X294132Y358908D01*
X294132Y358000D01*
D11*
X200537Y166713D03*
D12*
X200537Y164639D02*
X228664Y136512D01*
X200537Y164639D02*
X200537Y166713D01*
D11*
X200928Y357996D03*
D12*
X201000Y358068D01*
D11*
X205000Y350144D03*
X290744Y174120D03*
X290000Y350144D03*
D12*
X290744Y174120D02*
X288064Y171440D01*
X288064Y166569D01*
X206936Y163988D02*
X206936Y171440D01*
X206936Y163988D02*
X230348Y140576D01*
X262071Y140576D01*
X288064Y166569D01*
X262071Y384424D02*
X230348Y384424D01*
X207000Y361076D01*
X207000Y352144D01*
X205000Y350144D01*
X262071Y384424D02*
X287000Y359495D01*
X287000Y353144D01*
X290000Y350144D01*
D11*
X204401Y174265D03*
D12*
X204401Y173975D01*
X206936Y171440D01*
D11*
X208000Y342072D03*
X287104Y181896D03*
X287000Y342072D03*
D12*
X287104Y181896D02*
X284000Y178791D01*
X284000Y168253D01*
X211936Y164735D02*
X211936Y177855D01*
X211936Y164735D02*
X232031Y144640D01*
X260387Y144640D01*
X284000Y168253D01*
X260387Y380360D02*
X232031Y380360D01*
X211936Y360265D01*
X211936Y346008D02*
X208000Y342072D01*
X211936Y346008D02*
X211936Y360265D01*
X260387Y380360D02*
X282000Y358747D01*
X282000Y347072D01*
X287000Y342072D01*
D11*
X208041Y182041D03*
D12*
X208041Y181751D01*
X211936Y177855D01*
D11*
X283798Y189968D03*
X284000Y334000D03*
D12*
X279000Y185170D02*
X279000Y169000D01*
X279000Y185170D02*
X283798Y189968D01*
X216000Y185170D02*
X216000Y166419D01*
X233715Y148704D01*
X258704Y148704D01*
X279000Y169000D01*
X258704Y376296D02*
X233715Y376296D01*
X216000Y358582D01*
X258704Y376296D02*
X277000Y358000D01*
X277000Y341000D01*
X284000Y334000D01*
D11*
X210868Y334000D03*
D12*
X216000Y339132D02*
X216000Y358582D01*
X216000Y339132D02*
X210868Y334000D01*
D11*
X211068Y190113D03*
D12*
X211068Y190102D01*
X216000Y185170D01*
D11*
X236000Y155000D03*
X236000Y369288D03*
X236000Y163072D03*
X236000Y361216D03*
X236000Y171144D03*
X236068Y353144D03*
X236000Y179216D03*
X236068Y345072D03*
X342186Y252049D03*
D12*
X319137Y229000D02*
X175863Y229000D01*
X319137Y229000D02*
X342186Y252049D01*
X175863Y229000D02*
X148814Y256049D01*
D11*
X148814Y258560D03*
D12*
X148814Y256049D01*
D11*
X338896Y260121D03*
D12*
X311839Y233064D01*
X183161Y233064D01*
D11*
X156886Y260740D03*
D12*
X156886Y259339D02*
X183161Y233064D01*
X156886Y259339D02*
X156886Y260740D01*
D11*
X335248Y267888D03*
D12*
X304487Y237128D01*
X190513Y237128D01*
D11*
X160453Y268589D03*
D12*
X160453Y267188D02*
X190513Y237128D01*
X160453Y267188D02*
X160453Y268589D01*
D11*
X331384Y275440D03*
D12*
X297136Y241192D01*
X197865Y241192D01*
D11*
X164321Y276137D03*
D12*
X164321Y274736D01*
X197865Y241192D01*
D11*
X325320Y281000D03*
D12*
X325320Y280320D01*
X290256Y245256D01*
X204915Y245256D01*
D11*
X170276Y281597D03*
D12*
X170276Y279894D01*
X204915Y245256D01*
D11*
X317248Y281000D03*
D12*
X317248Y281752D01*
X306068Y292932D01*
X188932Y292932D01*
D11*
X178348Y281000D03*
D12*
X178348Y282348D02*
X188932Y292932D01*
X178348Y282348D02*
X178348Y281000D01*
D11*
X309072Y281072D03*
D12*
X303000Y288000D02*
X192000Y288000D01*
X303000Y288000D02*
X309072Y281928D01*
X309072Y281072D01*
D11*
X186420Y281072D03*
D12*
X186420Y282420D02*
X192000Y288000D01*
X186420Y282420D02*
X186420Y281072D01*
D11*
X301000Y281000D03*
D12*
X299000Y283000D01*
D11*
X194492Y281000D03*
D12*
X196492Y283000D02*
X299000Y283000D01*
X196492Y283000D02*
X194492Y281000D01*
D11*
X201000Y276000D03*
X294000Y276000D03*
D12*
X201000Y276000D01*
D11*
X205000Y268144D03*
X290000Y268144D03*
D12*
X205000Y268144D01*
D11*
X208000Y260072D03*
X287000Y260072D03*
D12*
X208000Y260072D01*
D11*
X211000Y252000D03*
X284000Y252000D03*
D12*
X211000Y252000D01*
D11*
X236000Y304712D03*
X236000Y219040D03*
X236000Y312784D03*
X236000Y210968D03*
X236000Y320856D03*
X236068Y202896D03*
X236000Y328928D03*
X236068Y194824D03*
X366000Y331000D03*
X366000Y193000D03*
X129000Y331000D03*
D12*
X358932Y323932D02*
X366000Y331000D01*
X358932Y323932D02*
X358932Y199068D01*
X365000Y193000D02*
X366000Y193000D01*
X365000Y193000D02*
X358932Y199068D01*
D11*
X158000Y89000D03*
D12*
X129000Y116000D02*
X129000Y331000D01*
X129000Y116000D02*
X156000Y89000D01*
X158000Y89000D01*
D11*
X156000Y37000D03*
X227000Y301000D03*
X260000Y183000D03*
X259000Y339000D03*
X267000Y301000D03*
X129000Y358000D03*
X129000Y367000D03*
X366000Y166000D03*
X366000Y157000D03*
X366000Y359000D03*
X366000Y368000D03*
D13*
X129000Y367000D02*
X129000Y358000D01*
X366000Y359000D02*
X366000Y368000D01*
X366000Y166000D02*
X366000Y157000D01*
D11*
X157000Y131000D03*
X165000Y131000D03*
X168000Y47000D03*
X168000Y39000D03*
D13*
X168000Y47000D01*
X165000Y131000D02*
X157000Y131000D01*
D11*
X366000Y340000D03*
X366000Y184000D03*
X129000Y340000D03*
D12*
X136000Y333000D01*
X354868Y328868D02*
X366000Y340000D01*
X354868Y328868D02*
X354868Y194132D01*
X365000Y184000D02*
X366000Y184000D01*
X365000Y184000D02*
X354868Y194132D01*
D11*
X158068Y97072D03*
D12*
X136000Y118000D02*
X136000Y333000D01*
X136000Y118000D02*
X156928Y97072D01*
X158068Y97072D01*
D11*
X366000Y175000D03*
D12*
X358000Y167000D01*
X358000Y141000D01*
X284000Y67000D01*
D11*
X188072Y37000D03*
D12*
X211000Y67000D02*
X284000Y67000D01*
X211000Y67000D02*
X188072Y44072D01*
X188072Y37000D01*
D11*
X366000Y349000D03*
D12*
X350804Y147804D02*
X275000Y72000D01*
X350804Y333804D02*
X366000Y349000D01*
X350804Y333804D02*
X350804Y147804D01*
D11*
X180000Y37000D03*
D12*
X209000Y72000D02*
X275000Y72000D01*
X209000Y72000D02*
X180000Y43000D01*
X180000Y37000D01*
D11*
X129000Y349000D03*
D12*
X122000Y342000D01*
X122000Y115000D01*
X160000Y77000D01*
X180000Y77000D01*
D11*
X180000Y77000D03*
M02*
