G04 EAGLE Gerber RS-274X export*
G75*
%MOMM*%
%FSLAX34Y34*%
%LPD*%
%INCopper Layer 2*%
%IPPOS*%
%AMOC8*
5,1,8,0,0,1.08239X$1,22.5*%
G01*
G04 Define Apertures*
%ADD10C,1.524000*%
%ADD11C,0.654800*%
%ADD12C,0.152400*%
%ADD13C,0.254000*%
%ADD14C,0.508000*%
G36*
X371685Y2641D02*
X372102Y2926D01*
X372375Y3352D01*
X372460Y3810D01*
X372460Y152172D01*
X372359Y152667D01*
X372074Y153084D01*
X371648Y153356D01*
X371150Y153441D01*
X370658Y153325D01*
X370292Y153070D01*
X369293Y152071D01*
X367755Y151434D01*
X367343Y151159D01*
X257878Y41693D01*
X256010Y40920D01*
X194642Y40920D01*
X194147Y40819D01*
X193730Y40534D01*
X193457Y40108D01*
X193373Y39610D01*
X193469Y39164D01*
X193886Y38157D01*
X193886Y35843D01*
X193001Y33707D01*
X191365Y32071D01*
X189229Y31186D01*
X186915Y31186D01*
X184567Y32159D01*
X184513Y32195D01*
X184016Y32288D01*
X183522Y32179D01*
X183473Y32146D01*
X181157Y31186D01*
X178843Y31186D01*
X176707Y32071D01*
X175071Y33707D01*
X174585Y34880D01*
X174303Y35299D01*
X173879Y35575D01*
X173382Y35663D01*
X172889Y35551D01*
X172514Y35292D01*
X171293Y34071D01*
X169157Y33186D01*
X166843Y33186D01*
X164707Y34071D01*
X163486Y35292D01*
X163065Y35571D01*
X162568Y35664D01*
X162074Y35555D01*
X161662Y35263D01*
X161415Y34880D01*
X160929Y33707D01*
X159293Y32071D01*
X157157Y31186D01*
X154843Y31186D01*
X152707Y32071D01*
X151071Y33707D01*
X150186Y35843D01*
X150186Y38157D01*
X150603Y39164D01*
X150700Y39660D01*
X150595Y40155D01*
X150306Y40569D01*
X149878Y40838D01*
X149430Y40920D01*
X125990Y40920D01*
X124122Y41693D01*
X115693Y50122D01*
X114920Y51990D01*
X114920Y359010D01*
X115693Y360878D01*
X121122Y366307D01*
X122402Y366837D01*
X122821Y367119D01*
X123097Y367543D01*
X123186Y368010D01*
X123186Y368157D01*
X124071Y370293D01*
X125707Y371929D01*
X127843Y372814D01*
X130157Y372814D01*
X132293Y371929D01*
X133929Y370293D01*
X134814Y368157D01*
X134814Y365843D01*
X134177Y364305D01*
X134080Y363819D01*
X134080Y361181D01*
X134177Y360695D01*
X134814Y359157D01*
X134814Y356843D01*
X133929Y354707D01*
X133620Y354398D01*
X133341Y353977D01*
X133248Y353480D01*
X133357Y352986D01*
X133620Y352602D01*
X134019Y352203D01*
X134440Y351924D01*
X134937Y351831D01*
X135431Y351940D01*
X135815Y352203D01*
X168422Y384810D01*
X326578Y384810D01*
X359185Y352203D01*
X359606Y351924D01*
X360103Y351831D01*
X360597Y351940D01*
X360981Y352203D01*
X361880Y353102D01*
X362159Y353523D01*
X362252Y354020D01*
X362143Y354514D01*
X361880Y354898D01*
X361071Y355707D01*
X360186Y357843D01*
X360186Y360157D01*
X360823Y361695D01*
X360920Y362181D01*
X360920Y364819D01*
X360823Y365305D01*
X360186Y366843D01*
X360186Y369157D01*
X361071Y371293D01*
X362707Y372929D01*
X364843Y373814D01*
X367157Y373814D01*
X369293Y372929D01*
X370292Y371930D01*
X370713Y371651D01*
X371210Y371558D01*
X371704Y371667D01*
X372116Y371959D01*
X372382Y372389D01*
X372460Y372828D01*
X372460Y430190D01*
X372359Y430685D01*
X372074Y431102D01*
X371648Y431375D01*
X371190Y431460D01*
X63810Y431460D01*
X63315Y431359D01*
X62898Y431074D01*
X62625Y430648D01*
X62540Y430190D01*
X62540Y415174D01*
X62641Y414679D01*
X62926Y414262D01*
X63352Y413990D01*
X63850Y413905D01*
X64342Y414021D01*
X64708Y414276D01*
X67545Y417113D01*
X71279Y418660D01*
X75321Y418660D01*
X79055Y417113D01*
X81913Y414255D01*
X83460Y410521D01*
X83460Y406479D01*
X81913Y402745D01*
X79055Y399887D01*
X75321Y398340D01*
X71279Y398340D01*
X67545Y399887D01*
X64708Y402724D01*
X64287Y403003D01*
X63790Y403095D01*
X63296Y402987D01*
X62884Y402695D01*
X62618Y402264D01*
X62540Y401826D01*
X62540Y389774D01*
X62641Y389279D01*
X62926Y388862D01*
X63352Y388590D01*
X63850Y388505D01*
X64342Y388621D01*
X64708Y388876D01*
X67545Y391713D01*
X71279Y393260D01*
X75321Y393260D01*
X79055Y391713D01*
X81913Y388855D01*
X83460Y385121D01*
X83460Y381079D01*
X81913Y377345D01*
X79055Y374487D01*
X75321Y372940D01*
X71279Y372940D01*
X67545Y374487D01*
X64708Y377324D01*
X64287Y377603D01*
X63790Y377695D01*
X63296Y377587D01*
X62884Y377295D01*
X62618Y376864D01*
X62540Y376426D01*
X62540Y364374D01*
X62641Y363879D01*
X62926Y363462D01*
X63352Y363190D01*
X63850Y363105D01*
X64342Y363221D01*
X64708Y363476D01*
X67545Y366313D01*
X71279Y367860D01*
X75321Y367860D01*
X79055Y366313D01*
X81913Y363455D01*
X83460Y359721D01*
X83460Y355679D01*
X81913Y351945D01*
X79055Y349087D01*
X75321Y347540D01*
X71279Y347540D01*
X67545Y349087D01*
X64708Y351924D01*
X64287Y352203D01*
X63790Y352295D01*
X63296Y352187D01*
X62884Y351895D01*
X62618Y351464D01*
X62540Y351026D01*
X62540Y338974D01*
X62641Y338479D01*
X62926Y338062D01*
X63352Y337790D01*
X63850Y337705D01*
X64342Y337821D01*
X64708Y338076D01*
X67545Y340913D01*
X71279Y342460D01*
X75321Y342460D01*
X79055Y340913D01*
X81913Y338055D01*
X83460Y334321D01*
X83460Y330279D01*
X81913Y326545D01*
X79055Y323687D01*
X75321Y322140D01*
X71279Y322140D01*
X67545Y323687D01*
X64708Y326524D01*
X64287Y326803D01*
X63790Y326895D01*
X63296Y326787D01*
X62884Y326495D01*
X62618Y326064D01*
X62540Y325626D01*
X62540Y313574D01*
X62641Y313079D01*
X62926Y312662D01*
X63352Y312390D01*
X63850Y312305D01*
X64342Y312421D01*
X64708Y312676D01*
X67545Y315513D01*
X71279Y317060D01*
X75321Y317060D01*
X79055Y315513D01*
X81913Y312655D01*
X83460Y308921D01*
X83460Y304879D01*
X81913Y301145D01*
X79055Y298287D01*
X75321Y296740D01*
X71279Y296740D01*
X67545Y298287D01*
X64708Y301124D01*
X64287Y301403D01*
X63790Y301495D01*
X63296Y301387D01*
X62884Y301095D01*
X62618Y300664D01*
X62540Y300226D01*
X62540Y288174D01*
X62641Y287679D01*
X62926Y287262D01*
X63352Y286990D01*
X63850Y286905D01*
X64342Y287021D01*
X64708Y287276D01*
X67545Y290113D01*
X71279Y291660D01*
X75321Y291660D01*
X79055Y290113D01*
X81913Y287255D01*
X83460Y283521D01*
X83460Y279479D01*
X81913Y275745D01*
X79055Y272887D01*
X75321Y271340D01*
X71279Y271340D01*
X67545Y272887D01*
X64708Y275724D01*
X64287Y276003D01*
X63790Y276095D01*
X63296Y275987D01*
X62884Y275695D01*
X62618Y275264D01*
X62540Y274826D01*
X62540Y262774D01*
X62641Y262279D01*
X62926Y261862D01*
X63352Y261590D01*
X63850Y261505D01*
X64342Y261621D01*
X64708Y261876D01*
X67545Y264713D01*
X71279Y266260D01*
X75321Y266260D01*
X79055Y264713D01*
X81913Y261855D01*
X83460Y258121D01*
X83460Y254079D01*
X81913Y250345D01*
X79055Y247487D01*
X75321Y245940D01*
X71279Y245940D01*
X67545Y247487D01*
X64708Y250324D01*
X64287Y250603D01*
X63790Y250695D01*
X63296Y250587D01*
X62884Y250295D01*
X62618Y249864D01*
X62540Y249426D01*
X62540Y237374D01*
X62641Y236879D01*
X62926Y236462D01*
X63352Y236190D01*
X63850Y236105D01*
X64342Y236221D01*
X64708Y236476D01*
X67545Y239313D01*
X71279Y240860D01*
X75321Y240860D01*
X79055Y239313D01*
X81913Y236455D01*
X83460Y232721D01*
X83460Y228679D01*
X81913Y224945D01*
X79055Y222087D01*
X75321Y220540D01*
X71279Y220540D01*
X67545Y222087D01*
X64708Y224924D01*
X64287Y225203D01*
X63790Y225295D01*
X63296Y225187D01*
X62884Y224895D01*
X62618Y224464D01*
X62540Y224026D01*
X62540Y211974D01*
X62641Y211479D01*
X62926Y211062D01*
X63352Y210790D01*
X63850Y210705D01*
X64342Y210821D01*
X64708Y211076D01*
X67545Y213913D01*
X71279Y215460D01*
X75321Y215460D01*
X79055Y213913D01*
X81913Y211055D01*
X83460Y207321D01*
X83460Y203279D01*
X81913Y199545D01*
X79055Y196687D01*
X75321Y195140D01*
X71279Y195140D01*
X67545Y196687D01*
X64708Y199524D01*
X64287Y199803D01*
X63790Y199895D01*
X63296Y199787D01*
X62884Y199495D01*
X62618Y199064D01*
X62540Y198626D01*
X62540Y186574D01*
X62641Y186079D01*
X62926Y185662D01*
X63352Y185390D01*
X63850Y185305D01*
X64342Y185421D01*
X64708Y185676D01*
X67545Y188513D01*
X71279Y190060D01*
X75321Y190060D01*
X79055Y188513D01*
X81913Y185655D01*
X83460Y181921D01*
X83460Y177879D01*
X81913Y174145D01*
X79055Y171287D01*
X75321Y169740D01*
X71279Y169740D01*
X67545Y171287D01*
X64708Y174124D01*
X64287Y174403D01*
X63790Y174495D01*
X63296Y174387D01*
X62884Y174095D01*
X62618Y173664D01*
X62540Y173226D01*
X62540Y161174D01*
X62641Y160679D01*
X62926Y160262D01*
X63352Y159990D01*
X63850Y159905D01*
X64342Y160021D01*
X64708Y160276D01*
X67545Y163113D01*
X71279Y164660D01*
X75321Y164660D01*
X79055Y163113D01*
X81913Y160255D01*
X83460Y156521D01*
X83460Y152479D01*
X81913Y148745D01*
X79055Y145887D01*
X75321Y144340D01*
X71279Y144340D01*
X67545Y145887D01*
X64708Y148724D01*
X64287Y149003D01*
X63790Y149095D01*
X63296Y148987D01*
X62884Y148695D01*
X62618Y148264D01*
X62540Y147826D01*
X62540Y135774D01*
X62641Y135279D01*
X62926Y134862D01*
X63352Y134590D01*
X63850Y134505D01*
X64342Y134621D01*
X64708Y134876D01*
X67545Y137713D01*
X71279Y139260D01*
X75321Y139260D01*
X79055Y137713D01*
X81913Y134855D01*
X83460Y131121D01*
X83460Y127079D01*
X81913Y123345D01*
X79055Y120487D01*
X75321Y118940D01*
X71279Y118940D01*
X67545Y120487D01*
X64708Y123324D01*
X64287Y123603D01*
X63790Y123695D01*
X63296Y123587D01*
X62884Y123295D01*
X62618Y122864D01*
X62540Y122426D01*
X62540Y110374D01*
X62641Y109879D01*
X62926Y109462D01*
X63352Y109190D01*
X63850Y109105D01*
X64342Y109221D01*
X64708Y109476D01*
X67545Y112313D01*
X71279Y113860D01*
X75321Y113860D01*
X79055Y112313D01*
X81913Y109455D01*
X83460Y105721D01*
X83460Y101679D01*
X81913Y97945D01*
X79055Y95087D01*
X75321Y93540D01*
X71279Y93540D01*
X67545Y95087D01*
X64708Y97924D01*
X64287Y98203D01*
X63790Y98295D01*
X63296Y98187D01*
X62884Y97895D01*
X62618Y97464D01*
X62540Y97026D01*
X62540Y84974D01*
X62641Y84479D01*
X62926Y84062D01*
X63352Y83790D01*
X63850Y83705D01*
X64342Y83821D01*
X64708Y84076D01*
X67545Y86913D01*
X71279Y88460D01*
X75321Y88460D01*
X79055Y86913D01*
X81913Y84055D01*
X83460Y80321D01*
X83460Y76279D01*
X81913Y72545D01*
X79055Y69687D01*
X75321Y68140D01*
X71279Y68140D01*
X67545Y69687D01*
X64708Y72524D01*
X64287Y72803D01*
X63790Y72895D01*
X63296Y72787D01*
X62884Y72495D01*
X62618Y72064D01*
X62540Y71626D01*
X62540Y59574D01*
X62641Y59079D01*
X62926Y58662D01*
X63352Y58390D01*
X63850Y58305D01*
X64342Y58421D01*
X64708Y58676D01*
X67545Y61513D01*
X71279Y63060D01*
X75321Y63060D01*
X79055Y61513D01*
X81913Y58655D01*
X83460Y54921D01*
X83460Y50879D01*
X81913Y47145D01*
X79055Y44287D01*
X75321Y42740D01*
X71279Y42740D01*
X67545Y44287D01*
X64708Y47124D01*
X64287Y47403D01*
X63790Y47495D01*
X63296Y47387D01*
X62884Y47095D01*
X62618Y46664D01*
X62540Y46226D01*
X62540Y34174D01*
X62641Y33679D01*
X62926Y33262D01*
X63352Y32990D01*
X63850Y32905D01*
X64342Y33021D01*
X64708Y33276D01*
X67545Y36113D01*
X71279Y37660D01*
X75321Y37660D01*
X79055Y36113D01*
X81913Y33255D01*
X83460Y29521D01*
X83460Y25479D01*
X81913Y21745D01*
X79055Y18887D01*
X75321Y17340D01*
X71279Y17340D01*
X67545Y18887D01*
X64708Y21724D01*
X64287Y22003D01*
X63790Y22095D01*
X63296Y21987D01*
X62884Y21695D01*
X62618Y21264D01*
X62540Y20826D01*
X62540Y3810D01*
X62641Y3315D01*
X62926Y2898D01*
X63352Y2625D01*
X63810Y2540D01*
X371190Y2540D01*
X371685Y2641D01*
G37*
%LPC*%
G36*
X96679Y398340D02*
X92945Y399887D01*
X90087Y402745D01*
X88540Y406479D01*
X88540Y410521D01*
X90087Y414255D01*
X92945Y417113D01*
X96679Y418660D01*
X100721Y418660D01*
X104455Y417113D01*
X107313Y414255D01*
X108860Y410521D01*
X108860Y406479D01*
X107313Y402745D01*
X104455Y399887D01*
X100721Y398340D01*
X96679Y398340D01*
G37*
G36*
X96679Y372940D02*
X92945Y374487D01*
X90087Y377345D01*
X88540Y381079D01*
X88540Y385121D01*
X90087Y388855D01*
X92945Y391713D01*
X96679Y393260D01*
X100721Y393260D01*
X104455Y391713D01*
X107313Y388855D01*
X108860Y385121D01*
X108860Y381079D01*
X107313Y377345D01*
X104455Y374487D01*
X100721Y372940D01*
X96679Y372940D01*
G37*
G36*
X96679Y347540D02*
X92945Y349087D01*
X90087Y351945D01*
X88540Y355679D01*
X88540Y359721D01*
X90087Y363455D01*
X92945Y366313D01*
X96679Y367860D01*
X100721Y367860D01*
X104455Y366313D01*
X107313Y363455D01*
X108860Y359721D01*
X108860Y355679D01*
X107313Y351945D01*
X104455Y349087D01*
X100721Y347540D01*
X96679Y347540D01*
G37*
G36*
X96679Y322140D02*
X92945Y323687D01*
X90087Y326545D01*
X88540Y330279D01*
X88540Y334321D01*
X90087Y338055D01*
X92945Y340913D01*
X96679Y342460D01*
X100721Y342460D01*
X104455Y340913D01*
X107313Y338055D01*
X108860Y334321D01*
X108860Y330279D01*
X107313Y326545D01*
X104455Y323687D01*
X100721Y322140D01*
X96679Y322140D01*
G37*
G36*
X96679Y296740D02*
X92945Y298287D01*
X90087Y301145D01*
X88540Y304879D01*
X88540Y308921D01*
X90087Y312655D01*
X92945Y315513D01*
X96679Y317060D01*
X100721Y317060D01*
X104455Y315513D01*
X107313Y312655D01*
X108860Y308921D01*
X108860Y304879D01*
X107313Y301145D01*
X104455Y298287D01*
X100721Y296740D01*
X96679Y296740D01*
G37*
G36*
X96679Y271340D02*
X92945Y272887D01*
X90087Y275745D01*
X88540Y279479D01*
X88540Y283521D01*
X90087Y287255D01*
X92945Y290113D01*
X96679Y291660D01*
X100721Y291660D01*
X104455Y290113D01*
X107313Y287255D01*
X108860Y283521D01*
X108860Y279479D01*
X107313Y275745D01*
X104455Y272887D01*
X100721Y271340D01*
X96679Y271340D01*
G37*
G36*
X96679Y245940D02*
X92945Y247487D01*
X90087Y250345D01*
X88540Y254079D01*
X88540Y258121D01*
X90087Y261855D01*
X92945Y264713D01*
X96679Y266260D01*
X100721Y266260D01*
X104455Y264713D01*
X107313Y261855D01*
X108860Y258121D01*
X108860Y254079D01*
X107313Y250345D01*
X104455Y247487D01*
X100721Y245940D01*
X96679Y245940D01*
G37*
G36*
X96679Y220540D02*
X92945Y222087D01*
X90087Y224945D01*
X88540Y228679D01*
X88540Y232721D01*
X90087Y236455D01*
X92945Y239313D01*
X96679Y240860D01*
X100721Y240860D01*
X104455Y239313D01*
X107313Y236455D01*
X108860Y232721D01*
X108860Y228679D01*
X107313Y224945D01*
X104455Y222087D01*
X100721Y220540D01*
X96679Y220540D01*
G37*
G36*
X96679Y195140D02*
X92945Y196687D01*
X90087Y199545D01*
X88540Y203279D01*
X88540Y207321D01*
X90087Y211055D01*
X92945Y213913D01*
X96679Y215460D01*
X100721Y215460D01*
X104455Y213913D01*
X107313Y211055D01*
X108860Y207321D01*
X108860Y203279D01*
X107313Y199545D01*
X104455Y196687D01*
X100721Y195140D01*
X96679Y195140D01*
G37*
G36*
X96679Y169740D02*
X92945Y171287D01*
X90087Y174145D01*
X88540Y177879D01*
X88540Y181921D01*
X90087Y185655D01*
X92945Y188513D01*
X96679Y190060D01*
X100721Y190060D01*
X104455Y188513D01*
X107313Y185655D01*
X108860Y181921D01*
X108860Y177879D01*
X107313Y174145D01*
X104455Y171287D01*
X100721Y169740D01*
X96679Y169740D01*
G37*
G36*
X96679Y144340D02*
X92945Y145887D01*
X90087Y148745D01*
X88540Y152479D01*
X88540Y156521D01*
X90087Y160255D01*
X92945Y163113D01*
X96679Y164660D01*
X100721Y164660D01*
X104455Y163113D01*
X107313Y160255D01*
X108860Y156521D01*
X108860Y152479D01*
X107313Y148745D01*
X104455Y145887D01*
X100721Y144340D01*
X96679Y144340D01*
G37*
G36*
X96679Y118940D02*
X92945Y120487D01*
X90087Y123345D01*
X88540Y127079D01*
X88540Y131121D01*
X90087Y134855D01*
X92945Y137713D01*
X96679Y139260D01*
X100721Y139260D01*
X104455Y137713D01*
X107313Y134855D01*
X108860Y131121D01*
X108860Y127079D01*
X107313Y123345D01*
X104455Y120487D01*
X100721Y118940D01*
X96679Y118940D01*
G37*
G36*
X96679Y93540D02*
X92945Y95087D01*
X90087Y97945D01*
X88540Y101679D01*
X88540Y105721D01*
X90087Y109455D01*
X92945Y112313D01*
X96679Y113860D01*
X100721Y113860D01*
X104455Y112313D01*
X107313Y109455D01*
X108860Y105721D01*
X108860Y101679D01*
X107313Y97945D01*
X104455Y95087D01*
X100721Y93540D01*
X96679Y93540D01*
G37*
G36*
X96679Y68140D02*
X92945Y69687D01*
X90087Y72545D01*
X88540Y76279D01*
X88540Y80321D01*
X90087Y84055D01*
X92945Y86913D01*
X96679Y88460D01*
X100721Y88460D01*
X104455Y86913D01*
X107313Y84055D01*
X108860Y80321D01*
X108860Y76279D01*
X107313Y72545D01*
X104455Y69687D01*
X100721Y68140D01*
X96679Y68140D01*
G37*
G36*
X96679Y42740D02*
X92945Y44287D01*
X90087Y47145D01*
X88540Y50879D01*
X88540Y54921D01*
X90087Y58655D01*
X92945Y61513D01*
X96679Y63060D01*
X100721Y63060D01*
X104455Y61513D01*
X107313Y58655D01*
X108860Y54921D01*
X108860Y50879D01*
X107313Y47145D01*
X104455Y44287D01*
X100721Y42740D01*
X96679Y42740D01*
G37*
G36*
X96679Y17340D02*
X92945Y18887D01*
X90087Y21745D01*
X88540Y25479D01*
X88540Y29521D01*
X90087Y33255D01*
X92945Y36113D01*
X96679Y37660D01*
X100721Y37660D01*
X104455Y36113D01*
X107313Y33255D01*
X108860Y29521D01*
X108860Y25479D01*
X107313Y21745D01*
X104455Y18887D01*
X100721Y17340D01*
X96679Y17340D01*
G37*
%LPD*%
G36*
X346448Y178942D02*
X346805Y179193D01*
X359814Y192202D01*
X360093Y192624D01*
X360186Y193100D01*
X360186Y194157D01*
X361071Y196293D01*
X362707Y197929D01*
X364843Y198814D01*
X367157Y198814D01*
X369293Y197929D01*
X370292Y196930D01*
X370713Y196651D01*
X371210Y196558D01*
X371704Y196667D01*
X372116Y196959D01*
X372382Y197389D01*
X372460Y197828D01*
X372460Y326172D01*
X372359Y326667D01*
X372074Y327084D01*
X371648Y327356D01*
X371150Y327441D01*
X370658Y327325D01*
X370292Y327070D01*
X369293Y326071D01*
X367157Y325186D01*
X364843Y325186D01*
X362707Y326071D01*
X361071Y327707D01*
X360186Y329843D01*
X360186Y330900D01*
X360085Y331395D01*
X359814Y331798D01*
X346805Y344807D01*
X346383Y345086D01*
X345887Y345179D01*
X345393Y345070D01*
X344981Y344778D01*
X344715Y344348D01*
X344638Y343848D01*
X344733Y343423D01*
X344814Y343228D01*
X344814Y340916D01*
X344668Y340563D01*
X344571Y340067D01*
X344676Y339572D01*
X344965Y339157D01*
X345251Y338971D01*
X346929Y337293D01*
X347814Y335157D01*
X347814Y332843D01*
X346929Y330707D01*
X345674Y329452D01*
X345395Y329030D01*
X345302Y328554D01*
X345302Y302894D01*
X345403Y302398D01*
X345674Y301996D01*
X366302Y281368D01*
X366302Y239632D01*
X345674Y219004D01*
X345395Y218583D01*
X345302Y218106D01*
X345302Y195446D01*
X345403Y194951D01*
X345674Y194548D01*
X346929Y193293D01*
X347814Y191157D01*
X347814Y188843D01*
X346929Y186707D01*
X345244Y185022D01*
X344936Y184814D01*
X344660Y184391D01*
X344572Y183893D01*
X344668Y183437D01*
X344814Y183084D01*
X344814Y180772D01*
X344733Y180577D01*
X344637Y180081D01*
X344741Y179586D01*
X345030Y179172D01*
X345458Y178903D01*
X345957Y178822D01*
X346448Y178942D01*
G37*
G36*
X163827Y51181D02*
X164230Y51452D01*
X164707Y51929D01*
X166843Y52814D01*
X169157Y52814D01*
X171293Y51929D01*
X171770Y51452D01*
X172192Y51173D01*
X172668Y51080D01*
X206058Y51080D01*
X206554Y51181D01*
X206971Y51466D01*
X207243Y51892D01*
X207328Y52390D01*
X207232Y52836D01*
X206460Y54699D01*
X206460Y57301D01*
X207456Y59705D01*
X209295Y61544D01*
X211699Y62540D01*
X214301Y62540D01*
X216705Y61544D01*
X218544Y59705D01*
X219540Y57301D01*
X219540Y54699D01*
X218768Y52836D01*
X218672Y52340D01*
X218776Y51845D01*
X219065Y51431D01*
X219493Y51162D01*
X219942Y51080D01*
X252370Y51080D01*
X252865Y51181D01*
X253268Y51452D01*
X360159Y158343D01*
X360434Y158755D01*
X360823Y159695D01*
X360920Y160181D01*
X360920Y162819D01*
X360823Y163305D01*
X360186Y164843D01*
X360186Y167157D01*
X361071Y169293D01*
X361380Y169602D01*
X361659Y170023D01*
X361752Y170520D01*
X361643Y171014D01*
X361380Y171398D01*
X360981Y171797D01*
X360560Y172076D01*
X360063Y172169D01*
X359569Y172060D01*
X359185Y171797D01*
X326578Y139190D01*
X208104Y139190D01*
X207609Y139089D01*
X207206Y138818D01*
X163762Y95374D01*
X163487Y94962D01*
X162931Y93620D01*
X162835Y93474D01*
X162742Y92977D01*
X162839Y92512D01*
X163814Y90156D01*
X163814Y87843D01*
X162929Y85707D01*
X161293Y84071D01*
X159157Y83186D01*
X156843Y83186D01*
X154707Y84071D01*
X153071Y85707D01*
X152578Y86897D01*
X152303Y87309D01*
X147190Y92422D01*
X147190Y100164D01*
X198836Y151810D01*
X229128Y151810D01*
X229623Y151911D01*
X230040Y152196D01*
X230312Y152622D01*
X230397Y153120D01*
X230301Y153566D01*
X230186Y153843D01*
X230186Y156157D01*
X231159Y158505D01*
X231195Y158559D01*
X231288Y159056D01*
X231179Y159550D01*
X231146Y159599D01*
X230186Y161915D01*
X230186Y164229D01*
X231159Y166577D01*
X231195Y166631D01*
X231288Y167128D01*
X231179Y167622D01*
X231146Y167671D01*
X230186Y169987D01*
X230186Y172301D01*
X231159Y174649D01*
X231195Y174703D01*
X231288Y175200D01*
X231179Y175694D01*
X231146Y175743D01*
X230186Y178059D01*
X230186Y180373D01*
X231071Y182509D01*
X232326Y183764D01*
X232605Y184186D01*
X232698Y184662D01*
X232698Y188282D01*
X232935Y188639D01*
X233027Y189136D01*
X232919Y189630D01*
X232656Y190014D01*
X231139Y191530D01*
X230254Y193667D01*
X230254Y195980D01*
X231227Y198328D01*
X231263Y198383D01*
X231356Y198880D01*
X231247Y199374D01*
X231214Y199422D01*
X230254Y201739D01*
X230254Y204052D01*
X231230Y206407D01*
X231326Y206903D01*
X231222Y207398D01*
X231129Y207533D01*
X230186Y209811D01*
X230186Y212124D01*
X231159Y214472D01*
X231195Y214527D01*
X231288Y215024D01*
X231179Y215518D01*
X231146Y215566D01*
X230186Y217883D01*
X230186Y220196D01*
X231071Y222333D01*
X232326Y223588D01*
X232605Y224009D01*
X232698Y224486D01*
X232698Y233962D01*
X232597Y234458D01*
X232312Y234874D01*
X231886Y235147D01*
X231388Y235232D01*
X230896Y235115D01*
X230530Y234860D01*
X214742Y219072D01*
X214463Y218651D01*
X214370Y218174D01*
X214370Y195559D01*
X214471Y195064D01*
X214742Y194661D01*
X215997Y193406D01*
X216882Y191269D01*
X216882Y188956D01*
X215997Y186819D01*
X214331Y185153D01*
X213981Y184917D01*
X213705Y184494D01*
X213616Y183996D01*
X213713Y183540D01*
X213855Y183197D01*
X213855Y180884D01*
X212970Y178747D01*
X211334Y177112D01*
X210954Y176955D01*
X210535Y176672D01*
X210259Y176249D01*
X210171Y175751D01*
X210215Y175543D01*
X210215Y173108D01*
X209330Y170972D01*
X207694Y169336D01*
X207135Y169104D01*
X206716Y168822D01*
X206440Y168398D01*
X206351Y167931D01*
X206351Y165556D01*
X205466Y163420D01*
X203830Y161784D01*
X201477Y160809D01*
X201423Y160798D01*
X201006Y160513D01*
X200734Y160087D01*
X200721Y160019D01*
X199763Y157707D01*
X198128Y156071D01*
X195991Y155186D01*
X193678Y155186D01*
X191330Y156159D01*
X191275Y156195D01*
X190778Y156288D01*
X190284Y156179D01*
X190236Y156146D01*
X187919Y155186D01*
X185606Y155186D01*
X183254Y156160D01*
X182758Y156257D01*
X182263Y156152D01*
X182121Y156056D01*
X179847Y155114D01*
X177534Y155114D01*
X175334Y156025D01*
X175022Y156232D01*
X174526Y156324D01*
X174060Y156228D01*
X171775Y155281D01*
X169462Y155281D01*
X167325Y156166D01*
X165689Y157802D01*
X164717Y160150D01*
X164704Y160214D01*
X164418Y160631D01*
X163992Y160904D01*
X163934Y160915D01*
X161617Y161874D01*
X159982Y163510D01*
X159042Y165777D01*
X158760Y166196D01*
X158336Y166472D01*
X157946Y166547D01*
X155774Y167446D01*
X154138Y169082D01*
X153253Y171219D01*
X153253Y173532D01*
X153655Y174501D01*
X153751Y174997D01*
X153647Y175492D01*
X153379Y175885D01*
X152110Y177154D01*
X151225Y179291D01*
X151225Y181542D01*
X151124Y182037D01*
X150839Y182454D01*
X150441Y182715D01*
X149795Y182983D01*
X148159Y184619D01*
X147274Y186755D01*
X147274Y189069D01*
X148159Y191205D01*
X149414Y192460D01*
X149693Y192882D01*
X149786Y193358D01*
X149786Y218018D01*
X149685Y218514D01*
X149414Y218916D01*
X127248Y241082D01*
X126827Y241361D01*
X126330Y241454D01*
X125836Y241346D01*
X125424Y241053D01*
X125158Y240623D01*
X125080Y240184D01*
X125080Y137350D01*
X125181Y136855D01*
X125466Y136438D01*
X125892Y136165D01*
X126350Y136080D01*
X153819Y136080D01*
X154305Y136177D01*
X155843Y136814D01*
X158157Y136814D01*
X159695Y136177D01*
X160181Y136080D01*
X161819Y136080D01*
X162305Y136177D01*
X163843Y136814D01*
X166157Y136814D01*
X168293Y135929D01*
X169929Y134293D01*
X170814Y132157D01*
X170814Y129843D01*
X169929Y127707D01*
X168293Y126071D01*
X166157Y125186D01*
X163843Y125186D01*
X162305Y125823D01*
X161819Y125920D01*
X160181Y125920D01*
X159695Y125823D01*
X158157Y125186D01*
X155843Y125186D01*
X154305Y125823D01*
X153819Y125920D01*
X126350Y125920D01*
X125855Y125819D01*
X125438Y125534D01*
X125165Y125108D01*
X125080Y124650D01*
X125080Y62942D01*
X125181Y62446D01*
X125466Y62029D01*
X125892Y61757D01*
X126390Y61672D01*
X126836Y61768D01*
X128699Y62540D01*
X131301Y62540D01*
X133705Y61544D01*
X135544Y59705D01*
X136540Y57301D01*
X136540Y54699D01*
X135768Y52836D01*
X135672Y52340D01*
X135776Y51845D01*
X136065Y51431D01*
X136493Y51162D01*
X136942Y51080D01*
X163332Y51080D01*
X163827Y51181D01*
G37*
%LPC*%
G36*
X178843Y71186D02*
X176707Y72071D01*
X175071Y73707D01*
X174186Y75843D01*
X174186Y78157D01*
X175071Y80293D01*
X176707Y81929D01*
X178843Y82814D01*
X181157Y82814D01*
X183293Y81929D01*
X184929Y80293D01*
X185814Y78157D01*
X185814Y75843D01*
X184929Y73707D01*
X183293Y72071D01*
X181157Y71186D01*
X178843Y71186D01*
G37*
%LPD*%
D10*
X98700Y27500D03*
X73300Y27500D03*
X98700Y52900D03*
X73300Y52900D03*
X98700Y78300D03*
X73300Y78300D03*
X98700Y103700D03*
X73300Y103700D03*
X98700Y129100D03*
X73300Y129100D03*
X98700Y154500D03*
X73300Y154500D03*
X98700Y179900D03*
X73300Y179900D03*
X98700Y205300D03*
X73300Y205300D03*
X98700Y230700D03*
X73300Y230700D03*
X98700Y256100D03*
X73300Y256100D03*
X98700Y281500D03*
X73300Y281500D03*
X98700Y306900D03*
X73300Y306900D03*
X98700Y332300D03*
X73300Y332300D03*
X98700Y357700D03*
X73300Y357700D03*
X98700Y383100D03*
X73300Y383100D03*
X98700Y408500D03*
X73300Y408500D03*
D11*
X366000Y208000D03*
X366000Y217000D03*
X366000Y316000D03*
X366000Y307000D03*
X360000Y100000D03*
X347000Y112000D03*
X356000Y426000D03*
X343000Y412000D03*
X367000Y8000D03*
X367000Y19000D03*
X356000Y8000D03*
X367000Y426000D03*
X367000Y415000D03*
X130000Y414932D03*
X158000Y414932D03*
X68000Y8000D03*
X79000Y8000D03*
X68000Y426000D03*
X79000Y426000D03*
X140000Y9000D03*
X148000Y9000D03*
X157000Y115000D03*
D12*
X153000Y301000D02*
X153000Y334000D01*
D11*
X342000Y334000D03*
X342000Y190000D03*
D12*
X342000Y301000D02*
X342000Y334000D01*
X342000Y301000D02*
X363000Y280000D01*
X363000Y241000D02*
X342000Y220000D01*
X363000Y241000D02*
X363000Y280000D01*
D11*
X153053Y334053D03*
D12*
X153000Y334000D01*
X153000Y301000D02*
X128014Y276014D01*
X128014Y244986D01*
X342000Y220000D02*
X342000Y190000D01*
D11*
X153088Y187912D03*
D12*
X153088Y219912D01*
X128014Y244986D01*
X159000Y339072D02*
X156000Y342072D01*
X159000Y339072D02*
X159000Y302000D01*
D11*
X339000Y342072D03*
X339000Y181928D03*
D12*
X336000Y302000D02*
X336000Y339072D01*
X336000Y302000D02*
X359952Y278048D01*
X359952Y242952D02*
X336000Y219000D01*
X359952Y242952D02*
X359952Y278048D01*
D11*
X156000Y342125D03*
D12*
X156000Y342072D01*
X159000Y302000D02*
X131062Y274062D01*
X131062Y246938D01*
X159000Y219000D01*
X336000Y219000D02*
X336000Y184928D01*
X339000Y181928D01*
X336000Y339072D02*
X339000Y342072D01*
X159000Y219000D02*
X159000Y182951D01*
D11*
X157039Y180447D03*
D12*
X157039Y180990D02*
X159000Y182951D01*
X157039Y180990D02*
X157039Y180447D01*
X163048Y346096D02*
X159000Y350144D01*
X163048Y346096D02*
X163048Y301048D01*
D11*
X336000Y350144D03*
X336000Y173856D03*
D12*
X331952Y301048D02*
X331952Y346096D01*
X331952Y301048D02*
X356904Y276096D01*
X356904Y244215D02*
X331952Y219263D01*
X356904Y244215D02*
X356904Y276096D01*
D11*
X159000Y350197D03*
D12*
X159000Y350144D01*
X163048Y301048D02*
X134110Y272110D01*
X134110Y248200D01*
X163048Y219263D01*
X163048Y176627D01*
X331952Y177904D02*
X331952Y219263D01*
X331952Y177904D02*
X336000Y173856D01*
X331952Y346096D02*
X336000Y350144D01*
X163048Y176627D02*
X159067Y172647D01*
D11*
X159067Y172375D03*
D12*
X159067Y172647D01*
X168096Y301096D02*
X168096Y352904D01*
X326904Y352904D02*
X326904Y301096D01*
X353856Y274144D01*
X353856Y246167D02*
X326904Y219215D01*
X353856Y246167D02*
X353856Y274144D01*
D11*
X163791Y357209D03*
D12*
X168096Y352904D01*
D11*
X331209Y357209D03*
X331209Y166791D03*
D12*
X168096Y219215D02*
X137158Y250152D01*
X137158Y270158D01*
X168096Y301096D01*
X168096Y219215D02*
X168096Y170260D01*
X326904Y171096D02*
X326904Y219215D01*
X326904Y171096D02*
X331209Y166791D01*
X326904Y352904D02*
X331209Y357209D01*
D11*
X164911Y166803D03*
D12*
X164911Y167074D02*
X168096Y170260D01*
X164911Y167074D02*
X164911Y166803D01*
D11*
X170000Y363000D03*
X325000Y363000D03*
X325000Y161000D03*
D12*
X350808Y272192D02*
X321856Y301144D01*
X350808Y248119D02*
X321856Y219167D01*
X350808Y248119D02*
X350808Y272192D01*
X173144Y301144D02*
X140206Y268206D01*
X140206Y252104D01*
X173144Y219167D01*
X173144Y163892D01*
X321856Y164144D02*
X321856Y219167D01*
X321856Y164144D02*
X325000Y161000D01*
X321856Y301144D02*
X321856Y359856D01*
X325000Y363000D01*
X173144Y359856D02*
X170000Y363000D01*
X173144Y359856D02*
X173144Y301144D01*
D11*
X170618Y161095D03*
D12*
X170618Y161367D02*
X173144Y163892D01*
X170618Y161367D02*
X170618Y161095D01*
D11*
X178072Y363000D03*
X316928Y363000D03*
X316928Y160928D03*
D12*
X347760Y270240D02*
X316808Y301192D01*
X347760Y249760D02*
X316928Y218928D01*
X347760Y249760D02*
X347760Y270240D01*
X178192Y301192D02*
X143254Y266254D01*
X143254Y253742D01*
X178366Y218630D01*
X316928Y218928D02*
X316928Y160928D01*
X316808Y301192D02*
X316808Y362880D01*
X316928Y363000D01*
X178072Y363000D02*
X178072Y301312D01*
X178192Y301192D01*
D11*
X178690Y160928D03*
D12*
X178366Y161253D02*
X178366Y218630D01*
X178366Y161253D02*
X178690Y160928D01*
X216760Y270240D02*
X185808Y301192D01*
X216760Y270240D02*
X216760Y249760D01*
D11*
X186144Y363072D03*
D12*
X185808Y362736D01*
X185808Y301192D01*
D11*
X308752Y161000D03*
X308856Y363072D03*
D12*
X309192Y301192D02*
X278288Y270288D01*
X278288Y249712D02*
X308752Y219248D01*
X278288Y249712D02*
X278288Y270288D01*
X308752Y219248D02*
X308752Y161000D01*
X309192Y301192D02*
X309192Y362736D01*
X308856Y363072D01*
D11*
X186762Y161000D03*
D12*
X186762Y219762D02*
X216760Y249760D01*
X186762Y219762D02*
X186762Y161000D01*
X219808Y272192D02*
X190856Y301144D01*
X219808Y248119D02*
X190856Y219167D01*
X219808Y248119D02*
X219808Y272192D01*
D11*
X194216Y363000D03*
D12*
X190856Y359640D01*
X190856Y301144D01*
D11*
X300680Y161000D03*
X300784Y363000D03*
D12*
X304144Y359640D02*
X304144Y301144D01*
X275240Y272240D01*
X275240Y248071D02*
X304144Y219167D01*
X275240Y248071D02*
X275240Y272240D01*
X304144Y219167D02*
X304144Y164464D01*
X300680Y161000D01*
X304144Y359640D02*
X300784Y363000D01*
D11*
X194834Y161000D03*
D12*
X190856Y164978D02*
X190856Y219167D01*
X190856Y164978D02*
X194834Y161000D01*
X195904Y301096D02*
X195904Y352904D01*
X195904Y301096D02*
X222856Y274144D01*
X222856Y246167D02*
X195904Y219215D01*
X222856Y246167D02*
X222856Y274144D01*
D11*
X294608Y166568D03*
D12*
X299096Y301096D02*
X299096Y353036D01*
X299096Y301096D02*
X272192Y274192D01*
X272192Y246119D02*
X299096Y219215D01*
X272192Y246119D02*
X272192Y274192D01*
D11*
X294132Y358000D03*
D12*
X299096Y219215D02*
X299096Y171056D01*
X294608Y166568D01*
X299096Y353036D02*
X294132Y358000D01*
D11*
X200537Y166713D03*
D12*
X195904Y171346D02*
X195904Y219215D01*
X195904Y171346D02*
X200537Y166713D01*
D11*
X200928Y357996D03*
D12*
X200928Y357928D01*
X195904Y352904D01*
D11*
X205000Y350144D03*
D12*
X200952Y346096D01*
X200952Y301048D01*
X225904Y276096D01*
X225904Y244215D02*
X200952Y219263D01*
X225904Y244215D02*
X225904Y276096D01*
D11*
X290744Y174120D03*
X290000Y350144D03*
D12*
X294048Y346096D02*
X294048Y301048D01*
X269144Y276144D01*
X269144Y244167D02*
X294048Y219263D01*
X269144Y244167D02*
X269144Y276144D01*
X294048Y219263D02*
X294048Y177424D01*
X290744Y174120D01*
X294048Y346096D02*
X290000Y350144D01*
D11*
X204401Y174265D03*
D12*
X200952Y177714D02*
X200952Y219263D01*
X200952Y177714D02*
X204401Y174265D01*
D11*
X208000Y342072D03*
D12*
X205000Y339072D01*
X205000Y302000D01*
X228952Y278048D01*
X228952Y242952D02*
X205000Y219000D01*
X228952Y242952D02*
X228952Y278048D01*
D11*
X287104Y181896D03*
X287000Y342072D03*
D12*
X290000Y339072D02*
X290000Y302000D01*
X266096Y278096D01*
X266096Y242904D02*
X290000Y219000D01*
X266096Y242904D02*
X266096Y278096D01*
X290000Y219000D02*
X290000Y184791D01*
X287104Y181896D01*
X290000Y339072D02*
X287000Y342072D01*
D11*
X208041Y182041D03*
D12*
X205000Y185081D02*
X205000Y219000D01*
X205000Y185081D02*
X208041Y182041D01*
X232000Y280000D02*
X211000Y301000D01*
X232000Y280000D02*
X232000Y241000D01*
D11*
X283798Y189968D03*
X284000Y334000D03*
D12*
X283798Y220202D02*
X283798Y189968D01*
X263048Y280048D02*
X284000Y301000D01*
X263048Y240952D02*
X283798Y220202D01*
X263048Y240952D02*
X263048Y280048D01*
D11*
X210868Y334000D03*
D12*
X211000Y333868D02*
X211000Y301000D01*
X211000Y333868D02*
X210868Y334000D01*
X284000Y334000D02*
X284000Y301000D01*
D11*
X211068Y190113D03*
D12*
X211068Y220068D02*
X232000Y241000D01*
X211068Y220068D02*
X211068Y190113D01*
D11*
X236000Y155000D03*
X236000Y369288D03*
D12*
X252000Y353288D02*
X252000Y333000D01*
X260000Y325000D01*
X260000Y196000D01*
X250000Y186000D01*
X250000Y169000D01*
X236000Y155000D01*
X252000Y353288D02*
X236000Y369288D01*
D11*
X236000Y163072D03*
X236000Y361216D03*
D12*
X248952Y348264D02*
X248952Y331048D01*
X256952Y323048D01*
X256952Y197952D01*
X246000Y187000D01*
X246000Y173072D01*
X236000Y163072D01*
X248952Y348264D02*
X236000Y361216D01*
D11*
X236000Y171144D03*
D12*
X245000Y330000D02*
X245000Y344212D01*
X242000Y188000D02*
X242000Y177144D01*
X236000Y171144D01*
X253904Y321096D02*
X245000Y330000D01*
X253904Y321096D02*
X253904Y199904D01*
X242000Y188000D01*
D11*
X236068Y353144D03*
D12*
X245000Y344212D01*
D11*
X236000Y179216D03*
D12*
X241952Y328048D02*
X241952Y339188D01*
X241952Y328048D02*
X250856Y319144D01*
D11*
X236068Y345072D03*
D12*
X241952Y339188D01*
X236000Y186893D02*
X236000Y179216D01*
X250856Y201749D02*
X250856Y319144D01*
X250856Y201749D02*
X236000Y186893D01*
D11*
X342186Y252049D03*
X148814Y258560D03*
X338896Y260121D03*
X156886Y260740D03*
X335248Y267888D03*
X160453Y268589D03*
X331384Y275440D03*
X164321Y276137D03*
X325320Y281000D03*
X170276Y281597D03*
X317248Y281000D03*
X178348Y281000D03*
X309072Y281072D03*
X186420Y281072D03*
X301000Y281000D03*
X194492Y281000D03*
X201000Y276000D03*
X294000Y276000D03*
X205000Y268144D03*
X290000Y268144D03*
X208000Y260072D03*
X287000Y260072D03*
X211000Y252000D03*
X284000Y252000D03*
X236000Y304712D03*
X236000Y219040D03*
D12*
X236000Y304712D01*
D11*
X236000Y312784D03*
X236000Y210968D03*
D12*
X241560Y216528D02*
X241560Y307224D01*
X241560Y216528D02*
X236000Y210968D01*
X241560Y307224D02*
X236000Y312784D01*
D11*
X236000Y320856D03*
D12*
X244608Y312248D02*
X244608Y211504D01*
X244608Y312248D02*
X236000Y320856D01*
D11*
X236068Y202896D03*
D12*
X236068Y202964D02*
X244608Y211504D01*
X236068Y202964D02*
X236068Y202896D01*
D11*
X236000Y328928D03*
D12*
X247808Y317120D02*
X247808Y206671D01*
X247808Y317120D02*
X236000Y328928D01*
D11*
X236068Y194824D03*
D12*
X236068Y194931D02*
X247808Y206671D01*
X236068Y194931D02*
X236068Y194824D01*
D11*
X366000Y331000D03*
X366000Y193000D03*
X129000Y331000D03*
D13*
X174000Y376000D01*
X321000Y376000D01*
X366000Y331000D01*
X366000Y193000D02*
X321000Y148000D01*
D11*
X158000Y89000D03*
D13*
X156000Y89000D02*
X151000Y94000D01*
X156000Y89000D02*
X158000Y89000D01*
D11*
X156000Y37000D03*
D13*
X151000Y94000D02*
X151000Y98586D01*
X200415Y148000D02*
X321000Y148000D01*
X200415Y148000D02*
X151000Y98586D01*
D11*
X227000Y301000D03*
X260000Y183000D03*
X259000Y339000D03*
X267000Y301000D03*
X129000Y358000D03*
X129000Y367000D03*
X366000Y166000D03*
X366000Y157000D03*
X366000Y359000D03*
X366000Y368000D03*
D14*
X129000Y367000D02*
X129000Y362000D01*
X129000Y358000D01*
X366000Y166000D02*
X366000Y157000D01*
X366000Y359000D02*
X366000Y368000D01*
D11*
X157000Y131000D03*
X165000Y131000D03*
X168000Y47000D03*
X168000Y39000D03*
D14*
X168000Y47000D01*
X255000Y46000D02*
X366000Y157000D01*
X255000Y46000D02*
X169000Y46000D01*
X168000Y47000D01*
X129000Y362000D02*
X124000Y362000D01*
X120000Y358000D01*
X120000Y130000D01*
X120000Y53000D01*
X127000Y46000D01*
X167000Y46000D01*
X168000Y47000D01*
X165000Y131000D02*
X157000Y131000D01*
X121000Y131000D01*
X120000Y130000D01*
D11*
X366000Y340000D03*
X366000Y184000D03*
X129000Y340000D03*
D13*
X170000Y381000D01*
X325000Y381000D01*
X366000Y340000D01*
X366000Y184000D02*
X325000Y143000D01*
X206000Y143000D01*
X160072Y97072D01*
D11*
X158068Y97072D03*
D13*
X160072Y97072D01*
D11*
X366000Y175000D03*
X188072Y37000D03*
X366000Y349000D03*
X180000Y37000D03*
X129000Y349000D03*
X180000Y77000D03*
M02*
