G04 EAGLE Gerber RS-274X export*
G75*
%MOMM*%
%FSLAX34Y34*%
%LPD*%
%INSilkscreen Top*%
%IPPOS*%
%AMOC8*
5,1,8,0,0,1.08239X$1,22.5*%
G01*
G04 Define Apertures*
%ADD10C,0.150000*%
%ADD11C,0.250000*%
%ADD12C,0.600000*%
%ADD13C,0.127000*%
%ADD14C,0.152400*%
G36*
X124277Y24072D02*
X121875Y24072D01*
X121875Y32868D01*
X120712Y32868D01*
X118380Y31264D01*
X118380Y30074D01*
X120607Y31664D01*
X120607Y24072D01*
X118093Y24072D01*
X118093Y23000D01*
X124277Y23000D01*
X124277Y24072D01*
G37*
G36*
X121390Y403872D02*
X121758Y403907D01*
X122103Y403965D01*
X122424Y404047D01*
X122723Y404153D01*
X122998Y404281D01*
X123250Y404434D01*
X123479Y404609D01*
X123682Y404806D01*
X123858Y405023D01*
X124008Y405258D01*
X124130Y405513D01*
X124225Y405787D01*
X124293Y406080D01*
X124333Y406393D01*
X124347Y406724D01*
X124337Y406956D01*
X124308Y407177D01*
X124260Y407388D01*
X124193Y407589D01*
X124106Y407781D01*
X124000Y407962D01*
X123875Y408132D01*
X123731Y408293D01*
X123569Y408441D01*
X123392Y408573D01*
X123199Y408690D01*
X122992Y408791D01*
X122769Y408876D01*
X122530Y408945D01*
X122277Y408998D01*
X122008Y409036D01*
X122008Y409064D01*
X122252Y409122D01*
X122482Y409193D01*
X122697Y409275D01*
X122896Y409369D01*
X123081Y409475D01*
X123251Y409594D01*
X123405Y409724D01*
X123545Y409866D01*
X123669Y410019D01*
X123776Y410184D01*
X123867Y410359D01*
X123942Y410546D01*
X123999Y410744D01*
X124041Y410952D01*
X124066Y411172D01*
X124074Y411403D01*
X124061Y411703D01*
X124022Y411985D01*
X123958Y412251D01*
X123868Y412500D01*
X123752Y412732D01*
X123611Y412947D01*
X123444Y413145D01*
X123251Y413326D01*
X123035Y413487D01*
X122798Y413627D01*
X122541Y413746D01*
X122262Y413843D01*
X121964Y413918D01*
X121644Y413972D01*
X121304Y414005D01*
X120943Y414015D01*
X120611Y414005D01*
X120295Y413973D01*
X119994Y413920D01*
X119708Y413846D01*
X119438Y413750D01*
X119183Y413633D01*
X118943Y413495D01*
X118719Y413336D01*
X118515Y413158D01*
X118332Y412963D01*
X118173Y412752D01*
X118036Y412524D01*
X117921Y412279D01*
X117830Y412018D01*
X117761Y411740D01*
X117714Y411445D01*
X118982Y411347D01*
X119010Y411536D01*
X119051Y411714D01*
X119106Y411881D01*
X119174Y412037D01*
X119255Y412182D01*
X119350Y412316D01*
X119459Y412439D01*
X119581Y412552D01*
X119715Y412652D01*
X119858Y412739D01*
X120012Y412812D01*
X120175Y412872D01*
X120349Y412919D01*
X120532Y412952D01*
X120726Y412972D01*
X120929Y412979D01*
X121151Y412972D01*
X121360Y412950D01*
X121554Y412914D01*
X121734Y412864D01*
X121900Y412800D01*
X122051Y412721D01*
X122189Y412628D01*
X122312Y412520D01*
X122422Y412400D01*
X122516Y412270D01*
X122596Y412129D01*
X122662Y411978D01*
X122713Y411817D01*
X122749Y411645D01*
X122771Y411463D01*
X122778Y411270D01*
X122769Y411076D01*
X122742Y410892D01*
X122698Y410720D01*
X122635Y410558D01*
X122555Y410407D01*
X122457Y410267D01*
X122341Y410138D01*
X122207Y410020D01*
X122057Y409914D01*
X121893Y409822D01*
X121714Y409744D01*
X121520Y409681D01*
X121312Y409632D01*
X121089Y409596D01*
X120852Y409575D01*
X120600Y409568D01*
X119914Y409568D01*
X119914Y408475D01*
X120628Y408475D01*
X120912Y408468D01*
X121178Y408447D01*
X121428Y408412D01*
X121660Y408362D01*
X121875Y408299D01*
X122073Y408221D01*
X122254Y408130D01*
X122417Y408024D01*
X122563Y407905D01*
X122689Y407776D01*
X122795Y407635D01*
X122882Y407484D01*
X122950Y407321D01*
X122999Y407147D01*
X123028Y406962D01*
X123037Y406766D01*
X123029Y406542D01*
X123003Y406333D01*
X122961Y406137D01*
X122902Y405956D01*
X122825Y405789D01*
X122732Y405636D01*
X122622Y405497D01*
X122494Y405373D01*
X122352Y405263D01*
X122197Y405167D01*
X122030Y405087D01*
X121849Y405021D01*
X121656Y404969D01*
X121450Y404933D01*
X121231Y404911D01*
X120999Y404903D01*
X120768Y404910D01*
X120550Y404931D01*
X120345Y404965D01*
X120153Y405013D01*
X119974Y405074D01*
X119807Y405150D01*
X119653Y405239D01*
X119513Y405341D01*
X119385Y405457D01*
X119270Y405587D01*
X119167Y405731D01*
X119078Y405888D01*
X119001Y406059D01*
X118938Y406244D01*
X118887Y406442D01*
X118849Y406654D01*
X117546Y406535D01*
X117600Y406215D01*
X117676Y405914D01*
X117774Y405634D01*
X117896Y405374D01*
X118040Y405134D01*
X118206Y404914D01*
X118395Y404715D01*
X118607Y404536D01*
X118840Y404377D01*
X119092Y404240D01*
X119362Y404124D01*
X119652Y404029D01*
X119960Y403955D01*
X120288Y403902D01*
X120634Y403871D01*
X120999Y403860D01*
X121390Y403872D01*
G37*
G36*
X132246Y405072D02*
X129843Y405072D01*
X129843Y413868D01*
X128681Y413868D01*
X126348Y412264D01*
X126348Y411074D01*
X128576Y412664D01*
X128576Y405072D01*
X126061Y405072D01*
X126061Y404000D01*
X132246Y404000D01*
X132246Y405072D01*
G37*
G36*
X226750Y389042D02*
X227021Y389065D01*
X227283Y389103D01*
X227534Y389156D01*
X227776Y389225D01*
X228008Y389310D01*
X228229Y389409D01*
X228441Y389524D01*
X228642Y389652D01*
X228831Y389794D01*
X229007Y389947D01*
X229171Y390113D01*
X229322Y390292D01*
X229462Y390483D01*
X229589Y390687D01*
X229703Y390903D01*
X229805Y391130D01*
X229894Y391367D01*
X229968Y391613D01*
X230029Y391869D01*
X230077Y392134D01*
X230111Y392408D01*
X230131Y392692D01*
X230138Y392986D01*
X230131Y393291D01*
X230110Y393586D01*
X230074Y393871D01*
X230025Y394146D01*
X229962Y394410D01*
X229884Y394664D01*
X229792Y394908D01*
X229686Y395141D01*
X229567Y395363D01*
X229435Y395572D01*
X229291Y395769D01*
X229134Y395952D01*
X228964Y396122D01*
X228782Y396279D01*
X228587Y396424D01*
X228379Y396555D01*
X228160Y396672D01*
X227931Y396774D01*
X227692Y396860D01*
X227443Y396930D01*
X227184Y396985D01*
X226914Y397024D01*
X226634Y397047D01*
X226345Y397055D01*
X220282Y397055D01*
X220282Y395745D01*
X226269Y395745D01*
X226602Y395733D01*
X226914Y395699D01*
X227206Y395642D01*
X227477Y395563D01*
X227727Y395461D01*
X227957Y395336D01*
X228166Y395188D01*
X228355Y395017D01*
X228522Y394826D01*
X228667Y394617D01*
X228790Y394390D01*
X228890Y394144D01*
X228969Y393880D01*
X229024Y393598D01*
X229058Y393298D01*
X229069Y392979D01*
X229058Y392670D01*
X229026Y392379D01*
X228972Y392107D01*
X228897Y391853D01*
X228800Y391619D01*
X228681Y391403D01*
X228541Y391206D01*
X228379Y391027D01*
X228197Y390869D01*
X227994Y390732D01*
X227772Y390615D01*
X227529Y390520D01*
X227267Y390446D01*
X226984Y390394D01*
X226681Y390362D01*
X226358Y390351D01*
X220282Y390351D01*
X220282Y389034D01*
X226469Y389034D01*
X226750Y389042D01*
G37*
G36*
X230000Y405298D02*
X228945Y405298D01*
X228945Y402932D01*
X220282Y402932D01*
X220282Y401787D01*
X221862Y399491D01*
X223034Y399491D01*
X221468Y401684D01*
X228945Y401684D01*
X228945Y399208D01*
X230000Y399208D01*
X230000Y405298D01*
G37*
G36*
X167957Y398457D02*
X168425Y398491D01*
X168876Y398547D01*
X169311Y398625D01*
X169729Y398725D01*
X170131Y398848D01*
X170516Y398993D01*
X170884Y399160D01*
X171234Y399349D01*
X171563Y399558D01*
X171871Y399787D01*
X172159Y400036D01*
X172425Y400306D01*
X172671Y400595D01*
X172896Y400906D01*
X173100Y401236D01*
X173282Y401584D01*
X173439Y401948D01*
X173572Y402328D01*
X173681Y402724D01*
X173766Y403135D01*
X173827Y403562D01*
X173863Y404005D01*
X173875Y404463D01*
X173862Y404912D01*
X173823Y405347D01*
X173758Y405768D01*
X173667Y406175D01*
X173550Y406568D01*
X173407Y406947D01*
X173238Y407313D01*
X173043Y407665D01*
X172823Y408000D01*
X172579Y408316D01*
X172312Y408612D01*
X172021Y408890D01*
X171705Y409148D01*
X171366Y409387D01*
X171004Y409606D01*
X170617Y409806D01*
X169934Y408440D01*
X170245Y408272D01*
X170535Y408093D01*
X170806Y407905D01*
X171057Y407707D01*
X171287Y407498D01*
X171498Y407280D01*
X171688Y407051D01*
X171859Y406813D01*
X172009Y406564D01*
X172139Y406306D01*
X172249Y406037D01*
X172340Y405758D01*
X172410Y405469D01*
X172460Y405170D01*
X172490Y404861D01*
X172500Y404542D01*
X172479Y404050D01*
X172414Y403583D01*
X172306Y403142D01*
X172155Y402728D01*
X171961Y402340D01*
X171724Y401978D01*
X171444Y401642D01*
X171121Y401332D01*
X170762Y401054D01*
X170375Y400813D01*
X169961Y400609D01*
X169519Y400442D01*
X169049Y400312D01*
X168551Y400220D01*
X168026Y400164D01*
X167473Y400145D01*
X166914Y400163D01*
X166386Y400217D01*
X165889Y400306D01*
X165422Y400430D01*
X164986Y400590D01*
X164580Y400786D01*
X164205Y401017D01*
X163860Y401284D01*
X163551Y401583D01*
X163283Y401910D01*
X163057Y402266D01*
X162871Y402650D01*
X162727Y403063D01*
X162624Y403504D01*
X162562Y403974D01*
X162542Y404472D01*
X162551Y404793D01*
X162577Y405103D01*
X162622Y405401D01*
X162684Y405689D01*
X162764Y405965D01*
X162862Y406230D01*
X162978Y406484D01*
X163111Y406727D01*
X163261Y406957D01*
X163427Y407170D01*
X163609Y407367D01*
X163807Y407548D01*
X164021Y407712D01*
X164251Y407860D01*
X164496Y407992D01*
X164758Y408107D01*
X164232Y409692D01*
X163865Y409526D01*
X163521Y409338D01*
X163200Y409127D01*
X162903Y408895D01*
X162629Y408641D01*
X162378Y408365D01*
X162150Y408068D01*
X161946Y407748D01*
X161765Y407407D01*
X161609Y407046D01*
X161476Y406665D01*
X161368Y406263D01*
X161284Y405842D01*
X161223Y405399D01*
X161187Y404937D01*
X161175Y404455D01*
X161182Y404107D01*
X161201Y403769D01*
X161234Y403440D01*
X161280Y403121D01*
X161339Y402812D01*
X161411Y402512D01*
X161496Y402222D01*
X161594Y401941D01*
X161705Y401670D01*
X161829Y401408D01*
X161966Y401156D01*
X162116Y400914D01*
X162456Y400458D01*
X162848Y400040D01*
X163286Y399667D01*
X163765Y399343D01*
X164283Y399069D01*
X164557Y398951D01*
X164841Y398845D01*
X165135Y398751D01*
X165439Y398670D01*
X165753Y398602D01*
X166077Y398546D01*
X166411Y398502D01*
X166755Y398471D01*
X167109Y398453D01*
X167473Y398446D01*
X167957Y398457D01*
G37*
G36*
X173700Y419573D02*
X172360Y419573D01*
X172360Y416569D01*
X161359Y416569D01*
X161359Y415115D01*
X163365Y412198D01*
X164854Y412198D01*
X162866Y414984D01*
X172360Y414984D01*
X172360Y411839D01*
X173700Y411839D01*
X173700Y419573D01*
G37*
G36*
X271800Y133091D02*
X274000Y133091D01*
X274000Y134264D01*
X271800Y134264D01*
X271800Y135629D01*
X270821Y135629D01*
X270821Y134264D01*
X264282Y134264D01*
X264282Y132960D01*
X270834Y128512D01*
X271800Y128512D01*
X271800Y133091D01*
G37*
%LPC*%
G36*
X270683Y129767D02*
X270172Y130139D01*
X266503Y132629D01*
X266048Y132898D01*
X265682Y133091D01*
X270821Y133091D01*
X270821Y129657D01*
X270683Y129767D01*
G37*
%LPD*%
G36*
X270750Y119097D02*
X271021Y119120D01*
X271283Y119159D01*
X271534Y119212D01*
X271776Y119281D01*
X272008Y119365D01*
X272229Y119465D01*
X272441Y119579D01*
X272642Y119708D01*
X272831Y119849D01*
X273007Y120003D01*
X273171Y120169D01*
X273322Y120348D01*
X273462Y120539D01*
X273589Y120743D01*
X273703Y120959D01*
X273805Y121186D01*
X273894Y121423D01*
X273968Y121669D01*
X274029Y121924D01*
X274077Y122189D01*
X274111Y122464D01*
X274131Y122748D01*
X274138Y123042D01*
X274131Y123347D01*
X274110Y123642D01*
X274074Y123927D01*
X274025Y124201D01*
X273962Y124466D01*
X273884Y124720D01*
X273792Y124963D01*
X273686Y125197D01*
X273567Y125419D01*
X273435Y125628D01*
X273291Y125824D01*
X273134Y126007D01*
X272964Y126178D01*
X272782Y126335D01*
X272587Y126479D01*
X272379Y126611D01*
X272160Y126728D01*
X271931Y126830D01*
X271692Y126916D01*
X271443Y126986D01*
X271184Y127041D01*
X270914Y127080D01*
X270634Y127103D01*
X270345Y127111D01*
X264282Y127111D01*
X264282Y125800D01*
X270269Y125800D01*
X270602Y125789D01*
X270914Y125755D01*
X271206Y125698D01*
X271477Y125619D01*
X271727Y125516D01*
X271957Y125391D01*
X272166Y125243D01*
X272355Y125073D01*
X272522Y124882D01*
X272667Y124673D01*
X272790Y124445D01*
X272890Y124200D01*
X272969Y123936D01*
X273024Y123654D01*
X273058Y123353D01*
X273069Y123035D01*
X273058Y122725D01*
X273026Y122434D01*
X272972Y122162D01*
X272897Y121909D01*
X272800Y121674D01*
X272681Y121458D01*
X272541Y121261D01*
X272379Y121083D01*
X272197Y120925D01*
X271994Y120787D01*
X271772Y120671D01*
X271529Y120576D01*
X271267Y120502D01*
X270984Y120449D01*
X270681Y120418D01*
X270358Y120407D01*
X264282Y120407D01*
X264282Y119090D01*
X270469Y119090D01*
X270750Y119097D01*
G37*
G36*
X343206Y127700D02*
X346000Y127700D01*
X346000Y129189D01*
X343206Y129189D01*
X343206Y130923D01*
X341962Y130923D01*
X341962Y129189D01*
X333659Y129189D01*
X333659Y127534D01*
X341980Y121885D01*
X343206Y121885D01*
X343206Y127700D01*
G37*
%LPC*%
G36*
X341787Y123479D02*
X341139Y123952D01*
X336479Y127113D01*
X335901Y127455D01*
X335437Y127700D01*
X341962Y127700D01*
X341962Y123338D01*
X341787Y123479D01*
G37*
%LPD*%
G36*
X340257Y109457D02*
X340725Y109491D01*
X341176Y109547D01*
X341611Y109625D01*
X342029Y109725D01*
X342431Y109848D01*
X342816Y109993D01*
X343184Y110160D01*
X343534Y110349D01*
X343863Y110558D01*
X344171Y110787D01*
X344459Y111036D01*
X344725Y111306D01*
X344971Y111595D01*
X345196Y111906D01*
X345400Y112236D01*
X345582Y112584D01*
X345739Y112948D01*
X345872Y113328D01*
X345981Y113724D01*
X346066Y114135D01*
X346127Y114562D01*
X346163Y115005D01*
X346175Y115463D01*
X346162Y115912D01*
X346123Y116347D01*
X346058Y116768D01*
X345967Y117175D01*
X345850Y117568D01*
X345707Y117947D01*
X345538Y118313D01*
X345343Y118665D01*
X345123Y119000D01*
X344879Y119316D01*
X344612Y119612D01*
X344321Y119890D01*
X344005Y120148D01*
X343666Y120387D01*
X343304Y120606D01*
X342917Y120806D01*
X342234Y119440D01*
X342545Y119272D01*
X342835Y119093D01*
X343106Y118905D01*
X343357Y118707D01*
X343587Y118498D01*
X343798Y118280D01*
X343988Y118051D01*
X344159Y117813D01*
X344309Y117564D01*
X344439Y117306D01*
X344549Y117037D01*
X344640Y116758D01*
X344710Y116469D01*
X344760Y116170D01*
X344790Y115861D01*
X344800Y115542D01*
X344779Y115050D01*
X344714Y114583D01*
X344606Y114142D01*
X344455Y113728D01*
X344261Y113340D01*
X344024Y112978D01*
X343744Y112642D01*
X343421Y112332D01*
X343062Y112054D01*
X342675Y111813D01*
X342261Y111609D01*
X341819Y111442D01*
X341349Y111312D01*
X340851Y111220D01*
X340326Y111164D01*
X339773Y111145D01*
X339214Y111163D01*
X338686Y111217D01*
X338189Y111306D01*
X337722Y111430D01*
X337286Y111590D01*
X336880Y111786D01*
X336505Y112017D01*
X336160Y112284D01*
X335851Y112583D01*
X335583Y112910D01*
X335357Y113266D01*
X335171Y113650D01*
X335027Y114063D01*
X334924Y114504D01*
X334862Y114974D01*
X334842Y115472D01*
X334851Y115793D01*
X334877Y116103D01*
X334922Y116401D01*
X334984Y116689D01*
X335064Y116965D01*
X335162Y117230D01*
X335278Y117484D01*
X335411Y117727D01*
X335561Y117957D01*
X335727Y118170D01*
X335909Y118367D01*
X336107Y118548D01*
X336321Y118712D01*
X336551Y118860D01*
X336796Y118992D01*
X337058Y119107D01*
X336532Y120692D01*
X336165Y120526D01*
X335821Y120338D01*
X335500Y120127D01*
X335203Y119895D01*
X334929Y119641D01*
X334678Y119365D01*
X334450Y119068D01*
X334246Y118748D01*
X334065Y118407D01*
X333909Y118046D01*
X333776Y117665D01*
X333668Y117263D01*
X333584Y116842D01*
X333523Y116399D01*
X333487Y115937D01*
X333475Y115455D01*
X333482Y115107D01*
X333501Y114769D01*
X333534Y114440D01*
X333580Y114121D01*
X333639Y113812D01*
X333711Y113512D01*
X333796Y113222D01*
X333894Y112941D01*
X334005Y112670D01*
X334129Y112408D01*
X334266Y112156D01*
X334416Y111914D01*
X334756Y111458D01*
X335148Y111040D01*
X335586Y110667D01*
X336065Y110343D01*
X336583Y110069D01*
X336857Y109951D01*
X337141Y109845D01*
X337435Y109751D01*
X337739Y109670D01*
X338053Y109602D01*
X338377Y109546D01*
X338711Y109502D01*
X339055Y109471D01*
X339409Y109453D01*
X339773Y109446D01*
X340257Y109457D01*
G37*
G36*
X193912Y69138D02*
X194347Y69177D01*
X194768Y69242D01*
X195175Y69333D01*
X195568Y69450D01*
X195947Y69593D01*
X196313Y69762D01*
X196665Y69957D01*
X197000Y70177D01*
X197316Y70421D01*
X197612Y70688D01*
X197890Y70979D01*
X198148Y71295D01*
X198387Y71634D01*
X198606Y71996D01*
X198806Y72383D01*
X197440Y73066D01*
X197272Y72755D01*
X197093Y72465D01*
X196905Y72194D01*
X196707Y71943D01*
X196498Y71713D01*
X196280Y71502D01*
X196051Y71312D01*
X195813Y71141D01*
X195564Y70991D01*
X195306Y70861D01*
X195037Y70751D01*
X194758Y70660D01*
X194469Y70590D01*
X194170Y70540D01*
X193861Y70510D01*
X193542Y70500D01*
X193050Y70521D01*
X192583Y70586D01*
X192142Y70694D01*
X191728Y70845D01*
X191340Y71039D01*
X190978Y71276D01*
X190642Y71556D01*
X190332Y71879D01*
X190054Y72238D01*
X189813Y72625D01*
X189609Y73039D01*
X189442Y73481D01*
X189312Y73951D01*
X189220Y74449D01*
X189164Y74974D01*
X189145Y75527D01*
X189163Y76086D01*
X189217Y76614D01*
X189306Y77111D01*
X189430Y77578D01*
X189590Y78014D01*
X189786Y78420D01*
X190017Y78795D01*
X190284Y79140D01*
X190583Y79449D01*
X190910Y79717D01*
X191266Y79943D01*
X191650Y80129D01*
X192063Y80273D01*
X192504Y80376D01*
X192974Y80438D01*
X193472Y80458D01*
X193793Y80449D01*
X194103Y80423D01*
X194401Y80378D01*
X194689Y80316D01*
X194965Y80236D01*
X195230Y80138D01*
X195484Y80023D01*
X195727Y79889D01*
X195957Y79739D01*
X196170Y79573D01*
X196367Y79391D01*
X196548Y79193D01*
X196712Y78979D01*
X196860Y78749D01*
X196992Y78504D01*
X197107Y78242D01*
X198692Y78768D01*
X198526Y79135D01*
X198338Y79479D01*
X198127Y79800D01*
X197895Y80097D01*
X197641Y80371D01*
X197365Y80622D01*
X197068Y80850D01*
X196748Y81054D01*
X196407Y81235D01*
X196046Y81391D01*
X195665Y81524D01*
X195263Y81632D01*
X194842Y81716D01*
X194399Y81777D01*
X193937Y81813D01*
X193455Y81825D01*
X193107Y81818D01*
X192769Y81799D01*
X192440Y81766D01*
X192121Y81720D01*
X191812Y81661D01*
X191512Y81589D01*
X191222Y81505D01*
X190941Y81406D01*
X190670Y81295D01*
X190408Y81171D01*
X190156Y81034D01*
X189914Y80884D01*
X189458Y80544D01*
X189040Y80152D01*
X188667Y79714D01*
X188343Y79235D01*
X188069Y78717D01*
X187951Y78443D01*
X187845Y78159D01*
X187751Y77865D01*
X187670Y77561D01*
X187602Y77247D01*
X187546Y76923D01*
X187502Y76589D01*
X187471Y76245D01*
X187453Y75891D01*
X187446Y75527D01*
X187457Y75043D01*
X187491Y74575D01*
X187547Y74124D01*
X187625Y73689D01*
X187725Y73271D01*
X187848Y72869D01*
X187993Y72484D01*
X188160Y72116D01*
X188349Y71766D01*
X188558Y71437D01*
X188787Y71129D01*
X189036Y70842D01*
X189306Y70575D01*
X189595Y70329D01*
X189906Y70104D01*
X190236Y69900D01*
X190584Y69718D01*
X190948Y69561D01*
X191328Y69428D01*
X191724Y69319D01*
X192135Y69234D01*
X192562Y69173D01*
X193005Y69137D01*
X193463Y69125D01*
X193912Y69138D01*
G37*
G36*
X204817Y69142D02*
X205289Y69195D01*
X205734Y69283D01*
X206150Y69405D01*
X206539Y69563D01*
X206899Y69755D01*
X207231Y69983D01*
X207535Y70246D01*
X207807Y70539D01*
X208043Y70858D01*
X208242Y71204D01*
X208406Y71575D01*
X208532Y71972D01*
X208623Y72396D01*
X208678Y72845D01*
X208696Y73320D01*
X208679Y73739D01*
X208628Y74138D01*
X208544Y74517D01*
X208425Y74875D01*
X208273Y75213D01*
X208087Y75531D01*
X207867Y75828D01*
X207614Y76105D01*
X207332Y76356D01*
X207027Y76573D01*
X206699Y76757D01*
X206347Y76907D01*
X205973Y77024D01*
X205575Y77107D01*
X205154Y77157D01*
X204711Y77174D01*
X204337Y77162D01*
X203980Y77125D01*
X203638Y77063D01*
X203311Y76977D01*
X203001Y76866D01*
X202705Y76731D01*
X202426Y76570D01*
X202162Y76386D01*
X202398Y80301D01*
X207977Y80301D01*
X207977Y81641D01*
X200962Y81641D01*
X200550Y75002D01*
X202092Y75002D01*
X202368Y75225D01*
X202643Y75413D01*
X202919Y75567D01*
X203195Y75685D01*
X203477Y75773D01*
X203769Y75836D01*
X204072Y75874D01*
X204386Y75886D01*
X204685Y75875D01*
X204968Y75842D01*
X205235Y75785D01*
X205487Y75707D01*
X205722Y75606D01*
X205942Y75482D01*
X206147Y75337D01*
X206335Y75168D01*
X206505Y74982D01*
X206651Y74781D01*
X206776Y74567D01*
X206877Y74338D01*
X206956Y74096D01*
X207013Y73840D01*
X207047Y73569D01*
X207058Y73285D01*
X207047Y72959D01*
X207013Y72651D01*
X206957Y72361D01*
X206878Y72089D01*
X206777Y71834D01*
X206654Y71598D01*
X206508Y71379D01*
X206340Y71179D01*
X206151Y70999D01*
X205946Y70843D01*
X205723Y70712D01*
X205483Y70604D01*
X205226Y70520D01*
X204952Y70460D01*
X204660Y70424D01*
X204351Y70412D01*
X204099Y70419D01*
X203859Y70441D01*
X203631Y70477D01*
X203416Y70527D01*
X203213Y70591D01*
X203022Y70670D01*
X202843Y70763D01*
X202676Y70870D01*
X202522Y70992D01*
X202380Y71127D01*
X202250Y71278D01*
X202133Y71442D01*
X202027Y71621D01*
X201934Y71814D01*
X201854Y72021D01*
X201785Y72243D01*
X200191Y72059D01*
X200273Y71713D01*
X200380Y71387D01*
X200511Y71083D01*
X200666Y70800D01*
X200846Y70538D01*
X201050Y70297D01*
X201278Y70077D01*
X201531Y69878D01*
X201807Y69702D01*
X202103Y69549D01*
X202420Y69419D01*
X202757Y69313D01*
X203116Y69231D01*
X203495Y69172D01*
X203895Y69137D01*
X204316Y69125D01*
X204817Y69142D01*
G37*
G36*
X62405Y-14642D02*
X66031Y-14642D01*
X66509Y-14625D01*
X66961Y-14577D01*
X67387Y-14496D01*
X67788Y-14383D01*
X68163Y-14238D01*
X68513Y-14060D01*
X68837Y-13850D01*
X69136Y-13608D01*
X69404Y-13338D01*
X69636Y-13046D01*
X69832Y-12732D01*
X69993Y-12395D01*
X70118Y-12036D01*
X70207Y-11654D01*
X70261Y-11250D01*
X70279Y-10823D01*
X70261Y-10393D01*
X70208Y-9988D01*
X70119Y-9608D01*
X69994Y-9253D01*
X69834Y-8923D01*
X69638Y-8617D01*
X69407Y-8337D01*
X69140Y-8081D01*
X68841Y-7854D01*
X68512Y-7656D01*
X68154Y-7489D01*
X67767Y-7352D01*
X67351Y-7246D01*
X66905Y-7170D01*
X66430Y-7124D01*
X65926Y-7109D01*
X60732Y-7109D01*
X60732Y-19450D01*
X62405Y-19450D01*
X62405Y-14642D01*
G37*
%LPC*%
G36*
X62405Y-13319D02*
X62405Y-8449D01*
X65724Y-8449D01*
X66072Y-8459D01*
X66398Y-8487D01*
X66701Y-8533D01*
X66981Y-8599D01*
X67239Y-8683D01*
X67475Y-8786D01*
X67688Y-8907D01*
X67879Y-9047D01*
X68047Y-9206D01*
X68193Y-9383D01*
X68317Y-9579D01*
X68418Y-9794D01*
X68496Y-10028D01*
X68552Y-10280D01*
X68586Y-10551D01*
X68597Y-10840D01*
X68586Y-11141D01*
X68553Y-11421D01*
X68499Y-11683D01*
X68422Y-11925D01*
X68323Y-12147D01*
X68203Y-12351D01*
X68061Y-12535D01*
X67896Y-12699D01*
X67710Y-12845D01*
X67502Y-12970D01*
X67272Y-13077D01*
X67021Y-13164D01*
X66747Y-13232D01*
X66451Y-13280D01*
X66134Y-13309D01*
X65794Y-13319D01*
X62405Y-13319D01*
G37*
%LPD*%
G36*
X76688Y-19611D02*
X77148Y-19567D01*
X77579Y-19493D01*
X77982Y-19391D01*
X78355Y-19259D01*
X78699Y-19098D01*
X79014Y-18908D01*
X79300Y-18688D01*
X79554Y-18442D01*
X79775Y-18171D01*
X79962Y-17877D01*
X80114Y-17558D01*
X80233Y-17216D01*
X80318Y-16849D01*
X80369Y-16458D01*
X80386Y-16043D01*
X80374Y-15754D01*
X80338Y-15477D01*
X80277Y-15213D01*
X80193Y-14961D01*
X80085Y-14722D01*
X79952Y-14496D01*
X79796Y-14282D01*
X79615Y-14081D01*
X79413Y-13896D01*
X79191Y-13731D01*
X78951Y-13585D01*
X78691Y-13459D01*
X78412Y-13353D01*
X78114Y-13266D01*
X77797Y-13200D01*
X77460Y-13153D01*
X77460Y-13118D01*
X77766Y-13044D01*
X78054Y-12956D01*
X78322Y-12853D01*
X78572Y-12736D01*
X78803Y-12603D01*
X79015Y-12455D01*
X79208Y-12292D01*
X79383Y-12115D01*
X79538Y-11923D01*
X79672Y-11717D01*
X79786Y-11497D01*
X79879Y-11264D01*
X79951Y-11017D01*
X80003Y-10756D01*
X80034Y-10481D01*
X80044Y-10192D01*
X80028Y-9817D01*
X79980Y-9464D01*
X79899Y-9132D01*
X79787Y-8820D01*
X79642Y-8531D01*
X79465Y-8262D01*
X79256Y-8014D01*
X79015Y-7788D01*
X78745Y-7586D01*
X78449Y-7411D01*
X78127Y-7262D01*
X77779Y-7141D01*
X77405Y-7047D01*
X77006Y-6979D01*
X76580Y-6939D01*
X76129Y-6925D01*
X75714Y-6939D01*
X75318Y-6978D01*
X74942Y-7045D01*
X74584Y-7138D01*
X74246Y-7257D01*
X73928Y-7403D01*
X73628Y-7576D01*
X73348Y-7775D01*
X73092Y-7998D01*
X72864Y-8241D01*
X72665Y-8506D01*
X72493Y-8791D01*
X72350Y-9097D01*
X72236Y-9424D01*
X72149Y-9771D01*
X72091Y-10140D01*
X73677Y-10262D01*
X73711Y-10026D01*
X73763Y-9804D01*
X73831Y-9595D01*
X73916Y-9400D01*
X74019Y-9218D01*
X74137Y-9050D01*
X74273Y-8896D01*
X74426Y-8756D01*
X74593Y-8631D01*
X74772Y-8522D01*
X74964Y-8430D01*
X75169Y-8355D01*
X75386Y-8297D01*
X75615Y-8255D01*
X75857Y-8230D01*
X76112Y-8222D01*
X76390Y-8231D01*
X76650Y-8257D01*
X76893Y-8302D01*
X77118Y-8365D01*
X77325Y-8446D01*
X77515Y-8544D01*
X77687Y-8661D01*
X77841Y-8795D01*
X77978Y-8945D01*
X78096Y-9108D01*
X78196Y-9284D01*
X78278Y-9473D01*
X78342Y-9675D01*
X78387Y-9890D01*
X78415Y-10118D01*
X78424Y-10359D01*
X78413Y-10602D01*
X78379Y-10831D01*
X78323Y-11047D01*
X78245Y-11249D01*
X78145Y-11437D01*
X78022Y-11613D01*
X77877Y-11774D01*
X77710Y-11922D01*
X77522Y-12054D01*
X77317Y-12169D01*
X77093Y-12266D01*
X76851Y-12346D01*
X76590Y-12408D01*
X76312Y-12452D01*
X76015Y-12478D01*
X75700Y-12487D01*
X74842Y-12487D01*
X74842Y-13853D01*
X75735Y-13853D01*
X76090Y-13862D01*
X76423Y-13889D01*
X76735Y-13933D01*
X77026Y-13995D01*
X77295Y-14074D01*
X77542Y-14171D01*
X77768Y-14286D01*
X77973Y-14418D01*
X78154Y-14566D01*
X78312Y-14728D01*
X78445Y-14904D01*
X78554Y-15094D01*
X78639Y-15297D01*
X78699Y-15514D01*
X78736Y-15746D01*
X78748Y-15990D01*
X78737Y-16271D01*
X78706Y-16533D01*
X78652Y-16777D01*
X78578Y-17004D01*
X78483Y-17213D01*
X78366Y-17404D01*
X78228Y-17578D01*
X78069Y-17733D01*
X77891Y-17871D01*
X77698Y-17990D01*
X77488Y-18091D01*
X77262Y-18173D01*
X77021Y-18238D01*
X76763Y-18284D01*
X76489Y-18311D01*
X76199Y-18320D01*
X75911Y-18312D01*
X75638Y-18286D01*
X75381Y-18243D01*
X75141Y-18183D01*
X74917Y-18106D01*
X74708Y-18012D01*
X74516Y-17901D01*
X74340Y-17773D01*
X74180Y-17627D01*
X74036Y-17465D01*
X73908Y-17285D01*
X73797Y-17089D01*
X73701Y-16875D01*
X73621Y-16644D01*
X73558Y-16396D01*
X73510Y-16131D01*
X71881Y-16279D01*
X71948Y-16681D01*
X72043Y-17056D01*
X72166Y-17407D01*
X72318Y-17732D01*
X72498Y-18032D01*
X72706Y-18307D01*
X72943Y-18556D01*
X73208Y-18780D01*
X73499Y-18978D01*
X73814Y-19150D01*
X74152Y-19295D01*
X74514Y-19414D01*
X74900Y-19506D01*
X75309Y-19572D01*
X75742Y-19612D01*
X76199Y-19625D01*
X76688Y-19611D01*
G37*
G36*
X54706Y-19609D02*
X55095Y-19561D01*
X55461Y-19480D01*
X55805Y-19368D01*
X56127Y-19223D01*
X56426Y-19046D01*
X56703Y-18837D01*
X56957Y-18596D01*
X57185Y-18327D01*
X57382Y-18034D01*
X57549Y-17716D01*
X57686Y-17375D01*
X57793Y-17010D01*
X57869Y-16621D01*
X57914Y-16208D01*
X57929Y-15771D01*
X57929Y-7109D01*
X53892Y-7109D01*
X53892Y-8476D01*
X56265Y-8476D01*
X56265Y-15806D01*
X56257Y-16100D01*
X56232Y-16374D01*
X56191Y-16631D01*
X56134Y-16870D01*
X56060Y-17090D01*
X55970Y-17292D01*
X55863Y-17476D01*
X55740Y-17641D01*
X55602Y-17788D01*
X55453Y-17915D01*
X55291Y-18023D01*
X55118Y-18111D01*
X54932Y-18180D01*
X54735Y-18228D01*
X54525Y-18258D01*
X54303Y-18268D01*
X54100Y-18259D01*
X53905Y-18232D01*
X53719Y-18188D01*
X53541Y-18125D01*
X53373Y-18045D01*
X53213Y-17947D01*
X53062Y-17832D01*
X52919Y-17698D01*
X52788Y-17549D01*
X52668Y-17386D01*
X52561Y-17209D01*
X52466Y-17017D01*
X52384Y-16812D01*
X52313Y-16593D01*
X52256Y-16360D01*
X52210Y-16113D01*
X50572Y-16385D01*
X50655Y-16777D01*
X50759Y-17144D01*
X50882Y-17486D01*
X51025Y-17802D01*
X51188Y-18093D01*
X51371Y-18359D01*
X51573Y-18600D01*
X51796Y-18815D01*
X52039Y-19005D01*
X52301Y-19169D01*
X52584Y-19309D01*
X52886Y-19423D01*
X53208Y-19511D01*
X53550Y-19575D01*
X53912Y-19613D01*
X54294Y-19625D01*
X54706Y-19609D01*
G37*
D10*
X152000Y367000D02*
X212000Y367000D01*
X212000Y307000D02*
X152000Y307000D01*
X212000Y307000D02*
X212000Y367000D01*
X152000Y367000D02*
X152000Y307000D01*
D11*
X215000Y378000D02*
X215002Y378070D01*
X215008Y378140D01*
X215018Y378209D01*
X215031Y378278D01*
X215049Y378346D01*
X215070Y378413D01*
X215095Y378478D01*
X215124Y378542D01*
X215156Y378605D01*
X215192Y378665D01*
X215231Y378723D01*
X215273Y378779D01*
X215318Y378833D01*
X215366Y378884D01*
X215417Y378932D01*
X215471Y378977D01*
X215527Y379019D01*
X215585Y379058D01*
X215645Y379094D01*
X215708Y379126D01*
X215772Y379155D01*
X215837Y379180D01*
X215904Y379201D01*
X215972Y379219D01*
X216041Y379232D01*
X216110Y379242D01*
X216180Y379248D01*
X216250Y379250D01*
X216320Y379248D01*
X216390Y379242D01*
X216459Y379232D01*
X216528Y379219D01*
X216596Y379201D01*
X216663Y379180D01*
X216728Y379155D01*
X216792Y379126D01*
X216855Y379094D01*
X216915Y379058D01*
X216973Y379019D01*
X217029Y378977D01*
X217083Y378932D01*
X217134Y378884D01*
X217182Y378833D01*
X217227Y378779D01*
X217269Y378723D01*
X217308Y378665D01*
X217344Y378605D01*
X217376Y378542D01*
X217405Y378478D01*
X217430Y378413D01*
X217451Y378346D01*
X217469Y378278D01*
X217482Y378209D01*
X217492Y378140D01*
X217498Y378070D01*
X217500Y378000D01*
X217498Y377930D01*
X217492Y377860D01*
X217482Y377791D01*
X217469Y377722D01*
X217451Y377654D01*
X217430Y377587D01*
X217405Y377522D01*
X217376Y377458D01*
X217344Y377395D01*
X217308Y377335D01*
X217269Y377277D01*
X217227Y377221D01*
X217182Y377167D01*
X217134Y377116D01*
X217083Y377068D01*
X217029Y377023D01*
X216973Y376981D01*
X216915Y376942D01*
X216855Y376906D01*
X216792Y376874D01*
X216728Y376845D01*
X216663Y376820D01*
X216596Y376799D01*
X216528Y376781D01*
X216459Y376768D01*
X216390Y376758D01*
X216320Y376752D01*
X216250Y376750D01*
X216180Y376752D01*
X216110Y376758D01*
X216041Y376768D01*
X215972Y376781D01*
X215904Y376799D01*
X215837Y376820D01*
X215772Y376845D01*
X215708Y376874D01*
X215645Y376906D01*
X215585Y376942D01*
X215527Y376981D01*
X215471Y377023D01*
X215417Y377068D01*
X215366Y377116D01*
X215318Y377167D01*
X215273Y377221D01*
X215231Y377277D01*
X215192Y377335D01*
X215156Y377395D01*
X215124Y377458D01*
X215095Y377522D01*
X215070Y377587D01*
X215049Y377654D01*
X215031Y377722D01*
X215018Y377791D01*
X215008Y377860D01*
X215002Y377930D01*
X215000Y378000D01*
D12*
X199000Y357000D02*
X199002Y357109D01*
X199008Y357218D01*
X199018Y357326D01*
X199032Y357434D01*
X199049Y357542D01*
X199071Y357649D01*
X199096Y357755D01*
X199126Y357859D01*
X199159Y357963D01*
X199196Y358066D01*
X199236Y358167D01*
X199280Y358266D01*
X199328Y358364D01*
X199380Y358461D01*
X199434Y358555D01*
X199492Y358647D01*
X199554Y358737D01*
X199619Y358824D01*
X199686Y358910D01*
X199757Y358993D01*
X199831Y359073D01*
X199908Y359150D01*
X199987Y359225D01*
X200069Y359296D01*
X200154Y359365D01*
X200241Y359430D01*
X200330Y359493D01*
X200422Y359551D01*
X200516Y359607D01*
X200611Y359659D01*
X200709Y359708D01*
X200808Y359753D01*
X200909Y359795D01*
X201011Y359832D01*
X201114Y359866D01*
X201219Y359897D01*
X201325Y359923D01*
X201431Y359946D01*
X201539Y359964D01*
X201647Y359979D01*
X201755Y359990D01*
X201864Y359997D01*
X201973Y360000D01*
X202082Y359999D01*
X202191Y359994D01*
X202299Y359985D01*
X202407Y359972D01*
X202515Y359955D01*
X202622Y359935D01*
X202728Y359910D01*
X202833Y359882D01*
X202937Y359850D01*
X203040Y359814D01*
X203142Y359774D01*
X203242Y359731D01*
X203340Y359684D01*
X203437Y359634D01*
X203531Y359580D01*
X203624Y359522D01*
X203715Y359462D01*
X203803Y359398D01*
X203889Y359331D01*
X203972Y359261D01*
X204053Y359188D01*
X204131Y359112D01*
X204206Y359033D01*
X204279Y358951D01*
X204348Y358867D01*
X204414Y358781D01*
X204477Y358692D01*
X204537Y358601D01*
X204594Y358508D01*
X204647Y358413D01*
X204696Y358316D01*
X204742Y358217D01*
X204784Y358117D01*
X204823Y358015D01*
X204858Y357911D01*
X204889Y357807D01*
X204917Y357702D01*
X204940Y357595D01*
X204960Y357488D01*
X204976Y357380D01*
X204988Y357272D01*
X204996Y357163D01*
X205000Y357054D01*
X205000Y356946D01*
X204996Y356837D01*
X204988Y356728D01*
X204976Y356620D01*
X204960Y356512D01*
X204940Y356405D01*
X204917Y356298D01*
X204889Y356193D01*
X204858Y356089D01*
X204823Y355985D01*
X204784Y355883D01*
X204742Y355783D01*
X204696Y355684D01*
X204647Y355587D01*
X204594Y355492D01*
X204537Y355399D01*
X204477Y355308D01*
X204414Y355219D01*
X204348Y355133D01*
X204279Y355049D01*
X204206Y354967D01*
X204131Y354888D01*
X204053Y354812D01*
X203972Y354739D01*
X203889Y354669D01*
X203803Y354602D01*
X203715Y354538D01*
X203624Y354478D01*
X203531Y354420D01*
X203437Y354366D01*
X203340Y354316D01*
X203242Y354269D01*
X203142Y354226D01*
X203040Y354186D01*
X202937Y354150D01*
X202833Y354118D01*
X202728Y354090D01*
X202622Y354065D01*
X202515Y354045D01*
X202407Y354028D01*
X202299Y354015D01*
X202191Y354006D01*
X202082Y354001D01*
X201973Y354000D01*
X201864Y354003D01*
X201755Y354010D01*
X201647Y354021D01*
X201539Y354036D01*
X201431Y354054D01*
X201325Y354077D01*
X201219Y354103D01*
X201114Y354134D01*
X201011Y354168D01*
X200909Y354205D01*
X200808Y354247D01*
X200709Y354292D01*
X200611Y354341D01*
X200516Y354393D01*
X200422Y354449D01*
X200330Y354507D01*
X200241Y354570D01*
X200154Y354635D01*
X200069Y354704D01*
X199987Y354775D01*
X199908Y354850D01*
X199831Y354927D01*
X199757Y355007D01*
X199686Y355090D01*
X199619Y355176D01*
X199554Y355263D01*
X199492Y355353D01*
X199434Y355445D01*
X199380Y355539D01*
X199328Y355636D01*
X199280Y355734D01*
X199236Y355833D01*
X199196Y355934D01*
X199159Y356037D01*
X199126Y356141D01*
X199096Y356245D01*
X199071Y356351D01*
X199049Y356458D01*
X199032Y356566D01*
X199018Y356674D01*
X199008Y356782D01*
X199002Y356891D01*
X199000Y357000D01*
D13*
X151991Y403250D02*
X151991Y420750D01*
X136009Y420750D02*
X136009Y403250D01*
D10*
X283000Y157000D02*
X343000Y157000D01*
X343000Y217000D02*
X283000Y217000D01*
X283000Y157000D01*
X343000Y157000D02*
X343000Y217000D01*
D11*
X277500Y146000D02*
X277502Y146070D01*
X277508Y146140D01*
X277518Y146209D01*
X277531Y146278D01*
X277549Y146346D01*
X277570Y146413D01*
X277595Y146478D01*
X277624Y146542D01*
X277656Y146605D01*
X277692Y146665D01*
X277731Y146723D01*
X277773Y146779D01*
X277818Y146833D01*
X277866Y146884D01*
X277917Y146932D01*
X277971Y146977D01*
X278027Y147019D01*
X278085Y147058D01*
X278145Y147094D01*
X278208Y147126D01*
X278272Y147155D01*
X278337Y147180D01*
X278404Y147201D01*
X278472Y147219D01*
X278541Y147232D01*
X278610Y147242D01*
X278680Y147248D01*
X278750Y147250D01*
X278820Y147248D01*
X278890Y147242D01*
X278959Y147232D01*
X279028Y147219D01*
X279096Y147201D01*
X279163Y147180D01*
X279228Y147155D01*
X279292Y147126D01*
X279355Y147094D01*
X279415Y147058D01*
X279473Y147019D01*
X279529Y146977D01*
X279583Y146932D01*
X279634Y146884D01*
X279682Y146833D01*
X279727Y146779D01*
X279769Y146723D01*
X279808Y146665D01*
X279844Y146605D01*
X279876Y146542D01*
X279905Y146478D01*
X279930Y146413D01*
X279951Y146346D01*
X279969Y146278D01*
X279982Y146209D01*
X279992Y146140D01*
X279998Y146070D01*
X280000Y146000D01*
X279998Y145930D01*
X279992Y145860D01*
X279982Y145791D01*
X279969Y145722D01*
X279951Y145654D01*
X279930Y145587D01*
X279905Y145522D01*
X279876Y145458D01*
X279844Y145395D01*
X279808Y145335D01*
X279769Y145277D01*
X279727Y145221D01*
X279682Y145167D01*
X279634Y145116D01*
X279583Y145068D01*
X279529Y145023D01*
X279473Y144981D01*
X279415Y144942D01*
X279355Y144906D01*
X279292Y144874D01*
X279228Y144845D01*
X279163Y144820D01*
X279096Y144799D01*
X279028Y144781D01*
X278959Y144768D01*
X278890Y144758D01*
X278820Y144752D01*
X278750Y144750D01*
X278680Y144752D01*
X278610Y144758D01*
X278541Y144768D01*
X278472Y144781D01*
X278404Y144799D01*
X278337Y144820D01*
X278272Y144845D01*
X278208Y144874D01*
X278145Y144906D01*
X278085Y144942D01*
X278027Y144981D01*
X277971Y145023D01*
X277917Y145068D01*
X277866Y145116D01*
X277818Y145167D01*
X277773Y145221D01*
X277731Y145277D01*
X277692Y145335D01*
X277656Y145395D01*
X277624Y145458D01*
X277595Y145522D01*
X277570Y145587D01*
X277549Y145654D01*
X277531Y145722D01*
X277518Y145791D01*
X277508Y145860D01*
X277502Y145930D01*
X277500Y146000D01*
D12*
X290000Y167000D02*
X290002Y167109D01*
X290008Y167218D01*
X290018Y167326D01*
X290032Y167434D01*
X290049Y167542D01*
X290071Y167649D01*
X290096Y167755D01*
X290126Y167859D01*
X290159Y167963D01*
X290196Y168066D01*
X290236Y168167D01*
X290280Y168266D01*
X290328Y168364D01*
X290380Y168461D01*
X290434Y168555D01*
X290492Y168647D01*
X290554Y168737D01*
X290619Y168824D01*
X290686Y168910D01*
X290757Y168993D01*
X290831Y169073D01*
X290908Y169150D01*
X290987Y169225D01*
X291069Y169296D01*
X291154Y169365D01*
X291241Y169430D01*
X291330Y169493D01*
X291422Y169551D01*
X291516Y169607D01*
X291611Y169659D01*
X291709Y169708D01*
X291808Y169753D01*
X291909Y169795D01*
X292011Y169832D01*
X292114Y169866D01*
X292219Y169897D01*
X292325Y169923D01*
X292431Y169946D01*
X292539Y169964D01*
X292647Y169979D01*
X292755Y169990D01*
X292864Y169997D01*
X292973Y170000D01*
X293082Y169999D01*
X293191Y169994D01*
X293299Y169985D01*
X293407Y169972D01*
X293515Y169955D01*
X293622Y169935D01*
X293728Y169910D01*
X293833Y169882D01*
X293937Y169850D01*
X294040Y169814D01*
X294142Y169774D01*
X294242Y169731D01*
X294340Y169684D01*
X294437Y169634D01*
X294531Y169580D01*
X294624Y169522D01*
X294715Y169462D01*
X294803Y169398D01*
X294889Y169331D01*
X294972Y169261D01*
X295053Y169188D01*
X295131Y169112D01*
X295206Y169033D01*
X295279Y168951D01*
X295348Y168867D01*
X295414Y168781D01*
X295477Y168692D01*
X295537Y168601D01*
X295594Y168508D01*
X295647Y168413D01*
X295696Y168316D01*
X295742Y168217D01*
X295784Y168117D01*
X295823Y168015D01*
X295858Y167911D01*
X295889Y167807D01*
X295917Y167702D01*
X295940Y167595D01*
X295960Y167488D01*
X295976Y167380D01*
X295988Y167272D01*
X295996Y167163D01*
X296000Y167054D01*
X296000Y166946D01*
X295996Y166837D01*
X295988Y166728D01*
X295976Y166620D01*
X295960Y166512D01*
X295940Y166405D01*
X295917Y166298D01*
X295889Y166193D01*
X295858Y166089D01*
X295823Y165985D01*
X295784Y165883D01*
X295742Y165783D01*
X295696Y165684D01*
X295647Y165587D01*
X295594Y165492D01*
X295537Y165399D01*
X295477Y165308D01*
X295414Y165219D01*
X295348Y165133D01*
X295279Y165049D01*
X295206Y164967D01*
X295131Y164888D01*
X295053Y164812D01*
X294972Y164739D01*
X294889Y164669D01*
X294803Y164602D01*
X294715Y164538D01*
X294624Y164478D01*
X294531Y164420D01*
X294437Y164366D01*
X294340Y164316D01*
X294242Y164269D01*
X294142Y164226D01*
X294040Y164186D01*
X293937Y164150D01*
X293833Y164118D01*
X293728Y164090D01*
X293622Y164065D01*
X293515Y164045D01*
X293407Y164028D01*
X293299Y164015D01*
X293191Y164006D01*
X293082Y164001D01*
X292973Y164000D01*
X292864Y164003D01*
X292755Y164010D01*
X292647Y164021D01*
X292539Y164036D01*
X292431Y164054D01*
X292325Y164077D01*
X292219Y164103D01*
X292114Y164134D01*
X292011Y164168D01*
X291909Y164205D01*
X291808Y164247D01*
X291709Y164292D01*
X291611Y164341D01*
X291516Y164393D01*
X291422Y164449D01*
X291330Y164507D01*
X291241Y164570D01*
X291154Y164635D01*
X291069Y164704D01*
X290987Y164775D01*
X290908Y164850D01*
X290831Y164927D01*
X290757Y165007D01*
X290686Y165090D01*
X290619Y165176D01*
X290554Y165263D01*
X290492Y165353D01*
X290434Y165445D01*
X290380Y165539D01*
X290328Y165636D01*
X290280Y165734D01*
X290236Y165833D01*
X290196Y165934D01*
X290159Y166037D01*
X290126Y166141D01*
X290096Y166245D01*
X290071Y166351D01*
X290049Y166458D01*
X290032Y166566D01*
X290018Y166674D01*
X290008Y166782D01*
X290002Y166891D01*
X290000Y167000D01*
D13*
X352009Y128750D02*
X352009Y111250D01*
X367991Y111250D02*
X367991Y128750D01*
X201000Y42533D02*
X179000Y42533D01*
X179000Y63467D02*
X201000Y63467D01*
D14*
X111400Y21150D02*
X105050Y14800D01*
X111400Y21150D02*
X111400Y33850D01*
X105050Y40200D01*
X111400Y46550D01*
X111400Y59250D01*
X105050Y65600D01*
X111400Y71950D01*
X111400Y84650D01*
X105050Y91000D01*
X111400Y97350D01*
X111400Y110050D01*
X105050Y116400D01*
X111400Y122750D01*
X111400Y135450D01*
X105050Y141800D01*
X111400Y148150D01*
X111400Y160850D01*
X105050Y167200D01*
X105050Y14800D02*
X66950Y14800D01*
X60600Y21150D01*
X60600Y33850D01*
X66950Y40200D01*
X60600Y46550D01*
X60600Y59250D01*
X66950Y65600D01*
X60600Y71950D01*
X60600Y84650D01*
X66950Y91000D01*
X60600Y97350D01*
X60600Y110050D01*
X66950Y116400D01*
X60600Y122750D01*
X60600Y135450D01*
X66950Y141800D01*
X60600Y148150D01*
X60600Y160850D01*
X66950Y167200D01*
X60600Y173550D01*
X60600Y186250D01*
X66950Y192600D01*
X60600Y198950D01*
X60600Y211650D01*
X66950Y218000D01*
X60600Y224350D01*
X60600Y237050D01*
X66950Y243400D01*
X60600Y249750D01*
X60600Y262450D01*
X66950Y268800D01*
X60600Y275150D01*
X60600Y287850D01*
X66950Y294200D01*
X60600Y300550D01*
X60600Y313250D01*
X66950Y319600D01*
X60600Y325950D01*
X60600Y338650D01*
X66950Y345000D01*
X60600Y351350D01*
X60600Y364050D01*
X66950Y370400D01*
X60600Y376750D01*
X60600Y389450D01*
X66950Y395800D01*
X60600Y402150D01*
X60600Y414850D01*
X66950Y421200D01*
X105050Y421200D02*
X111400Y414850D01*
X111400Y402150D01*
X105050Y395800D01*
X111400Y389450D01*
X111400Y376750D01*
X105050Y370400D01*
X111400Y364050D01*
X111400Y351350D01*
X105050Y345000D01*
X111400Y338650D01*
X111400Y325950D01*
X105050Y319600D01*
X111400Y313250D01*
X111400Y300550D01*
X105050Y294200D01*
X111400Y287850D01*
X111400Y275150D01*
X105050Y268800D01*
X111400Y262450D01*
X111400Y249750D01*
X105050Y243400D01*
X111400Y237050D01*
X111400Y224350D01*
X105050Y218000D01*
X111400Y211650D01*
X111400Y198950D01*
X105050Y192600D01*
X111400Y186250D01*
X111400Y173550D01*
X105050Y167200D01*
X105050Y40200D02*
X66950Y40200D01*
X66950Y65600D02*
X105050Y65600D01*
X105050Y91000D02*
X66950Y91000D01*
X66950Y116400D02*
X105050Y116400D01*
X105050Y141800D02*
X66950Y141800D01*
X66950Y167200D02*
X105050Y167200D01*
X105050Y192600D02*
X66950Y192600D01*
X66950Y218000D02*
X105050Y218000D01*
X105050Y243400D02*
X66950Y243400D01*
X66950Y268800D02*
X105050Y268800D01*
X105050Y294200D02*
X66950Y294200D01*
X66950Y319600D02*
X105050Y319600D01*
X105050Y345000D02*
X66950Y345000D01*
X66950Y370400D02*
X105050Y370400D01*
X105050Y395800D02*
X66950Y395800D01*
X66950Y421200D02*
X105050Y421200D01*
M02*
