G04 EAGLE Gerber RS-274X export*
G75*
%MOMM*%
%FSLAX34Y34*%
%LPD*%
%INSilkscreen Bottom*%
%IPPOS*%
%AMOC8*
5,1,8,0,0,1.08239X$1,22.5*%
G01*
G04 Define Apertures*
%ADD10C,0.150000*%
%ADD11C,0.250000*%
%ADD12C,0.600000*%
%ADD13C,0.127000*%
G36*
X274718Y390351D02*
X268642Y390351D01*
X268319Y390362D01*
X268016Y390394D01*
X267733Y390446D01*
X267471Y390520D01*
X267228Y390615D01*
X267006Y390732D01*
X266803Y390869D01*
X266621Y391027D01*
X266459Y391206D01*
X266319Y391403D01*
X266201Y391619D01*
X266104Y391853D01*
X266028Y392107D01*
X265974Y392379D01*
X265942Y392670D01*
X265931Y392979D01*
X265942Y393298D01*
X265976Y393598D01*
X266031Y393880D01*
X266110Y394144D01*
X266210Y394390D01*
X266333Y394617D01*
X266478Y394826D01*
X266645Y395017D01*
X266834Y395188D01*
X267043Y395336D01*
X267273Y395461D01*
X267523Y395563D01*
X267795Y395642D01*
X268086Y395699D01*
X268398Y395733D01*
X268731Y395745D01*
X274718Y395745D01*
X274718Y397055D01*
X268655Y397055D01*
X268366Y397047D01*
X268086Y397024D01*
X267816Y396985D01*
X267557Y396930D01*
X267308Y396860D01*
X267069Y396774D01*
X266840Y396672D01*
X266621Y396555D01*
X266413Y396424D01*
X266218Y396279D01*
X266036Y396122D01*
X265866Y395952D01*
X265709Y395769D01*
X265565Y395572D01*
X265433Y395363D01*
X265314Y395141D01*
X265208Y394908D01*
X265116Y394664D01*
X265039Y394410D01*
X264975Y394146D01*
X264926Y393871D01*
X264890Y393586D01*
X264869Y393291D01*
X264862Y392986D01*
X264869Y392692D01*
X264889Y392408D01*
X264923Y392134D01*
X264971Y391869D01*
X265032Y391613D01*
X265106Y391367D01*
X265195Y391130D01*
X265297Y390903D01*
X265411Y390687D01*
X265538Y390483D01*
X265678Y390292D01*
X265829Y390113D01*
X265993Y389947D01*
X266169Y389794D01*
X266358Y389652D01*
X266559Y389524D01*
X266771Y389409D01*
X266992Y389310D01*
X267224Y389225D01*
X267466Y389156D01*
X267717Y389103D01*
X267979Y389065D01*
X268250Y389042D01*
X268531Y389034D01*
X274718Y389034D01*
X274718Y390351D01*
G37*
G36*
X266268Y399028D02*
X266635Y399233D01*
X266980Y399457D01*
X267300Y399701D01*
X267888Y400221D01*
X268417Y400766D01*
X268899Y401323D01*
X269345Y401873D01*
X269773Y402395D01*
X270200Y402863D01*
X270417Y403073D01*
X270638Y403262D01*
X270865Y403430D01*
X271097Y403577D01*
X271339Y403696D01*
X271597Y403781D01*
X271870Y403832D01*
X272159Y403849D01*
X272353Y403842D01*
X272537Y403820D01*
X272709Y403783D01*
X272869Y403732D01*
X273019Y403666D01*
X273157Y403586D01*
X273285Y403490D01*
X273401Y403380D01*
X273504Y403257D01*
X273594Y403123D01*
X273669Y402977D01*
X273732Y402820D01*
X273780Y402651D01*
X273814Y402471D01*
X273835Y402280D01*
X273842Y402077D01*
X273835Y401883D01*
X273815Y401698D01*
X273781Y401521D01*
X273734Y401354D01*
X273674Y401195D01*
X273599Y401044D01*
X273411Y400770D01*
X273298Y400648D01*
X273174Y400540D01*
X273039Y400444D01*
X272893Y400362D01*
X272736Y400293D01*
X272568Y400238D01*
X272390Y400195D01*
X272200Y400166D01*
X272318Y398897D01*
X272602Y398943D01*
X272871Y399011D01*
X273125Y399101D01*
X273364Y399214D01*
X273589Y399349D01*
X273798Y399506D01*
X273993Y399685D01*
X274173Y399887D01*
X274335Y400108D01*
X274475Y400343D01*
X274593Y400594D01*
X274690Y400860D01*
X274766Y401142D01*
X274820Y401438D01*
X274852Y401750D01*
X274863Y402077D01*
X274852Y402434D01*
X274819Y402769D01*
X274765Y403083D01*
X274689Y403376D01*
X274592Y403648D01*
X274473Y403898D01*
X274332Y404128D01*
X274170Y404336D01*
X273987Y404521D01*
X273787Y404681D01*
X273568Y404817D01*
X273331Y404928D01*
X273075Y405014D01*
X272802Y405076D01*
X272510Y405113D01*
X272200Y405125D01*
X271918Y405109D01*
X271637Y405061D01*
X271356Y404980D01*
X271076Y404867D01*
X270797Y404722D01*
X270518Y404545D01*
X270238Y404337D01*
X269959Y404098D01*
X269641Y403784D01*
X269247Y403355D01*
X268228Y402146D01*
X267611Y401434D01*
X267327Y401138D01*
X267059Y400884D01*
X266801Y400666D01*
X266548Y400480D01*
X266299Y400328D01*
X266055Y400208D01*
X266055Y405277D01*
X265000Y405277D01*
X265000Y398842D01*
X265876Y398842D01*
X266268Y399028D01*
G37*
G36*
X334891Y393453D02*
X335245Y393471D01*
X335589Y393502D01*
X335923Y393546D01*
X336247Y393602D01*
X336561Y393670D01*
X336865Y393751D01*
X337159Y393845D01*
X337443Y393951D01*
X337717Y394069D01*
X338235Y394343D01*
X338714Y394667D01*
X339152Y395040D01*
X339544Y395458D01*
X339884Y395914D01*
X340034Y396156D01*
X340171Y396408D01*
X340295Y396670D01*
X340406Y396941D01*
X340505Y397222D01*
X340589Y397512D01*
X340661Y397812D01*
X340720Y398121D01*
X340766Y398440D01*
X340799Y398769D01*
X340818Y399107D01*
X340825Y399455D01*
X340813Y399937D01*
X340777Y400399D01*
X340716Y400842D01*
X340632Y401263D01*
X340524Y401665D01*
X340391Y402046D01*
X340235Y402407D01*
X340054Y402748D01*
X339850Y403068D01*
X339622Y403365D01*
X339371Y403641D01*
X339097Y403895D01*
X338800Y404127D01*
X338479Y404338D01*
X338135Y404526D01*
X337768Y404692D01*
X337242Y403107D01*
X337504Y402992D01*
X337749Y402860D01*
X337979Y402712D01*
X338193Y402548D01*
X338391Y402367D01*
X338573Y402170D01*
X338739Y401957D01*
X338889Y401727D01*
X339023Y401484D01*
X339138Y401230D01*
X339236Y400965D01*
X339316Y400689D01*
X339378Y400401D01*
X339423Y400103D01*
X339449Y399793D01*
X339458Y399472D01*
X339438Y398974D01*
X339376Y398504D01*
X339273Y398063D01*
X339129Y397650D01*
X338943Y397266D01*
X338717Y396910D01*
X338449Y396583D01*
X338140Y396284D01*
X337795Y396017D01*
X337420Y395786D01*
X337014Y395590D01*
X336578Y395430D01*
X336111Y395306D01*
X335614Y395217D01*
X335086Y395163D01*
X334527Y395145D01*
X333974Y395164D01*
X333449Y395220D01*
X332951Y395312D01*
X332481Y395442D01*
X332039Y395609D01*
X331625Y395813D01*
X331238Y396054D01*
X330879Y396332D01*
X330556Y396642D01*
X330276Y396978D01*
X330039Y397340D01*
X329845Y397728D01*
X329694Y398142D01*
X329586Y398583D01*
X329521Y399050D01*
X329500Y399542D01*
X329510Y399861D01*
X329540Y400170D01*
X329590Y400469D01*
X329660Y400758D01*
X329751Y401037D01*
X329861Y401306D01*
X329991Y401564D01*
X330141Y401813D01*
X330312Y402051D01*
X330502Y402280D01*
X330713Y402498D01*
X330943Y402707D01*
X331194Y402905D01*
X331465Y403093D01*
X331755Y403272D01*
X332066Y403440D01*
X331383Y404806D01*
X330996Y404606D01*
X330634Y404387D01*
X330295Y404148D01*
X329979Y403890D01*
X329688Y403612D01*
X329421Y403316D01*
X329177Y403000D01*
X328957Y402665D01*
X328762Y402313D01*
X328593Y401947D01*
X328450Y401568D01*
X328333Y401175D01*
X328242Y400768D01*
X328177Y400347D01*
X328138Y399912D01*
X328125Y399463D01*
X328137Y399005D01*
X328173Y398562D01*
X328234Y398135D01*
X328319Y397724D01*
X328428Y397328D01*
X328561Y396948D01*
X328718Y396584D01*
X328900Y396236D01*
X329104Y395906D01*
X329329Y395595D01*
X329575Y395306D01*
X329842Y395036D01*
X330129Y394787D01*
X330437Y394558D01*
X330766Y394349D01*
X331116Y394160D01*
X331484Y393993D01*
X331869Y393848D01*
X332271Y393725D01*
X332689Y393625D01*
X333124Y393547D01*
X333575Y393491D01*
X334043Y393457D01*
X334527Y393446D01*
X334891Y393453D01*
G37*
G36*
X329910Y406611D02*
X330377Y406871D01*
X330814Y407156D01*
X331221Y407465D01*
X331604Y407791D01*
X331968Y408126D01*
X332313Y408468D01*
X332640Y408819D01*
X333252Y409525D01*
X333818Y410224D01*
X334361Y410887D01*
X334904Y411481D01*
X335179Y411748D01*
X335460Y411988D01*
X335748Y412201D01*
X336043Y412388D01*
X336350Y412539D01*
X336678Y412647D01*
X337025Y412712D01*
X337391Y412734D01*
X337638Y412724D01*
X337871Y412697D01*
X338089Y412650D01*
X338293Y412585D01*
X338483Y412501D01*
X338659Y412399D01*
X338821Y412278D01*
X338968Y412138D01*
X339099Y411982D01*
X339213Y411811D01*
X339309Y411626D01*
X339388Y411427D01*
X339450Y411212D01*
X339493Y410984D01*
X339520Y410740D01*
X339528Y410483D01*
X339520Y410237D01*
X339494Y410001D01*
X339451Y409777D01*
X339392Y409564D01*
X339315Y409362D01*
X339221Y409171D01*
X339109Y408992D01*
X338981Y408823D01*
X338837Y408668D01*
X338680Y408530D01*
X338508Y408409D01*
X338323Y408305D01*
X338124Y408218D01*
X337911Y408147D01*
X337684Y408094D01*
X337444Y408057D01*
X337593Y406445D01*
X337953Y406503D01*
X338295Y406589D01*
X338618Y406704D01*
X338922Y406847D01*
X339207Y407018D01*
X339473Y407218D01*
X339720Y407446D01*
X339949Y407702D01*
X340154Y407982D01*
X340332Y408281D01*
X340483Y408600D01*
X340606Y408938D01*
X340702Y409295D01*
X340770Y409672D01*
X340811Y410068D01*
X340825Y410483D01*
X340811Y410936D01*
X340770Y411362D01*
X340701Y411761D01*
X340605Y412133D01*
X340481Y412478D01*
X340330Y412796D01*
X340151Y413087D01*
X339944Y413351D01*
X339713Y413586D01*
X339458Y413790D01*
X339180Y413962D01*
X338879Y414103D01*
X338555Y414213D01*
X338208Y414291D01*
X337837Y414338D01*
X337444Y414354D01*
X337085Y414334D01*
X336728Y414272D01*
X336372Y414169D01*
X336016Y414026D01*
X335662Y413841D01*
X335307Y413617D01*
X334952Y413353D01*
X334597Y413049D01*
X334194Y412651D01*
X333693Y412105D01*
X333095Y411412D01*
X332399Y410570D01*
X331997Y410092D01*
X331616Y409666D01*
X331255Y409291D01*
X330914Y408968D01*
X330587Y408691D01*
X330265Y408455D01*
X329950Y408261D01*
X329640Y408109D01*
X329640Y414547D01*
X328300Y414547D01*
X328300Y406375D01*
X329412Y406375D01*
X329910Y406611D01*
G37*
G36*
X230718Y120407D02*
X224642Y120407D01*
X224319Y120418D01*
X224016Y120449D01*
X223733Y120502D01*
X223471Y120576D01*
X223228Y120671D01*
X223006Y120787D01*
X222803Y120925D01*
X222621Y121083D01*
X222459Y121261D01*
X222319Y121458D01*
X222201Y121674D01*
X222104Y121909D01*
X222028Y122162D01*
X221974Y122434D01*
X221942Y122725D01*
X221931Y123035D01*
X221942Y123353D01*
X221976Y123654D01*
X222031Y123936D01*
X222110Y124200D01*
X222210Y124445D01*
X222333Y124673D01*
X222478Y124882D01*
X222645Y125073D01*
X222834Y125243D01*
X223043Y125391D01*
X223273Y125516D01*
X223523Y125619D01*
X223795Y125698D01*
X224086Y125755D01*
X224398Y125789D01*
X224731Y125800D01*
X230718Y125800D01*
X230718Y127111D01*
X224655Y127111D01*
X224366Y127103D01*
X224086Y127080D01*
X223816Y127041D01*
X223557Y126986D01*
X223308Y126916D01*
X223069Y126830D01*
X222840Y126728D01*
X222621Y126611D01*
X222413Y126479D01*
X222218Y126335D01*
X222036Y126178D01*
X221866Y126007D01*
X221709Y125824D01*
X221565Y125628D01*
X221433Y125419D01*
X221314Y125197D01*
X221208Y124963D01*
X221116Y124720D01*
X221039Y124466D01*
X220975Y124201D01*
X220926Y123927D01*
X220890Y123642D01*
X220869Y123347D01*
X220862Y123042D01*
X220869Y122748D01*
X220889Y122464D01*
X220923Y122189D01*
X220971Y121924D01*
X221032Y121669D01*
X221106Y121423D01*
X221195Y121186D01*
X221297Y120959D01*
X221411Y120743D01*
X221538Y120539D01*
X221678Y120348D01*
X221829Y120169D01*
X221993Y120003D01*
X222169Y119849D01*
X222358Y119708D01*
X222559Y119579D01*
X222771Y119465D01*
X222992Y119365D01*
X223224Y119281D01*
X223466Y119212D01*
X223717Y119159D01*
X223979Y119120D01*
X224250Y119097D01*
X224531Y119090D01*
X230718Y119090D01*
X230718Y120407D01*
G37*
G36*
X223614Y130008D02*
X223405Y130046D01*
X223210Y130096D01*
X223028Y130158D01*
X222860Y130234D01*
X222705Y130322D01*
X222563Y130422D01*
X222435Y130536D01*
X222321Y130662D01*
X222220Y130800D01*
X222132Y130952D01*
X222058Y131116D01*
X221997Y131292D01*
X221950Y131482D01*
X221917Y131684D01*
X221896Y131898D01*
X221890Y132126D01*
X221897Y132354D01*
X221919Y132569D01*
X221955Y132772D01*
X222005Y132963D01*
X222070Y133141D01*
X222150Y133306D01*
X222244Y133458D01*
X222352Y133598D01*
X222474Y133723D01*
X222611Y133832D01*
X222761Y133924D01*
X222926Y133999D01*
X223105Y134058D01*
X223297Y134099D01*
X223504Y134124D01*
X223724Y134133D01*
X223917Y134123D01*
X224099Y134095D01*
X224270Y134047D01*
X224430Y133980D01*
X224580Y133894D01*
X224718Y133789D01*
X224846Y133665D01*
X224962Y133522D01*
X225067Y133361D01*
X225157Y133183D01*
X225233Y132988D01*
X225296Y132777D01*
X225345Y132548D01*
X225379Y132302D01*
X225400Y132040D01*
X225407Y131760D01*
X225407Y131057D01*
X226483Y131057D01*
X226483Y131733D01*
X226490Y131981D01*
X226511Y132214D01*
X226546Y132434D01*
X226594Y132639D01*
X226657Y132829D01*
X226733Y133006D01*
X226824Y133168D01*
X226928Y133315D01*
X227044Y133447D01*
X227172Y133561D01*
X227310Y133658D01*
X227458Y133737D01*
X227617Y133798D01*
X227787Y133842D01*
X227968Y133869D01*
X228159Y133878D01*
X228349Y133870D01*
X228528Y133849D01*
X228698Y133813D01*
X228857Y133763D01*
X229005Y133698D01*
X229144Y133620D01*
X229272Y133526D01*
X229390Y133419D01*
X229496Y133297D01*
X229588Y133162D01*
X229665Y133012D01*
X229729Y132849D01*
X229778Y132672D01*
X229814Y132481D01*
X229835Y132276D01*
X229842Y132057D01*
X229835Y131856D01*
X229816Y131666D01*
X229783Y131485D01*
X229737Y131314D01*
X229678Y131153D01*
X229605Y131002D01*
X229520Y130861D01*
X229421Y130729D01*
X229311Y130609D01*
X229189Y130502D01*
X229057Y130408D01*
X228914Y130328D01*
X228761Y130261D01*
X228596Y130207D01*
X228421Y130167D01*
X228235Y130139D01*
X228331Y128891D01*
X228622Y128937D01*
X228895Y129005D01*
X229153Y129095D01*
X229394Y129207D01*
X229618Y129342D01*
X229826Y129499D01*
X230018Y129679D01*
X230194Y129881D01*
X230350Y130101D01*
X230486Y130337D01*
X230601Y130588D01*
X230695Y130854D01*
X230769Y131135D01*
X230821Y131432D01*
X230852Y131744D01*
X230863Y132070D01*
X230852Y132426D01*
X230820Y132761D01*
X230767Y133075D01*
X230693Y133370D01*
X230597Y133644D01*
X230481Y133897D01*
X230343Y134130D01*
X230183Y134343D01*
X230005Y134533D01*
X229810Y134698D01*
X229599Y134837D01*
X229370Y134951D01*
X229125Y135039D01*
X228864Y135103D01*
X228585Y135141D01*
X228290Y135153D01*
X228063Y135145D01*
X227846Y135121D01*
X227641Y135080D01*
X227446Y135023D01*
X227262Y134950D01*
X227089Y134861D01*
X226927Y134755D01*
X226776Y134633D01*
X226636Y134495D01*
X226508Y134343D01*
X226392Y134176D01*
X226287Y133994D01*
X226195Y133797D01*
X226113Y133586D01*
X226044Y133360D01*
X225987Y133119D01*
X225959Y133119D01*
X225922Y133384D01*
X225869Y133634D01*
X225801Y133868D01*
X225718Y134088D01*
X225618Y134292D01*
X225504Y134482D01*
X225374Y134656D01*
X225228Y134815D01*
X225069Y134958D01*
X224901Y135081D01*
X224723Y135185D01*
X224535Y135271D01*
X224337Y135337D01*
X224129Y135384D01*
X223911Y135413D01*
X223683Y135422D01*
X223356Y135409D01*
X223048Y135369D01*
X222760Y135302D01*
X222490Y135209D01*
X222239Y135088D01*
X222007Y134941D01*
X221794Y134768D01*
X221600Y134567D01*
X221427Y134342D01*
X221277Y134094D01*
X221150Y133823D01*
X221047Y133529D01*
X220966Y133213D01*
X220908Y132873D01*
X220874Y132511D01*
X220862Y132126D01*
X220872Y131766D01*
X220904Y131425D01*
X220956Y131103D01*
X221028Y130799D01*
X221122Y130514D01*
X221236Y130247D01*
X221372Y130000D01*
X221528Y129770D01*
X221704Y129562D01*
X221900Y129375D01*
X222117Y129211D01*
X222353Y129069D01*
X222609Y128950D01*
X222885Y128853D01*
X223181Y128778D01*
X223497Y128725D01*
X223614Y130008D01*
G37*
G36*
X119591Y111453D02*
X119945Y111471D01*
X120289Y111502D01*
X120623Y111546D01*
X120947Y111602D01*
X121261Y111670D01*
X121565Y111751D01*
X121859Y111845D01*
X122143Y111951D01*
X122417Y112069D01*
X122935Y112343D01*
X123414Y112667D01*
X123852Y113040D01*
X124244Y113458D01*
X124584Y113914D01*
X124734Y114156D01*
X124871Y114408D01*
X124995Y114670D01*
X125106Y114941D01*
X125205Y115222D01*
X125289Y115512D01*
X125361Y115812D01*
X125420Y116121D01*
X125466Y116440D01*
X125499Y116769D01*
X125518Y117107D01*
X125525Y117455D01*
X125513Y117937D01*
X125477Y118399D01*
X125416Y118842D01*
X125332Y119263D01*
X125224Y119665D01*
X125091Y120046D01*
X124935Y120407D01*
X124754Y120748D01*
X124550Y121068D01*
X124322Y121365D01*
X124071Y121641D01*
X123797Y121895D01*
X123500Y122127D01*
X123179Y122338D01*
X122835Y122526D01*
X122468Y122692D01*
X121942Y121107D01*
X122204Y120992D01*
X122449Y120860D01*
X122679Y120712D01*
X122893Y120548D01*
X123091Y120367D01*
X123273Y120170D01*
X123439Y119957D01*
X123589Y119727D01*
X123723Y119484D01*
X123838Y119230D01*
X123936Y118965D01*
X124016Y118689D01*
X124078Y118401D01*
X124123Y118103D01*
X124149Y117793D01*
X124158Y117472D01*
X124138Y116974D01*
X124076Y116504D01*
X123973Y116063D01*
X123829Y115650D01*
X123643Y115266D01*
X123417Y114910D01*
X123149Y114583D01*
X122840Y114284D01*
X122495Y114017D01*
X122120Y113786D01*
X121714Y113590D01*
X121278Y113430D01*
X120811Y113306D01*
X120314Y113217D01*
X119786Y113163D01*
X119227Y113145D01*
X118674Y113164D01*
X118149Y113220D01*
X117651Y113312D01*
X117181Y113442D01*
X116739Y113609D01*
X116325Y113813D01*
X115938Y114054D01*
X115579Y114332D01*
X115256Y114642D01*
X114976Y114978D01*
X114739Y115340D01*
X114545Y115728D01*
X114394Y116142D01*
X114286Y116583D01*
X114221Y117050D01*
X114200Y117542D01*
X114210Y117861D01*
X114240Y118170D01*
X114290Y118469D01*
X114360Y118758D01*
X114451Y119037D01*
X114561Y119306D01*
X114691Y119564D01*
X114841Y119813D01*
X115012Y120051D01*
X115202Y120280D01*
X115413Y120498D01*
X115643Y120707D01*
X115894Y120905D01*
X116165Y121093D01*
X116455Y121272D01*
X116766Y121440D01*
X116083Y122806D01*
X115696Y122606D01*
X115334Y122387D01*
X114995Y122148D01*
X114679Y121890D01*
X114388Y121612D01*
X114121Y121316D01*
X113877Y121000D01*
X113657Y120665D01*
X113462Y120313D01*
X113293Y119947D01*
X113150Y119568D01*
X113033Y119175D01*
X112942Y118768D01*
X112877Y118347D01*
X112838Y117912D01*
X112825Y117463D01*
X112837Y117005D01*
X112873Y116562D01*
X112934Y116135D01*
X113019Y115724D01*
X113128Y115328D01*
X113261Y114948D01*
X113418Y114584D01*
X113600Y114236D01*
X113804Y113906D01*
X114029Y113595D01*
X114275Y113306D01*
X114542Y113036D01*
X114829Y112787D01*
X115137Y112558D01*
X115466Y112349D01*
X115816Y112160D01*
X116184Y111993D01*
X116569Y111848D01*
X116971Y111725D01*
X117389Y111625D01*
X117824Y111547D01*
X118275Y111491D01*
X118743Y111457D01*
X119227Y111446D01*
X119591Y111453D01*
G37*
G36*
X116319Y125785D02*
X116054Y125833D01*
X115806Y125896D01*
X115575Y125976D01*
X115362Y126071D01*
X115165Y126183D01*
X114985Y126311D01*
X114823Y126455D01*
X114677Y126615D01*
X114549Y126791D01*
X114438Y126983D01*
X114344Y127192D01*
X114267Y127416D01*
X114207Y127656D01*
X114164Y127913D01*
X114138Y128185D01*
X114130Y128474D01*
X114139Y128764D01*
X114167Y129038D01*
X114212Y129295D01*
X114277Y129537D01*
X114359Y129763D01*
X114460Y129973D01*
X114579Y130166D01*
X114717Y130344D01*
X114872Y130503D01*
X115046Y130641D01*
X115237Y130758D01*
X115446Y130853D01*
X115673Y130927D01*
X115917Y130980D01*
X116179Y131012D01*
X116460Y131023D01*
X116705Y131011D01*
X116936Y130974D01*
X117153Y130914D01*
X117356Y130829D01*
X117546Y130720D01*
X117722Y130587D01*
X117884Y130429D01*
X118032Y130248D01*
X118164Y130043D01*
X118279Y129817D01*
X118376Y129570D01*
X118455Y129301D01*
X118517Y129010D01*
X118561Y128698D01*
X118588Y128365D01*
X118597Y128010D01*
X118597Y127116D01*
X119963Y127116D01*
X119963Y127975D01*
X119972Y128290D01*
X119998Y128587D01*
X120042Y128865D01*
X120104Y129125D01*
X120184Y129368D01*
X120281Y129592D01*
X120396Y129797D01*
X120528Y129985D01*
X120676Y130152D01*
X120838Y130297D01*
X121013Y130420D01*
X121201Y130520D01*
X121403Y130598D01*
X121619Y130654D01*
X121849Y130688D01*
X122091Y130699D01*
X122332Y130690D01*
X122560Y130662D01*
X122775Y130617D01*
X122977Y130553D01*
X123166Y130471D01*
X123342Y130371D01*
X123505Y130253D01*
X123655Y130116D01*
X123789Y129962D01*
X123906Y129790D01*
X124004Y129600D01*
X124085Y129393D01*
X124148Y129168D01*
X124193Y128925D01*
X124219Y128664D01*
X124228Y128386D01*
X124220Y128132D01*
X124195Y127890D01*
X124153Y127661D01*
X124095Y127444D01*
X124020Y127239D01*
X123928Y127047D01*
X123819Y126868D01*
X123694Y126700D01*
X123554Y126548D01*
X123400Y126412D01*
X123232Y126293D01*
X123050Y126191D01*
X122855Y126106D01*
X122646Y126038D01*
X122424Y125986D01*
X122188Y125952D01*
X122310Y124366D01*
X122679Y124424D01*
X123026Y124511D01*
X123353Y124625D01*
X123659Y124768D01*
X123944Y124939D01*
X124209Y125139D01*
X124452Y125367D01*
X124675Y125623D01*
X124874Y125903D01*
X125047Y126203D01*
X125193Y126521D01*
X125312Y126859D01*
X125405Y127216D01*
X125472Y127593D01*
X125511Y127989D01*
X125525Y128404D01*
X125511Y128855D01*
X125471Y129281D01*
X125403Y129680D01*
X125309Y130054D01*
X125188Y130402D01*
X125039Y130724D01*
X124864Y131020D01*
X124662Y131290D01*
X124436Y131531D01*
X124188Y131740D01*
X123920Y131917D01*
X123630Y132062D01*
X123318Y132174D01*
X122986Y132255D01*
X122633Y132303D01*
X122258Y132319D01*
X121969Y132309D01*
X121694Y132278D01*
X121433Y132226D01*
X121186Y132154D01*
X120953Y132061D01*
X120733Y131947D01*
X120527Y131813D01*
X120335Y131658D01*
X120158Y131483D01*
X119995Y131290D01*
X119847Y131077D01*
X119715Y130847D01*
X119597Y130597D01*
X119494Y130328D01*
X119406Y130041D01*
X119332Y129735D01*
X119297Y129735D01*
X119250Y130072D01*
X119184Y130389D01*
X119097Y130687D01*
X118991Y130966D01*
X118865Y131226D01*
X118719Y131466D01*
X118554Y131688D01*
X118369Y131890D01*
X118168Y132071D01*
X117954Y132227D01*
X117728Y132360D01*
X117489Y132468D01*
X117237Y132552D01*
X116973Y132612D01*
X116696Y132649D01*
X116407Y132661D01*
X115992Y132644D01*
X115601Y132593D01*
X115235Y132508D01*
X114892Y132389D01*
X114573Y132236D01*
X114279Y132050D01*
X114008Y131829D01*
X113762Y131575D01*
X113542Y131289D01*
X113352Y130974D01*
X113191Y130629D01*
X113059Y130256D01*
X112957Y129854D01*
X112883Y129423D01*
X112840Y128963D01*
X112825Y128474D01*
X112838Y128017D01*
X112878Y127584D01*
X112944Y127175D01*
X113036Y126789D01*
X113155Y126427D01*
X113300Y126089D01*
X113472Y125774D01*
X113670Y125483D01*
X113894Y125218D01*
X114143Y124981D01*
X114418Y124773D01*
X114718Y124593D01*
X115043Y124441D01*
X115394Y124318D01*
X115769Y124223D01*
X116171Y124156D01*
X116319Y125785D01*
G37*
G36*
X143509Y82540D02*
X140365Y82540D01*
X140365Y92034D01*
X143150Y90046D01*
X143150Y91535D01*
X140234Y93541D01*
X138780Y93541D01*
X138780Y82540D01*
X135775Y82540D01*
X135775Y81200D01*
X143509Y81200D01*
X143509Y82540D01*
G37*
G36*
X150224Y81038D02*
X150586Y81075D01*
X150928Y81139D01*
X151250Y81227D01*
X151553Y81341D01*
X151835Y81481D01*
X152097Y81645D01*
X152340Y81835D01*
X152563Y82050D01*
X152766Y82291D01*
X152948Y82557D01*
X153111Y82848D01*
X153254Y83164D01*
X153378Y83506D01*
X153481Y83873D01*
X153564Y84265D01*
X151926Y84537D01*
X151881Y84290D01*
X151823Y84057D01*
X151753Y83838D01*
X151670Y83633D01*
X151575Y83442D01*
X151468Y83264D01*
X151349Y83101D01*
X151217Y82952D01*
X151074Y82818D01*
X150923Y82703D01*
X150764Y82605D01*
X150595Y82525D01*
X150418Y82462D01*
X150231Y82418D01*
X150037Y82391D01*
X149833Y82382D01*
X149611Y82392D01*
X149402Y82422D01*
X149204Y82470D01*
X149018Y82539D01*
X148845Y82627D01*
X148683Y82735D01*
X148534Y82862D01*
X148397Y83009D01*
X148273Y83174D01*
X148167Y83358D01*
X148076Y83560D01*
X148002Y83780D01*
X147945Y84019D01*
X147904Y84276D01*
X147879Y84550D01*
X147871Y84844D01*
X147871Y92174D01*
X150245Y92174D01*
X150245Y93541D01*
X146207Y93541D01*
X146207Y84879D01*
X146222Y84442D01*
X146268Y84029D01*
X146344Y83640D01*
X146450Y83275D01*
X146587Y82934D01*
X146754Y82616D01*
X146951Y82323D01*
X147179Y82054D01*
X147433Y81813D01*
X147710Y81604D01*
X148009Y81427D01*
X148331Y81282D01*
X148675Y81170D01*
X149041Y81089D01*
X149430Y81041D01*
X149842Y81025D01*
X150224Y81038D01*
G37*
D10*
X343000Y367000D02*
X283000Y367000D01*
X283000Y307000D02*
X343000Y307000D01*
X283000Y307000D02*
X283000Y367000D01*
X343000Y367000D02*
X343000Y307000D01*
D11*
X277500Y378000D02*
X277502Y378070D01*
X277508Y378140D01*
X277518Y378209D01*
X277531Y378278D01*
X277549Y378346D01*
X277570Y378413D01*
X277595Y378478D01*
X277624Y378542D01*
X277656Y378605D01*
X277692Y378665D01*
X277731Y378723D01*
X277773Y378779D01*
X277818Y378833D01*
X277866Y378884D01*
X277917Y378932D01*
X277971Y378977D01*
X278027Y379019D01*
X278085Y379058D01*
X278145Y379094D01*
X278208Y379126D01*
X278272Y379155D01*
X278337Y379180D01*
X278404Y379201D01*
X278472Y379219D01*
X278541Y379232D01*
X278610Y379242D01*
X278680Y379248D01*
X278750Y379250D01*
X278820Y379248D01*
X278890Y379242D01*
X278959Y379232D01*
X279028Y379219D01*
X279096Y379201D01*
X279163Y379180D01*
X279228Y379155D01*
X279292Y379126D01*
X279355Y379094D01*
X279415Y379058D01*
X279473Y379019D01*
X279529Y378977D01*
X279583Y378932D01*
X279634Y378884D01*
X279682Y378833D01*
X279727Y378779D01*
X279769Y378723D01*
X279808Y378665D01*
X279844Y378605D01*
X279876Y378542D01*
X279905Y378478D01*
X279930Y378413D01*
X279951Y378346D01*
X279969Y378278D01*
X279982Y378209D01*
X279992Y378140D01*
X279998Y378070D01*
X280000Y378000D01*
X279998Y377930D01*
X279992Y377860D01*
X279982Y377791D01*
X279969Y377722D01*
X279951Y377654D01*
X279930Y377587D01*
X279905Y377522D01*
X279876Y377458D01*
X279844Y377395D01*
X279808Y377335D01*
X279769Y377277D01*
X279727Y377221D01*
X279682Y377167D01*
X279634Y377116D01*
X279583Y377068D01*
X279529Y377023D01*
X279473Y376981D01*
X279415Y376942D01*
X279355Y376906D01*
X279292Y376874D01*
X279228Y376845D01*
X279163Y376820D01*
X279096Y376799D01*
X279028Y376781D01*
X278959Y376768D01*
X278890Y376758D01*
X278820Y376752D01*
X278750Y376750D01*
X278680Y376752D01*
X278610Y376758D01*
X278541Y376768D01*
X278472Y376781D01*
X278404Y376799D01*
X278337Y376820D01*
X278272Y376845D01*
X278208Y376874D01*
X278145Y376906D01*
X278085Y376942D01*
X278027Y376981D01*
X277971Y377023D01*
X277917Y377068D01*
X277866Y377116D01*
X277818Y377167D01*
X277773Y377221D01*
X277731Y377277D01*
X277692Y377335D01*
X277656Y377395D01*
X277624Y377458D01*
X277595Y377522D01*
X277570Y377587D01*
X277549Y377654D01*
X277531Y377722D01*
X277518Y377791D01*
X277508Y377860D01*
X277502Y377930D01*
X277500Y378000D01*
D12*
X290000Y357000D02*
X290002Y357109D01*
X290008Y357218D01*
X290018Y357326D01*
X290032Y357434D01*
X290049Y357542D01*
X290071Y357649D01*
X290096Y357755D01*
X290126Y357859D01*
X290159Y357963D01*
X290196Y358066D01*
X290236Y358167D01*
X290280Y358266D01*
X290328Y358364D01*
X290380Y358461D01*
X290434Y358555D01*
X290492Y358647D01*
X290554Y358737D01*
X290619Y358824D01*
X290686Y358910D01*
X290757Y358993D01*
X290831Y359073D01*
X290908Y359150D01*
X290987Y359225D01*
X291069Y359296D01*
X291154Y359365D01*
X291241Y359430D01*
X291330Y359493D01*
X291422Y359551D01*
X291516Y359607D01*
X291611Y359659D01*
X291709Y359708D01*
X291808Y359753D01*
X291909Y359795D01*
X292011Y359832D01*
X292114Y359866D01*
X292219Y359897D01*
X292325Y359923D01*
X292431Y359946D01*
X292539Y359964D01*
X292647Y359979D01*
X292755Y359990D01*
X292864Y359997D01*
X292973Y360000D01*
X293082Y359999D01*
X293191Y359994D01*
X293299Y359985D01*
X293407Y359972D01*
X293515Y359955D01*
X293622Y359935D01*
X293728Y359910D01*
X293833Y359882D01*
X293937Y359850D01*
X294040Y359814D01*
X294142Y359774D01*
X294242Y359731D01*
X294340Y359684D01*
X294437Y359634D01*
X294531Y359580D01*
X294624Y359522D01*
X294715Y359462D01*
X294803Y359398D01*
X294889Y359331D01*
X294972Y359261D01*
X295053Y359188D01*
X295131Y359112D01*
X295206Y359033D01*
X295279Y358951D01*
X295348Y358867D01*
X295414Y358781D01*
X295477Y358692D01*
X295537Y358601D01*
X295594Y358508D01*
X295647Y358413D01*
X295696Y358316D01*
X295742Y358217D01*
X295784Y358117D01*
X295823Y358015D01*
X295858Y357911D01*
X295889Y357807D01*
X295917Y357702D01*
X295940Y357595D01*
X295960Y357488D01*
X295976Y357380D01*
X295988Y357272D01*
X295996Y357163D01*
X296000Y357054D01*
X296000Y356946D01*
X295996Y356837D01*
X295988Y356728D01*
X295976Y356620D01*
X295960Y356512D01*
X295940Y356405D01*
X295917Y356298D01*
X295889Y356193D01*
X295858Y356089D01*
X295823Y355985D01*
X295784Y355883D01*
X295742Y355783D01*
X295696Y355684D01*
X295647Y355587D01*
X295594Y355492D01*
X295537Y355399D01*
X295477Y355308D01*
X295414Y355219D01*
X295348Y355133D01*
X295279Y355049D01*
X295206Y354967D01*
X295131Y354888D01*
X295053Y354812D01*
X294972Y354739D01*
X294889Y354669D01*
X294803Y354602D01*
X294715Y354538D01*
X294624Y354478D01*
X294531Y354420D01*
X294437Y354366D01*
X294340Y354316D01*
X294242Y354269D01*
X294142Y354226D01*
X294040Y354186D01*
X293937Y354150D01*
X293833Y354118D01*
X293728Y354090D01*
X293622Y354065D01*
X293515Y354045D01*
X293407Y354028D01*
X293299Y354015D01*
X293191Y354006D01*
X293082Y354001D01*
X292973Y354000D01*
X292864Y354003D01*
X292755Y354010D01*
X292647Y354021D01*
X292539Y354036D01*
X292431Y354054D01*
X292325Y354077D01*
X292219Y354103D01*
X292114Y354134D01*
X292011Y354168D01*
X291909Y354205D01*
X291808Y354247D01*
X291709Y354292D01*
X291611Y354341D01*
X291516Y354393D01*
X291422Y354449D01*
X291330Y354507D01*
X291241Y354570D01*
X291154Y354635D01*
X291069Y354704D01*
X290987Y354775D01*
X290908Y354850D01*
X290831Y354927D01*
X290757Y355007D01*
X290686Y355090D01*
X290619Y355176D01*
X290554Y355263D01*
X290492Y355353D01*
X290434Y355445D01*
X290380Y355539D01*
X290328Y355636D01*
X290280Y355734D01*
X290236Y355833D01*
X290196Y355934D01*
X290159Y356037D01*
X290126Y356141D01*
X290096Y356245D01*
X290071Y356351D01*
X290049Y356458D01*
X290032Y356566D01*
X290018Y356674D01*
X290008Y356782D01*
X290002Y356891D01*
X290000Y357000D01*
D13*
X348009Y395250D02*
X348009Y412750D01*
X363991Y412750D02*
X363991Y395250D01*
D10*
X212000Y157000D02*
X152000Y157000D01*
X152000Y217000D02*
X212000Y217000D01*
X212000Y157000D01*
X152000Y157000D02*
X152000Y217000D01*
D11*
X215000Y146000D02*
X215002Y146070D01*
X215008Y146140D01*
X215018Y146209D01*
X215031Y146278D01*
X215049Y146346D01*
X215070Y146413D01*
X215095Y146478D01*
X215124Y146542D01*
X215156Y146605D01*
X215192Y146665D01*
X215231Y146723D01*
X215273Y146779D01*
X215318Y146833D01*
X215366Y146884D01*
X215417Y146932D01*
X215471Y146977D01*
X215527Y147019D01*
X215585Y147058D01*
X215645Y147094D01*
X215708Y147126D01*
X215772Y147155D01*
X215837Y147180D01*
X215904Y147201D01*
X215972Y147219D01*
X216041Y147232D01*
X216110Y147242D01*
X216180Y147248D01*
X216250Y147250D01*
X216320Y147248D01*
X216390Y147242D01*
X216459Y147232D01*
X216528Y147219D01*
X216596Y147201D01*
X216663Y147180D01*
X216728Y147155D01*
X216792Y147126D01*
X216855Y147094D01*
X216915Y147058D01*
X216973Y147019D01*
X217029Y146977D01*
X217083Y146932D01*
X217134Y146884D01*
X217182Y146833D01*
X217227Y146779D01*
X217269Y146723D01*
X217308Y146665D01*
X217344Y146605D01*
X217376Y146542D01*
X217405Y146478D01*
X217430Y146413D01*
X217451Y146346D01*
X217469Y146278D01*
X217482Y146209D01*
X217492Y146140D01*
X217498Y146070D01*
X217500Y146000D01*
X217498Y145930D01*
X217492Y145860D01*
X217482Y145791D01*
X217469Y145722D01*
X217451Y145654D01*
X217430Y145587D01*
X217405Y145522D01*
X217376Y145458D01*
X217344Y145395D01*
X217308Y145335D01*
X217269Y145277D01*
X217227Y145221D01*
X217182Y145167D01*
X217134Y145116D01*
X217083Y145068D01*
X217029Y145023D01*
X216973Y144981D01*
X216915Y144942D01*
X216855Y144906D01*
X216792Y144874D01*
X216728Y144845D01*
X216663Y144820D01*
X216596Y144799D01*
X216528Y144781D01*
X216459Y144768D01*
X216390Y144758D01*
X216320Y144752D01*
X216250Y144750D01*
X216180Y144752D01*
X216110Y144758D01*
X216041Y144768D01*
X215972Y144781D01*
X215904Y144799D01*
X215837Y144820D01*
X215772Y144845D01*
X215708Y144874D01*
X215645Y144906D01*
X215585Y144942D01*
X215527Y144981D01*
X215471Y145023D01*
X215417Y145068D01*
X215366Y145116D01*
X215318Y145167D01*
X215273Y145221D01*
X215231Y145277D01*
X215192Y145335D01*
X215156Y145395D01*
X215124Y145458D01*
X215095Y145522D01*
X215070Y145587D01*
X215049Y145654D01*
X215031Y145722D01*
X215018Y145791D01*
X215008Y145860D01*
X215002Y145930D01*
X215000Y146000D01*
D12*
X199000Y167000D02*
X199002Y167109D01*
X199008Y167218D01*
X199018Y167326D01*
X199032Y167434D01*
X199049Y167542D01*
X199071Y167649D01*
X199096Y167755D01*
X199126Y167859D01*
X199159Y167963D01*
X199196Y168066D01*
X199236Y168167D01*
X199280Y168266D01*
X199328Y168364D01*
X199380Y168461D01*
X199434Y168555D01*
X199492Y168647D01*
X199554Y168737D01*
X199619Y168824D01*
X199686Y168910D01*
X199757Y168993D01*
X199831Y169073D01*
X199908Y169150D01*
X199987Y169225D01*
X200069Y169296D01*
X200154Y169365D01*
X200241Y169430D01*
X200330Y169493D01*
X200422Y169551D01*
X200516Y169607D01*
X200611Y169659D01*
X200709Y169708D01*
X200808Y169753D01*
X200909Y169795D01*
X201011Y169832D01*
X201114Y169866D01*
X201219Y169897D01*
X201325Y169923D01*
X201431Y169946D01*
X201539Y169964D01*
X201647Y169979D01*
X201755Y169990D01*
X201864Y169997D01*
X201973Y170000D01*
X202082Y169999D01*
X202191Y169994D01*
X202299Y169985D01*
X202407Y169972D01*
X202515Y169955D01*
X202622Y169935D01*
X202728Y169910D01*
X202833Y169882D01*
X202937Y169850D01*
X203040Y169814D01*
X203142Y169774D01*
X203242Y169731D01*
X203340Y169684D01*
X203437Y169634D01*
X203531Y169580D01*
X203624Y169522D01*
X203715Y169462D01*
X203803Y169398D01*
X203889Y169331D01*
X203972Y169261D01*
X204053Y169188D01*
X204131Y169112D01*
X204206Y169033D01*
X204279Y168951D01*
X204348Y168867D01*
X204414Y168781D01*
X204477Y168692D01*
X204537Y168601D01*
X204594Y168508D01*
X204647Y168413D01*
X204696Y168316D01*
X204742Y168217D01*
X204784Y168117D01*
X204823Y168015D01*
X204858Y167911D01*
X204889Y167807D01*
X204917Y167702D01*
X204940Y167595D01*
X204960Y167488D01*
X204976Y167380D01*
X204988Y167272D01*
X204996Y167163D01*
X205000Y167054D01*
X205000Y166946D01*
X204996Y166837D01*
X204988Y166728D01*
X204976Y166620D01*
X204960Y166512D01*
X204940Y166405D01*
X204917Y166298D01*
X204889Y166193D01*
X204858Y166089D01*
X204823Y165985D01*
X204784Y165883D01*
X204742Y165783D01*
X204696Y165684D01*
X204647Y165587D01*
X204594Y165492D01*
X204537Y165399D01*
X204477Y165308D01*
X204414Y165219D01*
X204348Y165133D01*
X204279Y165049D01*
X204206Y164967D01*
X204131Y164888D01*
X204053Y164812D01*
X203972Y164739D01*
X203889Y164669D01*
X203803Y164602D01*
X203715Y164538D01*
X203624Y164478D01*
X203531Y164420D01*
X203437Y164366D01*
X203340Y164316D01*
X203242Y164269D01*
X203142Y164226D01*
X203040Y164186D01*
X202937Y164150D01*
X202833Y164118D01*
X202728Y164090D01*
X202622Y164065D01*
X202515Y164045D01*
X202407Y164028D01*
X202299Y164015D01*
X202191Y164006D01*
X202082Y164001D01*
X201973Y164000D01*
X201864Y164003D01*
X201755Y164010D01*
X201647Y164021D01*
X201539Y164036D01*
X201431Y164054D01*
X201325Y164077D01*
X201219Y164103D01*
X201114Y164134D01*
X201011Y164168D01*
X200909Y164205D01*
X200808Y164247D01*
X200709Y164292D01*
X200611Y164341D01*
X200516Y164393D01*
X200422Y164449D01*
X200330Y164507D01*
X200241Y164570D01*
X200154Y164635D01*
X200069Y164704D01*
X199987Y164775D01*
X199908Y164850D01*
X199831Y164927D01*
X199757Y165007D01*
X199686Y165090D01*
X199619Y165176D01*
X199554Y165263D01*
X199492Y165353D01*
X199434Y165445D01*
X199380Y165539D01*
X199328Y165636D01*
X199280Y165734D01*
X199236Y165833D01*
X199196Y165934D01*
X199159Y166037D01*
X199126Y166141D01*
X199096Y166245D01*
X199071Y166351D01*
X199049Y166458D01*
X199032Y166566D01*
X199018Y166674D01*
X199008Y166782D01*
X199002Y166891D01*
X199000Y167000D01*
D13*
X148991Y130750D02*
X148991Y113250D01*
X133009Y113250D02*
X133009Y130750D01*
X135250Y10500D02*
X208750Y10500D01*
X208750Y75500D01*
X135250Y75500D01*
X135250Y10500D01*
X128688Y12500D02*
X128690Y12591D01*
X128696Y12681D01*
X128706Y12771D01*
X128720Y12861D01*
X128738Y12949D01*
X128759Y13037D01*
X128785Y13124D01*
X128814Y13210D01*
X128847Y13294D01*
X128884Y13377D01*
X128924Y13458D01*
X128968Y13538D01*
X129015Y13615D01*
X129066Y13690D01*
X129120Y13763D01*
X129177Y13833D01*
X129237Y13901D01*
X129300Y13966D01*
X129366Y14028D01*
X129434Y14088D01*
X129505Y14144D01*
X129579Y14197D01*
X129654Y14247D01*
X129732Y14293D01*
X129812Y14336D01*
X129893Y14376D01*
X129977Y14411D01*
X130061Y14444D01*
X130147Y14472D01*
X130235Y14497D01*
X130323Y14517D01*
X130412Y14534D01*
X130501Y14547D01*
X130592Y14556D01*
X130682Y14561D01*
X130773Y14562D01*
X130863Y14559D01*
X130954Y14552D01*
X131043Y14541D01*
X131133Y14526D01*
X131221Y14507D01*
X131309Y14485D01*
X131396Y14458D01*
X131481Y14428D01*
X131565Y14394D01*
X131648Y14356D01*
X131728Y14315D01*
X131807Y14270D01*
X131884Y14222D01*
X131958Y14171D01*
X132031Y14116D01*
X132100Y14058D01*
X132167Y13998D01*
X132232Y13934D01*
X132293Y13867D01*
X132352Y13798D01*
X132407Y13727D01*
X132460Y13653D01*
X132509Y13576D01*
X132554Y13498D01*
X132596Y13418D01*
X132635Y13336D01*
X132670Y13252D01*
X132701Y13167D01*
X132728Y13081D01*
X132752Y12993D01*
X132772Y12905D01*
X132788Y12816D01*
X132800Y12726D01*
X132808Y12636D01*
X132812Y12545D01*
X132812Y12455D01*
X132808Y12364D01*
X132800Y12274D01*
X132788Y12184D01*
X132772Y12095D01*
X132752Y12007D01*
X132728Y11919D01*
X132701Y11833D01*
X132670Y11748D01*
X132635Y11664D01*
X132596Y11582D01*
X132554Y11502D01*
X132509Y11424D01*
X132460Y11347D01*
X132407Y11273D01*
X132352Y11202D01*
X132293Y11133D01*
X132232Y11066D01*
X132167Y11002D01*
X132100Y10942D01*
X132031Y10884D01*
X131958Y10829D01*
X131884Y10778D01*
X131807Y10730D01*
X131728Y10685D01*
X131648Y10644D01*
X131565Y10606D01*
X131481Y10572D01*
X131396Y10542D01*
X131309Y10515D01*
X131221Y10493D01*
X131133Y10474D01*
X131043Y10459D01*
X130954Y10448D01*
X130863Y10441D01*
X130773Y10438D01*
X130682Y10439D01*
X130592Y10444D01*
X130501Y10453D01*
X130412Y10466D01*
X130323Y10483D01*
X130235Y10503D01*
X130147Y10528D01*
X130061Y10556D01*
X129977Y10589D01*
X129893Y10624D01*
X129812Y10664D01*
X129732Y10707D01*
X129654Y10753D01*
X129579Y10803D01*
X129505Y10856D01*
X129434Y10912D01*
X129366Y10972D01*
X129300Y11034D01*
X129237Y11099D01*
X129177Y11167D01*
X129120Y11237D01*
X129066Y11310D01*
X129015Y11385D01*
X128968Y11462D01*
X128924Y11542D01*
X128884Y11623D01*
X128847Y11706D01*
X128814Y11790D01*
X128785Y11876D01*
X128759Y11963D01*
X128738Y12051D01*
X128720Y12139D01*
X128706Y12229D01*
X128696Y12319D01*
X128690Y12409D01*
X128688Y12500D01*
M02*
