G04 EAGLE Gerber RS-274X export*
G75*
%MOMM*%
%FSLAX34Y34*%
%LPD*%
%INSolderpaste Top*%
%IPPOS*%
%AMOC8*
5,1,8,0,0,1.08239X$1,22.5*%
G01*
G04 Define Apertures*
%ADD10C,0.250000*%
%ADD11R,0.970200X0.920900*%
%ADD12R,1.164600X1.465300*%
D10*
X209500Y372250D02*
X209500Y383750D01*
X204500Y383750D02*
X204500Y372250D01*
X199500Y372250D02*
X199500Y383750D01*
X194500Y383750D02*
X194500Y372250D01*
X189500Y372250D02*
X189500Y383750D01*
X184500Y383750D02*
X184500Y372250D01*
X179500Y372250D02*
X179500Y383750D01*
X174500Y383750D02*
X174500Y372250D01*
X169500Y372250D02*
X169500Y383750D01*
X164500Y383750D02*
X164500Y372250D01*
X159500Y372250D02*
X159500Y383750D01*
X154500Y383750D02*
X154500Y372250D01*
X146750Y364500D02*
X135250Y364500D01*
X135250Y359500D02*
X146750Y359500D01*
X146750Y354500D02*
X135250Y354500D01*
X135250Y349500D02*
X146750Y349500D01*
X146750Y344500D02*
X135250Y344500D01*
X135250Y339500D02*
X146750Y339500D01*
X146750Y334500D02*
X135250Y334500D01*
X135250Y329500D02*
X146750Y329500D01*
X146750Y324500D02*
X135250Y324500D01*
X135250Y319500D02*
X146750Y319500D01*
X146750Y314500D02*
X135250Y314500D01*
X135250Y309500D02*
X146750Y309500D01*
X154500Y301750D02*
X154500Y290250D01*
X159500Y290250D02*
X159500Y301750D01*
X164500Y301750D02*
X164500Y290250D01*
X169500Y290250D02*
X169500Y301750D01*
X174500Y301750D02*
X174500Y290250D01*
X179500Y290250D02*
X179500Y301750D01*
X184500Y301750D02*
X184500Y290250D01*
X189500Y290250D02*
X189500Y301750D01*
X194500Y301750D02*
X194500Y290250D01*
X199500Y290250D02*
X199500Y301750D01*
X204500Y301750D02*
X204500Y290250D01*
X209500Y290250D02*
X209500Y301750D01*
X217250Y309500D02*
X228750Y309500D01*
X228750Y314500D02*
X217250Y314500D01*
X217250Y319500D02*
X228750Y319500D01*
X228750Y324500D02*
X217250Y324500D01*
X217250Y329500D02*
X228750Y329500D01*
X228750Y334500D02*
X217250Y334500D01*
X217250Y339500D02*
X228750Y339500D01*
X228750Y344500D02*
X217250Y344500D01*
X217250Y349500D02*
X228750Y349500D01*
X228750Y354500D02*
X217250Y354500D01*
X217250Y359500D02*
X228750Y359500D01*
X228750Y364500D02*
X217250Y364500D01*
D11*
X144000Y419746D03*
X144000Y404254D03*
D10*
X285500Y151750D02*
X285500Y140250D01*
X290500Y140250D02*
X290500Y151750D01*
X295500Y151750D02*
X295500Y140250D01*
X300500Y140250D02*
X300500Y151750D01*
X305500Y151750D02*
X305500Y140250D01*
X310500Y140250D02*
X310500Y151750D01*
X315500Y151750D02*
X315500Y140250D01*
X320500Y140250D02*
X320500Y151750D01*
X325500Y151750D02*
X325500Y140250D01*
X330500Y140250D02*
X330500Y151750D01*
X335500Y151750D02*
X335500Y140250D01*
X340500Y140250D02*
X340500Y151750D01*
X348250Y159500D02*
X359750Y159500D01*
X359750Y164500D02*
X348250Y164500D01*
X348250Y169500D02*
X359750Y169500D01*
X359750Y174500D02*
X348250Y174500D01*
X348250Y179500D02*
X359750Y179500D01*
X359750Y184500D02*
X348250Y184500D01*
X348250Y189500D02*
X359750Y189500D01*
X359750Y194500D02*
X348250Y194500D01*
X348250Y199500D02*
X359750Y199500D01*
X359750Y204500D02*
X348250Y204500D01*
X348250Y209500D02*
X359750Y209500D01*
X359750Y214500D02*
X348250Y214500D01*
X340500Y222250D02*
X340500Y233750D01*
X335500Y233750D02*
X335500Y222250D01*
X330500Y222250D02*
X330500Y233750D01*
X325500Y233750D02*
X325500Y222250D01*
X320500Y222250D02*
X320500Y233750D01*
X315500Y233750D02*
X315500Y222250D01*
X310500Y222250D02*
X310500Y233750D01*
X305500Y233750D02*
X305500Y222250D01*
X300500Y222250D02*
X300500Y233750D01*
X295500Y233750D02*
X295500Y222250D01*
X290500Y222250D02*
X290500Y233750D01*
X285500Y233750D02*
X285500Y222250D01*
X277750Y214500D02*
X266250Y214500D01*
X266250Y209500D02*
X277750Y209500D01*
X277750Y204500D02*
X266250Y204500D01*
X266250Y199500D02*
X277750Y199500D01*
X277750Y194500D02*
X266250Y194500D01*
X266250Y189500D02*
X277750Y189500D01*
X277750Y184500D02*
X266250Y184500D01*
X266250Y179500D02*
X277750Y179500D01*
X277750Y174500D02*
X266250Y174500D01*
X266250Y169500D02*
X277750Y169500D01*
X277750Y164500D02*
X266250Y164500D01*
X266250Y159500D02*
X277750Y159500D01*
D11*
X360000Y112254D03*
X360000Y127746D03*
D12*
X198754Y53000D03*
X181246Y53000D03*
M02*
