G04 EAGLE Gerber RS-274X export*
G75*
%MOMM*%
%FSLAX34Y34*%
%LPD*%
%INSolderpaste Bottom*%
%IPPOS*%
%AMOC8*
5,1,8,0,0,1.08239X$1,22.5*%
G01*
G04 Define Apertures*
%ADD10C,0.250000*%
%ADD11R,0.970200X0.920900*%
%ADD12R,0.550000X1.500000*%
D10*
X285500Y383750D02*
X285500Y372250D01*
X290500Y372250D02*
X290500Y383750D01*
X295500Y383750D02*
X295500Y372250D01*
X300500Y372250D02*
X300500Y383750D01*
X305500Y383750D02*
X305500Y372250D01*
X310500Y372250D02*
X310500Y383750D01*
X315500Y383750D02*
X315500Y372250D01*
X320500Y372250D02*
X320500Y383750D01*
X325500Y383750D02*
X325500Y372250D01*
X330500Y372250D02*
X330500Y383750D01*
X335500Y383750D02*
X335500Y372250D01*
X340500Y372250D02*
X340500Y383750D01*
X348250Y364500D02*
X359750Y364500D01*
X359750Y359500D02*
X348250Y359500D01*
X348250Y354500D02*
X359750Y354500D01*
X359750Y349500D02*
X348250Y349500D01*
X348250Y344500D02*
X359750Y344500D01*
X359750Y339500D02*
X348250Y339500D01*
X348250Y334500D02*
X359750Y334500D01*
X359750Y329500D02*
X348250Y329500D01*
X348250Y324500D02*
X359750Y324500D01*
X359750Y319500D02*
X348250Y319500D01*
X348250Y314500D02*
X359750Y314500D01*
X359750Y309500D02*
X348250Y309500D01*
X340500Y301750D02*
X340500Y290250D01*
X335500Y290250D02*
X335500Y301750D01*
X330500Y301750D02*
X330500Y290250D01*
X325500Y290250D02*
X325500Y301750D01*
X320500Y301750D02*
X320500Y290250D01*
X315500Y290250D02*
X315500Y301750D01*
X310500Y301750D02*
X310500Y290250D01*
X305500Y290250D02*
X305500Y301750D01*
X300500Y301750D02*
X300500Y290250D01*
X295500Y290250D02*
X295500Y301750D01*
X290500Y301750D02*
X290500Y290250D01*
X285500Y290250D02*
X285500Y301750D01*
X277750Y309500D02*
X266250Y309500D01*
X266250Y314500D02*
X277750Y314500D01*
X277750Y319500D02*
X266250Y319500D01*
X266250Y324500D02*
X277750Y324500D01*
X277750Y329500D02*
X266250Y329500D01*
X266250Y334500D02*
X277750Y334500D01*
X277750Y339500D02*
X266250Y339500D01*
X266250Y344500D02*
X277750Y344500D01*
X277750Y349500D02*
X266250Y349500D01*
X266250Y354500D02*
X277750Y354500D01*
X277750Y359500D02*
X266250Y359500D01*
X266250Y364500D02*
X277750Y364500D01*
D11*
X356000Y411746D03*
X356000Y396254D03*
D10*
X209500Y151750D02*
X209500Y140250D01*
X204500Y140250D02*
X204500Y151750D01*
X199500Y151750D02*
X199500Y140250D01*
X194500Y140250D02*
X194500Y151750D01*
X189500Y151750D02*
X189500Y140250D01*
X184500Y140250D02*
X184500Y151750D01*
X179500Y151750D02*
X179500Y140250D01*
X174500Y140250D02*
X174500Y151750D01*
X169500Y151750D02*
X169500Y140250D01*
X164500Y140250D02*
X164500Y151750D01*
X159500Y151750D02*
X159500Y140250D01*
X154500Y140250D02*
X154500Y151750D01*
X146750Y159500D02*
X135250Y159500D01*
X135250Y164500D02*
X146750Y164500D01*
X146750Y169500D02*
X135250Y169500D01*
X135250Y174500D02*
X146750Y174500D01*
X146750Y179500D02*
X135250Y179500D01*
X135250Y184500D02*
X146750Y184500D01*
X146750Y189500D02*
X135250Y189500D01*
X135250Y194500D02*
X146750Y194500D01*
X146750Y199500D02*
X135250Y199500D01*
X135250Y204500D02*
X146750Y204500D01*
X146750Y209500D02*
X135250Y209500D01*
X135250Y214500D02*
X146750Y214500D01*
X154500Y222250D02*
X154500Y233750D01*
X159500Y233750D02*
X159500Y222250D01*
X164500Y222250D02*
X164500Y233750D01*
X169500Y233750D02*
X169500Y222250D01*
X174500Y222250D02*
X174500Y233750D01*
X179500Y233750D02*
X179500Y222250D01*
X184500Y222250D02*
X184500Y233750D01*
X189500Y233750D02*
X189500Y222250D01*
X194500Y222250D02*
X194500Y233750D01*
X199500Y233750D02*
X199500Y222250D01*
X204500Y222250D02*
X204500Y233750D01*
X209500Y233750D02*
X209500Y222250D01*
X217250Y214500D02*
X228750Y214500D01*
X228750Y209500D02*
X217250Y209500D01*
X217250Y204500D02*
X228750Y204500D01*
X228750Y199500D02*
X217250Y199500D01*
X217250Y194500D02*
X228750Y194500D01*
X228750Y189500D02*
X217250Y189500D01*
X217250Y184500D02*
X228750Y184500D01*
X228750Y179500D02*
X217250Y179500D01*
X217250Y174500D02*
X228750Y174500D01*
X228750Y169500D02*
X217250Y169500D01*
X217250Y164500D02*
X228750Y164500D01*
X228750Y159500D02*
X217250Y159500D01*
D11*
X141000Y114254D03*
X141000Y129746D03*
D12*
X140000Y23500D03*
X140000Y62500D03*
X148000Y23500D03*
X148000Y62500D03*
X156000Y23500D03*
X156000Y62500D03*
X164000Y23500D03*
X164000Y62500D03*
X172000Y23500D03*
X172000Y62500D03*
X180000Y23500D03*
X180000Y62500D03*
X188000Y23500D03*
X188000Y62500D03*
X196000Y23500D03*
X196000Y62500D03*
X204000Y23500D03*
X204000Y62500D03*
M02*
