M48
;GenerationSoftware,Autodesk,EAGLE,9.7.0*%
;CreationDate,2021-10-13T20:45:26Z*%
FMAT,2
ICI,OFF
METRIC,TZ,000.000
T3C0.350
T2C0.650
T1C0.700
%
G90
M71
T1
X7725Y1700
X2275Y1700
T2
X7425Y4730
X2575Y4730
T3
X6400Y22000
X5500Y22900
X6400Y24200
X7300Y23300
X22300Y51100
X22300Y50100
X21300Y51100
X21300Y50100
X22400Y55000
X23400Y55000
X24400Y55000
X21400Y55000
X33000Y29500
X32000Y29500
X34300Y27400
X35300Y27400
X900Y59100
X39100Y59100
X39100Y900
X39100Y1900
X39100Y2900
X38100Y900
X37100Y900
X39100Y28800
X39100Y27800
X39100Y26800
X39100Y25800
X39100Y24800
X39100Y23800
X39100Y22800
X39100Y21800
X5300Y48700
X5300Y46900
X5300Y45000
X12000Y48700
X12000Y46800
X12000Y45000
X28200Y46000
X29200Y46000
X30200Y46000
X28200Y45000
X29200Y45000
X30200Y45000
X30200Y13200
X29400Y8000
X16100Y13600
X16100Y12600
X17100Y13600
X17100Y12600
X10500Y23100
X16400Y29100
X16300Y47600
X5900Y50500
X7200Y51700
X16400Y42000
X20300Y19500
X3600Y43100
X13600Y36007
X2907Y34700
X3600Y20500
X6300Y32800
X36400Y14300
X36400Y12300
X11300Y58100
X30400Y20600
X17300Y21100
X38207Y47500
X25400Y21100
X25400Y22800
X36400Y10300
X36400Y9300
X36400Y13300
X9600Y33300
X30200Y9600
X9207Y32400
X3100Y8300
X2100Y8300
X3100Y7300
X2100Y7300
X10400Y17100
X21600Y10400
X14300Y13600
X14300Y12600
X13300Y12600
X31700Y23600
X15300Y24500
X25600Y50269
X31900Y46700
X38800Y51200
X38800Y50200
X31975Y42095
X28071Y30629
X38807Y55500
X38807Y54500
X37800Y40200
X26900Y48200
X30200Y28500
X24800Y32100
X24800Y32993
X21800Y40300
X29600Y35707
X36400Y11300
X3100Y58100
X38200Y48500
X29400Y20600
X17300Y22100
X31400Y20600
X10000Y34400
X14200Y49000
X13200Y49000
X14700Y53300
X13791Y53300
X12882Y53300
X11974Y53300
X11065Y53300
X10156Y53300
X9247Y53300
X8338Y53300
X15200Y45200
X15700Y33193
X14291Y45200
X14700Y33193
X5700Y28200
X4900Y58100
X5700Y27200
X6200Y58100
X17600Y58100
X1693Y27200
X1800Y20500
X16600Y24500
X16400Y43000
X37300Y53300
X11300Y34407
X32000Y57700
X30332Y32900
X33000Y57700
X31240Y32900
X33300Y53300
X32149Y32900
X34000Y57700
X33058Y32900
X33900Y48700
X33967Y32900
X34876Y32900
X34993Y57700
X4900Y29000
X4900Y25600
X4400Y7300
X5647Y7300
X27800Y53500
X30800Y53500
X25800Y46300
X25800Y38300
X33593Y38200
X34888Y47400
X28100Y25650
X35600Y25600
X35784Y32900
X35482Y53300
X36693Y32900
X36391Y53300
X21600Y8100
X20300Y8100
X20300Y10400
X13300Y13600
M30