M48
;GenerationSoftware,Autodesk,EAGLE,9.7.0*%
;CreationDate,2021-12-24T03:40:32Z*%
FMAT,2
ICI,OFF
METRIC,TZ,000.000
T3C0.350
T2C0.800
T1C1.016
%
G90
M71
T1
X7330Y40850
X9870Y40850
X7330Y38310
X9870Y38310
X7330Y35770
X9870Y35770
X7330Y33230
X9870Y33230
X7330Y30690
X9870Y30690
X7330Y28150
X9870Y28150
X7330Y25610
X9870Y25610
X7330Y23070
X9870Y23070
X7330Y20530
X9870Y20530
X7330Y17990
X9870Y17990
X7330Y15450
X9870Y15450
X7330Y12910
X9870Y12910
X7330Y10370
X9870Y10370
X7330Y7830
X9870Y7830
X7330Y5290
X9870Y5290
X7330Y2750
X9870Y2750
T2
X21300Y5600
X13000Y5600
T3
X16379Y35721
X33121Y35721
X33121Y16679
X16491Y16680
X17000Y36300
X32500Y36300
X32500Y16100
X17062Y16110
X17807Y36300
X31693Y36300
X31693Y16093
X17869Y16093
X18614Y36307
X30875Y16100
X30886Y36307
X18676Y16100
X19422Y36300
X30068Y16100
X30078Y36300
X19483Y16100
X29461Y16657
X29413Y35800
X20054Y16671
X20093Y35800
X20500Y35014
X29074Y17412
X29000Y35014
X20440Y17426
X20800Y34207
X28710Y18190
X28700Y34207
X20804Y18204
X28380Y18997
X28400Y33400
X21087Y33400
X21107Y19011
X23600Y15500
X23600Y36929
X23600Y16307
X23600Y36122
X23600Y17114
X23607Y35314
X23600Y17922
X23607Y34507
X34219Y25205
X14881Y25856
X33890Y26012
X15689Y26074
X33525Y26789
X16045Y26859
X33138Y27544
X16432Y27614
X36600Y20800
X17028Y28160
X31725Y28100
X17835Y28100
X30907Y28107
X18642Y28107
X30100Y28100
X19449Y28100
X20100Y27600
X29400Y27600
X20500Y26814
X29000Y26814
X20800Y26007
X28700Y26007
X21100Y25200
X28400Y25200
X23600Y30471
X23600Y21904
X23600Y31278
X23600Y21097
X23600Y32086
X23607Y20290
X23600Y32893
X23607Y19482
X36600Y33100
X36600Y19300
X12900Y33100
X15800Y8900
X15600Y3700
X22700Y30100
X26000Y18300
X25900Y33900
X26700Y30100
X12900Y35800
X12900Y36700
X36600Y16600
X36600Y15700
X36600Y35900
X36600Y36800
X15700Y13100
X16500Y13100
X16800Y4700
X16800Y3900
X36600Y34000
X36600Y18400
X12900Y34000
X15807Y9707
X36600Y17500
X18807Y3700
X36600Y34900
X18000Y3700
X12900Y34900
X18000Y7700
X15907Y17238
X15900Y35020
X33600Y17386
X33600Y35014
X15704Y18045
X15600Y34212
X33900Y18193
X33900Y34207
X15309Y18791
X15305Y33405
X34200Y19000
X34200Y33400
X15700Y11500
X14800Y900
X14000Y900
X7900Y42600
X6800Y42600
X7900Y800
X6800Y800
X15800Y41493
X13000Y41493
X36700Y41500
X36700Y42600
X35600Y800
X36700Y1900
X36700Y800
X34300Y41200
X35600Y42600
X34700Y11200
X36000Y10000
X36600Y30700
X36600Y31600
X36600Y21700
X32532Y28100
M30