M48
;GenerationSoftware,Autodesk,EAGLE,9.7.0*%
;CreationDate,2021-12-24T03:16:29Z*%
FMAT,2
ICI,OFF
METRIC,TZ,000.000
T3C0.350
T2C0.800
T1C1.016
%
G90
M71
T1
X2130Y40850
X4670Y40850
X2130Y38310
X4670Y38310
X2130Y35770
X4670Y35770
X2130Y33230
X4670Y33230
X2130Y30690
X4670Y30690
X2130Y28150
X4670Y28150
X2130Y25610
X4670Y25610
X2130Y23070
X4670Y23070
X2130Y20530
X4670Y20530
X2130Y17990
X4670Y17990
X2130Y15450
X4670Y15450
X2130Y12910
X4670Y12910
X2130Y10370
X4670Y10370
X2130Y7830
X4670Y7830
X2130Y5290
X4670Y5290
X2130Y2750
X4670Y2750
T2
X15300Y5600
X7000Y5600
T3
X15600Y34212
X15677Y18072
X33600Y35014
X33600Y17386
X15900Y35020
X15907Y17265
X16379Y35721
X33121Y35721
X33121Y16679
X16477Y16694
X17000Y36300
X32500Y36300
X32500Y16100
X17048Y16123
X17807Y36300
X31693Y36300
X31693Y16093
X17855Y16093
X18614Y36307
X30875Y16100
X30886Y36307
X18663Y16100
X19422Y36300
X30068Y16100
X30078Y36300
X19480Y16100
X29461Y16657
X29413Y35800
X20093Y35800
X20052Y16669
X20500Y35014
X29074Y17412
X29000Y35014
X20438Y17425
X20800Y34207
X28710Y18190
X28700Y34207
X20802Y18202
X28380Y18997
X28400Y33400
X21087Y33400
X21074Y19009
X23600Y15500
X23600Y36929
X23600Y16307
X23600Y36122
X23600Y17114
X23607Y35314
X23600Y17922
X23607Y34507
X34219Y25205
X14881Y25723
X33890Y26012
X15672Y26074
X33525Y26789
X16037Y26851
X33138Y27544
X16424Y27606
X32532Y28100
X17019Y28152
X31725Y28100
X17827Y28100
X36600Y20800
X18634Y28107
X30100Y28100
X19441Y28100
X20100Y27600
X29400Y27600
X20500Y26814
X29000Y26814
X20800Y26007
X28700Y26007
X21100Y25200
X28400Y25200
X23600Y30471
X23600Y21904
X23600Y31278
X23600Y21097
X23600Y32086
X23600Y20290
X23600Y32893
X23596Y19482
X36600Y33100
X36600Y19300
X12900Y33100
X12913Y19400
X9607Y3800
X18000Y9400
X22700Y30100
X19200Y9400
X26000Y18300
X21600Y1100
X25900Y33900
X26700Y30100
X21600Y2800
X36600Y34900
X10414Y3800
X36600Y17500
X11222Y3800
X12900Y34900
X10414Y7700
X8800Y4900
X8000Y4900
X14800Y8900
X14000Y8900
X12900Y35800
X12900Y36700
X36600Y16600
X36600Y15700
X36600Y35900
X36600Y36800
X12900Y16700
X12900Y15800
X36600Y34000
X36600Y18400
X12900Y34000
X12913Y18500
X9607Y7700
X15600Y9400
X18807Y5000
X18800Y3600
X17993Y3600
X18000Y5000
X12913Y17600
X11222Y7700
X33900Y18193
X33900Y34207
X15283Y18820
X15305Y33405
X34200Y19000
X34200Y33400
X36700Y41500
X36700Y42600
X800Y41500
X1900Y42600
X800Y42600
X800Y1900
X1900Y800
X800Y800
X35600Y800
X36700Y1900
X36700Y800
X12100Y41500
X14700Y41500
X34300Y41200
X35600Y42600
X34700Y11200
X36000Y10000
X11900Y10400
X11200Y900
X12000Y900
X8000Y900
X8800Y900
X16200Y12800
X17500Y11300
X36600Y30700
X36600Y31600
X36600Y21700
X30907Y28107
M30